<?xml version="1.0" encoding="UTF-8"?>
<svg id="Layer_1" xmlns="http://www.w3.org/2000/svg" version="1.1" viewBox="0 0 580.6 731.2">
  <!-- Generator: Adobe Illustrator 30.5.1, SVG Export Plug-In . SVG Version: 2.1.4 Build 3)  -->
  <defs>
    <style>
      .st0 {
        fill: #fff;
      }

      .st1 {
        fill: #8f5436;
      }

      .st2 {
        fill: #a74129;
      }

      .st3 {
        fill: none;
        stroke: #000;
        stroke-miterlimit: 10;
      }
    </style>
  </defs>
  <g>
    <path class="st2" d="M223.9,255.9s-9.4-18.7-22.9-19.9-11.2,1.7-16,1.8-10.5-1.1-15.9.4-18.6,9.4-24.1,24.3c2.6,4.2,9,2.9,12.9,0s8.1-5.7,10.1-7.9,5.9-5.5,8.3-5.2,5.3.6,8.1.2,7.1-2.1,9.1-1.8,11.2,5.8,14.7,7.5,10.1,5.3,15.6.6Z"/>
    <path class="st2" d="M218.3,258.3s-1.9,2.3-4.6,2.7-9.9-.2-11.6,0-4.4-1-7.8-.5-6.7,2-8.9,2.2-8-1.2-11-1.2-17.6,5.4-20.4,5.5-4.7,3.5-2.2,4.8,13.6,6.1,16.9,6.4,13.8-1.3,15.8-1.4,19.4-3,22.9-4.2,9.8-6.8,10.9-8.6,3.2-6.7,0-5.8Z"/>
  </g>
  <circle class="st1" cx="231.5" cy="232" r="1.5"/>
  <g>
    <g>
      <path class="st3" d="M107.4,189.2c-1.3,0,6.1-11.8,14-14.2s21.4,6.1,21.4,6.1c0,0-23,8.7-35.4,8.1Z"/>
      <path class="st3" d="M132,166.1s-20.1-3.7-29.5,10.9"/>
      <circle cx="122.9" cy="180.5" r="4.1"/>
      <circle class="st0" cx="125.8" cy="177.9" r="1"/>
      <circle class="st0" cx="123.4" cy="183.6" r=".7"/>
      <path class="st3" d="M118.9,188c-2.8-1.4-4.8-4.3-4.8-7.7s0-.5,0-.8"/>
      <path class="st3" d="M129.8,175.4c1,1.4,1.6,3.1,1.6,4.9s-.6,3.6-1.6,5"/>
      <path class="st3" d="M144.1,185.3s-20.2,14.5-37.5,9.8"/>
    </g>
    <g>
      <path class="st3" d="M194.4,176.3s2.9,1.7,5.3,0,11.4-10.2,16.9-10.2,13.2,3.2,17.1,9.3"/>
      <path class="st3" d="M196.4,177.9s29.1.7,36-.8"/>
      <path class="st3" d="M201.7,163.5s18.5-16.9,37.2,0"/>
      <circle cx="216.5" cy="172.2" r="3.6"/>
      <circle class="st0" cx="217.6" cy="169.8" r="1.1"/>
      <circle class="st0" cx="215.4" cy="175.6" r=".8"/>
      <path class="st3" d="M211,178.1c-1.5-1.5-2.4-3.6-2.4-5.9s.2-2.2.6-3.2"/>
      <path class="st3" d="M223.4,167.2c1.1,1.4,1.7,3.1,1.7,5s-.9,4.3-2.4,5.8"/>
      <path class="st3" d="M232.4,185.2s-10.8,2.5-21.5-.5"/>
    </g>
  </g>
  <g>
    <path class="st3" d="M86.3,103.1c4.3-8.1,20.1-15.5,43.5-13.9s30.3,0,43.5-6.2,29.1-3.7,47.1,2.9,32.4,32.3,41.4,63,5.5,57.8,8.6,81.7-2,37.7-2,37.7c0,0,.8,35.3-46.5,57.4-33.5,14.9-57.3,10.8-72.7,5.7-51.4-20.1-58.7-52.2-60.4-57.1,0,0-6-17.1-7.5-26.5"/>
    <path class="st3" d="M261.7,290.7s.5,31.1,4.6,36.4,5.5,5.5,5.5,5.5"/>
    <path class="st3" d="M93.4,290.7s31,94.7,62,133.2"/>
  </g>
  <g>
    <path class="st3" d="M196.9,215.1c0-1.2-.5-2.7-1.7-4-3-3.3-5.9-2.4-7.2-1s-1.8,2.1-2.2,3.5"/>
    <path class="st3" d="M176.6,215.7s-.9-6-5.7-4.2-6.5,5.8-6.8,9"/>
    <path class="st3" d="M198.1,222.7s7.9.4,8.5-6.8"/>
    <path class="st3" d="M153.3,219.3s-.5,10.4,10.8,6.7"/>
    <path class="st3" d="M153.3,165.7s7.4,8.2,3.5,17.2"/>
    <path class="st3" d="M192.3,194.4c-4.1-4.7-12.9-23.7-13.1-33"/>
  </g>
  <g>
    <path class="st3" d="M194.4,143.3s16.6-13.3,35.6-9.5,24.6,21.1,24.6,21.1"/>
    <path class="st3" d="M140.4,147.3s-23.8-7.2-36.8-1.4-22.4,27.2-22.5,31"/>
  </g>
  <g>
    <path class="st3" d="M103.8,89.6s-1.2-5.7-10.3-3.3-11.5,8.5-10.3,14.8,7.8,31.7-4.2,47.7c-12.1,16-24.3,18.5-32.6,17s-28.5-7-37.7-42.1"/>
    <path class="st3" d="M71,189.2s1.7,23.8-3.8,33.5-25.4,18.8-33.4,25.4-5.6,13.8-4.9,20.1"/>
    <path class="st3" d="M225.1,77.5c6.2-3.9,11.6-16,2.5-32.6S195.4,4.8,164.1,1.2s-54.8,7.5-72.2,19.3"/>
    <path class="st3" d="M110.8,32.8s-23.1-11.8-61.1,6.3-48.5,95-1.8,98.2"/>
    <path class="st3" d="M138.6,72.3s-10.5-21.8-41-16.7c-30.5,5.1-16.7,41.7-22.5,54.1-5.8,12.3-14.9,20-22.5,17.8"/>
    <path class="st3" d="M16.6,259.1C8.2,244.2.6,219.3.6,198s12.2-34.8,27.5-37.7"/>
    <path class="st3" d="M63.7,266.8s-1.7-8.8-17.2-8.7c-15.6.1-32.8,20.8,0,41.4"/>
    <path class="st3" d="M238.9,63.4s16.3-3.6,31.7,16,12.3,37,11,41.3"/>
    <path class="st3" d="M279.9,276c26.8-3,28.6-32.4,14-45.5,0,0-12.5-12.4-11.1-20.8"/>
    <path class="st3" d="M291.4,169s21.6-4.4,21.9,17.1-13.7,31.6-13.7,36.6"/>
    <path class="st3" d="M273.8,125.9s36.1-11.6,39.5,21.7"/>
    <g>
      <path class="st3" d="M23.1,307.8s-12.8,29.2,19.7,41.1"/>
      <path class="st3" d="M58.2,340.9s-21.3,5.7-8.6,24.7"/>
      <path class="st3" d="M62.4,319.2s-11.6,17,3.3,34.1"/>
    </g>
    <path class="st3" d="M310.4,265.3s9.2,33.7-16.4,34.3"/>
    <path class="st3" d="M69.8,363.4c-1.7-6.1-9.7-6.9-13-6-8.3,2.2-13,16.6,1.9,21"/>
    <path class="st3" d="M.6,265.3s-2.9,42.1,34.5,42.6"/>
    <g>
      <path class="st3" d="M108,376.4c-7.8-13.4-25.6-8.5-28.7,8.4s21.7,40.1,44.5,2"/>
      <path class="st3" d="M59.4,373.1s-3.8,15.8,17.9,15.4"/>
    </g>
  </g>
  <g>
    <path class="st3" d="M266.7,353.3s58.4-23.3,103.6,12.4,63.8,45.9,77.3,54.6,47.7,38.6,69.1,80.6,49.4,81.2,63.5,93.7"/>
    <path class="st3" d="M132,394.8s-46.1,30.8,3.2,75.4"/>
    <path class="st3" d="M137.5,459.4s-13.7,100.6-1.3,160.7-6.4,63.3-13.5,78.1c-7.2,14.8-6.7,29.8-5.3,32.6"/>
    <path class="st3" d="M345,539.4s31.8,4.4,53.5,32.7,132,144.8,165.8,158.6"/>
    <path class="st3" d="M407.1,582.8s-146.8-48.3-268.4,58.3"/>
    <path class="st3" d="M188,583.4s4.3,15.5,0,23"/>
  </g>
</svg>