<?xml version="1.0" encoding="UTF-8"?>
<svg id="Layer_2" xmlns="http://www.w3.org/2000/svg" version="1.1" viewBox="-21.17 -40.91 585.04 664.81">
  <!-- Generator: Adobe Illustrator 30.5.1, SVG Export Plug-In . SVG Version: 2.1.4 Build 3)  -->
  <defs>
    <style>
      .st0 {
        fill: none;
        stroke: #231f20;
        stroke-miterlimit: 10;
      }
    </style>
  </defs>
  <g>
    <circle class="st0" cx="243.9" cy="233" r="37.5"/>
    <circle class="st0" cx="363.9" cy="231.3" r="37.5"/>
    <path class="st0" d="M326.4,228.4h-4.5s-8.5-4.8-17-4.8-19.5,6.2-19.5,6.2h-4"/>
    <polyline class="st0" points="401.5 231.3 413.3 231.3 427.5 223.6"/>
    <polyline class="st0" points="206.4 233 194 233 187.7 223.6"/>
  </g>
  <g>
    <path class="st0" d="M310.9,159.2s-4.5,29,6.4,41.5"/>
    <path class="st0" d="M292.4,162.6s3,27.3,0,32.9"/>
  </g>
  <g>
    <path class="st0" d="M319.7,202.4s3.4-6.4,19-6.9,49.9,1.9,54,3.5,8.7,8,8.7,8l7.3-1.9s-10.7-22.4-44.5-22.1c-16.8-12.6-27-9.9-27.8-3.1-12.9-4.2-25.6,5.2-25.6,5.2l8.8,17.3h0Z"/>
    <path class="st0" d="M283.6,195.5s-14.1-22.1-37.3-21.3c-23.2,3.1-38.1,10.2-44.5,10.6-2.7,3.1-4.7,13.4-4.7,13.4,0,0,16.1,1.1,26.1,0s14.8-5.2,22.8-4.5,19.4,5.5,25.5,5,12.2-3.3,12.2-3.3h0Z"/>
  </g>
  <g>
    <g>
      <g>
        <path class="st0" d="M272.8,224.7s-17.1-12.8-30.1-13-24.8,12-24.8,12"/>
        <path class="st0" d="M270.4,224.7s-40.9,5.9-46.5-3.3"/>
        <path class="st0" d="M265.1,213.1s-28.9-12.5-48.6,7"/>
        <path class="st0" d="M251.6,213.7c.1.6.1,1.2.1,1.8,0,6.1-4.9,11-11,11s-11-4.9-11-11v-.4"/>
      </g>
      <g>
        <path class="st0" d="M336.3,222.3h4.1s28.9-21.3,49.1,6.1"/>
        <path class="st0" d="M380.7,226.8s-12.8-23.1-37.3-3.1"/>
        <path class="st0" d="M336.3,224.7h10.8s9.9,11.1,32.3,2.8"/>
        <path class="st0" d="M373.7,219.2c0,.3,0,.6,0,.9,0,5.4-4.4,9.8-9.8,9.8s-9.8-4.4-9.8-9.8.2-2.2.5-3.2"/>
      </g>
    </g>
    <g>
      <path class="st0" d="M343.3,234.2s16.7,13.6,39.5,3.1"/>
      <path class="st0" d="M216.4,230.6s14.3,8.3,35.3,2.4"/>
    </g>
  </g>
  <g>
    <path class="st0" d="M292.4,231.3s-23.7,33.3-16.3,48.5"/>
    <path class="st0" d="M320.1,234.2s17.4,45.2,11,48.8"/>
    <path class="st0" d="M273.8,283s-17.5,31.5,5.9,31.2"/>
    <path class="st0" d="M326.4,315.6s21.3-3.2,6.1-30.1"/>
    <path class="st0" d="M317.3,309.9s12.4,5,13.8,0-7.3-9.1-17.5,2.2-20.1,5.4-23.3,0-10.4-14.5-15.6-10,2,13.8,11,6.5"/>
    <path class="st0" d="M326.3,273.1s-11.8,3.3-12.7,18.6"/>
    <path class="st0" d="M279.7,273.1s11.4,1.4,12.7,18.6"/>
  </g>
  <g>
    <path class="st0" d="M339.9,361.8s-21.9-4.7-32.7-2.7-17.5-.7-23.6-2-12.8,3.7-20.9,4.7"/>
    <path class="st0" d="M272.8,365.5s30.5,20.2,59.8,0"/>
  </g>
  <g>
    <path class="st0" d="M427.5,298.9c-2.5,11.5-48.6,37.3-57.9,37.3s-20.9-11-33.3-15.1-28.8,2.3-28.8,2.3c-20.3-9.9-30.6-4.1-40,.6s-23.6,1.2-23.6,1.2l-11.9,11s-4.3-17.6-20.1-22c-13.5-3.8-17.8-6.2-29.8-51.1"/>
    <path class="st0" d="M357.9,364.2c-33.9-3.7-42.1-16.3-42.1-16.3l-13.2,4-10.2-4s-18.6,10.2-33.6,11.5"/>
    <path class="st0" d="M175.6,279.8s8.4,193.4,118.2,189.2,131.2-61.4,138-157"/>
    <path class="st0" d="M255.6,365.5s-5.8,18-18.8,19.1"/>
    <path class="st0" d="M283.6,326.6s-2.7,5.1-2.1,15.7"/>
    <path class="st0" d="M308.4,326.6s5.2,9.4,5.3,15.7"/>
    <path class="st0" d="M299,326.6s-7.8,6.1-8.3,19.1"/>
    <path class="st0" d="M323.7,330.1s6.5,22.6,23,23.9"/>
    <path class="st0" d="M345,336.2s13,22.5,28.7,23.2"/>
    <path class="st0" d="M262.7,337.9s-10.6,24-22,26.3"/>
    <path class="st0" d="M240.7,347.8s2.8,10.6-6.6,17.8"/>
    <path class="st0" d="M219.4,336.1s-14,14.7-13.1,23.2"/>
    <path class="st0" d="M382.8,337.9s28.3,8.6,28.3,21.5"/>
    <path class="st0" d="M382.8,356.1s27.2,6.6,26,28.5"/>
    <path class="st0" d="M373.7,370.3s7.8,21,11.3,25.4"/>
    <path class="st0" d="M350.7,383s14.8,0,14.8,12.7"/>
    <path class="st0" d="M308.4,379.2s-1.3,17,5.3,20.4"/>
    <path class="st0" d="M296.3,379.2s1.3,13.5-5.6,20.4"/>
    <path class="st0" d="M302.1,399.6s4.7,36.9,21.6,45.2"/>
    <line class="st0" x1="251.7" y1="417" x2="241.1" y2="434.4"/>
    <path class="st0" d="M338,395.7s8.4,36.1,26,35.6"/>
    <line class="st0" x1="262.7" y1="386.5" x2="246.4" y2="410.3"/>
    <path class="st0" d="M273.6,395.7s-18.4,21.4-27.2,21.3"/>
    <line class="st0" x1="286.1" y1="417" x2="267.5" y2="431.3"/>
    <path class="st0" d="M223.9,359.4s-4.4,11.9-4.4,19.8"/>
  </g>
  <g>
    <path class="st0" d="M335.2,54.2s35.6,12.6,38.5,27.2"/>
    <path class="st0" d="M350.7,54.2s10.5,47.3,23,59.6,40.5,37.6,48.1,53.4,22.9,93.8,15.7,127.9-36.4,96.8-26.4,115.1,16.5,28.5,16.5,28.5"/>
    <path class="st0" d="M331.3,59.8s-49.5-5.3-60.9,21.6-46.2,63.6-64,81.2-31.3,74.6-30.7,100.4,13.9,97.7,12,107.3-32,141.7-80.6,138.9c-20.8,0-30.1-12.3-30.1-12.3"/>
    <path class="st0" d="M60.1,231.3c4.4-1.2,33.8-25.2,53.7-72.1,19.9-46.8,70.6-118,122.9-143s71.5-3.7,71.5-3.7c0,0,71-56.2,131.1,74.6,60.1,130.8,145.6,282.9,62.6,389.8"/>
    <path class="st0" d="M119,159.2s-25.8,54.3-65.5,97.4C10.1,303.8,2.7,328.2.5,354"/>
    <path class="st0" d="M499.4,458s-20.1,22.6-20.1,34,21.4,20.9,62.9,17.4"/>
    <path class="st0" d="M408.8,458s-62.7,115.7,61.8,124.5"/>
    <path class="st0" d="M396.9,476.9s-45.3,66.1-14.1,93"/>
    <path class="st0" d="M148.7,374.4s-11.7,96.3,16.2,149-41.5,69.8-42.4,35.5"/>
    <path class="st0" d="M128,384.6s-62.8,184.2-107.3,68.8"/>
    <path class="st0" d="M163.2,174.2s-49.6,99.9-71.3,108.8-52.3,49.1-62.2,76.4S.5,374.4.5,374.4"/>
    <path class="st0" d="M94.6,291.7s13.5,110.9-83,114.6"/>
    <path class="st0" d="M106.3,356.1s-24.3,74.1-94.7,60.9"/>
    <path class="st0" d="M470.5,458s-35.9,56.7,22.8,56.7"/>
    <path class="st0" d="M401.5,495.7s10.6,89.7,61.1,80.9c50.5-8.8,30.7-34,30.7-34"/>
  </g>
</svg>
