<?xml version="1.0" encoding="UTF-8"?>
<svg id="Layer_1" xmlns="http://www.w3.org/2000/svg" xmlns:inkscape="http://www.inkscape.org/namespaces/inkscape" version="1.1" viewBox="0 0 1072.6 1319.9">
  <!-- Generator: Adobe Illustrator 30.5.1, SVG Export Plug-In . SVG Version: 2.1.4 Build 3)  -->
  <defs>
    <style>
      .st0 {
        fill: none;
        stroke: #000;
        stroke-miterlimit: 10;
      }
    </style>
  </defs>
  <path d="M851.6,483.6l-15.9,47.8s.6,8.5-14.9,7.8-16.3.8-16.3.8c0,0-.4-55.6-77.9-59.5-49-1.6-67.2,17.2-75.6,28.1-10.3-3.6-48-13.4-70.4-10.1-4.1-15.4-25.9-52.3-70.9-56.8-47.7-4.7-68.6,8.9-85.7,31.3-8.6-1.1-18.8-5-18.8-5,0,0-19.8-6.3-23.6-9.7-3.8-3.4-85.2-71.3-89-83.9-7,.2-10.8,6.1-10.8,6.1l97.8,92.1s23.3,17.7,37,19.9c-1.4,14.9,10.7,78.6,77.5,81,53.6,3.1,78.5-33.1,81.5-48.1,2-6.9,5.5-15.1,13.8-16.5s30.7-4.7,51.3,9.5c4,3,2.1,15.9.9,19.9-1.2,4.1,12.1,72.6,77.3,71.4,65.2-1.2,77.3-39.5,79.5-43.6,1-1.9,2.4-6.4,13.2-8.7,7.6-1.6,12.8-2,16.9-5s7.9-7.7,9.1-11.9,16.9-53.1,17.1-54.3c.2-1.3-.6-8-3.1-2.8v.2ZM498.6,569c-39.2,0-75.3-31.9-75-65.5.4-40.9,35.9-57.7,75-56.1,39.2,1.6,79.1,25.6,79.1,59.2s-39.2,62.4-79.1,62.4h0ZM719.2,606.2c-40.6,0-71.5-33.2-71.5-65.8s31.3-58,78.9-54c47,4,73.6,26,73.6,58.6s-40.4,61.2-80.9,61.2h0Z"/>
  <g>
    <path class="st0" d="M749.9,718.9s-48.6-76.8-74.7-97.1"/>
    <path class="st0" d="M670.5,627.5s31.4,32.6-1.9,50.1c0,0-7.3.4-14,4s-17.7,13.4-24.5,18-35.8,7.4-42.6-.3-14.9-19.8-19.1-23.7-20.4-11-31.6-11-18.9-40.1-7.7-56.2"/>
    <path class="st0" d="M524.6,608.6s-79.4,51.4-93,62"/>
    <path class="st0" d="M656.7,427.6l-14.7,39.8s1.7,18.1-19.2,24.6c3.8,6.5,7.3,20.6,7.3,20.6,3.3,14.6,4.4,156.7,4.4,156.7"/>
    <path class="st0" d="M547.3,603.6s16.8,26.3,14.5,39.1"/>
  </g>
  <g>
    <path class="st0" d="M828.7,436.6s16.7,159.4-47.1,264.2c0,0-3.4,42.9-9.9,56.2"/>
    <path class="st0" d="M292.6,629.7s-21.5,17.5-38.3-15.2-44.6-81.8-35.7-113.9c-10.5-38.2-37.8-184.9,40.3-132"/>
    <path class="st0" d="M263.1,408.5c-5.8-9.2-53.6-73.1-49.3,16.2"/>
    <path class="st0" d="M282.5,458.7s11.7,7.5,6.5,24.4-8.6,31.3-1.9,48.5"/>
    <path class="st0" d="M227.2,494.4s-.5,33.1,13.1,46.3"/>
    <path class="st0" d="M275.4,460.1s-8.4,33.5-13.9,42.5-4.9,21.7,17,29"/>
    <path class="st0" d="M817.7,642.6s-25.4,144-54.2,174c-32.2,33.8-128.6,189.3-126.9,209.7"/>
    <path class="st0" d="M753.6,777.6s-84.4,208.6-202.1,173.8c-117.7-34.8-150.1-125.1-151.8-167.9"/>
    <path class="st0" d="M292.7,562.6s3.6,209,98.2,287"/>
    <path class="st0" d="M895.3,159.4c4.7-.4,13.4-5.7,13.4-5.7-11,4.4-20.2,33.9-20.2,33.9l21.9-2.1"/>
    <path class="st0" d="M908.4,138.9s-12.6,11.5-13.4,22.8"/>
    <path class="st0" d="M906.1,138.7s-13.8,1.9-17,3.6"/>
    <path class="st0" d="M889.1,137.4s1.8-30-.6-37"/>
    <path class="st0" d="M907.6,189.6s18.6-1.7,32.1,6.1"/>
    <polyline class="st0" points="919.4 200.1 931.6 203.6 917.4 206.5"/>
    <path class="st0" d="M916.4,210.5s28.3,14.5,33.9,31.8"/>
    <path class="st0" d="M919.3,198.7s4.6-6.4,21.7-1.1"/>
    <path class="st0" d="M931.6,230.7s6.5.2,16,9.9"/>
    <path class="st0" d="M930.2,235.7s59.5,60-22.6,220.9"/>
    <path class="st0" d="M886.5,101.3c-2.2,17.9-10,25.5-10,25.5,0,0-171.1-161.3-406.3-119.4-235.2,41.9-238.7,218.3-234.1,346.5"/>
    <path class="st0" d="M674.1,142.4s-17.4-21.6-49.2-28.2-84.4,11.2-110.2,10.6-59.7,5.2-77.4-5"/>
    <path class="st0" d="M437.6,133.6s-99,99.9-62.9,215"/>
    <path class="st0" d="M373.2,362.4s-86.6,82.4-57,256.2"/>
    <path class="st0" d="M698.2,162.2s-1.4-36.9-59.7-59.1"/>
    <path class="st0" d="M501.1,99.4s-62.1,19.3-120.8-13.9"/>
    <path class="st0" d="M696.5,113.6s-73.8-50.4-146.4-33.1"/>
    <path class="st0" d="M785.2,159s101.7,46.5,48.7,281.8"/>
    <path class="st0" d="M771.2,154.7s-39.7-6.4-59.6,15.9"/>
    <line class="st0" x1="275.9" y1="633.7" x2="275.1" y2="734.6"/>
    <path class="st0" d="M236.1,587s-6.2,70.1,3,103.8,14.1,33.9,32.6,37.2"/>
    <g>
      <path class="st0" d="M882.7,481.6s25.9-45.2,17.3,6.4-37.6,85.1-41.8,102.7-15.2,82-26.6,98-26.3,21.8-26.3,21.8"/>
      <path class="st0" d="M888.6,487.8s-10.2,6.8-15.5,26.3"/>
      <path class="st0" d="M863.6,551.6s-11.8,12.6-11.9,32.4c0,22.2-13.5,36.2-21.1,43.6"/>
    </g>
    <path class="st0" d="M393.1,162.2s-77.9,15.3-93.5,48.3"/>
    <path class="st0" d="M362.6,206.5s-54.7,18.8-64,35.8"/>
    <path class="st0" d="M346.6,240.6s-56.3,30.6-64.1,51.8"/>
    <path class="st0" d="M352.2,292.4s-55.4,14.1-80.5,47.7"/>
    <path class="st0" d="M849.2,210.5s32.2-2.7,50.2,7.2"/>
    <path class="st0" d="M863.6,242.3s38-2.8,60.9,13.9"/>
    <path class="st0" d="M842.1,200.1s37-15,59.6,0"/>
    <path class="st0" d="M871.9,299.9s47.7-6.9,57.4,20.8"/>
    <path class="st0" d="M868.1,367.4s18.2-12.7,42.3,7.2"/>
  </g>
  <g>
    <path class="st0" d="M472.7,708.6s79.7,54.2,115.4,58.7c46.6,5.9,67.2-12.6,88.5-18.4s23.6-4.2,23.6-4.2"/>
    <path class="st0" d="M473.6,719.6s64.9,71,114.1,73,88.4-26.9,92.9-27.7"/>
    <path class="st0" d="M495.6,716.6s61,15,77,22,29.4,9.7,47.5,7,40.9-2.5,54.5-.7"/>
    <path class="st0" d="M697.3,753.6s-1.7,23.4,6.3,30"/>
    <path class="st0" d="M457.6,712.6s-6,20-15,25"/>
    <path class="st0" d="M546,831.6s26.8,21.6,54.4,13.4"/>
    <path class="st0" d="M393.1,721.1c-9.6-30.5,0-68,0-68"/>
  </g>
  <g>
    <g>
      <path class="st0" d="M691.6,500.6s41.6,1.9,64.6,16c7.5,4.4,14.4,21,14.4,21"/>
      <path class="st0" d="M670.6,519.6s50.9,26,76,4"/>
      <circle cx="706.5" cy="513.6" r="7.1"/>
      <path class="st0" d="M728.6,509.6s2.6,23.1-20,22.8-21.3-17.1-21.2-19.6.4-10.2,6.3-12.5c5.9,0,34,5.3,34,5.3,0,0,0-.7.8,4.1h.1Z"/>
      <path class="st0" d="M781.6,534.1s18.4,1.3,28-5.5"/>
      <path class="st0" d="M764.6,543.6s7.2,5,18.9,3"/>
      <path class="st0" d="M678.6,539.2s40.9,14.6,69.9,2.4"/>
      <path class="st0" d="M677.3,548.6s21.6,25.4,81.3,14"/>
    </g>
    <g>
      <path class="st0" d="M544.7,476.8s-34.1-18.2-100.1,8.8"/>
      <path class="st0" d="M531.6,476.5s7.7,7.6,8.4,12.6"/>
      <path class="st0" d="M534.5,497.5s-40.4,7.5-64.7-14.8"/>
      <path d="M507.2,477.8c0,3.9-3.2,7.1-7.1,7.1s-7.1-3.2-7.1-7.1,3.2-6.2,7.1-6.2,7.1,2.2,7.1,6.2Z"/>
      <path class="st0" d="M520.6,479.6c.6,11.3-7.2,17.4-18.5,17.4s-22.2-7.1-22.5-18.4,9.1-5.9,20.5-7,12.1-1.1,15.9,0,4.5,5.1,4.7,8h-.1Z"/>
      <path class="st0" d="M433.8,480.1s-16.9-5.9-26-23.1"/>
      <path class="st0" d="M436.1,491.3s-17.2,4.4-24.6,3.4"/>
      <path class="st0" d="M531.7,508.1s-40.5,7.4-72-11.6"/>
      <path class="st0" d="M547.7,519.6s-31.3,10.5-59.1,9"/>
    </g>
  </g>
  <g>
    <path class="st0" d="M692.6,688.6s42.1,34.7,43.7,44"/>
    <path class="st0" d="M537.5,673.6s-23.7,21-21.3,26"/>
    <line class="st0" x1="504.6" y1="687.6" x2="488.5" y2="704.4"/>
    <line class="st0" x1="561.9" y1="687.5" x2="547.4" y2="702.5"/>
    <line class="st0" x1="580.6" y1="709.6" x2="573.6" y2="729.6"/>
    <line class="st0" x1="596.2" y1="719.5" x2="603.4" y2="739.5"/>
    <line class="st0" x1="612.9" y1="717.6" x2="623.7" y2="742.7"/>
    <line class="st0" x1="624.6" y1="710.1" x2="637.5" y2="739.5"/>
    <line class="st0" x1="647.1" y1="707.5" x2="656.2" y2="734.6"/>
    <line class="st0" x1="661.6" y1="705" x2="675.8" y2="736.6"/>
    <path class="st0" d="M681.1,707s18.7,23.5,23.5,27.6"/>
    <line class="st0" x1="485.6" y1="688.6" x2="448.6" y2="700.6"/>
    <line class="st0" x1="568.6" y1="807.6" x2="562" y2="828.1"/>
    <line class="st0" x1="580.1" y1="816.1" x2="577.6" y2="840.5"/>
    <line class="st0" x1="589.6" y1="812.6" x2="601.4" y2="838.1"/>
    <line class="st0" x1="608.1" y1="815.4" x2="621.6" y2="846.2"/>
    <line class="st0" x1="632.2" y1="814.1" x2="643.6" y2="840"/>
    <line class="st0" x1="539.6" y1="806.5" x2="518" y2="821"/>
    <line class="st0" x1="564.8" y1="704.1" x2="553.7" y2="722.5"/>
    <line class="st0" x1="526.9" y1="793.4" x2="502.6" y2="812.6"/>
    <line class="st0" x1="695.6" y1="705" x2="717.9" y2="735.6"/>
    <line class="st0" x1="426.6" y1="788.3" x2="410.9" y2="808.2"/>
    <line class="st0" x1="432.6" y1="813.6" x2="415.6" y2="824.6"/>
    <line class="st0" x1="441.6" y1="829.6" x2="425.6" y2="842.6"/>
    <line class="st0" x1="444.5" y1="856.5" x2="433.6" y2="861.6"/>
    <line class="st0" x1="454.4" y1="872.1" x2="441.5" y2="880.1"/>
    <line class="st0" x1="462.3" y1="886.1" x2="455.2" y2="896.9"/>
    <line class="st0" x1="477.6" y1="899.6" x2="465.6" y2="917.6"/>
    <line class="st0" x1="491.6" y1="908.6" x2="481" y2="926.8"/>
    <line class="st0" x1="504.6" y1="912.6" x2="494.1" y2="937"/>
    <line class="st0" x1="532.3" y1="910.7" x2="526.9" y2="934.4"/>
    <line class="st0" x1="548.5" y1="921.6" x2="544.6" y2="934.7"/>
    <line class="st0" x1="566.6" y1="918.6" x2="558" y2="941.6"/>
    <line class="st0" x1="578.1" y1="915.5" x2="574.6" y2="939.6"/>
    <line class="st0" x1="591.5" y1="919.7" x2="587.3" y2="942.6"/>
    <line class="st0" x1="605.1" y1="924.3" x2="603.7" y2="943.6"/>
    <line class="st0" x1="622.6" y1="910.6" x2="618" y2="939.3"/>
    <line class="st0" x1="641.5" y1="906.7" x2="632.6" y2="933.6"/>
    <line class="st0" x1="654.6" y1="889.9" x2="652.6" y2="910.8"/>
    <line class="st0" x1="670.6" y1="880.1" x2="664.6" y2="905.7"/>
    <line class="st0" x1="685.8" y1="865.8" x2="679.6" y2="897.7"/>
    <line class="st0" x1="697.5" y1="840.5" x2="695.5" y2="867.6"/>
    <line class="st0" x1="710.7" y1="814.7" x2="708" y2="850.1"/>
    <line class="st0" x1="721.7" y1="812.6" x2="721" y2="841.2"/>
    <line class="st0" x1="733.8" y1="798.2" x2="733.8" y2="828.7"/>
    <line class="st0" x1="731.7" y1="839.6" x2="729.9" y2="870.6"/>
    <line class="st0" x1="718.7" y1="861.6" x2="720.6" y2="886.1"/>
    <line class="st0" x1="705.6" y1="879.6" x2="710.1" y2="900.9"/>
    <line class="st0" x1="744.5" y1="818.5" x2="745" y2="848.7"/>
    <line class="st0" x1="501.6" y1="940.8" x2="479.6" y2="945.6"/>
    <line class="st0" x1="476.6" y1="927.6" x2="457.6" y2="937"/>
    <line class="st0" x1="457.6" y1="917.7" x2="439.6" y2="925.6"/>
    <line class="st0" x1="450.2" y1="907.6" x2="429.6" y2="911"/>
    <line class="st0" x1="366.6" y1="789.6" x2="324.6" y2="781.1"/>
    <line class="st0" x1="362.6" y1="764.8" x2="322.6" y2="769.6"/>
    <line class="st0" x1="359.6" y1="750.6" x2="333.5" y2="753.7"/>
    <line class="st0" x1="352.2" y1="734.6" x2="317.5" y2="745.7"/>
    <line class="st0" x1="344.7" y1="720.7" x2="311.6" y2="725.6"/>
    <line class="st0" x1="298.6" y1="697.5" x2="332.5" y2="707.7"/>
    <path class="st0" d="M333.9,692.4"/>
    <line class="st0" x1="333.9" y1="692.4" x2="298.6" y2="707.7"/>
    <line class="st0" x1="336.5" y1="677.9" x2="295.6" y2="678.5"/>
    <line class="st0" x1="293" y1="667.7" x2="332.5" y2="660"/>
    <line class="st0" x1="325.7" y1="632.8" x2="294.5" y2="656.2"/>
    <line class="st0" x1="322.5" y1="649.8" x2="286.4" y2="645.3"/>
    <line class="st0" x1="323.8" y1="623.2" x2="287.1" y2="639.1"/>
    <line class="st0" x1="729.5" y1="775.6" x2="753.4" y2="798.3"/>
    <line class="st0" x1="735.7" y1="768.5" x2="761.6" y2="788.7"/>
    <line class="st0" x1="747.9" y1="752.9" x2="758.5" y2="795.5"/>
    <line class="st0" x1="738.9" y1="761.9" x2="761.6" y2="770.6"/>
    <line class="st0" x1="760.5" y1="799.5" x2="763.1" y2="819.6"/>
    <line class="st0" x1="772.3" y1="781.3" x2="774.1" y2="806.6"/>
    <line class="st0" x1="779.6" y1="756.1" x2="783.5" y2="789.6"/>
    <line class="st0" x1="787.6" y1="733.6" x2="789.4" y2="770.4"/>
    <line class="st0" x1="793.6" y1="711.6" x2="793.9" y2="755.3"/>
    <line class="st0" x1="797.5" y1="695.4" x2="801.2" y2="734.6"/>
    <line class="st0" x1="803.6" y1="673.6" x2="806.6" y2="721.6"/>
    <line class="st0" x1="808.5" y1="657.7" x2="814.6" y2="691.3"/>
    <line class="st0" x1="413.7" y1="759.6" x2="378.6" y2="790.6"/>
    <line class="st0" x1="407.8" y1="748.8" x2="366.6" y2="781.1"/>
    <line class="st0" x1="322.8" y1="582.5" x2="298.6" y2="614.6"/>
    <line class="st0" x1="320.7" y1="563.6" x2="296.9" y2="596.5"/>
    <line class="st0" x1="317.3" y1="538.8" x2="303.6" y2="562.6"/>
    <line class="st0" x1="322.5" y1="517.2" x2="299.6" y2="539"/>
    <line class="st0" x1="324.6" y1="492.6" x2="299.5" y2="517.2"/>
    <line class="st0" x1="500.6" y1="859.1" x2="485.6" y2="873.9"/>
    <line class="st0" x1="501.6" y1="833.6" x2="485.6" y2="850.1"/>
    <line class="st0" x1="467.1" y1="789.6" x2="454.4" y2="812.6"/>
    <line class="st0" x1="462.3" y1="764.8" x2="450.2" y2="781.3"/>
    <line class="st0" x1="479.6" y1="806.6" x2="465.6" y2="828.7"/>
    <line class="st0" x1="462.3" y1="777.6" x2="450.2" y2="795.5"/>
    <line class="st0" x1="479.6" y1="824.6" x2="456.2" y2="854.1"/>
    <line class="st0" x1="456.2" y1="750.6" x2="444.5" y2="774.2"/>
    <line class="st0" x1="477" y1="842.6" x2="465.6" y2="861.6"/>
    <line class="st0" x1="531.6" y1="859.1" x2="531.6" y2="870.6"/>
    <line class="st0" x1="550.1" y1="859.1" x2="550.1" y2="886.1"/>
    <line class="st0" x1="532.3" y1="881.8" x2="508.9" y2="881.8"/>
    <line class="st0" x1="585.1" y1="865.8" x2="585.1" y2="892.9"/>
    <line class="st0" x1="608.1" y1="867.6" x2="620.3" y2="889.9"/>
    <line class="st0" x1="632.6" y1="867.6" x2="608.1" y2="900.9"/>
    <line class="st0" x1="656.2" y1="834.4" x2="664.6" y2="864.8"/>
    <line class="st0" x1="647.7" y1="803" x2="662.5" y2="819.1"/>
    <line class="st0" x1="674.6" y1="806.5" x2="653.6" y2="859.1"/>
    <line class="st0" x1="685.8" y1="807.6" x2="674.6" y2="832.8"/>
    <line class="st0" x1="675.2" y1="792.7" x2="691.6" y2="828.1"/>
    <line class="st0" x1="514.7" y1="786.6" x2="514.7" y2="812.6"/>
  </g>
  <g>
    <path class="st0" d="M275.9,730.9s50.4,106,115.1,160.6c64.7,54.6,218,130,223.5,143.9,0,0-10.3,11.2-11,13.2s-41.2-21.8-72.2-13.5c-13,14.5-9.8,16.1-12.8,26.7s-31.3,91.1-34.8,95.4c-6.5-12.2-106.8-177-123-199.7s-50.8-67.7-65.3-81.6c-20.2-19.3-38.3-54.2-41.7-63.1-5.8-15-3-25.8,4.7-39.8,0,0,8-32.7,17.6-42h-.1Z"/>
    <path class="st0" d="M691.7,922.7l129.2,250.3s-156.5-135.8-161.6-135.5-20.6,6.2-28.8,15.4c-4.4-.4-22.4-8.4-22.4-8.4l6.4-9.1,20.1-1.8s13.1-50.3,42.2-78c3.8-16.3,14.9-32.9,14.9-32.9h0Z"/>
  </g>
  <g>
    <path d="M697.6,911.6s36,32,46.1,37.9,221.6,111.3,221.6,111.3c0,0,52.5,0,78.9,110.8s28.4,148,28.4,148h-190s-90-258.6-171.1-330.1c0,0-3.5-8.6-5.2-15.4s-5.8-23.8-6.6-27.7-3.7-22-8-23.7l5.9-11.1h0Z"/>
    <path d="M258.3,772.9c-7.7,14.1-10.5,24.9-4.7,39.8s21.5,43.8,41.7,63.1c14.5,13.9,49.1,58.8,65.3,81.6,16.2,22.8,116.5,187.5,123,199.7,14.3,20.5,58.9,134.2,80,162.5-48.2.5-563.6,0-563.6,0v-347l142.3-77,2.9-8s12.2-9,26.1-26c17.1-20.9,48-62.2,54.4-70.6s19.7-19.2,32.6-18.1h0Z"/>
    <path d="M746.7,1030.5h-9.6l-34.4,19.8-43.3-12.8-28.8,15.4-22.4-8.4-4.7,4.2s-45-21.6-72.2-13.6c-8,10.2-11.2,15.2-11.2,15.2,0,0,0,6.4-1.6,11.5s-34.8,95.4-34.8,95.4l11,19.8s6.8,4.1,12.7,1.8c-1.1,8,.3,10.8.3,10.8l5,6,13.6-.2s0-.6,2.7-.5,68.7-4.7,109.4-44c0,0,22.6.6,35.2-6.6s15.2-6,23.2-2.7,37.5,18.9,80.9,16c8.7-8.3,8-10.1,10.6-14.9s8.6-11.8,12.6-18.2c-19-41.6-54.2-94.1-54.2-94.1h0Z"/>
  </g>
  <g>
    <g>
      <path class="st0" d="M572.7,467.6s-55.2-56.1-127.6-28.1"/>
      <path class="st0" d="M659.6,490.7s56.5-38.4,140.5,0"/>
    </g>
    <path class="st0" d="M659.6,482.2l20.1-18.6,11.9,4,22-12,20.8,8.7h38.4s28.6,20,33.6,26.3"/>
    <polyline class="st0" points="582.6 465 558.6 431.7 557.6 439.6 524.8 423.5 526.1 428.6 508.7 421.7 484 414.6 486 419.6 452.6 419.6 452.6 425.3 421.7 433.4 433.8 434.6"/>
  </g>
</svg>