<?xml version="1.0" encoding="UTF-8"?>
<svg id="Layer_1" xmlns="http://www.w3.org/2000/svg" xmlns:inkscape="http://www.inkscape.org/namespaces/inkscape" version="1.1" viewBox="0 0 703 546">
  <!-- Generator: Adobe Illustrator 30.5.1, SVG Export Plug-In . SVG Version: 2.1.4 Build 3)  -->
  <defs>
    <style>
      .st0 {
        fill: #9b6c43;
      }

      .st1 {
        fill: #a26b46;
      }

      .st2 {
        fill: #774f30;
      }

      .st3 {
        fill: #a27b58;
      }

      .st4 {
        fill: #312921;
      }

      .st5 {
        fill: #73604c;
      }

      .st6 {
        fill: #473522;
      }

      .st7 {
        fill: #d9ab7b;
      }

      .st8 {
        fill: #503924;
      }

      .st9 {
        fill: #b58557;
      }

      .st10 {
        fill: #8a5e39;
      }

      .st11 {
        fill: #6a6441;
      }

      .st12 {
        fill: #765231;
      }

      .st13 {
        fill: #d7cfc5;
      }

      .st14 {
        fill: #5a4029;
      }

      .st15 {
        fill: #5f4329;
      }

      .st16 {
        fill: #d1a374;
      }

      .st17 {
        fill: #2c2720;
      }

      .st18 {
        fill: #6a673f;
      }

      .st19 {
        fill: #533c26;
      }

      .st20 {
        fill: #3f3223;
      }

      .st21 {
        fill: #2c261e;
      }

      .st22 {
        fill: #e6dbca;
      }

      .st23 {
        fill: #5f4229;
      }

      .st24 {
        fill: #2c261f;
      }

      .st25 {
        fill: #453321;
      }

      .st26 {
        fill: #5d4027;
      }

      .st27 {
        fill: #513a24;
      }

      .st28 {
        fill: #513a25;
      }

      .st29 {
        fill: #4c3622;
      }

      .st30 {
        fill: #6c6a42;
      }

      .st31 {
        fill: #d7cdbf;
      }

      .st32 {
        fill: #2b251f;
      }

      .st33 {
        fill: #a3754b;
      }

      .st34 {
        fill: #593d26;
      }

      .st35 {
        fill: #74614b;
      }

      .st36 {
        fill: #4a331f;
      }

      .st37 {
        fill: #563f27;
      }

      .st38 {
        fill: #3f2e1e;
      }

      .st39 {
        fill: #a97a4f;
      }

      .st40 {
        fill: #624126;
      }

      .st41 {
        fill: #563d28;
      }

      .st42 {
        fill: #745233;
      }

      .st43 {
        fill: #7f5833;
      }

      .st44 {
        fill: #ca9c6e;
      }

      .st45 {
        fill: #786552;
      }

      .st46 {
        fill: #553924;
      }

      .st47 {
        fill: #775536;
      }

      .st48 {
        fill: #8c6541;
      }

      .st49 {
        fill: #523b25;
      }

      .st50 {
        fill: #be8b5a;
      }

      .st51 {
        fill: #583e26;
      }

      .st52 {
        fill: #825835;
      }

      .st53 {
        fill: #5a4027;
      }

      .st54 {
        fill: #553c28;
      }

      .st55 {
        fill: #65442a;
      }

      .st56 {
        fill: #b78657;
      }

      .st57 {
        fill: #563e27;
      }

      .st58 {
        fill: #573e27;
      }

      .st59 {
        fill: #714d2f;
      }

      .st60 {
        fill: #a17246;
      }

      .st61 {
        fill: #282520;
      }

      .st62 {
        fill: #e2d9cd;
      }

      .st63 {
        fill: #696740;
      }

      .st64 {
        fill: #5b422c;
      }

      .st65 {
        fill: #a57950;
      }

      .st66 {
        fill: #846851;
      }

      .st67 {
        fill: #d3c7ba;
      }

      .st68 {
        fill: #312a21;
      }

      .st69 {
        fill: #563c25;
      }

      .st70 {
        fill: #98724d;
      }

      .st71 {
        fill: #bc8b5c;
      }

      .st72 {
        fill: #4b3523;
      }

      .st73 {
        fill: #a17347;
      }

      .st74 {
        fill: #c99a6a;
      }

      .st75 {
        fill: #d7a876;
      }

      .st76 {
        fill: #a6774c;
      }

      .st77 {
        fill: #8c623a;
      }

      .st78 {
        fill: #302921;
      }
    </style>
  </defs>
  <g id="background" inkscape:groupmode="layer" inkscape:label="Background">
    <rect class="st30" width="703" height="546"/>
    <path class="st30" d="M0,0h703v546h-21c-.5-2.2-1-4.4-1.4-6.7-4.9-20.4-14.7-39.4-29.6-54.3-.8-.9-1.7-1.7-2.5-2.6-11.1-10.8-23.8-14.3-38.5-17.6-12.9-2.9-25.6-6-38.1-10.4-7.6-2.6-13.7-4.1-21.8-3.5-5.1.2-10-.8-15-1.9v-3h3q-1-2-3.8-3.4c-8-4-11-9.5-14.2-17.6-.7-2.8-.9-5.1-1-8h-2c-.7,4.6-1.3,9.2-2,14l-2-1q-.3-2-.5-4.4c-.2-3.5-.5-4.5-2.5-7.6q.4-2.2,1-4c-4.1,6.8-5.8,12-5,20-1-.3-2-.7-3-1-1.7-8.5-.2-14.8,4.4-22.2,2.5-3.5,5.4-6.6,8.3-9.9,3.1-3.4,5.3-6.9,7.4-10.9h2c.3,2.6.7,5.3,1,8,3-4.6,3.4-7.9,2.7-13.1-1-4.5-2.8-8.6-4.5-12.8-1.4-3.8-1.9-7.1-2.1-11.1,1.7,2.1,3.1,4.2,4.4,6.6,1.7,2.6,2.8,3.1,5.6,4.4-.2-.7-.4-1.4-.7-2.1q-.1-.5-.8-2.7-.1-.5-.8-2.7t-.7-5.5c1.7.7,3.3,1.3,5,2-.7-4.8-1.9-9.1-3.5-13.6-2-5.9-3.6-10.8-3.6-17,0-1.1,0-2.1,0-3.2,0-1.1,0-2.2,0-3.4,0-1.1,0-2.2,0-3.4,0-2.8,0-5.6,0-8.3l2-1q0,.4.4,2.6c2,11.3,5.6,21.7,9.6,32.4,0-.6,0-1.1-.2-1.7-1-11.7-1-22.7,1.1-34.3,3.4-19.2,3-38.8-4.9-57-.3-.9-.7-1.7-1.1-2.6q-2.6-6.2-4.9-7.4c.3,8.9.7,17.8,1,27h-3c-2-6.3-4-12.5-6-19,0,1.6-.1,3.2-.2,4.8,0,2.1-.2,4.2-.3,6.3q0,.5-.1,3.1c-.2,5.3-.5,10.5-1.4,15.8h-2c-.7-2.8-1.3-5.7-1.9-8.5-.2-.8-.4-1.6-.5-2.4-5.9-26.1-.3-53,3.5-79.1h1c0,.7,0,1.4.1,2.1q1.5,25.2,5.9,34.9c1,2.3,2,4.6,3,7v-28c12.4,18.6,18.5,42.6,24,64-.4-7.7-1.1-15.1-2.6-22.6-.5-2.8-.6-5.5-.4-8.4,3.6,4.4,6.8,8.9,10.1,13.5q.3.4,1.6,2.3c2.6,3.7,5.1,7.3,7.3,11.2-2.1-7.7-4.9-15.1-8-22.5-1.3-3.3-2.7-6.6-4-10-.3-.6-.5-1.3-.8-2-6.5-16.3-12-32.7-16.5-49.7-.3-1-.6-2.1-.8-3.1-.2-1-.5-1.9-.8-2.9q-.1-.4-.7-2.6-.4-2.2.6-5.2c7.3,10,14.1,20.1,20,31-.6-1.8-1.2-3.5-1.8-5.3-.3-1-.7-2-1-3-3.5-10.3-7.5-20.5-11.5-30.6q-.1-.4-.9-2.2c-3.8-9.5-7.7-18.9-12-28.2-2.3-4.9-4.1-9.8-5.8-14.9-5-14.9-12-29.9-21.1-42.7-.8-1.2-1.6-2.3-2.4-3.5-14.6-21-36-40.7-61.8-46-4.7-.6-8.1.2-12.5,1.8-6.1,2-12-1.1-17.7-3.3-14.8-5.2-37.2-2.6-51.3,4-2.3,1.1-4.6,2-7,2.9-12.8,5.1-25.1,12.1-35.4,21.2-1.1.9-2.2,1.8-3.3,2.7-7.9,6.5-15,13.5-21.7,21.3q-.2.3-1.4,1.6c-13.4,15.5-23.6,33.2-32.9,51.4-5.7,11.1-13.2,19.9-21.7,29-6.1,6.7-11.6,13.8-17,21-.5.7-1,1.4-1.6,2.1-5.3,7.8-7.9,17.2-9.8,26.3-1.2,5-2.8,7.6-6.4,11.2-13.9,15.3-25.4,34.3-24.6,55.4.3,5.1,1.5,10,2.7,15,2.3,10.2-.9,19.2-6.1,28.1-1.6,2.5-3.3,4.8-5.3,7,12.3-5.6,22.5-14.7,33-23,0,4.9-3.2,8.1-6,12-.6.8-1.1,1.5-1.7,2.3-5.6,7-12.4,10.5-20.3,14.7-.6.4-1.1.7-1.7,1.1-4.4,2.8-8.1,3.5-13.2,3.3-.7,0-1.4,0-2.1,0-5.2-.2-9.3-1.1-13.9-3.4,8.7,9.8,18.4,14.8,31,18-2.2,1.7-4.4,3.2-6.8,4.7-7.4,5.3-12.2,10.3-14.2,19.3.8-1,1.6-2,2.4-3.1,5-5.1,11.5-7.1,18-9.6q3.6-1.4,4.6-2.4c1.7,0,3.3,0,5,0-1.2,3.5-1.9,3.9-5,5.7-.8.5-1.7,1-2.5,1.6q-.4.3-2.6,1.6c-10.2,6.2-18,11.2-21.8,23.1-.6,5.3-.4,10.7,0,16h2c0-1-.1-2-.2-3,0-6.6,2.6-12.4,7.1-17.2,2.9-2.3,6-4.1,9.3-5.8.6-.3,1.2-.6,1.9-1,2.7-1.3,4.5-2.1,7.5-1.7q.3.1,1.6.7c-.7.5-1.3.9-2,1.4-7.5,5.6-12.4,11.3-13.8,20.7,0,1-.1,1.9-.2,2.9h2c0-.7.2-1.5.3-2.2.9-3.3,2.1-4.9,4.3-7.4.7-.8,1.3-1.5,2-2.3,5.5-4.8,12.2-5.9,19.1-7.2,1.7-.3,3.3-.7,5-1q.4,0,2.2-.4c2.1-.4,4.1-.9,6.1-1.4-.3.6-.6,1.2-1,1.9-2.2,4.3-4.1,8.2-5.2,12.9-1.2,3.9-2.8,5.3-6.3,7.2-7.9,3.3-15.6,2.8-23.5,0,7.4,6.2,14.9,5.7,24,5,2-.3,4-.6,6-1q0,.4.2,2.6c1.3,12.6,5.4,22.6,14.8,31.4,1,2.3,2,4.6,3,7,3.5,4.9,6.8,7.3,12,10-3.1,2.1-5.2,2.7-8.8,3.5-1.2.3-2.4.5-3.6.8-1.3.3-2.6.6-3.9.9-1.4.3-2.7.6-4.1.9-6.9,1.6-13.7,3.1-20.6,4.6-46.5,10-84.8,25.9-112.1,66.3-2.6,4.3-5.3,8.6-8,13H0V0ZM566,285c-.4,2.7-.7,5.3-1,8,0,.7-.2,1.3-.2,2-.5,7.8,2.6,14.8,5.2,22h2c-.2-3.8-.5-7.7-.8-11.5q0-.5-.2-3.3c-.5-6.3-1.4-11.4-4-17.2h-1ZM557,329c0,.7-.2,1.5-.2,2.2q-3.5,34.3-9,49.5-.8,2.3-.8,4.3-.8.2-5,1c-.1.6-.2,1.2-.3,1.8-1,4.7-2.1,8.1-4.7,12.2.3,1,.7,2,1,3,12.7-12.3,25.7-25.9,26.4-44.6,0-6.3-1.2-12-2.8-18.1-.2-.9-.4-1.8-.7-2.7q-1.7-6.4-4-8.6ZM568,368c-.2.5-.3,1.1-.5,1.6-1.3,4-2.6,7.7-4.5,11.4-2.7,5.8-3.4,12-4.4,18.2-.4,2.7-.9,5.2-1.6,7.8,8.3-6.9,11.7-17.8,14-28h-2q0-.3.3-1.9,0-.4.3-2.5c.1-.8.2-1.6.4-2.5,0-.7,0-1.4,0-2.2-.7-.7-1.3-1.3-2-2Z"/>
    <path class="st63" d="M239,370c1.5,3,.2,5.1-.7,8.1-4.2,12.4-8.8,22.1-20.6,28.8-4.7,1.4-8.9,1.4-13.7,1.1-.3-3.3-.1-5.9,1-9,2.5-2.4,5.2-4.1,8.1-6,3.5-2.3,6.1-5,9-8,3.1-3.2,6.5-6,9.9-8.9.7-.6,1.4-1.2,2.1-1.8,1.6-1.4,3.3-2.8,4.9-4.2Z"/>
    <path class="st11" d="M231,173l1,2c-4.4,9-10.8,16.6-17.4,24-2,2.3-3.9,4.5-5.6,7-.7-.3-1.3-.7-2-1,6.5-12.1,13.9-22.5,24-32Z"/>
  </g>
  <g id="subject" inkscape:groupmode="layer" inkscape:label="Subject">
    <g id="clothing_base">
      <path id="shirt" class="st61" d="M535.2,448.4c6.2,1,11.9,1.6,18.2,1.3,5.6,0,10,1,15.2,2.9,7.2,2.5,14.4,4.5,21.8,6.3q.5.1,3.1.8c4.2,1,8.4,2,12.6,3q30,7,40.9,17.6c.5.5,1,1,1.5,1.4,1.4,1.4,2.8,2.8,4.2,4.2.8.8,1.6,1.5,2.4,2.3,13.5,13.7,26.6,38.2,26.6,57.7H64.6c8.9-22.2,28.5-43.2,49-55,.8-.5,1.6-.9,2.4-1.4,23.9-13.9,50-20,76.8-25.8,6.2-1.4,12.5-2.8,18.7-4.2q.5-.1,3.4-.8c1-.2,2-.5,3.1-.7.9-.2,1.8-.4,2.7-.6q2-.5,3-1.5l311.6-7.6Z"/>
    </g>
    <g id="face_base">
      <rect class="st61" x="322" y="353.3" width="139.9" height="110.5"/>
      <ellipse class="st7" cx="395" cy="218.7" rx="132.2" ry="161.4"/>
    </g>
    <g id="face_details" inkscape:label="Face">
      <g id="face_shadows" inkscape:label="Face shadows and highlights">
        <path class="st56" d="M309,236.8s20.4,7.7,22.2,19.5,2.1,17.9,1,20.5-12.4,9.6-16.7,14.6c-9.7-9.9-22.6-25.6-6.4-54.6Z"/>
        <path class="st56" d="M376.2,244.8c-6.5,6.2-11.2,12.9-15,21,1,.3,2,.7,3,1-.7.7-1.4,1.4-2.2,2.1-.9.9-1.8,1.8-2.8,2.8-.9.9-1.8,1.8-2.8,2.7q-2.3,2.4-3.3,4.4c-3.6,1.4-7.2,2.3-11,3-2.3-3.5-2.1-4-1.4-7.9.9-9.5-.9-16.4-6.9-23.8-1.1-1.3-2.1-2.5-3.2-3.8-7.7-8.8-9.8-16.9-9.7-28.5.4-4.8,1.8-8.1,4.8-11.8q1.4-1.1,3.4-1.1c.1.6.2,1.1.3,1.7,2.4,11.5,5.8,16.5,15.7,23.3,6.2,3.7,13,3.8,20,3,6-1.6,11.6-4.1,17-7l2-1-2,6"/>
        <path class="st39" d="M484.2,218.8h7c-.4,22.3-.9,41-12,61h-3l-1-2-2,8c-1.3-.3-2.6-.7-4-1v7h-5v10c-1.3-.7-2.6-1.3-4-2-1-.3-2-.7-3-1v4c-1.3-.3-2.6-.7-4-1l-1-8c2,.3,4,.7,6,1q0-.4.4-2.3t2.6-5.7c.3-2.7.4-5.4.6-8.1.6-3.6,1.4-5.9,3.4-8.9,2.3-1.4,4.4-2.5,6.8-3.6,7.5-3.8,10.3-8.5,13.2-16.4.4-.6.7-1.2,1-1.9,1.1-2.3,1.2-3.9,1.2-6.5v-2.5q0-.4,0-2.6c0-.9,0-1.7,0-2.6v-2.5c0-.8,0-1.5,0-2.3-.3-2.4-1-4-2.3-6.1-.7-.3-1.3-.7-2-1,.3-1,.7-2,1-3Z"/>
        <path class="st29" d="M327.2,259.8h2c-.3,2.6-.7,5.3-1,8,.7.3,1.3.7,2,1-.7.2-1.4.4-2.1.7-2.5,1.2-3.9,2.1-5.9,3.9-3.6,2.9-5.5,2.4-9.9,2.4.5-.7.9-1.4,1.4-2.1,1.7-3,2.2-5.5,2.6-8.9.3.7.7,1.3,1,2,4.1-1.9,6.9-3.8,10-7Z"/>
        <path class="st72" d="M308.2,247.7q.8.3,5,2c.3,3,.7,5.9,1,9q1.3-.8,8-5c-.5,3.8-1.4,6.2-4,9h-2c-1.7.6-3.3,1.3-5,2,.3-2,.7-4,1-6h-6c1.3-3,2.6-5.9,4-9-1-.3-2-.7-3-1l1-1Z"/>
        <path class="st74" d="M368.2,260.8q3,1,4.1,2.6c2,4.1,3.4,7.7,3.9,12.4-1,.7-2,1.3-3,2q-.7,2.1-1,4c-.7-.1-1.4-.2-2.1-.3-.9-.1-1.8-.2-2.7-.3-.9-.1-1.8-.2-2.7-.4q-2.5,0-5.5,2h-4q-2-3-1.9-4.9c1.2-2.8,2.9-4.4,5.1-6.5,3.5-3.4,6.7-6.8,9.8-10.6Z"/>
        <path class="st7" d="M427,226.4c1,2.6,2.6,3.9,5.7,6.6,10.2,7.7,17.4,8.5,30.1,7.6,6.7-1,11-4.9,15.4-9.8,1.9-2.9,3.5-5.8,5-9q1.9.8,4,2c3.3,9.8,2.2,21.6-2.4,30.8-4,7.5-8.8,11.7-17.1,14.3q-.4.1-2.5.9t-1,4c-.3.7-.7,1.3-1,2-.1,1.7-.2,3.4-.3,5.1-.4,5.5-1.9,9.1-4.7,13.9-2-.3-4-.7-6-1,.3.7.7,1.3,1,2,0,2.3,0,4.7,0,7q-1.8-.1-4-1c-.5-.9-1-1.8-1.5-2.8-3.9-6.4-13.8-8.1-20.5-10.2v-2h-2v2h-7c0-1.9.1-3.9.2-5.9-.2-2.4-1-4-2.2-6.1.6-.3,1.2-.7,1.8-1,.8-.4,1.6-.9,2.4-1.3q.4-.2,2.4-1.3c2.3-1.3,4.3-2.8,6.4-4.4,4,3,6.9,6.1,10,10-.7-10.6-5.9-19-11-28l-1.2-24.4Z"/>
        <path class="st7" d="M409.2,181.8c0-1,0-2,0-3,0-8.7.2-17.3,1-26-2.7,2.3-3.7,4.3-4.7,7.7-.2.8-.5,1.6-.8,2.5-.2.6-.4,1.2-.5,1.9h-2c-.7,1.6-1.3,3.3-2,5-4.2-.7-7.4-2.9-11-5v2c-1-.3-2-.6-3-.9-12.1-3.4-23.5-4.5-36-4.1v-2q-.4.2-2.4,1c-4.3,1.2-8.1,1.2-12.6,1q-.7-1.8-1-4t2.4-3.3c.5-.6,1.1-1.2,1.6-1.8q.3-.3,1.8-1.9c1.2-1.3,2.4-2.7,3.7-4.1.6-.7,1.2-1.3,1.8-2,2.1-2.4,4.2-4.9,6.2-7.4,4.6-5.6,9.5-10.9,14.5-16.2,2.8-3,5.5-6.1,8.2-9.2,5.9-6.7,11.9-13.2,18.2-19.4,1.7-1.8,3.3-3.6,4.9-5.5,7.7-8.8,14.5-14,25.9-15.5,1.1,0,2.3-.2,3.5-.3q.5,0,3.2-.3c5.1,1.5,6.6,5.5,9.2,9.9.5.9,1,1.8,1.5,2.6,1.6,2.8,3.2,5.6,4.7,8.4q14.7,26.2,24,35.9c3.5,3.7,6.6,7.8,9.7,11.8.5.7,1.1,1.4,1.7,2.2,10.9,14.3,10.7,30.7,10.4,48-.7-.3-1.3-.7-2-1-.3-1-.7-2-1-3-8.3-10.4-20-11.6-32.4-13.6-1.7-.3-3.5-.6-5.2-.9-3.1-.6-6.2-1-9.4-1.5v-2c-.7.5-1.4,1-2.1,1.5-3.5,1.8-5.1,1.6-8.9,1-4.1-.6-6.4-.8-9.9,1.4-1-1-2-2-3-3-.1,2.6-.2,5.2-.2,7.8,0,.7,0,1.5,0,2.2q0,2.2.3,6"/>
      </g>
      <g id="hair" inkscape:label="Hair">
        <path class="st15" d="M539.2,146.3s29.3,70.1,40.5,101.5c14.9,41.7,8,117.8-2.1,140.1s-25,34-27.8,50.2c-1.1,6.4-3.9,12.4,15.5,28.8-18.2-1.3-69-28.6-73.2-46.6-4.2-18,22.9-131.1,15.9-155.5-7-24.4,31.3-118.5,31.3-118.5Z"/>
        <path class="st61" d="M225.2,455.8c-.6-.4-1.2-.8-1.8-1.2q-.4-.3-2.2-1.6c-.7-.5-1.5-1.1-2.2-1.6-.6-.5-1.2-1-1.8-1.5v-2c3.3.5,6.3,1.4,9.4,2.6,6.3,2.1,11.5,2,17.6-.5,10.9-5.4,14.4-14.2,18.4-25.3,1.4-4.4,2-8.1,1.6-12.7-.4.5-.9,1-1.3,1.5-6.7,7.8-13.8,15.8-24.7,16.7-2.7,0-5.3,0-8-.2,1.9-1,3.9-2,5.9-2.8,8.2-3.6,12.5-9.2,15.9-17.3,2.4-6.9,3.5-13.6,4.2-20.9-.4.6-.8,1.1-1.2,1.7-9.1,12.4-19.8,18.4-34.8,21.3-2.4.2-4.6.1-7,0v-2q.4,0,2.3-.2c7.5-.9,12.2-2.6,17.7-7.8.9-.9,1.9-1.7,2.8-2.6,8.1-8.8,10.3-20.2,12.4-31.7,1.1-4.9,2.9-9.4,4.8-14.1q1-2.6,1-5.6c-.5.7-1,1.4-1.6,2.1-4.7,6-9.4,10.8-15.5,15.5-8.4,6.7-16.1,14.2-23.1,22.3q-1.9,2.1-4.8,4.9c-2.4,2.5-3.6,5.1-5.1,8.2-3.2,2.1-4.3,2.2-8,2q-.4-2.1,0-5,1.3-1.4,3.1-2.9c4.6-4.2,6.7-9.2,9.3-14.8,1.6-3.1,3.4-5.6,5.7-8.3q-.3.1-1.6.8c-.7.4-1.4.7-2.2,1.1-.7.4-1.4.7-2.2,1.1-6.2,3-12.5,2.3-19,1,2.2-3.4,3.1-3.7,6.8-5,12.4-4.5,16.7-13.5,22.1-24.9.4-.8.8-1.7,1.2-2.5q2.8-6.1,2.8-9.5c-.8.9-1.6,1.9-2.5,2.9-6.2,7-11.9,13-20.5,17.1q-.4.2-2.4,1.2c-.7.4-1.4.7-2.2,1.1q-3.4,1.8-4.4,3.8c.7.3,1.3.7,2,1-1.4,3.5-3.3,5.3-6.3,7.6q-.4.3-2.3,1.8c-3.6,2.5-7.2,4.6-11.2,6.4-9.2,4.2-15.4,7.6-19.5,17.3-.8,3.3-1.3,6.6-1.7,9.9h-2c-2-9.5-1.7-16.6,3.1-25.2,5.4-7.9,14.2-12.4,22.3-17.2,4.1-2.5,7.3-5,10.6-8.6.6-.6,1.1-1.1,1.7-1.7,3.7-4.1,6-8.2,8.3-13.3q-.3.1-1.6.7c-6.9,2.6-14.1,3.9-21.2,1.3q-.4-.2-2.2-1l1-2c1.1-.2,2.2-.5,3.3-.8,13.1-3.1,22.9-11,30.1-22.1,5-9,7-18.7,9-28.8,2.6-12.9,6.6-25.2,11.6-37.4-8.8,7.2-16.3,15.1-22,25-1.4-4.5,0-7.9,1.4-12.2q0-.3.6-2.1c5.3-16.1,15.3-30.3,24.7-44.2,1.1-1.7,2.2-3.4,3.3-5,2.5-3.8,5-7.6,7.5-11.3,1-1.5,2-3,3-4.5q.3-.4,1.6-2.4c.5-.7.9-1.4,1.4-2.2,2.3-3.3,4.9-6.3,7.5-9.4,4.8-5.8,8.4-11.5,10.9-18.6-7.9,6.1-15.7,12.2-23,19l-1-2q.9-2.5,2.3-5.6c.5-1.1,1-2.3,1.5-3.4.6-1.2,1.1-2.4,1.7-3.7,3.4-7.5,6.8-14.9,9.5-22.7,2.8-7.2,7.2-12.3,12.3-17.8,3-3.4,5.9-6.9,8.7-10.4,1.2-1.5,2.4-2.9,3.6-4.4,1.1-1.3,2.2-2.7,3.3-4,.9-1.1,1.7-2.1,2.6-3.2,2.1-2.6,4.3-5.2,6.4-7.8.6-.8,1.3-1.5,1.9-2.3,4.8-5.9,9.3-12,13.9-18,1-1.3,1.9-2.6,2.9-3.9,1.1-1.5,2.2-3,3.3-4.6,6.3-7,19-9.8,27.7-13.1,1.1-.4,2.1-.8,3.3-1.2,1-.4,2-.8,3.1-1.1.9-.3,1.8-.7,2.8-1q2.2-.6,4.2.4-.5.3-2.9,1.9c-7.7,5-15.1,10.2-22.1,16.1-.8.6-1.5,1.2-2.3,1.9-8.5,7.2-15.1,16.1-21.7,25.1.6-.5,1.2-1,1.7-1.6,11.3-9.7,24.2-17.3,37.3-24.4-1.2,3.8-2.9,4.6-6,7-10.7,11.5-20.2,25-28.3,38.4-.4.6-.7,1.2-1.1,1.8-1.7,2.8-3,5.5-3.6,8.7,4.8-4.3,9.6-8.5,14.1-13.1,3.1-3.2,6.4-6.1,9.8-9,2.3-2,4.6-4.1,6.9-6.2,4.3-3.9,8.7-7.5,13.2-11.2,5.2-4.3,10.3-8.7,15.4-13.1,1.5-1.3,2.9-2.5,4.4-3.8.8-.7,1.6-1.4,2.4-2.1.7-.6,1.4-1.2,2-1.7q1.8-1.8,3.2-4.4c2-3.1,3.7-3.6,7.2-4.7,1-.3,1.9-.6,2.9-1q2.5-.7,4.5-.7c-1.6,3.6-3.8,6.4-6.3,9.4-.8.9-1.5,1.8-2.3,2.8-.8.9-1.6,1.9-2.4,2.8-.9,1.1-1.9,2.2-2.8,3.3-.7.9-1.5,1.8-2.2,2.7,1.1-.5,2.3-1,3.4-1.5,1.5-.6,3-1.3,4.6-1.9q.4-.2,2.2-1c5-2.1,9.4-3.2,14.8-3.6-3.2,3.3-6.5,6.3-10.1,9.1-4.7,3.8-9.2,7.8-13.7,11.9-2.7,2.5-5.4,4.9-8.3,7.2-14,12.2-23.7,29.8-33.2,45.5-2.2,3.7-4.5,7.3-7,10.8-8.1,12-15.1,27.6-13.8,42.4,1.3,1,2.7,2,4,3q.8,2.7,1,5c2,.7,4,1.3,6,2-.3.5-.5,1-.8,1.6-.4.8-.8,1.6-1.2,2.4-.5,1-1.1,2-1.6,3-2.2,5.2-1.8,10.5-1.4,16,0,.8,0,1.5.1,2.3,1.2,9.1,8.7,17.1,14.6,23.8,4.8,6.1,5.7,13.5,4.9,21-.1.9-.3,1.8-.4,2.7q-.2,2.2.8,4.2,4.9-.9,6-2c1.7,0,3.3,0,5,0l2,4c.9-.5,1.9-1,2.9-1.6,3.3-1.5,5.7-1.4,9.2-.9q4.6.6,7.7-.7c1.6-1.3,3.1-2.6,4.6-4,3.6-2.5,5.3-2.4,9.6-1.8,6.1,2.4,11.9,6.1,15,12,.7,3.4,1,6.6,1,10h2q.7,1.1,4,7h3v2c1.7-.3,3.3-.7,5-1q.7,1.1,4,7h3c-.3-3.3-.7-6.6-1-10,2.8,1.4,2.9,3,4,5.9q1.8,4.9,4,7.1h4c.3-.7.7-1.3,1-2q4.9,4.8,6,7c-1.3-.3-2.6-.7-4-1,.2,1.1.4,2.2.6,3.4q.4,3.6-.6,5.6c-.7-.3-1.3-.7-2-1,1.2,2.5,2.5,4.7,4,7q.1,2.7,0,5c-.7-.6-1.4-1.1-2.1-1.8q-2.9-2.2-6.3-4c-4-2.2-6.3-5.2-9-8.8-3.6-4.6-6.5-7.9-12.4-9.2-3-.3-5.9-.4-8.8-.3-2.6,0-5.1-.1-7.6-.3-.8,0-1.6-.1-2.4-.2q-2.3-.4-4-1.4c-3.6-1.5-7.2-1.2-11-1.2h-2.3q-14.1.1-18.9,4.2h-3v3c-.7.3-1.3.7-2,1,.7.3,1.3.7,2,1v2c-1,.4-2.1.8-3.1,1.2-4.9,2.1-9.3,4.8-12.9,8.8,3.2-.7,6-1.8,9-3q0,4-1,7c-1,.7-2,1.3-3,2q-.7,2.2-1.2,4.6c-.2.8-.3,1.6-.5,2.5q0,.3-.3,1.9c3.6-2.1,6.8-4.4,10-7,.7.3,1.3.7,2,1l-1,4h2c-.2,2.4-.7,3.7-2.4,5.3-.5.4-1.1.9-1.7,1.3q-.5.4-2.9,2.4v2c1-.7,2-1.3,3-2,.7.3,1.3.7,2,1v-2c1-.3,2-.7,3-1v16h2c0-.6,0-1.2-.1-1.8-.2-4.1-.3-6.5,1.9-10.1,2.1-1.9,3.8-2.9,6.2-4.1q0,.4,0,2.3c0,1,0,2,0,3q0,.5,0,3t1.1,4.6c-.3,1-.7,2-1,3h3c.3.7.6,1.4.9,2.1.4.9.8,1.8,1.3,2.8.4.9.8,1.8,1.2,2.8q1.6,2.3,4.3,3.1c.8,0,1.5.1,2.3.2-.6-.9-1.3-1.8-1.9-2.8-3.4-5.4-3.8-10.1-2.6-16.5,1.5-5.3,3.6-8.4,7.8-11.9.6-.3,1.1-.6,1.7-.9,1,.3,2,.7,3,1,.7-1.3,1.3-2.6,2-4,1.3,2,2.6,4,4,6,2-.7,4-1.3,6-2v3c-.6.5-1.1,1-1.8,1.6-3.8,4.1-6.2,9.8-6.2,15.4.6-.7,1.2-1.3,1.9-2q2.1-2,4.1-2c.2.8.4,1.5.5,2.3.2,1,.5,2,.8,3,.2,1,.5,2,.7,3,1,2.8,2.1,4.6,4,6.8.3-1.3.7-2.6,1-4,2,.3,4,.7,6,1,.7,2.3,1.3,4.6,2,7q1.3-2,8-12,.7.5,4,3c.7-2.3,1.3-4.6,2-7h2c2.3,5.4,3.4,9.2,3,15,.7-.3,1.3-.7,2-1,.4-2.3.7-4.7,1-7h2c.7,3.6,1.3,7.3,2,11,.3-6.5.2-10.2-3-16,.3-1,.7-2,1-3,1.6,1,3.3,2,5,3v-6c2.7,2.3,3.9,3.5,4.6,7,0,1.1,0,2.1.1,3.2,0,1.1.1,2.2.2,3.3,0,.8,0,1.6,0,2.5h2c.5-7.8-1.6-15.2-4.2-22.5-.8-2.7-.7-3.9.2-6.5,1.6,1.3,3.3,2.6,5,4q-.9-7.5-1.6-10.4-.4-1.6.6-3.6h2c.4,1,.9,1.9,1.3,2.9q1.7,3.1,4.7,4.1v-5h3c.7,1,1.3,2,2,3-.6-4.1-2.1-7.3-4-11v-2c3.5,1.2,6.2,2.7,9,5-.3-1.6-.7-3.3-1-5h2v-2c-1.3-.3-2.6-.7-4-1,0-.9.2-1.9.2-2.8,0-5.3-1.8-10.5-4.2-15.2-1-.3-2-.7-3-1,.7-3.6,1.3-7.3,2-11q4,1,7,3c-.2-.9-.4-1.8-.6-2.8-.4-2.9-.4-4.5.6-7.2h5v-7c1.3-.3,2.6-.7,4-1,.3-2.3.7-4.6,1-7,.7.3,1.3.7,2,1v2q3-1,4.7-3.8c7.1-14.5,9.7-28.9,10.1-44.9.1-4.2.5-8.2,1.2-12.3.7-.3,1.3-.7,2-1q.6-2.1,1-4h3c-.3-1-.6-1.9-.9-2.9-1.2-4.4-1.7-8.7-2.1-13.3,0-.9-.2-1.7-.3-2.6-.5-5.3-.8-10.6-1-15.9q-1.1-28.4-8.8-35.7c-.6-.5-1.2-1.1-1.8-1.6-3.9-4.1-6.6-7.4-8-13,4.1.5,5.9,2.6,8.6,5.5q4.2,4.4,6.4,5.5c-4-6.8-8.4-12.8-13.8-18.6-2.7-3-5.2-6.1-7.6-9.4-1.5-1.9-3-3.7-4.5-5.5q-2.1-2.6-2.1-4.6c-.6-.2-1.3-.4-1.9-.6q-2.1-1.4-2.8-4.5c0-.9-.2-1.9-.2-2.9h-2c-1.5-2.1-2.9-4.2-4.2-6.4-.8-1.3-1.6-2.6-2.4-3.9-.4-.6-.8-1.3-1.2-1.9-2.3-3.6-4.7-7.2-7.1-10.8-.3,1-.7,2-1,3h-5q-.1-7.4.6-10.6c.6-3.3.6-5.2-.6-8.4-2-1.2-4-2-6.1-3q-1.9-1-3.2-3.9c-.2-1.1-.4-2.1-.6-3.2-.4-1.1-.7-2.1-1.1-3.2-1.1-4.7-1-9-.9-13.8,2.7,0,5.5,0,8.2-.1q.4,0,2.3,0c4.3,0,7.6.2,11.5,2.2v2l-8,2v2c.6,0,1.3.2,1.9.2,4.3,1.1,8.1,2.9,12.1,4.8l-4,3,1,2h-6v2l3,1-1,6c.6,0,1.1,0,1.8.1,3.5,1.4,4.5,3.6,6.2,6.9q-.2,2.9-1,5c.8.2,1.7.4,2.5.6,4.5,1.8,7.3,4.5,10.8,7.8q.3.3,2,1.9c12.2,11.8,20.6,24.3,23.7,41.2,1.1,2.6,1.9,3.4,3.9,5.2,3.7,3.4,4.4,6.8,5.2,11.6,1,5.2,2.2,9.9,4.1,14.8.9,2.5,1.3,4.9,1.7,7.4.7,4,1.5,7.6,2.9,11.4,3-9.6,1-21.4-1-31,9.5,7.6,9.9,29.3,11.6,40.5.3,1.7.6,3.4.9,5.2,2.3,11.8-.3,24.2-2.2,35.9-2.8,17.9-3.1,33.7.2,51.4.6,3.3,1,6.7,1.4,10.1h2c.3-10.6.7-21.1,1-32,2.8,2.8,3.5,6.2,4.6,9.9.2.7.5,1.5.7,2.2.9,3,1.7,5.6,1.7,8.9h3c-.2-.7-.3-1.4-.5-2.2-.5-2.8-.6-5.3-.6-8.1,0-1,0-1.9,0-3,0-1,0-2,0-3.1,0-1,0-2.1,0-3.1,0-2.5,0-5.1,0-7.6q3,1,4.5,3.6c9.3,20.6,11.4,41.3,7.4,63.4-2.2,12.2-2.1,23.7-.9,36-.7.3-1.3.7-2,1-4-11.6-7.9-22.9-10-35-.7,15.8,0,29.2,6.2,43.8.9,2.5.7,3.7-.2,6.2-1.7-1-3.3-2-5-3,.2.7.4,1.4.7,2.1q.1.5.8,2.7.1.5.8,2.7.7,2.5.7,5.5c-1,.3-2,.7-3,1-2.8-3.2-4.5-6-6-10,1.4,6.1,2.9,11.9,5.2,17.7,1.9,5,2.3,9.1.8,14.3q-1.6,2.6-3,4-1-1-1.1-2.9c0-2,0-4.1,0-6.1-2.2,2.1-3.8,4.1-5.2,6.8-1.8,3-3.6,5.2-6.2,7.5-5.7,5.5-10.1,13.6-10.6,21.6.1,4.7.5,9.5,1.1,14.2.7-1.3,1.3-2.6,2-4h2c1.1,1.2,2.2,2.5,3.2,3.8,2.8,3.2,5.2,5.4,8.9,7.3q1.9.9,3.9,2.2c6.1,3.8,11.9,4.9,19,5.7v-2c-.9-.1-1.8-.2-2.8-.4-2.8-.5-4.8-1.2-7.2-2.6v-2c.8.1,1.7.3,2.6.4l-311.6,7.6ZM308.2,247.8l-1,2h3c-1.3,3-2.6,5.9-4,9h6c-.3,2-.7,4-1,6,.8-.3,1.5-.7,2.3-1q2.7-1,5.7-1,1.6-2.8,3-6c-.3-1-.7-2-1-3-2.3,1.6-4.6,3.3-7,5-.3-3-.7-5.9-1-9q-.8-.3-5-2ZM323.7,262.7c-2.3,2.1-3.5,3-6.6,4.1l-1-2c-.3,1.2-.6,2.5-.9,3.8-.7,3-1.6,5.6-3.1,8.2.6-.4,1.2-.7,1.8-1.1q2.2-.9,5.2,0,1.7-1.1,3.4-2.8c2.4-2.3,4.5-3.8,7.6-5.2h-2c.3-2.6.7-5.3,1-8-2.7,0-3.4,1.1-5.4,2.9ZM384.2,301.8c-1.7.7-3.3,1.3-5,2v2q18.7,4.4,26,2c-.5-3.4-1-5.1-3-8q-2.8-.1-6,0c-.8-.2-1.6-.5-2.4-.7-3.8-.5-6.2,1.1-9.6,2.7ZM330.2,312.8c-.3,1-.7,2-1,3,2.6-.3,5.3-.7,8-1-.7,1.6-1.3,3.3-2,5,1.5-.2,3-.5,4.4-.8.8-.1,1.6-.3,2.5-.5q.3-.1,2.1-.7c.3-1,.7-2,1-3h-4c1.7-.7,3.3-1.3,5-2v-2c-6.3-1.2-10.4-1.3-16,2ZM483.2,340.8c-2.5,5.6-3.4,10.4-3.7,16.6-.3,2.9-.7,5.6-1.3,8.5-1.4,7.5-1.3,15-1.3,22.5-.1,6.5-.7,10.7-4.7,15.9q-.2.2-1,1.5c.3.7.7,1.3,1,2,.8-.6,1.5-1.3,2.3-1.9q2.7-2.1,5.7-3.1c5.1-7.4,6.9-14.1,6-23,1.9,4.1,2.2,7.3,2.1,11.8,0,1.2,0,2.3,0,3.5,0,.9,0,1.8,0,2.7q2-1,2.6-2.7c.5-2.9.5-5.6.4-8.6,0-1.1,0-2.2,0-3.3,0-.8,0-1.6,0-2.5q.3.2,1.8,1c2.5,1.2,4.4,1.2,7.2,1-.8-.7-1.5-1.5-2.3-2.2-2.1-2.2-4-4.3-5.7-6.8q.5-.2,3-1c-.3-.6-.6-1.1-.8-1.7-2.5-5.2-3.7-9.6-4.2-15.3h-3c.7-2,1.3-4,2-6-1.3.3-2.6.7-4,1,0-2,.1-4,.2-6q-.2-2-2.2-4ZM275.2,413.8c.1,1.5.3,2.9.4,4.4,0,.8.2,1.6.2,2.5q.3,2.2,1.3,4.2,2.2,19.6-2.9,26.4-1.9,1.9-4.1,3.6c-.8.6-1.5,1.2-2.3,1.8-8,5.7-14.9,7.3-24.7,6.2-2.7-1-4.6-2.3-7-4h-2c1.8,5.7,5,8.8,10.1,11.8,7.3,2.7,14.5,2.2,21.6-1,5.9-2.9,9.1-5.2,12.4-10.8-.7,5.4-2.6,10.8-6.7,14.6-2.8,2-5,3.3-8.3,4.4v2q14.1-2.2,18.7-8.2c4.6-7.3,6.7-14,6.6-22.7,0-.7,0-1.3,0-2,0-8.3-2.4-15-6.2-22.4-.3-.7-.7-1.4-1.1-2.1-1.7-3.4-3.2-6-6-8.6ZM463.2,426.8c-.7,2.1-1.3,4.2-1.9,6.2-.4,1.2-.7,2.3-1.1,3.5-2.4,7.9-2.7,14,.7,21.7,4.8,9,13,15.8,22.4,19.5,6.3,1.2,13.2,1.4,19-1.5.7-.5,1.3-1,2-1.5v-1c-.8-.1-1.6-.2-2.4-.4-1-.2-2-.3-3.1-.5-1-.2-2-.3-3.1-.5-.8-.2-1.7-.4-2.5-.6l-1-2q.6,0,3.3-.3c3.8-.7,4.4-1,6.7-3.7q-.3,0-2.1.2c-3,.3-6,.5-8.9.8-.9,0-1.7.2-2.6.3-6,.4-9.6-.9-14.4-4.5-6.7-6-8.8-12.8-9.4-21.7,0-1.7-.2-3.4-.2-5.1,0-.9,0-1.7-.1-2.6,0-2.1-.2-4.2-.3-6.4h-1Z"/>
        <path class="st15" d="M393.5,21.6c1,.3,2.1.7,3.2,1,.8.4,1.6.8,2.5,1.2q1,3,0,6c.6.3,1.2.6,1.9.9,1.4.7,2.8,1.4,4.1,2.1v2c-.9.1-1.8.3-2.8.4-1.2.2-2.4.3-3.6.5-1.2.2-2.4.4-3.6.5q-3,.5-5,1.5c6.2,3.4,12.2,5.3,19,7v2q-.5.2-2.9,1.3t-4.1,4.7c4.2,5,8.9,6.9,15,9v2c-2.3,1.3-4.6,2.6-7,4h18c-.3-1.6-.7-3.3-1-5h-2c.3-1.3.7-2.6,1-4-1.6-.7-3.3-1.3-5-2,.3-1,.7-2,1-3,3.7-1.6,7.6-2.5,11.5-1.2,2.9,4.2,2.9,8.9,2.1,13.8-.5,2.2-1,4.3-1.6,6.4-.9,0-1.8,0-2.8,0-13.8-.2-20.2,1.4-30.2,11.1-4.5,4.5-8.8,9.2-13,13.9-2,2.1-3.9,4.2-5.9,6.3-6.3,6.6-12.4,13.3-18.1,20.4-2.5,3-5.2,5.6-7.9,8.3-3.3,3.4-6.2,7-9.1,10.7q-4.2,5.2-7.7,6.3c-4.2,1.4-7.6,3.7-11.3,6.1.6-3,1.6-5.3,3.2-8q.2-.4,1.4-2.4.2-.4,1.5-2.5c.5-.9,1.1-1.8,1.6-2.6,15.3-25,31.9-46.2,54.9-64.5,3.2-2.6,6.3-5.2,9.4-7.9-7.1,1.2-12.9,3.7-19.3,6.9-.9.4-1.8.8-2.7,1.1-.7-.3-1.3-.7-2-1,.7-.8,1.4-1.7,2.2-2.6,5.1-6,10.2-12,14.8-18.4-2.1.7-4.2,1.4-6.2,2.1q-.6.2-3.5,1.2c-3.9,2-5,4-7.2,7.7-6.4,6.6-13.5,12.3-20.8,17.9-5.1,4-9.8,8.2-14.6,12.7-2.2,2-4.4,4-6.6,5.9-7.2,6.3-14.4,12.8-21.1,19.6-2.4,2.5-4.9,4.3-8,5.9,1.5-5.4,4.1-9.8,7-14.6.5-.8,1-1.6,1.5-2.4,4.4-7.1,9.3-13.6,14.5-20,.7-.9,1.4-1.8,2.1-2.7,3.7-4.7,7.6-9.3,11.6-13.8q1.2-1.5,1.2-2.5-22.4,13.9-32.7,22.2-2.3,1.8-4.3,2.8c1.7-4.3,4.8-7.4,7.8-10.8.5-.6,1-1.2,1.5-1.8,1-1.2,2.1-2.4,3.1-3.6,1-1.2,2.1-2.4,3.1-3.7,8.9-10.6,21-18.5,32.5-26.1-4.3,1.5-8.5,3.1-12.8,4.6-1.2.4-2.4.9-3.6,1.3q-20.7,7.6-26.2,15.7c-.7,1-1.4,2.1-2.2,3.2-.7,1.1-1.4,2.1-2.2,3.2-5,6.9-10.2,13.5-15.8,20-3.4,4-6.7,8.1-9.9,12.2-3.2,4.2-6.5,8.2-10.1,12.1-1.4,1.6-2.8,3.1-4.2,4.7-.6.7-1.3,1.4-1.9,2.1-4,4.7-6.3,9.4-8.5,15.1-2.7,7.2-5.9,14.2-9,21.2-.6,1.2-1.1,2.5-1.7,3.7-1.3,2.9-2.6,5.9-4,8.8,3.2-2.4,6.3-4.9,9.4-7.4,1-.8,1.9-1.6,2.9-2.4,2.1-1.7,4.2-3.5,6.3-5.3q2.4-1.9,4.4-1.9c-2.4,9.4-7.8,15.8-13.8,23.2-4.1,5.1-7.5,10.4-10.9,15.9-4,6.5-8.2,12.8-12.5,19.1-10.9,16.3-20.8,32.4-24.9,51.9.6-.8,1.2-1.7,1.8-2.5q14.4-19.2,21.2-21.5c-1.6,4.7-3.2,9.4-4.9,14.1-2.1,5.8-3.7,11.8-5.2,17.8q-.1.5-.8,3.2c-1.1,4.3-2.1,8.6-3,13-3,14.9-10.7,27.1-23.2,36-5.9,3.3-11.2,6.1-18,7,5.5,3.2,11.8,2.7,17.9,1.3,2.4-.7,4.7-1.5,7.1-2.3-1.3,3.5-2.8,6.5-4.9,9.6-.5.8-1,1.5-1.5,2.3-1.4,1.9-2.7,3.5-4.5,5.1h-2c-.3,1-.7,2-1,3-.9,0-1.7-.1-2.6-.2-3.9.2-6.4,1.3-9.9,3-1.1.5-2.2,1-3.3,1.6-1.1.5-2.1,1.1-3.2,1.6-1.1.5-2.1,1-3.2,1.5-2.6,1.4-4.5,2.7-6.7,4.7-.6.5-1.2,1-1.8,1.6-.4.4-.9.8-1.3,1.2.9-9.2,7.2-15.2,14-21,2-1.1,4-2.1,6-3q-.5-.2-3-1.1c-11.1-4.2-18.8-9.2-27-17.9.7-.3,1.3-.7,2-1,1.7.7,3.4,1.5,5.1,2.2,6.2,2.5,14,2.2,20.3-.1,12.9-6,23.2-13.8,30.6-26.1.3-1,.7-2,1-3-.8.7-1.7,1.4-2.5,2-6.4,5.1-12.8,10-19.6,14.6q-.3.2-1.9,1.3c-2.9,1.9-5.5,3.6-9,4.1.5-.7.9-1.4,1.4-2.1,6.4-9.8,11.8-18.9,10.6-30.9-.5-2.2-1-4.3-1.5-6.5-3.9-17.3-1-32.5,8.5-47.5,4.5-6.7,9.3-13.2,14.4-19.4,4.4-5.5,6.3-10.3,7.9-17.1,2.7-10,6.2-18.4,12.7-26.4.7-.9,1.4-1.8,2.1-2.7,3.8-4.8,7.8-9.3,11.9-13.8,10.7-11.7,19.3-23.6,26.1-38,3.3-6.7,7.2-13,11.3-19.2.6-1,1.2-1.9,1.9-2.9,6.1-9.2,12.9-17.6,20.3-25.8,1.6-1.8,3.2-3.5,4.8-5.3,5.7-6.5,11.7-12,18.6-17.2q.4-.3,2.5-2c10.3-7.8,22.1-14.8,34.3-19.2q2.2-.8,4.5-1.8c10.6-4.8,23.9-6.8,35-3.1ZM232.2,172.8c-10.4,9.6-18.2,20-24,33h2c1.4-1.6,2.8-3.2,4.1-4.8.8-1,1.6-2,2.4-3.1.4-.5.8-1,1.2-1.6,1.2-1.5,2.4-3,3.7-4.4q9.2-10.9,11.6-17.1l-1-2Z"/>
        <path class="st73" d="M385.2,18.8q21.1-.4,30.6,4.2c4.9,2.3,8.3,1.8,13.4.1,10.4-3,21.5,1.7,30.7,6.4,10,5.9,18.8,13.3,27.2,21.2.7.7,1.5,1.3,2.2,2,19.6,18.3,31.3,46.1,40.1,70.9,2,5.6,4.4,11.1,6.9,16.5,5.5,11.9,10,24.1,14.5,36.4,1.1,2.8,2.1,5.7,3.2,8.5.3.7.6,1.5.9,2.2.7,1.9,1.4,3.7,2.1,5.6.9,2.7,1.6,5.2,2,8-2.3-2.1-3.9-4.2-5.4-6.9-.4-.8-.9-1.5-1.4-2.3-.5-.8-.9-1.6-1.4-2.4-4-6.7-8.1-13.2-12.8-19.4,1.3,5.7,2.6,11.3,4,17,.2.8.4,1.6.6,2.4,2.6,11,6,21.4,10.3,31.9,2.3,5.7,4.5,11.4,6.7,17,.5,1.2.9,2.3,1.4,3.5.9,2.3,1.8,4.5,2.7,6.8.9,2.4,1.9,4.7,2.8,7,.5,1.2.9,2.3,1.4,3.5.4,1.1.9,2.1,1.3,3.2q.8,2.7-.2,5.7c-.7-1-1.4-2.1-2.2-3.1-5.2-7.6-10.5-15.3-15.8-22.9.5,5.3,1.2,10.5,2.1,15.7,1.1,7.2,1.1,14.1.9,21.3h-1c-.1-.9-.2-1.7-.4-2.6-3.9-23.6-12.6-44.9-22.6-66.4v27c-2.9-3.8-4.1-6.6-5.6-11.1-.4-1.2-.9-2.5-1.3-3.7-1.3-4-2.2-7.3-2.5-11.5,0-1.1-.1-2.1-.2-3.2,0-1.1-.2-2.2-.2-3.4-.6-8.1-1.4-15.8-3.3-23.7-.8-3.6-1.3-7.1-1.7-10.7-2.5-19.2-9.2-36.7-20-52.8q.2,1.5,1,9c-4.8-2.4-6.4-3.2-8.2-8.4-.4-1.4-.8-2.7-1.1-4.1-5.5-18.5-16.5-33.9-32.7-44.6-1.3-.7-2.7-1.4-4-2v-2q-.3-.2-2-1h3c-.5-.8-1-1.6-1.5-2.4q-1.5-2.6-1.5-4.6c4.8.5,7.9,1.9,11.9,4.6q.5.3,2.9,1.9.4.2,2.2,1.5c-7.1-8.8-13.4-13-24-17v-2c1.7-.3,3.3-.7,5-1v-3c1-.3,2-.7,3-1-4.3-1.6-8.6-3.3-13-5v-2c3.2-2.1,4.3-2.2,8-2q-1-2-2.8-2.6c-2.1-.4-4.1-.6-6.3-.7q-.4,0-2.3-.1-.4,0-2.4-.1-.4,0-2.4-.1c-1.9-.1-3.9-.2-5.8-.3.5,7.1,1.8,13.5,4.1,20.2q.9,2.8.9,5.8c-.8.1-1.6.2-2.4.4-.8.2-1.7.4-2.6.6q-.2.3-1,2c1.7.7,3.3,1.3,5,2-.3,1.3-.7,2.6-1,4h2q.2.8,1,5c-3.8,1.2-7.3,1.1-11.2,1.1-.8,0-1.5,0-2.3,0-1.9,0-3.7,0-5.5,0q4.2-4.5,8-5v-2c-1.2-.2-2.4-.5-3.6-.8-4.1-1-7.1-2.5-10.4-5.2q-1.4-2.8-2-5,4.6-4,8-4v-2c-1.1,0-2.1-.1-3.2-.2-6-.7-11.3-3.4-16.8-5.8,2.1-2.2,3-3,6-4,1.7,0,3.5,0,5.2,0,.9,0,1.8,0,2.7,0,.7,0,1.4,0,2.1,0v-2l-1.9-.9c-1.4-.7-2.7-1.4-4.1-2.1v-5c-.8-.3-1.7-.5-2.6-.8-1.1-.4-2.2-.7-3.3-1.1-1.1-.3-2.2-.7-3.3-1q-2.8-1.1-4.8-3.1Z"/>
        <path class="st69" d="M427.2,301.8c2.6,1.6,5.3,3.3,8,5q-.2-.8-1-5,2.2.1,5,1c1.7,2,3.4,4,5,6,.7.2,1.4.3,2.1.5,3.3.9,4.3,3.7,5.9,6.5l2-3q.2.2,1,1v-4q1.9.2,4,1c3.3,5.8,4.7,11.5,3,18q.7.2,4,1v2h-2q.2.8,1,5c-3.1-1.5-6-3.2-9-5,.4.7.8,1.4,1.1,2q.2.4,1.4,2.7c.5.9.9,1.8,1.4,2.7,1.1,2.8,1.1,3.9,0,6.6l-4-4c-.3,1.7-.7,3.3-1,5q-1.9-.1-4-1-1.2-3.1-2-6h-2c0,1.7,0,3.3,0,5,.3.3.7.7,1,1,.1,2.7,0,5.3,0,8q-3.9-1.9-5-3,1.8,8.2,2.8,12c1.6,5.8,2.6,10.1,1.2,16h-2c-.1-.8-.2-1.7-.4-2.5-.2-1.1-.3-2.2-.5-3.3-.2-1.1-.3-2.2-.5-3.3q-.6-2.9-2.6-5.9c-.3,1.7-.7,3.3-1,5-1.6-.7-3.3-1.3-5-2,.3.8.6,1.5.9,2.3,1.5,3.9,2.2,6.7,2.1,10.9,0,.9,0,1.8,0,2.7,0,.7,0,1.4,0,2.1q-.3.2-2,1l-1-12h-2v7q-.5.2-3,1c-1.1-5-2.2-9.9-3-15h-2c-.3,2.3-.7,4.6-1,7h-3c-.7-.7-1.3-1.3-2-2-.5.8-1,1.6-1.5,2.4q-.3.5-1.9,3.1c-.6,1-1.2,2-1.9,3.1q-1.7,2.5-3.7,3.5c-1.4-2.7-1.1-5-1-8-2-.3-4-.7-6-1v5c-5-4.1-6.2-7.7-7-14v-2c-2.8,2.2-5.5,4.4-8,7,.6-4.4,1.7-8.2,3.3-12.2.4-1,.8-2.1,1.2-3.1,1.6-2.8,2.5-3.6,5.5-4.6v-3c-1.3,1-2.6,2-4,3q-.3-.2-2-1,.2-.3,1.1-1.8c1.1-2.7.9-3.6,0-6.2-1-2.9-1.1-4.7-1.1-7.7,0-.8,0-1.6,0-2.5,0-.6,0-1.2,0-1.9h-2c-.3,3.3-.7,6.6-1,10h-2q-.2-1-1-6c-4.8,6-7.7,12.2-9.8,19.5-.2.7-.4,1.4-.7,2.2-2.2,7.6-2.1,13.1,1.4,20.3.4.8.8,1.6,1.2,2.4.3.5.5,1,.8,1.6q-6.2-1-8.4-3.8-2.6-5.3-2.6-8.2h-3c-1-3.3-1.1-6.3-1.1-9.8,0-1,0-2,0-3,0-.8,0-1.5,0-2.3q-5.8,4.4-6.3,8.2c0,.8-.2,1.6-.2,2.5q0,.4-.3,2.5,0,.3-.2,1.9h-2c-1.1-3.3-1.1-5.7-1.1-9.2,0-1.1,0-2.2,0-3.3,0-.8,0-1.7,0-2.5h-2v2c-.6.1-1.2.2-1.8.4q-2.2.6-5.2,2.6c1-3.5,2.2-5.4,5.1-7.6q2.9-2.4,3.9-5.4-.7.2-4,1c.7-1.7,1.3-3.3,2-5-.5.4-1.1.9-1.6,1.3-.7.6-1.4,1.1-2.2,1.7-.7.6-1.4,1.1-2.2,1.7q-2,1.3-5,1.3c.1-5,.2-8.1,3.6-12.1.8-.6,1.6-1.3,2.4-1.9-.7-.3-1.3-.7-2-1,.7-1,1.3-2,2-3-.9.7-1.8,1.4-2.8,2.1q-3.2,1.9-5.4,1.6c-.6-.2-1.2-.4-1.8-.6q11-10,17-10v-2c-1-.3-2-.7-3-1,1-.3,2-.7,3-1v-3c7.8-5,15.3-5.2,24.4-5.2q.4,0,2.4,0c2.1,0,4.1,0,6.2.2l2,2q-.4,0-2.5.1c-1.1,0-2.1.2-3.2.2q-.5,0-3.2.2c-3,.4-5.3,1.2-8.1,2.4-1.2,0-2.3.2-3.5.2-3.7.8-5.2,1.8-7.4,4.8-2,3.8-3,7.8-4.1,11.9-.7,2-1.3,4-2,6,.9-.8,1.7-1.7,2.6-2.5,2.6-2.2,3.2-2.5,6.8-2.8.9.1,1.7.2,2.6.3-.3,2-.7,4-1,6,1.1-.7,2.2-1.3,3.4-2q3.4-2,5.6-2c3.8-3.3,5.8-6.5,8-11,6.2-4.1,15-1.9,22-1q-.1.3-.6,1.9t-.4,2.1l2,2c1.4,3.6,2.5,7.2,3,11-.3.3-.7.7-1,1,0,1.7,0,3.3,0,5h2l1-8h2v2q4.6,2.1,8,1l1,2c0-1,0-2.1-.1-3.2.1-3.6.7-5.5,2.1-8.8q.6-2.4,0-5c-6.1-6.9-13.5-9.4-22.4-10.7-.8-.1-1.7-.3-2.5-.4-2-.3-4.1-.6-6.1-.9v-1q20.6-.6,26,3c2.7,2.6,5.2,5.3,7.6,8.2,3.8,4.4,7.3,7.9,12.4,10.8l2,2q-.6-5.5-2.6-7.9c-.5-.4-.9-.7-1.4-1.1q.2-.5,1-3h2v-7h3c-.5-.4-1-.9-1.5-1.4q-1.5-1.6-1.5-3.6l-2,1v1q-2.2.3-5,0c-3-3-4.7-6-6-10v-3ZM420.2,347.8v3h-2c.7,4.3,1.3,8.6,2,13h2v-3c.6.2,1.2.4,1.9.6q2.1.4,4.1-.6c.3.8.6,1.6.9,2.4q1.1,2.6,3.1,3.6c-.3-1.9-.6-3.9-.9-5.8q0-.5-.5-3.3-.6-2.9-2.6-5.9-.3.2-2,1c.7,1.7,1.3,3.3,2,5h-2c-.1-.7-.2-1.4-.3-2.2-.8-3.1-1.9-5.2-3.7-7.8h-2Z"/>
        <path class="st37" d="M256.2,387.8c2.6,7.8-1.5,17.7-4.5,25-4,7.9-9.4,12.7-17.5,16,7.3,1,12.9-2.1,19-6,4.6-3.9,8.5-8.1,12-13,.4,7-.7,12.2-3.2,18.7-.3.8-.6,1.6-.9,2.5-4,10.5-9.8,16.7-20,21.3-6.2,1.2-10.9.4-16.7-1.7q-2.1-.7-4.9-1.2c-3.1-.8-4.2-2.1-6.2-4.6-.7-1.7-1.4-3.4-2-5.1-1.2-2.3-2.6-3.8-4.4-5.7-6.8-7.4-9.8-16.3-9.6-26.2,3,1,5.9,2,9,3,0,1.1-.2,2.1-.2,3.2,0,9,4,17.5,9.2,24.8.7,1.1,1.4,2.2,2.2,3.3,4.7,4.5,10.5,5.7,16.9,6.2,6.4-.9,10.8-4.4,15.3-8.9,2.3-3.7,4-7.6,5.7-11.7-.7.6-1.4,1.2-2.1,1.8-7.9,5.9-16.4,6.9-25.9,6.2-6.4-1.3-11.7-4.3-17-8,3.3-1.1,5.6-.9,9.1-.8,7.6,0,13.1-1.8,18.8-6.9,3.1-3.4,5.3-7.1,7.2-11.3-.7.4-1.4.8-2.2,1.2-9.3,5.2-16.2,7.7-26.8,5.8-1.7-.6-3.4-1.3-5-2,.3-.7.7-1.3,1-2q2.2-.5,5.1-.8c16.2-2.5,27.8-8,37.7-21.5.4-.6.8-1.1,1.2-1.7Z"/>
        <path class="st18" d="M244.2,407.8l2,1c-4.3,8-9,15.1-17.8,18.5-5.3,1.1-10.9.7-16.2.5,1.6,1,3.1,2,4.7,2.9q.4.3,2.6,1.6c7.2,3.8,16.3,3.3,24,1.2,4.1-1.4,7.2-3.2,10.7-5.8l2-1c-2.2,8.1-6.2,14.1-13,19-.8.6-1.6,1.2-2.4,1.8-5.8,2.6-12.2,1.3-18.2-.6-8-4-12.4-12.6-15.4-20.7-1.6-5-2.4-9.3-2.1-14.5,1.3.3,2.7.6,4.1.9.8.2,1.7.3,2.5.5q2.4.6,5.9,1.8c8,1.8,15.3-.6,22.5-4.2,1.4-1,2.7-2,4-3Z"/>
        <path class="st8" d="M275.2,413.8c3.4,3.1,5.1,6.6,7.1,10.7.3.7.7,1.4,1.1,2.1,5.3,10.7,7.2,23.6,3.7,35.2-.6,1.3-1.2,2.7-1.8,4-.3.7-.7,1.4-1,2.1-3,5.7-7,8.6-13,10.9-2.7.6-5.2.8-8,1v-2q.3-.1,1.6-.7c7.4-3.4,10.6-7.7,13.4-15.3v-3c-.5.9-1,1.8-1.6,2.8-3.8,5.6-10.2,8-16.4,10.2-6.8,1.2-12.9.5-19.1-2.7-3.3-2.3-4.9-4.9-6.9-8.3v-2q4.7,1.8,6.8,3c5.7,2.5,12.7,1.8,18.5-.1,8-3.7,12.9-8.7,17.7-15.9q.3-2.1.3-4.6v-2.7q0-.5,0-2.8c0-.9,0-1.8,0-2.8,0-5.3-.5-10.2-1.8-15.3q-.4-1.8-.4-3.8Z"/>
        <path class="st27" d="M223.2,331.8q1,2,.5,3.7c-.3.7-.6,1.4-.9,2.1-.3.8-.7,1.5-1,2.3-.4.8-.7,1.6-1.1,2.4-.4.8-.7,1.6-1.1,2.5-2.7,5.9-5.7,11.6-9.3,17-.6.9-1.2,1.9-1.8,2.8-4.9,4.9-11.8,7.6-18.2,10.2,4,.7,7.9,1.3,12,2-.3,1-.7,2-1,3-2.5.8-4.9,1.5-7.4,2-1.5.3-2.9.7-4.4,1-1.4.3-2.8.6-4.2,1-8.3,1.9-13.2,4.7-18.9,11.1-1.2,2-1.7,3.6-2.1,5.9h-2c-1-7.1,1.9-12.3,6-18,2.8-2.7,5.8-4.9,9-7-.3-.7-.7-1.3-1-2,.7-.4,1.4-.8,2.2-1.2,2.9-1.8,5.5-3.7,8.1-5.8.9-.7,1.7-1.4,2.6-2.1q2.1-1.8,3.1-3.8l-3-1c2.5-4,5.3-5.3,9.6-7.2,10.2-4.8,17.4-12.2,24.4-20.8Z"/>
        <path class="st49" d="M254.2,346.8c1.3,3,.9,4.2-.1,7.3-.5,1.3-1.1,2.6-1.6,3.9-2.3,5.6-3.9,11-4.8,17-2.1,12.8-6.5,21.9-16.6,30.1-5.4,3.8-9.4,4.6-15.8,3.6v-2c1.2-.5,2.3-1.1,3.6-1.6,9.8-5,14.5-11.8,18.1-22.3,1.2-4,2.3-8,3.4-12.1-.9.8-1.7,1.6-2.6,2.4-6.1,5.6-12.2,11.2-18.4,16.6-.6.5-1.2,1.1-1.9,1.7-2.6,2.3-4.9,4.2-8,5.9q-2.1,1.4-2.9,4.1c0,.8-.1,1.5-.2,2.3h-1c-.5-5.8.3-8.5,4-13,1.9-1.8,3.9-3.5,6-5.2,1.9-1.7,3.6-3.5,5.2-5.5,6.1-7.2,13.3-14,21.1-19.4,5.2-3.7,8.9-8.9,12.8-13.9Z"/>
        <path class="st52" d="M439.2,69.8c4.3,3.9,7.2,8.2,10.2,13.1.4.7.9,1.4,1.4,2.2,1.8,2.9,3.3,5.4,4.4,8.7h2c.2.5.4,1,.7,1.5,4.4,10,9.3,19.6,15,29q1.3,2.5,1.3,5.5h2c.5,1.1.9,2.2,1.4,3.4,2.4,5,6.1,8.1,10.3,11.6,7.9,10,5.7,24.6,5.5,36.7,0,2.1,0,4.1,0,6.2,0,5,0,10.1-.2,15.1h-1q0-.6,0-3.4c0-4.2-.2-8.3-.3-12.5,0-1.8,0-3.6,0-5.4,0-2.6-.1-5.2-.2-7.8,0-.8,0-1.6,0-2.4-.4-15.8-9.7-27.8-19.8-39.2-6.5-7.3-12.4-14.5-17.3-23.1-1.7-2.9-3.3-5.8-5-8.7-3.2-5.6-6.5-11.2-9.7-16.8-1.1-1.9-2.2-3.7-3.3-5.5q-1.3-2.3-1.3-4.3h4v-4Z"/>
        <path class="st78" d="M558.2,328.8c6,6,7.3,21,7.5,29.1-.9,18.4-12.6,31.9-25.5,43.9q-.3.2-2,1c.5-2.6,1.2-4.4,2.5-6.8,1.6-3.5,2.1-6.4,2.5-10.2q.8-.2,5-1c1-3.3,2-6.7,3-10,.2-.8.5-1.6.8-2.5,3.9-14,4.8-29,6.2-43.5Z"/>
        <path class="st28" d="M463.2,426.8h1c0,1.3,0,2.5.1,3.8q.8,23.1,8.2,30.7c5.1,4.6,9.1,6,16,5.7,4.6-.3,9.1-.7,13.7-1.2-3,3.4-5.5,3.6-10,4l1,2q2.5.6,5.6,1.1.5,0,3.1.5c.8.1,1.6.2,2.4.4q-2,3-5,4c-10.8,1.4-18.2.1-27-6.5-7.9-6.6-13.1-13.4-14.4-23.9.9-7.1,2.7-14,5.4-20.6Z"/>
        <path class="st51" d="M481.2,366.8c3,3.8,5.5,7.9,8,12l-1-3c0-2,0-4,0-6,1.6-.3,3.3-.7,5-1,.7,1.7,1.3,3.3,2,5h-3c2.5,3.2,5.1,6.2,8,9-3.7.2-5.8-.2-9-2,0,.8,0,1.6,0,2.5q0,.5,0,3.2c0,1,0,2.1,0,3.2-.2,3.1-.9,5.3-2.2,8.1-1.2-3.6-1-6.6-.8-10.4-.2-2.9-1-5-2.2-7.6,0,.6.1,1.3.2,2,.5,8.2-1.5,14.3-6.2,21-2.3,2-4.1,2.8-7,4q-.3.2-2,1c1.1-2.2,2.2-4.3,3.5-6.4,2.1-5.1,2-10,2.2-15.5,0-1.1,0-2.1,0-3.2,0-2.6.2-5.2.2-7.9h2l2-8Z"/>
        <path class="st57" d="M494.2,115.8c4,3.5,6.2,7.6,8.7,12.2.4.7.8,1.4,1.2,2.2,2.4,4.6,3.6,8.4,3.9,13.6.2,2.1.6,4,1.2,6,0,2.5.1,4.9.1,7.4,0,1.3,0,2.6,0,3.9-.1,3.3-.5,6.5-1.1,9.7-4.1-4.2-5-10.6-5.9-16.2-.7-4.1-1.7-8-3-11.9-1.6-5.1-2.8-10.1-3.8-15.4-.1-.7-.3-1.4-.4-2.1-.6-3.2-.9-6.1-.9-9.4Z"/>
        <path class="st19" d="M214.2,371.8c-1.5,3.1-3.2,6-4.9,8.9-1.7,2.8-3.2,5.4-4.6,8.4-1.4,2.6-2.5,3.8-4.6,5.8-3,2.8-3.7,4.9-3.9,9,.7.3,1.3.7,2,1-8,2.6-17.7,4-25.8,1-2.8-1.7-4.8-3-6.2-6,1.1.3,2.2.7,3.3,1,8.4,2,16,2,23.7-2.2,3.1-2.6,3.6-5.4,4.4-9.2.6-2.5,1.4-4.2,2.8-6.4q1.8-3.1,1.8-6.1c1.6-.8,3.2-1.7,4.9-2.5.9-.5,1.8-.9,2.7-1.4q2.4-1.1,4.4-1.1Z"/>
        <path class="st43" d="M483.2,340.8c2.4,3.6,2.2,5.7,2,10,1.3-.3,2.6-.7,4-1-.7,2-1.3,4-2,6h3c.4,1.8.7,3.5,1.1,5.2.2,1,.4,2,.6,3,.3,2.7.2,4.3-.7,6.8-1-.3-2-.7-3-1,.9,3.3,1.9,6.7,3,10-3.8-1.3-4.2-2.6-6.2-6.1-.5-.9-1.1-1.8-1.6-2.8-.4-.7-.8-1.4-1.2-2.1-1,2-2,4-3,6h-2c.1-1.8.3-3.5.4-5.3,0-1,.2-2,.2-3q.3-2.7,1.3-5.7c.4-3.4.8-6.7,1.2-10.1.4-3.7.9-6.7,2.8-9.9Z"/>
        <path class="st4" d="M518.2,416.8h2c.2.9.5,1.7.7,2.6q4.4,15.5,11.4,20.8,4.6,2.6,6.9,3.6v2c-3.2,1-4.7,1.1-8,0-1-.5-2-1.1-3.1-1.6-1-.5-2-1-3.1-1.6-3.9-2.4-6.4-4.3-7.8-8.7-.1-2.5-.1-5-.1-7.6,0-.7,0-1.4,0-2.1q0-5.1,1.1-7.4Z"/>
        <path class="st30" d="M516.2,434.8h2c0,.6.1,1.2.2,1.9.3.7.5,1.4.8,2.1,1.7.7,3.3,1.4,5,2,1.9,1,3.9,2.1,5.8,3.1,1,.5,1.9,1.1,3,1.6.7.4,1.5.8,2.2,1.2l-1,3c.5.1,1.1.2,1.6.4,2.8.7,5.6,1.7,8.4,2.6v2c-10.6.8-19.5-4-28-10-1.4-1.3-2.7-2.6-4-4,1.1-2.2,2.4-4.1,4-6Z"/>
        <path class="st12" d="M513.2,411.8l1,2q-.9,2.6-2,5c.7.7,1.3,1.3,2,2q.4,2.2.6,4.6c0,.8.1,1.6.2,2.5,0,.6.1,1.2.1,1.9.3-2,.7-4,1-6h1c.3,3.6.7,7.3,1,11h-2q-.3.8-2,5-1.9-.3-4-1c-.3-1-.7-2-1-3-2.5,1.3-2.9,2.5-4,5h-1v-8h2c0-1.3-.2-2.6-.3-3.9,0-5.8,2.3-10.3,5.3-15.1l2-2Z"/>
        <path class="st6" d="M569.2,367.8l2,2q0,2.2-.4,4.6,0,.4-.3,2.5,0,.3-.3,1.9h2c-2.4,10.6-5.9,20.4-14,28,2-11.9,4.1-23,9-34,.7-1.7,1.3-3.3,2-5Z"/>
        <path class="st34" d="M460.2,101.8h2q1.1,1.3,2.4,3.2c2.8,3.9,5.8,7.5,8.9,11.2q16.6,19.5,16.6,23.6c-4.4-1.8-6.9-4.9-10-8.3q-2-1.7-6-1.7c-.4-.9-.9-1.8-1.3-2.7-3.4-6.8-6.8-13.5-10.5-20.1q-1.2-2.2-2.2-5.2Z"/>
        <path class="st21" d="M390.2,329.8h2q0,.4.4,2.5c.2,1.1.4,2.2.5,3.3.2,1.1.3,2.1.5,3.2q.5,3,1.2,5.3c.5,2.5-.4,3.7-1.6,5.8h-2q-1.6-2.5-3-5c-.7,1.3-1.3,2.6-2,4l-1-2q-1.2,1-7,6l-2-1c2.3-6.9,4.8-13,9-19,.7.3,1.3.7,2,1v6h2c.3-3.3.7-6.6,1-10Z"/>
        <path class="st20" d="M567.2,284.8c3,3.3,3.6,6,4.1,10.4.2,1.2.3,2.4.5,3.7.6,6,1.1,11.9,1.4,17.9h-2q-6-16.1-5-24c0-.8.2-1.5.2-2.3.2-1.9.5-3.8.8-5.7Z"/>
        <path class="st40" d="M493.2,166.8h1c0,.9.1,1.7.1,2.6q1.9,31.4,3.9,44.4h-3c-.3,1.3-.7,2.6-1,4v-4h-2c.3-15.5.7-31,1-47Z"/>
        <path class="st77" d="M420.2,347.8c2.9,1,3.8,1.7,5.2,4.4q.8,2.6.8,5.6h2c-.7-2-1.3-4-2-6,1,.3,2,.7,3,1q1,2.4,1.8,5.4c.3,1,.5,1.9.8,3q.4,2.7-.6,5.7-3-3.8-3-6c-.6.2-1.2.4-1.9.6q-2.1.4-4.1-.6v3h-2c0-.7-.1-1.4-.2-2.1,0-.9-.2-1.8-.3-2.7,0-.9-.2-1.8-.2-2.7q-.3-2.5-1.3-5.5h2v-3Z"/>
        <path class="st53" d="M444.2,48.8c7.2,1.8,11.8,4.8,17,10,.5.5,1.1,1,1.6,1.6,1.1,1.1,2.3,2.3,3.4,3.4l-1,2c-.7-.5-1.4-1-2.2-1.5-5.4-3.6-9.3-6.1-15.8-6.5l-1-2c-1-.3-2-.7-3-1,.3-2,.7-4,1-6Z"/>
        <path class="st25" d="M205.2,399.8v8c.6,0,1.3,0,2,0,4.8,0,9.3,0,14,1v1h-8l-1,3c-5.4-.6-10.4-2.1-15-5q-1.1-2.8-1-5c.9-.3,1.9-.6,2.9-.9q6.1-2.1,6.1-2.1Z"/>
        <path class="st38" d="M346.2,310.8v2c-1.6.7-3.3,1.3-5,2h4c-.3,1-.7,2-1,3q-2.1.7-4.6,1.2c-.8.2-1.7.3-2.5.5-.6.1-1.3.2-1.9.3.7-1.7,1.3-3.3,2-5-2.6.3-5.3.7-8,1,1-3,1.7-3.9,4.6-5.3,4.4-.9,8.1-.4,12.4.3Z"/>
      </g>
      <g id="nose" inkscape:label="Nose">
        <path class="st7" d="M417.2,184.8q2,1.6,4,3,.6,3.1.8,6.7c0,1.2.1,2.4.2,3.6,0,.9,0,1.8,0,2.7,1.6-.3,3.3-.7,5-1,.2,3.6-.1,5.9-2,9-1.3-.3-2.6-.7-4-1v-2h-2v3c1.7.3,3.3.7,5,1,.1.8.2,1.7.3,2.6,1,7.6,1.5,11.4,2.5,14l1.2,24.4c-.8,4-1,7.4-.6,11.4,0,.9.2,1.8.3,2.7q0,.3.3,2-3,1-6.2.3c-4.9-.4-7.7,1.2-11.8,3.7-.5-.4-.9-.9-1.4-1.3-4.9-4.2-8.2-5.3-14.7-4.9-.6,0-1.2.1-1.9.2q-.7-1.7-1-4c.5-.8.9-1.5,1.4-2.3,2.1-3.6,2-6.2,2-10.4,0-1.3,0-2.6,0-4q-.5-3.4-2.5-5.4c-.6-.3-1.3-.7-2-1,1.1-2.5,2-4,4-6h3c2.8-4.9,2-9.7,1-15q-1-3-2-5c-1.4-2.8-.5-4,.4-6.9,1.2-4.1,1.8-7.7,1.9-11.9q.3-4.6,1.9-6.9c2.7-2.4,5.3-3.5,8.8-4.2l8,3Z"/>
        <path class="st23" d="M377.2,260.8q6.8,0,9.9,2.6,4.1,4.8,4.1,7.4l2-1c4.5-.2,7.7-.2,11.9,1.4q2,.6,4.1.6c2.5-1.4,4.6-2.9,6.8-4.7,2.4-1.5,3.5-1.7,6.2-1.2q.5.2,2.9.9.2.8,1,5c-5,4-7.7,4.3-14,4-1,.3-2,.7-3,1h-3q-.3.3-1.9,2.1c-.7.6-1.4,1.3-2.1,1.9-3.2-.4-5.6-1.9-8.3-3.6-4.1-2.3-6.9-3.4-11.7-2.4-2,1.4-3.7,3-5.4,4.7q-1.6,1.3-4.6,1.3.3-1.9,1-4c1-.3,2-.7,3-1-.3-.8-.6-1.5-1-2.3-.4-1-.8-2-1.2-3-.4-1-.8-2-1.2-3-.2-.9-.4-1.8-.7-2.7.7-1,1.3-2,2-3h2l1-1Z"/>
        <path class="st75" d="M383.6,245.7c3.8,1.5,5.4,3.7,7.6,7.1q.3,3.4,0,6c-4.4.7-8.5,1-13,1q-2.4.5-4,1c-.5-5.3.8-7.8,4-12,.5-.6,1-1.3,1.4-1.9q1.6-1.1,3.9-1.1Z"/>
        <path class="st50" d="M427.2,249.8c6.9,6.2,11.6,16.9,13,26q-.5,2.2-1,4c-.5-.6-1.1-1.3-1.6-1.9-.7-.8-1.4-1.7-2.2-2.5-.7-.8-1.4-1.6-2.1-2.5q-2-2.1-5-3.1c-.7.3-1.3.7-2,1,0-.6.2-1.3.2-1.9.5-4.3.9-8.2.2-12.5q-.5-3.6.5-6.6Z"/>
        <path class="st10" d="M377.2,243.8c.2,4.4,0,7.2-2,11-.4,2-.7,4-1,6,.9-.2,1.9-.4,2.8-.6q3.2-.4,6.2,1.6c-.9,0-1.8,0-2.8-.1-3.2.1-4.6.6-7.2,2.1h-2l-1-2c-2.5,1.1-4.1,2-6,4h-3c2-5.5,8.9-22,16-22Z"/>
        <path class="st33" d="M378.2,258.8q9.4.4,12,3.1t4.2,2c.9,0,1.7-.1,2.6-.2,5.3-.3,7.9,1.4,11.9,4.8.5.4.9.9,1.4,1.3l-1,3c-1.1-.3-2.2-.7-3.4-1-3.4-.9-6.3-1-9.9-.8q-2.6,0-4.8-.2-2.4-2.8-4-6c-2.8-2.5-5.5-3.8-9-5v-1Z"/>
        <path class="st56" d="M382.2,230.8c.4-.6.7-1.2,1.1-1.9,2.6-4.4,5.3-8.8,8.1-13.2q.2-.4,1.4-2.2t4.4-2.7q4.3,13,1.8,18.7c-2,2.6-4,3.7-6.8,5.3q-.3.5-2,3c.6.3,1.3.6,1.9.9q2.1,1.1,3.1,2.1,1.2,15.4-4,22l-3-3c1-.3,2-.7,3-1q-1.3-7.3-4.4-10.6-2.6-1.4-4.7-1.3-1.9.9-4.9,2.9-.2-.8-1-5l6-14Z"/>
      </g>
      <g id="eyes" inkscape:label="Eyes">
        <g id="right_eye" inkscape:label="Right eye">
          <path class="st56" d="M388.2,198.8h3c.3,1.3.7,2.7,1,4s.7,2.7,1,4h-3q-.1.3-.9,1.9t-3.1,4.1c-.6,1.4-1.2,2.8-1.7,4.2-2.7,6.1-6.7,10.9-12.9,13.8-7.5,2.4-17.4,2.5-24.6-.8-8-4.9-12.9-11.3-15.8-20.1q.9-2.7,2-5c3.5.4,6.7.9,10.1,2,4.9,1.4,9.8,1.2,14.9,1.1,1,0,1.9,0,2.9,0,2.4,0,4.8,0,7.1-.1v4c-.6.2-1.2.5-1.9.8-.8.3-1.6.7-2.5,1-.8.3-1.6.7-2.5,1q-2.2,1.2-4.2,4.2c2.2-.6,4.5-1.2,6.7-1.8,1.2-.3,2.5-.7,3.8-1,3.2-1.1,5.7-2.3,8.5-4.2v2c.6-.5,1.2-1,1.9-1.5.8-.7,1.6-1.3,2.5-2,.8-.6,1.6-1.3,2.5-2q2.2-1.5,4.2-1.5l1-8Z"/>
          <path class="st42" d="M338.2,187.8h2c-.6,3.3-1.5,4.8-4,7,1.3-1,2.6-2,4-3,.7.3,1.3.7,2,1-1.7,1.7-3.3,3.3-5,5h10v-4l3-1q.1.4.9,2.4t2.1,3.6c1.9,0,3.7,0,5.6,0,1,0,2,0,3.1,0,.8,0,1.6,0,2.4,0,.7-1.6,1.3-3.3,2-5q.8.2,5,1c-.3,1.3-.7,2.6-1,4,3.6.7,7.3,1.3,11,2v-3h3l2-2q2,2,2.2,4c-.2,2.5-.5,4.6-1.2,7q-2.9,2.4-6,4c-.5.6-1.1,1.2-1.6,1.8q-1.4,1.2-5.4,1.2-.4.2-2.2,1.4c-4.7,2.8-9.3,3.6-14.8,3.6,1-2.7,1.7-3.8,4.2-5.3.8-.3,1.6-.6,2.5-1,.8-.3,1.6-.7,2.5-1,.6-.2,1.2-.5,1.9-.7v-2c-.6,0-1.2,0-1.8,0-2.7,0-5.4.1-8.2.1-.9,0-1.9,0-2.8,0-5.6,0-10.1-.5-15.3-2.5-2.6-1-5.2-1.4-7.9-1.7q-.1-8.6,1-12h2q.2-.3.9-1.9,1.1-2.1,2.1-3.1Z"/>
          <path class="st24" d="M368.2,187.8c-1,.3-2,.7-3,1q.8.3,5,2v2c.7.2,1.4.4,2.2.7,3.3,1.6,5.3,3.6,7.8,6.3h-11c.3-1.6.7-3.3,1-5-1.3-.3-2.6-.7-4-1-.7,2-1.3,4-2,6-1.8,0-3.5.1-5.3.2-1,0-2,0-3,.1q-2.7-.3-4.6-1.6t-1.1-5.7c-1,.7-2,1.3-3,2,.3,1.3.7,2.6,1,4h-12c1.6-2,3.3-4,5-6-1.6.7-3.3,1.3-5,2,1.4-4.1,3.2-4.9,7-7,7.3-2.6,18.3-4.4,25,0Z"/>
          <path class="st70" d="M355.2,176.8v3q.3,0,2,.4t2.7.5c.9.2,1.8.3,2.7.5,2.4.6,4.4,1.4,6.6,2.6v3c-1.2,0-2.3,0-3.6-.1-8.9-.2-16.9,0-25.4,3.1v-2c-.8.8-1.6,1.6-2.4,2.5q-2.6,2.5-4.6,2.5c2.5-7.4,7.1-11.5,14-15,2.9-.9,4.8-1,8-1Z"/>
        </g>
        <g id="left_eye" inkscape:label="Left eye">
          <path class="st16" d="M426.2,211.8h2c1,1.8,2,3.7,2.9,5.6,4.3,7.5,9.7,11.8,18,14.3,2.4.5,4.7.9,7.1,1.1-2.4-2.4-4.6-4.7-7.3-6.7-.6-.4-1.1-.9-1.7-1.3v-2c.8,0,1.5,0,2.3-.1q15.9-1,21.7-6.9,1.9,0,4,1,2.8,2.8,5,6c0,4.2-1.5,5.5-4.4,8.4-7.8,7.1-14.7,9.3-25.3,8.9-6.5-.6-11.6-2.7-16.3-7.3-2.9-4.1-5.4-8.2-7-13h-1v-8Z"/>
          <path class="st47" d="M463.6,199.2c1.1.6,2.3,1.2,3.5,1.8q4.7,2.7,6.1,4.8-.3,2.2-1,4c-.5-.5-1-.9-1.5-1.4-7.8-7.2-13.3-9.2-24-9-5.2.6-10.7,2.6-14.5,6.4,2.6.3,5.3.7,8,1,.3-1.3.7-2.6,1-4,1.3-.3,2.6-.6,4-1,.7,2.6,1.3,5.3,2,8h-6c1.7,3.6,3.1,5.3,6.7,6.8,1.1.4,2.2.8,3.3,1.2v2c-6.2-.5-11.3-2.5-17-5-.3,1.3-.7,2.6-1,4q-3-1-4.7-3.6c-1.8-4.8-.8-8.1.4-13q1.4-2.4,4.2-3.7,19.6-5.1,30.6.7Z"/>
          <path class="st17" d="M460.1,199.7c4.9,2.3,8.6,5,12.1,9-.3,1-.7,2-1,3h-7v-5c-.7-.3-1.3-.7-2-1-.3.8-.6,1.6-.9,2.4q-1.1,2.6-2.1,3.6-9.2.3-12-1c-2.1-3-2.2-5.4-2-9l-4,2v4c-1.5-.1-3-.2-4.4-.4-.8,0-1.6-.1-2.5-.2-.7-.1-1.4-.3-2.1-.4-.3-.7-.7-1.3-1-2,9.3-5.7,18.2-8.6,28.9-5Z"/>
          <path class="st39" d="M462.2,205.8c1,.3,2,.7,3,1v4c3,1,5.9,2,9,3v2c-1.6,1.1-3.3,2.1-5,3-1,.7-2,1.3-3,2-4.1,1.2-7.6.9-11.8.6q-.6,0-3.5-.3c-.9,0-1.8-.2-2.7-.2l3-1v-2c-.7,0-1.4-.2-2.2-.2-3.4-.9-5.3-2.3-7.8-4.8v-3c5.9.3,11.9.7,18,1,1-1.7,2-3.3,3-5Z"/>
          <path class="st9" d="M434.2,214.8c3.7.4,6.5,1.2,9.7,2.9,4.9,2.6,9.9,3.3,15.3,4.1v1h-12q4,4,6.8,6.1.4.3,2.2,1.9v2c-8.8.7-14.5-3.4-21.4-8.4-1.8-1.8-2.3-3-2.6-5.6q.9-2.2,2-4Z"/>
          <path class="st64" d="M462.2,184.8q1.9,1.5,3,3v1c-1.1,0-2.1,0-3.2,0-1.4,0-2.8.1-4.2.2-.7,0-1.4,0-2.1,0q-2,0-5.5.7-1.5,2.1-2,4c2.3.3,4.6.7,7,1v1q-.3,0-2.1.1c-5.7.4-10.6,1.2-15.9,3.4-2.3.6-3.7.3-6-.5l2-2q.1-.4.8-2.4c2.1-4.5,5.3-6.2,9.6-8.4,5.9-2,12.4-2,18.6-1.2Z"/>
          <path class="st44" d="M469.2,189.8q3.3.6,7,2c3.4,5.3,3.2,8.9,2,15-3.7,0-4-.7-6.6-3.2-3.8-3.5-7.5-5.3-12.4-6.9q-2-.8-3-2.8c4.3-1,8.6-2,13-3v-1Z"/>
          <path class="st3" d="M476.2,193.8c4.7,4.2,7.5,8,8.3,14.4.2,6-1,11.1-3.3,16.6-.6-.8-1.2-1.5-1.8-2.3-1.7-2-3.3-3.9-5.2-5.7.3-.7.7-1.3,1-2,1,.3,2,.7,3,1v-6h-2c.3-1,.7-2.1,1.1-3.1,1.2-5,.5-8.1-1.1-12.9Z"/>
          <path class="st65" d="M464.2,185.8c4.4,1.2,7,2.5,10,6-.6-.2-1.1-.4-1.8-.6-2.8-.5-3.7.3-6.2,1.6-6.3,1.8-11.6,2.2-18,1q.9-3.9,2-5c3.4-.3,6.7-.5,10.1-.6,1-.1,1.9-.2,2.9-.4l1-2Z"/>
          <path class="st5" d="M483.2,215.8q6.4-.4,9.4,1.5c.5.5,1,1,1.6,1.5h-2c-.3,8.9-.7,17.8-1,27h-1c0-3.8,0-7.5,0-11.2,0-1.1,0-2.1,0-3.2,0-1,0-2.1,0-3.1q0-.5,0-2.9c0-2.3.4-4.3,1.1-6.6-2.3.3-4.6.7-7,1-.3,1.1-.6,2.2-.9,3.4-2.7,7.4-9,14.2-16.1,17.6l-2-1c.6-.5,1.2-.9,1.8-1.4,8.5-6.4,12.8-12.6,16.2-22.6Z"/>
        </g>
        <g id="eyeglasses" inkscape:label="Eyeglasses">
          <path class="st13" d="M375.5,177.3c6.9,4.5,11.9,10.6,14.7,18.4q.2,3.5,0,6c-1.7-2.5-2.6-4.5-3.7-7.2-3.3-7.4-7.8-12.6-15.1-16-3.7-1.3-7.3-1.3-11.2-1.2q-.4,0-2.3,0c-7.2,0-13.8,1.9-19.3,6.9-4.2,4.7-6.9,10.3-7.4,16.6-3.6.3-7.3.7-11,1v-4c3,.3,5.9.7,9,1,0-.8,0-1.6.1-2.4,1.9-7.6,7.3-14.3,13.9-18.6,9.5-4.9,22.7-5.4,32.3-.4Z"/>
          <path class="st67" d="M387.2,207.8h1c-.3,7.2-2.5,12.4-7,18-7.4,6.5-15.2,8.5-25,8.3-8.2-.9-14.5-5.4-20-11.3-1.8-2.3-2.8-4.3-4-7q.4-2.2,1-4c.3.6.5,1.3.8,1.9,3.5,7.7,7.6,12.9,15.3,16.5,9.3,1.3,18.9,2.2,26.9-3.4,6.2-5.2,8.7-11.4,11-19Z"/>
          <path class="st48" d="M389.2,205.8l8,1c-4.3,8.8-9.2,17.1-15,25l-1-2,1-3h-3c.4-.6.8-1.1,1.2-1.7,4.2-6.1,7.6-11.8,8.8-19.3Z"/>
          <path class="st22" d="M427.2,218.8c1.5,2.3,2.7,4.4,3.8,6.9,2.8,5.6,6.6,9.3,12.2,12.1,7.5,2.4,16.5,2.2,23.5-1.2,3.9-2.2,7.2-4.8,10.5-7.8-2.5,5.6-7,9.4-12.6,11.9-7.7,2.5-16.6,2.4-23.9-.9-6.4-3.7-10.8-9-13.5-15.9q-.2-2.9,0-5Z"/>
          <path class="st62" d="M460.2,183.8c6.1-.8,10.2,1.5,15,5,5.6,5.1,10.5,11.6,11.2,19.4,0,1.9-.1,3.8-.2,5.6,2.6.3,5.3.7,8,1v3c-3.3-.7-6.6-1.3-10-2,0-.8-.1-1.6-.2-2.5-.9-7.9-2.4-14.4-7.8-20.5-4.8-3.8-10.1-6.4-16-8v-1Z"/>
          <path class="st45" d="M433.2,192.8q.8,1.7,1,4c-.6.7-1.2,1.4-1.8,2.1-4.7,6-6,13.4-5.2,20.9.6,2.1,1.4,4.1,2.2,6.1.8,1.9,1.3,3.8,1.8,5.9-4.7-3.6-5.9-8.4-7-14-.2-2.7-.1-5.3,0-8-1.6-.3-3.3-.7-5-1v-3h2l1,2,3,1c0-.5.2-1,.3-1.6,1.6-5.6,3.9-10.1,7.7-14.4Z"/>
          <path class="st35" d="M332.2,192.8c1.6,5.5,1.4,10.9.3,16.5-.4,4.7,1,8.2,2.7,12.5-4.2-3.9-5.9-8.2-6.2-13.9,0-1,.1-2,.2-3.1-2.6-.7-5.3-1.3-8-2l1-2h9c0-.9,0-1.9,0-2.9q0-3.1,1.1-5.1Z"/>
          <path class="st54" d="M456.2,195.8c7.1.9,11.7,3.3,17,8,.6.5,1.1,1,1.7,1.5q1.3,1.5,1.3,4.5h2v6c-3.1-.7-6-1.8-9-3,.5-.4,1-.8,1.6-1.2q1.4-1.8,1.3-4.2c-1.2-3.4-2.5-4.1-5.6-5.8-.9-.5-1.7-1-2.6-1.5-2.5-1.3-5-2.3-7.6-3.3v-1Z"/>
          <path class="st31" d="M455.5,182.7c.7,0,1.5,0,2.2,0,1.8,0,3.6,0,5.5,0-3.3,2.2-4.6,2.2-8.6,2.4-8.9.6-16.1,3.3-22.4,9.6-1.5,1.9-2.7,3.9-4,6-.3-.7-.7-1.3-1-2,6.8-10.6,15.6-16.4,28.3-16.1Z"/>
          <path class="st66" d="M364.2,176.8c8.1.5,13.4,4,18.9,9.9,3,3.6,4.3,6.6,5.1,11.1-2.5-2.4-4.7-4.4-6.4-7.4-4.2-6.6-10.5-9.8-17.6-12.6v-1Z"/>
        </g>
        <path class="st62" d="M392.2,204.8s13.2-5.4,28.5,0v3c0,0-14.9-6.2-28.5,0v-3Z"/>
      </g>
      <g id="mouth" inkscape:label="Mouth">
        <path class="st1" d="M379.5,312.5c13.1-.6,29.2-.3,40,8,1,.8,2.1,1.6,3.1,2.4q1.9,2.6,1.8,6.1c-.3,1.2-.6,2.4-.9,3.6-.7,3.7-1.1,7.2-1,11l-2-1v-2l-4,2q-2-1.4-4-3v-2h-2c-.3,2.6-.7,5.3-1,8h-2l-1-6h2c-.5-.9-.9-1.7-1.4-2.6-1.5-3.1-2.6-6.1-3.6-9.4l-1-2h2v-3q-.6,0-3.9.1c-6.6,0-13.4-.3-18.7-4.6q-2.4-2.6-2.4-5.6Z"/>
        <path class="st60" d="M417.5,275.5q-.3.2-2,1c.5.5,1,1,1.6,1.5,2.2,3.8,1.2,6.3.4,10.5.6-.2,1.2-.4,1.8-.6q2.2-.4,5.2.6v-2h2v2q.4,0,2.6.4c6.9,1.3,14.4,3.5,18.6,9.4.6,1.1,1.1,2.1,1.8,3.2,1.7-.3,3.3-.7,5-1v2h2q-1,8.6-2,12l-1-1c-.7,1-1.3,2-2,3-.3-.5-.6-1-1-1.5-.4-.6-.9-1.3-1.3-1.9-.4-.6-.8-1.3-1.3-1.9-1.8-2-2.9-2.1-5.5-2.6-1.3-1.7-2.7-3.3-4-5q-2.2-.8-4-1v4c-3.3-1-4.8-1.8-7-4.6-2.4-2.9-3.4-3-7-3.4q-2.2-.6-4-2c-.9-4-1.1-7.9-1-12-1.3-.3-2.6-.7-4-1-.7-2.6-1.3-5.3-2-8,2.9-1.4,4.9-.6,8,0Z"/>
        <path class="st2" d="M383.6,311.4c1.3,0,2.5,0,3.9,0,1,0,2,0,3,0v1h-11c1.7,3.6,3.1,5.3,6.7,6.8,1.1.4,2.2.8,3.3,1.2-.6.2-1.2.5-1.8.8-3.5,1.9-5.7,4.2-7.6,7.7-2.1,3.4-4.4,5.2-7.6,7.6h-2c-1.7.6-3.3,1.3-5,2v-5q-2.2-.2-5,0-2.2,2-4,4h-2c-.7-7.3,2.6-14.4,7-20,3-3.1,4.2-4,8.6-4.1q.6,0,3.4.1c3.7-2.5,5.7-2.2,10.2-2.1Z"/>
        <path class="st26" d="M406.5,274.5q2.5,1.7,5,4,.3,2.8,0,5c1.7.3,3.3.7,5,1v12c1.3.3,2.6.7,4,1,2,.7,4,1.3,6,2-.2.5-.4,1-.6,1.6-.6,3.3,0,6.2.6,9.4q-.7.2-4,1-4-4.6-4-8-.8.2-5,1v-2c-1,.3-2,.7-3,1q-4-5.8-4-8h-2c-.3.7-.7,1.3-1,2,0-.8,0-1.6-.1-2.5,0-1.1-.1-2.1-.2-3.2,0-1-.1-2.1-.2-3.2-.5-3.3-1.6-5.3-3.5-8.1.6-.2,1.2-.5,1.8-.8,2.5-1.4,3.6-2.9,5.2-5.2Z"/>
        <path class="st46" d="M401.5,299.5c2.6,2.9,3,4.1,3,8-8.6,2.9-17.5,0-26-2v-2c1.2-.7,2.5-1.3,3.8-1.9.7-.4,1.4-.7,2.1-1.1,5.6-2.6,11.2-2.4,17.1-1Z"/>
      </g>
      <g id="eyebrows" inkscape:label="Eyebrows">
        <g id="right_eyebrow" inkscape:label="Right eyebrow">
          <path class="st15" d="M332.5,158.5l2,1v2c4.9-.7,9.9-1.3,15-2v2h12v1q-.5,0-3.2.2c-1.4,0-2.8.2-4.2.3q-.4,0-2.1.1-5.3.3-6.4,1.4.8.2,5,1v1c-1.7,0-3.5,0-5.2,0q-.5,0-2.9,0c-2.8-.1-5.2-.5-7.9-1.1v6q-.3.2-2,1c5.6.7,11.2,1.3,17,2-1.7,1.1-3.3,2.2-5.1,3.2-8.5,5.3-12.9,11.3-15.9,20.8-5.7.5-8.5-.5-13-4,1.8-12.3,6.4-21.9,14.1-31.6q1.9-2.4,2.9-4.4Z"/>
          <path class="st68" d="M354.1,162.5c.7,0,1.4,0,2.1,0,1.7,0,3.4,0,5.2,0v2c.9,0,1.8,0,2.7.1q.6,0,3.5.2.6,0,3.5.2c3.5.5,5.5,1.4,8.3,3.5v2h2c.3-1,.7-2,1-3q2.1-.7,4-1c3.2,4.2,4.5,6.7,4,12-4.5,1.5-9.6,2.1-13.9.1-.7-.4-1.4-.7-2.1-1.1-8.1-3.4-17-3-25.6-3.3-1.8,0-3.6-.2-5.4-.2-4.3-.2-8.7-.4-13-.5,1.3-.7,2.6-1.3,4-2v-2l-2-1h2c-.3-1-.7-2-1-3q3.8-1.1,6,0c2,0,4,0,6,0-.7-.7-1.3-1.3-2-2,3.6-1.2,6.9-1.1,10.7-1.1Z"/>
          <path class="st55" d="M386.5,166.5c5.7,1.3,7.7,3.5,11,8l4-2v9c-1.6.3-3.3.7-5,1v24h-4c-2.1-3.1-2.7-5.5-3.7-9.1-2.4-8-6.5-13.1-12.3-18.9h14c-1.1-4.1-2.3-8.1-4-12Z"/>
          <path class="st71" d="M407.5,152.5h2v29q-1.3.7-8,4c-2.8,2.8-2.7,5.8-3.1,9.6,0,.7-.2,1.4-.3,2.2-.2,1.7-.4,3.5-.6,5.2-2.6-3.8-2.2-7.8-2.1-12.2,0-.8,0-1.5,0-2.3,0-1.8,0-3.7.1-5.5,1.6-.3,3.3-.7,5-1v-8l-3,2c-.4-.5-.8-1-1.2-1.5-.5-.6-1-1.3-1.6-1.9-.5-.6-1-1.2-1.6-1.9-1.8-1.8-3.4-2.7-5.7-3.7l1-2c2.5.4,4,1,6.1,2.6q1.9,1.4,4.9,1.4l2-4h2c.1-.6.2-1.2.4-1.9.2-.8.3-1.6.5-2.5.2-.8.3-1.6.5-2.4q.6-2.3,2.6-5.3Z"/>
          <path class="st41" d="M354.5,176.5c9.1-.9,16.1,2.1,23.2,7.8,3.2,3,5.8,5.8,6.8,10.2q-.4,2.3-1,4l-3-1v3h-8v-1l6-1c-.6-.4-1.3-.8-2-1.2-.8-.5-1.7-1.1-2.5-1.6-.8-.5-1.7-1.1-2.5-1.6-.6-.5-1.3-1-2-1.5v-2c-.8-.1-1.6-.2-2.4-.4q-2.6-.6-4.6-2.6c1.6-.3,3.3-.7,5-1l1-3c-5.8-2.3-11.9-3.1-18-4,1.3-.3,2.6-.7,4-1v-2Z"/>
          <path class="st36" d="M341.5,147.5c-1.5,3.2-3.3,5.7-5.6,8.4-7.2,8.9-13.9,17.6-17.4,28.6-.3.9-.6,1.7-.9,2.6-.7,2.1-1.4,4.2-2.1,6.4h-1c.5-14,3.6-27.5,12-39q2.6-1.2,5-2c1.7-1.3,3.3-2.7,5-4q3-1,5-1Z"/>
          <path class="st58" d="M362.5,160.5c2.6.5,5.2.9,7.8,1.4,2.1.4,4.2.7,6.3,1.1,1,.2,1.9.3,2.9.5q.5,0,2.7.4t4.2,2.6c-.7.7-1.3,1.3-2,2l-2-1c-.3,1.3-.7,2.6-1,4-.8-.6-1.6-1.3-2.4-1.9-4.8-3.7-8.8-3.4-14.8-3.7-.9-.1-1.9-.2-2.9-.4-.3-.7-.7-1.3-1-2,.7-1,1.3-2,2-3Z"/>
        </g>
        <g id="left_eyebrow" inkscape:label="Left eyebrow">
          <path class="st14" d="M438.5,167.5h2v2q.3,0,1.8-.6t5.2.6c3.4.7,6.9,1.3,10.3,1.8q21,3.5,28.8,11.2c3.3,5.4,2.8,10.9,1.8,17l-4-1c-.2-1.1-.5-2.2-.8-3.4q-1.2-3.6-3.1-4.8c-2.1-.8-4.3-1.6-6.5-2.3-4-1.3-7.8-2.8-11.7-4.6l1-3q2.1-.7,4-1v-2q-.3,0-1.8.1c-6.9.2-12.7-1-19.2-3.1v-2c-.6.5-1.1,1-1.7,1.6q-2.3,1.4-5.1,1.1c-.7-.2-1.5-.5-2.2-.7-.7,2.6-1.3,5.3-2,8q-5.8.1-8-1v-3h2c.3-2.3.7-4.6,1-7,.8,0,1.5-.2,2.3-.3,2.9-.8,3.7-1.5,5.7-3.7Z"/>
          <path class="st59" d="M415.5,167.5q.3.3,1.8,1.5c.7.5,1.4,1,2.2,1.5q.4-.1,2.6-.9c4.7-1.5,8.6-.8,13.4-.1-.3,1-.7,2-1,3l-4-1c-.3,2.3-.7,4.6-1,7h-2v3c1,0,2,0,3.1-.1,4.1.1,7.1.8,10.9,2.1v2q-1.8,1.2-4.1,2.6c-4.3,2.7-6.8,5.5-9.4,9.7-2,2.2-3.6,2.3-6.5,2.6q0-.5-.3-2.7c-.1-1.2-.3-2.4-.4-3.6-.1-1.2-.3-2.4-.4-3.6q-.8-3.1-2.9-4.5t-2.3-3.4c0-2.3,0-4.6,0-6.9,0-.8,0-1.6,0-2.4,0-2,.1-3.9.2-5.9Z"/>
          <path class="st32" d="M446.5,172.5v2c.6,0,1.2.1,1.9.2.8,0,1.6.2,2.5.3.8,0,1.6.2,2.5.2q2.2.3,4.2,1.3c1.7.2,3.4.4,5.1.6.9,0,1.8.2,2.8.3.7,0,1.4.1,2.1.2v2l-4,1v2c-1.2,0-2.3.1-3.5.2-1.6,0-3.1.2-4.6.3-.8,0-1.5,0-2.3.1-3.2.2-6.2.4-9.3,1-3.1.6-5.3-.4-8.2-1.6q.6-5.5,2.6-7.9c.5-.4.9-.7,1.4-1.1.3.7.7,1.3,1,2q.3-.2,1.9-1.5t4.1-1.5Z"/>
          <path class="st0" d="M473.5,187.5c3.5.3,4.9,1,7.7,3.2,2.2,2.6,3.1,4.6,4.3,7.8l3,1v-7c1.9,1.6,2.9,2.5,3.3,5,0,.7,0,1.5,0,2.2,0,.8,0,1.6,0,2.4,0,.8,0,1.7,0,2.5q0,.4,0,2.6c0,2.1,0,4.2-.1,6.2l2,1q-5.8.1-8-1-.5-2.2-.8-5c-1.4-8.5-5.5-14.7-11.2-21Z"/>
          <path class="st76" d="M487.5,155.5c3.3,2.6,3.5,4.9,4,9,0,2.4.1,4.9,0,7.4,0,.7,0,1.4,0,2.1,0,2.1,0,4.3,0,6.4,0,1.5,0,2.9,0,4.4,0,3.6,0,7.1,0,10.7q-.3.2-2,1c-.3-2.6-.7-5.3-1-8h1c.2-11.1-.5-22.1-2-33Z"/>
        </g>
      </g>
    </g>
  </g>
</svg>