<?xml version="1.0" encoding="UTF-8"?>
<svg id="Layer_1" xmlns="http://www.w3.org/2000/svg" xmlns:inkscape="http://www.inkscape.org/namespaces/inkscape" version="1.1" viewBox="0 0 923.1 1153.9">
  <!-- Generator: Adobe Illustrator 30.5.1, SVG Export Plug-In . SVG Version: 2.1.4 Build 3)  -->
  <defs>
    <style>
      .st0 {
        fill: #86543d;
      }

      .st1 {
        fill: #b7795f;
      }

      .st2 {
        fill: #85523b;
      }

      .st3 {
        fill: #5a362b;
      }

      .st4 {
        fill: #222a2d;
      }

      .st5 {
        fill: #010101;
      }

      .st6 {
        fill: #010000;
      }

      .st7 {
        fill: #c6a08d;
      }

      .st8 {
        fill: #ecb499;
      }

      .st9 {
        fill: #9a6349;
      }

      .st10 {
        fill: #a67e6c;
      }

      .st11 {
        fill: #dd9e81;
      }

      .st12 {
        fill: #c18367;
      }

      .st13 {
        fill: #f5d0ba;
      }

      .st14 {
        fill: #b67a5f;
      }

      .st15 {
        fill: #3d2e26;
      }

      .st16 {
        fill: #d89b7e;
      }

      .st17 {
        fill: #a96c50;
      }

      .st18 {
        fill: #8b573f;
      }

      .st19 {
        fill: #ecb59a;
      }

      .st20 {
        fill: #dc9e81;
      }

      .st21 {
        fill: #533825;
      }

      .st22 {
        fill: #dcd1c8;
      }

      .st23 {
        fill: #5c3924;
      }

      .st24 {
        fill: #a27c6a;
      }

      .st25 {
        fill: #d99b7f;
      }

      .st26 {
        fill: #744c38;
      }

      .st27 {
        fill: #543a26;
      }

      .st28 {
        fill: #72472f;
      }

      .st29 {
        fill: #dc9c80;
      }

      .st30 {
        fill: #522f24;
      }

      .st31 {
        fill: #794935;
      }

      .st32 {
        fill: #f7d0b8;
      }

      .st33 {
        fill: #5e3d29;
      }

      .st34 {
        fill: #b5785d;
      }

      .st35 {
        fill: #cd856e;
      }

      .st36 {
        fill: #b77a5f;
      }

      .st37 {
        fill: #674336;
      }

      .st38 {
        fill: #241b15;
      }

      .st39 {
        fill: #b67d61;
      }

      .st40 {
        fill: #a57d6b;
      }

      .st41 {
        fill: #f3d0bb;
      }

      .st42 {
        fill: #996248;
      }

      .st43 {
        fill: #fbf8f5;
      }

      .st44 {
        fill: #88553e;
      }

      .st45 {
        fill: #a46c51;
      }

      .st46 {
        fill: #dd9e82;
      }

      .st47 {
        fill: #aa7d6b;
      }

      .st48 {
        fill: #1e1e1b;
      }

      .st49 {
        fill: #1e1e1c;
      }

      .st50 {
        fill: #b06c5a;
      }

      .st51 {
        fill: #8d5a42;
      }

      .st52 {
        fill: #312520;
      }

      .st53 {
        fill: #dab19d;
      }

      .st54 {
        fill: #522f23;
      }

      .st55 {
        fill: #4d2f25;
      }

      .st56 {
        fill: #da9a7e;
      }

      .st57 {
        fill: #e4c9b8;
      }

      .st58 {
        fill: #372821;
      }

      .st59 {
        fill: #6d4633;
      }

      .st60 {
        fill: #332720;
      }

      .st61 {
        fill: #a9806d;
      }

      .st62 {
        fill: #de9f82;
      }

      .st63 {
        fill: #332721;
      }

      .st64 {
        fill: #e8ccbc;
      }

      .st65 {
        fill: #a37b6a;
      }
    </style>
  </defs>
  <g id="background" inkscape:groupmode="layer" inkscape:label="Background">
    <path class="st22" d="M0,0h922v1036q-8.8-6.6-11.9-9.6c-6.3-5.7-13.2-10.7-20-15.9-1.8-1.4-3.7-2.8-5.5-4.2-7.7-6-15.5-11.5-23.6-17-1.9-1.3-3.9-2.6-5.8-4-3.7-2.5-7.4-5-11.2-7.4-.6-.4-1.1-.7-1.7-1.1-35.9-23-83.3-33.3-123.4-46.6-.8-.3-1.7-.6-2.5-.8-1.5-.5-3.1-1-4.6-1.5-6.7-2.2-10.9-3.6-15.6-9.1-.4-.5-.9-1-1.3-1.5-1.3-1.5-2.5-2.9-3.8-4.4-1.1-1.3-2.3-2.6-3.4-3.9-.5-.6-1.1-1.3-1.7-1.9-2.9-3.3-5.9-6.5-8.9-9.7-2.6-2.8-5.2-5.7-7.7-8.6-4.4-5.1-9.2-9.9-14.1-14.4q-1.2-1.4-1.2-3.4c-.6-.3-1.2-.5-1.8-.8-2.4-1.3-3.6-2.6-5.3-4.7-2.9-3.5-6-6.5-9.3-9.5q-5.2-5.2-5.2-9.1c.2-1.3.5-2.6.7-3.9.2-1.4.3-2.8.4-4.2,0-.7.2-1.5.3-2.2.4-3.9.7-7.8.9-11.7.8-5.9,3.7-9.8,7.1-14.4q1.2-2.4,1.1-5c.2-4.7,2-8.1,4-12.3.8-1.8,1.7-3.6,2.5-5.4.4-.9.9-1.9,1.3-2.8,2.2-4.8,4.2-9.7,6.2-14.7.4-1,.8-2,1.2-3,1.3-3.1,2.5-6.2,3.8-9.3.4-1.1.9-2.2,1.3-3.3,6.4-15.8,12.8-31.6,18.7-47.6.3-.9.7-1.8,1-2.7,4.3-11.6,7.8-23.1,10-35.3q0-.5.5-2.8c3.8-21.9,4.1-43.5,4.1-65.6,0-7.4,0-14.7,0-22.1,0-2.5,0-5,0-7.6,0-9.6.9-18.6,2.7-28,.8-4.5,1.4-8.9,1.9-13.4,0-.8.2-1.6.3-2.4.3-2.5.5-5,.8-7.4,0-.9.2-1.7.3-2.6,2.8-28.7,1.9-55.6-4.9-83.7-.5-2.1-.9-4.2-1.4-6.3-1.3-6-2.7-9.8-7.2-14.1l-2-1c-1-12.6-1.7-22.4,6.7-32.3,2.3-2.7,3.8-5.4,5.3-8.7q-.3,0-1.9.3c-.8.1-1.6.2-2.4.3q-.4,0-2.4.4t-5.3-2c1.4-3.3,2.9-5,5.8-7.1,5.2-4.4,8.2-9.8,11.2-15.9-1,.3-2,.7-3,1q-7.1.6-11-2c-.7-.7-1.3-1.3-2-2,1.5-3.3,3.4-6.2,5.6-9.1q3.3-4.7,4.4-6.9-.3.2-2.1,1c-3.6,1.2-6.1,1.5-9.9,1-9.1-5.7-10.9-15.5-13.1-25.4-.2-.8-.3-1.5-.5-2.3-.5-2.3-1.1-4.6-1.6-6.9-2.4-10.2-3.9-19.4-3.3-29.9.6-13.5-2.2-22.8-10.4-33.6-1.4-1.5-2.7-3-4.1-4.4-4.2-4.9-3.1-10.6-2.9-16.6.2-6.7-.8-10.6-5-15.9q-9-12.5-9-21c4.4.5,6.7,2.1,10,5-1.7-7.1-4.4-11-9.5-16.2-2.3-2.6-4.2-5.1-6.1-8-4.7-7.1-9.6-11.8-16.6-16.6-4.4-3.3-7-6.3-8.1-11.7-1.4-4.4-3-6.2-7-8.3-10.4-4.5-20.3-8.1-31.8-8.2-.1-.9-.3-1.8-.4-2.7-2.2-11.9-6-18.8-15.6-26.3q.2.2,1.1,1.4c3.4,5,5.4,9.4,4.9,15.6q-1.4,3.1-3,5-5-5-7.2-7.6c-5-4.4-10.3-6.3-16.8-7.1-6.7-1.1-9.2-6.2-12.9-11.4-5.3-5.5-11.9-7.5-19-10-.3.3-.7.7-1,1,.4.5.7,1.1,1.1,1.6.5.7.9,1.4,1.4,2.2.5.7,1,1.4,1.4,2.1q1,2,0,5c-.6,0-1.2.2-1.9.3-2.8.4-5.6.8-8.4,1.2q-.5,0-3,.4c-.9.1-1.9.3-2.8.4-.9.1-1.7.2-2.6.4q-2.3.4-5.3,1.4c-5.2.6-9.3,0-14.1-2-4.4-1.9-8.2-3.4-12.9-2-2.6,1.7-5.1,3.5-7.6,5.4q-2.4,1.6-6,2.5c-3.6-.9-4.7-1.9-7.3-4.4-2.9-2.7-3.9-3.5-7.9-4.4-7.4.7-13.9,6.6-19.2,11.3q-2.9,2.6-4.9,2.6c-.6-.8-1.3-1.5-2-2.3-3.7-3.9-8.6-4.4-13.7-5.4-.9-.2-1.9-.4-2.9-.6-6.1-1.3-12.2-2.1-18.5-2.6,1.1-3.3,1.7-3.8,4.6-5.7.6-.4,1.3-.9,1.9-1.3.5-.3,1-.7,1.5-1-8.2,3.8-15.9,8.1-22.5,14.4-6.2,5.8-10.5,7.4-18.7,8-7.6.6-11.9,3.4-16.9,9.1-1.7,2.2-3.3,4.3-4.9,6.6l-4-1c-.6-4.6-1-8.4,1.6-12.4,1.7-2,3.5-3.8,5.4-5.6q-14.6,6.4-18,13c-1.3,3.5-2.4,7.1-3.5,10.6-2.2,6.6-5.7,11.3-11.5,15.4h-2c-.2.6-.3,1.2-.5,1.8-.2.8-.5,1.6-.7,2.4-.2.8-.5,1.6-.7,2.4-1.9,4.5-3.8,6.9-8.4,8.8-1.3.4-2.6.7-3.9,1.1-1.4.4-2.9.8-4.3,1.2-.7.2-1.5.4-2.2.6-3.7,1.1-7.2,2.4-10.8,3.7q-.3.1-1.9.7c-4.5,1.7-8.4,3.8-12.5,6.2.6-.2,1.2-.3,1.9-.5,4.4-.7,8.7-.6,13.1-.5-2.5,2.5-5,3.3-8.3,4.6-11.4,4.7-21.3,10.7-26.6,22.2-1.9,3.9-4.2,7.4-6.8,11-2.7,4.2-3.5,7.8-3.9,12.8-.6,8.4-2.5,13.2-8.5,19.3-1.3,2.6-1.3,4.9-1.6,7.8-1.3,9.1-5.5,16.3-10.1,24.1-1.7,4-1.8,7.5-2.1,11.8-.6,8.4-2.7,15.6-5.9,23.4-3.2,8-3.3,14.4-.4,22.6,2.4,7,3.1,13.2,3.3,20.6.3,11.8,1,22.8,6.1,33.6,3.7,7.9,4.1,14.9,4.2,23.6,0,1.1,0,2.3,0,3.5,0,7.8-1,11.5-6.5,17-1.7,1.4-3.4,2.7-5.1,4.1h12q-1.2,5-4,7-2.7.7-5.7,1.2-.5,0-3,.5-.4,0-2.3.3c6,4.1,11.8,5.1,19,6-1.5,3.9-3.3,5.3-7,7q-3.3.5-6.8.7c-1.2,0-2.3.1-3.5.2-.9,0-1.8,0-2.7.1,3.3,2,6.6,4,10,6-.9,1.6-1.9,3.2-2.8,4.8-6.5,13.3-6.5,27.8-6.5,42.4,0,.7,0,1.3,0,2q0,14.3,2.3,20.8c.3.9.7,1.8,1,2.7,2.9,7.4,6.6,14,10.8,20.7,5.4,8.8,10.6,17.8,15.5,26.9,7.3,13.4,14.5,26.3,24.4,38,6.3,7.6,12,15.5,17.1,24,3.1,5,6.7,8.4,12.2,10.7q2.4.2,4.8.1c.8,0,1.6,0,2.4,0,.6,0,1.2,0,1.8,0,2.1,14.1,3.3,28,4,42.2.6,13.2,1.4,26.3,2.6,39.5,0,.8.1,1.5.2,2.3.7,8,1.4,16,2.2,24-7.5,3.3-15.1,5.4-23,7.4-8.2,2.1-16.3,4.2-24.4,6.8q-.4.1-2.2.7c-9.3,3.1-12.6,10.4-17,18.5-.6,1.1-1.2,2.2-1.9,3.4-1.9,3.4-3.8,6.9-5.6,10.3-1.1,1.9-2.1,3.9-3.2,5.8-6.6,12.1-13,24.2-19.5,36.3-.4.7-.8,1.5-1.2,2.3-1.1,2.1-2.3,4.3-3.4,6.4-.3.6-.7,1.3-1,1.9-.9,1.7-1.8,3.5-2.8,5.3-.6,1-1.1,2-1.7,3.1-4,9.2-.6,20.4,1.7,29.6.6,2.3,1.1,4.6,1.7,6.9q.1.5.8,3,.6,2.4.6,4.4-1.8,1.7-4.5,3.8-.5.4-3,2.4c-.6.4-1.1.9-1.7,1.3-1.9,1.5-3.7,3-5.6,4.5-6.4,5.2-12.9,10.4-19.4,15.5-4.6,3.5-9,7.2-13.4,10.9-4.6,4-9.4,7.8-14.3,11.5-5.5,4.2-10.8,8.6-16.1,13-4.1,3.4-8.3,6.8-12.6,10.1-3.4,2.7-6.8,5.4-10.1,8.1-5.1,4.1-10.2,8.2-15.3,12.2-6.5,5.1-12.9,10.3-19.3,15.5-3.8,3.1-7.6,6.1-11.4,9.2-1.6,1.3-3.2,2.6-4.8,3.9-.9.7-1.7,1.4-2.6,2.1-.7.6-1.5,1.2-2.3,1.8-3.5,2.7-7.1,5.4-10.6,8.1V0Z"/>
  </g>
  <g id="subject" inkscape:groupmode="layer" inkscape:label="Subject">
    <g id="face-base">
      <path class="st41" d="M697.2,427.1c-1.3-6-2.7-9.8-7.2-14.1-.7-.3-1.3-.7-2-1-1-12.6-1.7-22.4,6.7-32.3,2.3-2.7,3.8-5.4,5.3-8.7q-.3,0-1.9.3c-.8.1-1.6.2-2.4.3q-.4,0-2.4.4t-5.3-2c1.4-3.3,2.9-5,5.8-7.1,5.2-4.4,8.2-9.8,11.2-15.9-1,.3-2,.7-3,1q-7.1.6-11-2l-2-2c1.5-3.3,3.4-6.2,5.6-9.1q3.3-4.7,4.4-6.9-.3.2-2.1,1c-3.6,1.2-6.1,1.5-9.9,1-9.1-5.7-10.9-15.5-13.1-25.3-.2-.8-.3-1.5-.5-2.3-.5-2.3-1.1-4.6-1.6-6.9-2.4-10.2-3.9-19.4-3.3-29.9.6-13.5-2.2-22.8-10.4-33.6-1.4-1.5-2.7-3-4.1-4.4-4.2-4.9-3.1-10.6-2.9-16.6.2-6.7-.8-10.6-5-15.9q-9-12.5-9-21c4.4.5,6.7,2.1,10,5-1.7-7.1-4.4-11-9.5-16.2-2.3-2.6-4.2-5.1-6.1-8-4.7-7.1-9.6-11.8-16.6-16.6-4.4-3.3-7-6.3-8.1-11.7-1.4-4.4-3-6.2-7-8.3-10.4-4.5-20.3-8.1-31.8-8.2-.1-.9-.3-1.8-.4-2.7-2.2-11.9-6-18.8-15.6-26.3q.2.2,1.1,1.4c3.4,5,5.4,9.4,4.9,15.6q-1.4,3.1-3,5-5-5-7.2-7.6c-5-4.4-10.3-6.3-16.8-7.1-6.7-1.1-9.2-6.2-12.9-11.4-5.3-5.5-11.9-7.5-19-10-.3.3-.7.7-1,1,.4.5.7,1.1,1.1,1.6.5.7.9,1.4,1.4,2.2.5.7,1,1.4,1.4,2.1q1,2,0,5c-.6,0-1.2.2-1.9.3-2.8.4-5.6.8-8.4,1.2q-.5,0-3,.4c-.9.1-1.9.3-2.8.4-.9.1-1.7.2-2.6.4q-2.3.4-5.3,1.4c-5.2.6-9.3,0-14.1-2-4.4-1.9-8.2-3.4-12.9-2-2.6,1.7-5.1,3.5-7.6,5.4q-2.4,1.6-6,2.5c-3.6-.9-4.7-1.9-7.3-4.4-2.9-2.7-3.9-3.5-7.9-4.4-7.2.7-13.6,6.4-18.9,11l-.4.3q-2.9,2.6-4.9,2.6c-.6-.8-1.3-1.5-2-2.3l-5.7-3.6c-2.5-.9-5.2-1.3-8-1.9-.9-.2-1.9-.4-2.9-.6-6.1-1.3-12.2-2.1-18.5-2.6,1.1-3.3,1.7-3.8,4.6-5.7.6-.4,1.3-.9,1.9-1.3.5-.3,1-.7,1.5-1-8.2,3.8-15.9,8.1-22.5,14.4-6.2,5.8-10.5,7.4-18.7,8-7.6.6-11.9,3.4-16.9,9.1-1.7,2.2-3.3,4.3-4.9,6.6-1.3-.3-2.6-.7-4-1-.6-4.6-1-8.4,1.6-12.4,1.7-2,3.5-3.8,5.4-5.6q-14.6,6.4-18,13c-1.3,3.5-2.4,7.1-3.5,10.6-2.2,6.6-5.7,11.3-11.5,15.4h-2c-.2.6-.3,1.2-.5,1.8-.2.8-.5,1.6-.7,2.4-.2.8-.5,1.6-.7,2.4-1.9,4.5-3.8,6.9-8.4,8.8-1.3.4-2.6.7-3.9,1.1-1.4.4-2.9.8-4.3,1.2-.7.2-1.5.4-2.2.6-3.7,1.1-7.2,2.4-10.8,3.7q-.3.1-1.9.7c-4.5,1.7-8.4,3.8-12.5,6.2.6-.2,1.2-.3,1.9-.5,4.4-.7,8.7-.6,13.1-.5-2.5,2.5-5,3.3-8.3,4.6-11.3,4.7-21.3,10.7-26.6,22.2-1.9,3.9-4.2,7.4-6.8,11-2.7,4.2-3.5,7.8-3.9,12.8-.6,8.4-2.5,13.2-8.5,19.3-1.3,2.6-1.3,4.9-1.6,7.8-1.3,9.1-5.5,16.3-10.1,24.1-1.7,4-1.8,7.5-2.1,11.8-.6,8.4-2.7,15.6-5.9,23.4-3.2,8-3.3,14.4-.5,22.6,2.4,7,3.1,13.2,3.3,20.6.3,11.8,1,22.8,6.1,33.6,3.7,7.9,4.1,14.9,4.2,23.6,0,1.1,0,2.3,0,3.5,0,7.8-1,11.5-6.5,17-1.7,1.4-3.4,2.7-5.1,4.1h12q-1.2,5-4,7-2.7.7-5.7,1.2-.5,0-3,.5-.4,0-2.3.3c6,4.1,11.8,5.1,19,6-1.2,3.1-2.6,4.6-5,6-1.7,0-3.5.1-5.2.2-1.3,0-2.6.2-3.9.3-2.3.2-4.6.3-6.9.5v1c.6.5,1.2,1,1.8,1.4q2,1.4,2.4,1.7c.8.6,1.6,1.1,2.4,1.7,1.7.8,2.8,1,4.1,1,.1,0,.3.2.4.2-.9,1.6-1.9,3.2-2.8,4.8-6.5,13.3-6.5,27.8-6.5,42.4,0,.7,0,1.3,0,2q0,14.3,2.3,20.8c.3.9.7,1.8,1,2.7,2.9,7.4,6.6,14,10.8,20.7,5.4,8.8,10.6,17.8,15.5,26.9,7.3,13.4,14.5,26.3,24.4,38,6.3,7.6,12,15.5,17.1,24,3.1,5,6.7,8.4,12.2,10.7l15.6,81.8c0,.8.1,1.5.2,2.3l3,28.6c4.9,22.3,10.1,44.4,20.3,64.9.3.7.7,1.4,1,2.1,10.8,21.9,26.1,39.9,46.7,53,2.1,1.3,4.1,2.6,6.2,4,1,.7,2,1.3,3.1,2,3.6,2.3,7.2,4.7,10.8,7,23.9,15.6,48,30.6,73.2,43.9,1,.5,2,1.1,3,1.6,16.4,8.7,33.1,17,49.8,25.1,1,.5,2,1,3,1.4,20.8,10.2,41.7,20.2,62.7,30,7.8,3.6,15.5,7.3,23.2,11.1l15.2,8.2c.7-.2,1.3-.4,2-.5,3-.8,6-1.7,9-2.6,1-.3,2-.6,3.1-.9,7.7-2.3,15-5,19.9-11.6.3-.8.7-1.6,1-2.4.4-.8.7-1.6,1.1-2.4,2.2-5.7,3.4-10.9,4.1-16.9,0-.7.2-1.5.3-2.2.2-1.8.4-3.6.6-5.4h.8c-.6-18.6-.6-19-1.9-26.1-2.7-16.6-.9-34,0-50.8l2.8-35.1c.1-1,.2-2.1.3-3.1.7.3,1.4.6,2,1-.7-1.1-.7-2.1-.7-4.1.2-1.3.5-2.6.7-3.9.2-1.4.3-2.8.4-4.2,0-.7.2-1.5.3-2.2.4-3.9.7-7.8.9-11.7.8-5.9,3.7-9.8,7.1-14.4q1.2-2.4,1.1-5c.2-4.7,2-8.1,4-12.3.8-1.8,1.7-3.6,2.5-5.4.4-.9.9-1.9,1.3-2.8,2.2-4.8,4.2-9.7,6.2-14.7.4-1,.8-2,1.2-3,1.3-3.1,2.5-6.2,3.8-9.3.4-1.1.9-2.2,1.3-3.3l19.7-50.3c4.3-11.6,7.8-23.1,10-35.3q0-.5.5-2.8c3.8-21.9,4.1-43.5,4.1-65.6,0-7.4,0-14.7,0-22.1,0-2.5,0-5,0-7.6,0-9.6.9-18.6,2.7-28,.8-4.5,1.4-8.9,1.9-13.4,0-.8.2-1.6.3-2.4.3-2.5.5-5,.8-7.4,0-.9.2-1.7.3-2.6,2.8-28.7,1.9-55.6-4.9-83.7-.5-2.1-.9-4.2-1.4-6.3Z"/>
    </g>
    <g id="face-details" inkscape:label="Head and face">
      <g id="face_shadows" inkscape:label="Face shadows and highlights">
        <path class="st11" d="M548,177v1c-2,.3-4,.7-6,1,.6.9,1.2,1.7,1.8,2.6,15.2,22.5,29.4,45.5,40.9,70.2.5,1,1,2.1,1.5,3.2,3.1,6.9,5.2,13.6,6.8,21,.2,1,.4,2.1.7,3.1,1.6,7.6,3,15.2,4.3,22.9q0,.4.4,2.4c3.7,22.7-8.8,47.6-16.6,68.4-.3.9-.7,1.8-1,2.7-.6,1.6-1.2,3.3-1.8,4.9-2.3,6.2-3.2,12.2-1,18.6q-1,2-4.4,3.8c-3.4,1.8-5,3.7-6.6,7.2-3.5-1.4-5-3-7-6.2-.5-.8-1-1.6-1.5-2.4q-.2-.4-1.5-2.4c-.4-.7-.8-1.4-1.3-2.1q-2.7-4.6-2.7-6.9h-2c.9,4.1,1.8,8.2,2.8,12.3.3,1.4.6,2.8.9,4.2q2.9,13,5.5,19c2,4.6,2.4,8.7,2.4,13.7,0,6.3.9,11,3.4,16.9.3-1,.6-2.1.9-3.1,2.1-5,6.3-7.5,11.1-9.9q2.8-.7,5-1c-2,2.6-4,5.3-6,8,4,0,5.1-1.5,8.1-4q4.7-4,6.9-4c.3,2,.7,4,1,6q39.1.9,51-5c5.3-.6,7.8.8,12,4,.8.6,1.6,1.2,2.4,1.8.5.4,1.1.8,1.6,1.2,3.2-1.4,4-2,6-5-.3,7.5-1.7,14.5-3.5,21.8-1.2,4.7-1.9,9.3-2.5,14.2l-1-2c-.9,0-1.9,0-2.8,0q-43.5.6-63.7-8.2c-2.5-.9-4.2-1.1-6.8-1q-.6,0-3.7.1v2c-2-.7-4-1.3-6-2q11.3,21.1,17.2,30.5c.4.6.8,1.3,1.2,1.9,2,3.2,4.1,6.4,6.3,9.5.4.6.9,1.3,1.3,1.9.8,1.2,1.6,2.4,2.5,3.6q1.1,1.6,2.5,4.5-.8,2.4-2,4c-.6-.7-1.2-1.3-1.8-2-2.6-2.6-5.4-4.5-8.4-6.5-16.4-11.8-24.2-35.2-31.7-53.3-1.1-2.7-2.3-5.5-3.4-8.2-.7-1.7-1.4-3.4-2.1-5.1q-2.4-5.7-3.5-7.9c.4,9.1,3.5,17.3,6.5,25.9.3.8.5,1.6.8,2.4,5.6,16.2,12.3,31.1,21.3,45.8,3.6,6.1,5.7,12.1,7.4,19,.2.7.4,1.4.6,2.1,1.9,6.5,2,13.2,2.4,19.9-2.1,1.2-4.2,2.4-6.4,3.6-1.7.9-3.3,1.9-5,2.9-6.9,3.9-12.8,5.1-20.6,3.6q-24.3-8.1-28.8-16.2c-.5-1.3-.9-2.5-1.2-3.8-.2-.7-.4-1.4-.6-2.1-1.9-7.4-1.8-14.7-.9-22.3,1.9-16.4-.6-31.5-3.9-47.6-.7-3.3-1.2-6.7-1.7-10-2.4-15.4-7.5-29.5-14.9-43.2-.9-1.8-1.7-3.7-2.4-5.6q-3.4-8.2-7.4-10.3c-4.3-1.7-8.7-2.7-13.2-3.6-3.7-.8-7.2-2.2-10.8-3.5-5.7-1.6-11.7-1.3-17.7-1.3-1.3,0-2.6,0-3.9,0-2.7,0-5.5,0-8.2,0-3.5,0-7,0-10.5,0-3.4,0-6.7,0-10.1,0-1.2,0-2.5,0-3.8,0-10.1,0-17.7,2.4-26.5,7-.7.3-1.4.7-2.1,1-9.9,5.1-19.4,10.7-27.9,18-4.2,3.5-7,4.4-12.5,4.4.3-7.2,1.8-12.9,5-19.3.4-.8.8-1.7,1.2-2.5,8.4-16.7,21-30.2,33.7-43.8q13.2-14.1,13.5-23.6c-.7-18.8-5.7-36.9-10.9-54.9-9.8-33.8,5.9-68,21.5-97.9,1-1.7,2-3.4,3-5,.6,0,1.1.2,1.7.3,2.6.4,5.2.8,7.8,1.2.9.1,1.7.3,2.6.4,13.8,2.1,27.4,1,41.1-.4,2.6-.3,5.2-.5,7.8-.8,2.8-.3,5.5-.6,8.3-.8,9.8-1,19.5-1.9,29.3-2.9,2.8-.3,5.6-.5,8.4-.8,1.7-.2,3.4-.3,5.2-.5.8,0,1.5-.1,2.3-.2,4.8-.4,9.6-.6,14.4-.5ZM522,356c0,1.1,0,2.1,0,3.2q-.5,36.7-3.3,50.5c-.5,2.9-.8,5.4-.6,8.3,8.2-8.8,9.4-20,9.3-31.5-.4-10.3-2.5-20.4-4.3-30.5h-1Z"/>
        <path class="st41" d="M562.7,175.7c4.2.4,6.6,2.2,9.8,4.9.6.5,1.2,1,1.8,1.5,7.6,6.3,14.7,13.1,21.8,20,.6.6,1.2,1.1,1.8,1.7,42.5,40.6,57.5,94.1,69.5,149.9.7,3.5,1.5,6.9,2.2,10.4,10.6,48.7,18.8,97.8,24.1,147.4.3,2.9.6,5.8,1,8.7,1.6,15.5.2,26.5-9.7,39.1-4,4-7.2,5.2-12.8,5.3-.7,0-1.5,0-2.2,0-.8,0-1.5,0-2.3,0-15.1-.5-25.3-10.3-36.1-19.8-5.1-4.4-10.5-8.2-16.2-11.9-8.3-6.2-13.2-16.2-18.4-24.9-.7-1.2-1.5-2.5-2.2-3.7-4.6-7.7-9.2-15.4-13.6-23.2-.5-.9-1-1.8-1.5-2.7-.5-.8-.9-1.6-1.4-2.4-.4-.7-.8-1.4-1.2-2.1q-.8-1.7-.8-3.7c6.4,1.9,12.2,4.4,18.1,7.4,15.2,7.4,27,11,43.9,7.8q.5,0,2.9-.5c4-.8,8-1.5,12-2.7q3.1-.9,7.1-.9c0-1.2,0-2.3-.1-3.5,0-4.2.8-8.1,1.9-12.2.4-1.5.7-3,1.1-4.5.2-.8.4-1.6.6-2.4,1-4.3,1.9-8.6,2.8-12.9.2-.8.3-1.6.5-2.4,2.7-13.5,2.9-27,1.6-40.7,0-.8-.1-1.5-.2-2.3-.5-4.8-1.5-7.6-5.1-11.1-2.1-1.7-4.3-3.2-6.5-4.7-.6-.4-1.1-.8-1.7-1.2-1.6-1.1-3.2-2.1-4.8-3.1-.6-.4-1.3-.8-1.9-1.3-5.7-2-12.3-.6-18.2.5-.8.1-1.5.3-2.3.4q-41.7,7.4-46.6,13.4c-1,1.6-2,3.3-3,5-2.4-2.4-2.3-2.9-2.3-6.1.1-4.8,1.3-8.7,3-13.2.6-1.7,1.3-3.5,1.9-5.2.4-1,.7-2,1.1-3,2.3-6.5,4.5-13,6.7-19.5.8-2.3,1.6-4.7,2.4-7,1.4-4.3,2.8-8.6,4.2-12.9.3-1.1.7-2.3,1.1-3.4,3.6-13.1,1.1-26.5-1.4-39.6-.4-2-.7-4-1.1-6-1.7-9.5-4.7-18.1-8.6-26.9-.4-1-.8-1.9-1.3-2.9-10.2-22.8-23.3-44-37.2-64.7-.4-.6-.8-1.1-1.1-1.7-1-1.5-2-3-3-4.5q-1.4-2.1-1.4-3.1c2.9-.3,5.7-.7,8.6-1,.8,0,1.6-.2,2.4-.3,3.6-.4,7.1-.7,10.7-1.1Z"/>
        <path class="st56" d="M469,567c3.1,1.5,5.8,3.2,8.6,5.3,9.2,6.5,17.8,9.8,29.1,9.9,1.5,0,3,0,4.5,0,2.3,0,4.7,0,7,.1,2.3,0,4.5,0,6.8.1.7,0,1.4,0,2.1,0,5.3.1,9.2,1.5,14,3.5-.5,5.5-1.4,9.1-4,14-1.1,3-2,6-3,9-.5,1.5-1,3-1.6,4.6-1.4,4.1-2.4,8.2-3.4,12.4q.7.2,4,1-.5,0-3,.3c-28.6,3-53.8,11.9-80,23.7,3.4,7.6,10.7,12.6,17.4,17.4.8.6,1.6,1.1,2.4,1.7,11.6,8.1,23.5,14.5,37.3,17.9.6.2,1.2.3,1.9.5,12.9,2.9,27.4.2,40.1-2.5,4.1-.9,8.2-1.8,12.2-2.6,1-.2,2.1-.4,3.1-.7,7.2-1.5,14.2-2.5,21.6-2.7,2.5,7.2,4.4,14.4,5.8,21.9q0,.4.4,2.1c.7,4.4,1,8.6.9,13-1,0-1.9,0-2.9,0-10.3.3-20.4,1.6-30.6,3.3-1.3.2-2.6.4-3.9.6q-17.2,2.9-23.6,8.8c-3.7,6-6,12.2-5.1,19.3,2.6,9.6,11.9,15.4,20.1,20.2,13.5,6.9,28.3,10.4,42.9,14.1,1.3.3,2.5.6,3.8,1,1.1.3,2.3.6,3.4.9q2.7.9,4.7,2.9c-8-.4-15.9-.7-23.9-2.1-13-1.9-25.2-1.3-38.1,1.1-9.3,1.7-18.4,2.4-27.9,2.5-1.1,0-2.3,0-3.5,0-11.5,0-20.2-3.5-29.3-10.4q-.4-.3-2.3-1.7c-10.4-7.8-19.9-16.8-28.4-26.7-2.6-3-5.4-6-8.1-9q-1.5-1.9-1.5-3.9c.6,0,1.2,0,1.8.1,5.2.2,8.8,0,13.2-3.1,7.6-22.8-2.7-57.9-9-80q-2.6-.3-16-2c-.3,1-.7,2-1,3-2.3-20-2.8-38.2,10-55,3.7-4.6,7.6-9,11.6-13.4,1.7-1.9,3.4-3.9,5.1-5.9,4.5-5.2,9.5-9.9,14.4-14.8Z"/>
        <path class="st62" d="M461,459c.3,1,.7,2,1,3q.3,0,1.8,0c2.7,0,5.4,0,8.2,0q.5,0,2.8,0c5.4,0,10.2.4,15.4,2q1.9.2,4.9-2.2.3-.4,1.9-2.6c.4,9.3-.7,17.9-2.3,27-.4,2.3-.8,4.5-1.2,6.8q-6.4,37.3-21.5,49.1-3,2.1-6,3.1v2q-1.4,1.4-3.4,3.1c-3.2,2.7-6.3,5.5-9.4,8.3-4.3,3.9-8.8,7.6-13.3,11.3-2,1.6-4,3.3-6,5-15.6,13.3-28,13.5-48.2,12.2-3-.3-5.9-.7-8.8-1.2-3.2-.5-6.4-.9-9.6-1.3-1-.1-2-.2-3-.4-2-.2-4-.5-6-.7-.9-.1-1.8-.2-2.7-.3-.8,0-1.6-.2-2.5-.3-3.2-.9-4.5-2.6-6.3-5.3-.4-.6-.7-1.3-1.1-1.9-.4-.7-.8-1.4-1.2-2.2-.4-.8-.8-1.5-1.3-2.3-.4-.8-.9-1.6-1.3-2.4q-17.3-31.7-16.8-38.9c4.6-13.6,17.1-22.9,27.8-31.5.9-.7,1.8-1.5,2.7-2.2q9.3-7.6,14.3-9.8c3.1.9,5.8,2.4,8.6,3.9.7.3,1.3.7,2,1,1.3.7,2.6,1.4,4,2.2,9.9,5.2,20.9,5.3,31.9,5.2q.6,0,3.4,0c20.1,0,33.4-8.2,49.2-19.4-2.7,0-4.8.8-7.4,1.6q-50.1,15.7-68.7,6.5c-4.3-2.7-6.8-5.2-8.2-10-.2-1.1-.5-2.1-.7-3.2.5-.3,1.1-.7,1.6-1q.4-.2,2.1-1.3c.7-.4,1.4-.9,2.1-1.3q2.1-1.4,3.7-3c3.9-2.3,7.8-1.8,12.3-1.7.9,0,1.9,0,2.9,0,3,0,6.1,0,9.1,0,2.1,0,4.1,0,6.2,0,5,0,10.1,0,15.1.1.3-.7.7-1.3,1-2q1.9-.3,4.4-.5c5.6-.4,11.1-1.4,16.6-2.5v-2Z"/>
        <path class="st16" d="M687,399h1v13c1.3.7,2.6,1.3,4,2,5.8,6.2,6.7,13.3,8.2,21.4.5,2.6,1,5.1,1.5,7.7q.1.6.7,3.7c.5,2.5,1.1,5,1.8,7.4,4.9,20.9,2.2,44.4,0,65.5q0,.4-.3,2.5c-.2,2.4-.5,4.9-.8,7.3,0,.7-.1,1.4-.2,2.1-.5,4.5-1.2,9-2.1,13.4-1.9,10.7-2.3,21-2.4,31.8,0,1.8,0,3.7,0,5.5,0,4.8,0,9.5-.1,14.3,0,4.9,0,9.8-.1,14.7,0,9.5-.2,19.1-.2,28.6h-1q-.2-9.2-1-56c-2.6,8.2-5.3,16.5-8,25q-3.4,10.2-5,15.1c-6.6,19.9-12.6,39.9-18.4,60-.6,1.9-1.1,3.9-1.7,5.8-.3.9-.5,1.8-.8,2.8-1.7,5.7-3.4,11.4-5.4,17-1.2,4.1-1.5,8.2-1.7,12.4h-1c0-.8,0-1.6,0-2.4-.4-9.8-2.4-19.3-8-27.6-.7-.3-1.3-.5-2-.8q-2-1.2-2.9-3.7c-.2-1.1-.4-2.1-.6-3.2-1-4.8-2.1-9.4-3.5-14.1-1.8-6-3-11.9-4-18q-.9-5-2-7.2c-2-7.7-.3-13.6,2.5-20.7,3.9-10.3,5-21.4,6.5-32.3,5,6.3,5.5,13.6,6.6,21.3q0,.4.4,2.7c.9,6,1.1,11.9,1,18,2.7-2.4,3-2.8,3.4-6.6,0-1.5,0-3,0-4.5q0-.4,0-2.4c-.5-16.3-5.9-28.7-14.4-42.4q-.3-.5-1.9-3.1c-1.2-2-2.5-4-3.7-5.9-4.1-6.7-7.9-13.7-11.7-20.6-.6-1.1-1.2-2.1-1.8-3.2q-.3-.5-1.6-2.9t-2.3-3.2c-.3,2-.7,4-1,6h-1c0-.6,0-1.3,0-1.9-.3-5.9-1.4-9.6-5-14.3q-1-1.8-.6-4,.1-.3.6-1.8.2.2,1.1,1.4c4,5,8.3,8.4,13.7,11.9,4.4,2.9,8.4,6.2,12.4,9.7,11.4,9.9,20.1,17,35.6,17.4.7,0,1.4,0,2.2,0,5.1,0,8.1-1.1,12.1-4.5,2.7-3.4,4.9-7.2,7-11,.4-.6.7-1.3,1.1-1.9,5.1-10.7,1.6-26.6,0-37.8-.4-2.9-.7-5.8-1.1-8.6,0-.7-.2-1.4-.3-2.2-1.1-8.5-2-17-2.9-25.5-.1-1.1-.2-2.1-.3-3.2q0-.5-.3-2.8c-.2-2-.5-3.9-.9-5.9-.7-5.7-.5-11.4-.3-17.1q0-.6,0-3.8c0-3.3.1-6.6.2-9.9,0-3.4.1-6.8.2-10.2.1-6.6.3-13.3.4-19.9Z"/>
        <path class="st13" d="M644,691q3,1,4.1,2.8c.3.8.6,1.5.9,2.3.3.7.6,1.5.9,2.2.3.9.7,1.8,1.1,2.7q.1.3.8,1.8c2.1,5,2.7,9.3,2.7,14.7,0,.8,0,1.6,0,2.4-.2,8.1-2,15.5-4.4,23.1-.3.8-.5,1.6-.8,2.5q-9.8,30.4-22.4,37.3c-12.3,5.7-21.7,6-34.8,2.2-1.2-.3-2.3-.6-3.6-1-3.5-1-7-2-10.5-3-1-.3-2-.6-3-.9-2.7-.8-5.4-1.5-8.1-2.3-.8-.2-1.5-.4-2.3-.7-13.3-4-30-11.4-37-24.1-2.7-6.1-1.8-11.7.5-17.8,3.1-6.7,7.3-9.7,14-12.3,5.7-1.8,11.5-2.8,17.4-3.7.7-.1,1.3-.2,2-.3,23.4-3.7,40.7-1.9,61.8,9,3.1,1.2,5.5,1.3,8.8,1.1.9-3.2,1.8-6.4,2.8-9.6.3-.9.5-1.9.8-2.9,1.3-4.4,2.5-8.8,3.6-13.2.2-.7.4-1.4.5-2.1.5-1.8.9-3.7,1.4-5.5q.9-2.7,2.9-4.7Z"/>
        <path class="st14" d="M696,579h1c0,8.4.2,16.8.2,25.1,0,3.9,0,7.8,0,11.7.3,24.7-.2,49.5-8.3,73.2-.5,1.6-1,3.1-1.4,4.7-5.9,19-13.7,37.3-21.3,55.7-1.9,4.6-3.8,9.3-5.7,14q-16.3,40.1-23.6,52.6c-.5.9-1,1.9-1.5,2.8-4.2,3.7-9.5,4.1-14.9,5-1.1.2-2.2.4-3.4.7-5.2,1-10,1.6-15.2,1.5,3.1-3.2,6.4-6.2,9.8-9.1,5.4-4.8,9.8-10.1,14.2-15.9.7-.9,1.3-1.7,2-2.6,11.9-15.6,20.3-33.1,24-52.4-1,2.1-2,4.2-2.9,6.3-.5,1.2-1.1,2.3-1.7,3.6q-1.4,3.1-2.4,6.1h-2c.4-1.3.7-2.5,1.1-3.8.3-.9.5-1.8.8-2.8.8-2.5,1.6-5,2.5-7.6,2.8-8.2,4.9-16.1,5.9-24.7,1.4-11.8,5-22.7,8.7-33.9,1.6-5.1,3.2-10.1,4.7-15.2q.1-.4.7-2.4c.5-1.6,1-3.2,1.4-4.9,5.5-18.8,11.6-37.4,17.7-56,3.5-10.5,6.8-21,9.4-31.7Z"/>
        <path class="st8" d="M426,611l1,2c-.6,1.7-1.3,3.3-1.9,5-3.9,11.2-3.1,23.3.2,34.5.9,3.2,1.4,6.2,1.7,9.5h2v-9c5.3.3,10.6.7,16,1,7.7,20.9,11.3,44.7,11.4,66.9,0,1.1,0,2.1,0,3.2q-.1,8.3-2.4,11.9c-4.3,3.1-8.2,3.7-13.4,3.1-5.7-2.3-8.2-8.7-10.9-13.9-.7-1.2-1.4-2.4-2-3.6-6-10.5-10.7-21.3-13.4-33.1-.2-.8-.4-1.7-.6-2.6-4.8-20.5-6.6-46.3,4.8-64.7q4.6-7.2,7.6-10.2Z"/>
        <path class="st39" d="M581,469c7.2-.6,11.9,1,18.5,3.7,10.7,4,22.3,5.4,33.7,5.6q.4,0,2.3,0c2.3,0,4.7.1,7,.2,1.6,0,3.2,0,4.8.1,3.9.1,7.8.2,11.7.3v2q-34.4,9.5-49.4,4.1c-.9-.3-1.7-.6-2.6-.9-6.1-2.3-11.9-4.9-17.6-7.9-.7-.4-1.4-.8-2.2-1.1q-5-2.7-6.1-6.1Z"/>
        <path class="st17" d="M522,356h1q7.8,42.7-4,62h-1c.5-5.4,1.1-10.8,2-16.1,1.3-9.2,1.5-18.4,1.6-27.8,0-1.8,0-3.5.1-5.3,0-4.3.2-8.5.3-12.8Z"/>
        <path class="st0" d="M426,613l4,2q0,.3-.4,1.8c-1.4,6.2-1.9,12-1.8,18.3,0,.9,0,1.8,0,2.7,0,8.1.5,16.1,1.2,24.1h-2c-.7-2-1.3-4.1-1.9-6.1-.4-1.1-.7-2.3-1.1-3.4-3.7-13-3.4-27,2-39.4Z"/>
        <g id="face_base" inkscape:label="Face base">
          <path class="st1" d="M388,177c1.7,0,3.3-.1,5-.2,8.9-.1,17.4,2.2,26,4.2-.6,4.4-2.4,7.8-4.6,11.6-5,9.1-8.7,18.7-12.4,28.4-.5,1.2-.9,2.4-1.4,3.7-9.4,25-9.8,43.5-2.5,69q12.6,44.9,4.8,58.7c-3.6,4.9-8.1,9-12.5,13.2-3,2.9-5.7,6.1-8.4,9.3-.8,1-1.7,1.9-2.6,2.9-8.9,10.1-16,20.8-21.9,32.9-.3.7-.7,1.4-1,2.1-2.4,5.1-3.1,9.6-3.5,15.1h6c-1.3,6.9-2.6,13.9-4,21,8.8-4.3,17.4-8.6,25.7-13.8q2.3-1.2,4.3-1.2c.5,1,1,2.1,1.5,3.2.6,1.4,1.3,2.8,1.9,4.1.3.7.6,1.4,1,2.1,1.4,3,2.8,5.8,4.7,8.6,6.7.4,13.3-.3,20-1-3,2-5.6,3-9,4.2-10.7,4.1-19.3,10.5-28,17.8q9.7-3.6,13.4-6.3t5-1.4,1.6.8c-3.8,3.2-7.7,5.6-12,8,.8,4.3,1.6,7.9,5.1,10.7,15.8,8.8,38.7,4.5,55.3-.1,4.2-1.2,8.3-2.5,12.5-3.9,4.3-1.4,8.7-2.5,13.1-3.7v2q-1.9,1.4-4.6,3.1c-3.3,2-6.6,4.1-9.9,6.3-12.9,8.7-24.1,10.8-39.6,10.8-1.2,0-2.3,0-3.5,0-11.1,0-21-.8-30.8-6.2-2.5-1.3-5-2.7-7.6-4-.9-.5-1.8-.9-2.7-1.4q-2.3-.6-4.8.4c-7,4.8-13.6,10-19.9,15.6-1.6,1.4-3.2,2.8-4.8,4.1-6.9,5.9-13.8,12.6-16.8,21.3.4,6,2.8,11.7,5.3,17.1.3.7.7,1.5,1,2.3,3.7,8,8,15.6,12.5,23.2.5.9,1.1,1.9,1.7,2.8.5.8,1,1.7,1.5,2.5q1.1,2.1,1.1,4.1c.6,0,1.3.2,2,.2,1.9.2,3.9.5,5.8.7,2.2.3,4.4.5,6.6.8q9.5,1.2,13.6,1.9c8.1,1.3,16.2,1.6,24.4,1.7,1.1,0,2.2,0,3.4,0,8.2,0,14.8-.9,21.3-6.3.8-.6,1.5-1.2,2.3-1.9.9-.7,1.7-1.5,2.6-2.2.5-.4,1-.9,1.5-1.3,3.5-3,7.1-6,10.6-9.1,1.9-1.6,3.8-3.3,5.7-4.9.6-.5,1.2-1.1,1.9-1.6,1.2-1,2.4-2,3.6-3,2.6-2.2,5.1-4.5,7.5-6.9q2.2-2.2,4.2-2.2v-2c1.7-1.6,3.5-3.1,5.4-4.6,1-.8,2-1.6,3-2.4q2.6-2,4.6-3c-1.5,3.4-3.5,5.9-5.9,8.7-16.7,20.2-32.3,43.2-44,66.7q-1.2,1.6-3,2.4c-3.3,1.9-4.8,4.9-6.7,8.1-.4.6-.8,1.2-1.2,1.9-5.6,9.4-6.8,19-6.6,29.8,0,1.1,0,2.3,0,3.5.4,23,4.3,44,16.3,64,.7,1.3,1.5,2.6,2.2,3.9,6.2,10.6,12.7,20.5,21.6,29,2,2,3.8,4,5.6,6.1,6.8,7.9,14.6,13.9,23.1,19.9.8.6,1.6,1.1,2.4,1.7,9.6,6.5,17.5,8,29,7.9,1.2,0,2.4,0,3.7,0,9.4-.1,18.3-1.3,27.5-3,14.7-2.6,28.3-1.5,43.1.5,16.5,2.2,31.6,2.3,45.7-7.9,1-.7,2-1.3,3-2-1.5,4.1-3.5,7.4-6,11-.6.9-1.3,1.9-1.9,2.9-15.4,17.9-47.7,24.2-69.8,25.9-43.6,2.6-69.9-12.2-103.5-38.4-1.5-1.2-3.1-2.4-4.7-3.6-16.2-12.5-28.4-28.6-38.4-46.3q-2.5-4.4-4.7-5.5c1.3,2.4,2.7,4.9,4,7.3,1.4,2.6,2.9,5.3,4.3,7.9,5.4,9.9,11,19.7,16.8,29.5.3.6.7,1.2,1,1.7,3.4,5.7,6.8,11.3,10.2,17,.5.8,1,1.6,1.4,2.4.9,1.4,1.7,2.9,2.6,4.3.9,1.6,1.8,3.2,2.7,4.8-.3.7-.7,1.3-1,2-41.4-14.5-88.4-31.3-123-59q-.4-.3-2.3-1.8c-25.6-21.3-39.2-58.5-51.3-88.5-.3-.8-.7-1.7-1-2.6-.3-.8-.6-1.6-.9-2.4-.3-.7-.5-1.4-.8-2.1q-.6-1.7-.6-3.7c-.7-.3-1.3-.7-2-1h2c-.2-.7-.3-1.4-.5-2.1-.6-3.3-.9-6.5-1.1-9.8,0-.7,0-1.3-.1-2,0-1.5-.2-2.9-.3-4.4-.2-2.3-.3-4.6-.5-7-.4-5.8-.8-11.6-1.2-17.4-.4-5.7-.8-11.3-1.1-17,0-.8-.1-1.6-.2-2.4-.6-9.5-1.4-18.9-2.5-28.3-.7-6.1-.9-12.2-.9-18.3,0-1,0-2,0-3,0-.9,0-1.9,0-2.9,0-.8,0-1.7,0-2.5q.3-2,2.3-4l1,2q2.3.6,5.1,1.1c.9.2,1.8.3,2.8.5.7.1,1.4.2,2.2.4-.4-5.1-.9-10.2-1.3-15.4q0-.4-.2-2.3c-.8-8.9-1.6-17.7-2.8-26.5-1.4-10.5-2-20.8-2.1-31.3,0-1.2,0-2.4,0-3.7,0-6.8.7-12.5,3.4-18.8q.2-.5,1.2-3.2c1.2-2.9,2.5-5.9,3.8-8.8.3-.8.7-1.6,1-2.5,1.6-3.7,3.2-7,5.5-10.3,3-4.5,3.7-9.3,4.7-14.6.3-.9.5-1.8.8-2.7,1-.3,2-.7,3-1-.5-7-2.1-13.1-4.3-19.8-.7-3.2-.7-5.1.3-8.2h-2c-.3-1.1-.6-2.1-.8-3.2-.4-1.4-.7-2.8-1.1-4.2-.2-.7-.4-1.4-.6-2.1q-1.4-5.3-2.5-6.4c0-2.3,0-4.7,0-7h-2l-1,2c0-1.2.2-2.3.2-3.5,0-4.6-1-8.6-2.2-12.9-5.5-20.5-.6-43.1,3.7-63.5,1-4.8,1.3-9.2,1.2-14.1.1-8.2,5.9-15.2,11-21,.6-.7,1.3-1.5,1.9-2.2,10.2-11,27.1-22.8,42-25.3,3-.7,5.4-2,8.1-3.4,5.7-2.9,11.4-4.4,17.6-5.5q2.3-.5,5.5-1.5c6.9-2.3,15.8-3.3,22.8-.9Z"/>
        </g>
        <path class="st10" d="M285,385h1c-.2,6.1-1.2,10-4.7,15-2.3,3.4-3.7,7.2-5.3,11-.4,1-.8,1.9-1.3,2.9-1.3,3-2.6,6-3.7,9.1-.3.7-.5,1.3-.8,2-2.4,6.3-2.5,11.9-2.4,18.6,0,1,0,2,0,3.1,0,2.5,0,4.9.1,7.4h-1c-2.6-16.8-.9-28.9,6.6-44.2,1.9-4,3.7-8,5.6-12.1,1.9-4.2,3.8-8.5,5.8-12.7Z"/>
        <path class="st7" d="M222,457c5.9,4.5,9.4,9.2,13.1,15.5.6.9,1.1,1.8,1.7,2.8,1.8,2.9,3.5,5.8,5.2,8.7.6,1,1.2,2,1.8,3,3.3,5.5,6.5,11,9.7,16.5,1.1,1.8,2.1,3.5,3.3,5.3.6.9,1.1,1.8,1.7,2.7.5.8,1,1.6,1.6,2.4q1,2.1,0,5.1c-.5-1-.9-1.9-1.4-2.9q-1.6-3.1-3.6-4.1c-1-1.8-1.9-3.6-2.8-5.4-2.4-5-5-9.7-8-14.3-1.4-2.4-2.3-4.7-3.3-7.3h-2l-1-5h-2c-.2-1.1-.5-2.2-.8-3.4q-1.2-3.6-3.3-4.8-.3-.1-1.9-.9-.8-2.6-1-5h-2c-1.9-2.9-3.5-5.9-5-9Z"/>
        <path class="st24" d="M396,177v1c-1.3,0-2.5,0-3.8,0-.7,0-1.4,0-2.1,0q-2,0-5-1.1c-9-.7-17.7.6-26,4-1.3.3-2.7.6-4.1.8-6.9,1.4-13.2,4.5-19.5,7.4-2.7.9-3.7.6-6.4-.2,22.2-9.7,42.6-18.3,67-12Z"/>
        <path class="st40" d="M279,238h1c-.6,7.7-1.6,15.2-2.9,22.8-1.4,8.2-2.7,16.4-3.6,24.7-.2.8-.3,1.7-.5,2.5q-.3.2-2,1c.3-9.9,1.4-19.6,2.9-29.4.2-1.1.3-2.2.5-3.3,1-6.4,2.4-12.2,4.6-18.2Z"/>
        <path class="st61" d="M277,329h2c.1,1,.2,1.9.3,2.9.4,3,1.2,5.7,2.2,8.6,1.4,3.9,2.1,7.4,2.5,11.5h2c.1,1.3.2,2.6.3,3.9.4,3.6,1.1,6.7,2.2,10.1,1.6,4.8,1.7,8.9,1.4,14h-1c-.2-.7-.4-1.5-.6-2.3-.9-3.5-1.7-7-2.6-10.5-.3-1.3-.6-2.5-1-3.8-2.1-8.2-4.2-16.5-6.4-24.7-.9-3.4-1.4-6.1-1.4-9.7Z"/>
        <path class="st40" d="M271,289h1c0,1,0,2.1,0,3.2.3,9.2,1.5,17.5,4.1,26.4.8,3.3,1,6.1.8,9.5-6.2-6.2-7.3-20.7-7.4-29.1q0-8.6,1.4-9.9Z"/>
      </g>
      <g id="ears" inkscape:label="Ears">
        <g id="left_ear" inkscape:label="Left ear">
          <path class="st25" d="M208,446c7.4,3.8,12.8,7.7,17,15l2,2v3h2c.4.9.9,1.9,1.3,2.8q1.7,3.2,3.3,4.8c1.9,2,2,3.8,2.4,6.4h2q.2.8,1,5h2c.5.9,1,1.8,1.5,2.7.7,1.2,1.4,2.4,2.1,3.7.4.6.7,1.3,1.1,1.9,2.6,4.6,5.4,9.2,8.3,13.7q1,2,1,5,.5.2,3,1c1.9,2.9,2.3,5.3,2.3,8.8q0,.5,0,2.9c0,1,0,2.1,0,3.2.3,9.2.9,18.3,1.9,27.5,1.7,15.7,2.7,31.5,3.7,47.2.1,2.1.3,4.1.4,6.2.3,3.9.5,7.8.8,11.7q0,.6.2,3.6c0,1.1.1,2.2.2,3.3,0,1,.1,1.9.2,2.9.1,2.6.2,5.1.1,7.7h-2v2q-.3.2-1.9,1.2c-3,2.6-2.8,5-3.1,8.8h-1v-7c-.7.3-1.3.7-2,1-5.4.6-8.7-.3-13-3.3-6.2-5.2-10.1-12.4-14.4-19.2-2.7-4.3-5.7-8.1-9.1-11.9-10.3-11.9-17.6-25.1-24.9-38.9-5.1-9.7-10.7-19.1-16.4-28.5-9.3-15.2-13.5-26.8-13.6-44.8,0-.7,0-1.4,0-2.1q0-32.8,8.3-43.2c10.1-9.7,20.1-11.3,33-6ZM180,464c-2.3,3.5-2.3,4.8-2.3,8.9,0,1.2,0,2.4,0,3.6,0,1.3,0,2.5,0,3.8,0,1.3,0,2.6,0,3.9.2,20.8,5.3,38.5,15.2,56.8,1.1,2,2.1,4,3.1,6,5.1,9.7,11.4,18,18.5,26.3,1.2,1.4,2.4,2.9,3.6,4.3,3.3,3.9,6.4,6.8,10.8,9.4q-.8-13.7-4-19c-2.1-1.7-4.3-3.1-6.7-4.5-9.7-6.2-16.3-19.7-19.3-30.5-.8-9.6.4-19,1.9-28.4q0-.6.5-3.7c.9-5.8,1.8-11.3,3.6-16.9,3.1.6,5.1,1.6,7.6,3.5.7.5,1.3,1,2,1.5.7.5,1.4,1.1,2.1,1.6q.4.3,2.2,1.6,11.3,8.6,14.1,11.7v2c-1.3,1.1-2.7,2.1-4.1,3.1-6.5,4.9-12,11-13.2,19.3-.2,7.9,2,13.5,5.4,20.5.4,1.1.8,2.2,1.2,3.4,1.3,3.4,2.4,5.9,4.8,8.6,3.5,1,6.4,1.1,10.1.9q2.9,0,4.7,1.3c1.9,2.7,2.9,5.7,4.1,8.7,1.4,2.5,2.4,3.2,5.2,4.1q2.8-.4,5-1-1.8-9.3-3.1-13.2c-2.1-9-1.1-17.9,1.1-26.8q.6-3.1,0-6t-3-3.4c-4.6-5.1-8.2-10.7-11.9-16.4-7.1-10.8-14.5-21.4-22.6-31.5-.5-.7-1-1.3-1.6-2-5.6-6.9-13-13.8-22.2-15-5-.2-8.5.5-12.8,3.3Z"/>
          <path class="st42" d="M200.1,463.1c14.3,8,24.5,23.3,32.9,36.9v2c-3.8-1.7-7-4.2-10.2-6.8-1.2-.9-2.3-1.8-3.5-2.7-1.9-1.5-3.9-3-5.8-4.5-.7-.5-1.4-1.1-2.1-1.6-.6-.5-1.2-.9-1.8-1.4q-1.6-1-4.6-1-10.3,43.4-1,61c.5,1,1.1,2.1,1.6,3.2,4.3,7.8,8.6,14,16.6,18,2.8,1.6,3.6,2.5,4.9,5.6,1.3,5.2,2,9.9,1.8,15.2-24.9-16.3-43-51.7-49.6-80-1.7-8.7-1.7-17.6-1.8-26.4,0-1.2,0-2.5-.1-3.8q0-10.1,2.8-13.2c6.4-4.1,13-3.8,19.7-.6Z"/>
          <path class="st9" d="M232,502c3.5,1.2,3.8,1.8,5.7,4.8.5.8,1,1.5,1.5,2.3.5.8,1,1.6,1.6,2.5,3.6,5.7,7.2,10.7,11.9,15.5,2.1,3.1,1.5,6,.9,9.5q0,.4-.6,2.4c-2.4,10.4-1.2,20,2.2,30,.8,2.9.8,4.2-.2,7-3.3-.3-5.5-.6-8.2-2.6-2.1-2.8-3.1-5.4-4.1-8.7q-.7-1.7-2.7-2.7c-.9,0-1.8.2-2.8.2-3.9.2-6.6,0-10.2-1.2-4-4.4-6-10.5-8-16-.3-.7-.6-1.4-.9-2.1-2.6-6.6-3.4-12.5-1.4-19.5,3.2-7.2,9.1-13.8,16.2-17.4l-1-4Z"/>
        </g>
      </g>
      <g id="nose" inkscape:label="Nose">
        <path class="st34" d="M512,428c10.4,10.4,12.9,35.2,15.4,49.3.4,2.5.9,5.1,1.4,7.6,2.5,13.8,3.2,27.2,1.5,41.1-1.2,10,.6,19.4,3.8,28.9q1.8,1.1,4,2c.7.3,1.5.7,2.2,1,2.6,1.2,5.2,2.4,7.8,3.5.9.4,1.8.8,2.8,1.2.9.4,1.8.8,2.7,1.2.8.4,1.6.7,2.4,1.1,6.9,3,14.4,3.2,21.5.7,3.8-1.9,7.4-3.8,10.8-6.5q1.8-1.3,4.8-1.3.1-.3.7-1.8c2.5-4.4,7.6-7.4,12.4-8.8q1.9-.3,4.9-.4c.7-3.3,1.3-6.6,2-10,3.2,3.8,5.7,7.8,8.1,12.1.8,1.4,1.6,2.9,2.4,4.3.4.7.8,1.5,1.3,2.3,2.2,4,4.5,7.9,6.8,11.9.5.8.9,1.6,1.4,2.4,2.2,3.8,4.4,7.5,6.7,11.2,4.4,7,8.2,13.8,10.4,21.8.2.7.4,1.5.7,2.3,1.4,5.7,1.5,11.3,1.6,17.2,0,.8,0,1.6,0,2.4,0,3.9,0,5.8-2.3,9.2h-2c-.1-.9-.2-1.8-.3-2.7-.4-3.3-.8-6.6-1.2-10-.2-1.4-.3-2.9-.5-4.3-1.2-10.7-2.9-21-9-30.2-.6-.9-1.2-1.8-1.8-2.7-3.8-5.4-7.6-10.8-11.4-16.2-3-4.3-6-8.6-8.8-13q-.2.3-1.5,1.8c-5.8,6.8-10.8,11.3-19.5,13.6-3.6,1-5.9,2-8.8,4.4-7.9,6.4-17.2,10.1-27.4,9.5q-11.9-1.4-14.8-4.3c1.3-.3,2.6-.7,4-1v-2c-.9,0-1.9-.2-2.8-.2-4.4-.6-8.5-2.2-12.6-3.8-6.7-2.5-13.5-3.2-20.2-.4-.8.5-1.6,1-2.4,1.5q1,3,3,5c-10.1.5-19.1-.2-27-7-5.5-7.7-8.3-16.6-7-26,1.7-5.7,3.9-10.6,8-15h-3c.2-.5.3-1.1.5-1.7,3.9-12.8,7.1-25.5,9.3-38.7.4-2.3.8-4.5,1.2-6.8,1.2-6.7,2.1-13,1.9-19.8-.1-6.1,1.3-10.3,4.1-15.6q.2-.4,1.2-2.4c3.2-6.2,6.7-12.2,10.7-17.9ZM489,534c-2.6,4.3-2.5,9.1-2,14,1,3.7,2,5.3,5.1,7.5,6.4,3.5,11.2,4.8,18.4,2.8,2.2-.7,4.4-1.5,6.5-2.3-.4-5.3-1.4-10.2-2.8-15.3-.3-1.2-.6-2.4-.9-3.6-1.6-3.6-2.8-4.5-6.3-6.1-.7-.3-1.3-.7-2-1q-11.7-1.1-16,4Z"/>
        <path class="st32" d="M553,442c2.9,2.5,4.1,5.2,5.6,8.7.5,1.2,1,2.3,1.5,3.5.3.6.5,1.2.8,1.8,1.1,2.5,2.1,5.1,3.2,7.6.8,1.9,1.6,3.8,2.4,5.7q14.1,33.3,22.5,41.6v2q.3.1,1.7.8c7.9,4.2,14.7,9.5,19.3,17.2.4.6.8,1.2,1.1,1.8,1.1,2.9,1.1,5.3,1,8.3,0,1.1,0,2.1,0,3.2q-.2,2.6-1.2,3.6c-1.3.2-2.7.4-4,.6-5.1,1.1-8.3,3.6-12.2,6.9q-1.8,1.5-2.8,1.5t0-2.3c-.9-16.7-5.7-30.1-14.1-44.5-8.7-15-14.8-30.6-20.3-47-.2-.7-.5-1.3-.7-2-.6-1.9-1.3-3.8-1.9-5.7-.4-1.1-.7-2.2-1.1-3.3-.9-3.5-.9-6.6-.8-10.2Z"/>
        <path class="st12" d="M572,584c5,4.2,5.5,11.2,6.6,17.2-.9,4.4-3.2,6.9-6.6,9.8-6.6,3.9-13.4,5.1-21,4-6-1.6-11.3-3.8-15-9-1-4.9,1-8.5,3-12.9,1.1-2.3,1.6-4.6,2-7.1.9.3,1.7.7,2.6,1,9.8,2.7,19.4,1.6,28.4-3Z"/>
        <path class="st2" d="M485,530l2,1c-.4.6-.8,1.2-1.2,1.8-5.8,8.3-8.1,14.9-6.3,25,1.4,5.7,2.9,11.3,7.5,15.2,3.6,2,7.2,3.6,11,5-.3,1-.7,2-1,3-8.8.7-16.8-4.9-23.3-10.4-.9-.8-1.8-1.7-2.7-2.6-2.8,1.3-4.9,2.7-7.1,4.9-.6.6-1.1,1.1-1.7,1.7-.6.6-1.2,1.2-1.8,1.8-.6.6-1.2,1.3-1.9,1.9-5.2,5.3-9.9,10.8-14.4,16.7-.8,1-1.6,2-2.4,3.1-3.4,4.5-6.7,8.9-9.5,13.7-.7,1.1-1.4,2.1-2.1,3.2h-3c.6-4,1.8-6.8,3.9-10.2.6-1.1,1.3-2.1,1.9-3.2.4-.6.7-1.2,1.1-1.8,1.2-1.9,2.3-3.9,3.5-5.8q34-57.2,47.7-64Z"/>
        <path class="st29" d="M505,530q3.4.9,6,3c3.9,6.9,6,15.1,6,23-6.7,2.6-12.6,4.5-19.6,2.1-4-1.8-6.8-3.3-9.5-6.8-1.5-5.6-1.6-10.2.4-15.6,4.4-6.6,9.4-6.4,16.8-5.6Z"/>
        <path class="st44" d="M539,577c1.4,0,2.9,0,4.3,0,1.2,0,2.4,0,3.7,0v2c-1,.3-2,.7-3,1l1,2c-5.2,2.2-9.6,2.2-15.2,2q-.4,0-2.6,0c-1.8,0-3.7-.1-5.5-.2-2.8,0-5.6-.2-8.4-.2-1.8,0-3.6-.1-5.3-.2-.8,0-1.7,0-2.5,0-3.9-.1-7.7-.4-11.5-1.3,1-.3,2-.7,3-1,.3-1,.7-2,1-3,.9,0,1.8,0,2.7,0q11.2.2,15.8-1.1c7.3-1.9,15.1-1.5,22.4,0Z"/>
        <path class="st18" d="M578,578l2,1c-8.9,7.4-16.8,10.7-28.5,10.4-5.2-.6-9.9-2-14.5-4.4-.3-.7-.7-1.3-1-2,5.8-.7,11.1-1.1,16.9-.3,8.8,1.1,15.1.5,23-3.7.7-.3,1.4-.7,2.2-1Z"/>
        <path class="st23" d="M546,577v1q-6.4.1-9.4-.5c-8.6-1.6-18-.5-26.6.5-.7-1.3-1.3-2.6-2-4,11.4-9,26.1-1.7,38,3Z"/>
      </g>
      <g id="mouth" inkscape:label="Mouth">
        <path class="st8" d="M614,554c3.8,3.6,6.8,7.4,9.6,11.8,2.7,4.2,5.4,8.3,8.5,12.2,5.1,6.5,9,11.6,8.2,20.1-.3,2.7-.8,5.2-1.4,7.9q-.1.6-.6,3.7c-1.5,7.7-3.7,15-6.4,22.3-2.1-1.1-4.3-2.1-6.4-3.2-.8-.4-1.7-.8-2.5-1.3-.8-.4-1.7-.8-2.5-1.3-11.5-5.5-28-6.9-40.3-3.4-4.1,1.5-8.1,3.4-12,5.4-8.3,3.9-15.8,2.8-24.5,1-1-.2-2-.4-3-.6-3.9-.8-7.8-1.6-11.7-2.6,1-7.6,2.4-14.2,6-21,.5.4,1,.8,1.5,1.2,7.3,5.7,13.3,8.4,22.7,8.1,5.9-.7,11.6-2.7,16-6.9,3-5.7,1.7-11.1,0-17.1-.7-2.1-1.4-4.2-2.2-6.3,2-1.8,4.1-3.5,6.1-5.3.6-.5,1.1-1,1.7-1.5,4.7-4.1,9.4-6.8,15.5-8.4,7.8-2.5,13.7-7.7,17.7-14.8Z"/>
        <path class="st50" d="M625,627c2.2,1.5,4,3.1,6,5-.3,1-.7,2-1,3-1.3-.2-2.5-.3-3.8-.5-18.5-2-35.6-.4-53,5.9-9.5,3.4-17.1,4.3-27.2,3.6-1.2,0-2.3-.2-3.5-.2-2.3-.2-4.6-.3-7-.5-27.4-1.9-56.1,3.5-82.5,10.8q16.9,6.7,26,8,.4,0,2.5.5c4.5.6,8.9.7,13.5.8.9,0,1.9,0,2.9,0,3,0,6,.1,9,.2,2,0,4.1,0,6.1.1,5,.1,10,.2,15,.3q-1,2-3.4,2.9-4.1,1.7-5.6,4.1t1,7c5.7,4.6,12,4.2,19,4.2,1,0,1.9,0,2.9,0,8.3,0,16.5-.8,24.8-1.8,3.8-.4,7.5-.5,11.3-.4v1c-5.3,1.1-10.5,2.2-15.8,3.4-1.8.4-3.6.8-5.4,1.1-2.6.6-5.2,1.1-7.7,1.6-.8.2-1.6.3-2.4.5-23.4,4.9-42.8,2.6-63.7-8.7-1.1-.6-2.1-1.1-3.2-1.7-11.5-6.4-21.9-14.7-30.8-24.3q1-3,2.8-4.1c.8-.3,1.6-.7,2.4-1,.9-.4,1.8-.8,2.7-1.2,1-.4,2-.8,3-1.3,1-.4,2-.9,3.1-1.3,27.4-11.5,55.8-21.3,85.7-15,8.1,1.6,14.4.8,21.8-3,16.9-8.5,37.7-7.5,54.6.9Z"/>
        <path class="st19" d="M629,635h2q0,.3.1,1.7c.6,7.3,2.2,14.2,3.9,21.3.3,1.5.7,3,1,4.5q0,.4.5,2.3c.3,1.5.7,3,1,4.5.8,3.5,1.8,6.5,3.4,9.7.4,1.8.8,3.7,1.1,5.6q0,.5.5,2.9c.7,4.9-.5,8.9-1.8,13.6-.5,1.6-.9,3.2-1.4,4.8-.2.8-.5,1.7-.7,2.5-.7,2.6-1.4,5.1-2.1,7.7-.2.8-.5,1.6-.7,2.5-.4,1.6-.9,3.2-1.3,4.8q-1.5,5.5-2.6,6.6c-6.9-.1-11.4-2.1-17.4-5.3-6.9-3.3-14.3-5.4-21.6-7.7-.1-.7-.2-1.3-.3-2q-3.9-24.2-6.7-35c1-.3,2-.6,3-.9,1.3-.4,2.7-.8,4-1.3.7-.2,1.3-.4,2-.6,8-2.6,13.2-6.7,17.8-13.8q.2-.3,1.3-1.9c4.9-7.7,9-15.7,13.1-23.8q.9-1.6,1.9-2.6Z"/>
        <path class="st35" d="M627,634l2,2q-19.5,37.3-32.6,41.9c-9.5,2.8-19.2,3.2-29,3.7-3.8.2-7.5.5-11.3.9-5.4.6-10.8.7-16.3.7-.9,0-1.9,0-2.8,0-6.6,0-13-.4-18-5.2-1.3-2.7-1.6-4.1-1-7.1,3.9-5.1,9-7.3,15.2-8.4,2.3-.3,4.7-.4,7-.6,7.4-.7,14.8-1.4,21.8-4,.3-.7.7-1.3,1-2q1.8-.5,4.2-.8c4.3-.8,8-2,12-3.6,6.8-2.7,13.6-4.2,20.8-5.6,1.3-.3,2.7-.7,4-1,.7-.2,1.4-.3,2.1-.5,7.9-2,14.2-6.1,20.9-10.5Z"/>
        <path class="st43" d="M605,633q-1.2,10.2-5,14c-3.1.9-6.2,1.6-9.3,2.2-4.5,1-8.6,2.5-12.8,4.3-7.2,2.8-14.2,3.9-21.8,4.8-.7,0-1.4.2-2.1.3-11.8,1.4-23.5,1.8-35.4,1.5-1.2,0-2.3,0-3.5,0-1,0-2,0-3.1-.1-3.3.2-5.8,1.1-8.9,2.2-4.1-.3-7.4-.9-11-3-.3,1-.7,2-1,3-6.4,2.1-12.8,1.3-19.1-1-2.8-1.5-3.8-3-4.9-6,0-1.7,0-3.3,0-5,23.7-5.6,47.7-9.3,72-7.5,1.1,0,2.3.2,3.5.2,2.4.2,4.7.4,7.1.6,11.3.6,20.8-2.7,31.5-6.4,7.8-2.7,15.7-4.3,24-3.9Z"/>
        <path class="st30" d="M605,633c2.6,0,5.1,0,7.7,0,.7,0,1.4,0,2.2,0,3.8,0,7.4.2,11.1,1.1v2c-7.9,4.9-14.6,8.9-24,10,1-4.3,2-8.6,3-13Z"/>
        <path class="st3" d="M492,659c.8.4,1.6.7,2.4,1.1,4.2,1.1,7.2.7,11.5.1q2.2-.2,4.2.8c2.4.2,4.8.4,7.2.5,4.7.3,9.2.6,13.8,1.5v1h-46q3-2,6-3l1-2Z"/>
        <path class="st54" d="M467,651q.8,1.8,1.6,3.9c.7,2.1,1.4,4.1,2.4,6.1-6.8-1.7-12.8-3.6-19-7,3-2,4.7-2.5,8.1-3.2.9-.2,1.8-.4,2.7-.5q2.3-.3,4.3.7Z"/>
        <path class="st37" d="M565,657c-8.9,5.9-20.7,5.6-31,6v-2c1.6-.3,3.3-.7,5-1v-1q17.9-2.3,26-2Z"/>
        <path class="st55" d="M509,659l32,1v1h-7v2c-8.4.1-16.7-.4-25-1v-3Z"/>
      </g>
      <g id="eyebrows" inkscape:label="Eyebrows">
        <g id="right_eyebrow" inkscape:label="Right eyebrow">
          <path class="st59" d="M417,397.9c1.2,0,2.4,0,3.6,0q.6,0,3.8,0c1.3,0,2.6,0,4,0,2.8,0,5.5,0,8.3,0,3.5,0,7.1,0,10.6,0,3.4,0,6.8,0,10.2,0,1.3,0,2.5,0,3.8,0q14,0,18.6,3.6.2.3,1.3,1.6c.5.6,1,1.2,1.5,1.9,2.6,3.7,5,7.5,7.3,11.5.5.8,1,1.6,1.5,2.5q3.6,6,3.6,7.1c-4-.1-7.9-.3-11.9-.4-1.1,0-2.2,0-3.4-.1-4.8-.2-9.6-.4-14.4-1-7.1-.8-14.2-.7-21.3-.7-2.5,0-4.9,0-7.4,0-28.1-.2-50.4,8.4-74.1,23-2.5,1.3-4.7,1.9-7.5,2.3.5-3.5.9-7,1.5-10.5.4-2.4.7-4.9,1-7.4,7.3-14.9,33.7-26.4,48.6-32.2,3.7-.9,7.2-1.1,11-1.1Z"/>
          <path class="st51" d="M480,402c7.4.6,17.1,1.4,22.7,6.6,1.3,2.1,2.3,4.1,3.3,6.4.6,1,1.1,2,1.7,3q4.5,8.1,3.7,12c-1.5,3.3-3.2,6.3-5,9.4-3.5,6-6.7,12.1-9.6,18.5-1.3,2.6-2.4,4.8-4.6,6.7-2.7.5-4.5-.2-7.1-1-4.2-1.1-8.7-1-13-1.2q-.5,0-2.9-.1c-2.4,0-4.7-.2-7.1-.3v-1h12v-2c-.9-.3-1.7-.5-2.6-.8-3.4-1.2-6.5-2.6-9.8-4.1-7.9-3.7-14.8-6.5-23.6-7.1v-1c12.7-3.2,27.4-2,38.7,4.6,1.7,1,3.4,2.1,5,3.2,3.2,1.8,5.7,2.1,9.3,2.3q-1.8-14.6-7.8-19.4c-6.6-4.7-14-8.1-21.2-11.6v-1q5.3.2,32,1c-1.9-3.2-3.9-6.5-5.9-9.8-.6-1-1.2-2-1.8-3.1-.5-.8-1-1.6-1.5-2.4-.5-.8-1-1.6-1.5-2.5-1.1-1.8-2.2-3.5-3.3-5.2Z"/>
        </g>
        <g id="left_eyebrow" inkscape:label="Left eyebrow">
          <path class="st26" d="M658,384c5.8,4.3,9.9,7.6,11,15,.2,3.8.2,7.6.1,11.4,0,1,0,2,0,3.1,0,2.5,0,5,0,7.5-2.4-2.3-4-4.5-5.6-7.3-3.8-5.8-8.8-9.5-15.4-11.7-8.2-.7-15.7.5-23.6,2.4-5.2,1.2-10.4,2.3-15.6,3.5-1.2.3-2.3.5-3.5.8-3.4.8-6.9,1.5-10.3,2.3q-.5.1-3,.7c-2.6.6-5.2,1.1-7.9,1.7-.8.2-1.5.3-2.3.5-3.7.8-7.1,1.3-10.8,1.1q6-21,13.2-26.7c2.9-1.1,5.7-1.7,8.8-2.3,1.7-.4,3.3-.8,5-1.2,11.2-2.7,22.6-4.9,34-6.8,1.1-.2,2.1-.4,3.2-.5,9.7-1.6,14.7,1,22.8,6.5Z"/>
          <path class="st45" d="M551,390h2c.6,1.1,1.2,2.2,1.8,3.4.8,1.5,1.6,2.9,2.4,4.4.4.7.8,1.5,1.2,2.2,2.4,4.3,4.5,7.2,8.6,10,.2-.7.5-1.5.7-2.2,1.6-3.3,3.3-4.7,6.3-6.8h2c-.5,3.5-1.6,6.5-3,9.7-.4.8-.7,1.6-1.1,2.4q-.1.3-.8,1.9c5.1-1.1,10.2-2.1,15.4-3.2,1.7-.4,3.5-.7,5.2-1.1,2.5-.5,5-1,7.6-1.6.8-.2,1.7-.3,2.5-.5,6.8-1.5,13.5-3.2,20.3-5q3.1-.6,6.1.4c-1,.5-2.1,1-3.1,1.5q-28.1,14-30.9,19.5,2.3.2,14,1v2c-.7.3-1.5.7-2.2,1-7.1,3.4-12.9,7.2-19,12.1-3.1,2-5.2,2.4-8.8,2.9-4.8,2.3-8.9,4.9-11.1,9.9-.3,1-.6,2.1-.9,3.1-5.1-5.1-4.3-13.3-4.4-20.1-.2-5.4-1.4-9.4-3.6-14.4-1.7-4.3-2.7-8.7-3.7-13.1q-.1-.4-.6-2.7c-1.3-5.6-2.1-11.1-2.7-16.8Z"/>
        </g>
      </g>
      <g id="eyes" inkscape:label="Eyes">
        <g id="right_eye" inkscape:label="Right eye">
          <path class="st20" d="M440.6,422.2q.4,0,2.5,0c17.8,0,29.8,4.4,43.2,16.1,3.9,4,4.8,8.2,4.8,13.6,0,1.4-.1,2.7-.2,4.1-5.4.9-8.2-.5-12.8-3.3-18.3-11.2-37.5-6.6-57.4-2.3-5.9,1.2-11.8,2-17.8,2.6-.9,0-1.8.2-2.8.3q-2.4.1-6.2-.3c-3.2-3.3-5-6.8-6.8-11.1-.4-1-.9-2.1-1.3-3.1q-1-2.7-1-5.7c17.9-8,36.1-10.5,55.6-10.8Z"/>
          <path class="st21" d="M456,451l-1,4c-4.9-.6-9.3-1.6-14-3,0,.6,0,1.2,0,1.8.1,4.5,0,8.1-2.1,12.2-7.1,1.2-14.2,1.2-21.5,1.1-2.1,0-4.2,0-6.3,0-1.4,0-2.7,0-4.1,0-1.2,0-2.4,0-3.7,0q-3.5-.1-7.3-.7c-4.2-.5-5.9.6-9.4,3-3.7,2.4-6.5,4.1-10.9,4.6,17.4-18,55.6-37.4,80-23Z"/>
          <path class="st64" d="M441,452c7.1,1.2,13.4,3.1,20,6v3c-7,2.1-13.7,3.5-21,4,.3-4.3.7-8.6,1-13Z"/>
          <path class="st33" d="M456,451c4.4,1.3,8.3,3,12.4,5.1,1.1.5,2.1,1.1,3.2,1.6.8.4,1.6.8,2.4,1.2v2h-12l-1-2c-2.3-1.1-4.6-2.1-7-3,.7-1.7,1.3-3.3,2-5Z"/>
        </g>
        <g id="left_eye" inkscape:label="Left eye">
          <path class="st62" d="M658,406c4.4,4,7.2,8.8,10,14,.3-2.6.7-5.3,1-8h1c.6,12.2-1.2,24-3,36-2,.3-4,.7-6,1-.4-.7-.9-1.5-1.4-2.3q-.3-.5-1.8-3c-.6-1-1.2-1.9-1.8-3-3.8-5.2-8.2-8-14.5-9.3-.9-.1-1.8-.2-2.7-.4-1-.1-2-.3-3-.4-1.1-.1-2.1-.3-3.2-.4-1.1-.2-2.2-.3-3.3-.5-3.5-.5-7-1-10.5-1.4-2.4-.3-4.8-.7-7.2-1-5.8-.8-11.7-1.6-17.5-2.4,5.1-10.8,20.7-15.3,30.9-20q2.1-1,5.1-3c9.9-2.5,19.6-2,28,4Z"/>
          <path class="st27" d="M622,428c.9,0,1.8.2,2.7.3,2.9.3,5.8.7,8.7,1,.9.1,1.9.2,2.8.3,8.6,1.1,15.1,3.6,20.6,10.6,1.8,2.5,3.2,4.9,4.3,7.8q-.2.5-1,3-.2-.2-1.4-1.2c-4.3-3.5-8-5.5-13.4-7-2.3-.8-4.1-1.9-6.2-3.3-4.4-2.9-9-4.2-14.1-5.5l1,2q.2,2,.2,4.4c0,.8,0,1.5,0,2.3-.4,3.1-1,4.2-3.3,6.3-3,.3-5.5.4-8.4.3q-.4,0-2.4,0c-6.4-.2-12.8-.6-19.1-1.3-.1-1.1-.2-2.3-.4-3.4-.2-1.2-.4-2.4-.6-3.6l-2-1c1.5-4,3.7-5.4,7.3-7.6.9-.6,1.9-1.2,2.9-1.8,7.6-4.3,13.4-3.5,21.8-2.6Z"/>
          <path class="st53" d="M625,434c6.3.4,11.8,2.4,17,6q1.3,2.2,2,4-13.6,4.4-20,5,0-.3.5-1.6c.6-2.8.6-5.3.6-8.1q0-.5,0-3c0-.7,0-1.5,0-2.3Z"/>
          <path class="st28" d="M589,438l3,3c-.7.5-1.4,1.1-2.1,1.6-1.6,1.3-3.2,2.6-4.7,3.9q-5.7,5.2-10.3,5.4c3.4-6.2,8.4-9.8,14-14Z"/>
        </g>
      </g>
      <g id="hair" inkscape:label="Hair">
        <path class="st4" d="M496,66c10.5,1.9,19.2,5.6,26,14q.3.5,1.7,3.2c3.2,3.8,6.4,4,11.2,5.1,9.3,2.1,13.9,5.8,19.1,13.7q2-1,2.6-2.7c1.1-7-1-11.3-4.6-17.3-.3-.7-.7-1.3-1-2,8.3,3.8,12.7,10.8,16,19,1.1,3.7,1.1,7.1,1,11,.7,0,1.3-.1,2-.2,12.4-.7,25,3.9,35,11.2,2.3,2.3,2.5,3.6,3.2,6.8,1.9,6.5,5.4,9,10.9,12.6,5.9,4.2,9.8,9.1,13.9,15,2.7,3.8,5.4,7.3,8.5,10.6,3.2,3.5,5.1,6.4,6.5,11-.3,1-.7,2-1,3q-.2-.2-1.4-1.1c-.6-.5-1.2-.9-1.9-1.4q-.3-.2-1.9-1.4t-4.8-2.2c1.2,7.5,3.7,12.3,8.1,18.4,1.1,1.6,2.2,3.1,3.3,4.7.5.7,1,1.4,1.5,2.1,2,3.1,2.3,5.4,2,8.9-.8,12.2,1,17.7,9.2,27,8.4,10.6,8.4,19.6,7.9,32.8-.2,10.3,1.3,19.5,4,29.5q0,.3.5,2c1.2,4.3,2.4,8.5,3.6,12.7.3,1,.6,2,.9,3,.3.9.5,1.8.8,2.7q.1.4.7,2.3c1.5,4.2,4,6.5,7.7,9,4.2.2,7.9,0,12-1-1.4,4.4-3.8,7.5-6.8,11q-1.2,2-1.2,6c3.4,2.3,4.7,2.2,8.7,2.1,1,0,2,0,3,0,.8,0,1.5,0,2.3,0-1.8,7.6-7,13.5-12.9,18.4-1,.8-2,1.7-3.1,2.6v2c3.9,1.9,8,1.1,12,0q-7,14.9-12,20h-2c-.3,13.5-.7,27.1-1,41-1.3.7-2.6,1.3-4,2q0-.4-.4-2.5c-5.1-29.8-10.5-59.6-18.2-88.9-1.3-5-2.4-10-3.5-15-7.9-35.8-19.1-69.5-41.9-98.6-.5-.6-1-1.3-1.5-1.9-10.5-13.8-22.6-26.2-35.7-37.5q-1.8-1.6-4.5-4.5c-4.8-4.7-8.8-7.4-15.8-7.4-2.1,0-4.2.2-6.3.4-1.1,0-2.3.1-3.4.2-12.5.7-24.9,1.9-37.3,3.2-13.3,1.3-26.6,2.6-39.9,3.7-1,0-2,.2-3,.3-15.9,1.3-31.3-.6-47-3.1-3.5-.5-7.1-.9-10.6-1.4-6.5-.8-12.9-1.8-19.4-3-5.3-.9-10.7-1.5-16.1-1.8q-2.4-.2-4.5-.8c-3.7-.8-7.4.6-10.9,1.6-1.2.3-2.5.6-3.7.9-1.3.3-2.7.7-4,1-1.3.3-2.5.6-3.8,1-3.2,1-5.6,2.3-8.5,4.1-4.5,1.8-9.2,3.2-14,4v2h-5v2c-1.3.7-2.6,1.3-3.9,2-.7.4-1.4.7-2.2,1.1q-1.9.9-3.9.9v2h-3v2c-1.1.5-2.3.9-3.4,1.4q-3.6,1.6-4.6,3.6c-.8.1-1.6.2-2.4.3q-.4.1-2.6.7-1.2,2.5-2,5l-2,1c-.3.8-.6,1.5-.9,2.3-1.1,2.8-2.4,4.4-4.4,6.6-15,19-19.2,60.7-17,83.8,2.5,17.4,8,34.8,13.3,51.5,2.4,8,4.9,18.5,2,26.6q-1.3,2.3-2.7,4.3c-1.8,2.7-2.4,5.7-3.3,8.9-.9,1.7-1.9,3.4-2.9,5-5.4,9.6-9.8,20.3-12.1,31h1c0,.9,0,1.7,0,2.6.3,16.5.9,32.9,2.5,49.3,0,.7.1,1.4.2,2.1q1.1,11.3,2.3,16c.3,2.9.5,5.8.6,8.7,0,.8.1,1.6.2,2.4.1,2,.2,4,.2,5.9q-1,1-4.1,1.1c-1,0-1.9,0-2.9,0-.1-.6-.2-1.3-.3-1.9q-.1-.3-.7-2.1c-1-.3-2-.7-3-1v-3h-4q-1.8-2.4-3.7-5.7-.2-.3-1-1.8c-.7-1.3-1.4-2.6-2.2-3.8-1.5-2.7-3-5.3-4.6-8-1.1-2-2.3-4-3.4-6-10.1-17.7-19.4-32.9-39.1-40.7-8.2-2.1-15.2-1.1-23,2,1.5-4.6,3.9-7.4,7-11-1.3,0-2.6.2-3.9.2-5.3,0-9.6-1.4-14.1-4.2q-.3-.5-2-3c.8-.1,1.7-.2,2.5-.3q.5,0,3.3-.5c1.1-.2,2.2-.3,3.3-.5,3-.8,4.1-1.2,5.9-3.7.3-1,.7-2,1-3-4.3.3-8.6.7-13,1,.7-.7,1.4-1.4,2.2-2.1,8.6-8.6,9.2-14.3,9.3-26.4-.1-9.4-2-16.9-5.8-25.4-3.6-8.1-4-15.9-4.1-24.7-.3-11.2-2.1-20.8-5.6-31.4-.8-6.8.8-12.1,3.4-18.4,2.7-7,4.2-13.3,4.8-20.8.5-7.3,1.9-12.6,5.9-18.9,3.9-6.7,5.5-12.4,6.5-20.1.9-4.8,3.3-7.7,6.6-11.1,2.4-3.4,2.6-6.3,2.8-10.4.8-8.8,3.6-16.1,9.2-23,1.9-2.4,2.9-4.5,4.1-7.3,5.6-11.3,17.9-16.2,28.9-21.2,1-.3,2-.7,3-1-4.8,0-9.2,0-14,1,7.7-8.3,19.4-10.5,29.9-13.3,5.7-1.6,9.4-2.9,13.1-7.7q.2-.5,1-3c1.4-4.2,4.1-6.6,7.7-9.3,4.8-4.1,6.5-8.3,8.3-14.2,3.6-11,8.3-16.1,18.6-21.6.8-.3,1.6-.6,2.4-.9.7.3,1.3.7,2,1q-.3.2-1.5,1.4-5.2,5.3-5.9,9.4c0,2.4.2,4.8.5,7.2,1,.3,2,.7,3,1q.1-.3.8-1.8c1.3-2.4,2.7-4.2,4.4-6.2.6-.7,1.1-1.3,1.7-2,5.4-5,9.6-6.4,16.9-6.7,8.6-.7,13-4.4,19.2-10.3,5.8-4.5,12.2-9.2,19-12q.3.2,2,1c-.6.4-1.1.8-1.7,1.2-.7.5-1.5,1.1-2.2,1.6q-.4.3-2.2,1.6-1.8,1.5-2.8,3.5.3,0,1.8,0c6.8-.2,12.9.8,19.5,2.3,1,.2,1.9.4,2.9.6,5.1,1.2,9.1,2.2,12.8,6.1v2c.9-.7,1.7-1.4,2.6-2,1.2-.9,2.3-1.8,3.5-2.7.6-.4,1.1-.9,1.7-1.3q11.3-8.8,18.2-8.5c2.7.8,4.1,2.2,6.1,4.1,2.6,2.5,3.7,3.4,7.3,4.4,3.8-.9,5.5-2.1,8.6-4.4,3.8-2.8,6.2-4.4,11-4,2.5.6,4.7,1.5,7,2.5,8.6,3.7,15.7,1.8,24.6-.3,4.5-.9,8.9-1.4,13.5-1.7-1.3-4.6-3.2-8.1-6-12Z"/>
        <path class="st58" d="M266,447h1c0,.9.1,1.8.2,2.7.4,4.2.7,8.5,1.1,12.7,0,.8.1,1.5.2,2.3.9,10,1.9,20,3.2,29.9,1.1,8.8,1.7,17.4,1.3,26.3-3.5.1-6.6,0-10-1-2.4-2.3-3.9-4.8-5-8,.3-.7.7-1.3,1-2,.7.3,1.3.7,2,1,.3,1,.7,2,1,3,.5.5,1,1,1.6,1.6.5.5.9.9,1.4,1.4v2q1-.2,6-1-.7-16-1.9-23.1c-2.6-15.8-3.4-31.9-3.1-47.9Z"/>
        <path class="st60" d="M286,367c2.3,4.3,3.6,8.1,3,13-1.2,3-2.6,5.8-4.2,8.7-3.6,6.7-6.7,13.5-9.8,20.5-.9,1.9-1.7,3.9-2.6,5.8-.5,1.2-1.1,2.4-1.6,3.7-.5,1.1-1,2.2-1.5,3.3-2,4.8-3.5,9.2-3.9,14.5,0,.9-.1,1.7-.2,2.6q0,.3-.1,2h-1c-.5-8.6.5-15.1,4-23,.4-.9.8-1.9,1.2-2.8.8-1.9,1.7-3.7,2.5-5.5,1.2-2.5,2.3-5,3.4-7.5,1-2.4,2.1-4.4,3.4-6.6,1.7-3,2.6-5.9,3.6-9.2q.8-2.3,2.4-4.7c1.7-3.2,1.7-5.3,1.6-8.9,0-1.1,0-2.1,0-3.2q0-.4-.1-2.4Z"/>
        <path class="st52" d="M384,173v1c-.9,0-1.9.2-2.9.3-19.5,2-36,8.5-53.7,16.7-2.2.9-4.2,1.6-6.5,2v-2h2v-2h5v-2c5-2.2,10.1-4.2,15.3-6,2.3-.8,4.5-1.7,6.8-2.5,11.4-4.3,21.7-5.6,33.9-5.4Z"/>
        <path class="st38" d="M687,390h1c-.3,21.8-.7,43.6-1,66h-1c-.5-2.9-1-5.7-1.5-8.6-.1-.8-.3-1.6-.4-2.4-.8-4.7-1.2-9.2-1.1-14h2c0-1.1,0-2.3,0-3.4,0-4.2.2-8.4.3-12.6,0-1.8,0-3.6.1-5.5,0-2.6.1-5.2.2-7.9,0-.8,0-1.6,0-2.5,0-3.3.2-6,1.3-9.1Z"/>
        <path class="st63" d="M321,192q-1,3-3.1,4.3c-.9.4-1.8.9-2.7,1.3-8.5,4.4-15.8,10.4-23.2,16.4l1-4h2q.1-.4.7-2.4c.4-.8.9-1.7,1.3-2.6q2.6-.8,5-1l1-3q3-2,7-2v-2h3v-2q5.8-3,8-3Z"/>
        <path class="st4" d="M183,441.4l.7,4.3s-3.4,1.5-6.9,4.7l.2-.4c-.1,0-.3-.2-.4-.2-1.2,0-2.4-.2-4.1-1-.8-.6-1.6-1.1-2.4-1.7q-.4-.3-2.4-1.7c-.6-.5-1.2-1-1.8-1.4v-1l6.9-.5c1.3,0,2.6-.2,3.9-.3,1.7-.1,3.5-.2,5.2-.2"/>
        <path class="st15" d="M413,180q16.2.7,22.8,2c8.6,1.6,17.4,1.7,26.2,2v1c-16.7,3.1-32.6-.6-49-4v-1Z"/>
      </g>
      <g id="neck" inkscape:label="Neck">
        <path class="st31" d="M268,639c.3.7.6,1.5.9,2.2q19.9,48.9,31.1,66.8c.4.6.7,1.2,1.1,1.8,30.6,48.7,94.8,69.9,146.9,88.2q-.3-.5-1.6-2.8c-3.2-5.6-6.4-11.1-9.5-16.7-4.2-7.5-8.5-14.9-12.8-22.3-.6-1-1.2-2-1.8-3.1-2.9-4.9-5.8-9.8-8.7-14.8-1-1.7-2-3.4-3-5.2-.5-.8-.9-1.6-1.4-2.4q-.2-.4-1.3-2.2-.2-.3-1.1-1.9t-.8-4.7c3.4,1.1,3.6,1.6,5.3,4.6.4.7.9,1.5,1.3,2.2.5.8.9,1.6,1.4,2.4,12,20.1,27.2,36.9,46.4,50.3,3.4,2.4,6.6,4.9,9.8,7.4,29.5,23,58.3,29.6,95.5,25.1,7.5-1.1,14.9-2.9,22.2-5,1-.3,2-.6,3.1-.9,17.8-5.4,33.8-13.9,42.9-30.5.5-.9,1-1.8,1.5-2.8,1.5-2.9,3.1-5.7,4.8-8.5.5-.8,1-1.7,1.5-2.5.4-.6.9-1.2,1.3-1.8h2c.1-.9.2-1.7.3-2.6.7-3.6,1.9-6.1,3.8-9.2.5-1,1.1-1.9,1.7-2.9q.2-.4,1.3-2.2c1.3,4,.2,6.8-.9,10.6-.2.8-.5,1.5-.7,2.3-5.8,18.5-15.8,34.5-28.4,49.1q-.4.4-2.2,2.6c-5.1,5.9-10.6,10.7-16.8,15.4,10.3-.4,20-2.6,30-5-2,6.6-5.4,12.3-8.9,18.2-1.1,1.9-2.2,3.8-3.3,5.8-9.5,16.4-19.8,28-38.7,33.5-30.3,7.9-62.1,2.5-92.2-3.9-3.3-.7-6.7-1.3-10-2-64.6-12.6-122-42.4-163.6-94.9-1.4-1.8-2.9-3.6-4.4-5.3-17.8-20.8-27.2-47.2-37-72.4-1.6-4-3.1-8-4.7-12-1.2-3.1-2.4-6.2-3.7-9.4-.4-1.1-.9-2.2-1.3-3.3-.4-1-.8-1.9-1.1-2.9q-.9-2.3-1.9-4.3c-.9-5.6-1.2-11.2-1.4-16.8,0-1.3,0-2.5-.1-3.8q.5-3.4,2.9-5.8,2.6-1.6,4.6-1.6Z"/>
        <path class="st46" d="M633,821c1.3,4.3.8,8.2.3,12.6-.2,1.8-.4,3.6-.5,5.4q0,.5-.3,2.9-7.4,74.4-2.9,100.6c2.3,17.4,1.8,40.3-8.7,55-6.4,5.7-14,8-22.2,10.4q-.4.1-2.4.7c-.7.2-1.5.4-2.3.6-.7.2-1.3.4-2,.6-4.1.6-6.6-1-9.9-3.4-5.2-3.6-10.8-6.2-16.6-8.8-3.3-1.5-6.6-3-9.9-4.5-.7-.3-1.4-.6-2.1-1-8.2-3.8-16.3-7.7-24.4-11.7-3-1.5-6-2.9-8.9-4.4-.7-.3-1.4-.7-2.2-1.1-5.8-2.8-11.6-5.6-17.5-8.4-9.1-4.3-18.1-8.7-27.2-13.1-1.5-.7-3-1.5-4.6-2.2-7.7-3.7-15.4-7.5-23-11.4-.6-.3-1.2-.6-1.8-.9-4-2.1-6.8-4.6-9.9-7.9-1.3-1.1-2.5-2.2-3.8-3.3-4.4-3.8-8.5-7.9-12.6-12.1-1.4-1.4-2.8-2.9-4.2-4.3-.6-.6-1.2-1.2-1.8-1.9q-1.6-1.5-3.6-2.5v-2h-2v-2h-2v-2h-2q-1.2-1.2-2.7-3.1c-3.5-4.1-7.2-7.9-11.1-11.8-.6-.6-1.2-1.2-1.9-1.9-1.9-1.9-3.9-3.9-5.8-5.8q-15-14.9-20-20.8c-2.5-3-5.3-5.8-8-8.7-4.6-4.9-9.1-9.9-13.5-15,.3-.7.7-1.3,1-2,.9.7,1.7,1.3,2.6,2,52.3,39.3,118,71.4,182.4,84,.9.2,1.8.4,2.7.6,8.1,1.5,16,1.8,24.2,1.8,1.3,0,2.5,0,3.8,0,14.3,0,28.4-3.9,39-13.8,11-12.9,15.6-32.3,18.5-48.5,1.6-7.7,5-13.6,9.3-20.2.7-1.1,1.4-2.2,2.1-3.3,1.3-2,2.5-4,3.8-6,1.6-2.5,3.1-5.1,4.7-7.6Z"/>
        <path class="st36" d="M263,669c2.1,2.1,2.6,3.2,3.6,5.9.3.8.6,1.6.9,2.4q.2.4,1,2.6c.7,1.9,1.4,3.7,2.1,5.6.4,1,.7,2,1.1,3,18,47.6,38.4,88.3,78.2,121.5.5.4,1,.9,1.6,1.3,40.2,33.9,82,51.6,133.8,60.2,6.1,1,12.2,2.2,18.2,3.4,31,6.4,66.8,10.6,95.6-5.8,6.5-4.4,10.8-9.5,14.8-16.2,1.2,3.5.8,5.8-.3,9.4-.3,1.1-.6,2.1-.9,3.2q-.2.6-1,3.4c-.3,1.1-.6,2.3-1,3.4-4.9,16.6-9.8,32.5-25.3,42.1-10.7,5.7-21.1,7-33,6.9-.7,0-1.3,0-2,0-10.8,0-20.9-1.2-31.3-3.8-2.3-.6-4.5-1.1-6.8-1.6-60.5-13.4-123.6-45.7-172.5-83,7.3,8.5,14.6,16.9,22.2,25.1,1.4,1.5,2.8,3,4.1,4.6,7.4,8.2,15.1,15.9,23,23.6,1.6,1.6,3.2,3.1,4.8,4.7.9.9,1.9,1.8,2.8,2.8q2,2.2,2,4.2c1,.3,2,.7,3,1v2h2v2h2v2h2v2c.5.2,1.1.4,1.6.6,3.4,2,5.9,4.6,8.6,7.4.6.5,1.1,1.1,1.7,1.7q4.1,4.1,4.1,6.3c-2.8.8-4.4,1.2-7.2.2-.7-.4-1.4-.9-2.2-1.3-.8-.5-1.6-1-2.4-1.4-.8-.5-1.7-1-2.5-1.5-.8-.5-1.6-1-2.5-1.5-1.6-1-3.2-2-4.9-2.9-1.6-1-3.2-1.9-4.7-2.9-.7-.4-1.5-.9-2.2-1.3q-.3-.2-2-1.2t-1.4-1.1v-2c-1.3-.3-2.6-.7-4-1v-2h-4v-2h-3v-2c-.7,0-1.4-.2-2.1-.2-3.6-.9-6-2.5-8.9-4.8v-2c-.7,0-1.3-.1-2-.2-4.1-1.1-7.2-3.4-10.7-5.8q-7.2-4.9-9.3-6v-2c-.6-.1-1.2-.3-1.8-.4-3.5-1-6.3-3-9.2-5-.7-.4-1.3-.9-2-1.3q-15.8-10.8-19-17.3h-3c-1.7-1.8-3.2-3.6-4.6-5.6-.4-.6-.9-1.2-1.3-1.8-27.5-37.4-38.2-82.1-41.8-127.5-.2-2.3-.4-4.6-.6-7-1.2-14.4-1.9-28.7-1.7-43.2Z"/>
        <path class="st65" d="M316,853q.3.4,1.7,2.2c7.9,9.7,19,17.4,30.3,22.8v2c.7.2,1.4.5,2.1.7,3.6,1.6,6.8,3.7,10.1,5.8q6.5,4.3,9.9,5.4l3,3q2,1.2,4.2,2.2c.7.3,1.4.7,2.2,1q.3.1,1.6.8v2h3v2h4v2c.6.1,1.3.2,1.9.3.7.2,1.4.5,2.1.7.3,1,.7,2,1,3-3.7-1.4-6.9-3-10.2-5.1-1-.6-2-1.2-3-1.9-1-.7-2.1-1.3-3.2-2-1.1-.7-2.2-1.4-3.3-2.1-6.8-4.3-13.6-8.7-20.3-13.2-3.3-2.2-6.6-4.4-9.9-6.5q-.5-.3-3.2-2.1c-2.1-1.4-4.2-2.7-6.3-4-7.1-4.7-12.8-9.8-18.6-16.1.3-1,.7-2,1-3Z"/>
        <path class="st47" d="M393,909c3.5.7,6,2.1,9,4q.5.3,2.9,1.8c2,1.2,4,2.5,6,3.8,1,.6,1.9,1.2,2.9,1.8.9.5,1.7,1.1,2.6,1.6,3.3,1.3,5.2.8,8.6,0q1.9,1.3,3.5,3.2c2.9,3.3,5.7,5.5,9.5,7.8-.3.7-.7,1.3-1,2-11.6-5.9-23.2-11.9-34.4-18.6-.9-.5-1.7-1-2.6-1.5-.8-.5-1.6-.9-2.4-1.4-.7-.4-1.4-.8-2.1-1.3q-1.6-1.1-2.6-3.1Z"/>
        <path class="st57" d="M642,804l2,4c-.5.6-1,1.2-1.5,1.8-6.1,8-7.8,15-7.6,25,0,2.9-.2,5.7-.4,8.6q0,.5-.2,3.1c-.1.8-.3,1.6-.4,2.4q-.3.2-2,1c-.5-17.5.7-30.9,10-46Z"/>
      </g>
    </g>
    <g id="clothing-base" inkscape:label="Clothing base">
      <path class="st49" d="M245,759c-.9.7-1.7,1.4-2.6,2.1-10.2,8.3-18.2,16.4-19.7,30.1-.3,7.8.8,12.6,5.4,18.9.4.6.8,1.1,1.2,1.7,6.5,9.1,13.5,17.8,20.6,26.4,3,3.6,5.9,7.3,8.8,11.1,3.5,4.5,7.2,9,10.9,13.4,4,4.6,7.8,9.4,11.5,14.3,4.1,5.4,8.4,10.6,12.7,15.8,3.7,4.5,7.3,9,10.9,13.6,4.1,5.3,8.5,10.5,12.9,15.6,3.4,4,6.7,8,9.9,12.2,9.2,11.9,19.3,23,29.6,34.1,1.2,1.3,2.3,2.5,3.5,3.8q11.2,12.1,17.2,17.8,1.3,1.4,1.3,3.4h2q1.4,1.4,3,3.4c3.8,4.5,7.9,8.5,12.1,12.5q1.9,2.1,1.9,4.1c1.3.7,2.6,1.3,4,2v2h2q1.4,1.5,3.1,3.5c3.3,3.9,6.7,7.4,10.4,10.8q1.5,1.7,1.5,3.7h2q1.2,1.3,2.8,3.1c4.1,4.8,8.5,9.2,13,13.6,3,2.9,5.8,5.9,8.6,9.1,4.3,5,9,9.6,13.7,14.2,5.3,5.2,10.5,10.5,15.4,16.1,2.7,3.1,5.7,6,8.6,8.9,3.6,3.5,7.1,7,10.3,10.8,4.3,5,9,9.6,13.7,14.2,5.4,5.3,10.6,10.6,15.5,16.3,1.9,2.2,3.9,4.2,5.9,6.1,1.2,1.2,2.4,2.4,3.6,3.6v1c-22.9.3-45.7.5-68.6.6-10.6,0-21.2.1-31.8.3-9.3.1-18.5.2-27.8.2-4.9,0-9.8,0-14.7.1-23,.4-40.9-.8-61.4-11.8-3.9-2.1-8-3.8-12-5.4-1.3-.6-2.7-1.2-4-1.7-.7-.3-1.3-.6-2-.8-12.4-5.3-24.7-10.6-37.1-16-7.6-3.3-15.2-6.6-22.9-9.8-2.2-.9-4.4-1.9-6.5-2.8-4.9-2.2-9.7-4-14.9-5.3-5.6-1.5-10.3-3.1-14.3-7.5-4.2-8.4-5.7-17.8-7.4-26.9-1.9-10.2-4.5-20.2-7.1-30.2-1-4.1-2.1-8.2-3.1-12.3-1.7-6.9-3.5-13.8-5.3-20.7-3.6-13.2-6.8-26.4-10-39.7q-6.9-27.8-10.4-41.1c-1.7-6.5-3.3-13-4.7-19.5-.3-1.1-.5-2.2-.8-3.4-.5-2.2-1-4.3-1.5-6.5-.5-2.4-1.1-4.8-1.7-7.2-3.8-16-1.4-25.6,6.3-39.6.8-1.6,1.7-3.1,2.5-4.7,2-3.8,4.1-7.6,6.2-11.4,1.5-2.7,2.9-5.4,4.4-8.1,2.3-4.3,4.7-8.6,7.1-12.9,1.6-2.8,3.1-5.7,4.7-8.5,1.4-2.6,2.9-5.3,4.3-7.9.7-1.3,1.4-2.6,2.1-3.9,2.1-3.9,4.3-7.8,6.5-11.7q.2-.4,1.3-2.3c5.1-8.2,15.9-9.9,24.7-12.6q.5-.2,3.2-1c1-.3,2-.6,3-.9.9-.3,1.8-.5,2.7-.8q2.2-.5,4.2.5Z"/>
      <path class="st6" d="M269,752c.3,1.2.5,2.4.8,3.6,4.9,22.3,12.1,43.9,22.2,64.4.3.7.7,1.4,1,2.1,10.8,21.9,26.1,39.9,46.7,53.1,2.1,1.3,4.1,2.6,6.2,4,1,.7,2,1.3,3.1,2,3.6,2.3,7.2,4.7,10.8,7,23.9,15.6,48,30.6,73.2,43.9,1,.5,2,1.1,3,1.6,16.4,8.7,33.1,17,49.8,25.1,1,.5,2,1,3,1.4,20.8,10.2,41.7,20.2,62.7,30,7.8,3.6,15.5,7.3,23.2,11.1.7.3,1.3.6,2,1,5.2,2.6,9.3,5.5,13.2,9.7.6.6,1.2,1.2,1.8,1.8,6.1,6.4,10.8,13.9,15.8,21.2,3.2,4.7,6.5,9.4,9.9,14,6.4,8.8,12.7,17.7,18.9,26.7,2.5,3.6,5.1,7.3,7.7,10.9,4.9,7,9.9,14,14.8,21,2.8,4,5.6,8,8.5,11.9q16.7,23.1,18.8,32.5c-19.8.4-39.6.6-59.5.8-9.2,0-18.4.2-27.6.4-8,.2-16.1.2-24.1.3-4.2,0-8.5,0-12.7.2q-29.3.7-37.7-6.8c-2.3-2.5-4.4-5.1-6.3-8-1.5-2.2-3.2-4.1-5-6-.5-.6-1-1.2-1.5-1.8-3.7-4.2-7.7-8-11.7-11.9-5.3-5.2-10.5-10.5-15.4-16.1-2.7-3.1-5.7-6-8.6-8.9-3.6-3.5-7.1-7-10.3-10.8-4.3-5-9-9.6-13.7-14.2-5.3-5.2-10.5-10.5-15.3-16.1-3.5-3.9-7.3-7.5-11-11.1q-.3-.3-1.8-1.8c-.5-.5-1.1-1.1-1.6-1.6q-1.2-1.4-1.2-3.4h-2q-1.4-1.5-3.1-3.5c-3.3-3.9-6.7-7.4-10.4-10.8q-1.5-1.7-1.5-3.7h-2q-1.2-1.3-2.8-3.1c-4.2-5-8.9-9.6-13.6-14.1q-.3-.3-1.8-1.8c-.5-.5-1.1-1.1-1.6-1.6q-1.2-1.4-1.2-3.4h-2q-1.3-1.4-2.9-3.3c-3-3.6-6.2-6.9-9.6-10.2-3.7-3.6-7.2-7.3-10.5-11.2-2.2-2.5-4.4-4.9-6.7-7.3-6.1-6.5-11.8-13.1-17.3-20-4.3-5.3-8.6-10.5-13-15.7-4.7-5.5-9.2-11.1-13.7-16.8-3.7-4.7-7.5-9.4-11.3-14-4.3-5.2-8.5-10.4-12.7-15.8-3.5-4.5-7.1-8.9-10.8-13.2-4.2-4.9-8.3-9.9-12.2-15.1-3.6-4.6-7.2-9.1-10.9-13.6-7.9-9.6-15.4-19.5-22.4-29.9q-.3-.5-1.9-2.8c-2.7-8.2-1.6-16.8,1.6-24.6,4.9-9.6,14.4-19.9,24.9-23.5,1.5-.4,3-.7,4.4-1.1,1.9-.6,3.9-1.1,5.8-1.7,3.3-.9,5.6-1.3,9.2-1.3Z"/>
      <path d="M165,903h2c2.2,9,4.5,17.9,6.7,26.9,1.2,4.8,2.4,9.7,3.6,14.5.9,3.6,1.8,7.2,2.7,10.8q6.8,27.5,10.3,39.6c1.7,6,3.1,12.1,4.6,18.2,2,8.5,4.2,17.1,6.3,25.6.4,1.5.8,3,1.1,4.4,1.6,6.1,3.1,12.2,4.7,18.3,1,3.8,1.9,7.6,2.9,11.3.4,1.4.7,2.9,1.1,4.3.5,2,1,3.9,1.5,5.9.3,1.1.6,2.2.9,3.4q.6,2.8.6,5.8c.8.3,1.7.5,2.5.8,3.8,1.3,7.5,2.9,11.3,4.5.7.3,1.5.6,2.2,1,1.6.7,3.2,1.4,4.8,2.1,4.2,1.8,8.4,3.6,12.6,5.5.8.4,1.7.7,2.5,1.1,6.8,3,13.7,5.9,20.5,8.8,8.9,3.8,17.8,7.6,26.7,11.4,18.6,8.1,37.2,16,55.9,23.9v1H0v-115c6.6-6,12.9-11.6,20-17,8.3-6.5,16.5-13.1,24.7-19.8,5.1-4.2,10.2-8.3,15.4-12.4,3.5-2.7,7-5.5,10.4-8.3,4.7-3.9,9.5-7.7,14.3-11.4,4.5-3.5,8.9-7.1,13.4-10.8,3.1-2.5,6.3-5,9.4-7.5,6.1-4.8,12.1-9.7,18.1-14.6,4.4-3.6,8.8-7.2,13.3-10.7,5.5-4.3,10.9-8.6,16.2-13.1.7-.6,1.5-1.2,2.2-1.8q5.2-4.3,7.5-6.6Z"/>
      <path class="st49" d="M704,925c7.6,2,15.1,4.3,22.5,6.7,1.1.4,2.2.7,3.3,1.1,3.5,1.2,7,2.3,10.5,3.5,1.2.4,2.4.8,3.6,1.2q86.3,28.8,122.5,54.6c2.2,1.6,4.5,3.2,6.7,4.7,8.2,5.8,16.1,11.9,23.9,18.1.7.5,1.3,1.1,2,1.6,2.1,1.7,4.2,3.4,6.3,5.1.6.5,1.3,1,1.9,1.5,1.2,1,2.4,2,3.7,3,1.4,1.2,2.9,2.3,4.4,3.4q6.2,4.8,7.5,8.9c.3,3,.3,5.9.2,9,0,1.2,0,2.3,0,3.5,0,3.7,0,7.4-.1,11.1,0,2.3,0,4.6,0,6.9,0,8.5-.2,17-.3,25.5-.2,19-.4,37.9-.6,57.5h-143q-12.4-34.9-17-49.1c-1.4-4.2-2.9-8.4-4.5-12.5-7.3-19.4-7.9-33.3-3.5-53.4,4.4-22.1-1.2-45.2-13-64-5.3-7.7-11.2-14.8-17.3-21.8-4-4.7-7.8-9.4-11.7-14.2-.8-.9-1.5-1.9-2.3-2.8-.7-.9-1.5-1.8-2.2-2.7-.7-.8-1.3-1.6-2-2.4q-1.4-2-1.4-4Z"/>
      <path class="st5" d="M631,850c3.1,1.4,5.2,2.9,7.5,5.3q.3.3,2,2c.7.7,1.3,1.4,2,2.1.7.7,1.3,1.3,2,2,1.3,1.3,2.5,2.6,3.8,3.9,1.4,1.4,2.7,2.7,4.1,4q1.5,1.6,1.5,3.6l3,1q1.5,1.5,3.1,3.5c2.7,3.2,5.4,6.1,8.4,9,3.3,3.3,6.5,6.7,9.6,10.3,1.9,2.2,3.9,4.4,5.9,6.5,4.9,5.3,9.5,10.6,14,16.2,2.2,2.7,4.6,5,7.1,7.5,1.4,1.6,2.7,3.3,4.1,4.9,3.6,4.4,7.3,8.8,11,13.1,4.8,5.6,9.5,11.1,13.9,16.9.4.5.8,1,1.2,1.5,15.8,20.5,23.3,44.1,20.5,70.1q-1.8,13.7-3.7,19.4c-1.1,13.1,1,23.4,5.6,35.6.6,1.6,1.2,3.2,1.7,4.8,1.2,3.4,2.5,6.8,3.7,10.2,3.1,8.4,5.9,16.9,8.8,25.4.9,2.7,1.9,5.5,2.8,8.2.6,1.7,1.1,3.3,1.7,5,.3.8.5,1.5.8,2.3q1.8,5.3,1.8,7.5h-49c-1-3-2-5.9-3-9q-20.3-60.3-31-83-.1-.3-.9-1.9c-6.2-13.2-13.7-25.6-21.1-38.1-.4-.7-.8-1.4-1.2-2.1-3.8-6.5-7.7-12.9-11.6-19.3-1.5-2.4-2.9-4.8-4.4-7.2-.4-.6-.7-1.2-1.1-1.8-6.5-10.8-13-21.6-19.4-32.5-1.4-2.4-2.8-4.8-4.3-7.1-.3,6.9-.7,13.9-1,21h-1q0-.3,0-2.1-.7-22.5-2-30c-2.7-16.6-.9-34,0-50.8,0-.8,0-1.6.1-2.5.6-12,1.6-23.8,3-35.7Z"/>
      <path class="st48" d="M631,949c3.5,3.5,5.6,6.5,7.9,10.8,3.9,7,7.9,13.9,12.1,20.8q.3.5,1.8,3c1.2,1.9,2.4,3.9,3.6,5.8,2.8,4.6,5.6,9.2,8.3,13.9,1.7,2.8,3.3,5.6,5,8.3,21,34.7,37.6,69.2,50.1,107.8,1.2,3.6,2.3,7.1,3.5,10.7.4,1.1.7,2.2,1.1,3.3.7,2.1,1.4,4.1,2.1,6.2.3.9.6,1.8.9,2.8q.1.4.8,2.4c.7,2.4,1.2,4.8,1.7,7.3h-44c-3-5.6-5.9-11.2-9-17-2.1-3.3-4.1-6.5-6.4-9.6q-.3-.4-1.7-2.4c-3.8-5.5-7.8-10.9-11.8-16.3-3.6-4.9-7.1-9.9-10.5-15-4.8-7-9.7-14-14.7-20.8-4.1-5.6-8.1-11.2-12-16.9-.6-.8-1.2-1.7-1.8-2.5-1.2-1.7-2.3-3.3-3.5-5q-17.2-24.7-26.7-36.4c.7-.2,1.3-.4,2-.5,3-.8,6-1.7,9-2.6,1-.3,2-.6,3.1-.9,7.7-2.3,15-5,19.9-11.6.3-.8.7-1.6,1-2.4.4-.8.7-1.6,1.1-2.4,2.2-5.7,3.4-10.9,4.1-16.9,0-.7.2-1.5.3-2.2.2-1.8.4-3.6.6-5.4h1l1-16Z"/>
    </g>
  </g>
</svg>