<?xml version="1.0" encoding="UTF-8"?>
<svg id="Layer_1" xmlns="http://www.w3.org/2000/svg" xmlns:inkscape="http://www.inkscape.org/namespaces/inkscape" version="1.1" viewBox="0 0 1168.9 1342.2">
  <!-- Generator: Adobe Illustrator 30.5.1, SVG Export Plug-In . SVG Version: 2.1.4 Build 3)  -->
  <defs>
    <style>
      .st0 {
        fill: #823929;
      }

      .st1 {
        fill: #edc396;
      }

      .st2 {
        fill: #eab985;
      }

      .st3 {
        fill: #da9d61;
      }

      .st4 {
        fill: #8c5d34;
      }

      .st5 {
        fill: #887c68;
      }

      .st6 {
        fill: #d59357;
      }

      .st7 {
        fill: #403831;
      }

      .st8 {
        fill: #35291f;
      }

      .st9 {
        fill: #83282c;
      }

      .st10 {
        fill: #e0a567;
      }

      .st11 {
        fill: #a82b27;
      }

      .st12 {
        fill: #e3c5a3;
      }

      .st13 {
        fill: #85532e;
      }

      .st14 {
        fill: #593828;
      }

      .st15 {
        fill: #99916e;
      }

      .st16 {
        fill: #251e18;
      }

      .st17 {
        fill: #4f4841;
      }

      .st18 {
        fill: #415f38;
      }

      .st19 {
        fill: #41352f;
      }

      .st20 {
        fill: #e8dcc9;
      }

      .st21 {
        fill: #943b2a;
      }

      .st22 {
        fill: #d1d5d3;
      }

      .st23 {
        fill: #4b4640;
      }

      .st24 {
        fill: #e0a96b;
      }

      .st25 {
        fill: #4c3e35;
      }

      .st26 {
        fill: #35231b;
      }

      .st27 {
        fill: #a39576;
      }

      .st28 {
        fill: #332318;
      }

      .st29 {
        fill: #edc497;
      }

      .st30 {
        fill: #4e4740;
      }

      .st31 {
        fill: #dda265;
      }

      .st32 {
        fill: #423122;
      }

      .st33 {
        fill: #774837;
      }

      .st34 {
        fill: #d0965f;
      }

      .st35 {
        fill: #433934;
      }

      .st36 {
        fill: #282420;
      }

      .st37 {
        fill: #3f2c1f;
      }

      .st38 {
        fill: #7e512d;
      }

      .st39 {
        fill: #2d2720;
      }

      .st40 {
        fill: #c3894c;
      }

      .st41 {
        fill: #733d2d;
      }

      .st42 {
        fill: #9a8a6b;
      }

      .st43 {
        fill: #8f5e34;
      }

      .st44 {
        fill: #dca162;
      }

      .st45 {
        fill: #87201d;
      }

      .st46 {
        fill: #59412a;
      }

      .st47 {
        fill: #473626;
      }

      .st48 {
        fill: #433b32;
      }

      .st49 {
        fill: #c58a50;
      }

      .st50 {
        fill: #33261c;
      }

      .st51 {
        fill: #2a2621;
      }

      .st52 {
        fill: #37251f;
      }

      .st53 {
        fill: #af7644;
      }

      .st54 {
        fill: #a92722;
      }

      .st55 {
        fill: #49311f;
      }

      .st56 {
        fill: #d9dad4;
      }

      .st57 {
        fill: #9d876f;
      }

      .st58 {
        fill: #d09658;
      }

      .st59 {
        fill: #86211c;
      }

      .st60 {
        fill: #6e3c2f;
      }

      .st61 {
        fill: #c9322b;
      }

      .st62 {
        fill: #763e29;
      }

      .st63 {
        fill: #e2a96e;
      }

      .st64 {
        fill: #ba6d42;
      }

      .st65 {
        fill: #e3a86a;
      }

      .st66 {
        fill: #8f5947;
      }

      .st67 {
        fill: #968468;
      }

      .st68 {
        fill: #6f4d30;
      }

      .st69 {
        fill: #efc293;
      }

      .st70 {
        fill: #2e2822;
      }

      .st71 {
        fill: #4c4640;
      }

      .st72 {
        fill: #ab7542;
      }

      .st73 {
        fill: #27221c;
      }

      .st74 {
        fill: #c18a51;
      }

      .st75 {
        fill: #b67843;
      }

      .st76 {
        fill: #362b24;
      }

      .st77 {
        fill: #813a2c;
      }

      .st78 {
        fill: #35281e;
      }

      .st79 {
        fill: #4f483e;
      }

      .st80 {
        fill: #c5844e;
      }

      .st81 {
        fill: #37512f;
      }

      .st82 {
        fill: #694527;
      }

      .st83 {
        fill: #d89565;
      }

      .st84 {
        fill: #534b43;
      }

      .st85 {
        fill: #703d25;
      }

      .st86 {
        fill: #dea468;
      }

      .st87 {
        fill: #795230;
      }

      .st88 {
        fill: #c5312b;
      }

      .st89 {
        fill: #483525;
      }

      .st90 {
        fill: #efeae0;
      }

      .st91 {
        fill: #715f51;
      }

      .st92 {
        fill: #8b3f2c;
      }

      .st93 {
        fill: #34302b;
      }

      .st94 {
        fill: #986f57;
      }

      .st95 {
        fill: #2d231a;
      }

      .st96 {
        fill: #432f20;
      }

      .st97 {
        fill: #ce965c;
      }

      .st98 {
        fill: #a1683b;
      }

      .st99 {
        fill: #dda164;
      }

      .st100 {
        fill: #ba8149;
      }

      .st101 {
        fill: #744b29;
      }

      .st102 {
        fill: #8e7d67;
      }

      .st103 {
        fill: #916035;
      }

      .st104 {
        fill: #324b2c;
      }

      .st105 {
        fill: #c88d52;
      }

      .st106 {
        fill: #403832;
      }

      .st107 {
        fill: #c69059;
      }

      .st108 {
        fill: #46291c;
      }

      .st109 {
        fill: #d99d62;
      }

      .st110 {
        fill: #494139;
      }

      .st111 {
        fill: #dfa46c;
      }

      .st112 {
        fill: #9b7a66;
      }

      .st113 {
        fill: #c69767;
      }

      .st114 {
        fill: #754e2e;
      }

      .st115 {
        fill: #573926;
      }

      .st116 {
        fill: #964630;
      }

      .st117 {
        fill: #443e39;
      }

      .st118 {
        fill: #c88e53;
      }

      .st119 {
        fill: #ab733f;
      }

      .st120 {
        fill: #644126;
      }

      .st121 {
        fill: #6f4a2f;
      }

      .st122 {
        fill: #cfa158;
      }

      .st123 {
        fill: #cf9f59;
      }

      .st124 {
        fill: #8d4031;
      }

      .st125 {
        fill: #a88e72;
      }

      .st126 {
        fill: #eec294;
      }

      .st127 {
        fill: #87211c;
      }

      .st128 {
        fill: #c4312b;
      }

      .st129 {
        fill: #4a423a;
      }

      .st130 {
        fill: #2f241b;
      }

      .st131 {
        fill: #26221f;
      }

      .st132 {
        fill: #d59758;
      }

      .st133 {
        fill: #8d5d32;
      }

      .st134 {
        fill: #9a3d2e;
      }

      .st135 {
        fill: #524b44;
      }

      .st136 {
        fill: #423b33;
      }

      .st137 {
        fill: #5d442d;
      }

      .st138 {
        fill: #6d5035;
      }

      .st139 {
        fill: #bac4cc;
      }

      .st140 {
        fill: #423224;
      }

      .st141 {
        fill: #926034;
      }
    </style>
  </defs>
  <rect id="background" class="st9" width="1168.9" height="1342.2"/>
  <g id="subject" inkscape:groupmode="layer" inkscape:label="Subject">
    <g id="clothing-base" inkscape:label="Clothing base">
      <path class="st61" d="M0,1252.9v89.3h1150.8c-5.5-22.2-11.1-44.4-16.8-67.2-3.5-11.4-7-22.5-11-33.6q-.4-1.2-2.6-7.5c-4-11.3-8.2-22.1-13.7-32.7-2.2-4.3-4.2-8.6-6.2-13.1-10.7-23.6-23-45.2-37.9-66.5-.8-1.2-1.7-2.4-2.5-3.7-15-21.7-31.9-37.5-54.4-51.2-7.8-5-15-10.7-22.3-16.4-9.3-7.3-19-14.1-28.8-20.8-11.6-8-22.4-16.4-32.9-25.7-23.5-20.7-49.7-35.8-77.4-50.1-4.4-2.3-8.8-4.7-13.1-7.1-1.8-1-3.6-1.9-5.4-2.9-3.7-2.1-7.3-4.4-10.9-6.8l-4.2,4.2c-.1-1.3-.2-2.5-.4-3.8-2.5-6.6-6.2-7.5-12.5-10.5-12.6-6.5-21.3-14-30-25.2-8.4-10.6-10.9-9.2-13.8-13.7,0,0,28.5,42-20.3,86.4-48.8,44.4-55.9,37.9-89.1,58.8-33.3,20.9-66.4,77.2-90.1,92.3s-41.1,28.2-77.6,26.6-64-31.5-69.9-47.1l-55.1-150c-4.9,4.4-10.4,6.3-16.4,8.8-16.1,6.9-32.1,14.1-48,21.4-2.7,1.3-5.4,2.5-8.1,3.8-15.8,7.2-31,14.9-46,23.7-11.7,6.8-23.7,13-35.7,19.1q-141,72.8-164.5,143.1c-1.2,4-2.5,8-3.7,11.9-1.2,3.2-2.3,6.3-3.5,9.5-2,5.3-3.6,10.3-4.9,15.8"/>
      <path class="st11" d="M0,1247.7c7.1-16.5,13.4-16.5,15.1-26.1.3-1.8.7-3.6,1-5.5.2-1.3.5-2.7.7-4.1h4.2c.3-2.6.5-5.3.8-8,.8-7.9,3.3-12.3,8.3-18.6,4.1-5.7,7.3-11.7,10.6-17.8q26.5-49.5,41.2-54.3c4.1-.4,8.2-.8,12.4-1.1,15.4-1.1,26.2-3,38.4-12.9,8-6.5,16.4-12.1,25-17.8q74.2-50.7,88.6-65.3,3.7-3.6,7.9-3.6s57.4-7.9,75.6-10.5l39.9,52.5c9.7,11.6,19,24,26.3,37.3q3.1,4.7,9.4,6.8c2,3.5,4,7,5.9,10.6,4.4,7.1,10.2,12.7,16.2,18.5q.6.6,3.6,3.7c1.2,1.2,2.3,2.3,3.5,3.5,1,1,2.1,2.1,3.2,3.1,10.8,8.1,28.6,5.3,41.6,5.5,3.2,0,6.5.1,9.7.2,21.6.6,36.8-.6,54.9-13.7,1.5-1,3-2,4.5-3.1,4.2-2.9,8.2-6,12.3-9.1,1.4-1.1,2.9-2.2,4.4-3.3,8.2-6.3,16.3-12.8,24.3-19.4,26.1-21.6,54.5-39.9,84.1-56.3,22.8-12.7,45.4-25.9,67.3-40.1,1.6-1,3.2-2,4.8-3.1,1.8-1.2,3.6-2.3,5.5-3.6q5-2.7,11.2-2.7c8.3,2.7,12.5,6.8,19,12.6h4.2c9.2-15.6,15.9-30.9,21-48.3,1.2,1.5,2.4,3,3.6,4.6,4.6,5.7,9.5,10.8,14.7,16q.9.9,5.6,5.6c1.9,1.9,3.8,3.8,5.8,5.8,1.9,1.9,3.9,3.9,5.8,5.9,1.8,1.8,3.7,3.7,5.6,5.6,1.7,1.7,3.4,3.4,5.1,5.1q4.2,3.9,8.4,6v4.2q.6.2,3.4,1.4c11.7,6.4,23,16.6,30.2,28,0,0,82.5,42.9,102.9,69.3,10.4,8.6,17,20.8,23.9,32.2,3.4,5.5,6.9,10.8,10.6,16.1,17.5,25.3,33.1,51.5,48.3,78.3,3,5.1,6,10.2,9.1,15.2,17.6,29,18.6,54.3,20.8,89.2H0v-94.5Z"/>
    </g>
    <g id="face-base" inkscape:label="Face base">
      <path class="st58" d="M321.3,424.5c-3.5,7-2.5,14.9-2.5,22.6,0,1.7,0,3.4,0,5.1,0,9.9,1.2,17.5,4.7,26.9,2.9,18.1-1.3,30-10.9,45.4-9.5,17.7-11.1,34.6-10.9,54.3,0,2.5,0,4.9,0,7.5,0,5.2,0,10.4,0,15.5,0,7.8,0,15.7,0,23.5,0,30.7.3,60.8,9.1,90.4,3.3,11.7,5.8,23.3,7.6,35.3q1.6,10,2.9,13.6c2.1.7,4.2,1.4,6.3,2.1,1.2,1.6,2.3,3.2,3.5,4.9,10.2,11.9,25.9,15.9,40.6,20.3-1.4.7-2.8,1.4-4.2,2.1q0,.9,0,5.5c.3,17.1.4,34.3.6,51.4,0,8.8.2,17.6.3,26.4.1,8.5.2,17,.2,25.5,0,3.2,0,6.5.1,9.7,0,4.6.1,9.1,0,13.6q0,1.3,0,7.8c-2.1,9.6-6.2,11.7-14.1,17.3-1,1.1-2.1,2.3-3.1,3.4,0,0,35.2,113.9,51.4,143.6,44.1,80.8,110.5,55.4,157.5,19.3,26.8-20.6,43.7-61.2,106.4-91,159.8-75.9,86.8-138.9,86.8-138.9-5.1-3.9-10.6-7.1-16.8-9.9h-8.4c-3.6-4-6.4-7.6-9.3-12.1-.8-1.2-1.7-2.5-2.5-3.8-20.8-32.1-24.4-65-24.5-102.4,0-2.7,0-5.4,0-8.2q.2-21.1,8.7-31.3c5.9-7.7,10.8-15.8,15.8-24.1,6.4-10.6,12.9-21.2,19.7-31.6,14.5-22.8,26.8-46,33.3-72.5q1-3.8,3.1-8.2c3.1-8.8,3.5-17.8,4.2-27h2.1c7.1-32.9,11.6-64.5,11.4-98,0-1.5,0-2.9,0-4.4,0-16.7-1-32.5-5.1-48.7q-.2-1-1.4-6.1c-3-10.7-7-19.3-13.3-28.4q-2.1-3.3-2.1-7.5-.6-.3-3.7-1.5c-5.5-3.2-8.1-6.5-11.9-11.6-1.3-1.7-2.5-3.4-3.9-5.1q-.6-.8-3.6-4.8c-7.5-9.7-15.7-17.5-25.2-25.2-1.5-1.3-3-2.5-4.6-3.8-7.5-6.1-14.1-11.2-23.3-14.4-7.9-2.8-12-5.9-18.4-11.2-4.9-2.3-9.7-4.3-14.7-6.3q-.7-.3-4.5-1.9c-15.7-6.5-31.8-11.7-48-17q-1-.4-5.8-2.1c-49.4-15-129.4-25.2-177,0q-6.2,4.2-10.4,10.5-.9,6.1-1.3,13c-.2,2.3-.3,4.6-.5,6.9q0,.9-.3,5.3l12.6,2.1v2.1c-2.4.4-4.8.9-7.2,1.3-11.1,2.8-19.4,8.6-28.5,15.5-1.5,1.1-3,2.2-4.5,3.4-24.4,19.7-35.5,52.7-42.5,82.4q-1.3,4.6-5.5,10.9"/>
    </g>
    <g id="face-details" inkscape:label="Head and face">
      <g id="neck" inkscape:label="Neck">
        <path class="st58" d="M648.9,653.4l2.1,4.2c9.2,4.6,19.4,6.3,29.4,8.4,0,3,0,5.9.1,8.9,0,1.7,0,3.3,0,5q-.2,5-1.2,8.8c-1.3,5.3-2,10.6-2.7,16-.3,2.2-.6,4.3-.8,6.5q-.1,1.1-.9,6.8c-.3,2.3-.6,4.5-.9,6.9-.7,5.6-1.4,11.2-2.1,16.8,1.4-.7,2.8-1.4,4.2-2.1q1-4.8,1.8-11.2,5.3-34.5,15.2-43.1c1.3-.8,2.6-1.6,3.9-2.4-.2,2.7-.3,5.4-.5,8.1-1.9,36.5-1.9,72.9-1.6,109.5h-2.1c-1.4,9.2-2.8,18.4-4.2,27.6-.4,2.6-.8,5.2-1.2,7.9-.4,2.5-.8,5-1.1,7.6q-.2,1.2-1.1,7c-1.2,10.6-1.9,18.7,3.4,28.2.9,1.6,1.8,3.2,2.7,4.9,1,1.7,1.9,3.4,2.9,5.1,1.9,3.6,3.9,7.1,5.8,10.7.9,1.7,1.9,3.5,2.9,5.3q17.5,32.5,15.3,51.1,0,1.2.1,7.4c-4.8,15.7-21.6,29-35.8,36.8-3.9,1-7.8,1.9-11.7,2.8-10.5,2.8-20.6,6.9-30.8,10.8q-1.1.4-6.8,2.6-25.9,9.8-30.4,19.5-4.2,4.7-8.4,8.4h-4.2v4.2c-3.4,3.6-6.9,7.1-10.5,10.5-.7.7-1.4,1.4-2.1,2.1-5.8.3-11.6.5-17.5.5q-.8,0-4.9.1c-9.7,0-14.1-.6-21.7-7q-4.4.1-8.4,2.1-2.7,3.8-5,8.8c-.9,1.9-1.7,3.7-2.7,5.7-2.1,4.8-4.2,9.6-6.2,14.4-.6,1.3-1.1,2.7-1.7,4-1.6,3.9-3.2,7.7-4.8,11.6q-2.8,5.9-7,8c0-1.4-.2-2.7-.2-4.2-.1-1.8-.3-3.7-.4-5.6-.1-1.8-.2-3.6-.4-5.5-1.3-7.3-3.3-12.2-7.4-18.4-4.8-3.2-9-5.5-14.2-7.9-1.3-.6-2.5-1.2-3.8-1.8-8.6-4.1-17-6.8-26.1-9.2-1.4,5.5-2.8,11.1-4.2,16.8-9.3-3.1-11.7-10.2-16.6-18.4q-4.4-4.7-11.6-5.5t-10.5-4.2c-2.7-3.9-5.1-7.8-7.4-11.9-.8-1.4-1.7-2.8-2.5-4.2-2-3.4-4-6.9-6-10.3l-4.2,4.2q-15.9-63.5-14.7-96.6c1.4,1.5,2.8,2.9,4.2,4.5,9.1,9.1,20.4,20.2,33.6,21.3,2.1-.2,4.2-.3,6.3-.5,8.3-12.5,4.5-27.3,1.8-41.4-5.3-26.5-14.8-50-27-74.1-4.5-11-5.4-21.9-6.3-33.6l14.7,14.7,2.1-4.2h6.3c.6,1.5,1.1,2.9,1.7,4.4.7,1.9,1.5,3.8,2.2,5.8.7,1.9,1.5,3.8,2.2,5.8q2.2,5,6.4,9.2h-12.6c1.5,7.3,3.1,14.5,4.6,21.7,1,4.4,1.9,8.8,2.8,13.3q1,4.5,3.1,11.2l6.3,2.1q0,.7.5,4.1c1.9,7.6,4.9,14.1,8.2,21.2q1.8,4.2,1.8,8.4,4.9.3,29.4,2.1,0-6.3-4.5-13.3c-3.9-6.4-4.1-7.1-2.4-15q.4-.9,2.6-5.4c-2,.3-4.1.7-6.2,1.1-9.1,1.3-18.2,1.2-27.4,1.1v-2.1h6.4c9.7-1.4,14.1-7.1,19.9-14.4,3.7-5.5,5.7-10.6,7.2-17.1l2.1-6.3c-3.4-6.7-7.2-11.6-12.6-16.8,3.3-2.4,6.6-4.7,10-7.1,1.9-1.3,3.7-2.6,5.6-4,13.5-9.1,23-8.3,39-5.7q4.8,1.6,8.9,3.3c8.3,3.4,15.8,5.5,24.7,3,14.2-8.7,26-21.3,38.1-32.6,6.1-5.3,12.5-9.7,19.1-14.3,13.9-10.1,20-21.7,26.8-37.1h4.2c.3-2,.5-4,.8-6q1.3-6.6,5.5-10.8c1.5-4.9,2.9-9.8,4.2-14.7.7-2.5,1.3-5,2-7.6.7-2.6,1.3-5.1,2-7.8q9.6-36.1,12.7-39.2ZM462,995.7c-.7,1.8-1.4,3.5-2.1,5.4-.9,2.3-1.8,4.6-2.8,7q-.5,1.1-2.7,6.9-2.9,5.9-9.2,10.1c1.1,8.1,4.4,11.2,10.8,16.1,8.3,6,14.3,10.3,24.9,9.1,7.3-4.9,11.8-10.8,13.6-19.5.4-10.2-1-18.5-7.3-26.8-8.1-4.9-15.7-8.4-25.2-8.4Z"/>
        <path class="st133" d="M665.7,605.1c.7,2.1,1.4,4.2,2.1,6.3q-2.9,4.6-7,9.8c-7,9.6-9.9,16.3-11.9,28-.6,2.8-1.2,5.5-1.8,8.3q-.2.8-1,4.7c-.4,2-.9,3.9-1.3,6q-.2.7-.9,4.2c-1.1,4.8-2.2,9.6-3.3,14.4-.3,1.6-.7,3.2-1.1,4.8-1.7,7.2-3.2,12.3-7.3,18.6-1.4,4.9-2.8,9.8-4.2,14.7-2,5-4.1,9.8-6.3,14.7h-4.2c-.5,1.7-1,3.5-1.4,5.3-6.6,17.5-16.1,27.1-30.9,38.2-8.9,6.7-17.2,13.7-25.2,21.4q-22.4,20.8-34.7,22.3c-7.6-.5-13.9-2.7-20.9-5.7-7.5-2.9-15.4-4.3-23.3-5.9q4.2-4.2,9.3-5.9c6.9-3.2,8.4-6.3,11.7-13,.6-1.7,1.2-3.5,1.8-5.2,8.5-18.7,39.5-26,57.3-33.1q3.8-1.6,8-3.7c-16.8,1.3-33.3,3.5-49.9,6.2-15.3,2.4-30.5,4.8-45.8,6.7-8.2,1-16.2,2.3-24.3,4.2-6.6,1.5-11.9,2.3-18.6,1.8l4.2-2.1v-4.2c-13.4-7.5-27.7-9.2-42.7-11-6.8-1.9-8.1-4.3-11.9-10-2.1-.7-4.2-1.4-6.3-2.1.7-2.1,1.4-4.2,2.1-6.3v4.2h4.2v-6.3c3.5-1.4,6.9-2.8,10.5-4.2v12.6h4.2v-6.3h4.2v4.2c1.9-.4,3.7-.8,5.6-1.2q7-.9,12.2.3t11.4-1.3c8-2.4,11.6-1.4,19,2.2.7,2.1,1.4,4.2,2.1,6.3h-8.4c.7,2.1,1.4,4.2,2.1,6.3-.7,1.4-1.4,2.8-2.1,4.2,14.8,1.2,27-1.2,41.1-5.6,14.5-4.5,29.2-8.1,43.8-12,13.5-3.6,26.8-7.6,40-12.2,4.5-1.5,9-2.7,13.6-3.9,17.2-5.6,23.8-20.6,31.6-35.7,4.2-9,8.1-18.2,11.8-27.4,3.7-9.1,7.5-18.1,11.3-27.2.9-2.2,1.8-4.5,2.8-6.8.9-2.1,1.8-4.2,2.7-6.3.8-1.9,1.6-3.7,2.4-5.7q2.6-4.3,10.3-6.5c2.3,0,4.7,0,7.1.1,2.1-1.4,4.2-2.8,6.3-4.2Z"/>
        <path class="st101" d="M571.2,752.1c-4.8,5.5-9.3,8-16,10.7-1.9.8-3.8,1.6-5.8,2.4-4,1.6-8,3.2-11.9,4.8q-28.5,11.8-34.9,25.3c-.9,2.4-1.8,4.8-2.8,7.2-4.3,5.4-7.1,7.9-13.5,10.4-7.1.2-9.9-2.5-15.9-6.2-15.7-4.9-31.6-5-47.9-5.4-1.9,0-3.8-.1-5.7-.2-1.7,0-3.4,0-5.2-.1q-4.2-.6-8.4-4.8c1.5-.4,3.1-.8,4.7-1.2q22.3-5.7,28.9-11.4v-8.4c6-7,12.9-7.2,21.7-7.9,6.1-.6,12.1-1.4,18.1-2.4q1.2-.2,7.3-1.1c2.5-.4,4.9-.8,7.5-1.2,4.7-.7,9.5-1.5,14.2-2.2,2.3-.4,4.7-.7,7.1-1.1,4.8-.7,9.5-1.5,14.3-2.2,2.3-.4,4.6-.7,7-1.1,2.1-.3,4.1-.6,6.2-1,3.8-.6,7.5-1.3,11.3-2.1,6.6-1.2,13-1.1,19.7-.9Z"/>
        <path class="st43" d="M737.1,621.9l4.2,2.1c-2.7,2.9-5.5,5.7-8.4,8.4h-4.2c-.4,1.6-.7,3.2-1.1,4.8-2.8,12-6,23-11.3,34.1-3.9,8.6-7.1,17.4-10.4,26.3q-2.4,6.1-4.7,10.7c-2.6,5.3-3.2,10.6-4,16.4h-2.1v-39.9q-1,1.7-6.3,10.5h-4.2c-.7,3.5-1.4,6.9-2.1,10.5h-4.2c.3-2.7.7-5.5,1.1-8.3,1.1-9.9,1.2-19.6,1.1-29.5q-3.1-.7-18.9-4.2v-2.1c1.5-.2,3.1-.5,4.7-.7q21.4-3.5,28.9-9.8,3.8-5.6,6.3-10.5l-4.2-2.1c1.6-.5,3.3-1,5-1.5q20.2-6.5,28.9-11.7c2-1.2,4-2.3,6-3.5Z"/>
        <path class="st96" d="M409.5,800.4q53.5-1.4,71.4,10.5v4.2c-4,2-8,4-11.9,6-2.2,1.1-4.4,2.2-6.7,3.4-2.2,1-4.3,2.1-6.5,3.2-1.7,1-3.5,2-5.2,3q-5.3,1.2-11.7-1.8-1.1-.8-6.9-4.7c-9.4-6.3-18.2-11.2-28.6-15.4,1.4-.7,2.8-1.4,4.2-2.1.7-2.1,1.4-4.2,2.1-6.3Z"/>
        <path class="st4" d="M380.1,798.3c10.1,1.4,18.6,5.4,27.7,9.7,1.6.7,3.2,1.5,4.8,2.2,12.5,6,23.8,13.1,34.7,21.6q-7.8,8.1-14.7,8.8-.8,0-4.9,0c-1.6,0-3.2.1-4.9.2-6.2-.9-8.8-2.6-13.2-7q-2.2-5.2-3.7-10.9c-.5-1.9-1-3.8-1.5-5.7-.4-1.4-.7-2.9-1.1-4.4h-6.3l-2.1,6.3c-2.5-2.7-4.9-5.4-7.4-8.1-1.4-1.5-2.7-3-4.1-4.6q-3.2-4.1-3.2-8.3Z"/>
        <path class="st115" d="M701.4,640.8c-2.5,7-4.4,12.3-10.5,16.8-10.8,5-21.9,5.1-33.6,4.2q-2.1-2.1-2.5-7.2t4.6-9.6q5.7-.8,12.5-1.2c10.2-.6,19.4-3.3,29.5-3Z"/>
        <path class="st119" d="M680.4,668.1h2.1c.4,13.4-.8,24.9-4.2,37.8h4.2c.7-3.5,1.4-6.9,2.1-10.5,2.3,6.9,1.9,10.6-.8,17.3-3.3,9-4.6,17.2-5.5,26.8q-1,.3-6.3,2.1c.3-6,.6-11.9.9-17.9q0-.8.2-5,1.6-30.3,5.1-33.8c.5-2.8.9-5.7,1.2-8.5q.2-1.4.9-8.3Z"/>
        <path class="st10" d="M682.5,999.9c-11.4,10.5-22.7,20.8-34.8,30.6-11.2,9-21.9,18.4-32.4,28.2-1.5,1.4-3,2.7-4.6,4.1-9.1,8.6-16.6,17.7-24,27.8-13.1,17.9-25.9,32-44.9,43.7-1.4.9-2.8,1.9-4.2,2.9-15.4,9.3-30.9,9.1-48.3,8.7-4.9-.1-9.7-.1-14.6-.1-3.1,0-6.2,0-9.4-.1-1.4,0-2.9,0-4.4,0-11.8-.3-20.3-2.4-28.7-10.8-1.2-1.2-2.3-2.3-3.5-3.5-1.2-1.2-2.4-2.4-3.6-3.6-1.2-1.2-2.4-2.3-3.6-3.5-14.1-14.2-19.5-27.6-23.6-46.8-3.4-15.2-7.2-29.9-12.2-44.7-1.5-5.6-1.7-10.2-1.5-15.9,6.5,5.9,10.3,11.5,14.3,19.3q3.3,5.7,6.7,10.1c2.3.3,4.7.6,7.1.9q7.6,1.2,12.1,6.3c3,4.2,5.9,8.5,8.7,12.8q3.6,5.2,7.8,7.3c0-1.9-.2-3.9-.3-5.9q.3-6.7,4.5-13,39.1,11.7,47.9,24.3c.8,1.7,1.7,3.4,2.5,5.1.7,1.4,1.4,2.8,2.1,4.2.5,3.2.9,6.5,1.2,9.7.2,1.7.4,3.4.5,5.2.1,1.3.3,2.6.4,4,.5-1.1.9-2.1,1.4-3.2,2.1-4.9,4.3-9.8,6.5-14.7.7-1.7,1.5-3.4,2.2-5.1q12.3-27.8,19.3-31.8,4.2.3,7.5,3.4c7.3,4.6,14.5,4.3,22.9,4.2,1.6,0,3.2.1,4.8.2,4.6,0,8.6-.1,13-1.2q5.1-5.3,8.4-10.5h4.2v-4.2q2.8-2.8,6.7-5.9c4.6-3.7,8.4-7.2,12.2-11.7,9.3-8,19.9-11.2,31.4-15.3,2.2-.8,4.5-1.6,6.8-2.5,6.2-2.2,12.3-4.4,18.5-6.6,2.2-.8,4.5-1.6,6.8-2.5q5.8-1.7,10,.4Z"/>
        <path class="st31" d="M367.5,794.1c3.5.7,6.9,1.4,10.5,2.1,2.8,7.5,4.7,14.8,6,22.6,2.5,13.1,6.8,25.6,13.9,37,13.3,22.9,25.1,63.4,20,89.5q-2.9,4.7-6.3,8.4c-6.8,1.6-11,.8-17.2-2.3-11-6.9-24.4-16-28.1-29.2-1.3-8.8-1.2-17.6-1.2-26.5q0-1,0-6c0-4.2,0-8.3,0-12.5,0-6.3,0-12.6,0-18.8,0-21.5.4-42.9,2.4-64.3Z"/>
        <path class="st86" d="M690.9,794.1c4.7,7,5.8,12.4,7.7,20.6,7.4,29.3,22.3,51.8,42.5,74.1,7.6,9,10.6,15.9,9.8,27.8-4,18.4-17.4,36.6-30.6,49.6h-6.3c.3-1.3.7-2.7,1.1-4.1,3.4-20.9-1.5-33.3-11-51.8-1.1-2.3-2.3-4.6-3.4-7-4.6-9.3-9.3-18.5-14.7-27.3-3.7-7.1-4.2-10.2-3.2-18q.1-1.2.8-7c.4-2.9.8-5.8,1.2-8.8.5-4.2,1.1-8.3,1.6-12.5,1.5-11.9,3.1-23.9,4.7-35.8Z"/>
        <path class="st24" d="M446,836.2q5.5,2,10.9,7c4,10.2,1.9,15.2-2.3,25-4.6,8.5-9.4,15.3-17.8,20.4-6.6,1.8-9.8,1.3-16.8,0-7.8-6.1-10.3-12.2-13.1-21.7-.7-2.3-1.4-4.6-2.1-6.9-1.6-7.5-1.8-14.2-1.5-21.8,2.4,0,4.8,0,7.2,0,3.1,0,6.2,0,9.3,0,1.6,0,3.1,0,4.8,0,7.6,0,14.3-2.3,21.5-2.2Z"/>
        <path class="st72" d="M462,995.7q22,4.1,29.3,13.9c3.4,10.7,5.2,20.2,0,30.5-3.1,4.2-6,7.2-10.3,10.1-9.3,1.3-12.6-.6-20.3-6-5.3-4.2-10.4-8.4-15.4-12.9q.8-4.1,2.1-8.4c1.4-.7,2.8-1.4,4.2-2.1,2-4.2,3.8-8.4,5.5-12.7q.5-1.2,2.8-7,.4-.9,2.1-5.4Z"/>
        <path class="st141" d="M455.7,886.5v16.8q1.8,4.5,4.2,8.9c.8,1.5,1.6,3,2.4,4.5.6,1.1,1.2,2.2,1.8,3.4q-4.2,4.2-8.4,4.2c-3.3-.5-6.7-.9-10-1.4q-4.7-.7-10.6-.8c-6.8-2.9-8.3-7.6-11.2-14.1-2.4-6.4-4.3-12.7-6-19.3q.8,0,4.9,0,1.1,0,6.4,0,1,0,6.3,0c7.2-.3,12.7-2.5,20.2-2.3Z"/>
      </g>
      <g id="beard">
        <path class="st37" d="M348.6,756.3l2.1,4.2h4.2c.7-1.4,1.4-2.8,2.1-4.2.7,1.4,1.4,2.8,2.1,4.2,3.5-.7,6.9-1.4,10.5-2.1,1.4,2.1,2.8,4.2,4.2,6.3h4.2q3.4-4.2,6.3-8.4c4.9.7,9.7,1.4,14.7,2.1q.3,1,2.1,6.3,1.1,0,6.6-.3c7.9.3,13.5,1.6,20.7,4.5v6.3h10.5q0,8.4-2.5,11.8c-8.5,6.4-18.9,8.5-29,11.3q.3.7,2.1,4.2l-2.1,4.2c-7.8-1-12.2-1.8-18.9-6.3-3.4-1-6.9-2-10.3-2.9-8.7-2.6-17-6.2-25.4-9.7q-.8-.3-4.6-1.9c-10.8-4.8-18.3-11.3-24.8-21.2v-4.2l18.9-2.1v6.3h6.3v-8.4Z"/>
        <path class="st82" d="M375.9,743.7q8.1,3.7,10.5,8.4c7.3,1.4,14.6,2.5,22,3.5,10.8,1.7,17.7,4.2,26.3,11.2q1.8,4.7,2.1,8.4h-8.4v-6.3c-6.9-1.2-13.7-2.2-20.6-3-2.2-.4-4.4-.8-6.7-1.2l-2.1-4.2c-4.9-.9-9.8-1.6-14.7-2.1-2.1,2.8-4.2,5.5-6.3,8.4q-6.3-2.1-10.5-6.3-4.5.8-8.4,2.1c-.7-1.4-1.4-2.8-2.1-4.2h6.3v-4.2c2.8.7,5.5,1.4,8.4,2.1v-4.2h4.2v-8.4Z"/>
      </g>
      <g id="face_shadows" inkscape:label="Face shadows and highlights">
        <path class="st58" d="M432.6,477v4.2h4.2c.5,2,1,4.1,1.6,6.2.9,2.1,1.7,4.2,2.6,6.4q3.8,1.1,8.4,2.1c2.9,1.6,5.8,3.4,8.7,5.3,4.1,2.6,8,5.2,12.3,7.4q-.3-2.1-2.1-12.6c1.9.3,3.8.7,5.8,1.1,18,2.5,35.6,2,53-3.2.7-1.4,1.4-2.8,2.1-4.2,8.6,3.3,16.9,7.1,25.2,10.9q4.2,1.7,8.4,1.7c0-1.2,0-2.4.1-3.7,2.6-6.3,6.7-8.6,12.6-11.7,6-2.1,10.6-1.1,16.6.7,4.9,12.2,6.9,22.2,6.1,35.4q.2,4.5,4.4,10.8c-.3,6.9-1.6,9.9-6.1,15.2-11,9.7-21.7,17.1-34.8,23.7-6.9,4-11.7,8.9-16.8,14.8-7.2,6.7-16.4,5.3-25.8,5.2-2.5,0-4.9,0-7.4,0-1.9,0-3.7,0-5.7,0-.6,1.6-1.2,3.3-1.8,5q-2.4,5.5-6.6,9.7.7,4.7,2.1,10.5c.7,4.2,1.4,8.4,2.1,12.6-1.4.5-2.7,1-4.1,1.5q-4.3,2.7-5.5,7.3c-.2,1.8-.3,3.6-.5,5.4-1.7,10.7-5.2,15.1-13.7,21.6q-3.5,2-7.7,2v21c-2.4,1.2-4.8,2.3-7.2,3.5q-4.1,2.3-7.5,4.9-1.4,5.3-2.1,10.5c-2.8,2.8-5.6,5.6-8.4,8.4-1.4,4.2-2.8,8.3-4.2,12.6h-39.9v6.3q-.7.3-4.2,2.1l-2.1,6.3h-4.2c-.7-3.5-1.4-6.9-2.1-10.5q-1.4.3-8.4,2.1v6.3h-4.2c-.7,1.4-1.4,2.8-2.1,4.2-9.6-3.2-13.7-10.9-18.9-18.9-1.9,1.7-3.7,3.5-5.6,5.3-4.9,4.1-6.4,5.2-13,5.9-1.5-.2-2.9-.4-4.5-.7v4.2c-5.5.7-11.1,1.4-16.8,2.1-.7-5.5-1.4-11.1-2.1-16.8q11.6-2.4,17.2-.9c1.3.3,2.5.6,3.8.9q6.3-4.2,8.4-10.5c3.5-2.8,7-5.6,10.5-8.4l2.1-6.3c1.5,0,2.9-.1,4.4-.2,1.9-.1,3.8-.2,5.8-.4,1.9,0,3.8-.2,5.8-.3q.8-.2,5-1.3c1.5-2.8,2.9-5.6,4.2-8.4q5-2.7,10.8-4.7,1-.4,5.8-2.1.7-.3,4.4-1.5c-6.2-1.4-12.5-2.8-18.9-4.2l2.1-8.4h-46.2v-4.2q3.8-.3,23.1-2.1l2.1-6.3h4.2v6.3c12.9.3,25.1-.5,37.8-2.6,1.6-.3,3.3-.6,5-.8,10.4-1.9,19.8-4.4,29.2-9.4,4-2,7.7-3,12-3.9-4.2-14-15.1-18.5-27.3-25.2-6.9-3.2-13.8-5.9-21-8.4-2-.8-3.9-1.5-5.9-2.3-7.7-2.2-14.2-2.3-22.1-2.2q-1.3,0-7.9.1c-2,0-4,0-6,.1.7-1.4,1.4-2.8,2.1-4.2,4.9-1.4,9.8-2.8,14.7-4.2l2.1-4.2c-1.8.7-3.6,1.5-5.4,2.2q-7.2,2-14.4.7c-10.3-1.1-13.8,1.8-22.2,7.6l-4.2,4.2h-4.2c2.7-5.9,5.6-10.3,10-15,5.5-6.1,9-12.2,12.7-19.6q3.1-5.4,6.7-9.6c5.4-1.3,9.3-1.1,14.8-.3,1.4.1,2.7.2,4.1.3l4.2-4.2q6.8,0,15,.8c2.7.2,5.4.5,8.2.7,2.1.2,4.1.4,6.3.6l-2.1,8.4c2.6-.3,5.3-.6,8-.9,1.5-.2,3-.3,4.5-.5q4.3-.7,10.6-2.8c.6-11.8.3-19.2-6.3-29.4-1.8-1.5-3.5-2.9-5.3-4.5-7-8.1-7.1-14.3-7.5-24.7q0-.8-.4-4.9c-.6-11,1.6-17.5,8.1-26.4q3.1-2.5,11.5-2.5Z"/>
        <path class="st40" d="M701.4,529.5c-2.1,4.9-4.2,9.7-6.3,14.7,5.5-1.4,11.1-2.8,16.8-4.2q-.6,1-3.9,6.2c-5,8.7-7,17.6-8.7,27.4-2.1-1.4-4.2-2.8-6.3-4.2v-6.3c-11.2,6.1-19.3,11.4-25.2,23.1q-1.6,8.1-2.1,14.7h4.2v8.4c1.4.7,2.8,1.4,4.2,2.1h-6.3l-2.1-4.2c-1.5,1-3,2.1-4.6,3.2-6.3,3.4-9.4,3.4-16.4,3.2-5.4,12.9-10.8,25.8-16.1,38.8-1.9,4.6-3.8,9.2-5.7,13.8-.9,2.3-1.9,4.6-2.8,7-8.3,19.9-17.5,41.8-36.3,53.8-5.4,1.8-10.3,3.2-15.9,4.3-3,.7-6,1.4-9.1,2.1-1.5.3-3,.7-4.5,1-5.7,1.4-11.3,3.1-16.9,4.9-15.2,4.8-30.6,8.7-46,12.6-8.1,2.1-16,4.1-23.9,6.9-5.9,1.9-10.7,2.2-16.8,2-1.8,0-3.7,0-5.6-.1-1.4,0-2.7,0-4.2-.1v-12.6h8.4c-4.6-5.2-7.7-7.6-14.7-8.4-7,.8-9.6,1.2-14.7,6.3v-4.2q-1,.3-6.3,2.1c-2.8-.6-5.6-1.3-8.4-2.1h-6.3c-.7-2.1-1.4-4.2-2.1-6.3h4.2v-6.3c8.1-2.7,16.2-2.3,24.7-2.2,1.5,0,2.9,0,4.4,0,3.6,0,7.2,0,10.8.1.6-2,1.2-3.9,1.8-6,2.5-7.1,6-11.3,10.8-17.1.3-1.5.6-2.9.9-4.5q1.2-3.9,6.3-7.6t9.6-2.6c-.2-1.4-.4-2.7-.6-4.2-.5-6-.6-10.9.6-16.8,4-3.8,8.1-6.3,12.8-9.2,6.4-5.5,6.6-11.8,7.5-19.9q.7-4.6,4.9-8.8h6.3c-.5-1.1-1-2.2-1.5-3.4-.6-1.5-1.2-3-1.8-4.5-.6-1.5-1.2-2.9-1.8-4.4-2-7.5.8-12.5,3.6-19.6,8.1-8.3,15.1-7.4,26.4-7.6,8.4-.5,14.4-2,20.6-7.8,1-1.2,2.1-2.4,3.1-3.6,5.9-6.3,11.6-10,19.3-13.9,12.9-6.6,22.7-15.4,32.9-25.5,6.1,2.4,12,4.9,18,7.7q7.2,2.8,11.7,2.5c5-2.4,9.7-5.3,14.4-8.1h4.2c.3,1.6.6,3.2.8,4.8q.2,1,1.1,6.3.2,1,1.1,6.3,1.1,5.7,3.2,12c5.6-4.9,8.2-9.8,11.3-16.5,6.9-14.3,15.8-26.4,32.8-25.5Z"/>
        <path class="st63" d="M306.6,531.6h2.1c.4,1.4.8,2.9,1.2,4.4.5,1.9,1.1,3.8,1.7,5.7.5,1.9,1.1,3.8,1.6,5.7q1.8,5.2,6,11.5c7.8,1,10.1.3,16.8-4.2h6.3c2.1,4.9,4.2,9.7,6.3,14.7-1.1,1.4-2.2,2.7-3.4,4.2q-20.9,25.9-23.9,37.8c5.5-1.4,11.1-2.8,16.8-4.2,2.3,9,2.2,9.8-2,17.3-.8,1.5-1.6,3-2.4,4.5-.6,1.1-1.3,2.2-1.9,3.4h-2.1v-12.6h-4.2c-4.2,12.1-4.7,22.9-4.2,35.7h4.2l4.2-4.2q5-.4,10.8-.3c1.9,0,3.8,0,5.8.1,1.5,0,2.9,0,4.4.1-1.4,4.9-2.8,9.7-4.2,14.7h-8.4q.4.9,2.2,5.6,2,7,.8,12.5t1.7,9.6,10,8q-1.3.3-7.9,1.7c-7.1,1.7-11.7,4-17.3,8.8h-4.2c.7,1.3,1.5,2.5,2.2,3.8q2,4.6-.1,10.9-4.1-.7-8.4-2.1c-2.9-8.8-2.8-17.7-3.2-27-.5-9.8-2.2-18.3-5.2-27.6-2.8-.7-5.5-1.4-8.4-2.1-.2-16.1-.3-32.1-.3-48.2,0-5.5,0-10.9-.1-16.4,0-7.9-.1-15.7-.1-23.6,0-2.4,0-4.8,0-7.3,0-14.7,1.9-27.2,7-41Z"/>
        <path class="st1" d="M424.2,298.5q7.1,4.2,12.6,8.4c-1.1,13-9.5,18.1-18.8,26.3-7.4,6-15,11.4-23,16.4-5.1,4.1-7.7,8.3-10.7,14h12.6v6.3h16.8c-3.2,8.8-9,12.4-16.5,17.7-8.6,6.1-14.9,11.7-21.3,20.1-12.1,9.3-25.7,5.9-39.9,4.2,3.1-10.7,5.1-13.4,14.7-18.9,8.9-10.6,9.6-19.1,10.2-32.3,1.3-15.6,2.6-26.4,15-37,1.8-1.6,3.6-3.3,5.5-4.9q26.4-22.6,42.8-20.3Z"/>
        <path class="st38" d="M350.7,735.3l-2.1,8.4h6.3q2.4,12.1,0,16.8h-4.2c-.7,1.4-1.4,2.8-2.1,4.2h-6.3v-6.3q-6.2.8-12.6,2.1l-2.1,4.2v-4.2h-4.2l-2.1,4.2c-1.1-2.7-2.2-5.3-3.3-8-.6-1.5-1.2-3-1.8-4.5q-1.2-4.3.9-10.6,10-2.4,14.7,0v-4.2q14.2-4.5,18.9-2.1Z"/>
        <path class="st64" d="M749.7,542.1h18.9q1.4,4.9,2.1,10.5c-1,1-2,2-3,3-4,4-4.5,6.5-5.6,12.1q-.2.8-1,5c-.6,3.5-1.3,7-1.9,10.5-.3,1.7-.7,3.3-1,5-.3,1.5-.6,3-.8,4.6q-1.4,3.8-7.7,8c-1.4-.7-2.8-1.4-4.2-2.1.3-1.1.6-2.2.9-3.3,4.2-17.7,3.7-35.3,3.3-53.4Z"/>
        <path class="st111" d="M361.2,342.6c6.4,9.6,3.7,18.9,1.9,29.9-2.4,10.2-6.2,18-14.5,24.7q-4.6,1.5-8.4,2.1c4.5-20.1,12.5-38.1,21-56.7Z"/>
        <path class="st109" d="M304.5,668.1c2.1.7,4.2,1.4,6.3,2.1,4,10.6,4.9,20.7,5.4,31.9q.8,17.6,3,24.8c-2.8-.7-5.5-1.4-8.4-2.1q-9.9-38.3-8.4-54.6l2.1-2.1Z"/>
        <path class="st69" d="M354.9,701.7q-.4,3.7-2.1,8.4c-3.5,2.8-7,5.6-10.5,8.4v6.3c-5.6,3.1-8.2,4.2-14.7,4.2-2.6-6.1-4.2-10.1-4.2-16.8,9.6-8.9,18.7-11.8,31.5-10.5Z"/>
        <path class="st133" d="M354.9,720.6c.6,1.2,1.2,2.4,1.8,3.7,2.3,4.4,4.7,8.5,7.5,12.6.9,1.3,1.7,2.6,2.6,3.9.9,1,1.8,1.9,2.8,2.9h6.3v8.4h-4.2v4.2c-2.8-.7-5.5-1.4-8.4-2.1v4.2h-6.3c-.7-4.9-1.4-9.7-2.1-14.7h-6.3q-2.1-6.3-.5-10.6c.8-1.5,1.6-3,2.4-4.5.8-1.5,1.6-3,2.4-4.6.6-1.1,1.3-2.3,1.9-3.5Z"/>
        <path class="st44" d="M436.8,306.9c5.5.3,11,.6,16.5.9q.8,0,4.8.2,11.8.7,16.5,3c4,.2,8.1.3,12.1.4,18.1.5,35.4,2.7,53.1,6.6,2,.4,3.9.8,6,1.3,22.2,5.1,41.8,11.7,56.9,29.6,2.5,5.2,3.4,9,4.2,14.7-1.4-.7-2.8-1.4-4.2-2.1-3,8-4.7,14.5-4.2,23.1h-6.3c0,1.9.2,3.9.3,5.9q-.3,6.7-4.5,13l-4.2-2.1v4.2h4.2c3.6,3.4,7.1,6.9,10.5,10.5q17.6,18.2,27.8,25.3c13.6,9.9,19.2,22.1,21.9,38.5.2,1.8.5,3.6.7,5.5.2,1.7.5,3.5.7,5.3.7,5.9,1,11.8,1.4,17.8.1,1.4.2,2.7.4,4.1q2.1,26.1-3.7,34c-6.6,4.5-11.8,5.9-19.7,6.2-11.6-4.2-22-8.6-29.7-18.5-2.2-7.9-2.2-14.5-1.9-22.6,0-7.9-2-14.6-4.3-22.1-8.2-2.4-13.2-2.5-20.6,1.4q-6.7,4.9-8.7,9.6c0,1.2,0,2.4-.1,3.7-11.1-2.7-19.8-6.2-29.4-12.6-.6-1.3-1.2-2.6-1.9-4-3.1-5.9-7.1-8.2-12.7-11.9-6.2-4.1-11.9-8-16.9-13.5,16.4,3.8,27.4,12.1,39.9,23.1-14.2-19.8-36.7-26.5-59.6-30.6-1.8-.3-3.6-.6-5.5-.9v-6.3c9.8-8.2,25.6-12.7,38.4-12.5q4,.6,9.9,2v4.2c2.6.2,5.2.3,7.9.5,8.4,1,11.9,3.3,17.3,10,1.4.7,2.8,1.4,4.2,2.1q1.3,4.3,2.1,8.4c4.2.7,8.3,1.4,12.6,2.1v4.2c4.2,1.4,8.3,2.8,12.6,4.2-4.3-11.6-9.6-19.5-18.1-28.5-1-1.1-2-2.3-3.1-3.4-3.3-3.5-6.7-6.8-10.3-10.1-1.3-1.2-2.5-2.4-3.8-3.7-15.2-12.5-32.5-10-50.9-8.8-3.2.1-6.4.3-9.6.4q-40,1.8-49,7.8c-2.1-1.4-4.2-2.8-6.3-4.2.7,2.1,1.4,4.2,2.1,6.3q-.6-.2-3.9-1.2t-8.7,1.2c-1.4-.7-2.8-1.4-4.2-2.1q-4.2-.4-9.2-.4c-1.6,0-3.2,0-4.9,0-5.3.5-8.7,2.1-13.2,4.7v-4.2c-2.1-.6-4.2-1.1-6.4-1.7-8-2.3-15.4-5.4-23-8.8,4.1-3.2,7.8-6,12.6-8.2,4.6-2.5,6.5-4.7,9.6-8.9,7.2-8.9,16.1-14.9,25.5-21.4q4.8-3.6,6.9-7.8h-16.8v-6.3h-12.6c1.2-7,3-10,8.5-14.4,1.3-1.1,2.7-2.2,4-3.3,4.1-3.2,8.3-6.3,12.5-9.5,6.1-4.5,12-9.2,17.9-14,1.4-1.2,2.8-2.3,4.2-3.5,3.7-4,4.6-6.7,5.4-12Z"/>
      </g>
      <g id="ears" inkscape:label="Ears">
        <g id="right_ear" inkscape:label="Right ear">
          <path class="st99" d="M744.6,541.7q5.1.4,7.2,2.5c1.5,20.4,1.4,40.3-8.4,58.8-9.2,9.2-19,9.9-31.5,10.5v10.5c4.1-1.6,8.1-3.2,12.2-4.9,2.3-.9,4.5-1.8,6.9-2.7,5.6-2.6,8.3-4.8,12.4-9.2h4.2c7.1-13.3,9.9-27.3,12.6-42h16.8c0,15.7-4.3,24.3-14.7,35.7-1.5,1.7-3.1,3.5-4.7,5.3-20.9,22.3-49.1,36.2-79.7,39.5q-12.6.1-18.5-2.8c.7-11,6.7-18.1,14.7-25.2q6-2,10.5-2.1c-1.4-2.1-2.8-4.2-4.2-6.3q-5.5-.4-10.5,0v-8.4h-4.2c-1-12,.7-18,8.4-27.3,6-5.6,10.7-9.3,18.9-10.5,2.1,6.4,2.6,11.2,2.8,17.9,0,2,.2,4,.2,6.1q-.9,5.4-5,9c-1.4.9-2.8,1.8-4.3,2.7q-1.6,4.6-2.1,8.4c7-2,14.1-4,21-6.3v-23.1h4.2c1.4,2.1,2.8,4.2,4.2,6.3q4.3,1.3,8.4,2.1c4.3,4.3,3.6,13.2,4.2,18.9,4.2-3.8,7.7-7.1,10.4-12.2.2-7.3-2.5-13.2-6.2-19.3q-.9-.9-5.5-5.5c-5.4-5.4-6.4-8.1-7.1-15.5,1.2-.4,2.3-.8,3.5-1.2,1.5-.5,3-1.1,4.6-1.7,1.5-.5,3-1.1,4.6-1.6,5.9-2.6,7-5.9,13.7-6.4Z"/>
          <path class="st3" d="M764.4,525.3c8.9,9.3,13.2,17,12.9,29.9,0,1.9,0,3.7-.1,5.7,0,1.4,0,2.8-.1,4.3l-8.4,4.2c-2.1-2.1-4.2-4.2-6.3-6.3.6-1.2,1.3-2.4,2-3.7q3.9-8.2,4.3-13.1c-3.4-7.2-5.8-10.2-12.6-14.7-7.1-1.1-13.9-1.2-21,0q-6.2,5-10.5,10.5l-6.3,4.2v-8.4c-1.5.6-2.9,1.3-4.5,2-6.2,2.3-12.1,3.4-18.6,4.3,2.5-9.3,4.3-13.9,12.6-18.9,19.6-6.2,37.9-10.3,56.7,0Z"/>
          <path class="st53" d="M714,535.8c2.1.7,4.2,1.4,6.3,2.1,1.4,4.2,2.8,8.4,4.2,12.6-2.1.7-4.2,1.4-6.3,2.1.7,1.3,1.4,2.7,2.1,4.1,2.8,8.6,2.5,16.4,2.1,25.3h-4.2v4.2c-2.8-1.4-5.5-2.8-8.4-4.2v-4.2h-4.2v18.9h-2.1c-.3-2.4-.5-4.8-.8-7.2-.4-2.5-.9-4.9-1.3-7.5-1.4-.7-2.8-1.4-4.2-2.1l-2.1,4.2q-.5-11.8,4.2-18.9c1.1-3.1,2.2-6.2,3.2-9.3,2-6.3,4-12.2,7.4-18l4.2-2.1Z"/>
          <path class="st85" d="M756,529.5q6.6,3.8,10.5,8.4v6.3q-.9,0-5.7-.2-1.2,0-7.5-.2c-2.5,0-4.9-.1-7.5-.2-7.3.7-8.4,1.6-12.9,6.9q-5.6-.7-10.5-2.1c.6-6.8,1.7-10.1,6.2-15.4,9.2-5,17.2-5.2,27.4-3.5Z"/>
          <path class="st100" d="M681.2,608.9c1.1.8,2.3,1.6,3.4,2.5v4.2q-.9.4-5.6,2.4c-9.2,5.2-15.6,11.2-19.2,21.5-.1,1.1-.3,2.3-.4,3.4,1.4.7,2.8,1.4,4.2,2.1-2.1,1.4-4.2,2.8-6.3,4.2q-1.4,4.5-2.1,8.4c-2.8-.7-5.5-1.4-8.4-2.1.3-17.2,6-28.7,16.8-42q9.9-7.2,17.6-4.6Z"/>
          <path class="st6" d="M722.4,567.3c7.1,2.9,10.7,6,14.7,12.6,2.6,7.2,2.3,9.9-.4,17.2-3.9,6.1-5.8,7.3-12.2,10.1q0-.6-.3-3.9c-.2-1.7-.3-3.4-.5-5.1-.1-1.7-.3-3.4-.4-5.1q-.9-4.8-5.1-11.1h4.2v-14.7Z"/>
          <path class="st137" d="M672,533.7c3.5,10.9-.3,17.9-5.4,27.8-1,1.9-1.9,3.7-2.9,5.7-.7,1.4-1.5,2.8-2.2,4.3h-4.2q-2.6-13.9,2.1-21c.2-1.7.4-3.5.7-5.3q1.4-5.3,6.8-9.1c1.7-.8,3.4-1.6,5.1-2.5Z"/>
          <path class="st98" d="M697.2,579.9c2.1.7,4.2,1.4,6.3,2.1.7,6.2,1.4,12.5,2.1,18.9-7.4,5.1-12,7.1-21,6.3q.5-5,2.1-10.5c1.4-.6,2.8-1.3,4.2-2,1.4-.7,2.8-1.5,4.2-2.2q1.6-6.6,2.1-12.6Z"/>
          <path class="st80" d="M743.4,596.7h6.3c-.4,7.5-2,10.4-7.1,16-8.9,6.9-19.9,8.9-30.7,11.3v-10.5q.6-.1,3.8-.7c9.6-1.9,17.8-3.7,25.6-9.8.7-2.1,1.4-4.2,2.1-6.3Z"/>
        </g>
      </g>
      <g id="nose" inkscape:label="Nose">
        <path class="st65" d="M422.1,439.2c4.7,3.2,8.5,6.6,12.6,10.5-3.2,7.5-7.6,12.3-13.3,18.1-12.9,14.1-22.8,29.5-22.4,49.1,3.6,13.7,12,20.4,23.5,27.9q3.8,3.6,4.4,9.3c-.2,1.6-.4,3.2-.6,4.8q-4.3,1.7-10.5,2.1c-3.8-2.2-7-4.7-10.4-7.5-14.1-9.8-26.2-10.1-43-9.7q-1.1,0-6.5,0c-5.2,0-10.5.2-15.7.3v-10.5h10.5c.5-1.1,1-2.2,1.5-3.3,3.6-6.7,8-12.6,12.4-18.7q26.1-36.1,32.3-49.4l-6.3,2.1q-1.5-10.7,0-16.8c8.9-9.7,19-12.6,31.5-8.4Z"/>
        <path class="st29" d="M331.8,491.7c2.1.7,4.2,1.4,6.3,2.1,4.7.1,9.4.2,14,.1,2.5,0,5,0,7.5,0,1.9,0,3.8,0,5.7,0,2.6,7.7,2.6,13.4,0,21-4.2,7-8.5,13.5-14.7,18.9h-10.5c.7,6.9,1.4,13.9,2.1,21q-14.8,8.3-23.1,6.3c-8.8-11-11.5-19.6-10.5-33.6q2.9-7.1,6.8-14,.6-1.2,3.8-7c3.7-5.7,7.4-10.1,12.4-14.7Z"/>
        <path class="st132" d="M436.8,451.8c4.8,7.5,4.4,12.9,3.4,21.5q-.1,1.1-.7,6.9-.1.9-.6,5.2c-.7-1.4-1.4-2.8-2.1-4.2h-4.2v-4.2c-6.3,1.9-9.8,3.4-14,8.5-3.8,8.5-3.6,15.5-3.1,24.7,0,1.7.2,3.4.3,5.1,1.1,12.4,4,18.9,13.4,27.3,5.2,5.6,5.4,11.2,5.9,18.6q-.5,4-4.7,8.2v-4.2h-10.5v-4.2q.7-.3,4.2-2.1.6-4.8,0-10.5-4.4-4.1-10.1-8c-8.3-6.3-14-10.9-16.8-21.1-1.5-16.1,4.5-29.9,14.3-42.3q18.8-22,25.2-25.2Z"/>
        <path class="st75" d="M342.3,542.1q47.7-2.1,65.1,10.5.7.4,4,2.4t8.6,6v4.2h10.5c-1.4,2.8-2.8,5.5-4.2,8.4h-16.8c0-1.9-.2-3.8-.3-5.8-2-7.4-3.9-9.6-10.4-13.5-8.2-3.4-16.8-2.6-25.5-2.3-1.9,0-3.8,0-5.7,0-7.7.1-13.8.3-21.2,2.7v4.2h-4.2v-16.8Z"/>
        <path class="st13" d="M355.5,549.5q.9,0,5.5.1c2,0,3.9,0,6,0,2.1,0,4.1.1,6.2.2,2.1,0,4.1,0,6.3.1,5.1,0,10.2.2,15.4.4v2.1c-6.9.7-13.9,1.4-21,2.1v4.2c5.5.7,11.1,1.4,16.8,2.1-1.3.6-2.6,1.2-3.9,1.8q-4.5,2.4-8.7,6.6-4.5.4-9.7.3c-1.7,0-3.4,0-5.2-.1-1.3,0-2.6,0-4-.1-.7,1.4-1.4,2.8-2.1,4.2-5.9-2.2-8.1-3.7-11.4-9.2q-1.2-5.5,1.3-10t8.6-4.9Z"/>
        <path class="st28" d="M373.8,552.6q22.9-1.3,32,3.9,3.7,4.5,3.7,8.7c-12.4.5-23.6-1.5-35.7-4.2v-8.4Z"/>
      </g>
      <g id="mouth" inkscape:label="Mouth">
        <path class="st105" d="M340.2,668.1h44.1c.7,1.4,1.4,2.8,2.1,4.2h-4.2v6.3c6.9.7,13.9,1.4,21,2.1-6.7,6.7-10.5,8-19.2,10.6-5,2.5-6,5.3-8.1,10.4q-25,1.2-33.6-6.3-4.2-6.3-2.1-27.3Z"/>
        <path class="st20" d="M379.7,629.8c1.5,0,3,0,4.5,0q38.3.9,46.3,8.8c0,3.5,0,7,0,10.5h-12.6v-4.2c-2.1,1.4-4.2,2.8-6.3,4.2-4.1,0-8.2.1-12.3,0q-4.5,0-9.4,1.1c-6.4,1.2-12.3,1.3-18.8,1.2-2.2,0-4.5,0-6.8,0-1.7,0-3.4,0-5.1,0v-4.2h-6.3q-.7-4.9,0-10.5c8.5-6.9,16.4-7.2,26.9-6.8Z"/>
        <path class="st62" d="M368.7,606.2q.9,0,5.7,0c14.9.4,27.8,3.1,41.5,9.4,1.4.6,2.8,1.3,4.3,2,2.8,1.4,5.6,2.8,8.3,4.3l-2.1,4.2c-3-.3-6-.6-9.1-.9-1.7-.2-3.4-.3-5.1-.5q-4.7-.7-11-2.8c-8.3-.6-16.7-.6-25.1-.7-2.3,0-4.6-.1-7-.2q-1.1,0-6.7,0-1,0-6.1,0c-7,1.3-9.4,3.9-13.9,9.4q-1.7,4.5-2.6,8.9c-.5,2.6-1,5.2-1.6,7.9h18.9v4.2c-3.8,0-7.5,0-11.3.1-2.1,0-4.2,0-6.3,0q-5.5-.2-9.7-2.3c-1.1-12.7,1.5-22.8,8.4-33.6,9.1-10,17.8-9.7,30.6-9.5Z"/>
        <path class="st83" d="M413.7,645h4.2v4.2h25.2c-15.1,15.1-47.9,17-68.8,17.1-3,0-6-.1-8.9-.3.7-2.8,1.4-5.5,2.1-8.4h-4.2v8.4h-16.8q1.8-10,4.2-14.7h6.3c.7-1.4,1.4-2.8,2.1-4.2v4.2c1.2-.1,2.4-.3,3.7-.4,5.6-.6,11.1-1.1,16.7-1.7q1-.1,5.8-.6.9,0,5.6-.6c1.7-.2,3.4-.4,5.2-.5q5-.4,10.8-.3t6.8-2.2Z"/>
        <path class="st14" d="M413.9,623.1q4,.9,11.2.2c11.1,1,19,7.1,26.4,15.4v8.4c-6.8,3.4-13.5,2.2-21,2.1-.7-3.5-1.4-6.9-2.1-10.5-10.6-3.4-20.4-4.9-31.5-5.4-10.6-.5-21-1.4-31.5-3v-2.1h10.5v-6.3c12.8-4.3,25.3-2.5,38,1.2Z"/>
        <path class="st108" d="M380.1,619.8l-4.2,2.1v6.3q-.7.1-4,.9-13.9,3.6-17.1,9.1-1.1,4.1-2,11h-16.8c1.4-9.3,3.2-17.1,7.9-25.3,11.3-6.7,23.4-4.8,36.2-4.1Z"/>
        <path class="st126" d="M346.5,569.4l8.4,4.2c-4.7,14.6-13.9,25.5-25.2,35.7q-4.8,1.7-8.4,2.1c1.1-9.9,5.7-16.7,11.4-24.5.9-1.2,1.7-2.4,2.6-3.7,3.5-4.9,6.9-9.5,11.2-13.8Z"/>
        <path class="st97" d="M325.5,619.8h4.2c1.9,10.4,1.9,19,0,29.4,1.4.7,2.8,1.4,4.2,2.1-4.2,2.8-8.3,5.5-12.6,8.4-4.4-8.7-3.5-20.7-.7-29.9,1.5-3.4,3.2-6.7,4.9-10Z"/>
        <path class="st2" d="M367.2,598.3c4.9.5,8.3-.2,12.9-1.6-.7,2.1-1.4,4.2-2.1,6.3-5.6,1.8-10.8,3.2-16.5,4.5-3.1.7-6.1,1.4-9.2,2.1-2.6.6-5.2,1.2-7.9,1.8l-6.3,2.1q.3-4.9,2.1-10.5c9.2-6.9,16.2-6.6,27-4.7Z"/>
      </g>
      <g id="eyebrows" inkscape:label="Eyebrows">
        <g id="left_eyebrow" inkscape:label="Left eyebrow">
          <path class="st114" d="M459.9,420.3c-4.2,7-8.4,14-12.6,21h29.4q-8.4,10.5-13.4,15.1c-9.6,10.3-16.2,22.7-22.3,35.3-3.4-3.4-2.5-7.4-2.5-12.1,0-8.2,1-14,4.6-21.5.8-4.2,1.5-8.4,2.1-12.6h-10.5q-1.7-6.7-2.1-14.7c7.7-11.7,14.4-11.6,27.3-10.5Z"/>
          <path class="st118" d="M378,422.4q1.7.7,10.5,4.2v4.2c1-1,2-2.1,3-3.2,7.9-4.6,15.4-4,24.3-3.2,2.1.7,4.2,1.4,6.3,2.1h6.3c.7-1.4,1.4-2.8,2.1-4.2,2.8,1.4,5.5,2.8,8.4,4.2-.7,1.4-1.4,2.8-2.1,4.2h-4.2c.7,4.9,1.4,9.7,2.1,14.7h10.5c-.7,6.9-1.4,13.9-2.1,21l-6.3-2.1c.3-1.5.6-2.9.9-4.5-1.3-8.3-5-11-11.4-16-6.4-3.9-11.5-4.8-18.9-4.7q-4.7,2.9-8.4,6.3l-6.3,2.1c-1.4,1.4-2.8,2.8-4.2,4.2-.4-1.2-.8-2.5-1.2-3.8-2.9-8.7-5.7-17.2-9.3-25.6Z"/>
          <path class="st68" d="M541.8,424.5c9.7,6,17.1,12.5,24.7,20.9,1,1.1,2,2.2,3.1,3.3,5.8,6.3,9.6,11.8,12.2,20l2.1,6.3q-10-3.9-14.7-6.3v-4.2h-12.6c-.1-1.6-.3-3.3-.4-5-.6-1.8-1.1-3.6-1.7-5.5q-5.3-2.5-10.5-4.2c-.7-1.4-1.4-2.8-2.1-4.2q-3.9-1.3-8.5-2.4-.8-.2-4.7-1.1c-1.2-.3-2.4-.5-3.6-.8.7-1.4,1.4-2.8,2.1-4.2,4.9.7,9.7,1.4,14.7,2.1q-2.1-2.1-6.3-4.2v-4.2h6.3v-6.3Z"/>
          <path class="st46" d="M520,415.7c7.5-.4,11.1.3,17.6,4.2q4.2,4.6,4.2,10.9h-6.3v4.2c2.8.7,5.5,1.4,8.4,2.1-.7,1.4-1.4,2.8-2.1,4.2-2.1-.3-4.2-.6-6.3-.9-1.3-.2-2.7-.4-4.1-.6-2.8-.4-5.7-.8-8.5-1.3-7.5-1.1-13.1-1.4-20.7-.2-2.2.3-4.3.6-6.6.9l-4.2-4.2c9.2-4.2,17.1-7.2,27.3-8.4-1.5-.1-3-.2-4.6-.3-11-.8-20.8-1.8-31.1-6v-2.1c12.3-.9,24.7-1.6,37-2.5Z"/>
          <path class="st130" d="M465.4,419.1q5,1.2,7.9,4.3c5.4,5,11,3.3,18.1,3.2q6.2,2.1,10.5,4.2c-9.7,9.7-21.1,10.8-34.2,10.9-6.8,0-13.6-.2-20.4-.4,2.1-10.3,7.2-19.8,18.1-22.2Z"/>
          <path class="st140" d="M459.9,418.2c13-.4,23.3,0,35.7,4.2,8.4,1,16.8,1.6,25.2,2.1-.7,1.4-1.4,2.8-2.1,4.2-11.3,3.8-16.4,5-27.3,0h-7.6q-7.1,0-13.4-4.2v-2.1c-3.5-.7-6.9-1.4-10.5-2.1v-2.1Z"/>
        </g>
        <g id="right_eyebrow" inkscape:label="Right eyebrow">
          <path class="st87" d="M365.4,418.2c8.1,1.2,11.6,4.3,16.8,10.5,7.3,12.8,9,23.2,8.4,37.8l-2.1,4.2c-4.2-2.1-8.3-4.2-12.5-6.3-8.3-4.3-16.4-7.8-25.3-10.5,2.8-2.8,5.5-5.5,8.4-8.4-6.5-5.4-12.6-8.2-20.5-10.9q-1-.4-6.3-2.2c-1.6-.5-3.1-1.1-4.8-1.6,2.1-1.4,4.2-2.8,6.3-4.2q6.5,1.7,14,4.7c10.6,4.1,21,7.5,32.2,10-1.3-2.3-2.5-4.7-3.8-7.1-.7-1.3-1.4-2.6-2.1-4q-2.5-3.6-8.8-7.8v-4.2Z"/>
          <path class="st78" d="M365.4,418.2q4.2,3.7,8,8.1c1.3,1.5,2.5,2.9,3.8,4.4q2.8,4.2,2.8,10.5c-13.3-.8-24.8-4.6-37-9.7q-4-1.5-11.3-2.9-5.9,3.6-10.5,8.4l-4.2,4.2q-.8-11.4,3.2-17.6c1-1.1,2.1-2.3,3.2-3.4q3.1.7,18.9,4.2v-6.3c8.5-1.8,14.8-2.5,23.1,0Z"/>
        </g>
      </g>
      <g id="eyes" inkscape:label="Eyes">
        <g id="right_eye" inkscape:label="Right eye">
          <path class="st74" d="M325.5,430.8c11.3,1.4,21.8,4.6,31.5,10.5l4.2,6.3c-4.1.7-8.2,1.4-12.3,2.1-2.3.4-4.6.8-6.9,1.2q-5.9.9-10.1.9v6.3c-.7.7-1.4,1.4-2.1,2.1.6,3.5,1.4,7,2.1,10.5v6.3h-6.3c-7.2-7.2-9-11.8-9.1-21.8.2-10.3,1.6-17,9.1-24.4Z"/>
          <path class="st8" d="M333.9,456c18.3-1.2,33.6-1.7,48.3,10.5l4.2,6.3c-6.5-2.5-12.7-5.2-18.9-8.4-.2,1.9-.3,3.9-.5,5.9q-1.6,6.7-5.3,10.8-4.7,2.2-10.2,2.1-5-2-7.7-6.3-.2-.7-1.4-4.1l-4.2,6.3-2.1-10.5h-2.1v-12.6Z"/>
          <path class="st12" d="M392.7,462.3h4.2c-1.3,7.1-4,11.9-8.1,17.9-1.2,1.8-2.4,3.5-3.7,5.3-1.3,1.8-2.5,3.6-3.8,5.5-1.3,1.8-2.5,3.7-3.8,5.6q-9.4,13.7-14.2,16.1c.6-11.3,5-17.3,11.8-25.8q2.9-3.6,5-7.8c-5.5.7-11.1,1.4-16.8,2.1,1.4-5.5,2.8-11.1,4.2-16.8,1.6.6,3.1,1.3,4.7,2,4.7,1.8,9.2,3.2,14.2,4.3,1-1.4,1.9-2.8,2.9-4.2,1.1-1.4,2.3-2.8,3.4-4.2Z"/>
          <path class="st34" d="M321.3,468.6l4.2,8.4c2.1.7,4.2,1.4,6.3,2.1v4.2c2.1.7,4.2,1.4,6.3,2.1.7-4.9,1.4-9.7,2.1-14.7,5.4,2.7,6.3,4.8,8.4,10.5-.7,5.6-1.7,9.7-4.2,14.7l-12.6-2.1-4.2,6.3h-4.2q-.3-5.2-2.1-31.5Z"/>
          <path class="st107" d="M380.1,479.1c-2.6,7.2-5.4,13.1-10.5,18.9h-4.2v-4.2c-6.9.7-13.9,1.4-21,2.1q1.3-6,4.2-12.6c10-5.4,20.5-4.6,31.5-4.2Z"/>
          <path class="st120" d="M359.1,449.7c-.7,2.1-1.4,4.2-2.1,6.3-3.1.4-6.1.8-9.2,1.2-1.7.2-3.4.4-5.2.7q-4.5.3-8.7-1.8c.6,1,1.3,2.1,2,3.2,3.1,7.4,3.7,14,4.3,22.1l-2.1,4.2c-3.5-.7-6.9-1.4-10.5-2.1.4-2,.9-4,1.3-6,.3-2.2.5-4.3.8-6.6l-4.2-4.2h6.3c-2.1-2.1-4.2-4.2-6.3-6.3q2.1-4.2,6.3-10.5c9.7-2.2,17.6-2.1,27.3,0Z"/>
        </g>
        <g id="left_eye" inkscape:label="Left eye">
          <path class="st113" d="M476.7,472.8q4.2,6.3,6.3,10.5,7,.7,14.7,0,4.1-5.3,6.3-10.5c7,2.5,12.1,4.6,16.8,10.5v4.2h10.5q-3.1,7.9-7.9,10.1-34,6.7-46.7-1.7v-23.1Z"/>
          <path class="st49" d="M451.5,468.6c4.2,1.4,8.3,2.8,12.6,4.2q0,4.2-3.2,7.6c-1,1-2.1,1.9-3.2,2.9,1.3-.7,2.5-1.4,3.8-2.1q4.6-2.1,10.9-2.1c1.4-2.1,2.8-4.2,4.2-6.3.7,4.2,1.4,8.3,2.1,12.6l12.6,2.1v2.1c-4.2.7-8.3,1.4-12.6,2.1v4.2h-10.5c.7,4.2,1.4,8.3,2.1,12.6-9.5-2.7-15.6-6.2-23.1-12.6-2.1-1.4-4.2-2.8-6.3-4.2q6.6-15.6,10.5-23.1Z"/>
          <path class="st50" d="M483,462.3h14.7c-1.4,3.5-2.8,6.9-4.2,10.5.8-1.1,1.6-2.2,2.5-3.3q3.8-3,8.7-2.5c6,1.7,10.2,4,15.3,7.5,1.6,1.1,3.2,2.1,4.8,3.2,4.5,3.6,7.5,7.2,10.7,11.9-9.1-.5-13.6-1.1-20.5-7.2-1.6-1.8-3.1-3.6-4.7-5.4-2.1-1.4-4.2-2.8-6.3-4.2-.3,1.3-.5,2.6-.8,3.9q-1.3,4.5-5.5,8.7-7.5.4-14.7,0c-4-4-2.4-9.6-2.4-14.9q.3-4,2.4-8.2Z"/>
          <path class="st55" d="M473.1,455.8q1,0,5.8,0c1.9,0,3.9,0,5.8,0,1.5,0,3,0,4.5,0,.7,2.1,1.4,4.2,2.1,6.3h-8.4c-.7,5.5-1.4,11.1-2.1,16.8l-2.1-6.3h-4.2c-.7,2.8-1.4,5.5-2.1,8.4-4.9.7-9.7,1.4-14.7,2.1,2.4-7.1,4.5-8.5,10.5-12.6l-2.1-2.1q-.3-5.3,0-10.5,2.1-2.1,6.9-2.3Z"/>
          <path class="st103" d="M495.6,437.1v4.2l-18.9,6.3v6.3c2.8.7,5.5,1.4,8.4,2.1-5.5.7-11.1,1.4-16.8,2.1-.7,3.5-1.4,6.9-2.1,10.5l4.2,2.1-6.3,4.2-10.5-6.3c2.9-9.9,7.7-14.2,15.8-20.5q1-.8,6.2-5c7.4-5.5,10.9-6.3,20-6.1Z"/>
          <path class="st121" d="M489.3,456c18.2.4,35.4,8.7,48.7,21q3.5,4,8,10.5c-6.1-2.8-11-6.1-16.3-10.4-8.3-6.3-15.8-9.8-25.7-12.7l-4.2,2.1c-.7,2.1-1.4,4.2-2.1,6.3h-4.2c1.4-3.5,2.8-6.9,4.2-10.5-3.5-.7-6.9-1.4-10.5-2.1l2.1-4.2Z"/>
        </g>
      </g>
      <g id="hair" inkscape:label="Hair">
        <path class="st131" d="M596.4,275.4c7.7,3.3,13,8.1,19.2,13.8q9.8,9.1,14.4,11.4c-.7-3.5-1.4-6.9-2.1-10.5l12.6,4.2c.7,3.5,1.4,6.9,2.1,10.5-2.8-2.8-5.5-5.5-8.4-8.4q.3.5,2,3.3c3.3,7.7,4.3,15.7,4.3,24h6.3l-2.1-12.6h4.2l2.1-6.3c4.3,7.1,5,13.3,5.5,21.5.2,2.3.3,4.5.5,6.9.1,1.7.2,3.4.3,5.2h4.2l-2.1-4.2c-.9-14.4.4-28.1,4.2-42q4.1.7,8.4,2.1.3,1,2.1,6.3h-4.2c0,7.2,1,13.9,2.1,21h-4.2c-.7,8.3-1.4,16.6-2.1,25.2,1.4-.7,2.8-1.4,4.2-2.1q1.3-6.4,2.1-12.6h4.2v8.4h8.4v4.2h6.3q.3,1.4,2.1,8.4,1.4-.3,8.4-2.1c-.7,2.8-1.4,5.5-2.1,8.4,2.1-.7,4.2-1.4,6.3-2.1v10.5h4.2v-16.8c1.4-.7,2.8-1.4,4.2-2.1v23.1q1.4-.3,8.4-2.1c.3,1.7.5,3.4.8,5.1.4,1.8.9,3.6,1.3,5.4l4.2,2.1c.7-2.8,1.4-5.5,2.1-8.4,2.1,4.2,4.2,8.3,6.3,12.6q-.3-2.1-2.1-12.6l8.4,2.1v-10.5h4.2c1.9,13.3,1.9,24.5,0,37.8h6.3c.7-5.5,1.4-11.1,2.1-16.8h2.1v23.1h4.2v4.2c2.1-.7,4.2-1.4,6.3-2.1v8.4c1.4.7,2.8,1.4,4.2,2.1v25.2c3.5-1.4,6.9-2.8,10.5-4.2.2,8.8-.1,16.7-2.1,25.2-.3,2.1-.7,4.2-1.1,6.4-.8,5-1.8,9.7-3.2,14.6,2.1-.7,4.2-1.4,6.3-2.1-.7,4.2-1.4,8.3-2.1,12.6h4.2v4.2h-4.2v6.3l-4.2,2.1q.2,1.1,1.3,6.7c.8,8,.2,11.5-3.4,18.5-1.4-1.6-2.9-3.2-4.3-4.9-12.1-11-22.5-12.6-38.4-13-7.7-1.5-10.9-3.5-16.1-9.5-1.3-6.2-1-12.1-.7-18.4,0-1.7,0-3.3.1-5,.1-4.1.3-8.2.5-12.3h-6.3c.7-4.9,1.4-9.7,2.1-14.7-1.6,1.7-3.2,3.4-4.9,5.1q-5.6,5.4-11.9,7.5c2.1-11.5,4.3-22.6,8.4-33.6q-3.1.7-18.9,4.2,6-18.4,8.4-23.1h-4.2c-1.4,2.8-2.8,5.5-4.2,8.4h-2.1q-.3-2.4-2.1-14.7c-1.4,2.8-2.8,5.5-4.2,8.4h-4.2c.2-1.9.4-3.8.5-5.7.2-2.5.4-5,.6-7.5q.1-1.2.7-7.5t-1.8-12.9c-3.5,2.1-6.9,4.2-10.5,6.3,1.4-5.6,2.8-11.2,4.2-16.8l-4.2,2.1q-1.3,4.3-2.1,8.4h-4.2q0-1.3-.5-8-.6-4.7-1.6-8.8c-2.8-2.2-5.6-4.3-8.4-6.3-.7-4.9-1.4-9.8-2.1-14.7q-4.3-4.1-8.4-6.3c-.7,3.5-1.4,6.9-2.1,10.5-6.7-.7-8.3-2-12.9-7.4-1.3-1.7-2.6-3.5-3.9-5.3-1.4-.7-2.8-1.4-4.2-2.1v6.3h-4.2c-.6-2.3-1.1-4.6-1.7-7-2.4-7.4-3.4-9.2-8.8-14q-1.4-4.6-2.1-8.4h6.3v-10.5c-1-4-2.1-7.9-3.2-11.8-.6-2.1-1.2-4.2-1.8-6.4-.5-1.6-.9-3.2-1.4-4.9,8.8,3.8,11.5,8.9,16.8,16.8,1.5.7,2.9,1.5,4.5,2.2q3.9,2,6.6,7.1,1.6,5.4,1.6,11.7h-4.2l4.2,8.4,6.3-2.1q1.8-4.3,2.1-10.5c-4.7-7.6-10.4-13.4-18.1-18-8.9-5.4-13.3-14.8-17.6-24Z"/>
        <path class="st95" d="M520.8,246h6.3v4.2l8.4,4.2v2.1h-21v4.2c1.4-.7,2.8-1.4,4.2-2.1q4.4,0,9.5.5c1.7.1,3.3.3,5.1.4q4.4,1.1,8.6,7.4c-2.8.7-5.5,1.4-8.4,2.1,4.9.7,9.7,1.4,14.7,2.1l-2.1,4.2c2,.8,4.1,1.7,6.2,2.5,2.7,1.1,5.4,2.2,8.1,3.4,1.4.6,2.7,1.1,4.1,1.7q13.2,5.5,17.3,11.3v6.3l12.6,4.2c2,10,2.3,19.3,2.1,29.4h-8.4c-1-1.1-2.1-2.2-3.2-3.3-1-1-2.1-2-3.2-3-1.3.3-2.5.7-3.8,1-5.6,1.3-8.1.3-13.4-1.7-9.4-3.4-18.8-5.9-28.6-8-1.7-.4-3.4-.7-5.1-1.1-16.7-3.3-33.3-4.1-50.3-4.6q-8-.4-10.1-2.5c-7.4-.9-14.8-1.6-22.2-2.3-9.4-1-16.4-2.2-24-8.2v-4.2c-2,0-4,.2-6,.3q-6.6-.3-10.8-4.5h4.2c-.2-1.5-.4-3-.7-4.6-.6-6.6-.7-12,.7-18.5,5.4-6,11.3-9.8,18.9-12.6,2.1.7,4.2,1.4,6.3,2.1-1.4,1.4-2.8,2.8-4.2,4.2h4.2v6.3l16.8-2.1v-4.2l12.6-2.1v-2.1h14.7v-4.2h-16.8c.7-1.4,1.4-2.8,2.1-4.2q.6,0,3.8,0c8.9.1,16.9-.4,25.6-2.2,2.8.7,5.6,1.4,8.4,2.1,2.1-.7,4.2-1.4,6.3-2.1q5.6.9,10.5,2.1v-4.2Z"/>
        <path class="st138" d="M577.5,321.6c3.6,2.7,7.1,5.5,10.5,8.4v4.2h8.4v-10.5q10.3,8.8,11.2,17.5-.1.9-.7,5.6h4.2v-6.3c7.2,2.4,8.6,4.3,13,10.2,1.1,1.5,2.2,2.9,3.4,4.4q2.5,4.2,2.5,10.5h4.2c.1,1.5.3,3,.4,4.5q0,1,.5,5.9c.2,1.9.3,3.8.5,5.8q.7,4.8,2.8,6.9c.3,5.6,0,11.2,0,16.8h4.2c1.4-3.5,2.8-6.9,4.2-10.5h2.1v23.1l6.3-6.3,6.3-6.3q.3,4.2,2.1,25.2c2.8-2.1,5.5-4.2,8.4-6.3v27.3c2.1-2.8,4.2-5.5,6.3-8.4l4.2,2.1c-1.4,3.5-2.8,6.9-4.2,10.5h4.2c-.9,5.4-1.8,9.9-4.3,14.8q-2,4.1-2,12.5c1.3-1,2.6-2.1,3.9-3.2q4.5-3.2,8.7-3.2c2.5,10.4,1.3,17.2-2.1,27.3l12.6-8.4q.4,6,0,12.6c-2.1,1.4-4.2,2.8-6.3,4.2q2.1,2.1,9.2,3.9c7.3,2.3,9.1,3.3,13.9,8.7-2,.5-4,1-6,1.5q-26,6.8-36,17.4c-.7-2.8-1.4-5.5-2.1-8.4q-5.1,2.1-10.5,6.3c-1,4.3-1.3,8.4-1.6,12.9q-.5,3.9-3.8,8.1c-1,.7-2,1.4-3,2.1-1.7-9.2-2.5-18.3-3-27.6-.2-2.9-.3-5.8-.5-8.7-.2-4.5-.5-9-.7-13.5q-2.4-51.5-16.9-67.7c-5.1-4.3-10.4-8.5-15.7-12.6-6.1-4.9-11.5-10.2-16.9-15.9q-3.1-3.1-8.2-6.9c-1.1-.8-2.2-1.6-3.3-2.5v-4.2h-4.2v-4.2c2.8-1.4,5.6-2.8,8.4-4.2v-12.6l4.2-2.1c.5-4.2,1.1-8.4,1.4-12.6q.7-4.2,4.9-10.5c0-8.5-2.7-10.6-8.4-16.8-2.6-1.8-5.1-3.5-7.7-5.3-5.5-3.7-6.7-4.5-8.9-11.2q0-.8-.1-4.6Z"/>
        <path class="st35" d="M760.2,361.5c5.7.7,7.9,1.5,11.7,5.9,17.1,28.8,20.4,57.9,20.6,90.8,0,1.5,0,3,0,4.6.1,32.8-4.7,64.1-11.3,96.1q-4.2-2.1-5.7-6.1c-2.4-10.4-2.8-15.5,1.5-25.4-.2-5.7-1.1-11.1-2.1-16.8h6.3v-6.3h4.2v-4.2h-4.2v-10.5h-4.2c1-10.6,1.9-21.1,4.2-31.5.7-4.9,1.4-9.8,2.1-14.7-3.5,1.4-6.9,2.8-10.5,4.2v-25.2c-2.1-.7-4.2-1.4-6.3-2.1v-6.3h-4.2v-4.2h-4.2c-.3-16.2.5-32.1,2.1-48.3Z"/>
        <path class="st89" d="M634.2,344.7q8.1,3.9,10.5,6.3c0,4.9,0,9.8,0,14.7,1.3.6,2.7,1.3,4.1,2q4.3,2.2,6.4,4.3c.3,5.6,0,11.2,0,16.8h4.2l2.1-10.5h4.2c-.7,4.9-1.4,9.7-2.1,14.7l8.4-4.2c4.9,7.4,4.5,9.4,3.5,18-.2,2-.4,4.1-.6,6.2q-.8,5.2-2.9,9.4h4.2c1.4-3.5,2.8-6.9,4.2-10.5h2.1c.7,4.9,1.4,9.7,2.1,14.7,1.4-2.1,2.8-4.2,4.2-6.3h4.2q-4.5,19.6-11.6,25.1c-1.7.7-3.5,1.5-5.3,2.2-2.1,2.1-4.2,4.2-6.3,6.3v-27.3c-2.8,2.1-5.5,4.2-8.4,6.3l-2.1-25.2q-1,1.7-6.3,10.5h-4.2c-.7-6.9-1.4-13.9-2.1-21-1.4,2.8-2.8,5.5-4.2,8.4h-4.2q-.2-2.2-1.4-12.9-.7-3.9-2.8-6c-.2-3.5-.2-7.1-.1-10.6,0-1.9,0-3.9,0-5.9q0-.7,0-4.5h-4.2l-2.1-10.5c1.4-.7,2.8-1.4,4.2-2.1q1.3-4.3,2.1-8.4Z"/>
        <path class="st32" d="M703.5,439.2c1,10.3-2.5,18-6.3,27.3-.7,2.1-1.4,4.2-2.1,6.3,1.6-1.7,3.2-3.4,4.9-5.1q5.6-5.4,11.9-7.5c-.7,4.9-1.4,9.7-2.1,14.7h6.3c1.2,9.5,2.2,18.5,1.7,28.1q.4,7.6,4.1,11.6c1.6.8,3.1,1.6,4.7,2.4,2.8,1.4,5.6,2.8,8.4,4.2-3.8.5-7.5.9-11.3,1.3-2.1.2-4.2.5-6.3.7q-.9,0-5.5,0c-1.4-1.4-2.8-2.8-4.2-4.2q-11.5-2.6-16.8,0,.7-4.1,2.1-8.4,1-.3,6.3-2.1-.3-1.7-2.1-10.5c-1,1-1.9,2.1-2.9,3.2q-3.4,3.2-7.6,3.2c.7-9,1.4-18,2.1-27.3-4.9,2.8-9.7,5.5-14.7,8.4,1.1-11.1,3.7-19.4,8.4-29.4h-4.2q.1-4.9,2.1-10.5c8.3-4.6,13.6-6.3,23.1-6.3Z"/>
        <path class="st70" d="M768.6,592.5q2.1,4.2.3,10.6c-10.9,30.7-26.8,58.3-45.2,85.1-9,13.1-16.7,26.9-24.4,40.8h-2.1c-1.5-16.1,3.9-27.5,10.5-42q.3-.9,1.7-5.5t8.5-9c7.6-5,11.4-10.5,15.7-18.3.7-1.3,1.5-2.6,2.3-4,4.2-7.7,6.2-13.6,6-22.3,0-9.7,4.2-14,10.7-20.7,5.2-5.1,10.6-10,16.1-14.8Z"/>
        <path class="st129" d="M564.9,252.3q2.4,1.4,14.7,8.4c-2.1-2.8-4.2-5.5-6.3-8.4q2.1.3,12.6,2.1v6.3c6.2,3.5,12.5,6.9,18.9,10.5l-4.2,6.3-4.2-2.1c.9,1.2,1.8,2.3,2.8,3.5,1.2,1.5,2.3,3,3.5,4.6,1.2,1.5,2.3,3,3.5,4.6q2.8,4.1,2.8,8.3c1.4.3,2.9.7,4.3,1.1,9.1,4.6,14.5,12.1,20.9,20l-4.2,2.1v8.4h-4.2l-2.1,4.2-4.2-4.2v-6.3h4.2c-.7-1.6-1.4-3.2-2.1-4.9q-2.1-5.6-2.1-11.9c-1.5-.4-3-.8-4.6-1.2-8.1-4.1-11.7-10.2-16.4-17.7l-4.2,8.4c-.6-1.5-1.3-2.9-2-4.5-6.2-8.6-14.3-13.2-23.2-18.6q.2-.7,1.2-4c.3-1.5.6-2.9.9-4.4q-3-3.4-6.3-6.3v-4.2Z"/>
        <path class="st17" d="M669.9,283.8l4.2,2.1q.9,4.3,1.3,9.6c.2,1.7.3,3.5.5,5.3.1,1.3.2,2.7.3,4.1h-4.2v6.3h6.3v-4.2h4.2c3.4,6.8,2.2,13.5,2.1,21h4.2v6.3h4.2v14.7l-2.1-4.2h-6.3v-4.2h-8.4v-8.4h-4.2v12.6c-2.1.7-4.2,1.4-6.3,2.1v-27.3h4.2c-1.4-7.6-2.8-15.2-4.2-23.1h4.2v4.2h4.2c-2.8-3.5-5.5-6.9-8.4-10.5h4.2v-6.3Z"/>
        <path class="st135" d="M678.3,288q.6.5,3.7,3c4.6,3.2,7.7,4.4,13.1,5.4.3,1.5.5,3,.8,4.6,1.3,5.9,2.9,11,5.5,16.4l4.2,2.1c.7-2.8,1.4-5.5,2.1-8.4v14.7l-10.5-4.2c.2,3.8.5,7.6.8,11.4.1,2.1.3,4.2.4,6.4.3,1.7.6,3.5.9,5.3l4.2,2.1v-12.6l2.1,8.4c2.8-1.4,5.5-2.8,8.4-4.2-.3,1.3-.6,2.7-.9,4.1-1.5,8.4-2.4,16.8-3.3,25.3h-4.2l-2.1-8.4h-4.2l2.1-8.4c-2.8.7-5.5,1.4-8.4,2.1,0-5.1,0-10.2-.1-15.4,0-1.5,0-2.9,0-4.4,0-6.6.2-11.7,2.3-18.1-1.3-.5-2.5-1-3.8-1.4-6-3.6-7.9-7-10.9-13.3q-1.4-7-2.1-12.6Z"/>
        <path class="st30" d="M661.5,281.7l8.4,2.1v6.3c-2.1,1.4-4.2,2.8-6.3,4.2q-.3,7.4,0,14.7c-.7,1.4-1.4,2.8-2.1,4.2-.1,4.3-.2,8.6-.1,12.9,0,2.3,0,4.6,0,7,0,1.8,0,3.5,0,5.4h-4.2c-.3-1.8-.6-3.5-.8-5.4-.4-2.3-.7-4.6-1.1-7-.4-2.3-.7-4.6-1.1-6.9q-1.1-5.9-3.2-10.1c-2.1.7-4.2,1.4-6.3,2.1.7,1.3,1.5,2.5,2.2,3.8q2,4.6-.1,10.9h-6.3l-4.2-6.3h4.2q-.2-.6-1.3-3.4c-.6-1.5-1.1-3-1.7-4.5-.6-1.5-1.1-2.9-1.7-4.4-1.5-4.3-2.7-8.5-3.7-12.9,2.8,2.8,5.5,5.5,8.4,8.4l-2.1-10.5h10.5c2.1,4.9,4.2,9.7,6.3,14.7,0-1.9-.2-3.8-.3-5.8.3-6.7,1.1-9.7,4.5-15.2l2.1-4.2Z"/>
        <path class="st25" d="M520.8,246v4.2c-2.3,0-4.6,0-7-.1q-7.7.1-14,2.2c-4.2-.7-8.4-1.4-12.6-2.1-2.1.7-4.2,1.4-6.3,2.1-4.9,0-9.8,0-14.7,0,4.9.7,9.7,1.4,14.7,2.1v4.2l-12.6,2.1v2.1h-14.7c-.7,1.4-1.4,2.8-2.1,4.2-1.2-4.4-2.1-8.1-2.1-12.6-.7-2.1-1.4-4.2-2.1-6.3,9.4-2.6,18.7-2.9,28.5-3.4,1.9,0,3.8-.2,5.7-.3,13.3-.6,26.2-.4,39.3,1.6Z"/>
        <path class="st47" d="M741.3,619.8h2.1c1.9,13.6-.9,22.4-7.6,34.3-.7,1.3-1.4,2.5-2.1,3.8-5.4,9-10.8,13.5-19.7,18.6,1.5-4.4,2.9-8.7,4.4-13.1,1.4-4.1,2.6-8.3,3.8-12.4q6.2-20.6,17-27l2.1-4.2Z"/>
        <path class="st36" d="M709.8,313.2c6.8,5.5,10.3,12.7,12.6,21,.5,5.7.3,11,0,16.8l-2.1-4.2c-2.8.7-5.5,1.4-8.4,2.1v-8.4q-6.3,2.1-8.4,6.3c-2.1-.7-4.2-1.4-6.3-2.1v-23.1c4.2,1.4,8.3,2.8,12.6,4.2v-12.6Z"/>
        <path class="st48" d="M548.1,271.2c3.3,1.7,6.6,3.3,9.9,5,2.2,1.1,4.5,2.3,6.8,3.4,2.2,1.1,4.5,2.3,6.7,3.4,6.7,3.2,11.2,5,18.6,5h4.2v6.3h4.2c1.1,3.1,2.1,6.1,3.2,9.2.6,1.7,1.2,3.4,1.8,5.2,1.7,5.6,1.9,7.7-.7,12.9-4.7-5.6-8.2-9.8-10.5-16.8-1.6-.6-3.3-1.2-5-1.8q-5.5-2.4-8-7.3c-5.3-7.8-11.5-10-20-13.6-1.5-.7-2.9-1.3-4.5-2-3.6-1.6-7.3-3.2-10.9-4.7l4.2-4.2Z"/>
        <path class="st19" d="M590.1,254.4c12.3,3.2,24.5,6.6,36.6,10.4q1,.3,6.2,1.9c6.2,2.7,9.6,5.7,13.9,10.8q1.7,4.5,2.1,8.4l-2.1,4.2c-6.8-2.9-11.9-7.1-17.6-11.8-11.2-9.4-18-13.5-32.8-15.5q-3.6-4.3-6.3-8.4Z"/>
        <path class="st16" d="M543.9,260.7c16.7,2.2,34.4,11,46.2,23.1v6.3l-4.2-2.1-2.1,4.2c-1-.7-2-1.4-3.1-2.1-9.9-6.4-19.3-10.9-30.5-14.7,2.8-1.4,5.5-2.8,8.4-4.2-4.9-2.8-9.7-5.5-14.7-8.4v-2.1Z"/>
        <path class="st71" d="M753.9,351q4.2,3.3,8.4,8.4.4,6.8-.5,14.2c-.3,2.5-.5,4.9-.8,7.4-.2,1.9-.5,3.7-.8,5.7h-4.2c-.7,5.5-1.4,11.1-2.1,16.8h-6.3v-37.8c2.1.7,4.2,1.4,6.3,2.1v-16.8Z"/>
        <path class="st106" d="M695.1,298.5c7.5,1,12.2,4.4,18.1,9.1,1.6,1.2,3.3,2.5,4.9,3.8,6.1,5.7,8.3,9.8,8.7,18.1,0,1.6-.2,3.1-.3,4.7h-6.3c-2.8-6.2-5.5-12.5-8.4-18.9-.7,3.5-1.4,6.9-2.1,10.5-1.4-2.1-2.8-4.2-4.2-6.3-1.4-.5-2.8-1-4.2-1.6q-4.2-2.6-6.8-10.2c-.5-2.3-1-4.7-1.6-7.1l2.1-2.1Z"/>
        <path class="st79" d="M602.7,273.3c9.2,1.1,14.3,6.7,21,12.6-1.4-3.5-2.8-6.9-4.2-10.5,9.8,0,11.8,2.1,18.9,8.4-.7,2.8-1.4,5.5-2.1,8.4h-6.3v8.4c-7.1-3.2-12.5-7.3-18.4-12.5-1.7-1.4-3.4-2.9-5.1-4.4q-3.8-4.1-3.8-10.4Z"/>
        <path class="st110" d="M527.1,246c2.6,0,5.3-.2,8-.3,1.5,0,3,0,4.5-.1q4.3.4,10.6,4.6h-4.2v4.2l4.2,2.1c-2.8.7-5.5,1.4-8.4,2.1v4.2q.8.3,4.7,1.8c4.9,2,9.5,4.1,14.2,6.6-6.4,2-11.6,2.2-18.2,1.4q-.8,0-5-.5c-1.3-.3-2.7-.6-4-.9-.7-1.4-1.4-2.8-2.1-4.2,2.8-.7,5.5-1.4,8.4-2.1-8.2-5.5-15.7-4.5-25.2-4.2v-4.2q3.1-.3,18.9-2.1c-2.1-1.4-4.2-2.8-6.3-4.2v-4.2Z"/>
        <path class="st93" d="M745.5,340.5q4.2,2.5,8.4,6.3.8,5.2.5,10.9c0,1.9-.2,3.8-.2,5.7q0,.7-.3,4.4c-3.5-.7-6.9-1.4-10.5-2.1.7,1.4,1.4,2.8,2.1,4.2.3,5.6,0,11.2,0,16.8h-2.1c-.3-1.6-.5-3.3-.8-5q-1.3-5.5-5.5-9.7c0-4.2,0-8.4,0-12.6l-2.1-2.1c0-3.5,0-7,0-10.5,1.3-.3,2.7-.5,4.1-.8q.7-.2,4.3-1.3l2.1-4.2Z"/>
        <path class="st136" d="M571.2,250.2c4.8,3.8,7.1,7.3,10.5,12.6-1.7-.7-3.4-1.4-5.1-2.1q-5.4-2.1-7.5-2.1c2.1,2.1,4.2,4.2,6.3,6.3h-4.2v4.2c-2.5-.6-5-1.3-7.6-2-7.2-1.8-14.4-3.2-21.8-4.3v-4.2c2.1-.7,4.2-1.4,6.3-2.1-.7-2.1-1.4-4.2-2.1-6.3,7.9-3.9,16.9-2.2,25.2,0Z"/>
        <path class="st84" d="M722.4,317.4c10.1,3.4,17.6,12,23.1,21q.6,6.3.4,13.1c0,2.3-.1,4.5-.2,6.9,0,1.7-.1,3.4-.2,5.2h-2.1v-18.9c-3.5.7-6.9,1.4-10.5,2.1l-2.1,6.3c-.7-4.2-1.4-8.3-2.1-12.6-2.1-.7-4.2-1.4-6.3-2.1.4-2.3.8-4.6,1.2-7q.9-7.7-1.2-14Z"/>
        <path class="st117" d="M722.4,338.4q6.3,2.1,8.4,6.3c.3,5.6,0,11.2,0,16.8-.7-1.4-1.4-2.8-2.1-4.2h-4.2v23.1h-2.1v-10.5c-2.8.7-5.5,1.4-8.4,2.1v-23.1c2.1-.7,4.2-1.4,6.3-2.1q1.4-4.3,2.1-8.4Z"/>
        <path class="st91" d="M449.4,250.2v4.2c2.1.7,4.2,1.4,6.3,2.1l-4.2,2.1v8.4c-4.9,3-7.3,4.4-13.1,3.4-1.2-.4-2.4-.9-3.7-1.3.7-2.1,1.4-4.2,2.1-6.3-2.8.7-5.5,1.4-8.4,2.1,2.1-2.1,4.2-4.2,6.3-6.3-1.6.6-3.1,1.3-4.7,2-4.7,1.8-9.2,3.2-14.2,4.3,10.7-11.6,17.8-15.4,33.6-14.7Z"/>
        <path class="st73" d="M585.9,254.4q.6.3,3.4,1.8c5.7,2.7,11.6,4.6,17.6,6.6,8.4,2.9,14.2,6.8,21,12.6l-2.1,4.2-6.3-4.2c1.4,3.5,2.8,6.9,4.2,10.5-4.9-2.2-8.7-4.5-12.9-7.9-8.5-6.6-17.7-11.9-27-17.3.7-2.1,1.4-4.2,2.1-6.3Z"/>
        <path class="st23" d="M732.9,346.8h2.1c3.1,11.4,4.4,19.8,2.1,31.5.6,4.9,1.2,9.8,2.1,14.7-3.2-4.9-5.9-9.5-8.4-14.7-.7,1.4-1.4,2.8-2.1,4.2h-4.2v-25.2h4.2c1.4-3.5,2.8-6.9,4.2-10.5Z"/>
        <path class="st7" d="M644.7,273.3c4.9,1.4,9.7,2.8,14.7,4.2,3.1,9.3.9,16.2-2.1,25.2l-2.1,8.4c-2.1-6.2-4.2-12.5-6.3-18.9-2.1.7-4.2,1.4-6.3,2.1-2.1-.7-4.2-1.4-6.3-2.1.7-2.1,1.4-4.2,2.1-6.3,2.8,1.4,5.5,2.8,8.4,4.2l-2.1-16.8Z"/>
        <path class="st51" d="M672,285.9q6.3,2.1,8.5,6.1c.6,1.7,1.3,3.3,1.9,5,2.6,6.4,3.9,9.4,9.2,14q3.5,4.2,3.6,8.9c-.5,4.8-1.2,9.5-2.2,14.2h-4.2v-6.3h-4.2c-.7-6.9-1.4-13.9-2.1-21h-4.2v4.2h-6.3v-6.3h4.2c-1.4-6.2-2.8-12.5-4.2-18.9Z"/>
      </g>
    </g>
    <g id="clothing-details" inkscape:label="Clothing details">
      <g>
        <path class="st61" d="M812.7,934.8q.6.3,3.6,2c9.5,5.2,19,10.4,28.7,15.3,30,15.3,56.8,32.4,82,54.7,13.7,12,28.8,22.1,43.8,32.4,10,6.9,19.6,14,29.2,21.4,4.3,3.2,8.5,6.2,12.9,9.1,1.2.8,2.4,1.6,3.6,2.4,3.3,2.2,6.6,4.4,9.9,6.6,15.3,11,26.7,25.3,37,40.8,1.2,1.7,2.3,3.5,3.5,5.2,10.6,16,20.2,32.4,29.1,49.4,1.2,2.3,2.4,4.6,3.7,6.9,11.4,22.3,19.8,45.5,27.7,69.3.5,1.4.9,2.7,1.4,4.2,9.6,28.7,17.5,57.6,21.8,87.6h-39.9c-2.2-6.5-2.5-11.6-2.9-18.4-2.3-29.7-8.3-50.6-23.7-75.6-3-5-5.9-10.2-8.8-15.3-20.1-36-42.9-69.9-67.1-103.2q-2.6-3.8-6.6-11-4.4-5.3-11.3-6.7-15.1.6-21.9,1.1c-4.7.3-9.4.4-14.1.4-14.7.5-25.7,1.7-36.3,12.7-4.6,5.4-8.9,11-13.1,16.6-2.9,3-5.8,6-8.8,8.9q-1,1-5.9,5.8c0-11,8.5-18.9,15-27.4,1.5-2,3-4,4.6-6,11.2-14.4,22.7-25,38.2-34.5q.9-.6,5.3-3.5v-4.2q-4.2-3.2-9.8-6.7c-1.8-1.2-3.7-2.3-5.5-3.5-6.9-3-9-2.5-16.1-.3-5.1,3-9.8,6.1-14.7,9.4-1.4.9-2.7,1.9-4.2,2.8-4.4,3-8.7,5.9-13.1,8.9-4.4,3-8.8,6-13.1,8.9-2.7,1.8-5.4,3.7-8.2,5.6q-9.3,6.4-14,6.4c3.5-10,8.8-18.4,14.4-27.3.9-1.5,1.8-2.9,2.8-4.4,5.1-8,10.4-15.4,16.4-22.9q1.6-4.9,2.1-8.4h4.2c-2.8-8.3-6.3-12.8-12.6-18.9v-4.2c-1.1-.5-2.3-1-3.4-1.4-6.7-3.7-11.9-8.1-17.6-13.3v-4.2c-1.2-.5-2.3-1-3.5-1.5-9.4-5.2-16.8-13.3-24.5-20.8-2.1-2-4.2-4-6.3-5.9q-17.6-16.2-19.2-25.5c.5-4.9,1.4-8.9,3-13.5.7-2.1,1.4-4.2,2.1-6.3Z"/>
        <path class="st128" d="M346.5,955.8c0,7.1-1.1,8.5-5,14.2-5.1,7.8-7.6,14.6-9.7,23.6,1.3-1,2.5-2.1,3.8-3.2q4.6-3.2,10.9-3.2c0,1.3,0,2.6-.1,3.9.4,17.5,6.9,30,15,45.1q7,13.4,8.2,20.4-2.6,7-8.4,12.6c-7.4,1.5-14.5,1.1-22.1.7-4-.1-7.9-.3-11.9-.4-1.8,0-3.5-.2-5.3-.3-4.8,0-8.7.8-13.3,2.1-4-6.7-5-11.2-4.2-18.9,2.5-4.9,5-9.4,7.9-14,7-11.7,12.8-23.4,17.3-36.4-40,21.6-64.2,56.5-84,96.6h-4.2c2.8-8.4,5.6-16.8,8.4-25.2-1-1.8-2-3.6-3-5.5-5-10.9-5.2-20.2-1.5-31.6,1.4-3.6,3-7.1,4.5-10.7,1.9-4.4,3.1-8.5,4.1-13.2-1.3,1.1-2.6,2.1-3.9,3.2-29.2,24.2-59.7,45.7-91.3,66.6q-27.2,17.9-37.2,26.1c-6.6,4.5-14.1,4.3-21.8,4.9q-20,1.5-28.5,8.4c-3.6,4.5-6.7,8.8-9.8,13.7-.9,1.3-1.8,2.7-2.7,4.1-11,17.2-20.3,35.4-29.5,53.7-4.2-12.5,4.7-28.1,10.3-39.6,34.2-66.3,104.2-95.7,167.6-128.7,9.2-4.8,18.2-9.7,27.3-14.7,27.2-15,54.7-28.6,83.1-41.2,9.7-4.3,19.3-8.7,28.9-13.1ZM315.6,976.9c-2.2,1.1-4.5,2.3-6.8,3.5q-1.2.6-7.4,3.7c-2.6,1.3-5.1,2.6-7.7,4-2.6,1.3-5.2,2.6-7.8,3.9q-18.9,9.6-21.4,12.1c-.2,5.7-.2,11.3-.1,16.9,0,1.6,0,3.2,0,4.8,0,3.9,0,7.9.1,11.8,18.6-8.3,32.2-25.9,44.9-41.3,5.7-7,11.7-13.3,18.1-19.6q-6.3-2.1-12,.1Z"/>
        <path class="st54" d="M327.6,976.8c-1.3,1.3-2.7,2.6-4.1,3.9-10.6,10.6-20.5,22-30.4,33.3q-.8.9-4.9,5.6c-1.5,1.7-2.9,3.3-4.4,5-4.7,4.9-9.5,9.1-15,13.1h-4.2v-33.6c6.3-3.3,12.6-6.7,18.9-10,1.8-.9,3.5-1.9,5.3-2.8,3.5-1.9,7-3.7,10.6-5.5,3.3-1.7,6.6-3.5,9.9-5.3q11.3-6,18.3-3.7Z"/>
        <path class="st88" d="M241.5,1098.6q2.1,6.3.5,10.3c-.8,1.4-1.6,2.8-2.4,4.3-3.1,5.6-5.2,10.6-6.6,16.9h-4.2c-.2,1.4-.4,2.8-.7,4.2-1.8,7.8-4.6,15.1-7.6,22.5-.6,1.4-1.1,2.9-1.7,4.4q-4.2,10.6-8.9,13c3.9-22.1,15-59.1,31.5-75.6Z"/>
      </g>
      <path id="number" class="st122" d="M193.4,1308.4c1.9,0,3.9,0,5.9,0h6.6c2.4,0,4.8,0,7.2,0,2.4,0,4.8,0,7.3,0,7.8,0,15.5,0,23.3,0,5.3,0,10.5,0,15.8,0,12.9,0,25.8,0,38.7.1-4.6,11.8-10.6,22.5-16.8,33.6h-29.4v-4.2h-67.2q2.3-29.3,8.6-29.7Z"/>
      <path id="swoosh" class="st123" d="M319.2,1220.4q-.6.3-3.9,2c-21.5,11-42.9,22-63.6,34.5q-44.3,26.5-62.7,24.4-6.6-2.8-10.5-8.4c-2.3-13.5,2.7-23,10.4-33.9q4.5-5.9,8.5-10.2h4.2v-4.2h4.2c-.7,1.4-1.4,2.9-2.1,4.3-2.5,7.2-2.4,13.3-2.1,20.9,5,2.5,7.2,2.2,12.7,1.6q.7,0,4.5-.4c14.3-2.8,27.9-8.6,41.5-13.7,1.5-.6,3-1.1,4.6-1.7q12.9-4.8,18.9-7c4.6-1.7,9.3-3.5,13.9-5.2q.7-.3,4.3-1.6,10.1-3.7,17.1-1.3Z"/>
      <g>
        <path class="st59" d="M136.5,1195.2c2.4,7.1,1.8,9.6.2,16.7q-.2,1.1-1.4,6.4c-.5,2.3-1,4.5-1.5,6.9-5.1,24.1-8.7,48.2-11.4,72.6q-.7,4.6-1.7,8.9c-1.7,6.7-1.8,13.5-2.2,20.4,0,1.5-.2,2.9-.3,4.4-.2,3.6-.4,7.2-.6,10.8h-25.2c3.9-27.8,8.8-54.9,16.8-81.9.8-2.6,1.5-5.1,2.3-7.8,6.3-20.3,15.1-38.6,25-57.3Z"/>
        <path class="st45" d="M54.6,1212h4.2c.3,2.2.7,4.4,1,6.6,1.2,8.3,2.5,16.5,3.8,24.8.5,3.5,1.1,7.1,1.6,10.6,3.2,21.4,7.4,41.7,14.4,62.3,2.8,8.6,4.8,17.1,6.5,25.9h-23.1c-1.4-5-2.7-10-4.1-15-.4-1.4-.8-2.8-1.2-4.2-3.7-13.6-5.5-26.1-5.6-40.2,0-1.4,0-2.9,0-4.3,0-3,0-6,0-9,0-4.5,0-9.1,0-13.6,0-14.7.3-29.2,2.4-43.8Z"/>
        <path class="st127" d="M907.2,1220.4c2.5,7.2,1.7,11.2-.7,18.4-3.5,11.9-5.1,23.5-6.4,35.8q-1.2,10.8-3.5,13.1c-.5,4-.8,8.1-1.1,12.1-.2,2.5-.4,4.9-.6,7.4-.2,2.6-.4,5.2-.6,7.8-.2,2.6-.4,5.2-.6,7.9-.5,6.4-.9,12.9-1.4,19.3h-25.2c6.4-44.7,17.5-82.2,39.9-121.8Z"/>
        <path class="st127" d="M829.5,1224.6h4.2c3.5,8.1,5.5,15.8,7.1,24.5.5,2.7,1,5.4,1.6,8.3.3,1.4.5,2.8.8,4.3,1.4,7.4,2.8,14.7,4.2,22,.3,1.4.5,2.9.8,4.4q7.1,36.8,12.9,54.1h-27.3c-3.8-26.4-4.7-52.2-4.5-78.9,0-3.8,0-7.6,0-11.4,0-9.1.1-18.2.2-27.4Z"/>
      </g>
      <g>
        <path class="st104" d="M735,880.2c7.3,4.9,11.9,10.1,16.5,17.3,11.7,18,23.3,29.1,42.3,39.4,2.9,1.7,5.8,3.3,8.7,5,2,1.1,4,2.3,6,3.4-1.9,21.8-12.4,40.1-23.1,58.8-6.4-2.4-10.4-4.2-15.6-8.8q-5.4-3.8-10.8-3.7c-9.9,2.8-17.5,8-26,13.7-3.6,2.3-7.2,4.6-10.8,7-1.8,1.1-3.5,2.3-5.3,3.4-12.8,8.2-26.2,15.4-39.5,22.8-21.5,12.1-42.5,23.9-62,39.1-4.3,3.2-8.7,6.4-13,9.6-10.1,7.6-19.7,15.5-29,24,0-19.7,32.7-45.4,45.9-58.9,8.8-8.7,18.1-16.6,27.7-24.3,6.7-5.4,13.2-10.9,19.8-16.5,8.4-7.2,16.9-14.2,25.6-21.1,21.3-17.5,51-44,56.1-72.9.5-13.1-2-19.8-10.7-29.6q-2.8-3.3-2.8-7.5Z"/>
        <path class="st81" d="M365.4,941.1c4.9,8,5.8,16.5,7.1,25.6,4.4,27.6,10.7,53.9,19.9,80.4,5.7,16.7,10.8,33.9,10.8,51.6-8-2.7-8.9-5.4-13.1-12.5-4.7-7.7-9.6-15.2-15-22.4-13.1-18.4-29-42.2-28.7-65.2,0-2.1,0-4.2,0-6.3,0-1.6,0-3.2,0-4.8-1.6,1-3.3,2.1-5,3.2q-5.5,3.2-9.7,3.2c2.7-20.4,12.6-32.3,27.3-46.2l3.8-3.8,2.5-2.5Z"/>
        <path class="st18" d="M730.8,876c19.7,4.1,32.3,17.2,44.9,31.9,7.3,8.3,14,13.1,23.9,18.1q10.6,5.5,12.6,11.3,0,4.7-1.6,12.2c-3.9-2.5-7.8-4.9-11.7-7.4-3.4-2.1-6.9-4.1-10.4-6.1-17-9.7-28.5-20.2-38.4-37.1-5.1-8.2-9.9-15.6-19.3-18.8v-4.2Z"/>
      </g>
      <g id="crest">
        <path class="st26" d="M640.5,1188.9c4.5,0,9,0,13.5-.1,2.5,0,5,0,7.6,0,7.5.2,14.6.9,22,1.8,9.8,1,19.6,1.3,29.5,1.7,2.1,0,4.2.2,6.4.3,5.2.2,10.3.4,15.5.6v6.3l-8.4,4.2v-6.3c-1.8,0-3.5-.1-5.4-.2-6.6-.2-13.2-.4-19.9-.6-2.9,0-5.7-.2-8.6-.3-4.1-.1-8.2-.3-12.4-.4q-1.2,0-7.5-.2c-7.4-.4-14.6-1.4-22-2.5.9.8,1.9,1.6,2.8,2.5,5.8,5.7,9.6,9.5,10.1,17.9-.6,5.2-1.3,10.2-2.5,15.3-1.4,0-2.9.2-4.4.2-1.9.1-3.8.3-5.7.4-1.9.1-3.8.2-5.7.4-5.9,1.2-7.6,3-11.5,7.4h-4.2l-2.1,6.3c-3.5-4.9-6.9-9.7-10.5-14.7-4,12.9-6.1,25.7-8.1,39q-2.4,15.1-6.6,21.9c-.6-15.4,1.7-30,4.2-45.2.4-2.5.8-5.1,1.2-7.7,1-6.2,2-12.4,3-18.6q7.9,1.6,12.1,6.4c.9,1.3,1.7,2.7,2.6,4.1q10-1.6,14.7-6.3c5.7,0,11.1,1.2,16.8,2.1.7-7.7.8-11.4-3.7-17.8-1.6-1.6-3.1-3.1-4.7-4.8q-8.4-8.6-8.4-13.1Z"/>
        <path class="st22" d="M680.4,1277.1h14.7c-.2,3.3-.5,6.7-.8,10-.1,1.9-.3,3.7-.4,5.6-1.6,9.9-5.3,14.8-13.2,20.8-1.4,1.1-2.8,2.2-4.3,3.4q-4.3,2.3-8.7,2c-7.3-3.3-10.9-9.6-14.5-16.5q-.7-6.2,0-10.5h18.9c.7-4.2,1.4-8.3,2.1-12.6,1.4,1.4,2.8,2.8,4.2,4.2.7-2.1,1.4-4.2,2.1-6.3Z"/>
        <path class="st39" d="M705.6,1195.2h21c.7,1.4,1.4,2.8,2.1,4.2-2.8,8.5-7.2,10.3-14.7,14.7h-4.2v14.7q1.3,0,8-.5,4.6,0,8.8.5,4.2,4.2,6.3,8.4c5.3-1,8.3-2.1,12.7-5.4q4.1-3,10.4-3c-1.2,10.2-2.4,20.5-3.6,30.7-.4,3.2-.8,6.4-1.1,9.7-2,16.8-4.1,33.4-7.9,50h-6.3q-3.4-4.4-6.7-10.2c-1.1-1.9-2.2-3.8-3.4-5.8q-2.5-5-2.5-9.2c-2.1-.7-4.2-1.4-6.3-2.1q4.7.3,10.5,2.1,8.4,10.7,8.4,16.8h4.2c0-1.4.2-2.9.2-4.3,1.5-23.2,4.9-46.1,8.2-69.2q-2.8,2.4-16.8,14.7l-4.2-2.1c-.8-3.5-1.5-7-2.1-10.5l-2.1-6.3h-21c-2.7-5.5-1.7-9.1,0-14.8,4.2-8.1,11.8-13.3,18.9-18.8-5.5-.7-11.1-1.4-16.8-2.1v-2.1Z"/>
        <path class="st102" d="M672.3,1246.3c2.6.2,5.2.3,7.9.5q6.5.9,10.7,5.1h-35.7c-.3,8.1-.5,16.2-.7,24.3,0,2.3-.2,4.6-.3,6.9-.2,15,1.2,22.7,11.4,33.9,8.1-1.6,12.6-5.1,18.9-10.5,1.4.7,2.8,1.4,4.2,2.1-2.9,8.7-6.7,10.5-14.7,14.7-7.7.5-12.1,0-18.2-5-9.8-11.4-10.3-20.8-9.5-35.5.2-2.6.4-5.1.6-7.8.2-2.6.3-5.3.5-8,.4-6.5.8-12.9,1.4-19.3,8.1-2.3,15-2,23.4-1.4Z"/>
        <path class="st52" d="M634.2,1262.4h2.1c0,4.1,0,8.1.1,12.2,0,2.3,0,4.5,0,6.9q-.2,6.1-2.3,12.4c-1.3,11.3-.9,16.7,6.2,25.9,1.1,1.3,2.3,2.7,3.5,4q3,3.7,5.1,10h-4.2v8.4h-4.2c0-2.5,0-4.9-.1-7.5-.9-8.3-3.3-11.1-9.7-16.3q-4-3.5-7-7.7c0-8.1,1.8-15.4,4.2-23.1-6.9,4.4-13.3,8.8-19.4,14.2q-5.8,4.7-10,4.7c.7-6.9,1.4-13.9,2.1-21q4.2,4.2,4.2,10.5.6-.5,3.8-3.3c1.7-1.4,3.3-2.8,5-4.2q.8-.7,4.9-4.2t11-2.4c1.5.5,3,1,4.6,1.5v-10.5h-12.6v-2.1h12.6v-8.4Z"/>
        <path class="st56" d="M684.6,1249.8c-2.1,1.4-4.2,2.8-6.3,4.2,2.1,1.4,4.2,2.8,6.3,4.2q.9,4,1.2,8.5c.3,2.7.6,5.5.9,8.3,1.4.7,2.8,1.4,4.2,2.1-11.1-.7-22.2-1.4-33.6-2.1-.7-7.6-1.4-15.2-2.1-23.1,9.9-1.4,19.4-2.4,29.4-2.1Z"/>
        <path class="st0" d="M705.6,1237.2c2.7-.1,5.4-.3,8.1-.4q.8,0,4.6-.2c1.3.2,2.7.4,4.1.6q4.2,6.3,3.8,11.2c-1.9,6.2-4.5,11.1-7.7,16.7-7.9,15.3-10.4,30.8-12.9,47.6h-6.3q.3-.3,2.1-2.1c0-4.9,0-9.8,0-14.7h-2.1c-1.5-13,2.6-22.1,8-33.9,2.3-5.6,3.7-10.6,4.6-16.5,2.1.7,4.2,1.4,6.3,2.1v4.2h4.2l-2.1-10.5c-4.9-.7-9.7-1.4-14.7-2.1v-2.1Z"/>
        <path class="st92" d="M657.3,1197.3c20.4-.3,40.5.5,60.9,2.1-3.4,3.6-6.9,7.1-10.5,10.5h-4.2v-8.4h-4.2c-.7,2.1-1.4,4.2-2.1,6.3h-18.9c-1.4,4.9-2.8,9.7-4.2,14.7h-4.2c-1.4-4.1-2.9-8.2-4.3-12.3-2.2-4.9-4.9-8.7-8.3-12.9Z"/>
        <path class="st125" d="M686.7,1224.6c7.1,1.1,10.7,2.2,16.8,6.3q5,.5,10.5.7,9.9.8,15.1,6.3c1.9,6.3,1.7,8-.4,14-2,3.6-4,7.2-6,10.8-6,11.5-7.9,21.5-9.5,34.1q-2.1,16.4-7.2,23c-4.2,3.1-8.4,5.4-13.1,7.7-1.8,1.6-3.6,3.2-5.5,4.9-5.9,4.2-10.5,5-17.6,5.6l-2.1-4.2c1.8-.2,3.7-.4,5.6-.6,12.5-2.6,23-9.7,30.1-20.4,3-8.1,4.4-16.5,5.7-25,2-12.9,5.7-22.4,13.1-33.3,2.9-5.9,2-9,.2-15.2-1.3-.2-2.7-.5-4.1-.7-11.4-2.1-21.2-4.8-31.6-9.8v-4.2Z"/>
        <path class="st116" d="M676.2,1230.9q1.7.3,10.5,2.1v4.2c2.3-.7,4.7-1.5,7.1-2.2q7.6-2,11.8.1v4.2h14.7q2.2,3.9,4.2,8.4l-2.1,4.2h-4.2l-2.1-4.2h-4.2c-.7,2.8-1.4,5.5-2.1,8.4l-4.2-4.2c-4.6-1.3-9.2-2.4-13.9-3.4-2.5-.5-5-1.1-7.6-1.7-1.9-.4-3.8-.8-5.8-1.2-.7-4.9-1.4-9.7-2.1-14.7Z"/>
        <path class="st60" d="M693,1209.9l8.4,2.1c-.7,4.9-1.4,9.7-2.1,14.7q-2.1-.3-12.6-2.1v4.2c1.7.3,3.4.5,5.1.8,1.8.4,3.6.9,5.4,1.3.7,1.4,1.4,2.8,2.1,4.2-2,.6-4,1.3-6,2q-6.6,2.2-10.8,4.3l2.1-6.3c-2.1-.7-4.2-1.4-6.3-2.1v12.6h-18.9v-2.1c4.2-.7,8.3-1.4,12.6-2.1v-8.4l-4.2-4.2h12.6v-4.2c-6.2,1.4-12.5,2.8-18.9,4.2.7-2.8,1.4-5.5,2.1-8.4l2.1,2.1c1.4-1.4,2.8-2.8,4.2-4.2v4.2h4.2c.7-1.4,1.4-2.8,2.1-4.2,2.8,1.4,5.5,2.8,8.4,4.2.7-3.5,1.4-6.9,2.1-10.5.7,2.8,1.4,5.5,2.1,8.4h4.2v-10.5Z"/>
        <path class="st57" d="M665.7,1245.6c15.3-.7,28.2-1,42,6.3,2.3,5.1,2.4,7.6.7,12.9-.7,1.6-1.5,3.2-2.3,4.9-4.4,10.3-7,20.4-9.3,31.4-1.8,5.6-3.5,8-8,11.7l-4.2-2.1q.5-.9,3-5.3c4.7-10.2,6-20.4,7.9-31.3,1.7-7.2,3.9-11.9,8.1-18-2.4-.3-4.8-.5-7.2-.8-2.5-.4-4.9-.9-7.5-1.3-.7-1.4-1.4-2.8-2.1-4.2q-4.8-.9-10.6-1.3c-1.9-.2-3.9-.3-5.9-.5q-.7,0-4.5-.3v-2.1Z"/>
        <path class="st33" d="M659.4,1321.2h18.9c-.7,2.1-1.4,4.2-2.1,6.3,2.1,1.4,4.2,2.8,6.3,4.2-3.5,1.4-6.9,2.8-10.5,4.2l12.6,2.1v4.2h-39.9v-8.4c5.5.7,11.1,1.4,16.8,2.1q-.9-.5-5.3-2.8c-1.7-1.2-3.5-2.3-5.3-3.5v-6.3c1.4,1.4,2.8,2.8,4.2,4.2q5.5,1.3,10.5,2.1v-4.2c-2.1-.7-4.2-1.4-6.3-2.1v-2.1Z"/>
        <path class="st66" d="M630,1237.2h2.1c.8,4,1.5,8,2.2,12.1.4,2.2.8,4.5,1.3,6.8.7,5.8.5,9.3-1.4,14.7-3.5,0-7,0-10.5,0-.7-.7-1.4-1.4-2.1-2.1-2.1,2.1-4.2,4.2-6.3,6.3.2-5.2.5-10.4.8-15.6,0-1.5.1-3,.2-4.5.2-3.8.7-7.6,1.1-11.4l4.2-2.1c2.1,1.4,4.2,2.8,6.3,4.2l2.1-8.4Z"/>
        <path class="st67" d="M636.3,1262.4h4.2c0,1.2-.1,2.5-.2,3.8-.2,5.7-.4,11.5-.5,17.2,0,2-.2,3.9-.3,5.9-.2,12.4,1.3,20.2,8.7,30.3q2.7,3.7,4.8,8.2c2.6,5,5.3,6.1,10.4,8.1q-6.3,2.1-11.2.3c-7-5.5-10.9-11.8-15.7-19.2q-2.6-4.1-4.7-6.2-.5-15.3,2.1-23.1c.5-4.3.9-8.7,1.2-13,.2-2.3.4-4.6.5-6.9q0-.9.4-5.3Z"/>
        <path class="st124" d="M697.2,1289.7c2.1.7,4.2,1.4,6.3,2.1,0,3,0,6,.1,9.1,0,1.7,0,3.4,0,5.1-.3,6.6-1.4,10.2-6.2,14.9q-.8.6-4.6,3.9c-1.5,1.3-3.1,2.6-4.7,4-1.2,1-2.4,2-3.6,3l-10.5-4.2c4.1-6.8,7.4-11.9,13.9-16.5,7.1-6.4,7.5-12,9.2-21.3Z"/>
        <path class="st76" d="M711.9,1289.7h10.5c.7,2.1,1.4,4.2,2.1,6.3h-8.4c.2,1.3.4,2.7.7,4.1.6,6.1.6,10.9-.7,16.9-4.3,4.7-8.8,7.9-14.1,11.5-5.6,3.8-9.1,8.4-13.2,13.7h-4.2v-4.2c-2.8.7-5.5,1.4-8.4,2.1,5.3-5.5,11-10.2,16.9-15,1.8-1.5,3.7-3,5.6-4.5q4.8-3.7,9-5.8,1.3-5.7,2.4-12.7c.4-2.3.7-4.6,1.1-7,.3-1.8.5-3.6.8-5.4Z"/>
        <path class="st77" d="M617.4,1235.1c2.1,1.4,4.2,2.8,6.3,4.2-.7,1.4-1.4,2.8-2.1,4.2h-2.1c-.7,9.7-1.4,19.4-2.1,29.4.7-4.9,1.4-9.7,2.1-14.7h2.1c.7,4.2,1.4,8.3,2.1,12.6,3.5.7,6.9,1.4,10.5,2.1v10.5l-2.1-4.2c-8.5,2.6-15.5,5.8-23.1,10.5q2.9-43.7,8.4-54.6Z"/>
        <path class="st139" d="M655.2,1258.2h2.1v16.8h23.1c-.7,4.2-1.4,8.3-2.1,12.6l-4.2-4.2c-.7,2.8-1.4,5.5-2.1,8.4h-18.9c.7-11.1,1.4-22.2,2.1-33.6Z"/>
        <path class="st15" d="M615.3,1226.7c7.1,6.6,11.8,11.7,14.7,21-3.5-3.5-6.9-6.9-10.5-10.5-4.6,4.6-4.3,14.1-5.4,20.5-.3,1.7-.6,3.4-.9,5.2-1.4,8.3-2.5,16.3-2.1,24.8,1.5-1.4,3-2.8,4.6-4.2,6.4-4.5,8.8-5.1,16.4-4.2l-2.1,4.2c-1.2.2-2.3.4-3.5.7-5.2,1.5-7.4,3.3-11.4,6.8q-6,5.1-10.2,5.1c-.6-13.8,1.7-26.9,4.1-40.6q.2-1.2,1.2-7,2.9-17,5.3-21.8Z"/>
        <path class="st112" d="M699.3,1201.5h4.2v7.3c3.5-1.2,6.9-2.4,10.5-3.7-1.3,1.2-2.6,2.5-3.9,3.8-5.2,6.2-6.7,10.8-8.7,18.1-1.4-1.2-2.8-2.4-4.2-3.7q.8-6.6,2.1-12.8c-2.1-.6-4.2-1.2-6.3-1.8v9.1c-2.1-.6-4.2-1.2-6.3-1.8l-2.1,3.7c-2.8-.6-5.5-1.2-8.4-1.8.7-3.6,1.4-7.2,2.1-11q.7,0,4.1-.3c1.7-.1,3.5-.3,5.3-.4,1.7-.1,3.5-.3,5.2-.4q.7-.1,4.3-.8l2.1-3.7Z"/>
        <path class="st27" d="M651,1193.1c8.7.3,17.4.6,26.1.9,2.4,0,4.9.2,7.4.2,13.4.5,26.6,1.3,40,3-2.1,2.8-4.2,5.5-6.3,8.4l-4.2-2.1,2.1-2.1c-18.9-1.6-37.7-2.4-56.7-2.1,1.4,1.2,2.8,2.4,4.2,3.7q4.2,4.7,4.8,12.6c-.2,2.3-.3,4.5-.5,6.8l-4.2,2.1c-.1-2.6-.3-5.1-.4-7.7-1.1-9.4-5-13.3-12.2-19.6v-4.2Z"/>
        <path class="st90" d="M678.3,1251.9c3.5.1,6.9.4,10.4.8q.9,0,5.7.6t9.1,2.8c-2.8,7-5.6,14-8.4,21q-4.1-.8-8.4-2.1c-2.8-5.7-2.2-10.5-2.1-16.8-2.8-1.4-5.5-2.8-8.4-4.2l2.1-2.1Z"/>
        <path class="st42" d="M749.7,1235.1c2.2,8.8,1.5,15.2,0,23.9-.2,1.5-.5,3-.7,4.5-.8,4.7-1.5,9.4-2.3,14.1-.5,3.2-1,6.4-1.5,9.6-1.3,7.8-2.5,15.7-3.8,23.5h-4.2l-2.1-8.4h4.2c.1-1.8.3-3.7.4-5.5,1.2-16.4,2.4-32.7,3.8-49.1-2.8,2.1-5.5,4.2-8.4,6.3l-4.2-2.1c6.2-5.5,12.5-11.1,18.9-16.8Z"/>
        <path class="st41" d="M745.5,1245.6c-1.2,19.1-3.4,37.8-6.3,56.7h-4.2l-2.1-8.4h4.2c.1-2.2.3-4.3.4-6.5.2-2.9.4-5.7.5-8.6,0-1.4.2-2.8.2-4.3.5-7.7,1.3-15.1,3-22.6q-4.2,2.8-8.4,6.3v6.3h-10.5c-1.4,2.8-2.8,5.5-4.2,8.4,1.2-8.3,3.2-14.3,8.4-21q5.3-1.4,10.5-2.1,6.3-4.2,8.4-4.2Z"/>
        <path class="st94" d="M680.4,1224.6v4.2c-2.8.7-5.5,1.4-8.4,2.1.7,3.5,1.4,6.9,2.1,10.5-2.8.7-5.5,1.4-8.4,2.1l-2.1-10.5c-3.4-.2-6.7-.3-10.1-.4-1.9,0-3.8-.1-5.7-.2q-5.2.6-9.1,3c-3.5,5.6-2.6,9.4-1.8,15.8.3,2.1.5,4.2.8,6.3.2,1.6.4,3.2.7,4.8-4-6-5.1-8.7-6-15.6q-.1-.8-.8-4.8t3.9-9.4c6.3-4.6,10.2-4.9,17.9-5.1,9.6-.4,17.5-3,27-2.8Z"/>
        <path class="st5" d="M722.4,1264.5h10.5v14.7h-14.7q2.1,6.3,8.4,10.4t8.1,9.1q0,.6.3,3.7c-1.9-1.7-3.7-3.4-5.6-5.1-5.7-4.8-9.9-6.8-17.5-7.5,1.4-5.5,2.8-11.1,4.2-16.8h4.2l2.1-8.4Z"/>
        <path class="st134" d="M741.3,1249.8c2.6,5.3,1.9,7.6.9,13.3-.3,1.8-.6,3.6-.9,5.4-.3,1.9-.6,3.7-1,5.7-.3,1.9-.6,3.8-.9,5.7-.8,4.7-1.5,9.3-2.3,14-7.3-1.7-12.8-4-18.9-8.4v-6.3h14.7q-.1-.7-.8-4.3c-.9-5.7-1.5-10.9-1.3-16.7q5.1-5.5,10.5-8.4Z"/>
        <path class="st21" d="M663.6,1230.9l4.2,4.2q-.3,4.2-2.1,8.4c-6.2,4.3-9,4.2-16.8,4.2-.3,9.2-.5,18.4-.7,27.6,0,2.6-.2,5.2-.3,7.9q-.3,21.6,6.1,29,.9.8,5.3,4.9c.7,2.1,1.4,4.2,2.1,6.3,1.4.7,2.8,1.4,4.2,2.1v4.2c-6.8.8-9.6.6-15.2-3.5-14.2-17.2-13.4-31.7-12.4-53.2.4-8.5-.3-16-2.3-24.3q-1.9-8.7,1.1-15c8.7-4.1,17.3-4.2,26.8-2.8Z"/>
      </g>
    </g>
  </g>
</svg>