<?xml version="1.0" encoding="UTF-8"?>
<svg id="Layer_1" xmlns="http://www.w3.org/2000/svg" xmlns:inkscape="http://www.inkscape.org/namespaces/inkscape" version="1.1" viewBox="0 0 1761 2394">
  <!-- Generator: Adobe Illustrator 30.5.1, SVG Export Plug-In . SVG Version: 2.1.4 Build 3)  -->
  <defs>
    <style>
      .st0 {
        fill: #997b6b;
      }

      .st1 {
        fill: #c1a48c;
      }

      .st2 {
        fill: #3e3431;
      }

      .st3 {
        fill: #e1ded7;
      }

      .st4 {
        fill: #97847b;
      }

      .st5 {
        fill: #1e2124;
      }

      .st6 {
        fill: #b0afaa;
      }

      .st7 {
        fill: #e4e0d9;
      }

      .st8 {
        fill: #312b2a;
      }

      .st9 {
        fill: #26282b;
      }

      .st10 {
        fill: #453937;
      }

      .st11 {
        fill: #26282d;
      }

      .st12 {
        fill: #827a71;
      }

      .st13 {
        fill: #e8d6be;
      }

      .st14 {
        fill: #897772;
      }

      .st15 {
        fill: #957565;
      }

      .st16 {
        fill: #e9e3de;
      }

      .st17 {
        fill: #392c27;
      }

      .st18 {
        fill: #c3a587;
      }

      .st19 {
        fill: #cbb9a6;
      }

      .st20 {
        fill: #25262a;
      }

      .st21 {
        fill: #e6e5df;
      }

      .st22 {
        fill: #333f47;
      }

      .st23 {
        fill: #8b6e5f;
      }

      .st24 {
        fill: #776e64;
      }

      .st25 {
        fill: #bdab9e;
      }

      .st26 {
        fill: #c09181;
      }

      .st27 {
        fill: #3a312e;
      }

      .st28 {
        fill: #b69e90;
      }

      .st29 {
        fill: #dbdbd9;
      }

      .st30 {
        fill: #25282c;
      }

      .st31 {
        fill: #c2a68c;
      }

      .st32 {
        fill: #74746f;
      }

      .st33 {
        fill: #7c7a75;
      }

      .st34 {
        fill: #b1b0ab;
      }

      .st35 {
        fill: #25292c;
      }

      .st36 {
        fill: #25272a;
      }

      .st37 {
        fill: #f2f1ee;
      }

      .st38 {
        fill: #383130;
      }

      .st39 {
        fill: #26292d;
      }

      .st40 {
        fill: #25282b;
      }

      .st41 {
        fill: #25292b;
      }

      .st42 {
        fill: #b1afaa;
      }

      .st43 {
        fill: #74736e;
      }

      .st44 {
        fill: #dacab8;
      }

      .st45 {
        fill: #e4e2db;
      }

      .st46 {
        fill: #8c6c59;
      }

      .st47 {
        fill: #352925;
      }

      .st48 {
        fill: #d3d2d1;
      }

      .st49 {
        fill: #977a6c;
      }

      .st50 {
        fill: #917b74;
      }

      .st51 {
        fill: #c2a58d;
      }

      .st52 {
        fill: #66625d;
      }

      .st53 {
        fill: #76746f;
      }

      .st54 {
        fill: #cdb294;
      }

      .st55 {
        fill: #caac93;
      }

      .st56 {
        fill: #968179;
      }

      .st57 {
        fill: #b2afa9;
      }

      .st58 {
        fill: #816357;
      }

      .st59 {
        fill: #766c64;
      }

      .st60 {
        fill: #332927;
      }

      .st61 {
        fill: #303c46;
      }

      .st62 {
        fill: #d1bba6;
      }

      .st63 {
        fill: #e6e4dd;
      }

      .st64 {
        fill: #dbcbb8;
      }

      .st65 {
        fill: #423936;
      }

      .st66 {
        fill: #f1e2d1;
      }

      .st67 {
        fill: #8a756d;
      }

      .st68 {
        fill: #dccab6;
      }

      .st69 {
        fill: #36393c;
      }

      .st70 {
        fill: #b1afa9;
      }

      .st71 {
        fill: #e2dfdb;
      }

      .st72 {
        fill: #cfb598;
      }

      .st73 {
        fill: #917362;
      }

      .st74 {
        fill: #968680;
      }

      .st75 {
        fill: #f2e9da;
      }

      .st76 {
        fill: #d0b598;
      }

      .st77 {
        fill: #ddcdb8;
      }

      .st78 {
        fill: #afa096;
      }

      .st79 {
        fill: #393234;
      }

      .st80 {
        fill: #6f6f69;
      }

      .st81 {
        fill: #ddc6ad;
      }

      .st82 {
        fill: #bfab99;
      }

      .st83 {
        fill: #b0aea9;
      }

      .st84 {
        fill: #726961;
      }

      .st85 {
        fill: #67544a;
      }

      .st86 {
        fill: #b99682;
      }

      .st87 {
        fill: #1d1e1e;
      }

      .st88 {
        fill: #312826;
      }

      .st89 {
        fill: #8b7a75;
      }

      .st90 {
        fill: #73675c;
      }

      .st91 {
        fill: #766b64;
      }

      .st92 {
        fill: #716e67;
      }

      .st93 {
        fill: #ae9a8d;
      }

      .st94 {
        fill: #82695c;
      }

      .st95 {
        fill: #a6a6a2;
      }

      .st96 {
        fill: #312522;
      }

      .st97 {
        fill: #e5e3dc;
      }

      .st98 {
        fill: #4f5c64;
      }

      .st99 {
        fill: #a6a5a1;
      }

      .st100 {
        fill: #66625c;
      }

      .st101 {
        fill: #3f3937;
      }

      .st102 {
        fill: #c2a691;
      }

      .st103 {
        fill: #83726d;
      }

      .st104 {
        fill: #957a6c;
      }

      .st105 {
        fill: #e5e5e0;
      }

      .st106 {
        fill: #f4eade;
      }

      .st107 {
        fill: #f1e8d9;
      }

      .st108 {
        fill: #7a7167;
      }

      .st109 {
        fill: #b99883;
      }

      .st110 {
        fill: #35383a;
      }

      .st111 {
        fill: #eee4d6;
      }

      .st112 {
        fill: #dabfa1;
      }

      .st113 {
        fill: #dec7a8;
      }

      .st114 {
        fill: #443730;
      }

      .st115 {
        fill: #f1f2f1;
      }

      .st116 {
        fill: #efefec;
      }

      .st117 {
        fill: #393434;
      }

      .st118 {
        fill: #b79b87;
      }

      .st119 {
        fill: #1e1f1e;
      }

      .st120 {
        fill: #cab9a6;
      }
    </style>
  </defs>
  <g id="background" inkscape:groupmode="layer" inkscape:label="Background">
    <path class="st41" d="M.1,0h1760v1516c-2.6-2-5.3-4-8-6-7.4-5.4-15.1-10.2-23-15-.8-.5-1.6-1-2.5-1.6-18.5-11.5-39-20.2-58.7-29.3-5.1-2.4-10.1-4.8-15.1-7.4-5.8-2.9-11.6-5.6-17.7-7.8v-2c-.8,0-1.7-.2-2.5-.3-4.2-.9-7.6-2.5-11.4-4.4-1.5-.7-3-1.5-4.5-2.2-.8-.4-1.5-.7-2.3-1.1-3.4-1.6-6.8-3.2-10.2-4.8-4.2-1.9-8.3-3.9-12.4-6-3.1-1.6-6.1-2.9-9.3-4.1-4.6-1.8-9-3.9-13.4-6.2-5.1-2.6-10.2-5-15.6-7-4-1.6-7.8-3.7-11.6-5.6-2.2-1.1-4.3-2-6.7-2.8-3.8-1.3-7.3-3.1-10.9-4.9-5.3-2.7-10.6-5.1-16.2-7.3-3.4-1.4-6.8-3-10.1-4.5-6-2.8-12-5.6-18-8.2-9.9-4.4-19.7-8.9-29.4-13.6-9.2-4.4-18.5-8.6-27.9-12.6-6.1-2.6-12.1-5.5-18-8.5-5.2-2.7-10.6-5-16-7.2-4.6-2-9.1-4.3-13.6-6.6-4.3-2.2-8.7-4-13.2-5.6-8.3-3.5-13.1-9.5-18.8-16.3-6.1-7.3-12.8-13.8-19.6-20.5-.3-.3-1.1-1.1-2.5-2.5-.8-.7-1.5-1.5-2.3-2.2-1.1-1.2-1.6-2.5-1.6-3.8h-2c-.9-1-2-2.2-3.1-3.5-3.8-4.4-7.8-8.6-12-12.7-.8-.7-1.5-1.5-2.3-2.3-2.4-2.4-4.8-4.7-7.1-7.1-3.1-3.1-6.3-6.2-9.4-9.3l-2.1-2.1c-4-3.9-7.7-8-11.4-12.2-2.8-3.2-5.8-6.1-8.8-9-3.9-3.8-7.4-7.6-10.8-11.8-1.1-1-2.3-2-3.4-3-4.7-4-8.9-8.3-13.2-12.6-2.8-2.9-4.9-4.7-6.4-5.4v-2c-.6-.2-1.1-.5-1.7-.7-2.9-1.6-5-3.6-7.4-5.9-19-17.7-44.8-32.5-70.9-35.4.3-.7.7-1.3,1-2,0-1.6-.2-3.2-.4-4.7-.7-6.8-.9-13.7-1.2-20.5,0-1.2,0-2.4,0-3.7,0-3.7-.2-7.4-.3-11.1,0-1.1,0-2.2,0-3.3-.2-12.2,1-24.3,2.1-36.5.4-3.9.7-7.7,1-11.6.2-2.5.4-4.9.7-7.4,0-1.1.2-2.3.3-3.5.5-5.2,1-10,3-14.8,4.8,1,9.3,3,13.8,4.8,8.7,3.2,20.1,4.2,29,.9,9.7-4.5,17.7-11,24-19.6.5-.6,1-1.3,1.4-2,.9-1.3,1.8-2.6,2.7-3.9.9-1.2,2.2-2.7,4.1-4.4,3,0,5.2.4,8,1,25.8,2,51.9-4.8,75-16l3-1.5c27.5-14.2,47.5-38.7,57.2-67.7,5.8-20.5,1.9-42.8-8-61.2-2.9-5-6.4-9.3-10.2-13.6-.7-.8-1.3-1.7-2-2.5-8.7-10.6-22.1-16.5-34.8-20.9-7.1-2.6-12.5-6.7-18.2-11.6-.7-.5-1.3-1.1-2-1.6-12-10.9-20.3-28.5-21.2-44.6v-15c0-8.2.4-16.4,1.1-24.5,0-.9.2-1.8.2-2.8.4-4.1,1.4-7,2.9-8.5.2-1.4.3-2.9.4-4.6,0-.9,0-1.8,0-2.7v-2.8c0-.9,0-1.9,0-2.9,0-2.3.2-4.7.3-7,13.6,3.2,20.6,16.1,27.6,27.2,10.6,16.7,23.3,30.2,43.4,34.8,16.2,1.6,30.7-.6,46-6-1.3,0-2.8.2-4.3.5-14.2,2.7-30,1.7-42.3-6.1-2.3-1.7-4.3-3.5-6.4-5.4-.6-.5-1.2-1-1.8-1.4-6-5.1-8.9-12.4-12.2-19.4-11.1-23.6-24.7-40.8-49.8-50.3-1.5-.6-2.5-1.2-3.2-1.9-.2-1.7-.3-3.3-.4-5-4.4-78.3-26.8-163.4-89.6-265-.8-.8-1.7-1.7-2.5-2.5-10.9-10.5-24.1-18.5-37.4-25.5-8.4-5.4-12.8-12.9-17.8-21.4-1.4-2.3-2.8-4.7-4.2-7-.1-.2-.5-.8-1.1-1.7-7.6-12.5-16.3-23.9-26-34.9-.8-.9-1.6-1.8-2.4-2.7-7.9-8.9-16.2-16.9-25.6-24.3-.8-.7-1.7-1.3-2.6-2-32.9-25.5-70.2-42.2-109.4-55-.7-.2-1.4-.5-2.1-.7-16.6-5.4-33.7-8.3-51-11-1.7-.3-3.5-.6-5.2-.9-14.6-2.4-29.1-2.7-43.8-2.8h-2.8c-11.6,0-22.7.6-34.2,2.3-2.3.3-4.6.6-6.9,1-17.1,2.5-33.7,5.4-50.3,10.2-3,.9-6.1,1.7-9.1,2.6-14.2,4.1-28,8.6-41.6,14.2-1,.4-2,.8-3,1.2-43.3,17.7-84.5,38.8-122.6,66-2.2,1.6-4.4,3.1-6.6,4.6-21.5,15.1-41.9,32-60.9,50.1-.2.2-.8.7-1.7,1.6-7.9,7.6-15,15.5-21.3,24.4-.4.6-.8,1.2-1.3,1.8-23.2,32.8-31.6,69-32.7,108.7-.5,18.5-2.2,36.6-6.1,54.7,0,.3-.3,1.3-.6,2.9-2.8,13-6.3,25.8-9.6,38.6-4.2,16.3-8.5,32.6-10.6,49.3,0,.7-.2,1.4-.3,2.1-4.9,41.9,2.9,83.6,21.8,121.3.5,1,1,2.1,1.6,3.1,4.5,9,9.5,17.6,14.7,26.2,1.1,1.8,2.1,3.6,3.2,5.3.2.3.8,1.3,1.7,2.9,6.3,10.8,11.8,21.9,17.4,33.1l5.1,10.2,3.3,6.6c.5,1,1,2,1.5,3.1,6,12.1,8.3,21,5.9,34.6-2.1,12.1-2.4,23.9-2.3,36.1v10c0,18,1.7,35.5,5.7,53,.2.9.4,1.9.6,2.8,3,13.3,7,26.3,11.1,39.3,1.2,3.8,2.3,7.7,3.4,11.6,3.9,14.4,8.4,28.6,13.2,42.8,3,8.9,5.9,17.8,8.7,26.7,9,29,18.4,57.8,29,86.3,1,2.8,2.1,5.6,3.1,8.5,10.5,28.7,26.3,49.7,50.6,68.5,1.9,1.5,3.8,3.1,5.7,4.6.9.7,1.8,1.5,2.7,2.2,3.6,3,7.1,6,10.6,9.2-1.4,3.8-3.1,7.1-5.2,10.6-.2.3-.8,1.3-1.7,2.8-2.2,2.7-4.2,4-7.3,5.6-3.9,2.2-7.5,5-11.1,7.7-3.1,2.3-5.3,3.4-6.8,3.4-.3,1-.7,2-1,3-1.5,1.2-3.2,2.5-5.1,3.8-3.4,2.4-6.9,4.9-10.2,7.4-2.8,2.1-5.6,3.9-8.7,5.6-1.6.9-3.3,1.9-4.8,3-7.8,5-15.6,8.8-24.1,12.4-2.2.9-4.3,1.8-6.4,2.7-7.6,3.2-15.1,6-22.9,8.3-3.4,1-6.5,2.4-9.7,3.8-6.8,2.7-13.8,4.9-20.8,7-3.8,1.2-7.4,2.5-11.1,3.9-3.8,1.4-7.5,2.7-11.3,4.1-.7.3-1.4.5-2.2.8-3.6,1.3-7.2,2.5-10.8,3.7-.7.2-1.3.4-2,.7-1.8.6-3.7,1.2-5.5,1.8-3,1.1-5.5,2.5-8.2,4.2-1.3.5-2.7,1-4,1.4-3.7,1.2-7.2,2.5-10.8,3.9-5.5,2.1-11,4.1-16.6,6.1-32.1,11.1-53.7,19.6-64.8,25.3-2.1,1.1-4.3,2.2-6.5,3.2-18.2,8.9-35.1,19.4-50.5,32.7-1.8,1.6-3.7,3.1-5.6,4.7-2.6,2.1-4.9,4.4-7.3,6.8-.6.6-1.2,1.1-1.8,1.7-5.6,5.4-10.4,11.2-15.2,17.3-.8,1-1.6,2-2.5,3.1-5.6,7.1-10.7,14.5-15.5,22.2-1,1.7-2.1,3.3-3.2,5-9.8,15.4-16.1,32-21.8,49.3-.2.7-.4,1.3-.7,2-3.2,9.6-6.2,19.3-8.8,29.1-.7,2.7-1.5,5.5-2.2,8.2-2.5,9.2-5,18.4-7.4,27.7-3.4,12.7-6.8,25.4-10.5,38-1.9,6.5-3.7,13-5.5,19.6-2.3,8.7-4.8,17.4-7.4,26-1.9,6.6-3.8,13.3-5.6,20-2,7.5-4.1,14.9-6.3,22.4-2.8,9.6-5.6,19.3-8.3,29-.2.7-.4,1.4-.6,2.1-2.2,7.8-4.4,15.6-6.5,23.5-1.5,5.4-3,10.8-4.6,16.1-5.1,17.1-9.8,34.3-14.3,51.5-.3,1-.5,2.1-.8,3.1-.2.9-.5,1.8-.7,2.7-.8,2.6-1.8,5-2.8,7.6-.5,1.6-.9,3.2-1.3,4.8-.2.9-.5,1.8-.7,2.8,0,.3-.3,1.3-.7,3-2.1,8.4-4.5,16.7-7,24.9-2.2,7.2-4.2,14.5-6.2,21.8-1.1,4.2-2.3,8.3-3.5,12.5-1.9,6.2-3.6,12.5-5.3,18.8-2.5,9.1-5.1,18.2-7.8,27.2-2.9,9.8-5.5,19.7-8,29.6-2.5,9.6-5.1,19.2-7.9,28.7-2.1,7.2-4.1,14.5-6.1,21.8-2.2,8.3-4.5,16.5-6.9,24.8-2.7,9-5.2,18.1-7.6,27.2-2.7,10.1-5.5,20.2-8.4,30.2-2.1,7.2-4.1,14.4-6,21.7-2.7,10.1-5.7,20.1-8.8,30.1-2.1,6.8-4,13.6-5.6,20.6-3.4,13.8-7.6,27.4-11.7,41.1-2.4,8-4.5,16.1-6.7,24.2-2,7.6-4.1,15.1-6.2,22.6-3.6,12.8-7.1,25.6-10.5,38.5H.1V0Z"/>
  </g>
  <g id="subject" inkscape:groupmode="layer" inkscape:label="Subject">
    <g id="clothing_base" inkscape:label="Clothing base">
      <path class="st22" d="M1146.2,1143c26.7.7,51.6,18.7,71.1,35.5,1.9,1.6,3.8,3.2,5.8,4.7.7.6,1.4,1.2,2.1,1.8v2c.6.3,1.2.5,1.8.8,2.5,1.4,4.1,2.9,6.1,5l2.2,2.2,2.3,2.3c5.6,5.7,9.6,9.6,12,11.5,2.2,1.8,3.9,3.4,5.6,5.6,4,4.7,8.4,9,12.8,13.3,2.9,2.9,5.8,5.8,8.4,9,3.9,4.4,8,8.6,12.1,12.7l4.7,4.7c2.5,2.4,4.9,4.9,7.4,7.3,2.4,2.4,4.8,4.7,7.2,7.1.7.7,1.5,1.5,2.3,2.2.7.7,1.4,1.4,2.1,2l1.8,1.8c.9,1,1.3,2.2,1.3,3.5h2c.9.9,1.9,2.1,3,3.4,4.2,4.9,8.7,9.4,13.3,13.9,6,5.9,11.7,11.8,16.8,18.6,3.5,4.2,7.3,6.6,12.4,8.5,4,1.6,7.9,3.3,11.7,5.2,9.2,4.7,18.6,8.8,27.9,13.1,3.7,1.7,7.4,3.4,11.1,5.2,8.1,3.8,16.2,7.5,24.4,10.9,6,2.5,11.8,5.3,17.5,8.3,6.7,3.4,13.6,6.4,20.6,9.4,10.1,4.4,20.1,8.8,29.9,13.8,4.7,2.4,9.5,4.5,14.4,6.4,4.1,1.7,8,3.8,12,5.8,3.4,1.6,6.8,3,10.3,4.3,4,1.6,7.7,3.6,11.5,5.6,2.3,1.1,4.5,2,6.9,2.9,4.1,1.5,7.9,3.4,11.8,5.4,4.9,2.5,9.8,4.8,14.9,6.7,5.7,2.1,11,4.6,16.3,7.4,5,2.5,10,4.9,15,7.4.9.4,1.8.9,2.7,1.3,4.4,2.1,8.6,4,13.3,5.4v2c1.2.3,2.3.5,3.5.8,4.3,1.1,8,2.8,12,4.9,5.4,2.8,10.9,5.4,16.5,7.8,6,2.6,11.9,5.4,17.8,8.4,4.4,2.2,8.8,4.3,13.2,6.4,9.4,4.3,18.3,9.2,27.1,14.6,2.7,1.6,5.4,3.1,8.1,4.7,5.9,3.4,11.7,7.1,17.1,11.2,1.1.8,2.4,1.6,3.7,2.5,3.6,2.5,5.7,4.4,6.7,8.8.3,3.9.3,7.7.2,11.6v230.4c0,64.8-.2,129.6-.3,194.4-.2,144.7-.3,289.5-.5,438.6H605.2c1.7-1.7,3.3-3.3,5-5,.8-1.3,1.5-2.5,2.1-3.7.1-.2.5-.9,1-2,.3-.7.6-1.4,1-2.1.7-1.4,1.4-2.9,2.1-4.3.3-.7.7-1.4,1-2.1,1.8-3.7,3.8-7.3,5.9-10.9,1.2-2.1,2.5-4.3,3.7-6.4.3-.6.7-1.2,1-1.8,3.3-5.8,6.5-11.6,9.7-17.4,2.2-3.9,4.4-7.8,6.8-11.7,2.3-3.8,4.3-7.6,6.2-11.6,2.2-4.5,4.5-8.7,7.2-12.9,4.8-7.7,9-15.7,13.3-23.7,3.7-6.9,7.4-13.7,11.3-20.4,2.1-3.6,4.1-7.2,6.1-10.7,4.1-7.3,8.2-14.6,12.4-21.8,5.3-9.2,10.3-18.5,15.2-27.8,5.9-10.9,11.9-21.8,18.1-32.5,5.8-10,11.4-20.2,17.1-30.3.3-.6.6-1.2,1-1.8,2-3.6,4-7.2,6-10.8.9-1.7,1.9-3.3,2.8-5,5.6-10.1,11.2-20.1,16.2-30.5h2c0-.8,0-1.6.2-2.4,1.1-4.9,3.5-8.7,6.1-13,1.1-1.9,2.2-3.7,3.3-5.6.6-1,1.1-1.9,1.7-2.9,3.5-6,6.9-12.1,10.3-18.2,2.7-4.8,5.5-9.5,8.6-14.2.6-1.1.9-2.7.9-4.7l3-3c1.2-1.9,2.3-3.8,3.3-5.8s1.3-2.3,1.9-3.5c.7-1.2,1.3-2.4,2-3.7,1.3-2.4,2.6-4.7,3.9-7.1.1-.2.5-.8,1-1.8,2.7-4.9,5.5-9.7,8.3-14.5,3.3-5.6,6.3-11.3,9.3-17,3.5-6.6,6-11.1,7.4-13.5.6-1.1,1.2-2.1,1.8-3.2.4-.6.7-1.2,1.1-1.8,3.3-5.9,3.7-11.6,3.9-18.2h1c.3,2.6.7,5.3,1,8,.5-.9.9-1.7,1.4-2.6,7.5-14.2,15.3-28.1,23.2-42.1.6-1,1.1-2,1.7-3,2.3-4.1,4.6-8.2,7-12.3,3.8-6.5,7.3-13.1,10.6-19.9,5.2-10.6,11.2-20.8,17.3-31,2.1-3.7,4.1-7.4,6.1-11.1,2.9-5.2,5.8-10.4,8.7-15.7.7-1.2,1.3-2.4,2-3.5,3.3-5.9,6.5-11.7,9.8-17.6,7.5-13.4,12.9-23.3,16.2-29.6,1.8-3.5,3.8-6.9,5.8-10.3,3.6-5.9,6.9-12,10.3-18,1.3-2.4,2.7-4.8,4-7.2.3-.6.7-1.2,1-1.8,3.1-5.6,6.3-11.2,9.4-16.8,5.4-9.4,10.6-18.9,15.9-28.4,3.6-6.5,7.2-12.9,10.9-19.3,5.6-9.8,10.9-19.6,15.7-29.7h2c0-.3.3-1.1.8-2.6,1.3-3.6,3-6.7,4.9-10.1.7-1.3,1.4-2.5,2.2-3.8,1.1-2,2.3-3.9,3.4-5.9,1.1-1.9,2.2-3.8,3.3-5.8.7-1.1,1.3-2.3,2-3.5,1.6-3.5,2.2-6.5,2.6-10.4l2,2c1.2-2.1,2.4-4.3,3.6-6.4.4-.7.8-1.4,1.2-2.1,2.5-4.5,5-8.9,7.5-13.4,5.9-10.6,11.9-21.2,18-31.8,2.9-5.1,5.8-10.2,8.6-15.3-.7-.3-1.3-.7-2-1,1-.3,2-.7,3-1,1.6-2.6,3-5.1,4.4-7.8.9-1.6,1.8-3.3,2.7-4.9.5-.9.9-1.7,1.4-2.6,2.5-4.5,5-9,7.6-13.4.2-.3.7-1.2,1.5-2.7,2.3-4,4.5-7.9,6.9-11.8.4-.6.7-1.3,1.1-1.9,1-1.7,2-3.3,2.9-4.9,1.5-3,2.1-5.6,2.4-8.9.7.3,1.3.7,2,1,.3-.6.7-1.2,1-1.9,5.9-10.9,11.8-21.9,18-32.6,4.8-8.3,9.4-16.8,14-25.3,3.4-6.4,7-12.7,10.6-19.1,10.1-17.8,15.6-29.5,16.5-35.2h2c.2-.6.3-1.2.5-1.8,1.7-5.8,3.6-11.4,5.8-17.1,3.9-10.6,7.3-20.9,9.3-32,.4-2.2.8-4.4,1.3-6.5,1.6-8.2,2.4-16.1,2.4-24.4v-2.6c0-5.3-.8-9.2-2.3-11.6-1.3-.7-2.7-1.2-4.2-1.6-.8-.2-1.6-.5-2.4-.7s-1.6-.4-2.4-.7c-9.1-3.3-15.5-9.3-22.6-15.8-2.1-1.9-4.3-3.8-6.4-5.6-14.4-12.7-21.2-26-24.6-44.6-.3-1.8-.7-3.5-1.1-5.3-1.6-8.2-1.5-16.4-1.3-24.8l-.3.4Z"/>
      <path class="st61" d="M638.2,1299h2c-1.5,4.1-3.5,7.8-5.8,11.5-.4.6-.8,1.3-1.2,1.9-7.2,11.8-14.5,23.5-21.8,35.2-6.5,10.3-12.8,20.7-19.2,31.1-5.4,8.8-10.9,17.7-16.3,26.5-.6.9-1.1,1.8-1.7,2.7-3.8,6.2-7.6,12.3-11.5,18.4-2.6,4.1-5.1,8.2-7.7,12.4-3,4.8-6,9.6-9,14.4-1.8,2.9-3.7,5.8-5.5,8.8-3.4,5.5-6.8,11-10.3,16.5-4,6.3-8,12.7-11.9,19.1-2.1,3.4-4.2,6.7-6.3,10.1-5.8,9.2-11.5,18.4-17,27.8-3.5,5.9-7.1,11.8-10.7,17.6-.1.2-.5.8-1.1,1.7-4,6.5-8.1,13-12.2,19.5-13,20.3-20.9,33.3-23.7,38.8.9,0,1.8.2,2.7.3,9.7,1.1,19.1,2.8,28.6,4.9,5.9,1.3,11.8,2.4,17.8,3.4,4.9.8,9.7,1.8,14.5,2.8,8.8,1.8,17.7,3.5,26.5,5.1,1.1.2,2.2.4,3.3.6,5.7,1.1,11.4,2.1,17.1,3.1,3,.5,5.9,1.1,8.9,1.6,1.4.3,2.9.5,4.3.8,2,.4,4,.7,6,1.1,1.2.2,2.3.4,3.5.6,1.8.5,3.4,1.4,4.7,2.7-12.2,5.6-24.3,11.3-36.8,16.4-4,1.7-7.9,3.5-11.8,5.4-6,2.9-12.1,5.5-18.2,8.2-.8.3-1.5.7-2.3,1-12.1,5.3-24.3,10.6-36.5,15.8-8.2,3.5-16.3,7-24.4,10.5-1.6.7-3.2,1.4-4.8,2.1-7.4,3.2-14.8,6.4-22.1,9.8-5.5,2.5-11,4.8-16.6,7-.9.3-1.7.7-2.6,1-1.6.6-3.2,1.3-4.8,1.9-2.4.9-4.7,1.9-7.1,2.8,2.6,7.8,5.3,15.5,8,23.2.2.7.5,1.3.7,2,4.6,13,9.4,26,14.1,38.9,1.8,4.8,3.5,9.7,5.3,14.5.3.7.5,1.5.8,2.2,1,2.8,2.1,5.7,3.1,8.5,2.5,7,5.1,14,7.7,21s5.2,14,7.7,20.9c.4,1.1.8,2.2,1.2,3.3,1.7,4.6,3.3,9.1,5,13.7,5.3,14.6,9.3,25.3,12,32.1,2.7,6.9,5.2,13.8,7.6,20.8,3.6,10.3,7.4,20.6,11.2,30.8,4.5,12,8.9,24.1,13.1,36.2,2.3,6.5,4.7,13,7.1,19.4,1,2.5,1.9,5,2.9,7.5.3.7.5,1.4.8,2.1,3.9,10.3,7.8,20.6,11.6,30.9.4,1.1.8,2.2,1.2,3.3,7.6,20.3,15,40.7,22.4,61,.1.3.5,1.4,1.1,3.2.4,1,.7,2,1.1,3.1,4,10.8,8,21.6,12,32.4,1.2,3.1,2.3,6.3,3.5,9.4,4.4,11.8,8.7,23.5,13.1,35.3.5,1.4,1,2.8,1.6,4.2,3.2,8.6,6.4,17.1,9.6,25.7,1.8,4.8,3.6,9.7,5.5,14.5,1.3,3.5,2.6,7,4,10.5,1.3,3.5,2.6,7,4,10.5.5,1.3,1,2.6,1.5,3.9,2.5,6.6,4.8,13.1,6.8,19.8.8,2.7,1.9,5.3,3,7.9,6.1,14.2,11.5,28.7,16.6,43.3.3.8.6,1.6.8,2.4.7,2.2,1.5,4.3,2.2,6.5.2.7.5,1.4.7,2.1,1,3.4,1.4,5.5.3,8.9-.6,1-1.2,1.9-1.8,2.9-.6,1.1-1.3,2.2-2,3.3-.4.6-.7,1.2-1.1,1.8-2.3,3.8-4.4,7.7-6.5,11.5-1.2,2.2-2.4,4.4-3.7,6.5-1.1,1.9-2.1,3.9-3,5.9h-2c-.3,1-.7,2-1,3-2.3,1.1-3.6,1.1-6.1,1.1H0v-10.5c0-5.7.6-10.8,2.2-16.3.2-.8.5-1.6.7-2.5.7-2.6,1.5-5.2,2.2-7.8.5-1.8,1-3.6,1.5-5.5,1.4-5.2,2.9-10.3,4.4-15.5.4-1.3.7-2.6,1.1-3.9,1.2-4,2.3-8.1,3.5-12.1,1.9-6.5,3.7-13,5.4-19.6,3.5-13.7,7.5-27.3,11.6-40.9,2.5-8.1,4.8-16.1,6.8-24.3,1.4-5.7,3-11.4,4.7-17.1,3-10.3,5.9-20.6,8.8-30.9,0-.3.3-1,.6-2.3,2.2-8,4.4-16,6.6-24,6.2-22.5,10.7-38.3,13.4-47.2.3-.9.5-1.7.8-2.6.5-1.6,1-3.2,1.5-4.8,1.5-5,2.8-10,4.1-15,1.9-7.8,4.1-15.6,6.2-23.3,3.5-12.3,6.8-24.6,10.1-36.9,2.5-9.6,5.3-19.1,8.2-28.6,2.7-8.6,4.9-17.3,7.1-26,1.5-6,3.1-12,5-17.9,2.2-6.9,4.2-13.9,6.1-21,2.2-8.2,4.6-16.4,7-24.5,1.3-4.3,2.5-8.5,3.4-12.8.8-3.8,2-7.4,3.2-11.1,1.4-4.1,2.4-8.2,3.5-12.4,2.2-8,4.4-16,6.8-23.9,2.3-7.6,4.4-15.3,6.5-23,2-7.5,4.2-15.1,6.4-22.6,2.6-8.8,5.1-17.6,7.5-26.5,3-10.9,6.1-21.7,9.3-32.6,3-10.2,5.8-20.3,8.5-30.6,1.5-5.6,3-11.1,4.8-16.5,2.5-7.6,4.5-15.4,6.6-23.1.2-.7.4-1.3.5-2,.9-3.2,1.7-6.5,2.6-9.7,1.1-4,2.2-8.1,3.3-12.1,0-.2.2-.9.6-2,1.2-4.4,2.5-8.8,3.8-13.3,1.1-3.8,2.2-7.6,3.3-11.4.2-.8.4-1.5.7-2.3,2.5-8.8,5-17.6,7-26.5,10.7-47.8,34.8-90.5,68.4-125.8.6-.6,1.1-1.2,1.7-1.8.9-.8,2-1.2,3.3-1.2.3-1,.7-2,1-3h2c.3-1,.7-2,1-3,2.2-1.9,4.3-3.6,6.6-5.3.6-.5,1.3-1,2-1.5,1.3-1,2.5-1.9,3.8-2.9s2.5-2,3.8-3c6.3-4.9,13.2-9,20-13.2,1.5-.9,3-1.9,4.5-2.9,5.5-3.5,11.3-6.1,17.3-8.7,4.1-1.7,8.1-3.6,12-5.7,6.4-3.3,13.1-5.7,19.9-8.1,3.7-1.4,7.3-2.8,11-4.2,6.4-2.5,12.8-4.9,19.2-7.3.8-.3,1.5-.6,2.3-.9,3.7-1.4,7.5-2.7,11.2-3.9,4-1.3,8-2.9,11.9-4.5,4.7-1.9,9.5-3.8,14.4-5.3,1.8-.6,3.5-1.4,5.3-2.1,4.4-1.9,8.9-3.5,13.5-5.1.9-.3,1.8-.6,2.7-.9,4.9-1.7,9.8-3.3,14.7-4.8,5.2-1.6,10.1-3.6,15.1-5.7,3.7-1.5,7.4-2.5,11.2-3.4,2.7-.8,5.2-1.8,7.7-3,3.6-1.5,7.4-2.7,11.1-4,20.3-7,39.8-14.9,57.8-26.8,1.9-1.1,3.7-2.3,5.6-3.4,5.5-3.5,10.4-7.4,15.4-11.6,6-5,12.1-9.5,18.8-13.6,1.5-.9,2.9-2.1,4.2-3.4v.6Z"/>
      <path class="st98" d="M650.2,1283c11.6,8.4,22.9,17.9,33,28-.4.6-.8,1.2-1.3,1.9-2.3,4.2-4,8.5-5.7,13-.4.9-.7,1.8-1.1,2.8-2.9,7.7-5.1,15.4-7,23.3,1.3.1,5.3.5,12,1v1h-14c0,1.3-.3,2.6-.4,3.9-.6,5-1.4,9.9-2.4,14.9-.2.9-.3,1.8-.5,2.8-.4,1.9-.7,3.8-1.1,5.7-.5,2.9-1.1,5.8-1.6,8.6-1.5,7.9-3,15.8-4.7,23.6-1.4,6.5-2.4,13-3.4,19.6-.3,2.4-.7,4.7-1,7.1-.2,1.1-.3,2.3-.5,3.5-.4,3-.9,6-1.4,8.9,0,.3-.1,1.1-.4,2.6-.3,1.5-.5,3.1-.8,4.6-.8,5.1-1,10-.9,15.2h-2c0,1.1,0,2.1,0,3.2,0,3.4-.4,6.6-1,9.9-1.2,6.6-1.8,13.3-2.4,20-.5,5-1,9.9-1.9,14.9-1,6-1.1,11.9-.9,17.9h-2c0,.3,0,1.3,0,3-.4,6.8-.8,13.4-1.9,20.1-1.7,11.7-1.5,19.8.7,24.1,10.8,12.9,35.7,16.3,51.2,20.1.7.2,1.4.3,2.1.5,9,2.2,17.9,4,27.1,5.2,2.2,14,4,28,5.5,42.1,2,18.2,4.1,36.4,6.8,54.6,1.2,8.1,2.2,16.2,3.2,24.3,1.4,11.7,2.9,23.3,4.5,34.9.8,5.6,1.5,11.3,2.3,16.9.2,1.1.3,2.2.5,3.4,1.3,9.6,2.6,19.3,3.8,29,.2,1.6.4,3.2.6,4.7.3,2.2.6,4.4.8,6.6,0,.7.2,1.4.3,2.1.5,3.9.9,7.8,1.3,11.7,0,.9.2,1.8.3,2.7.2,1.7.3,3.4.5,5.1.2,2,.5,4,.8,6,.7.3,1.3.7,2,1h-2c.2,1.2.5,2.3.7,3.6,2.6,13.7,4.4,27.5,6.1,41.4,0,.3.1,1.3.3,2.8.3,2.7.6,5.4,1,8.1,0,.8.2,1.6.3,2.4.6,4.9.7,9.7.7,14.7h2c0,.8.2,1.5.3,2.3.4,3.5.8,7,1.2,10.4,0,1.2.3,2.4.4,3.7,0,.4.1,1.6.4,3.5,0,1.1.2,2.1.4,3.2.3,1.9.6,3.5.9,4.9.6,2.5.7,4.9.9,7.5.6,8.3,1.6,16.6,2.7,24.9.3,2.6.7,5.3,1,8,.2,1.7.4,3.4.7,5.2,0,.8.2,1.5.3,2.3.8,6.4,1.9,12.7,3,19.1h33v1h-33c1.3,9.7,2.7,19.4,4,29.1.6,4.6,1.3,9.3,1.9,13.9.3,1.9.5,3.8.8,5.6,0,.8.2,1.7.3,2.6.5,3.7,1.2,6.3,1.9,7.8h-2c0,.3-.3,1.4-.8,3.1-.9,3.8-3.1,6.6-5.2,9.9-1,2-2,4-3,6.1-2.9,6-6.1,11.7-9.4,17.5-4.9,8.5-9.7,17.2-14.5,25.8-4.9,8.9-9.8,17.7-14.8,26.6-5.3,9.3-10.5,18.7-15.6,28.2-2.5,4.6-5.1,9.3-7.7,13.9-.5.9-1,1.8-1.5,2.7-6,10.7-11.9,21.4-18.1,31.9-4.4,7.5-8.6,15.2-12.7,22.8-7,12.9-14.2,25.7-21.6,38.3-1.9,3.2-3.7,6.5-5.3,9.9-3.4,7-7.5,13.6-11.5,20.3-1.8,3-3.5,6-5.2,9h-2c-.2-.6-.4-1.3-.6-1.9-3.3-10.1-7-19.9-10.8-29.8-.7-1.7-1.3-3.5-2-5.2-1.3-3.4-2.6-6.9-3.9-10.3-.3-.8-.6-1.6-.9-2.5-.5-1.4-1.1-2.8-1.6-4.3-3.5-9.3-7-18.6-10.4-28-13-35-22-58.9-26.9-71.6-2.7-6.9-5.2-13.8-7.6-20.8-3-8.6-6.2-17.1-9.3-25.6-.6-1.7-1.2-3.3-1.8-5-1.3-3.5-2.6-6.9-3.9-10.4-6.6-17.9-13.2-35.8-19.7-53.7-7.6-20.8-15.3-41.7-23.1-62.4-2.7-7.1-5.3-14.2-7.9-21.3-.4-1-.7-2-1.1-3-1.6-4.4-3.3-8.8-4.9-13.3-3.4-9.3-6.9-18.6-10.3-27.9-1.3-3.5-2.6-7-3.9-10.4-.9-2.4-1.7-4.7-2.6-7.1-4.5-12.1-8.9-24.1-13.2-36.3-3-8.7-6.2-17.3-9.5-26-1-2.7-2-5.4-3-8.1-2.7-7.1-5.3-14.2-8-21.3-5.5-14.2-10.6-28.5-15.6-42.9-4.1-11.6-8.2-23.1-12.6-34.5-2.8-7.2-5.4-14.5-8-21.7-.7-2-1.4-3.9-2.1-5.9-2.3-6.6-4.6-13.2-6.8-19.8,8.3-4.1,16.8-7.5,25.4-10.9,8.1-3.2,16.1-6.6,24-10.3,4.4-2.1,8.8-3.9,13.3-5.8,5.3-2.2,10.6-4.4,15.8-6.9,5.4-2.5,10.8-4.9,16.2-7.2,9.6-4.1,19.2-8.3,28.8-12.6,6.3-2.8,12.6-5.5,19-8.2,3.1-1.3,6.1-2.7,9.2-4.2,7.6-3.6,15.2-7,22.9-10.4.6-.3,1.2-.6,1.9-.8,3.6-1.6,7.1-3.2,10.7-4.7v-1c-.8,0-1.6-.3-2.4-.4-17.7-3.3-35.4-6.7-53-10.1-12.8-2.5-25.5-4.9-38.3-7.2-14.1-2.6-28.2-5.4-42.3-8.2,1.4-4.9,3.6-8.9,6.4-13.2.4-.7.9-1.4,1.3-2.1.9-1.5,1.9-3,2.8-4.4,2.5-3.9,5-7.9,7.5-11.8,1-1.6,2.1-3.2,3.1-4.9,7.1-11.3,14.2-22.6,21.2-34,.7-1.1,1.3-2.2,2-3.3,3-4.8,5.9-9.7,8.8-14.5,2.8-4.6,5.7-9.2,8.6-13.8,4-6.4,8-12.8,11.9-19.2,6.2-10.2,12.6-20.4,19-30.5,3.1-4.9,6.2-9.9,9.2-14.8,5-8.1,10-16.2,15.1-24.2,5-7.9,10-15.8,14.7-23.8,2.6-4.4,5.3-8.7,8-13,4.8-7.7,9.5-15.4,14.2-23.2,3.9-6.5,8-12.9,12.1-19.3,6.4-10,12.7-20,18.7-30.2,2.6-4.4,5.3-8.9,8-13.3.1-.3.6-1,1.4-2.2,2.9-4.8,5.9-9.6,8.9-14.3h-.4Z"/>
    </g>
    <g id="face_base">
      <path id="face_base1" class="st76" d="M762.2,1548l117,56,280.3-401.9c-12-19.1-12-34.4-14.3-59.1.3-.7.7-1.3,1-2,0-1.6-.2-3.2-.4-4.7-.7-6.8-.9-13.7-1.2-20.5,0-1.2,0-2.4,0-3.7,0-3.7-.2-7.4-.3-11.1,0-1.1,0-2.2,0-3.3-.2-12.2,1-24.3,2.1-36.5.4-3.9.7-7.7,1-11.6.2-2.5.4-4.9.7-7.4,0-1.1.2-2.3.3-3.5.5-5.2,1-10,3-14.8,4.8,1,9.3,3,13.8,4.8,8.7,3.2,20.1,4.2,29,.9,9.7-4.5,17.7-11,24-19.6.5-.6,1-1.3,1.4-2,.9-1.3,1.8-2.6,2.7-3.9.9-1.2,2.2-2.7,4.1-4.4,3,0,5.2.4,8,1,25.8,2,51.9-4.8,75-16l3-1.5c27.5-14.2,47.5-38.7,57.2-67.7,5.8-20.5,1.9-42.8-8-61.2-2.9-5-6.4-9.3-10.2-13.6-.7-.8-1.3-1.7-2-2.5-8.7-10.6-22.1-16.5-34.8-20.9-7.1-2.6-12.5-6.7-18.2-11.6-.7-.5-1.3-1.1-2-1.6-12-10.9-20.3-28.5-21.2-44.6v-15c0-8.2.4-16.4,1.1-24.5,0-.9.2-1.8.2-2.8.4-4.1,1.4-7,2.9-8.5.2-1.4.3-2.9.4-4.6,0-.9,0-1.8,0-2.7v-2.8c0-.9,0-1.9,0-2.9,0-2.3.2-4.7.3-7,13.6,3.2,20.6,16.1,27.6,27.2,10.6,16.7,23.3,30.2,43.4,34.8,16.2,1.6,30.7-.6,46-6-1.3,0-2.8.2-4.3.5-14.2,2.7-30,1.7-42.3-6.1-2.3-1.7-4.3-3.5-6.4-5.4-.6-.5-1.2-1-1.8-1.4-6-5.1-8.9-12.4-12.2-19.4-11.1-23.6-24.7-40.8-49.8-50.3-1.5-.6-2.5-1.2-3.2-1.9-.2-1.7-.3-3.3-.4-5-4.4-78.3-26.8-163.4-89.6-265-.8-.8-1.7-1.7-2.5-2.5-10.9-10.5-24.1-18.5-37.4-25.5-8.4-5.4-12.8-12.9-17.8-21.4-1.4-2.3-2.8-4.7-4.2-7-.1-.2-.5-.8-1.1-1.7-7.6-12.5-16.3-23.9-26-34.9-.8-.9-1.6-1.8-2.4-2.7-7.9-8.9-16.2-16.9-25.6-24.3-.8-.7-1.7-1.3-2.6-2-32.9-25.5-70.2-42.2-109.4-55-.7-.2-1.4-.5-2.1-.7-16.6-5.4-33.7-8.3-51-11-1.7-.3-3.5-.6-5.2-.9-14.6-2.4-29.1-2.7-43.8-2.8h-2.8c-11.6,0-22.7.6-34.2,2.3-2.3.3-4.6.6-6.9,1-17.1,2.5-33.7,5.4-50.3,10.2-3,.9-6.1,1.7-9.1,2.6-14.2,4.1-28,8.6-41.6,14.2-1,.4-2,.8-3,1.2-43.3,17.7-84.5,38.8-122.6,66-2.2,1.6-4.4,3.1-6.6,4.6-21.5,15.1-41.9,32-60.9,50.1-.2.2-.8.7-1.7,1.6-7.9,7.6-15,15.5-21.3,24.4-.4.6-.8,1.2-1.3,1.8-23.2,32.8-31.6,69-32.7,108.7-.5,18.5-2.2,36.6-6.1,54.7,0,.3-.3,1.3-.6,2.9-2.8,13-6.3,25.8-9.6,38.6-4.2,16.3-8.5,32.6-10.6,49.3,0,.7-.2,1.4-.3,2.1-4.9,41.9,2.9,83.6,21.8,121.3.5,1,1,2.1,1.6,3.1,4.5,9,9.5,17.6,14.7,26.2,1.1,1.8,2.1,3.6,3.2,5.3.2.3.8,1.3,1.7,2.9,6.3,10.8,11.8,21.9,17.4,33.1l5.1,10.2,3.3,6.6c.5,1,1,2,1.5,3.1,6,12.1,8.3,21,5.9,34.6-2.1,12.1-2.4,23.9-2.3,36.1v10c0,18,1.7,35.5,5.7,53,.2.9.4,1.9.6,2.8,3,13.3,7,26.3,11.1,39.3,1.2,3.8,2.3,7.7,3.4,11.6,3.9,14.4,8.4,28.6,13.2,42.8,3,8.9,5.9,17.8,8.7,26.7,9,29,18.4,57.8,29,86.3,1,2.8,2.1,5.6,3.1,8.5,10.5,28.7,26.3,49.7,50.6,68.5,1.9,1.5,3.8,3.1,5.7,4.6.9.7,1.8,1.5,2.7,2.2,3.6,3,7.1,6,10.6,9.2l33,28,79,237v.4Z"/>
      <g id="neck" inkscape:label="Neck">
        <path class="st15" d="M1148.2,1033h1c0,6.6-.2,13.1-.8,19.8,0,.9-.2,1.8-.3,2.7-.3,2.8-.6,5.7-.8,8.5-1.8,18.3-3.2,36.6-3.3,55v3.7c0,6.2.4,12,1.8,18.1.7,3.4.9,6.7,1,10.2.3,5.4.7,10.8,1.2,16.2.2,2.3.3,4.5.5,6.8,0,.7,0,1.4,0,2.1,0,2,.2,3.9.3,5.9.3,2.1,1.1,4.2,2.4,6.2,0,1.8,0,3.5,0,5h2c1.9,4.4,3.3,7.7,4,10,1.3.3,2.7.7,4,1,1.1.9,2.2,2,3.3,3.2,1.1,1.2,1.7,1.9,1.8,2,.6.7,1.2,1.4,1.9,2.1,1.2,1.4,2.5,2.7,3.7,4.1.6.6,1.1,1.3,1.7,1.9,1.8,2,3.7,3.9,5.6,5.7-.3.7-.7,1.3-1,2,.5.2,1.1.5,1.6.7,3,1.6,5.5,3.7,8.1,5.9,1,.8,2,1.6,3,2.5.7.6,1.5,1.3,2.3,1.9,0,.3-.4,1.1-.9,2.6-2.5,7.6-3.5,13.4-3.1,17.4-1-.3-2-.7-3-1,0,.2-.1.8-.3,1.8-1.1,6.8-3.4,12.2-6.7,18.2h-2c-.2.6-.3,1.3-.5,1.9-1.6,6-3.6,10.2-7.5,15.1.7.3,1.3.7,2,1-.7,1-1.3,2-2,3,1.6.3,3.3.7,5,1v1c-1.1.2-2.1.4-3.2.6-4.3,1.2-6.3,3.8-8.7,7.4-.9,1.2-1.7,2.4-2.6,3.6-.4.6-.9,1.2-1.3,1.8-1.8,2.4-3.8,4.6-5.8,6.8-3.1,3.4-6,6.8-8.9,10.3-3.9,4.8-8,9.4-12.2,14-1.9,2.1-3.8,4.2-5.6,6.4-4,4.6-8.1,9-12.2,13.4-.2.2-.7.8-1.6,1.8-.5.5-1,1-1.5,1.6-.9,1-2,2.5-3.3,4.5-1.6,1.4-3.2,2.8-4.8,4.1-2.5,2.2-5,4.4-7.4,6.7-4.5,4.1-9.1,8-13.9,11.8-3.1,2.5-6.1,5.1-9.2,7.7-5.7,4.9-11.5,9.5-17.4,14.1-2.7,2.1-5.3,4.2-7.9,6.4-7.1,5.7-14.5,11.1-21.9,16.4-1.6,1.2-3.2,2.3-4.7,3.5-2.1,1.6-4.3,3.1-6.4,4.7-.6.5-1.3.9-1.9,1.4-4.2,3-7,3.9-12.3,3.2-2.3-.6-4.6-1.3-6.9-2.2-1.3-.5-2.7-.9-4-1.4-.7-.2-1.4-.5-2.1-.7-3.2-1.1-6.5-2-9.8-2.9-7.8-2.3-15.6-4.8-23.3-7.4-1.2-.4-2.3-.8-3.5-1.2-6.1-2-10.5-3.6-13.3-4.7-4.2-1.6-8.5-3-12.8-4.5-29.2-9.8-57.4-21.5-85.4-34.2-1.7-.8-3.3-1.5-5-2.2-12.1-5.5-23.7-11.7-35.3-18.1-2.5-1.4-5-2.7-7.5-4.1-15.1-8.2-28.8-17.5-42.1-28.4-.3-.2-1.1-.9-2.4-2-1.6-1.3-3.1-2.7-4.6-4v-2c.8,0,1.5,0,2.3.2,29,2.2,58.6,3.7,87.5,0,2-.2,3.9-.4,5.9-.6,32.9-3.3,64.9-17.8,95-30.7,2.1-.9,4.3-1.8,6.4-2.7,14.8-6.3,29.4-12.8,43.8-19.9,1.4-.7,2.9-1.4,4.4-2.1,13.1-6.4,24.2-14.2,34.4-24.7.6-.6,1.3-1.3,1.9-1.9,4.3-4.4,8.3-9,12.1-13.8,2.6-3.3,5.4-6.5,8.2-9.7,5.6-6.5,10.9-13.2,16.1-20.1.5-.7,1-1.4,1.6-2.1,7.1-9.5,14.1-19.2,20.7-29,3.3-4.8,6.6-9.5,10.1-14.2,13.6-18.2,26.2-37.9,33.8-59.4,1.2-3.5,2.6-6.9,3.9-10.3,3.7-9.5,6.1-16.6,7.2-21.5.8-2.8,1.8-5.4,2.9-8.2,1.9-5.2,3.2-10.6,4.7-16,.3-.9.5-1.8.8-2.7.2-.8.4-1.6.7-2.5.5-1.4,1.4-3.1,2.7-5.1l-.5-.4Z"/>
        <path class="st76" d="M710.2,1326c6.3.6,12.7,1.3,19,2,1.2,0,2.5.3,3.8.4,6.2.8,9.2,1.6,13.2,6.6,5.3,5.3,11.3,9.8,17.4,14.1.7.5,1.5,1.1,2.2,1.6,3.9,2.7,7.6,5,11.9,7,6.9,3.9,9.5,12.3,12.4,19.2,1.7,4,3.4,7.9,5.2,11.9,11.9,26.6,19.8,54.2,26.1,82.6,1.3,6,2.9,11.9,4.7,17.8,1.3,4.5,2.3,9,3.3,13.6,1.8,7.9,4,15.8,6.3,23.6.3,1,.6,1.9.9,2.9,2.2,7.1,4.1,11.5,10,16.2,2.6,2.4,4.1,5.4,5.8,8.4.9,1.5,1.7,3,2.6,4.5.5.8,1,1.7,1.5,2.6,3.8,6.5,7.7,12.8,11.6,19.2,2.4,3.9,4.7,7.8,7.1,11.7.5.9,1.1,1.8,1.7,2.7.5.8.9,1.6,1.4,2.4.4.7.8,1.4,1.2,2.1.5,1.2.4,2.8-.3,4.8-.7-.4-1.5-.8-2.2-1.1-6.9-3.5-13.9-6.8-21-9.9-1-.5-2.1-.9-3.1-1.4-2.3-1-4.6-2-6.8-3-4.2-1.8-8.3-3.6-12.5-5.5-7.8-3.4-15.5-6.8-23.3-10.2v-2c-1.7-.7-3.3-1.3-5-2v-2c-2-.3-4-.7-6-1v-2c-2-.3-4-.7-6-1v-2c-.9,0-1.7-.2-2.6-.2-2.3-.5-4.3-1.4-6.1-2.6-3.1-2-5.1-2.7-8.7-3.6-5-1.3-9.9-2.8-13.6-6.6-2.7-5.6-4.1-11.2-5.5-17.3-.2-1-.4-2-.7-3-.7-3.2-1.4-6.5-2.1-9.8,0-.4-.3-1.5-.7-3.4-3.3-15.3-6.4-30.6-9.2-46-2.6-14.6-5.7-29.1-9-43.7-.7-3.3-1.5-6.6-2.2-9.9-5.4-24.3-11.6-48.1-18.7-72-.8-2.8-1.6-5.5-2.4-8.3-.3-1-.6-2.1-.9-3.2-.4-1.7-.6-3.5-.6-5.5v.3Z"/>
        <path class="st18" d="M783.2,1362c8.3,4.1,16.5,8.2,24.6,12.8,33.2,18.7,69.4,32.9,105.2,45.6.7.3,1.5.5,2.2.8,8.7,3.1,15.2,5.2,19.4,6.4,4.1,1.2,7.9,2.7,11.8,4.3,5.7,2.2,11.5,4.1,17.3,6,.2,0,.9.3,2,.7,9.4,3.1,18.8,6,28.4,8.6,2.1.5,3.8,1.1,5.1,1.8,0,1.2-.3,2.5-1,4-2.7,2-5.6,4-9,4v2c-.6,0-1.1,0-1.7.2-3.3,1.1-4.9,3.4-7.3,5.8-1.1.7-2.2,1.4-3.3,2.2-.9.6-1.8,1.2-2.7,1.8v2c-1.5,1.1-3.3,2.2-5.4,3.5-.6.3-1.1.7-1.7,1-1.9,1.1-3.7,2.2-5.6,3.3-1.3.8-2.6,1.5-3.9,2.3-3.2,1.9-6.5,3.9-9.7,5.8-2.5,1.5-5.1,3-7.6,4.6-11.2,6.7-22.5,13.1-33.9,19.3-5.4,3-10.7,6.1-15.8,9.6-4.8,3.2-9.9,6-14.9,8.8-1.9,1.1-3.8,2.2-5.7,3.3-1.2.7-2.4,1.4-3.7,2.1-.3.2-1.4.8-3.3,1.9-2.4,1.2-4.3,2-6.9,2.5v2h8v1c-.8,0-1.6,0-2.4,0-5.8.4-11.1,1-16.6,2.9-5-4.7-7.9-8.8-9.6-15.4-.3-1-.6-2.1-.8-3.2,0-.4-.4-1.5-.9-3.4-.6-2.4-1.2-4.7-1.9-7.1-.1-.4-.4-1.6-.9-3.6-1.1-4-2.2-8-3.3-12-2.5-9.1-4.8-18.2-6.8-27.3-5.3-23.9-11.4-47.5-20.8-70.1-.3-.8-.7-1.6-1-2.5-6.3-15.2-11.3-26.3-15-33.4-.7-1.5-1-3.2-1-5.2v.2Z"/>
        <path class="st60" d="M1144.2,1101h1v3.1c0,3.8.2,7.7.3,11.5,0,1.7,0,3.3,0,5,0,2.4,0,4.8.2,7.2v2.2c0,4.1.5,8,1.3,12h-2c-2.2-8-2.3-15.6-2.2-23.9v-4c0-6.5.4-10.8,1.2-13.1h0Z"/>
        <path class="st82" d="M999.2,1450h6c-4,3.4-8.3,6.1-12.8,8.9-5.8,3.6-11.6,7.3-17.2,11.1l-2-1c.2-.1.9-.6,2.1-1.4.9-.6,1.8-1.2,2.8-1.9.3-.2,1.2-.8,2.7-1.9s2.9-2.7,4.4-4.8h4v-2c3.5-2.7,6.5-4,9-4,.3-1,.7-2,1-3h0Z"/>
        <path class="st48" d="M999.2,1459h1c.2,12.9,0,25.3-2,38h-1c0-9.5,0-19,.4-28.6,0-.8,0-1.7,0-2.5.2-3.9.7-6.2,1.4-6.9h0Z"/>
      </g>
    </g>
    <g id="face_details" inkscape:label="Face">
      <g id="hair" inkscape:label="Hair">
        <path class="st43" d="M907.2,202c2.5.4,4.9.8,7.4,1.2,17.4,2.8,34,7.2,50.6,12.8.3.1,1.3.4,2.9.9,44.5,14.8,85,37.7,119.1,70.1.3.3,1,1,2.3,2.2,5.4,5.2,10.1,11,14.7,16.8.3.3,1,1.3,2.3,2.8,9.1,11.5,16.7,24,24.3,36.5,3.9,6.3,7.5,11.1,13.4,15.7.7,1.3,1.4,2.7,2,4,.9,1.1,1.9,2.1,2.9,3.1,15,16.9,24.5,40.2,30.1,61.9.3,1.2.6,2.4,1,3.6,5.4,23.9,3.5,51-9.3,72.2-5.3,7.8-10.8,13.1-19.2,17.4-.2.1-.8.5-1.8,1-13.1,6.4-27.9,7.7-42.2,9-1.7.2-3.4.3-5.1.5-4.1.4-8.2.8-12.4,1.2,10.7,5.9,18.9,9.9,24.4,11.8.8.3,1.6.6,2.4.9,2.4.8,4.8,1.6,7.1,2.4.2,0,.9.3,2,.7,17.2,5.7,36.7,5.7,53.1-2.2,12.9-7,22.8-17.8,27.4-31.9,8.6-29.2,7.3-60.4-.6-89.6-.3-1-.5-2-.8-3-.2-.9-.5-1.8-.7-2.7-.3-1.5,0-3.3.6-5.3,23.5,37.9,39.1,81.2,50.3,124.3.7,2.7,1.5,5.3,2.4,8,6.2,20.2,1.1,40.7-8.4,59.2-8.6,14.1-20.6,20.9-36.2,25.6-23.7,4.8-46.3-5.5-65.8-18.2-7.5-5.1-14.1-11.2-20.7-17.4-1.7-1.6-3.5-3.1-5.3-4.7-4.8-4.2-9.3-8.7-13.8-13.2-.8-.8-1.6-1.6-2.5-2.4-3.7-3.7-7.3-7.4-10.6-11.3-3.2-3.7-6.6-6.7-10.5-9.6-.7-.5-1.3-1-2-1.5-5.6-4.1-11.6-7.5-17.7-10.7-.9-.5-1.7-.9-2.6-1.4-5.7-2.9-11.4-4.9-17.5-6.6-.3-.1-1.4-.4-3.1-.9-7.9-2-15.5-2.3-23.7-2.4h-3.1c-6.7,0-13.3.5-20,1-15.2,1.3-30.3,1.7-45.6,1.7h-3.8c-20.5,0-40.5-1-60.7-4.4-.7,0-1.3-.2-2-.3-45.3-7.5-88.9-21.2-124.2-51.6-11.7-9.7-29.4-10-43.8-12.1,3.6-9.6,12.1-15.5,21-20,.7-.4,1.4-.8,2.2-1.1,12.3-5.7,27.2-5.9,40.5-7.5.7,0,1.4-.2,2.1-.3.7,0,1.4-.2,2.1-.3,17.7-2.2,35.1-4.8,52.2-9.8,1.4-.4,2.7-.8,4.1-1.2,37.7-10.7,76.8-29.4,97.1-64.9,4-7.4,7.5-14.8,9.8-23,8.6.4,16.6,1.3,24.9,3.5,3.6.9,7.1,1.8,10.7,2.7,2.1.5,4.2,1.1,6.3,1.6,5.2,1.3,10.4,2.6,15.7,3.8,12,2.7,23.7,6.6,35.4,10.5-14.9-32.4-41.1-54.5-74.1-67.3-1.6-.6-3.2-1.3-4.8-1.9-11.2-4.4-24-7.3-36.1-7.8-1,0-2-.1-3.1-.2-22.7-.6-45.8,6.1-63.4,20.7-6.3,6.3-11.2,13.7-15.1,21.7-.4.9-.9,1.8-1.3,2.7-.3.7-.7,1.4-1,2.1h2.1c6.7,0,13.4.1,20.1.2,3.4,0,6.9,0,10.3.1,23.2.2,45.8,1.9,68.5,6.7-1.3,3.9-3,6.4-5.9,9.3-.3.3-1.1,1.1-2.4,2.4-.3.3-1.1,1.1-2.5,2.5-.9.9-1.7,1.7-2.6,2.6-6.8,6.6-13.6,12.3-21.6,17.2-.7.4-1.3.8-2,1.3-39.6,24.9-86.4,32.4-132.3,36.4-11.8,1-23.5,2.7-35.2,4.9-2.3.4-4.7.8-7,1.2-42.9,7.5-87.7,24-114.5,60.2-1.7-4.1-.2-7.7,1-11.8.2-.7.5-1.5.7-2.3,13.3-42.6,43.4-73.4,82.3-94,3.6-1.8,7.2-3.6,10.9-5.4.9-.4,1.8-.9,2.7-1.3,3.8-1.8,7.5-3.4,11.5-4.5,3.4-1,6-1.7,8.9-3.8,1.6-3.5,2.4-7,3.1-10.8,2.4-12.4,9.9-23.7,17.9-33.2.7-.8,1.4-1.7,2.1-2.6,36.4-43,104.3-56.2,157.2-60.7,11.2-.8,22.4-1,33.6-1.3,2,0,3.9,0,5.9-.1,4.7-.1,9.5-.2,14.2-.3-17.1-3.7-34.2-7.3-51.6-9.8-.8-.1-1.6-.2-2.4-.4-14.2-1.9-28.7-2.1-43-2.1-.3,0-1.1,0-2.4,0-14,0-27.7.9-41.6,3.3-.3,0-1.3.2-3,.5-25.5,4.5-51,10.8-75,20.5-.3.1-1.3.5-3,1.2-55.2,22.2-110.8,55.3-136,111.8-6,14.8-9.2,29.6-9.2,45.5v2.6c0,7.2.8,14.3,1.8,21.4.4,2.9.5,5.6.4,8.5h-2v2h-2v4c1-.3,2-.7,3-1-1.2,3.9-2.5,6.5-4,8-14.8-15.2-24.3-32.7-30-53-.2-.6-.4-1.2-.5-1.9-5.2-24.2,3.3-48.3,15.7-68.8,4.2-6.4,8.9-12.4,13.9-18.3.9-1.1,1.8-2.2,2.7-3.3.9-1.1,1.8-2.2,2.7-3.3.8-1,1.7-2,2.5-3.1.7-.8,1.4-1.5,2.1-2.3h2c.3-.6.5-1.2.8-1.8,1.2-2.3,2.5-3.7,4.3-5.5.2-.2.7-.7,1.6-1.6,27.6-25.5,58.6-45.6,91.2-64.1,2.3-1.3,4.7-2.7,7-4-.3-.7-.7-1.3-1-2,16.9-6.3,33.7-11.8,51.2-16.3,2.6-.7,5.2-1.5,7.7-2.3,5.7-1.7,11.5-2.9,17.4-4,1.1-.2,2.3-.4,3.4-.6,7-1.3,14-2.5,21.1-3.6.8-.1,1.5-.2,2.3-.3,30.6-4.5,62.5-3,92.8,2.1h-.1ZM1035.7,405c-6,7.9-8.8,16.6-11.5,26-3.6,11.6-10.5,20.3-21,26.4-34.9,18-76.4,21.7-115.1,21.8h-23.5c-18.3.1-36.4-.3-54.6-2.2-7.3-.8-14.5-1.3-21.8-1.1,3.6,2.9,7,4,11.4,5.1.7.2,1.5.4,2.2.6,2.3.6,4.7,1.2,7,1.8,1.5.4,3,.8,4.6,1.2,4.6,1.2,9.2,2.3,13.7,3.4.3,0,1,.2,2.2.5,59.6,14.6,135.1,20.4,190.1-12.5,16-10,25.4-20.9,30.4-39.1,3-10.5,7.8-16.4,17.3-22,10.5-5.5,24.4-5.7,35.8-3.1,11.1,4.1,20.9,10.8,29.2,19.1-1.2-11.7-8.2-22.4-17-30-4.5-3.1-9.1-5.6-14-8-.9-.5-1.8-.9-2.7-1.4-7.1-3-14.3-3-21.9-3.1h-3.2c-13.8.1-28.3,6.3-37.7,16.6h0ZM1073.2,440c-5.3,7.7-6.6,17.1-8.4,26.1-2,9.8-6.6,17.9-12.4,25.9-1.2,2-1.8,3.7-2.2,5.9,13.6-2.1,24.6-7.6,36.2-14.6,8.1-4.8,16.4-7.8,25.5-10.4,9.5-2.9,15.2-6.2,17.3-10,2.4-4.6,2.7-9,1.5-14.1-2.6-7.9-8.3-12.2-15.5-15.9-14.1-6.4-31.4-4.9-42,7h0Z"/>
        <path class="st53" d="M1077.2,587c5.3.7,7.5,4.7,10.6,8.6,5.8,8,10.1,16.9,14.7,25.7,6.5,12.5,13.3,24.6,21.1,36.3.7,1.1,1.4,2.2,2.2,3.3,4.1,6,8.5,11.6,13.4,16.9,1.8,2,3.5,4,5.2,6,19.7,22.4,49.2,43.7,79.8,46.1,17.3,1,32-2.5,48-9,1-.3,2-.7,3-1,0,.8,0,1.5-.2,2.3-.7,8.6-1,17.1-1,25.7v3.9c0,19.8,7.2,37.7,20.8,52,3.8,3.6,8.1,6.3,12.5,9.1-3.1.9-5.8,1.1-9,.9-1,0-2,0-3-.2-1.1,0-2.2,0-3.3-.2-1.1,0-2.2,0-3.4-.2-2.4,0-4.7-.3-7.1-.4-3.6-.2-7.2-.4-10.8-.6-2.3,0-4.6-.3-6.9-.4-.3,0-1.4,0-3.2-.2-42.4-2.6-80.7-22.7-110.8-52.3-3.6-3.5-7.4-6.7-11.3-9.9-4-3.4-7.5-7-10.8-11-.5-.5-.9-1-1.4-1.5h-1c.6.8,1.2,1.7,1.9,2.6,4.4,6.1,8.7,12.2,12.6,18.5,6.8,10.8,14.7,20.7,23.5,29.9.8.8,1.6,1.7,2.4,2.6,5.7,5.9,11.8,10.8,18.6,15.4.8.6,1.6,1.1,2.5,1.7,25.4,17.1,53.3,21.8,83.3,23.6,22.8,1.5,42.9,7.2,60.3,22.6.2.2.9.8,2.1,1.8,8.6,8,15.3,18,18.9,29.2.4,1.2.8,2.3,1.2,3.5,5.4,23.4,1.5,46.1-8.2,67.5-.4,1-.9,2-1.3,3.1-3.6,6.3-8.5,11-14.3,15.2-.6.5-1.3.9-1.9,1.4-24.3,17.1-54.2,26.3-83.9,26.5-.3,0-1,0-2.2,0-4.8,0-8.7-.8-13.3-2.3,1.2-3.3,2.2-5.8,5-8h2c.1-.3.6-1.1,1.5-2.5.1-.3.6-1.1,1.5-2.5h2c0-.7.2-1.4.4-2.2.4-1.9,1-3.7,1.8-5.4s.8-3.5,0-5.4c.7-1,1.3-2,2-3h-2c.8-5.6,2.3-11,3.9-16.4.3-.9.5-1.8.8-2.8.5-1.7,1-3.4,1.5-5.2.3-.9.5-1.7.8-2.6.1-.3.5-1.4,1-3.2,1.2-4.6,1.7-9,2.2-13.7,0-.9.2-1.9.3-2.8.3-3,.7-5.9,1-8.9s.7-5.9,1-8.9c.2-1.8.4-3.7.6-5.5.4-4,.9-8,1.8-11.9-1.1,0-2.2.3-3.3.4-8.3,1-16.3,1.9-24.7,1.6,0,.8,0,1.6,0,2.5.4,17.9-2.8,32.3-15.4,45.7-1.5,1.6-3.1,3.2-4.7,4.8s-1.2,1.3-1.8,1.9c-1.9,2-3.9,4-5.9,6s-1.2,1.2-1.8,1.9c-4.1,4.1-8.4,8.4-13.5,11.3h-4v-4c1.3-.3,2.6-.7,4-1,0-.7.2-1.4.3-2.2.7-3,1.8-5.4,3.2-8.1.1-.3.6-1.2,1.4-2.7.1-.2.5-.9,1.1-2h2c0-.2.1-.8.4-1.8.9-3.4,1.7-5.6,4.7-7.6,1.3-1.1,2.2-2.4,2.6-3.8.2-2.6.3-5.2.4-7.8,0-.7.2-1.4.2-2.1.5-7.3-2.3-14-4.6-20.8-1-3.2-1.9-6.4-2.8-9.6-.6-2.1-1.2-4.3-1.9-6.4,0-.3-.3-1-.6-2.2-1.8-5.4-5.6-7.3-10.4-9.8-1.3-.6-2.7-1.3-4-1.9-7.8-3.8-13.3-10.2-18.2-17.2-.5-.8-1.1-1.5-1.7-2.3-26.4-37.7-43.8-80-55.2-124.5-.2-.6-.3-1.3-.5-2-.8-3.3-1.7-6.5-2.5-9.8-.8-3.1-1.6-6.2-2.4-9.3-4-15.3-5.3-24.6-3.8-27.9.7-1.1,1.8-2.5,3.2-4-.3.1-1.3.5-3,1-.4-2-.8-3.9-1.1-5.9-.2-1.1-.4-2.2-.6-3.3,0-.9-.2-1.9-.2-2.8.2-.2.9-.9,2-2-.3-1.7-.6-3.4-1-5-.2.1-.9.5-2,1-2.8-6.6-4-12.9-5.1-19.9-.3-2.1-.6-4.1-1-6.2-.2-1-.3-2-.5-3-.5-2.7-1-5.4-1.7-8.1-.3-1.3-.5-2.5-.8-3.8l1-1c-2-7-4.1-13.7-7.4-20.2-.4-1.2-.3-2.8.4-4.8.7-1,1.3-2,2-3h-.2Z"/>
        <path class="st70" d="M968.2,244v1h-3.6c-42.5.7-85.4,2.2-126.4,15-1.2.4-2.5.8-3.8,1.2-35.6,11.3-73.6,30.2-91.8,64.5-3.6,7.1-6.6,13.7-7.8,21.6-.7,3.4-1.8,5.8-3.5,7.2-3,1.4-6,2.4-9.1,3.4-3.3,1.4-6.5,2.8-9.8,4.3-.3.1-1.1.5-2.6,1.2-17.7,8-33.9,17.7-48.6,30.5-.9.7-1.7,1.5-2.6,2.2-21.6,19-40.8,48.1-44.2,77.3,0,.4,0,1.6-.2,3.5-3.4,1.1-3.9,1-7.5-.4-1.4-.7-2.7-1.4-4.1-2.1-.7-.4-1.4-.7-2.2-1.1-2.1-1.1-4.2-2.2-6.3-3.3-1-.5-2.1-1.1-3.1-1.6-10.7-5.7-20.1-12-28.9-20.4-.7-.6-1.4-1.2-2.1-1.9-9.6-8.7-14.9-21.1-18.9-33.1-.3-.9-.6-1.8-1-2.7-7.4-23.9-.5-51.5,10.7-73,9.6-17.8,22.3-35,39-46.6.9-.6,1.7-1.2,2.6-1.8,17-11.7,35-21.8,53.2-31.5,2.3-1.2,4.5-2.4,6.7-3.7,8.5-4.7,17.2-8.8,26-12.8,1.1-.5,2.2-1,3.3-1.5.3-.1,1.4-.6,3.1-1.4.3-.1,1.3-.5,2.8-1.2,2.7-.8,3.9-.7,6.5.2-2.4,5.2-5.9,7-10.8,9.7-1.6.9-3.1,1.8-4.6,2.7-.3.1-1.1.6-2.4,1.3-17.6,10.3-34,22.9-49.2,36.3-.7.6-1.5,1.3-2.2,1.9-1.9,1.7-3.9,3.4-5.8,5.1-.8.7-1.6,1.4-2.4,2.1-6,5.3-11.4,10.9-16.6,16.9-.3.3-1.1,1.3-2.4,2.8-21.2,24.7-33.4,51.4-31.8,84.3.5,6,2,11.3,4.2,16.9.4,1,.8,2.1,1.2,3.1,8,20.4,22,37.9,37.8,52.9-1.5-5.3-3.2-10.5-5-15.6-2.5-7.3-3.8-14.8-5-22.4,0-.3-.1-1.1-.4-2.5-4.3-33.9,5.9-67.4,26.5-94.4,48.5-61.8,130.5-93.4,205.9-105.1.8-.1,1.6-.3,2.5-.4,42.1-6.6,94.5-2.8,134.5,11.4h.2Z"/>
        <path class="st32" d="M575.2,301l2,1c-.2.3-.9,1-2.1,2.3-24.6,28.2-38,59-35.9,96.7.6,4.2,1.6,8,3,12,.4,1.1.7,2.1,1.1,3.2,4.4,12.1,9.9,21.5,18.9,30.8.5.6,1.1,1.2,1.6,1.8,9.2,10.1,22.4,16.5,34.6,22.3l7.8,3.9,2.4,1.2c.5.3,1.1.5,1.6.8-3,2.4-6.1,4.3-9.5,6.2-.9.5-1.9,1.1-2.8,1.6-1.8.8-4,1.2-6.7,1.2v2c-.7.2-2.7.9-6,2v-2c-1,.3-2,.7-3,1-.8,2.1-1.5,4.1-2,6h-2c0,.5-.2,1.1-.2,1.6-1.8,5.8-6,9.8-10.3,13.9-7.5,7.3-14.2,15.4-19.9,24.3-.4.6-.8,1.2-1.2,1.8-1.1,1.7-2.1,3.4-3.2,5-1.5,1.6-3.3,2.5-5.4,2.7-.9,0-1.8-.2-2.7-.4,0,.3-.1,1.4-.4,3.2-.5,3.3-1.3,5.8-2.6,8.8h-2c0,.6-.2,1.2-.3,1.9-.2.8-.3,1.6-.5,2.4-.2.8-.3,1.6-.5,2.4-.8,2.5-1.8,3.5-3.7,5.3-.1.3-.4,1.4-.9,3.1s-1.5,3.2-3.2,4.3c-.2,0-.8.3-1.9.6.3.7.7,1.3,1,2v14h-2c-.7,3.6-1.3,7.3-2,11h-2c-2.4,3.2-4.4,6-5,10,1.3-.3,2.6-.7,4-1v41c.7.3,1.3.7,2,1v22c-19.3-19.3-27.7-62.7-32.8-88.5-.2-1-.4-2.1-.6-3.2-1.4-7.4-2.1-14.8-2.6-22.3h2v-4h2v-2h-3v-9.7c0-2.6.3-4.7,1.1-7.2-1-.3-2-.7-3-1-1-23.7,2-46.6,6-70-.2.8-.5,1.6-.7,2.4-1.7,5.6-3.5,11.3-5.2,16.9-2,6.6-4,13.1-6,19.7-.2.8-.5,1.6-.7,2.4-10.3,34.2-16,70.1-19.3,105.6,0,.9-.2,1.8-.3,2.7-4,40.7.5,81.7,9.6,121.4.6,2.5,1.1,4.9,1.6,7.4,2.3,10.6,5.6,20.9,8.9,31.2,2,6.4,3.9,12.7,5.2,19.2-2.9-2.7-4.9-5.3-6.9-8.8-.5-.9-1-1.9-1.6-2.8-.5-1-1.1-2-1.7-3s-1.1-2-1.7-3.1c-7.7-13.8-15.3-27.6-21.1-42.3-.1-.3-.5-1.2-1.1-2.7-1-2.7-2-5.5-2.9-8.3-.1-.4-.5-1.6-1.2-3.5-15.3-47-9.6-94.7,3.6-141.4,4.1-14.6,7.5-29.3,10.6-44.1.2-.8.4-1.6.5-2.4,3.6-16.4,4-33.1,4.5-49.8,1.9-58.4,24.2-102.5,66-142.8,2.6-2.4,5.3-4.7,8-7,1-.9,2-1.7,3-2.6,9-7.9,18.4-15.2,28-22.4,1.2-.9,2.5-1.9,3.7-2.8,2.7-2.1,5.5-4.1,8.3-6.2h-.3Z"/>
        <path class="st83" d="M1083.2,555c.9.7,1.8,1.3,2.7,2,6.9,5.4,12.7,11.5,18.6,18,8.4,9.1,17.2,18,26.7,26,.9.8,1.7,1.5,2.6,2.3,20,17.3,46.4,31.5,73.4,29.7,16-2.6,29.3-9.3,39.2-22.3,3-4.6,4.9-9.5,6.8-14.7.4-.9.7-1.8,1.1-2.8,3.4-9.1,4.6-18.6,5.9-28.2,4,4,4.2,10.6,5.3,16,0,.3.2,1,.5,2.1,5.5,25.7,8.9,51.6,10.2,77.9.8.3,1.6.6,2.5.9,24.4,9.5,39.2,25.8,49.7,49.4.4.9.8,1.9,1.2,2.8,5.5,12.6,13.7,21.9,26.1,27.9,7.2,2.8,13.3,3.3,21.1,3.3h3.1c4.3,0,8.3,0,12.4-1.4,3-.9,4.2-1.1,7,0-1.9.8-3.8,1.5-5.8,2.3-1.1.4-2.1.9-3.2,1.3-9.5,3.4-18.5,4.9-28.5,4.8h-3.3c-7.6-.2-14.3-.8-21.2-4.4-.8-.4-1.7-.8-2.6-1.3-13-7.1-22.7-18.4-30.2-30.9-7.8-12.6-15.8-22.6-28.2-30.8v15.9c0,11.9-.9,18.8-2.8,20.8-.8.3-1.5.6-2.3,1-.9.4-1.8.7-2.7,1.1-26.7,9.1-51.5,9.6-77.3-2.9-9.8-5-18.5-11-26.9-18-.6-.5-1.2-1-1.8-1.5-24.1-20-42-44.3-56.3-72-13.4-26.1-27.8-48.1-53-64.5-2.6-1.8-4.7-3.6-6.9-5.7-15.9-14.4-35.8-22.9-57-25.3v-1c35.2-3.6,65.4-.2,94,22v.2Z"/>
        <path class="st70" d="M1003.6,315.1c14.3,12,28.3,25.9,34.6,43.9v2c-5.1-.7-9.8-2.1-14.6-3.8-17.8-5.8-36.1-9.6-54.4-13.6-2.5-.5-5-1.1-7.5-1.7-5.5-1.2-10.9-2.2-16.4-3-.2,1.2-.3,2.3-.5,3.5-5.9,26.5-29.1,47.6-50.9,61.7-21.3,13.4-45.5,22.5-70.2,27.3-2.8.6-5.6,1.3-8.3,1.9-7.7,1.8-15.5,2.9-23.3,4.1-1.5.2-3,.4-4.5.7-7.8,1.1-15.6,2.2-23.5,3.1-18.1,2.1-32.7,6.1-45.7,19.8-.5,1-1,2.1-1.6,3.1-1.6,1.9-3,3.1-4.3,3.4-2.5.1-4.9.1-7.3,0h-2.8c-1.9,0-3.9,0-5.8-.1-5-.1-10.1-.2-15.1-.2h-3c-21.9-.3-42.7,4.2-64.1,8.9,16.3-28.7,54-45.9,84.3-54.3,8.2-2.2,16.4-4,24.7-5.7,1-.2,2-.4,3-.6,16.9-3.6,33.8-5.7,51-7.4,53.5-5.1,110.4-15.7,150-55,1-1,2.1-2,3.1-3,5.3-5.1,8.6-9.1,9.9-12-3.3-.5-6.5-.9-9.8-1.4-.9-.1-1.8-.3-2.7-.4-3.2-.4-6.3-.8-9.5-1.2-.4,0-1.7-.2-3.9-.5-14.8-1.9-29.8-1.9-44.7-2.1-3.6,0-7.1,0-10.7-.1-6.9,0-13.8-.2-20.8-.3,10.9-22.5,23.4-35.4,47.2-44.2,40.2-13.3,86,1.9,118.2,27.3h-.1Z"/>
        <path class="st70" d="M485.2,463c1.2,3.6.6,5.1-.3,8.8-8.9,36.5-9.4,78.5-1.7,115.2.3,1.8.7,3.6,1,5.3,5.6,28.7,16.8,56.7,30,82.7l1-8h1v3.3c.4,18.9.7,37.9,1.9,56.8,0,1.3.2,2.6.3,3.9.3,4.6.6,9.1,1.3,13.7.6,4.9.7,9.7.7,14.6v3c.3,37-3.2,72.3-10.3,108.6h-1c0-.7-.2-1.3-.3-2-1.1-7.4-3.4-13.3-6.7-19.9s-1-2.1-1.6-3.2c-2.9-5.9-5.9-11.7-8.9-17.6-1.6-3.2-3.2-6.3-4.8-9.5-1.2-2.3-2.3-4.5-3.5-6.8-4.7-9.1-8.1-18.1-10.7-28-.9-3.2-1.8-6.3-2.8-9.5-7.1-23.8-12.8-47.8-16.3-72.5-.3-2-.6-4-.9-5.9-5.3-33.2-3.7-67.9.5-101.1.1-1.2.3-2.3.4-3.5,4.5-37.4,13.6-74.7,25.6-110.5.6-1.8,1.2-3.6,1.8-5.3,1.4-4.2,2.8-8.4,4.2-12.7h0Z"/>
        <path class="st42" d="M1101.2,393c.9.4,1.9.9,2.8,1.3,13.7,6.8,21.3,17,27.6,30.7.6,2.3.3,3.7-.5,6-.6-.7-1.3-1.4-1.9-2.1-10-9.9-22.8-18.1-37.2-18.3h-5.3c-10.8.2-17.9,2.9-26.5,9.3-.9.6-1.9,1.2-2.8,1.9-4.7,4.5-6.2,10.1-7.9,16.2-5.2,19-16.6,30.2-33.3,39.9-61.7,34.4-144.1,23.3-209,5,0-2.7.3-4.3,1-5,5.4-.4,10.9,0,16.4.5,7.9.6,15.9.7,23.8.7h23.8c24.9.1,49.8,0,74.5-4.5,1.2-.2,2.5-.4,3.8-.7,24-4.3,52.3-9.8,67.9-30.2,3.5-5.3,5.2-10.6,7-16.6,4.4-15.2,11.4-25.1,25.5-33,14.3-7.6,35.8-8.6,50.4-1.2h-.1Z"/>
        <path class="st6" d="M1143.2,362c4.8,1.4,8.9,3.5,13.1,6.1.7.4,1.3.8,2,1.2,20.6,12.7,42.9,30.7,48.8,55.1,0,.4.3,1.6.8,3.7.3,1.3.6,2.6.9,3.9,6.4,28.6,9.7,67.7-5.4,94.5-9.2,13.5-21.5,24.2-37.6,28-15.2,2.6-30.2.3-44.6-4.6-.7-.2-1.4-.4-2.1-.7-10.9-3.6-20.9-8.7-30.9-14.3v-1c.8,0,1.7-.2,2.5-.2,3.2-.3,6.4-.6,9.6-.9,1.4,0,2.7-.3,4.1-.4,31.5-3,51.9-9.7,61.1-20.1,15.3-21,18.7-46.5,15-71.9-1.9-10.9-5.2-21.3-9.3-31.5,0-.3-.4-1-.9-2.2-6.2-15.3-13.9-30.2-25.5-42.2-1.1-1.1-1.6-2-1.6-2.7v.2Z"/>
        <path class="st57" d="M1123.2,734c1.1.9,2.2,1.9,3.3,2.8.6.5,1.2,1,1.9,1.6,2.2,1.9,3.8,3.5,4.8,4.6v2c.6.2,1.1.5,1.7.7,2.7,1.5,4.4,3.2,6.5,5.4,3.4,3.5,7,6.8,10.7,10,1.4,1.2,2.7,2.4,4,3.7,32.8,31.6,74.4,44.5,118.6,46.5.3,0,1.1,0,2.5,0,4.2.2,8.4.4,12.7.5,8.1.3,15.6.9,23.2,3.9.8.3,1.6.6,2.4.9,9.6,3.7,18.6,7.6,26.6,14.1.6.4,1.2.8,1.8,1.3,14.4,11,25.1,30.6,28,48.3,3.1,27.1-3.8,49.8-20.6,71-1,1.2-2,2.4-3,3.6s-.9,1.1-1.4,1.7c-1.2,1.4-2.5,2.7-3.8,4h-3c.5-.9.9-1.8,1.4-2.7,7.6-14.7,12-28.1,11.8-44.9v-2.9c0-22.2-6.8-39.3-22.7-55.1-17.2-16.3-39.2-21.7-62.1-23.1-3.1-.2-6.3-.4-9.4-.6-.8,0-1.5,0-2.3-.2-34.9-2.5-65.2-15.4-90.7-39.5-.9-.8-1.8-1.7-2.7-2.6-10.7-10.4-19-22.2-27.1-34.6-1.8-2.8-3.7-5.6-5.6-8.4-.2-.3-.8-1.3-1.8-2.8s-2.3-3.3-4-5.3-2.3-3.4-1.8-4.3v.3Z"/>
        <path class="st34" d="M1114.5,432.7c8.2,3.9,13.2,7.6,16.4,16.3.8,6.8,0,11.3-3.8,17-4.5,4.5-11.2,6.2-17.3,7.6-11.2,2.8-20.4,7.5-30.2,13.5-8.7,5.2-19.1,10.9-29.5,10.9,1.4-4.8,3.5-8.5,6.4-12.6,5.2-7.8,7.6-15.6,9.6-24.7,2.9-13.1,7.5-21.9,13.8-26.4,10.9-6.2,23.1-6,34.6-1.6h0Z"/>
        <path class="st59" d="M1053.2,565c4,1.7,7,4.3,10.2,7.1.6.5,1.1,1,1.7,1.5,4.7,4.1,9.4,8.2,14.1,12.4-.7.6-1.4,1.2-2.2,1.9-1.2,2.1-1.7,3.8-1.6,5.3.8,2.7,1.7,5.2,2.7,7.8.4.9.7,1.8,1.1,2.7.7,1.7,1.4,3.3,2.1,5,.9,2.4,1.4,4.8,1.9,7.3h-2c-.2-.6-.4-1.1-.6-1.7-5.8-16.3-12.2-31.1-23.6-44.2-1.2-1.4-2.5-3.1-3.8-5.1h0Z"/>
        <path class="st84" d="M518.2,591h1c-.5,5.2-1.2,10.3-2.1,15.4-2,11.4-2.4,22.7-2.6,34.2,0,1.9,0,3.8,0,5.7,0,4.5-.2,9.1-.2,13.6h-1c-1.1-9.9-1.1-19.8-1.1-29.8v-16.3c-1-.3-2-.7-3-1,.5-4.5,2.4-7.3,5-11,2-3.5,3-7.1,4-11v.2Z"/>
        <path class="st33" d="M601.2,445h1c.2.8.3,1.6.5,2.4,1.6,7.3,3.7,14,6.6,20.9.6,1.8.6,3.7,0,5.7-4.3-4.3-8.6-8.6-13-13,1-2.6,2-5.3,3-8-1,.3-2,.7-3,1,.3-1.7.7-3.3,1-5h2v-2h2v-2Z"/>
        <path class="st108" d="M540.2,543c-.6,2.9-1.6,5.3-3,7.9-.4.7-.8,1.5-1.2,2.3s-.9,1.6-1.3,2.4c-4.8,8.9-8.4,18-11.7,27.5-.8,2.3-1.7,4.6-2.7,6.9h-1c0-2.3-.2-4.5-.2-6.8s0-2.5,0-3.8c.3-2.3,1.1-4,2.4-5.1.7-.4,1.3-.8,2-1.2.4-1.7.7-3.3,1-5l2-3h2c0-.6.2-1.3.4-1.9.2-.8.3-1.7.5-2.5s.3-1.6.5-2.5c.2-.7.4-1.4.6-2.1l2-1c.5-1.7,1-3.5,1.5-5.5s1-3.8,1.5-5.5,2.2-2,5-1h-.2Z"/>
        <path class="st64" d="M539.2,546h2c-1.3,4.6-3.2,8.1-5.8,12.1-6.8,10.7-10.3,24-14.2,35.9h-1c.5-6.9,2-12.6,4.5-19,.3-.9.7-1.8,1.1-2.7,5.6-14.2,10.1-23,13.4-26.3Z"/>
        <path class="st91" d="M1088.2,652l2,1c.3,1,.7,2,1,3,.7-.3,1.3-.7,2-1,.3,1,.7,2,1,3h-2v2c.7.3,1.3.7,2,1l-2,3c.1,1.7.4,3.4.9,5.2.2.9.4,1.8.6,2.7.2.7.3,1.4.5,2.1h2c-1.2,3.3-2.5,5.3-4,6-1.7-9.3-3.4-18.5-4-28Z"/>
        <path class="st24" d="M595.2,485v2c-2,1.7-4,3.3-6.1,4.8-1.1.9-2.3,1.7-3.4,2.6-.6.4-1.1.8-1.7,1.3-2.6,2-5.2,4.2-7.7,6.3l-2-1c.5-.4.9-.9,1.4-1.3,1.1-1.1,1.9-2.7,2.6-4.7h2c.7-2.3,1.3-4.6,2-7,.6.2,1.1.4,1.7.6,2.7.5,4.7.1,7.3-.6v-2c1.3-.7,2.7-1,4-1h0Z"/>
        <path class="st95" d="M713.2,229c-6.9,4.2-13.9,8.2-21,12,.2-.6.4-1.2.6-1.9.3-1.4,0-2.8-.6-4.1,2.7-1.2,5.5-2.4,8.2-3.6.8-.3,1.6-.7,2.4-1,.8-.3,1.5-.6,2.3-1,.2,0,.9-.4,2.1-.9,2.4-.6,3.7-.3,6,.5Z"/>
        <path class="st119" d="M1276.2,685c4.9,2,6.1,2.9,9,7l-1.8-.9c-1.5-.7-3.2-1.4-5.2-2.1v12.2c0,5.4-.3,10.5-1.1,15.8h-1v-32h0Z"/>
        <path class="st80" d="M478.2,538h5c-.3.7-.7,1.4-1,2.1-1.1,3.1-1.2,5.3-1.1,8.5.1,3.4-.2,5.8-.9,7.3h3v2h-2v4h-2c-1.3-2.5-1.1-4.2-1.1-7v-17h.1Z"/>
        <path class="st99" d="M788.2,476c6.4-.1,12.6,0,19,1,0,2-.3,3.7-1,5-6.4-1-12.1-2.1-18-5v-1Z"/>
      </g>
      <g id="face_shadows" inkscape:label="Face shadows and highlights">
        <path class="st13" d="M529.4,797.9c.4,0,1.7.3,3.9.6,1,.2,2,.3,3,.5-.2,1.2-.3,2.3-.5,3.5-1.5,13.2,1,22,7.5,33.5.5.8,1,1.7,1.4,2.6,9.9,17.4,16.5,26.9,19.6,28.4.2-.8.5-1.5.8-2.3,1.9-4,4.2-5.3,8.3-6.9,1.1-.3,2.2-.7,3.4-1,.4-.1,1.5-.5,3.4-1.1,3.2-.7,5.1-.6,8.2.3-2.6,1.7-4,2.4-7,3,2.3,9.2,8.3,16.7,16,22,20.2,11.9,37.9,11.1,60.1,5.4,4.3-1.2,8.4-2.8,12.6-4.5,3.3-1.4,6.6-2.5,10-3.7,1.2-.4,2.4-.9,3.7-1.3.9-.3,1.8-.6,2.7-1,.3.7.7,1.3,1,2-.5,1.5-1.3,3.3-2.2,5.2-.5,1-1,2.1-1.5,3.2-.5,1.1-1,2.2-1.6,3.3-1,2.2-2,4.3-3,6.5-.5,1-.9,2-1.4,3.1-1.5,3.2-2.9,6.5-4.3,9.8l1.7-1.7,2.3-2.3c.3-.3,1-1,2.2-2.3,2.1-2,4.3-4,6.5-5.9,4.7-4.1,9.1-8.3,13.4-12.7.8-.8,1.6-1.5,2.4-2.3,7.1-7,11.4-14.1,15.3-23.3.3-.7.6-1.5.9-2.2.8-1.8,1.5-3.5,2.2-5.3h1c.2,5-.2,8.8-1.4,13.6-1.1,4.7-1.7,9.4-2.4,14.2-1.4,9.6-3,19.1-4.8,28.6-.2,1.1-.4,2.2-.6,3.3-1.2,6.3-2.6,12.5-4.2,18.7-.7,3-1.3,6-1.8,9.1-.6,3.5-1.2,7.1-1.9,10.6,0,.7-.3,1.5-.4,2.2-.9,4.2-2,7.9-3.8,11.8-1,2.6-1.6,5.3-2.3,8.1-1.6,6.6-3.6,11-5.9,13.3-1.9,2-3,4-4.2,6.4s-1,1.9-1.5,2.9c-.2.3-.7,1.3-1.5,3-.5.9-1,1.9-1.5,2.9-1.6,3.1-3.2,6.3-4.8,9.4-.3.6-.6,1.2-.9,1.8-5.4,10.6-10.5,21.4-15.4,32.2-.4.8-.7,1.6-1.1,2.4-9.4,20.5-18.3,41.1-26.5,62l-3,7.5c2.9-2.7,5-5.3,7-8.7,3-4.8,6.1-9.6,9.3-14.3.5-.7,1-1.4,1.5-2.2,1.5-2.3,3-4.6,4.6-6.8,1.1-1.6,2.1-3.2,3.2-4.8,2.1-3.2,4.3-6.4,6.4-9.6,4.1-6.1,8.2-12.3,12.3-18.4,1.8-2.8,3.7-5.5,5.5-8.3.6-.9,1.2-1.8,1.8-2.7,1.2-1.7,2.3-3.5,3.5-5.2,2.3,1.2,4.6,2.3,6.9,3.5,2.1,1,3.8,1.8,5.3,2.4,4.1,1.7,8.1,3.7,12.1,5.6,5.3,2.6,10.2,3.3,16.1,3.7,3.9.8,6.2,2.2,9.4,4.6,3,1.6,5.9,1.8,9.2,2.2.1,15.6,0,25.9-.5,30.8-1.5,17.4,0,29.1,4.5,35.2v2c3.5,1.2,6.3,1.2,10,1,2.5-2.5,3-4.5,4-7.9.3-1.1.7-2.1,1-3.2,2.7-10.3,3.7-20.7,4.9-31.3.7-6.6,1.7-13.1,3.1-19.6,2.3,3.8,2.9,7.9,3.7,12.1,0,.8.3,1.6.4,2.4.3,1.7.6,3.4.9,5.1.5,2.5.9,5.1,1.4,7.6,2.6,14.2,5.1,28.2,4.6,42.7-4.1,2-8.1,4.1-12.2,6.1-1.1.6-2.3,1.2-3.5,1.8-1.1.5-2.2,1.1-3.4,1.7-1,.5-2,1-3.1,1.5-3.2,1.1-4.7,1-7.9,0-2.4-1.3-4.7-2.5-7.1-3.9-7.8-4.6-12.6-7.2-21.9-6.1-2.9,1-5.6,2.2-8.4,3.4-6.9,3-14.1,5.4-21.2,7.8-2,.7-4,1.4-6,2.1-5.5,1.8-10.1,2.8-16,2.9-6.5.3-9.7,2.7-14.2,7.3-4,4.7-7.5,9.2-8.1,15.5,6.1-2.8,11.1-6.1,16.4-10.2,1.4-1.1,2.8-2.2,4.2-3.3.6-.5,1.2-1,1.8-1.4,1.1-.7,2.3-1,3.6-1,1.4,1.8,2.8,3.7,4.1,5.6,9.7,13.2,22.7,20.6,38.5,24.6.3,0,1.1.4,2.4.9,1,3.1,1,4.3.4,7.5,0,.9-.3,1.8-.4,2.7-.2.9-.3,1.9-.5,2.8-1.1,7.4-1.9,14.5-1.6,22,6.1.2,11.7-.2,17.6-1.4,38.9-8,84.7-2.9,118.8,18.3,1,.8,1.8,1.9,2.5,3.2.9,12.4-1.1,24-3.6,36.1-.4,1.8-.7,3.6-1.1,5.4-2,9.8-4.1,19.6-6.6,29.2-.2.9-.5,1.8-.7,2.7-1.5,5.6-3.2,9.4-5,11.5-5.3,3-11.2,3.7-17.1,4.2-.9,0-1.9.2-2.8.2-69.7,5.1-114.6-1-134.7-18.3-.3-.3-1.1-1-2.4-2.1-.8-.7-1.6-1.4-2.4-2.2-1.7-1.5-3.3-3-5-4.5-3.9-3.4-7.9-6.7-11.9-9.9-3.3-2.7-6.5-5.3-9.8-8-1.5-1.2-2.9-2.4-4.4-3.6-.7-.6-1.5-1.2-2.2-1.8-2.2-1.8-4.4-3.6-6.7-5.5-3.6-2.9-7.1-5.8-10.6-8.8-1.8-1.5-3.6-2.9-5.3-4.4-41.7-34.1-53.4-82.8-69.6-132.3-1.4-4.3-2.9-8.6-4.3-12.9-3-9-6-18-8.6-27.1-1.9-6.6-4.1-13-6.3-19.5-3.8-11.2-7.3-22.4-10.4-33.8-1.6-5.8-3.3-11.5-5.3-17.2-9.3-26.9-16-56.3-16.3-84.7v-3.2c-.2-21.9,0-42.8,4.6-64.2,1.2-5.6,2.2-11.2,3.3-16.8,0-.4.3-1.5.6-3.3,2.2-12.2,3.3-24.5,4.4-36.9,0-.3,0-1.1.2-2.4,0-1.5.3-3,.4-4.5.1-1.3.4-3.1.8-5.3,3.9-2.6,5.6-1.9,10.2-1.1l-.4-.4Z"/>
        <path class="st86" d="M1058.2,571c23.3,21.1,27.5,58.8,31.4,88.1,2.5,19,5.2,37.5,10.6,55.9.4,1.3.7,2.6,1.1,3.9.6,2.2,1.3,4.5,1.9,6.7.9,3.1,1.7,6.1,2.5,9.2,5.9,21.9,13.3,43.4,22.5,64.2.3.8.7,1.5,1,2.3,4.9,11,10.6,21.4,17,31.7.4.6.8,1.3,1.2,1.9,5.2,8.4,10.8,16.3,16.8,24.1.2.3.8,1.1,1.9,2.6,2.2,2.5,4.3,4.2,7.1,6.1.3.2,1.1.8,2.6,1.8.8.5,1.5,1,2.3,1.6,1,.7,2,1.3,3,2-.3,1.1-.6,2.2-.9,3.4-1.2,4.8-1.8,9.6-2.3,14.6-1.7,14.2-4.4,28.3-7.1,42.4-.8,4.4-1.5,8.8-2.2,13.3-.6,3.2-1.5,6.3-2.4,9.4-.3,1.6-.6,3.3-.9,4.9-.8,4.5-1.8,9-3,13.4-2.3,9-4,18-5.7,27.1-.4,2.3-.9,4.7-1.4,7,0,.7-.3,1.4-.4,2.1-.4,1.8-.8,3.6-1.1,5.4-.5,2.8-.6,5.2-.5,8-.7.3-1.3.7-2,1-.5,1.1-.9,2.5-1.4,4-.3.8-.5,1.6-.8,2.5,0,.3-.3,1.1-.8,2.6-.5,1.5-1,3.1-1.5,4.6-.5,1.6-1,3.2-1.5,4.7-.3.8-.5,1.7-.8,2.5-1.4,4.4-2.7,8.9-3.9,13.4-1.1,4.1-2.6,7.8-4.3,11.8-.4,1.5-.9,2.9-1.3,4.4-1.9,6.4-4.3,12.5-6.7,18.7-.4,1.1-.9,2.2-1.3,3.4-10.5,27.2-26.4,50.7-43.5,74.1-2.9,4-5.7,8-8.5,12.1-6.3,9-12.8,17.8-19.7,26.3-1.4,1.7-2.8,3.5-4.1,5.2-1.3,1.6-2.6,3.2-3.9,4.8-.2.3-.9,1.1-2,2.5-8.6,10.6-17.4,21.1-27,30.8-.5.5-1,1.1-1.5,1.6-10.1,10.1-22.7,16.5-35.4,22.8-.8.4-1.6.8-2.4,1.2-15.3,7.6-30.9,14.5-46.7,21.1-1.3.5-2.5,1.1-3.8,1.6-24.5,10.3-48.8,19.4-74.6,26.1-1,.2-1.9.5-2.9.8-2.6.5-5,.6-7.7.5,2.4-3.7,3.5-3.7,7.6-4.8,18.8-5.5,34.9-15.4,50.4-27.2.8-.6,1.7-1.3,2.5-1.9,5.5-4.3,10.7-9,15.9-13.7,2.2-2,4.4-4,6.7-5.9,11.6-10.1,18.6-16.9,20.9-20.4h2v-2h2v-2h2v-2h2c.3-.6.5-1.2.8-1.8,1.3-2.3,2.6-3.5,4.5-5.3,10.9-12.4,11.9-33.1,14.4-48.7.5-3.2,1.1-6.4,1.6-9.6,2.8-17,5.6-34.1,8-51.1,7.1-49,15.8-93,47.2-132.5,32.1-40.5,42.5-93.8,48.6-144h-14v-1h13c-3.5-4.1-7-8.1-10.9-11.8-4-3.9-7.4-8.2-10.9-12.5-2.6-3.1-5.4-6-8.3-8.8-2.4-2.4-4.7-5-6.9-7.6-2.9-3.4-6-6.6-9-9.9-2.2-2.4-4.4-4.8-6.4-7.4-2.9-3.3-5.9-5.8-9.3-8.5-.6-.5-1.2-.9-1.9-1.4-4.7-3.6-9.4-6.9-14.4-10.1.7-.3,1.3-.7,2-1,.3-1.6.5-3.3.7-4.9.5-3.7,1.5-7.4,2.4-11,.2-.9.4-1.7.7-2.6,2-8,4.4-15.9,6.7-23.8,2-6.9,3.9-13.8,5.6-20.8,1.2-4.8,2.5-9.6,3.9-14.4,1.9-6.8,3.7-13.6,5.6-20.5,2.2-8.1,4.4-16.1,6.8-24.1,1.3-4.5,2.5-9,3.6-13.6,1.5-6,3.1-11.9,4.8-17.9,3-10.3,5.7-20.6,8.4-30.9,1.8-6.9,3.7-13.7,5.8-20.5v-.3Z"/>
        <path class="st54" d="M787.2,811c2.5,3.2,4.4,6.5,6.4,10.1,9.4,16.7,21.1,32.3,33.3,47,3.1,3.9,6.2,7.8,9.2,11.8,1,1.4,2.1,2.7,3.2,4.1h1c.3,1,.5,1.9.8,2.9.3,1.3.7,2.6,1,3.9.3,1.3.7,2.6,1,3.9.6,2.2,1.2,4.3,1.9,6.5,2.1,6.4,2.9,12.5,3.4,19.3,0,1.1.2,2.2.2,3.3.3,3.5.5,7,.7,10.5.2,2.4.3,4.9.5,7.3.8,11,1.5,22,2,32.9,0,.9,0,1.7,0,2.6.2,3.9.4,7.9.5,11.8.5,11.8,1.5,24,7.1,34.6.3.6.7,1.3,1,1.9,8.6,16,18.5,31.2,29.3,45.8,5.7,7.7,11,15.7,16.4,23.6,6.4,9.3,12.8,18.5,19.2,27.8,1.2,1.7,2.4,3.4,3.6,5.1.6.9,1.2,1.8,1.9,2.7.6.8,1.1,1.6,1.7,2.4,1.1,1.5,2.2,3,3.3,4.4.9,1.2,1.3,2.5,1.3,3.8h2v2c.3.1,1.3.4,2.9.9,1.6.5,3.3,1.2,5.1,2.1,7.6.4,15.1-.2,22.6-.8,4.5-.3,8.9-.3,13.4-.2-1.3,12.6-3.2,25-5.3,37.4-.5,3.1-1,6.1-1.6,9.2-4.7,28.1-10.8,45.9-18.2,53.4-1.3,1.3-2.2,2.7-2.9,4h-2v2h-2v2h-2v2h-2c-.2.6-.5,1.2-.8,1.9-1.5,2.5-2.7,2.8-5.2,4.1-.3.6-.6,1.2-.9,1.9-1.2,2.3-2.4,3.6-4.3,5.3-.2.2-.8.8-1.9,1.8-.7.6-1.3,1.2-2,1.8-.7.6-1.4,1.3-2.1,1.9-4.5,4.2-9.1,8.3-13.8,12.3-1,.9-1.9,1.7-2.9,2.6-6,5.3-12.1,10.1-18.9,14.4-2.3,1.5-4.5,3-6.7,4.5-11.7,8.2-23.9,14-37.4,18.5-.4.1-1.5.5-3.4,1.2-2.5.8-5,1.4-7.6,1.8.5-.4.9-.8,1.4-1.1,6.3-7.3,7.1-21,9.1-30.3,0-.7.3-1.4.5-2.1,1-4.8,2-9.6,3-14.5.2-1.1.5-2.2.7-3.3,2.6-12.4,3.9-24,3.3-36.7-.7-.3-1.4-.5-2.2-.8-2.8-1.1-5.3-2.5-7.9-3.9-11.9-6-24.8-10.8-37.9-13.3-.7,0-1.3-.3-2-.4-23.7-4.7-49.4-4.4-73,.5-5,1-9.9,1.3-15,.9-1.6-1.6-1.2-3.5-1.2-5.8,0-6.4.8-12.6,1.7-18.9,0-1.1.3-2.2.4-3.3.3-2.7.7-5.3,1.1-8,1,.2,2,.4,3,.6,13.1,2.6,26,2.8,39.3,2.7h11.1c18.9,0,36.1-1.5,53.9-7.9,1.2-.4,2.5-.9,3.7-1.3,10.9-3.9,21.3-8.8,31.6-14,11.2-5.6,20-8,26.4-7.2-3.2-3.6-6.7-4.1-11.3-4.9-.8-.2-1.7-.3-2.6-.5-1.8-.4-3.7-.7-5.5-1.1-16.3-3.2-32.5-6.8-48.6-10.9-.8-.2-1.7-.4-2.5-.6-3.8-1-7.7-2-11.5-3-3.5-.9-7-1.8-10.6-2.6-4.9-1.2-9.7-2.7-14.4-4.4,0-.6,0-1.3-.2-2-1.4-15.7-3.6-31.1-6.5-46.7-.2-.9-.3-1.7-.5-2.6-.5-2.4-.9-4.9-1.4-7.3,0-.7-.3-1.5-.4-2.2-.7-3.4-1.4-5.8-2.1-7.3-.5,3.4-1,6.8-1.4,10.2,0,1-.3,2-.4,3.1-.7,5-1.3,9.9-1.6,14.9-.4,5.1-1.3,10-2.4,15.1,0,.3-.2,1-.5,2.3-1.7,7.6-3.9,12.7-6.6,15.4-4.2.6-6.2.6-9.7-2-4.7-6.1-7-11.4-6.7-19.2v-2.5c.3-15.1,1.4-30.2,2.3-45.3h23.7c10.4,0,20.9,0,31.3-.5.3,0,1.1,0,2.4,0,12.6-.7,27.5-3,36.6-12.5,8.4-11.6,9.4-26.1,8-40-1.5-7-4.5-12.4-9-18,.4,4.5.8,8.9,1.5,13.3,1.1,7.4,1.7,14.5,1.7,22v2.5c0,3.9-.4,6.7-1.2,8.2-4.2-1.3-7.9-2.9-11.8-5-16.6-7.5-35.2-2.3-51.3,3.7-.8.3-1.7.6-2.6,1-.8.3-1.6.6-2.4.9-.3,0-1,.3-2.1.8-1.2.4-2.5.6-3.8.6.3-16.9,1.7-33.5,3.5-50.3.9-8.2,1.6-16.3,2-24.5.4-9.8,1.3-19.6,2.2-29.4.4-4.5.8-9,1.2-13.6.8-8.5,1.5-17,2.3-25.5.4-5,.9-9.9,1.3-14.9.4-4.9.9-9.8,1.3-14.6.2-1.8.3-3.6.5-5.5.9-9.8,1.9-19.5,3.2-29.2,0-.9.2-1.7.4-2.6.7-4.5,1.5-8.7,3.1-13v.4Z"/>
        <path class="st112" d="M971.2,843l9,3c-2,7-7.4,12.2-13.3,16.1-13.9,7.8-30,11.3-45.8,11.1h-3.4c-11.5,0-23-.6-34.5-1.2,24,11.9,51.6,17.6,77.7,9.1,9.8-3.5,16.6-6.6,20.4-9.3,4.3-2.7,8.8-3.3,13.8-4.1,4.8-.9,8.4-2.3,12.6-4.7,8-4.2,16.3-4.6,25.1-5.4,1.7-.2,3.5-.3,5.2-.5,14.1-1.3,28.1-1.6,42.3-1.1,0,5.8-.3,11.1-1.3,16.8,0,.8-.3,1.7-.4,2.5-.4,2.7-.9,5.3-1.4,8-.2.9-.3,1.8-.5,2.8-2.7,15.5-5.9,30.8-10.5,45.9-.3.9-.6,1.9-.8,2.8-7.2,23.8-17.5,45.3-32.8,64.9-11.9,15.4-23.2,30.6-29.3,49.3-.3.8-.5,1.6-.8,2.4-9.1,27.7-13.5,56.8-17.7,85.6-.4,2.7-.9,5.3-1.5,8-3.7.3-7.5.7-11.2,1-1,0-2.1.2-3.2.3-14.2,1.2-24.1,0-29.6-3.3v-2h-2c-1.4-1.8-2.8-3.8-4.1-5.7-.8-1.2-1.6-2.4-2.5-3.6-.4-.6-.8-1.2-1.3-1.9-1.7-2.6-3.5-5.1-5.3-7.7-.7-1.1-1.5-2.1-2.2-3.2-2.2-3.1-4.4-6.3-6.6-9.4-8.2-11.7-13.6-19.7-16.3-23.8-3.3-4.9-6.7-9.7-10.2-14.5-9.2-12.7-17.9-25.6-25.6-39.2-.4-.7-.7-1.3-1.1-2-1.1-2-2.2-4-3.3-6-.1-.2-.5-.8-1-1.8-6.4-12.5-6.3-27.6-7-41.3-.2-3.3-.4-6.6-.5-9.8-.5-8.7-1-17.4-1.5-26.2-.3-4.7-.5-9.4-.8-14.1,0-1.7-.2-3.4-.3-5.2-.6-12.2-3-22.9-6.9-34.5-1.3-4.1-2.5-8.2-3.6-12.4-.2-.7-.4-1.5-.6-2.3-1.3-5-1.7-9.3-1.5-14.5,4.8-2.8,8.9-3.5,14.4-3.7h2.4c1.7,0,3.4,0,5.1,0,2.5,0,5.1-.2,7.6-.3,10.4-.3,18.5.9,28.4,4.1,22.4,5.2,45.2,5.5,65.5-6.3,7.1-4.8,11.3-9,12.5-12.7h.2Z"/>
        <path class="st31" d="M691.2,983c1.1,3.2,1,3.9,0,6.9-.2.8-.4,1.5-.7,2.3,0,.3-.3,1.1-.7,2.4-3.2,11.1-5,19-5.3,23.8,0,1-.2,2.1-.2,3.2s0,1.5,0,2.3c1,.3,2,.7,3,1,.9,8.5-1.7,12.7-6.6,19.5-1.5,2.1-2.9,4.2-4.4,6.3-.8,1.2-1.6,2.3-2.4,3.5-4.3,6.1-8.4,12.4-12.5,18.6-2.3,3.4-4.5,6.8-6.8,10.2-.9,1.3-1.7,2.6-2.6,3.9-1.8,2.7-3.6,5.4-5.4,8.1-.1.2-.6.9-1.4,2-.8,1.3-1.7,2.5-2.6,3.8-2.8,4.2-5.5,8.3-8.2,12.6-.4.5-.8,1-1.2,1.4h-2c2.1-9,5.5-17.4,9.1-25.9.3-.7.6-1.4.9-2.1,6.7-15.7,13.8-31.2,21-46.7,2.1-4.4,4.1-8.9,6.1-13.4,6.8-15.1,13.9-30,22.8-44l.2.3Z"/>
        <path class="st44" d="M762.2,483c3.1,1.4,5.7,3.2,8.4,5.2,12.3,9.1,25.8,16.1,39.6,22.8-2.6,1-3.7,1.1-6.3.1-.8-.5-1.7-.9-2.5-1.4-.9-.5-1.8-1-2.8-1.5-.3-.2-1.3-.7-2.9-1.6-1.9-1-3.8-2.1-5.7-3.1-.3-.1-1.1-.6-2.5-1.4-1.4-.8-3.1-1.5-5.2-2.1l-1-2c-1.5-.9-3-1.8-4.6-2.6-.8-.4-1.7-.9-2.5-1.4-.2-.1-.8-.5-1.9-1v-2c-.7-.2-1.4-.5-2.2-.8-3.1-1.4-5.3-3-7.8-5.2v-2h0Z"/>
        <path class="st113" d="M691.8,465.7h2.7c19.5-.2,49.1-.3,64.6,13.3.6.5,1.1,1,1.7,1.5.9,1,1.3,2.5,1.3,4.5.2,0,.7.3,1.6.8,3,1.6,5.7,3.3,8.4,5.2v2c.3,0,1,.3,2.2.8,2.8,1.2,5.3,2.5,7.8,4.2v2c.7.1,1.5.2,2.2.4,2.8.6,4.7,1.5,7.2,2.9.8.4,1.6.9,2.5,1.4,1.7.9,3.4,1.9,5.1,2.9,4.7,2.6,7.6,3.7,13,3.5,2.8.8,5.5,2,8.2,3.1,43.6,16.7,90.4,20.7,136.6,20,6.9,0,13.8-.2,20.7-.2s4.7,0,7.1,0c23.6-.3,44.6,10.2,62.4,25.2.5.5,1.1.9,1.7,1.4,1.6,1.4,3.2,2.8,4.7,4.2.9.8,1.8,1.7,2.8,2.5,2.3,3.6,2.1,5.4,1.4,9.5-.9,4-2.1,7.8-3.3,11.7-2.1,6.8-4,13.5-5.7,20.4-2.1,8.6-4.5,17.1-7,25.6-1.7,5.7-3.3,11.3-4.6,17.1-1.2,5.1-2.6,10.1-4.1,15.1-3,9.9-5.5,19.9-8,29.8-.2.7-.3,1.3-.5,2-.5,1.8-.9,3.6-1.4,5.5-.8,2.8-1.8,5.4-2.9,8.1-.7,2.7-1.3,5.4-1.9,8.1-1.1,5.1-2.4,10-4.1,14.9-1.9,5.4-3.2,10.7-4.4,16.3-1.9,8.3-4.2,16.5-6.6,24.7-3.7-.6-6.9-1.7-10.4-3.2-1-.4-2-.9-3.1-1.3-2.1-.9-4.2-1.8-6.4-2.8-11.9-5.1-22.5-6-35.4-5.9-.3,0-1.1,0-2.4,0-18.2,0-36.3.8-54.4,1.5-14.1.6-28.2.9-42.3.6-10.1-.2-19.5,1.3-29.2,4.1-1.2.3-2.3.7-3.5,1-1.9.7-3.9,1.7-5.9,3h-3c0,.6-.2,1.2-.3,1.8-.9,2.8-2.3,4.1-4.4,6.2-4.7,5.1-7.5,10.7-10.3,17-2.4-2.2-4.1-4.5-5.8-7.2-2.9-4.4-6-8.6-9.2-12.8,1.3,7.4,3.8,14.2,6.6,21.2.2.6.5,1.3.7,2,.6,1.6,1.3,3.2,1.9,4.8,1,3.8.3,7.2-.2,11,0,.3-.1,1-.3,2.3-.2,1.6-.5,3.2-.7,4.8-1.7,11.4-2.9,22.9-3.9,34.4-.2,1.9-.3,3.8-.5,5.7-.4,4.9-.9,9.8-1.3,14.7-.4,4.9-.9,9.9-1.3,14.8-.8,9.2-1.6,18.4-2.5,27.6-.4,4-.7,8-1.1,12-.9,10.3-1.7,20.5-2.3,30.8-.7,11.5-1.7,22.9-3,34.3-1.3,11.8-2.2,23.7-3.1,35.6-6.9,2.6-13.8,2.3-21.1,2.2h-3.8c-13.9,0-22.9-1.4-27.1-4.3-.3-2.6-.4-5-.3-7.6v-2.3c.3-13.1,2.4-25.1,5.5-37.8,8.4-35.7,12.2-72.5,16.7-108.8.6-4.4,1.1-8.8,1.7-13.2,0-.7.2-1.4.3-2.1.2-1.7.5-3.5.7-5.2,1.1-10.3.6-17-1.7-20.1-1.3-.5-2.6-.9-4.1-1.2-.4,0-1.7-.3-3.9-.8v2c-1.3.3-2.6.7-4,1-1.1-4.6-1.3-9.2-1.4-14,0-1.8,0-3.6-.2-5.4,0-.3,0-1.3,0-2.9-.7-16.5-1.6-32.9-3.9-49.3-.5-3.5-.9-6.9-1.3-10.4-1.3.7-2.2,1.6-2.7,2.9-.6,2.7-1.3,5.4-1.9,8.2-.2,1-.4,2-.7,3-1.8,8.3-2.6,16.4-2.8,24.9-3-1.3-5-2.9-7.4-5.2-13.4-11.9-30.5-14.2-47.6-15.8l2-2c-3.3-.2-6.6-.4-9.9-.6-.9,0-1.9,0-2.8-.2-9.3-.5-15.8,0-19.6,1.7-3.4,1.2-6.3,1.3-9.9,1.4-1.4,0-2.9,0-4.3.2h-2.2c-24.4,1-49,4.3-67.2,22-1.9,2-3.5,4.1-5.1,6.3v-2c-5.3-.3-10.6-.7-16-1v-4.4c0-5.4-.2-10.7-.3-16.1,0-2.3,0-4.6,0-7,0-3.3,0-6.7-.2-10v-3.1c0-5.5-.5-10.9-1.3-16.4-.4-4.6-.7-9.2-1-13.9,0-.7,0-1.3,0-2-.9-14.5-1.3-29.1-1.5-43.6-.2-9.5-.5-16.5-.9-21.1-.7-7.8-.7-15.6-.7-23.5v-2.3c0-14.7,1.6-28.3,5.3-42.5h2c.2-.7.4-1.4.7-2.1,2-6.2,4.2-12.3,6.5-18.4,0-.2.3-.9.8-2.1,2.5-6.7,5.9-12.4,9.5-18.5,1.1-2,1.8-3.8,2.1-5.5,2.6-12.8,17.3-25.7,26.1-35,1.3-1.4,2.6-2.8,3.9-4.2,33.2-34.6,75.2-40.3,121.1-40.6l-.2.4Z"/>
      </g>
      <g id="ears" inkscape:label="Ears">
        <g id="left_ear" inkscape:label="Left ear">
          <path class="st72" d="M1180.2,873c4.5,1,7.8,2.7,11,6,1.5,3,2.3,6.1,3.1,9.3.5,1.8,1,3.6,1.5,5.4.2.9.5,1.8.7,2.7.9,3.1,1.9,6.2,2.9,9.3,3.4,10.3,4.3,16.1-.6,26-3.1,6-6.7,11.7-10.5,17.3-3.3,5-5.4,10.2-7.1,16,5.3-2,9-4.4,13.1-8.3.5-.5,1.1-1,1.7-1.6,1.2-1.1,2.3-2.2,3.5-3.4,1.8-1.8,3.7-3.5,5.5-5.3,17.4-16.7,22-31.7,23.3-55.5,9.4-1.2,18.5-2.3,28-2-.6,10-1.5,19.9-2.7,29.8-.3,2.2-.5,4.4-.8,6.5-.2,1.4-.3,2.8-.5,4.2-.2,1.2-.3,2.5-.5,3.8-.6,3.7-1.5,7-2.6,10.6h-2c0,.3-.2,1-.5,2.1-2.8,11.8-6.9,22.9-12.1,33.8-1.7,3.6-3.1,7.2-4.5,10.9-1.1,2.8-2.5,5.5-3.9,8.2h-3v2h2c-5.3,12.5-19,24.3-31.1,29.7-10.9,4.2-23.5,1.6-33.9-2.7-3.7-1.7-6.4-3.4-8-5,.4-6.9,1.9-13.5,3.3-20.2,1.9-9,3.7-17.9,5.3-27,.8-4.4,1.9-8.5,3.3-12.8.4-1.9.7-3.8,1-5.8,1.1-6.9,2.5-13.7,3.9-20.5,2.2-10.5,4-21,5.7-31.5.2-1.3.4-2.5.6-3.9,1.2-7.8,2.3-15.6,3.3-23.4.3-1.9.8-3.6,1.5-4.9v.2Z"/>
          <path class="st19" d="M1247.2,943h1c-1,12.5-5.6,23.8-10.4,35.2-.1.3-.6,1.4-1.4,3.3-4.1,9.5-7.5,16-10.2,19.4h-3v-2h3c.3-.8.5-1.6.8-2.4,1.5-4.3,3.3-8.5,5.1-12.7.7-1.7,1.4-3.4,2.2-5.1,1.2-2.8,2.3-5.5,3.5-8.3,3.8-9,6.9-18.1,9.5-27.5h0Z"/>
          <path class="st12" d="M1243.2,969c.3,1,.7,2,1,3-.2.3-.9,1.3-2,3,.2.6.4,1.3.6,1.9,0,.7.3,1.4.4,2.1-.9,1.3-1.9,2.7-3,4-.3,1.3-.7,2.7-1,4-.7.3-1.3.7-2,1-.1.3-.6,1.1-1.5,2.5s-2,2.6-3.5,3.5c-1.2-3.7-.7-4.4.9-7.9.1-.3.5-1.3,1.2-2.8.4-1,.9-2,1.3-3s.9-2,1.3-3c1.1-2.4,2.2-4.9,3.2-7.3,1,.3,2,.7,3,1v-2h0Z"/>
          <path class="st46" d="M1200.2,927h2c-.4,4.3-1.2,7.3-2.4,8.9-1.2,1.6-2.4,2-3.6,1.1-1.1,2.7-2.1,5.3-3,8h-2c-.2.8-.5,1.6-.8,2.4-1,2.8-2,5.6-3.2,8.4-.3.8-.6,1.5-1,2.3-.7,1.3-2.1,2.2-4.1,2.9.6-4.1,1.9-7,4.1-10.5.6-1,1.2-2.1,1.9-3.2,2.8-4.5,5.5-9,8.3-13.5,1.4-2.2,2.6-4.5,3.7-6.8h0Z"/>
        </g>
      </g>
      <g id="eyebrows" inkscape:label="Eyebrows">
        <g id="left_eyebrow" inkscape:label="Left eyebrow">
          <path class="st100" d="M928.6,762c5.1,0,10.3-.2,15.4-.2h4.9c13.9-.2,25.4,2.2,38.3,7.5,1,.4,1.9.8,2.9,1.2,11.2,4.7,20,11.1,29.1,19,2.2,1.9,4.4,3.7,6.7,5.6,4.7,4,8.7,8.9,12.2,14v3c-4.6-2-9.3-4.1-13.8-6.3-9.7-4.6-19.4-8.7-29.6-12.2-.9-.3-1.9-.7-2.8-1-12.4-4.1-25.1-4.9-38-4.8h-6.2c-9.2,0-18.1.7-27.1,2-2.5.3-5.1.7-7.6,1-5.8.7-11.6,1.5-17.3,2.2-4.2.5-8.3,1.1-12.5,1.6-1,0-2,.3-3.1.4-6.3.8-12.6,1.6-19,2.4-.8,0-1.5.2-2.3.3-3.5.4-6.9.8-10.4,1.3-1.2,0-2.4.3-3.6.4-1,0-2.1.2-3.1.4-1.7.3-3.5.7-5.5,1.4-8.8,1.1-17.7,1.1-26.5,1.1h-3.1c-4.9,0-9.5,0-14.4-1.1,1.7-10.6,6.3-18.4,14.6-25.3,16.7-11.7,41.1-11,60.7-11.7,2.1,0,4.2-.2,6.3-.2,5.2-.2,10.4-.4,15.6-.6,2.6,0,5.1-.2,7.7-.3,10.5-.4,21-.7,31.5-.9v-.2Z"/>
          <path class="st103" d="M900.2,792c-.3,1-.7,2-1,3,2.6.3,5.3.7,8,1v1c-3.5.3-7,.5-10.5.7-.3,0-1.3,0-3,.2-6.4.4-10.7-.2-16.5-2.9v-1c2.7-.3,5.4-.7,8.1-1,.8,0,1.5-.2,2.3-.3,4.2-.5,8.3-.8,12.6-.7h0Z"/>
          <path class="st77" d="M847.2,764c-2.8,2.8-5.9,2.8-9.7,3.4-5.9,1-11.7,2.1-17.5,3.6-.4.1-1.6.4-3.5.9-3.3,1.1-6.2,2.4-9.3,4.1v-3c12.2-7,26.1-9.3,40-9Z"/>
        </g>
        <g id="right_eyebrow" inkscape:label="Right eyebrow">
          <path class="st52" d="M706,789.8c4,4.1,7.1,8.5,9.9,13.4.6,1,1.2,2.1,1.9,3.2.9,1.7,1.4,3.3,1.4,4.6-7.9-.5-15.2-1.9-22.9-3.9-10.5-2.6-20.8-4.5-31.5-5.8-2.7-.3-5.5-.7-8.2-1.1-11.2-1.6-22.3-2.6-33.6-2.9h-5.4c-2.5-.2-4.9-.6-7.4-1.2v-2c-.7-.3-1.4-.5-2.2-.8-2.9-1.2-5.4-2.7-8-4.4-1-.6-1.9-1.2-2.9-1.9-.3-.2-1.3-.9-3-2-2-1.3-4-2.6-5.9-3.8-.9-.6-1.7-1.1-2.6-1.7-1.5-.9-3.3-1.7-5.3-2.4v-2c7.7-2.4,15.5-2.7,23.4-3.1.3,0,1,0,2.2,0,50.7-2.8,84.1,3.2,100.1,18h0Z"/>
          <path class="st92" d="M580.2,775v2c.6,0,1.2.2,1.7.4,2.4.7,4.2,1.7,6.3,3,.8.5,1.5.9,2.3,1.4s1.6,1,2.4,1.5c.8.5,1.5,1,2.3,1.4,1.5,1,3.1,1.9,4.6,2.9s3.1,1.9,4.6,2.8c.7.4,1.5.9,2.2,1.3.7.4,1.3.8,2,1.2.1.1.6.5,1.4,1.1v2h5v1c-1,0-2.1.2-3.1.3-9,.9-18,2.1-26.9,3.7-1,.2-1.9.3-2.9.5-4.4.8-8.8,1.7-13.2,2.7-1.3.3-2.6.5-3.9.8l-1-1c-11.1,3.3-18.8,6.1-23.3,8.3-1.1.5-2.7.7-4.7.7-1.2-5.8-1.4-9.9,1.6-15.1,8.4-11.9,27.5-22.9,42.4-22.9h.2Z"/>
          <path class="st51" d="M716.2,754h2c1.8,6.6,2.8,13.2,3.6,20.1,0,1.1.3,2.3.4,3.4,1.2,11.2,1.8,22.3,2,33.5l-2-2-2,2c-1.5-2.1-2.9-4.3-4.3-6.5-1-1.6-2.1-3.1-3.2-4.6-4.9-7.1-3.8-14.8-2.5-23,2.7-14,4.7-21.7,6-23h0Z"/>
          <path class="st68" d="M647,768.3c.9,0,1.9,0,2.8,0,.3,0,1.2,0,2.7,0,.3,0,1.1,0,2.4,0s3.4.8,6.2,2.3h-35c.3-.7.7-1.3,1-2,6.7-1.1,13.1-1,19.8-.7h0Z"/>
        </g>
        <path class="st90" d="M566.2,804c-4.8,2-9.7,3.9-14.5,5.8-.8.3-1.6.6-2.4.9-1.6.6-3.2,1.2-4.8,1.8s-1.5.6-2.3.9c-.7.3-1.3.5-2,.8-2,.8-4,1.8-5.9,2.8v-6h3l-1,2c.6-.2,1.1-.5,1.7-.7,2.6-1.1,5.2-2.1,7.8-3.2.9-.4,1.8-.7,2.7-1.1,9.5-3.9,15.5-5.2,17.8-4h0Z"/>
      </g>
      <g id="eyes" inkscape:label="Eyes">
        <g id="left_eye" inkscape:label="Left eye">
          <path class="st49" d="M776.2,777c5.2,4.7,9,10.3,13,16,.6.7,1.1,1.5,1.7,2.2.9,1.2,1.6,2.5,2.3,3.8l-1,2h18.1c11.2,0,22.4-.2,33.4-2.6,4.9-1,9.9-1.5,14.9-2.1,1.1,0,2.1-.3,3.2-.4,9.9-1.2,16.7-1.5,20.4-1,1.2,1,2.2,2,3,3-.6.3-1.1.6-1.7.9-15.6,8.7-30.8,22.9-40.3,38.1,6.3-3.2,12.1-6.7,17.8-10.8,4.9-3.6,9.8-6.9,14.9-10,.6-.3,1.1-.7,1.7-1.1,1.8-1.1,3.7-2.1,5.6-3.1.8-.4,1.5-.9,2.3-1.4,8.7-4.7,17.1-4.4,26.7-4.3.3,0,1.1,0,2.5,0,17.4.2,32.3,2.8,47.5,11.6v2c.7.3,1.3.7,2,1v2c.6,0,1.2.2,1.8.3,8.5,2.6,14.9,13,20.2,19.7.6.7,1.2,1.5,1.8,2.2.8,1.2,1.2,2.5,1.2,3.8,1-.3,2-.7,3-1,.7,1.3,1.3,2.6,2,4-4.2,0-5.1-.4-8.4-2.6-.7-.5-1.5-1-2.2-1.5-2.3-1.9-4.1-4-6-6.4-10.3-11.6-27.7-17.9-42.3-21.5v-2c-11.1-3.5-24.4-1-35,3-1.5.9-2.8,1.9-4,3-3.3,2.6-6.8,4.7-10.4,6.9-5.5,3.3-10.9,6.6-16.4,10-9.2,5.8-18.5,11.2-28.2,16.1v3c-.5.2-2.2.9-5,2-.3,6,.6,10.7,2.4,16.5.6,2.6.4,4-.4,6.5-.3-.5-.6-1-.9-1.5-3-4.8-6.4-9.1-10.1-13.4-11.6-13.4-21.7-28-31-43.1-.4-.6-.7-1.2-1.1-1.8-8-13-18.9-32.6-18.9-48.2v.2Z"/>
          <path class="st0" d="M1028.7,806.9c2.5,1.1,5.1,2,7.7,2.9,5.5,2.2,8.9,5.6,12.7,10.1.7.8,1.4,1.5,2.1,2.3,4.7,5.2,9.3,10.6,13.9,16,3.9,4.6,8,8.8,12.4,13,1.2,1.3,1.8,2.6,1.8,3.9-1.1,0-2.2.2-3.3.3-4,.3-8.1.6-12.1,1-1.7,0-3.5.3-5.2.4-2.5.2-5,.4-7.6.6-.8,0-1.5,0-2.3.2-4.5.4-9,.9-13.4,1.6-1.9,0-3.8.2-5.7.3-1,0-2.1,0-3.2,0-1.1,0-2.2,0-3.3,0-1.1,0-2.2,0-3.4,0-7.5.3-15,.4-22.5.3.5-.8,1-1.5,1.5-2.3,2-3.4,2.3-4.8,1.5-8.7-2.1-3.2-4.5-6.1-7-9-1.3-1.6-2.5-3.2-3.8-4.9-1.6-2.1-3.1-4-5-5.8-.9-.9-1.3-2.1-1.3-3.4h-2c-.9-.9-1.8-2-2.8-3.3-2.5-3-4.8-4.8-8.2-6.7v-2h-2v-2c-.6,0-1.2-.2-1.8-.3-4.9-.8-9.2-2-13.7-4.1-17.3-7.4-36-9.4-54.6-11.7.5-1.3,1.2-2.6,2-4,6.2-2.2,12.6-2.6,19.2-3.1,1.9-.2,3.9-.3,5.8-.5.8,0,1.7,0,2.6-.2,1.7-.2,3.3-.5,4.8-.8,33.9-6.2,66,5.2,96.1,19.4v.2Z"/>
          <path class="st69" d="M949.2,823v2c2.6,1,5.3,2,8,3v4c-1.7.3-3.3.7-5,1,0,.6,0,1.3,0,1.9-.7,9.5-3.6,16.7-10.9,23.1-7.1,4.4-14.9,5.1-23,4-7.4-2.2-12.7-6.6-17-13-2.2-4.4-2.4-8.5-2.6-13.3,0-.7,0-1.5,0-2.2,0-1.8-.2-3.6-.3-5.4,1,.3,2,.7,3,1l3-6-2-2c15.5-6.5,31.6-2.8,47,2h0Z"/>
          <path class="st109" d="M979.2,845c4,1.3,7,3.3,10.3,5.9,1.9,1.2,3.6,1.6,5.7,2.1,1.2.9,2.2,1.9,3,3v3l5,1v1h-1.7c-4.2.1-7.2.9-9,2.4-1.1,1.2-2.2,2.4-3.3,3.7-13.5,13.9-36.7,18.8-55.4,19.3-18.5-.6-36.2-5.9-52.5-14.4,2.9-.8,5.3-1.1,8.3-.9.8,0,1.7,0,2.6,0,.9,0,1.8,0,2.8.2,25.8,1.3,44.3.2,55.4-3.4,1.2-.4,2.4-.8,3.6-1.2,9.6-3.4,18.7-8,24.4-16.8.6-1.9.9-3.6,1-5h-.2Z"/>
          <path class="st75" d="M899.2,829v3c.3,8.3.6,15.4,6.5,21.7,8.2,7.6,16.7,7.9,27.4,8.3-.6.3-1.2.6-1.9.9-1.4.7-2.8,1.8-4.1,3.1-14.8,1.7-30.8-1.8-44.9-5.9-.8-.2-1.7-.5-2.5-.7-4.6-1.4-7.9-3-11.5-6.3,0-3.2.3-5.3,2.5-7.6,13.6-10.9,23.1-16.4,28.5-16.4h0Z"/>
          <path class="st107" d="M952.2,833c5,.5,8.3,2.9,12.3,5.6.6.4,1.3.9,2,1.3,1.6,1,3.2,2.1,4.7,3.2-.7,4.8-3.5,6.8-7,9.8-10.5,7.6-23.9,14-37,13.2,2.4-3.9,4.6-5.4,8.8-6.8,5.7-2.2,9.2-4.8,12.2-10.2,1.8-5.2,2.9-10.6,4-16h0Z"/>
          <path class="st94" d="M868.2,850c.1.3.6,1,1.4,2.3,2.3,3.8,4.5,4.2,8.6,5.7v1h-39c5.9-5.9,8.9-7,17-8.1,1.2-.2,2.4-.3,3.6-.5,3.8-.4,6.6-.5,8.4-.4Z"/>
          <path class="st10" d="M969.2,821c4.2-.3,7.3.3,9.4,1.8,14.7,17.3,21.9,29,21.6,35.2-5.1-3.7-8.3-7.9-11.8-13-4.1-5.6-8.3-11.3-13.4-16.1-1.1-1.3-1.7-2.9-1.7-4.9-1.3-1.1-2.7-2.1-4-3h0Z"/>
          <path class="st55" d="M1023.2,859v1c-.4,0-1.7,0-3.8,0-4.2.5-7.3,1.7-11,3.8-6.3,3.3-14.4,7-21.6,5.7-.5-.2-1.1-.4-1.6-.6.2-.1.8-.6,1.7-1.5.7-.6,1.5-1.3,2.2-1.9.7-.6,1.5-1.3,2.2-1.9,1-.9,1.9-1.7,2.8-2.6,2.4-.4,4.8-.8,7.2-1.1.7,0,1.4-.2,2.2-.3,6.5-.8,13-.9,19.6-.7h0Z"/>
          <path class="st56" d="M961.2,810c2.4.6,4.7,1.2,7,2v2h2v2c.7.2,1.4.4,2.1.6,3.7,1.8,6.3,4.2,8.9,7.4v2h2c10,10.7,16,19.1,18,25-.3,1.5-.6,2.8-1,4-.4-.7-.8-1.4-1.2-2.2-4.6-8.2-9.9-15.5-15.8-22.8-.5-.7-1.1-1.5-1.7-2.2-4.8-6-11.1-10.2-17.3-14.6-1-.7-2-1.5-3-2.2v-1Z"/>
          <path class="st47" d="M869.2,842v2c1.3-.3,2.6-.7,4-1-1.5,3.3-2.3,4.8-5,7-5.9,1.8-13.1,4-19,2,2.8-1.7,5.5-3.3,8.3-5,.8-.5,1.6-1,2.4-1.4.8-.5,1.5-.9,2.3-1.4.7-.4,1.4-.8,2.1-1.3,1.3-.6,2.9-.9,4.9-.9h0Z"/>
          <path class="st65" d="M973.2,837c2.9,2.1,5.5,4.4,8,7v1c-6.1.5-9.4-.9-14.4-4-.6-.4-1.3-.8-1.9-1.2-1.6-.9-3.1-1.9-4.6-2.8,2.7-5.3,8.9-2,13,0h0Z"/>
          <path class="st8" d="M905.2,823c-1.3,2.3-2.6,4.6-4,7-.3-.7-.7-1.3-1-2-.8.5-1.7,1-2.5,1.6-1.1.7-2.2,1.3-3.3,2-.3.2-1.4.9-3.3,2s-3.8,1.3-5.9.4h2v-5c2.1-1.2,4.1-2.4,6.2-3.6.6-.3,1.2-.7,1.8-1,3.7-2.1,5.9-2.8,10.1-1.4h0Z"/>
          <path class="st27" d="M887.2,830c-.1,1.9-.5,3.9-1,6-1.6,1.4-3.4,2.7-5.3,3.8-.3.2-1.3.8-2.9,1.8-3,1.6-5.4,2.4-8.8,2.4l-1-3c2.8-1.8,5.6-3.7,8.4-5.5.3-.2,1.1-.7,2.4-1.6.8-.5,1.5-1,2.3-1.5.3-.1,1-.6,2.1-1.4s2.4-1.1,3.8-1Z"/>
          <path class="st38" d="M948.2,824c8.3,1.3,16.6,5.5,22,12-.9-.2-1.8-.4-2.7-.6-2.2-.3-4.1-.2-5.8.2-4,.5-6.2-1.5-9.6-3.7,1.3-.3,2.6-.7,4-1v-2c-2.6-1.3-5.3-2.6-8-4v-1h0Z"/>
          <path class="st4" d="M923,815.8h2.1c5,0,9.3.6,14,2.2v1h-2.3c-3.5,0-7,0-10.5-.2-1.2,0-2.4,0-3.6,0-7.3,0-13.2.8-20,3.4-2.5.9-5,1.5-7.6,2,2.5-3.1,5.1-3.9,8.9-5.1,1-.3,2.1-.7,3.1-1,5.3-1.5,10.3-2.1,15.8-2.1h0Z"/>
          <path class="st96" d="M857.2,822c-1.7,4.3-4.7,6.9-8,10,.6-.4,1.2-.8,1.8-1.2.8-.5,1.6-1.1,2.4-1.6.8-.5,1.6-1.1,2.4-1.6,2.4-1.5,4.8-2.5,7.5-3.5-3.4,3.6-7,6.5-11.1,9.3-1,.7-2.1,1.4-3.1,2.1-1.8,1.1-3.7,1.6-5.7,1.6,1.4-3.1,3.1-5.5,5.4-8.1.6-.7,1.2-1.3,1.8-2,.2-.2.8-.8,1.8-1.9.5-.6,1.1-1.2,1.6-1.7.9-.9,2.1-1.3,3.4-1.3h-.2Z"/>
          <path class="st74" d="M961.2,819c4.8.4,7.4,2.6,10.7,5.8.5.5,1,1,1.6,1.5,5.4,5.2,10.1,10.8,14.7,16.7.6.7,1.2,1.5,1.8,2.2.8,1.2,1.2,2.5,1.2,3.8h-2c-1.4-1.7-2.8-3.5-4.1-5.4-8-11-15-17.9-20.9-20.6v-2c-1-.3-2-.7-3-1v-1Z"/>
          <path class="st67" d="M643.7,810.8h2.1c3.7,0,5.2,0,8.4,2.2-2.2.1-8.9.5-20,1,.7,1.3,1.3,2.6,2,4-3.1-.7-6-1.8-9-3v-2c-1-.3-2-.7-3-1,6.5-.8,13-1.1,19.5-1.2Z"/>
          <path class="st78" d="M612.2,797h27c-3.4,1.7-6,2.5-9.6,3.2-16.6,3.3-32.5,11.9-44.9,23.5-1.1.9-2.3,1.3-3.6,1.3v-2h2v-2h2v-2h2v-2l3-1,1-2c1.7-1,3.5-2,5.2-2.9,1.2-.7,2.3-1.6,3.2-2.6,1.9-1.8,3.7-2.7,6.1-3.7.8-.3,1.5-.7,2.3-1,1.5-.5,3.2-.8,5.2-.8v-2h4v-3h-5v-1h0Z"/>
        </g>
        <g id="right_eye" inkscape:label="Right eye">
          <path class="st1" d="M679.2,803c8.1.5,16.2,3.1,24.1,4.9,7.7,1.8,13.4,2.5,16.9,2.1,1-.7,2-1.3,3-2,.9,2.7,1.2,4.6,1.3,7.4,0,.3,0,1.1,0,2.6,0,.9,0,1.8,0,2.7,0,1.8,0,3.5.2,5.3,0,.9,0,1.7,0,2.6.1,1.6.5,3.5,1,5.8.3,5.7-2.2,10.3-4.4,15.4-.1.3-.6,1.4-1.3,3.1-5.3,12.4-9.6,20.3-12.7,23.6-.3.3-1,1.1-2.3,2.5l-3,3c-.7.7-1.3,1.4-2,2.1-12.6,12.8-21.9,21.4-28,25.9,2-6.8,5.3-13,8.4-19.3,2.2-4.5,4.2-8.9,5.6-13.7-1.8.6-3.6,1.3-5.3,1.9-1.5.5-3.1,1.1-4.6,1.6-3.6,1.3-7.2,2.5-10.8,3.9-19.6,7.3-40,11.1-59.6,2.3-9.6-4.6-19.5-11.5-23.7-21.7v-4c3.7,1.3,6.7,3.1,9.9,5.3,18.4,11.9,41.3,13.2,62.4,9,14.2-3.1,24-6.2,29.3-9.4,3.1-1.8,5.3-2.6,8.8-3.2.9-.2,1.7-.3,2.6-.5.6,0,1.3-.2,1.9-.3v-2c4.3-.7,8.6-1.3,13-2-1.6-6.7-3.4-12.2-6.9-18-.7-1.3-1.4-3-2-5-1.5-4-4-6.8-6.7-10-1-1.3-1.5-2.7-1.5-4h-2c-.8-.9-1.7-1.9-2.6-3.1-3-3.6-6.2-6.5-9.8-9.5l-1.5-1.5c0-1.3.7-2.7,2-4v.2Z"/>
          <path class="st118" d="M617.2,798v3h-4v2c-.8.3-1.6.6-2.4.9-6.7,2.6-11.4,5.3-16.6,10.1h-3c-.1.3-.5,1.3-1,3h-3v2h-2v2h-2v2h-2c.2.6.4,1.2.7,1.8.2,1.5,0,2.8-.7,3.9-.7,1.1-1.2,1.7-1.6,1.8-7.1,9-15.4,24.7-15.4,36.5-4.1-1.4-5.3-4-7.6-7.5-.4-.7-.9-1.3-1.3-2-1.4-2.1-2.8-4.3-4.1-6.5-.4-.7-.9-1.4-1.3-2.1-6.4-10.2-11.4-20.6-15.7-31.9,16.8-9.9,35.5-14.3,54.5-17.8,1.2-.2,2.4-.4,3.6-.7,8.3-1.4,16.7-2.7,24.9-.5h0Z"/>
          <path class="st110" d="M669.2,835v3c1,.3,2,.7,3,1l-1,2c-1-.7-2-1.3-3-2,0,.8,0,1.7,0,2.6.3,8.2,0,13.8-5.6,20.1-6.1,5.8-13.3,8.5-21.6,8.8-7.6-.3-13.2-2.6-18.8-7.7-4.1-4.5-6.1-9.3-6.1-15.4.2-2.2.4-4.3,1-6.5l2-1c.3-1,.7-2,1-3h2c.3,1.1.6,2.3.9,3.4.7,2.4,1.4,3.9,2.1,4.6,2.8.3,4.4.3,6.9-1.1,1.8-3.1.8-5.6,0-8.9-3.7-.7-6.4-1.2-10,0,.3-.7.7-1.3,1-2h2c-.3-1.3-.7-2.6-1-4,12.5-6,35-4,45,6h0Z"/>
          <path class="st104" d="M700.2,836l1,2c.3.1,1.3.5,3,1,4.1,6,5.7,11.9,6,19-8.3,2-16.6,3.7-25,5,.5-1.1,1.8-4.5,4-10h3c-11.4-12.4-26.3-20.9-42.4-25.6-6.1-1.8-10.3-3.6-14.6-8.4-.9-1.9-1.6-3.6-2-5,2.3-2.3,7.5-1.5,10.6-1.6.9,0,1.8,0,2.7-.2,21.1-1.1,38.6,9.9,53.7,23.8Z"/>
          <path class="st117" d="M675.6,806.9c10.9,9.1,19.8,19.2,27.6,31.1-2,0-3.7-.7-5.1-2-.4-.5-.9-.9-1.3-1.4-15.1-15-33.9-22.8-55.1-22.8-17.8.2-37.5,2.5-51.1,15.1l-1.8,1.8c-1.1.8-2.4,1.1-3.9.9-.6-.2-1.2-.5-1.8-.7-.3-1.3-.7-2.6-1-4,22.7-22.5,64.6-39.3,93.4-18.1h0Z"/>
          <path class="st28" d="M627.2,813v2c.3,0,1,0,2.2.2,3.5.9,5.4,2.5,8.1,4.8.9.7,1.8,1.4,2.7,2.2.7.6,1.3,1.2,2,1.8v1h-3.2c-21.9.8-40.2,6.7-55.8,22.9-1-1.7-2-3.3-3-5l-2,1c1.2-8.4,8.1-14.7,14.3-20.1,10.6-7.7,21.6-11.3,34.7-10.9h0Z"/>
          <path class="st106" d="M616.2,836c0,.3,0,1.1,0,2.5-.3,8.8.2,16,6.2,22.8,6.3,6,11.6,7.8,20.3,8.3,1.2,0,2.5.2,3.8.2s1.9,0,2.9,0v1c-24,1.5-43.9-2.6-64-16,13.2-12.7,23.5-19,31-19h-.1Z"/>
          <path class="st81" d="M596.3,860.7c18,9.1,36.8,11.5,56.9,9.3,1.5-.7,2.8-1.3,4-2,1.7-.4,3.4-.7,5.2-.9,3.5-.6,6.7-1.3,10-2.6,4.2-1.5,8.5-2.1,12.9-2.7.7,0,1.3-.2,2-.3,4.3-.5,8.5-.6,12.8-.6-3.1,2.1-5,2.6-8.6,3.3-4,1-7.4,2-11,4.1-7.6,4.1-16.1,5.7-24.4,7.6-1,.3-2.1.5-3.2.8-23.2,4.7-45.2,0-65.2-12.2-2.5-1.4-5-2.5-7.7-3.6.3-1,.7-2,1-3,5.2-2.3,10.5,0,15.1,2.7h.2Z"/>
          <path class="st101" d="M644.2,825l2,2c-1.2,0-2.3,0-3.5.2-1.5,0-3.1.2-4.6.3-.8,0-1.5,0-2.3,0-3.9.2-7.7.5-11.5,1.4.2.6.4,1.2.6,1.9,0,.7.2,1.4.4,2.1l-2,2v2h-3c-.3,1.3-.7,2.6-1,4h-2v9l-2-1v-7.5c0-1.7.4-3.5,1.1-5.5-10.5,3.1-18.3,8.4-26.1,15.9-3.9,3.6-7.7,4.5-12.9,5.1,3.3-5.2,6.4-9.9,11-14l1.9-1.9c14.7-14,34.4-17.9,54.1-16.1h-.2Z"/>
          <path class="st111" d="M668.2,839c4.2,2.1,8.2,4.4,12.2,6.9.7.4,1.5.9,2.2,1.3.3.1,1,.6,2.1,1.3,1.1.7,1.8,1.1,1.9,1.2,1.9,1.7,2.3,2.8,2.5,5.3-1.6,3.9-2.5,5.6-6,8-2.3.6-4.6,1.1-6.9,1.5-4.3.8-8.1,1.8-12.1,3.5-3,.8-6,1.4-9,2-1.1.2-2.3.5-3.4.8-.3,0-1.1,0-2.6.2l-2-2c.7-.2,1.3-.5,2-.7,7.8-2.9,13.6-6,17.3-13.8,1.5-5,1.6-10.3,1.7-15.5h0Z"/>
          <path class="st17" d="M582.2,826l2,1c-.3.7-.7,1.3-1,2h3c-1.6,3.4-3.6,6.6-5.6,9.8-3.5,5.5-6.6,11.2-9.5,17.1-2.1,4.2-4.5,7-7.9,10.1,5.5-19.9,11.8-33.3,19-40h0Z"/>
          <path class="st16" d="M629.2,833.2c1.9.5,3.6,1.8,4.9,3.8.5,3.3.3,4.6-1.7,7.3-1.5,1.1-3.2,1.9-4.9,2.2-1.7.3-3.2-.4-4.3-2.1-1.6-3.5-1.1-5.8,0-9.4,2-1.3,4-1.9,6.1-1.8Z"/>
          <path class="st93" d="M577.2,842h3c1.2,2.3,2.2,4.5,3,7-.7,1.3-1.5,2.7-2.4,4.1-1.7,2.5-2.6,4.2-2.6,4.9-3.3.7-6.6,1.3-10,2l9-18Z"/>
          <path class="st25" d="M662.2,800c9.1,1.3,15.7,2.6,20,4v1h-5c.3.3,1.1,1,2.4,2.3,1.3,1.3,2.5,3.2,3.6,5.7,1.3.7,2.7,1.3,4,2,1.5,1.3,2.8,2.7,4,4v2h2c1,1.4,1.9,2.8,2.8,4.3,1.2,1.8,2.5,3.3,4,4.9.7.9,1.4,1.9,2.2,2.8-.3,1-.7,2-1,3-.6-.9-1.3-1.7-1.9-2.6-10.3-13.6-20.9-26-37.1-32.4v-1Z"/>
          <path class="st114" d="M669.2,835c10.1,4.4,18.2,11.4,25,20-4.8-1.6-8.6-4.2-12.7-7.1-4.7-3.2-7.8-5.2-9.3-5.9-.3-1-.7-2-1-3-.7-.3-1.3-.7-2-1v-3Z"/>
          <path class="st79" d="M899.6,796.6c.4,0,1.6,0,3.5,0,9.6.2,18.7,1.2,28.1,3.4.9.2,1.7.4,2.6.6,15.1,3.7,28.8,8.7,40.4,19.4.1.2.5.9,1,2h-4l3,3c-3.7,0-4.6-1-7.5-3.2-5.3-3.8-10.4-6.5-16.5-8.8-1.2-.5-2.4-.9-3.6-1.4-10.3-3.6-20.8-4.2-31.6-4.4-1.6,0-3.2,0-4.8,0-12.6-.4-21.2,2.4-31.9,8.9-.8.5-1.6,1-2.5,1.5-2.3,1.5-4.6,3-6.9,4.6-3.3,2.2-5.8,3.2-9.6,3.9-1.7,1.1-3.3,2.3-4.8,3.6-.8.6-1.6,1.3-2.4,1.9-.6.5-1.2,1-1.8,1.5-.7-.3-1.3-.7-2-1,.2-.2.8-.8,1.7-1.7.7-.7,1.5-1.4,2.2-2.2.7-.7,1.5-1.4,2.2-2.2,1.2-1.3,2.1-2.6,2.8-3.9-.7-.3-1.3-.7-2-1,12.8-13.6,24.9-24.8,44.4-24.4h0Z"/>
        </g>
      </g>
      <g id="mouth" inkscape:label="Mouth">
        <path class="st26" d="M684.5,1153.6h29.3c12.8,0,24.8.6,37.3,3.6,6.3,1.5,13.7,2.1,20,.4,2.7-.6,5.1-.6,7.8-.6h42.7c7.4,0,14.8.4,22.2.9,3.8.3,7.6.4,11.4.5,1.4,0,2.7,0,4.1,0,2.1,0,4.1,0,6.2.2,8.3.2,16.5.6,24.7,1.4v1c-.8,0-1.6.2-2.4.3-8.3,1-15,3.3-22.4,6.9-.3.1-1.4.6-3.2,1.5-4.4,2.1-8.7,4.2-13,6.3-7.4,3.6-14.9,6.6-22.7,9.2-.9.3-1.9.7-2.8,1-17.3,5.8-34.8,6.2-52.9,6.1h-11.1c-12.5,0-24.2-.4-36.4-3.4-1.3-.3-2.6-.6-4-.9-18.1-4.1-32.6-13.7-42.9-29.3-.4-.6-.8-1.2-1.1-1.8,3.1-2.8,5.1-3.4,9.3-3.4h0Z"/>
        <path class="st58" d="M735.2,1133c7,2.8,13.7,6.8,20,11,3.7-.4,6.5-1.6,9.8-3.3.9-.5,1.8-.9,2.7-1.4,1.9-1,3.7-1.9,5.6-2.9,7.9-4,12.2-3.7,20.4-1,.8.3,1.5.5,2.3.8,3.6,1.2,7.2,2,10.9,2.9.9.2,1.7.4,2.6.6,2,.5,4.1.9,6.1,1.4,3.4.8,6.8,1.6,10.3,2.4,4.1,1,8.2,1.9,12.4,2.9.8.2,1.7.4,2.5.6,8.8,2,17.5,4,26.3,5.8.7,0,1.4.3,2.1.4,3.2.6,6.3,1.2,9.5,1.8,1.1.2,2.2.4,3.3.7,1,.2,1.9.4,2.9.5,2.6.8,3.6,1.8,5.4,3.7-5.8,0-11.7-.2-17.5-.4-2,0-4,0-5.9,0-2.9,0-5.8,0-8.6-.2h-2.6c-5.2,0-10.4-.4-15.5-.8-7.3-.5-14.6-.6-21.9-.6h-42.2c-2.4,0-4.3.5-6.6,1.1-7,.6-13.5.2-20.3-1.4-12.9-3.1-25.6-3.1-38.8-3h-22.1c-5.7,0-9.9.3-14.7,3.4.7-2,1.7-3.7,3-5l-8-2v-1c.9,0,1.7,0,2.6-.2,10.6-1.1,19.9-4.1,29.9-7.9,4.7-1.7,9.4-3.3,14.1-5,2.6-.9,5.1-1.8,7.6-3.1,4.2-2,8.3-1.7,12.8-.9l-.4.2Z"/>
        <path class="st23" d="M675,1151.1c1.5.6,2.5,1.6,3.2,2.9-.6.3-1.3.5-1.9.8-1.4.8-2.4,2.2-3.1,4.2-2.7,2.5-5.8,4.5-8.8,6.6-.3.2-1.1.8-2.5,1.8-.8.6-1.6,1.1-2.4,1.7-.7.5-1.4,1-2.2,1.6-2.4,1.4-4.5,1.9-7.2,2.3,0-7.1,3.4-10.9,8-16,.6-.7,1.2-1.5,1.9-2.2,4.9-5.1,8.1-5.3,14.9-3.7h0Z"/>
      </g>
      <g id="nose" inkscape:label="Nose">
        <path class="st66" d="M729.2,833c3.3-.2,5.4-.3,8.3,1.3,3,3,2.9,6.2,2.9,10.3,0,8.5-1.1,16.8-2.3,25.2-.2,1.7-.4,3.5-.7,5.2-2.5,19-5.3,38-8.1,57-.8,5.3-1.6,10.6-2.3,16-1.7,12.6-4.1,24.8-7,37.2-3.6,15.6-5.1,30.9-5.9,46.9-4.5-.7-8.5-2.3-12.8-4-5.8-2.3-11-3.8-17.2-4-1.7-14.8,3.8-31,9.9-44.4,1.6-3.9,2.5-7.9,3.4-12,.6-2.3,1.3-4.2,2.2-6.4,1.8-4,2.6-8,3.4-12.3.2-.7.3-1.5.5-2.2.8-3.9,1.6-7.8,2.2-11.8,0-.7.2-1.4.4-2.2.2-1.4.5-2.8.7-4.2.7-4.1,1.6-8.1,2.6-12.1,1.8-7,3-14.1,4.3-21.2.4-2.2.8-4.4,1.2-6.6,1.4-8,2.7-15.9,3.7-24,.3-1.9.7-3.8,1.4-5.8,0-1.6.2-3.3.2-4.9.5-6.5,2.5-12.4,5.8-18.1,1-.3,2-.7,3-1v-2h.2Z"/>
        <path class="st73" d="M837.2,985c6.3,5.8,10.4,12.4,11.2,21.2,0,2.4,0,4.7,0,7v2.5c-.2,11.7-2.8,22.2-10.9,31.1-16.8,14.3-45.1,11.3-65.7,11.4h-5.2c-17.5,0-29.6-.6-42.7-13.1-3.7-3.8-6.4-7.3-8.7-12.1.7,0,1.5.3,2.3.4,9.1,1.5,18.2,1.8,27.4,1.9h3.7c10.9,0,20.5-2.3,30.6-6.4,16.8-6.4,33.8-9.4,51-2.5,3.5,1.7,6.7,3.5,10,5.5.3-12.5-.2-24.4-2.3-36.8-.6-3.4-.8-6.7-.7-10.2h0ZM789.2,1035c-.8.4-1.6.9-2.5,1.4-5.9,3.4-11.3,7.3-16.5,11.6,3.3,1.7,6.9,0,10.4-.8,8-1.8,15.9-2.9,24.1-3.4,5-.4,8.5-1.7,10.5-3.8.4-1.6.4-3.3,0-5-3.5-3.5-6.3-4.3-11.3-4.5-5.7.2-9.8,1.8-14.7,4.5h0Z"/>
        <path class="st2" d="M811.2,1031.7c1.1.7,2.4,1.8,3.9,3.3.4,1.7.4,3.4,0,5-3,2.9-5.4,3.5-9.5,3.8-1.1,0-2.2.2-3.3.3-1.1,0-2.3.2-3.5.3-9.7,1-19.2,2.3-28.7,4.5,9.7-10.1,26.1-22.5,41.1-17.3h0Z"/>
        <path class="st85" d="M696.2,1030c9.3.2,15.9,8.7,22.1,14.7,1.3,1.5,1.9,3.3,1.9,5.3-4.3-1.3-8.1-3-12-5-1.3-.7-3.2-1.5-5.7-2.4-4.2-2-5.8-3.8-8.3-7.6,0-2.4.3-3.3,2-5Z"/>
        <path class="st62" d="M686.2,1024c5.7-.3,9.7.7,15,2.9,5,2,9.8,3.7,15,5.1-.6.2-1.3.5-1.9.8-1.4.8-2.3,1.9-2.7,3.3,0,.6-.2,1.3-.4,1.9-.7-.5-1.5-1-2.2-1.6-1-.7-2-1.3-3-2s-1.9-1.3-2.9-2c-3.3-1.6-4.5-1.6-7.9-.4.6,2.4,1.2,4.7,2,7l-2,1c-5-2.8-7.9-5.7-8.8-8.6-.2-2.5-.3-4.9-.2-7.4h0Z"/>
        <path class="st102" d="M712.2,1033c2.7.3,3.8.8,5.7,2.8.5.8,1.1,1.5,1.7,2.3,3.1,4.1,6.3,8,9.6,11.9-3,.3-6,.4-9,0-1.1-1.4-2.1-3.1-3-5-1-1-2.1-2-3.2-3-2.2-2.1-2.8-2.6-3.2-5.8.3-1.5.7-2.5,1.4-3.2h0Z"/>
      </g>
    </g>
    <g id="clothing_details" inkscape:label="Clothing details">
      <path class="st40" d="M682.2,1311c3.1,1.4,5.7,3.2,8.4,5.2,4.2,3.1,8,4.6,12.9,6.1,4.2,1.8,6.2,2.7,8.4,6.8,1.2,3.6,1.9,7.3,2.7,11.1.9,4.2,2.2,8.3,3.4,12.4,8.3,28,14.8,56.2,20.7,84.8,1.5,7.5,3.2,15,4.8,22.5,1.9,8.7,3.6,17.5,5.1,26.3,2.1,12.1,4.6,24.1,7.3,36.1.2.9.4,1.8.6,2.7.6,2.5,1.1,5.1,1.7,7.6.2.8.3,1.5.5,2.3,1.8,7.7,4,12.6,6.5,14.9.7.4,1.5.8,2.3,1.2s1.1.6,2.6,1.4c.9.5,1.9.9,2.8,1.4,1,.5,2,1,3,1.6,3.1,1.6,6.2,3.2,9.4,4.8.9.5,1.9.9,2.8,1.4,18.2,9.2,37,17.2,55.7,25.3,7.9,3.4,15.7,6.9,23.5,10.4,1.1.5,2.3,1,3.4,1.5,2.5,1.1,5,2.2,7.5,3.4,0-3.9-1.3-5.6-3.3-8.9-.3-.6-.7-1.2-1-1.8-1.1-1.9-2.3-3.8-3.4-5.7-.8-1.3-1.5-2.6-2.3-3.9-5.2-8.8-10.6-17.6-16.1-26.3-2.3-3.7-4.5-7.2-5.9-11.4,5.9-2.4,12-2.8,18.2-3.5,1.2,0,2.3-.3,3.5-.4,3.4-.4,6.8-.7,10.2-1.1,2.5-.3,5.1-.5,7.6-.8,1.5-.2,2.9-.3,4.4-.5,4.3-.5,8.4-1.3,12.6-2.2,3.1-.6,4.8-.8,7.7.5,2.1,1.5,3.9,3.1,5.7,5l1.5,1.5c7.6,8.1,6.9,17.7,6.7,28v4.2c0,3.4,0,6.8,0,10.3.2,0,.9.1,2.1.4,3.2.7,6,1.7,9.1,2.8,1.2.4,2.4.9,3.6,1.3,2.5.9,5,1.8,7.4,2.7,7.5,2.7,15,5,22.8,6.8,0-.6,0-1.2-.2-1.8-1-9.8-1.1-19.6-1.1-29.4v-17.5c0-6.3,1.6-10.4,5.6-15.3,5.4-5.1,10.2-5.2,17.4-5.5.3,0,1.1,0,2.5,0,10-.5,20.1-1,30.1-1.3h2.4c4.6-.2,9.2-.3,13.8-.3s2.2,0,3.4,0c5.6,0,9.6.9,12,2.7,8.7,10.2,5.5,23.7,4.6,36.2,0,1.1-.2,2.2-.2,3.4-.9,11.3-3,19.3-8.6,29.2-.5.9-1,1.8-1.6,2.8-1,1.9-2.1,3.7-3.1,5.5-1.1,1.9-2.1,3.9-3,5.8-2.7,5.5-4.6,9-10.5,11.1-.3,0-1,.3-2.2.6-.8.3-1.6.5-2.4.8-1.6.6-3.3,1.1-5,1.6-2.6.9-5.2,1.8-7.8,2.7-19.8,7.4-38.8,8.6-59.8,6.1v10c.9,0,1.7-.2,2.6-.2,4.3.3,6.1,1.5,9.4,4.2,5.2,6.6,4.8,13,4,21-.5,3.5-1.1,6.9-1.8,10.4-1.1,5.5-1.7,11-2.3,16.6-.6,5.8-1.2,11.4-2.5,17-.4,2.1-.5,4.1-.6,6.3-.9,4-2,5.7-5.3,8.2-8.7,5.4-18.2,9.6-27.6,13.6,2,2,5.8,1.5,8.5,1.8.8,0,1.5,0,2.3.2,2.4.2,4.8.4,7.2.6,1.6,0,3.3.3,4.9.4,4,.3,8,.7,12,1-7.3,18.5-18.1,35.8-28,53-.3.6-.7,1.2-1,1.8-.3.6-.7,1.2-1,1.8-.3.6-.7,1.2-1,1.8-.7,1.2-1.4,2.4-2,3.5-5.3,9.2-10.4,18.5-15.5,27.9-3,5.6-6.1,11.2-9.2,16.7-2.9,5.2-5.7,10.4-8.5,15.6-8.1,15.5-17,30.6-25.7,45.8-3,5.2-5.9,10.5-8.8,15.8-2,3.8-4.1,7.5-6.2,11.3h-1c-2.2-23.9-3.4-41.7-3.5-53.4,0-1.9,0-3.9,0-5.8,0-7.2.7-12.3,5.6-17.8,6.1-5.6,14.2-5.5,22.1-6.5.7,0,1.4-.2,2.1-.3,2-.2,4-.5,6-.7,2.8-.4,5.4-.9,8.1-1.6,1.2-.3,2.5-.6,3.8-1,0-1.3.2-2.5.3-3.8.3-4.7.6-9.3,1-14,0-2,.3-4,.4-6,.2-2.9.4-5.8.6-8.7,0-.9,0-1.8.2-2.7,0-.8,0-1.7.2-2.5,0-.7,0-1.5.2-2.2.1-1.3.5-3,1.2-5-1.1,0-2.3,0-3.5,0-4.3,0-8.6.2-12.8.3-1.9,0-3.7,0-5.6,0-2.7,0-5.3,0-8,.2-.8,0-1.6,0-2.5,0-3.4,0-5.7,0-8.5-2.3-5.2-5.9-6.5-10.4-6.4-18.2.4-5.8,1.4-11.4,2.5-17.1,0-.4.3-1.6.7-3.7.7-3.5,1.4-7.1,2.1-10.6.2-.9.4-1.8.5-2.8,2-10.2,4.4-19.9,12.4-27.2,7.3-4.9,13.5-5.6,22.2-6.1,14.3-.7,23.2-2.6,26.7-5.6,1.6-2,2.9-4.1,4.1-6.4.1-.3.6-1,1.3-2.3,1.2-2.4,2.4-4.8,3.5-7.3.4-.8.8-1.6,1.2-2.5,2-4.2,3.6-8.4,5.1-12.9h-2.8c-3.5,0-7,0-10.5.2h-15c-4.3-.5-6.3-1.7-9.6-4.5-6.2-8.7-1.4-29.6-.8-39.8s.4-6.7.6-10.1c.7-12.8,1.8-25.4,3.2-38.1-7.1-.1-11.8.8-14.1,2.9-1.1,1.6-2.2,3.2-3.1,4.7-3.5,4.6-7.8,6.4-13.4,7.1-1.8.2-3.6.3-5.3.4-1,0-1.9,0-2.9.2-10.4.7-20.9,1-31.4,1.2h-7.5c-3.2.2-6.2.6-9.3,1.2-1.3,4.2-2.7,8.5-4,12.7-.5,1.5-.9,3-1.4,4.4-3,9.5-5.9,19-8.5,28.7-1.7,4.7-3.5,8.1-7.8,10.8-3.8,1.5-7.1,1.8-11.2,1.9h-2.2c-2.3,0-4.6,0-6.9,0-1.6,0-3.1,0-4.7,0-3.8,0-7.6.2-11.4.2-1.1,4.4-2.2,8.8-3.3,13.2s-.6,2.5-.9,3.7c-1.5,6.1-3,12.2-4.5,18.3-.2,1-.5,2-.7,3.1-.7,3.4-.9,6.3-.6,9.7,1.8,1.8,4.6,1.1,7,1.1h19c4.2.9,5.7,2.1,8.1,5.6,1.1,6.1-.4,12.5-1.7,18.5-.2.9-.3,1.7-.5,2.6-.5,2.8-1.1,5.5-1.7,8.3-.4,1.8-.7,3.7-1.1,5.5-.7,3.4-1.4,6.8-2.1,10.3-.2.8-.3,1.5-.5,2.3-.3,1.7-.7,3.4-1,5.1,0,.3-.2,1.2-.5,2.7,0,.3-.2,1.1-.5,2.4-.5,2.9-.8,5.8-1.2,8.8-.9,6.2-3,10.7-7.2,15.4-3.4,2.3-4.6,2.2-8.5,2.2h-18.5c0-.4-.2-1.7-.5-3.9-.8-5.9-1.5-11.9-2.3-17.8,0-1.1-.3-2.2-.4-3.3-1.6-12.5-3.2-24.9-5-37.4-1.7-11.7-3.1-23.5-4.4-35.2-.8-7.4-1.8-14.8-2.9-22.2-1.9-13.1-3.3-26.2-4.7-39.3-.4-3.7-.8-7.3-1.2-11-.2-2.3-.5-4.5-.7-6.8,0-1-.2-2-.3-3.1,0-.9-.2-1.8-.3-2.7-.2-1.6-.5-3.1-.9-4.5-.7-3-.5-5.9-.5-8.9h-2.2c-9.6-.5-18.6-2.5-27.9-4.9-2.6-.7-5.2-1.3-7.8-1.9-8.5-2.1-16.8-4.5-24.9-7.6-.7-.3-1.4-.5-2.2-.8-7.4-2.9-14.5-6.3-18.1-13.7-.7-4.7.3-7.1,3-11,12.4-10.7,25.2-14.2,41.1-14.4,11.4-.3,22.2-1.5,33.4-3.9,4.4-1,8.9-1.9,13.3-2.8,9.4-2,18.8-3.9,28.2-6,0-1.3-.6-2.6-1.7-3.9-4.3-4.2-8.6-8.4-13.3-12.2-1.3-1.3-2.7-2.8-4-4.6-2.5-3.3-4.4-5.2-8.1-7.3-7.4-1-14.8.6-22,2-1.3.2-2.5.5-3.8.7-7.2,1.8-12.4,5.3-18.2,9.7-11.9,8.9-28.5,9.2-42.9,8.6-.5-8.1.6-15.7,1.8-23.7.9-6.3,1.7-12.5,2.3-18.8.7-7.6,1.7-15,2.9-22.5,3-1,6-1.9,9-2.8,2.8-.8,5.4-1.8,8-2.8,6.7-2.5,11.7-2.9,15-1.4,4.4,2.9,8.2,6.6,12,10.3,2.7,2.5,5.6,4.4,8.7,6.5.3.2,1.3.8,2.8,1.9s3.3,1.9,5.4,2.4c-.6-2.6-1.2-5.1-1.8-7.7-.2-.7-.3-1.4-.5-2.2-1.9-7.7-5-11.8-11.2-16.5-.6-.5-1.2-1-1.9-1.4-5.1-3.9-10.2-7.7-15.6-11.2-.7-.5-1.4-1.1-2.1-1.6-4.3-2-8.5-1.9-13.2-2-.9,0-1.9,0-2.8,0-2.3,0-4.6-.2-6.9-.2,2.9-25.6,5.6-39.6,8-42,1.8-.3,3.9-.6,6.4-.9.7,0,1.3-.2,2-.3,4.9-.6,9.8-1,14.7-1.3.4,0,1.7,0,3.8-.3,2.5-.2,5-.4,7.6-.5,5.7-.5,9.4-1.6,11.1-3.4,1-2.1,1.7-4,2.4-6.2.6-1.3,1.2-2.5,1.8-3.8.7-3.1.3-4-1.4-6.8-2.4-2.9-4.9-5.6-7.4-8.4-1.4-1.8-2.9-3.5-4.2-5.3-.2-.3-.9-1.1-2-2.5-1.1-1.4-2.1-2.7-3.2-4.1-2.9-3.8-5.1-4.9-9.6-6.1-2.3-.3-4.6-.5-6.9-.6-1.2,0-2.3-.2-3.5-.2s-1.7,0-2.6,0c2.1-9.9,5.1-19.4,8.6-28.9.4-1.1.8-2.1,1.2-3.2,1.9-5.1,3.7-8.4,5.2-9.9l-.2.3Z"/>
      <path class="st63" d="M900.6,1593.4c1.9,0,3.7.3,5.6.6,0,6,0,11.9-.6,17.9,0,1.7-.3,3.4-.4,5.1,0,.3,0,1.1-.2,2.6-1.2,14.8-2.3,29.6-2.8,44.4v2.1c0,2,0,3.9-.2,5.9v3.2c.5,4.3,2.2,6.9,5.5,9.6.6.4,1.2.8,1.8,1.2v1c3.3.1,13.3.5,30,1,1.1,4.4.9,4.9-.9,8.7-.4.9-.9,1.8-1.3,2.7-.5.9-.9,1.9-1.4,2.8-.4.9-.9,1.8-1.3,2.8-4.3,8.9-8.5,14.2-12.7,15.9-8.3,2.3-16.7,2.6-25.2,2.9-8,.5-15.3,2.1-21.1,7.9-6.1,7.3-7.7,17-9.6,26.1-.2,1-.4,2-.6,3-.6,3-1.2,6-1.9,9,0,.3-.2,1.1-.5,2.5-2.9,14.7-3.1,25.2-.5,31.5,0,1.9,0,3.5,0,5,5.5,2.2,9.8,3.1,15.7,3.1h7.3c-5.3-.3-10.6-.7-16-1v-1h37c-.4,6.4-.7,12.7-1.1,19.1,0,2.2-.3,4.3-.4,6.5-.2,3.1-.4,6.2-.6,9.3,0,1,0,1.9-.2,3,0,.9,0,1.8-.2,2.7,0,.8,0,1.6,0,2.4-.3,1.3-1.5,2.6-3.5,3.9-7.3,2-15,2.5-22.5,3.2-7,.7-13.3,1.6-18.5,6.8-2.7,4.5-3.4,7.8-3.3,13v12.3c0,6.7.3,13.2,1,19.9.5,6,.6,12,.6,18s0,2.6,0,4c0,7.9-.7,13.5-5.5,19.9-1.9-2.3-3.7-4.6-5.3-7.1-3.6-5.9-7.4-9.9-13.7-12.9-8.1-1.8-16.5-1.3-24.7-1.4h-6.1c-15.3-.3-25.6,2.1-31.1,7.1-5.5,5.7-8.3,12.8-10.2,20.3h-1c-4.3-26.9-1.4-54.4,4-81,.2-1.8.3-3.7.3-5.5s0-1.8,0-2.8c-.6-3.7-1.8-5.2-4.4-7.7-2.1-.8-4.3-1.5-6.6-2.1-4-1.4-6.5-3.2-7.6-5.5-.5-3.2-.7-6.2-.7-9.4-.2-1.6-.4-3.2-.6-4.9-.5-5.9-.5-11.8-.5-17.8v-8.4c0-1.3.4-2.3,1.1-3-1.3-.7-2.6-1.3-4-2h2c3.1,0,6.1,0,9.2-.2h3.2c5.2-.1,9.1-1.1,11.7-3,.6-.9,1.3-1.8,1.9-2.8.6-.8,1.1-1.5,1.7-2.3,1.7-3.7,2.1-7.3,2.6-11.3,1.2-8.7,2.8-17.2,4.7-25.7.3-1.2.5-2.4.8-3.6.5-2.3,1-4.6,1.5-7,3-13.9,4.2-23.3,3.7-28.1-2.2-2.9-3.4-3.9-7-4.5h-11.2c-2.6,0-5.1,0-7.7,0h-3.4c-1.9,0-3.4-.8-4.7-2.3-.7-6.4,1.1-12.2,2.8-18.4.6-2.1,1.1-4.3,1.7-6.4.3-1,.5-2.1.8-3.2,1.3-5,2.4-10.1,3.6-15.1.7-3.2,1.5-5.2,2.2-5.9,2.4,0,4.7-.2,7.1-.2h4.4c2.3,0,4.7,0,7,0,2.2,0,4.5,0,6.7,0h2.1c4.6,0,7.9-.8,11.7-3.5,3.9-5.5,5.4-12.4,7.2-18.8.6-2.1,1.2-4.1,1.8-6.2.9-3.2,1.8-6.4,2.7-9.7.9-3.1,1.8-6.3,2.7-9.4.3-1,.5-1.9.8-2.9.8-2.5,1.5-4.7,2.8-7,4.5-2.2,8.9-2.3,13.9-2.3h6.1c3.6,0,7.2-.2,10.7-.3h2.2c6.4-.2,12.9-.5,19.3-1,.9,0,1.8,0,2.8-.2,5.7-.5,9.5-1.6,14.2-5,1.2-1.6,2.3-3.2,3.2-4.8,3-4.3,5-4.8,10.2-4.8l-.2-.2ZM817.9,1658.4c-1.8,2.8-2.8,5-3.7,8.2-.3,1.1-.7,2.3-1,3.5-.4,1.3-.7,2.6-1.1,3.9-.2.7-.4,1.5-.6,2.2-2.6,9.7-5.1,19.4-7.5,29.2-.6,2.3-1.2,4.6-1.8,6.9-1.9,6.7-3.6,13.9-2.1,20.8,2,2.8,3.7,4.7,7.2,5.5,2.7.2,5.4.3,8.1.2h27.9c6.3,0,9.7-1.6,14.2-6,2.1-2.4,3.8-4.9,5.3-7.7.6-1.1,1.2-2.2,1.8-3.3.2-.4.8-1.6,1.8-3.5,1-1.8,1.9-3.6,2.9-5.4.7-1.2,1.3-2.4,2-3.7,2.1-3.9,4.2-7.7,6.5-11.4.6-.9,1.1-1.9,1.7-2.8,1-1.7,2.1-3.4,3.1-5.2,3.1-5.2,4.9-9.8,4.6-15.9-2.7-8-10.1-16.4-17-21-1.3-.2-2.8-.3-4.3-.4h-8.3c-2,0-4.1,0-6.1-.2-3.1,0-6.2-.2-9.3-.3-2,0-3.9,0-5.9,0s-1.3,0-2.8,0c-7,0-10.7,1.6-15.6,6.8v-.2ZM793.5,1793c-.4.7-.9,1.3-1.3,2-.4.6-.9,1.3-1.3,1.9-2.8,4.9-3.6,10-4.2,15.6-.2,1.9-.5,3.9-.7,5.8,0,.3-.1,1.4-.4,3.2-.5,3.8-1,7.6-1.5,11.4-3.5,25.3-3.8,40.5-1.1,45.4,2.5,3.1,4.5,5.4,8.5,6.1h18.6c3.5,0,6.9,0,10.4.2h9.7c4.7,0,7.9-.9,9.7-2.8,1.3-2,2.3-4,3.2-6.2.3-.7.7-1.3,1-2,1.5-8,2.1-15.7,1.9-23.8-.2-9.3.8-18.3,2-27.5,1.9-14.7.8-24.7-3.2-30-3.8-4-6.2-5.2-11.9-5.3h-10.2c-2.7,0-5.4,0-8.1-.2-10.6-.1-17.6,1.8-21,5.7v.5Z"/>
      <path class="st97" d="M1106.2,1369c1.3.7,2.3,1.9,2.9,3.6.3,1.1.6,2.2.9,3.3,3.5,11.7,8.1,19.5,13.8,23.2,3.3,1.3,6.6,1.3,10.1,1.3h2.3c2.4,0,4.8,0,7.2.2,1.6,0,3.2,0,4.9,0,4,0,7.9.2,11.9.3-1.3,4.2-2.9,7.9-5.1,11.8-.6,1.1-1.2,2.2-1.9,3.3-.7,1.2-1.3,2.3-2,3.5s-1.3,2.4-2,3.6c-1,1.8-2,3.6-3.1,5.5-3.2,5.6-6.3,11.3-9.4,17-.5.8-.9,1.7-1.4,2.6-1.1,1.9-2.1,3.8-3.2,5.7h-1v-3.1c0-3.8,0-7.7.2-11.5,0-1.7,0-3.3,0-5,0-2.4,0-4.8,0-7.2v-2.2c0-4-.4-5.7-2.9-8.9-5.4-4.1-12.6-2.5-19-1.7-3.5.5-7,1-10.4,1.5-6.2,1-12.5,1.7-18.7,2.2-15.2,1.4-25,4.4-29.4,9-3.7,5.8-4.7,11.2-5.2,18,0,.9-.2,1.9-.2,2.8-.3,3-.5,6-.7,8.9-.2,2-.3,4-.5,5.9-.4,4.6-.8,9.3-1.1,13.9-.2,3.1-.5,6.2-.8,9.2-.4,4.5-.6,9-.7,13.5,0,1.3,0,2.6,0,4,.5,4.3,1.7,6.4,4.4,9.7,7.9,5.3,21.7,1.4,30.9.5,2.2-.2,4.5-.4,6.7-.6,2-.2,4-.4,6-.6,2.8-.2,5.6-.3,8.4-.3-4.6,12.1-11.9,23.3-18.5,34.5-5,8.5-9.7,17.2-14.3,25.9-.5.9-1,1.9-1.5,2.9s-.9,1.7-1.3,2.5c-1.3,2.1-2.5,3.6-4.3,5.2,0-7.7,0-15.4.5-23.1,1.1-14.3,0-23.6-3.5-27.9-3.1-2.8-5-3.4-9.1-3.4h-10.3c-10.6,0-21.2.5-31.7,1-1.8,0-3.7.2-5.5.2-2.6,0-5.2.2-7.8.4h-2.3c-6.1.3-11.3,1.5-15.6,6.1-2.8,4.3-3.9,7-3.9,12.2v50.4c-5.6-.5-10.6-1.3-16-3.2-.6-.2-1.2-.4-1.9-.6-1.9-.7-3.9-1.4-5.8-2-1.3-.5-2.6-.9-3.9-1.4-5.9-2.1-11.7-4.3-17.5-6.8v-2.6c0-3.2,0-6.4-.2-9.7v-4.2c0-9.7-.6-18.4-6.9-26.3-.7-.6-1.5-1.2-2.3-1.9-.7-.6-1.5-1.3-2.2-1.9-3.2-2-5.4-2.8-9.2-2.2-1.5.4-3,.7-4.5,1.1-5,1.1-10.2,1.6-15.3,2.2-1.1,0-2.3.3-3.5.4-8,.9-15.8,1.4-23.8,1v-2c.5-.3,1-.6,1.6-.9,2.5-1.3,4.9-2.7,7.4-4,.9-.5,1.8-1,2.7-1.5,4.5-2.5,8.9-5,13.3-7.6.8-.5,1.5-.9,2.3-1.4,1.4-.9,2.9-1.8,4.3-2.7,3.3-2,5.8-2.9,7.5-2.6,1.7.3,3.1,1.2,4,2.8,6.7,4.4,17.8,1.8,25.6,1.1,1.1,0,2.2-.2,3.3-.3,2.3-.2,4.6-.4,6.9-.5,3.4-.3,6.9-.5,10.3-.8,4.5-.3,8.9-.7,13.4-1.1,4.3-.4,8.5-.6,12.8-.9.3,0,1.3,0,3-.2,1.9,0,3.7-.2,5.6-.3,5.5-.4,8.6-1.7,12.7-5.5,4.3-5.2,4.3-11.3,5-17.8,0-1.2.3-2.4.4-3.6.7-6.2,1-12.2.5-18.4-.8-10.9-.2-17.9,1.8-21,3.8-3.8,8.4-6.2,13.2-8.6,4-2.2,7.7-4.9,11.4-7.5,1.4-1,2.8-2,4.3-3,3.9-2.8,7.6-5.7,11.3-8.7,3.1-2.5,6.3-5,9.5-7.5,8.9-7,17.6-14.2,26.2-21.5,3.4-2.9,6.9-5.7,10.3-8.5,6.8-5.5,13.3-11.4,19.5-17.6v.3Z"/>
      <path class="st30" d="M1129,1414.9c2.5,2.4,3.1,3.3,3.3,6.7v14.5c0,11.1-1.5,20.9-7.3,30.5-.1.2-.5.9-1.2,2-.8,1.4-1.7,2.8-2.5,4.2-1.8,3.1-3.6,6.1-5.4,9.2-1.4,2.4-2.8,4.8-4.2,7.2-1.9,3.2-3.7,6.4-5.5,9.7-.1.3-.6,1.1-1.3,2.4-.8,1.5-1.6,3-2.4,4.5-.4.7-.8,1.3-1.1,2-.3.6-.6,1.2-1,1.8-3.7,3.9-9.8,3.9-14.8,4.3-.7,0-1.4,0-2.1.2-1.5,0-2.9.3-4.4.4-2.2.2-4.4.4-6.6.6-15.1,1.3-24.1.9-27-1.3-6.5-7.3-4.8-16.3-4.3-25.5.4-6.1.9-12.2,1.4-18.4.3-3.2.5-6.4.8-9.6.2-2.1.4-4.2.5-6.2,0-.9.2-1.9.2-2.9,1.2-13.9,4-22.8,8.5-26.5,9-6.3,20.6-7.1,31.2-8.2,2.3-.2,4.6-.5,6.9-.7,1.1,0,2.2-.2,3.3-.4,3.8-.4,7.5-1,11.3-1.5,12.2-1.7,20.1-1.3,23.6,1.1h0Z"/>
      <path class="st11" d="M793.2,1931.6h26.5c9.3,0,16.6,1.7,23.4,8.3,5.7,7,8.7,12.3,9,16-1.1,2.2-2.5,4.2-4,6.2-2.4,3.4-4.4,6.9-6.4,10.5-.4.7-.8,1.4-1.2,2.1-2.4,4.2-4.6,8.5-6.7,12.9-4.8,9.7-10.2,19-15.7,28.3-.2.3-.7,1.3-1.6,2.8-.2.3-.7,1.2-1.6,2.7-.1.3-.6,1.1-1.5,2.5-.9,1.4-2,2.4-3.3,2.9-3,0-6,0-8.9,0h-31.1c-3.2-10.7-4.5-21.6-5.8-32.6-.4-3.2-.8-6.4-1.3-9.6-2.6-20.5-1.2-34.4,4.1-41.7,7.8-8.5,14.7-11.5,26-11.4h0Z"/>
      <path class="st39" d="M817.1,1787.2h15.7c5.8.2,8.3,1.6,12.4,5.7,6.2,7.9,4.3,17.8,3.3,27.2-.5,4.5-1.1,9-1.7,13.5-.3,2.7-.7,5.4-1,8.1-.2,1.8-.4,3.6-.7,5.3-.5,4.4-1.1,8.7-1.5,13.1,0,.8-.2,1.7-.3,2.5-.2,1.6-.3,3.1-.4,4.7-.4,4.3-1,7-4.3,10-1.5,1.2-3,2.4-4.5,3.6-.3-.3-.7-.7-1-1-.3.7-.7,1.3-1,2h-1.7c-2.5,0-5.1.2-7.6.4-.9,0-1.8,0-2.7,0-.8,0-1.7,0-2.6,0-.8,0-1.6,0-2.4,0-1.4.1-3.1.5-5.1,1.2-3.4.3-6.9.3-10.3.4-.3,0-1.3,0-2.8,0-4.5,0-7.8,0-11.4-2.8-4.2-4.6-4.8-7.8-4.8-14v-2.3c.2-11.6,2-23.1,3.6-34.6.6-4.2,1.1-8.4,1.6-12.5,0-1,.2-2,.4-3,.2-1.8.4-3.6.6-5.4.7-5.6,2-10.2,5.2-14.9.4-.7.9-1.3,1.4-2,6.1-7.1,15-6,23.6-5.8v.2Z"/>
      <path class="st35" d="M830.3,1651.9h20.6c12.9,0,21.2,1.5,25,4.8,1.3,1.5,2.4,2.9,3.3,4.3.3.3,1.1,1.4,2.4,3.1.5.9,1.1,1.8,1.6,2.8.6.9,1.1,1.9,1.7,2.8,2.6,4.7,2.6,8.1,1.3,13.3-1.9,4.4-4.3,8.5-6.8,12.7-.7,1.2-1.4,2.4-2,3.6-1.4,2.4-2.8,4.8-4.2,7.2-1.9,3.3-3.8,6.6-5.7,10-1.1,2-2.2,3.9-3.4,5.9-.5.9-1,1.8-1.5,2.7-.5.8-1,1.7-1.5,2.5-.1.3-.5,1-1.2,2.2-3.1,4-6,7.6-11.1,8.8-2.8.2-5.4.3-8.2.2-.3,0-1.3,0-3,0h-22c-.3,0-1.3,0-2.9,0-4.6,0-6.7-.2-10.5-3.1-3.5-4.7-2.7-9-1.9-14.6,1.2-5.5,2.8-10.8,4.3-16.2,1.6-5.5,3-11.1,4.3-16.8.4-1.7.8-3.5,1.2-5.2.2-.8.4-1.6.6-2.5.9-3.6,1.7-7.2,2.6-10.8,0-.4.3-1.5.8-3.4,2.6-7.5,7.9-14.2,16.2-14.3h0Z"/>
      <path class="st9" d="M1156.2,1313c.7.2,1.3.4,2,.6.9.3,1.8.5,2.8.8.3,0,1.3.3,3,.8,2,.5,4,1.1,6,1.6,9.3,2.3,15.4,5.4,18.5,9.2.5,1,1.1,2,1.6,3.1.4.8.8,1.5,1.2,2.3,2.2,8,.2,14.1-3.4,21.3-.4.9-.9,1.8-1.3,2.7-4.9,9.8-10.3,19.2-15.8,28.7-2.1,3.5-4.1,7.1-6.1,10.7-.4.6-.7,1.2-1.1,1.9-.8,1.5-1.7,2.9-2.5,4.4-4.8,0-9.7.2-14.5.3-1.6,0-3.3,0-4.9,0-11.1.3-18.5-1.1-22.2-4-4.3-4.4-6.6-8.5-8.7-14.2-.3-.7-.5-1.3-.8-2-1.8-4.9-2.5-8.9-1.9-14.1,1.2-1.7,2.6-3.3,4.2-4.8.8-.7,1.6-1.5,2.4-2.2,1.7-1.3,3.3-2.4,4.8-3.3,3.8-2.5,6.6-5.7,9.7-9,.6-.7,1.2-1.3,1.9-2,4.2-4.5,7.8-9,10.5-14.6,2.1-4,4.8-7.1,7.8-10.4.6-.6,1.1-1.3,1.7-1.9,2.6-2.9,4.3-4.9,5.2-5.8v-.2Z"/>
      <path class="st21" d="M1036.2,1622c-1.3,4.2-2.8,7.8-5,11.6-.6,1.1-1.2,2.1-1.8,3.2-.6,1.1-1.3,2.3-2,3.5s-1.4,2.4-2,3.6c-1.4,2.5-2.8,5-4.2,7.4-1.9,3.4-3.8,6.8-5.7,10.2-5,9-10.1,18-15.1,26.9-6.2,11-12.4,22.1-18.5,33.2-3.3,6.1-6.7,12.1-10.1,18.2-.3.6-.7,1.2-1,1.8-1.6,2.8-2.8,4.6-3.5,5.4-8.4.6-16.9,0-25.2-.9-.9,0-1.9-.2-2.8-.2s-1.7-.2-2.6-.3c-.8,0-1.6,0-2.4-.2-1.3-.3-2.6-1.1-3.9-2.4,1.3-.7,2.7-1.3,4-2,.3-.1,1.2-.6,2.7-1.4,2.4-1.2,4.8-2.4,7.3-3.6.7-.3,1.4-.7,2.1-1,1.4-.7,2.8-1.3,4.2-2,4.5-2.2,8.2-4.4,11.7-8,.7-2.2,1.1-4.5,1.2-7,0-1.4.3-2.7.4-4.1,0-1.3.2-2.6.4-3.9.3-2,.6-4,.9-6.1,1.1-7.1,2.1-14.3,3-21.4,0-.9.2-1.8.4-2.8,0-.8.2-1.6.3-2.5.3-1.5.6-3,.9-4.3.8-3.1.7-6.1.8-9.3,0-1.3,0-2.6,0-3.9-.5-4.3-1.7-6.4-4.4-9.7-3.5-2.7-6.6-3.5-11-4v-10c.3,0,1.3,0,2.8,0h15.2c16.2.2,29.5-2.7,44.6-8.3,2.3-.8,4.6-1.7,7-2.5,1.4-.5,2.9-1,4.3-1.6,3.3-1.2,5.6-1.8,7.1-1.8l-.2.2Z"/>
      <path class="st20" d="M999.2,1454c-.2,7.4-.4,14.9-.6,22.3,0,2.5,0,5.1-.2,7.6,0,3.6-.2,7.3-.3,10.9v3.4c-.2,6.2-.6,10-4.8,14.8-.3.3-1.1,1.3-2.4,2.8-4.9,3.8-11.4,3.4-17.4,3.9-1.4,0-2.8.2-4.2.3-3.8.3-7.7.6-11.5.9-3.6.3-7.2.5-10.8.8-4.7.4-9.4.7-14.1,1.1-.9,0-1.8,0-2.7.2-10.6.8-18.4,1.3-23.4,1.4h-2.4c-4-.6-6.6-3.4-9.1-6.3,2.8-3,5.5-5,9.2-7,1-.6,2.1-1.1,3.2-1.7,1.1-.6,2.3-1.2,3.4-1.8,2.4-1.3,4.9-2.7,7.3-4,.6-.4,1.3-.7,1.9-1.1,25.7-14.2,50.6-29.9,75-46.3,2-1.3,3.3-2,4-2v-.2Z"/>
      <path class="st45" d="M728,1520.4c.6.6,1.1,1.2,1.7,1.8.6.6,1.2,1.3,1.9,1.9.6.7,1.3,1.4,1.9,2.1,1.3,1.4,2.7,2.8,4,4.1.6.7,1.3,1.3,1.9,2,2.5,2.6,5.2,4.9,8,7.2,2.5,2.3,4.5,5,6.7,7.6-10.3,2.7-20.6,5.1-31.1,7.2-2.2.4-4.4.9-6.6,1.3-4.1.8-8.2,1.7-12.4,2.5-.3,0-1.4.3-3.2.6-8.7,1.6-17.4,1.7-26.3,1.7-10.6.2-20.7,2-29.6,8.2-3.2,2.2-5.6,3.7-7.2,4.5-2.3,1.2-2.8,2.6-3.8,4.9h-1c.5-8.6,1.4-17.2,2.4-25.7,0-1.1.2-2.2.4-3.3,0-.3.1-1.4.4-3.1,0-.9.2-1.8.3-2.8.2-.7.3-1.4.5-2.1,2.7-1.3,5-1.4,7.9-1.6,1.2,0,2.4-.2,3.7-.3,2.5-.2,5.1-.5,7.6-.7,10.5-1,19.6-2.8,27.7-9.9,8.7-6.8,33.5-16,43.9-8.1h.3Z"/>
      <path class="st3" d="M666.2,1354c2.7,0,5.5,0,8.2-.2h2.3c4.7,0,7.7.2,11.5,3.3,1.8,1.9,3.6,3.9,5.2,5.9.5.6.9,1.1,1.4,1.7,8.5,10.3,13.2,17,14.3,20.3-.6,2.1-1.4,4.3-2.3,6.6-.5,1.2-.9,2.3-1.4,3.5-.9,1.9-2,3.6-3.3,4.9-1.7.3-3.6.6-5.8.8-1.2,0-2.4.2-3.6.4-1.3,0-2.5.2-3.8.4-2.6.3-5.1.5-7.7.8-.4,0-1.7.1-3.8.4-5.6.6-11.2,1.3-16.9,2-1.7.2-2.9.3-3.6.3.6-9,2.2-17.8,3.9-26.6.3-1.4.5-2.7.8-4.1,1.3-6.8,2.7-13.5,4.3-20.3h.3Z"/>
      <path class="st36" d="M1195.2,1235c2.6,1,5.2,2.1,7.8,3.2.7.3,1.5.6,2.2.9,3.3,1.4,5.5,2.5,7.9,5.1,1.4,3.8,1.6,7.4,1.5,11.4v2.6c-.4,15.1-3.7,30.3-7.5,44.9-5.1,0-9.7-.3-14.7-1.3-.7,0-1.4-.3-2.1-.4-2.2-.4-4.4-.9-6.6-1.3-1.5-.3-3-.6-4.5-.9-3.7-.7-7.4-1.4-11-2.1.5-.9,1-1.8,1.5-2.8,9.9-18.2,18.5-36.2,23.9-56.4.4-1.3.9-2.2,1.6-2.9h0Z"/>
      <path class="st105" d="M811.2,2027c-1.4,3.6-3,6.9-4.8,10.2-.6,1-1.1,2-1.7,3-.2.3-.8,1.4-1.8,3.2-.6,1.1-1.2,2.2-1.9,3.3-1.9,3.4-3.8,6.8-5.7,10.2-.6,1-1.2,2-1.8,3.1-1.6,2.8-3.2,5.6-4.8,8.5-.1.3-.6,1.1-1.4,2.5-4.3,7.5-7.3,12.5-9,14.9h-1c0-.3-.1-1.4-.4-3.2-.5-4.1-1.1-8.1-1.6-12.2-.2-1.7-.5-3.5-.7-5.2s-.4-3.4-.7-5.1c-.2-1.7-.4-3.4-.7-5-.5-3.9-1-7.8-1.6-11.7,0-.7-.2-1.4-.3-2.1-.3-1.8-.5-3.6-.8-5.4-.3-2.7-.4-5.3-.3-8.1,4.6,0,9.1-.3,13.7-.4,1.5,0,3.1,0,4.6,0,2.2,0,4.5,0,6.7-.2h2.1c4.6,0,9.3-.2,13.9-.2h0Z"/>
      <path class="st71" d="M662.3,1445.5c8.1.2,12.7,2.2,18.8,7.5,1.3,1.1,2.7,2.1,4,3.2,3.5,2.7,6.9,5.5,10.2,8.4,1.1.9,2.7,2,4.6,3.3,3.2,3.1,3.6,6.5,4.5,10.8.2.8.3,1.6.5,2.4.8,3.7,1.2,6.3,1.2,8-9.2-1.6-17.7-10.2-24.6-16-.8-.7-1.6-1.3-2.4-2-.6-.6-1.2-1.2-1.8-1.9-3.6-1.8-6.8-.5-10.5.6-.7.2-1.5.4-2.2.6-2.2.6-4.4,1.2-6.6,1.7-4.1,1.1-7.7,2-12,2-.2-6.1.4-11.9,1.4-17.9,0-.3.1-1.1.4-2.6,1.5-9.4,5.4-7.9,14.3-8h.2Z"/>
      <path class="st7" d="M1170.3,1297.7c7.9,0,15.3,1.2,23.1,2.8,1.2.2,2.5.5,3.8.7,3,.6,6,1.2,9.1,1.8-1.5,7.9-4.2,15.1-7.1,22.6-.5,1.2-.9,2.4-1.4,3.6-1.1,2.9-2.3,5.9-3.5,8.8h-2c0-.3-.3-1-.7-2.2-2.3-6.7-5-11.3-8.3-13.8-5.7-2.7-11.3-4.1-17.4-5.5-4.2-1-7.1-2.5-8.6-4.5,1.5-2,2.9-3.9,4.4-5.9.4-.6.8-1.1,1.2-1.7,3.1-4.3,5.6-6.5,7.5-6.7h0Z"/>
      <path class="st30" d="M747.2,1859c5.6-.6,9.4,1,14,4,2.7,2.2,3.9,3.7,4.2,7.2,0,8-1,15.6-2.2,23.5-.2,1.3-.4,2.6-.6,3.9-.5,3.1-.9,6.3-1.4,9.4l-2-2c-2.2,3.3-3.4,6-4,10h-1c0-1.2-.3-2.3-.4-3.5-.5-4.3-1.1-8.7-1.6-13-.2-1.9-.5-3.7-.7-5.6-1.5-12.7-2.8-21.6-3.9-26.8-.4-2.4-.4-4.7-.3-7.2h0Z"/>
      <path class="st5" d="M759.2,1903h1c.3,9.8-.7,19.3-2,29h-2c-2.1-12.9-1.7-21.7,1-26.4.7-.9,1.3-1.7,2-2.6Z"/>
      <path class="st120" d="M773.2,1553c4.5,1.3,8.8,2.7,12.8,5.1,2.6,1.5,4.3,2.4,7.2,2.9v2l6,1v2l6,1v2c.8,0,1.6.2,2.4.4,1.7.4,3.3,1.3,4.6,2.6-4.1-.6-7.5-1.5-11.3-3.3-1-.5-1.9-.9-2.9-1.4l-3-1.5c-1-.5-2-.9-3-1.4-6.4-3.1-12.8-6.4-18.8-10.4v-1h0Z"/>
      <path class="st50" d="M1186.2,1255h2c-.6,4.2-1.5,7.5-3.3,11.3-.5,1-.9,2-1.4,3s-1,2-1.5,3.1c-.5,1-1,2-1.4,3-2.8,5.8-5.7,11.3-9.3,16.6h-2c.3-.6.6-1.1.9-1.7,1.1-2.2,2.1-4.5,3.1-6.8,1.3-2.9,2.6-5.7,4-8.5h2c0-.6.2-1.1.4-1.7.7-2.5,1.6-4.8,2.6-7.2,1.5-3.7,2.9-7.3,4.1-11.1h-.2Z"/>
      <path class="st29" d="M844.2,1849h1c1.9,11,1.1,22.6-4.5,32.5-2,2-3.7,2.2-6.5,2.5l1-2h2c2.5-4.9,4.2-9.3,4.9-14.7,0-.3.1-1.4.4-3.2,0-1.1.3-2.2.4-3.3,0-1.1.3-2.2.4-3.4.3-2.8.7-5.5,1-8.3h-.1Z"/>
      <path class="st37" d="M861.2,1804c.4.4.8.8,1.2,1.3,6.9,6.4,15,5.6,23.8,5.6h16v1c-5.7.4-11.3.7-17,1-.3,0-1,0-2.1,0-9.6.5-16.6-.9-20.9-4.1-.7-1.9-1-3.5-1-5h0Z"/>
      <path class="st116" d="M908.2,1686h33c-.3,1.6-.7,3.3-1,5-.3-1-.7-2-1-3h-30l-1-2Z"/>
      <path class="st88" d="M1140.2,1332c0,4.5-2,7-5,10.2-.7.7-1.5,1.4-2.2,2.1-3.6,3.5-7,7.2-10.1,11.2-1.8,1.8-3.1,2.1-5.6,2.5,4.4-5.2,8.9-10.2,13.6-15.2,3.3-3.5,6.4-7.1,9.4-10.8h-.1Z"/>
      <path class="st89" d="M1147.2,1170l2,1c.7,2.8,1.2,5.5,1.8,8.3,1.5,7.2,3.5,13.1,7.1,19.5.8,1.5,1.2,2.9,1.2,4.2h-2c-2.7-4.4-4-7.7-4-10h-2c-.7-2-1.3-4-2-6h-1c-.3-5.6-.7-11.2-1-17h0Z"/>
      <path class="st115" d="M741.2,1811h21v1c-1.9.1-7.5.5-17,1v22c-2-3.9-2.5-6.6-3.1-10.9-.2-1.2-.3-2.4-.5-3.6-.3-2.3-.4-5.5-.4-9.5Z"/>
      <path class="st14" d="M1178.2,1223c3.6,1.6,6.6,3.8,9.7,6.3,1,.8,1.9,1.5,2.9,2.3,2.7,2.7,3.3,3.6,3.4,7.4-.7,2.7-1.5,5.2-2.4,7.8-.2.7-.5,1.4-.7,2.1-.6,1.7-1.2,3.4-1.8,5.1h-1c.6-6.3,2-12,4-18-1.6-1.3-3.2-2.5-4.8-3.8-.9-.7-1.8-1.4-2.7-2.1-1.6-1.3-3.2-2.5-4.9-3.7-.6-.4-1.1-.9-1.7-1.4v-2h0Z"/>
      <path class="st87" d="M839.2,1875c.3,1,.7,2,1,3-4,4-6.8,6-8.3,6.1h-21.7c3.2-2.1,3.9-2.2,7.4-2.2h14.6c.3-1,.7-2,1-3h3c1.1-1.3,2.1-2.7,3-4h0Z"/>
    </g>
  </g>
</svg>