<?xml version="1.0" encoding="UTF-8"?>
<svg id="Layer_2" xmlns="http://www.w3.org/2000/svg" version="1.1" viewBox="-1 -1 157.2 197.4">
  <!-- Generator: Adobe Illustrator 30.5.1, SVG Export Plug-In . SVG Version: 2.1.4 Build 3)  -->
  <defs>
    <style>
      .st0 {
        fill: none;
      }

      .st0, .st1 {
        stroke: #231f20;
        stroke-miterlimit: 10;
      }

      .st1 {
        fill: #231f20;
      }
    </style>
  </defs>
  <path class="st1" d="M116.1,140.6l6.6-40.5-10.1-21.3-16.2-14.2s0-14.2-5.3-18.7c-7.8-1-28.1,0-28.1,0,0,0,11.6,25.8,21.3,31.4-11.4-9.9-24.3-29.1-24.3-29.1,0,0,14.7,26.3,19,28.6-5.6-1-19-21.8-19-21.8,0,0,9.6,22,11.9,23-3.8-1-11.6-12.2-11.9-12.4,3.8,7.6,6.3,12.9,7.8,13.4-5.8-2.3-9.1-6.8-9.1-6.8,0,0,3,9.1,4.1,10.1l-5.6-2.5s1.5,6.1,4.3,6.8c-5.8-2.3-21-9.6-23-12.4,7.3,8.1,7.8,10.1,7.8,10.1l-15.7-14.7c6.8,8.9,3.5,5.8,3.5,5.8,0,0-14.2-10.1-14.2-12.4,0,6.6,1.3,32.1,1.5,33.4s1,10.6,2.5,12.7c.2,3,10.9,38.7,17.5,45.6-6.1-2.8-13.7-22-18.5-43.8-9.1-8.6-12.2-24.6-10.1-45.3-9.6-9.4-22-30.1-.6-36.7C18.2,13.8,34.1-1.3,76.2.7s63.5,27.3,70.4,66.1c5.1,26.6,5.6,38,3.3,43.5,0,7.8,3,20,4.1,21.3-3.5-1-8.1-1-8.1-1l-.5-6.3-4.3-4.6s5.6-8.1,4.8-24.8-5.1-13.7-12.1-4.8c-3.5,4.3-4.6,7.3-4.6,7.3l6.6,8.6,3.8,20.3c-.8,3.5-16.4,13.7-23.3,14.4h0Z"/>
  <path class="st0" d="M20,63.2c0,6.6,1.3,32.1,1.5,33.4s1,10.6,2.5,12.7c.2,3,10.9,38.7,17.5,45.5,0,0,18.1,28.6,21.1,32.1s4.6,8.6,14.6,8,14.9.6,20.2-3.7,41.7-37,48.7-59.1c0,0,.9-6.7-5.1-13.5"/>
  <path class="st0" d="M134.2,87.4s5.3-7.2,8-6.1,4.2,4.5,3.9,6.1-.6,19.5-1.4,23.2-3.6,10.2-7.1,9.8-3.6-3.5-3.4-5.1"/>
  <g>
    <path class="st1" d="M39.8,99.4s-16-1.9-17-1.3-1,3.8,0,4.6c0,0-.2,2.1.5,2.3s10-4.2,22.4,1.6c3.7.8,3.4-.5,0-2.6s-5.9-4.5-5.9-4.5h0Z"/>
    <path class="st1" d="M61.9,91.9s19.2-10.2,22.6-10.7,11.5,3.4,15.6,5.4-4.2,2.8-6.9,1.6-3.9-3.2-6.3-2.6-8.7,4.1-13.8,4.8-8.1,4.3-9.4,4.3-3.5-1.9-1.8-2.8h0Z"/>
  </g>
  <g>
    <path class="st0" d="M88.7,156.2s-9.1-1.5-13.9-3.2-7.7-.7-10.9.4c-4.2-1.1-7.4-1.9-9.3,2.8-1.5,4.2,5.2,3.4,7.6,1.7s9.5,2.4,26.5-1.7h0Z"/>
    <path class="st0" d="M72.4,164.1c3.2-3.8,15.1-6.7,15.1-6.7"/>
    <path class="st0" d="M75.5,162.6s-12.5-2-15.6,1.1,1.7,9.6,11.4,8.4,13.6-12,20.6-13.4c0,0,.9-3.1-4.6-1.4"/>
  </g>
  <path class="st0" d="M134.8,129.9s4.1,13.6-2,21.1"/>
  <path class="st0" d="M77.1,129.1s6.5,7,7.4,11.4"/>
  <path class="st0" d="M83,174.9s-7.5-3.4-13.2,0"/>
  <g>
    <path class="st0" d="M61.2,143.8s-.5,5.9-.8,6.6"/>
    <line class="st0" x1="65.3" y1="143.8" x2="65.3" y2="150.3"/>
  </g>
  <g>
    <g>
      <path class="st0" d="M94.1,99.4s-9.3-7.5-22.9,4.3"/>
      <path class="st1" d="M87.5,99.4c0,1.7-1.3,3-3,3s-3-1.3-3-3,1.3-2.3,3-2.3,3,.6,3,2.3Z"/>
      <path class="st0" d="M74,103.7s12.5.9,14.8,0,4.2-3.3,4.2-3.3"/>
      <path class="st0" d="M68.7,102.3s7.8-9.7,24.2-7.6"/>
    </g>
    <g>
      <path class="st0" d="M47.3,109.2s-10.1-5.2-18.8,7.6"/>
      <path class="st1" d="M43.7,110c0,1.7-1.4,3.2-3.2,3.2s-3.2-1.4-3.2-3.2,1.4-1.8,3.2-1.8,3.2,0,3.2,1.8Z"/>
      <path class="st0" d="M30.9,116.8s7.9.6,11.8-1.1,4.6-4.1,4.6-4.1"/>
      <path class="st0" d="M27.5,114.3s4.9-9.9,16.1-7.4"/>
    </g>
  </g>
  <g>
    <g>
      <path class="st0" d="M41.6,99.4s5.5,3.2,8,5,2.9,27.4,2.9,29.7c-1.3,3.4-.6,6.4,2.9,6.9,9,1.3,7.7-3.9,14.5-3.8"/>
      <path class="st0" d="M75.6,131.2c2.4,2,2.4,8.7-3.3,8.7"/>
    </g>
    <line class="st0" x1="59" y1="104.1" x2="61.2" y2="131.2"/>
  </g>
  <path class="st1" d="M85.1,157.3s-14.9,2.8-19.3,1.9v2.7h-4.6l-.8-2.7s2.9-1.7,2.8-1.7,17.1,1.6,21.9-.2Z"/>
</svg>
