<?xml version="1.0" encoding="UTF-8"?>
<svg id="Layer_1" xmlns="http://www.w3.org/2000/svg" xmlns:inkscape="http://www.inkscape.org/namespaces/inkscape" version="1.1" viewBox="0 0 1855 2226.2">
  <!-- Generator: Adobe Illustrator 30.5.1, SVG Export Plug-In . SVG Version: 2.1.4 Build 3)  -->
  <defs>
    <style>
      .st0, .st1, .st2 {
        fill: none;
        stroke: #000;
        stroke-miterlimit: 10;
      }

      .st1 {
        stroke-width: 15px;
      }

      .st2 {
        stroke-width: 3px;
      }
    </style>
  </defs>
  <g>
    <g>
      <g>
        <path class="st0" d="M1621.3,1054.9s124.3-13.6,233.3,136.7"/>
        <path class="st0" d="M1651.2,1051.2s-72.2-53.1-133.8-60.4"/>
      </g>
      <path class="st0" d="M1523.1,1427.3s27.7,60.9,39.1,171.2,33.3,226.1,59.5,273.9,52.8,189.8,60.9,222.5,25.1,92.1,34.9,121"/>
    </g>
    <g>
      <path class="st0" d="M358,1122.5s-104.8,26.1-143.1,50.6-96.4-8.5-214.4,255.6"/>
      <path class="st0" d="M308.2,2066.3s-54.6,132.8-59.9,149.4"/>
    </g>
    <g>
      <path class="st0" d="M655.3,938.4s-48.8,215.7,161,228.6c209.8,12.9,442.1-288.3,442.1-288.3"/>
      <path class="st0" d="M1258.4,882.7s19.9-6.3,55.9,17.8,54.9,14.3,74,18.8,35.9,26.4,63.2,28.5,42.9,12.7,49.9,17.8,21.5-2.2,39.2,9,20.7,26.2,20.7,26.2"/>
      <path class="st0" d="M1547.8,1657.6s-118.5-164.8-154-256.9c-33-85.7-12.7-183.4-5.6-208.7s31.8-109.4,49.9-134c19.5-26.5,71.2-70.3,98.6-73.2"/>
      <g>
        <path class="st0" d="M655.3,938.4s-153.2,98.4-184,108.3-66.4,24.3-81.6,40.4"/>
        <path class="st0" d="M287.5,1796.6s-53.7-123.3-52.4-193.1,48.1-379.5,172.3-524.8"/>
        <path class="st0" d="M263.4,1695.2s31.4,129.1,44.7,184.2c14.4,63.2-.1,170.9,0,186.9s-7.2,82.2,16.1,147.5"/>
      </g>
      <path class="st0" d="M1641.8,1943.8s-4.6,107.1-13,137.1-14.4,65.9-12.5,88.2,4.9,46.8,4.9,46.8"/>
    </g>
  </g>
  <g>
    <path class="st0" d="M879.5,622.7s-46.1-35.4-69.6-35.7-19.3,8.6-30.7,8.9-17.9-9.7-29.8-6.9-38.1,23.3-48.1,39.7"/>
    <path class="st0" d="M887.4,648.7s-33-18-59.9-15-33.9,9.1-43.1,9-36.3-11.4-52.1-9.7-30.1,20.4-35.9,20.7"/>
    <path class="st0" d="M901.4,653.3s-31.4,1.6-54,15.4-46.7,14.1-63.7,13.3-53.6,0-80.5-19.3"/>
  </g>
  <g>
    <path class="st0" d="M1162.3,460.7s14.8,20.9,14.2,29.9-9.7,15.1-10.1,21.1-2.2,20.6,13.5,8.5,16.5-4.6,24.5-6.6,19-11.6,19-25"/>
    <path class="st0" d="M1174.9,475.7s11.4-93.1,48.6-93.6,19.3,77.6,19.2,89.1"/>
    <path class="st0" d="M1185.4,437.7s11.5,12.9,28,10"/>
    <path class="st0" d="M1202.7,415.1s21.8-46.1,37.8,43.1"/>
    <path class="st0" d="M1236.5,510.7s-8.4,22-20.3,28"/>
    <path class="st0" d="M1147.3,522.2s5.9,25.1,32.1,29.6"/>
    <path class="st0" d="M1140.7,565.7c8,48.9,74.4,5.9,86.7-10s22-48.1,21.9-57.1,7.8-20.5,9.1-36.4c8-106.1-38.4-107.5-68.3-89.2-15.5,9.5-23.1,27.1-23.1,27.1"/>
  </g>
  <path class="st0" d="M629.4,309.6s-11.4,15.8-11.7,37.5.5,35-3.4,55.8-19.5,45-19.8,85.8,7.7,67.6,14.9,85.1"/>
  <g>
    <path class="st0" d="M1170,385.1s-135-219.8-356.7-208.9c-221.7,10.9-183.9,133.4-183.9,133.4"/>
    <path class="st0" d="M1214.4,361.7s.4-64.4-4-100c-4.8-38.9-46.1-126-237.9-203-151.5-60.9-281.6,9.6-323.2,75.6,0,0-23.9,40.6-31.6,112.4-5.4,44,4.8,68,4.8,68"/>
  </g>
  <path class="st0" d="M1204.4,232.7s2.3-153.2-236.7-219.2-361.3,137.2-353.3,219.2"/>
  <g>
    <path d="M1126.4,437.6s2.2,50.9,1.6,59.7-115.1,157-176.1,185-81.4,47.3-84.8,60.7-58.1,32.9-77.9,33.8-46.5-18.4-52.8-22-26.5-.6-27.9-16.3-15.7-22-19.9-23.4-34.3-26.3-34.4-30.1-49.6-129.4-57-137.3c-7.8,15-12.4,262.4,35.8,296.9s140.6,67.3,173.3,64.9,120.9-2.5,207.4-68.4,127-96,124.7-379.4l-12.1-24.1h.1Z"/>
    <path d="M921.5,615.2s-87-65-127.1-66.5c-5.4,13.9-7.7,27.4,7.1,29.7s111.4,37.9,119.1,49.3c-.8.9.9-12.5.9-12.5Z"/>
    <path d="M776.4,550.8s-103.1,36.2-101.4,80.3l16.4-5.5s39-54,84-47.9c-.4,0,5.3-5.2,5.3-5.2l-4.3-21.7h0Z"/>
    <path d="M724.5,675.7s6.6,12.2,3.3,16.7c4.8,4.3,18.4,11.4,19.3,20.3,4,9.6,25.6,17.3,29.2,21,12.5-7,23.4-4.3,35.1-18s16.4-12.2,17.8-11.8c3,.8,14-15.3,11.2-25.2-26,9.9-82.8,9.7-115.9-3h0Z"/>
  </g>
  <g>
    <path class="st0" d="M741.4,450.8s-43,36.8-28,66.9c0,0,5.7,14.8,23.2,19.8"/>
    <path class="st0" d="M869.7,461.6s41.5,79.1-25.3,75.1"/>
    <path class="st0" d="M733.4,523.7c5.8-18.4,19.2-9.8,23.9-6.1s17.8,17,29.2,17.5,14.3-8,15.8-11.4,6.3-13.1,23-11,30.4,12.9,30.4,12.9"/>
    <path class="st0" d="M802.3,523.7s30.1,3,35.1,2,9.5-3.8,13.9-2"/>
    <path class="st0" d="M771.4,532.7s-4-5.5-9.5-6-23.4.7-25.8,0-3.7-2-3.7-2"/>
    <path class="st2" d="M826.6,349.9s-25.8-14.2-50.2,11"/>
    <path class="st0" d="M835.4,355.7s.3,48.3,38.8,71.2"/>
    <path class="st0" d="M788.4,366.2s-33.9,83.4-44.3,97.6"/>
  </g>
  <g>
    <path class="st1" d="M865.4,312.8s21.5,8.3,42,5.9,48.9-13.7,66-10.9,29.8,17.6,45.5,22.8"/>
    <path class="st1" d="M749.9,323.6s-11.3-7-22.1-5.4-35.1-19.4-84.4,2.6"/>
  </g>
  <g>
    <path class="st0" d="M928.4,265.7s-50.4-2.8-66.2,10.1"/>
    <path class="st0" d="M779,272.8s-50.5-17.5-83.2-12.1"/>
    <path class="st0" d="M795.5,227.1s-25-10.2-45.3-4.4-41.8,4.4-41.8,4.4"/>
    <path class="st0" d="M936.2,229.6s-33,7-59.3,3.7-50.1,4.4-55.3,4.9"/>
  </g>
  <g>
    <g>
      <path class="st0" d="M1011.4,376.7s-24.5-21.5-45-23"/>
      <path class="st0" d="M979,354.7s-24.2-3.7-29-6-40.6-1.9-66.8,25.1"/>
      <path class="st0" d="M1002.3,387.7s-51.6-57.6-119.2,3c.6.1,74.2,12.6,83.3,7.5"/>
      <path class="st0" d="M943.3,403.5s24.9-4.1,29.3-5.8,26-9.9,31.9-6"/>
      <path d="M976.2,379.7c-2.4,13-9.2,18.5-21.3,18.5s-22.5-6.4-22.5-18.5,3.4-16.7,15.5-16.7,30.6,4.8,28.3,16.7Z"/>
      <path class="st0" d="M891.4,402.7s54.4,21.6,76,22,27.9-1.9,27.9-1.9"/>
    </g>
    <g>
      <path class="st0" d="M752.4,391.7s-45.7-62.6-96.1-3.4"/>
      <path class="st0" d="M660.5,388.6s13.8,11.5,26.3,10.5"/>
      <path class="st0" d="M748.4,393.2s-24.3,2.6-33,5.9-17.5,2.5-25.1,1.9"/>
      <path class="st0" d="M747.6,364.7s-67-47.8-103.1,20.5"/>
      <path d="M731.2,377.7c0,12.7-11.1,20.2-23.8,20.2s-19.7-4.9-19.7-17.6,2.1-17.5,14.8-17.5,28.7,6.5,28.7,14.9Z"/>
      <path class="st0" d="M745,404.8s-32.6,17.3-51.5,19.6"/>
    </g>
  </g>
  <g>
    <path class="st0" d="M1157.4,594.7s-17.7,176.5-15.6,199-3.4,68,98.6,95"/>
    <g>
      <path class="st0" d="M681.2,879.1s13.5,66.6,9,128.3"/>
      <path class="st0" d="M690.9,937.8s-28.3,11.6-43.5,23"/>
    </g>
  </g>
  <g>
    <path class="st0" d="M578.8,1924l-66.3,5.8s-21-121-20.9-128.1c.6-.7,66.2-5.8,66.2-5.8l2.9,25,23.3-28.7,74.3-9.2,68.3,68.7-.2,58.5-156.4,274,82.6-3.3v-31l33-.2s7.8-2.9,25.1-.3c-.1.3,2.9,66.3,2.9,66.3l-198,10,1.1-51.9s-1.1-8.6,6.9-26.4,144.2-252.1,144.2-252.1l5.8-10-30.5-25.8s-19.7-2.8-38.1,0-27.7,26.8-30.4,33.2,4.2,31.4,4.2,31.4Z"/>
    <path class="st0" d="M873.6,1902.3l-68,.9,2-132.5,66.9-.6,1.2,27.7s20.5-22.7,26.9-25.3,52.6-7.2,63.9-5.8,78,73.6,78,73.6l-7.2,119.3-38.7,45,32.9,42.9s-6.6,109.3-8,115.5-46.3,52.6-46.3,52.6l-183.6.6,4.1-107h69l.8,28.4,20.1,29.7,46.1,1,27.4-28.7s5.3-64.4,5.5-71.1-12.6-21.1-15.9-23.3c-3.8-2.7-6.9-15.7-16.1-14.4s-51.3,1.4-51.3,1.4l3.3-68.6,55.9-2s18.2-19.6,21-22.3,11.1-8.4,12-24.4-1.5-42.9-1.5-42.9c0,0-23.7-33.5-28-33.5s-39.3,2.4-45.3,3.5-18.5,18.4-24.3,25.2-2.9,35-2.9,35Z"/>
  </g>
</svg>