<?xml version="1.0" encoding="UTF-8"?>
<svg id="Layer_1" xmlns="http://www.w3.org/2000/svg" xmlns:inkscape="http://www.inkscape.org/namespaces/inkscape" version="1.1" viewBox="0 0 1172.1 1349.6">
  <!-- Generator: Adobe Illustrator 30.5.1, SVG Export Plug-In . SVG Version: 2.1.4 Build 3)  -->
  <defs>
    <style>
      .st0 {
        fill: #764a2e;
      }

      .st1 {
        fill: #2f2924;
      }

      .st2 {
        fill: #83522b;
      }

      .st3 {
        fill: #1b2e54;
      }

      .st4 {
        fill: #ce8f4d;
      }

      .st5 {
        fill: #5981ba;
      }

      .st6 {
        fill: #476c9e;
      }

      .st7 {
        fill: #192848;
      }

      .st8 {
        fill: #51331d;
      }

      .st9 {
        fill: #7a6757;
      }

      .st10 {
        fill: #a36b3e;
      }

      .st11 {
        fill: #544a40;
      }

      .st12 {
        fill: #292826;
      }

      .st13 {
        fill: #a46c48;
      }

      .st14 {
        fill: #a76d36;
      }

      .st15 {
        fill: #231f20;
      }

      .st16 {
        fill: #d49276;
      }

      .st17 {
        fill: #bd8044;
      }

      .st18 {
        fill: #ca8949;
      }

      .st19 {
        fill: #27417b;
      }

      .st20 {
        fill: #2d251e;
      }

      .st21 {
        fill: #8e6945;
      }

      .st22 {
        fill: #262526;
      }

      .st23 {
        fill: #6a4629;
      }

      .st24 {
        fill: #a06b38;
      }

      .st25 {
        fill: #b3bdc9;
      }

      .st26 {
        fill: #5c5148;
      }

      .st27 {
        fill: #915e30;
      }

      .st28 {
        fill: #d69551;
      }

      .st29 {
        fill: #485c75;
      }

      .st30 {
        fill: #986230;
      }

      .st31 {
        fill: #415980;
      }

      .st32 {
        fill: #905629;
      }

      .st33 {
        fill: #7b6959;
      }

      .st34 {
        fill: #4a2f1b;
      }

      .st35 {
        fill: #27221d;
      }

      .st36 {
        fill: #7a4e29;
      }

      .st37 {
        fill: #84542b;
      }

      .st38 {
        fill: #6d4523;
      }

      .st39 {
        fill: #2b2a2c;
      }

      .st40 {
        fill: #72431f;
      }

      .st41 {
        fill: #885335;
      }

      .st42 {
        fill: #b68150;
      }

      .st43 {
        fill: #986130;
      }

      .st44 {
        fill: #46403b;
      }

      .st45 {
        fill: #684324;
      }

      .st46 {
        fill: #bf7f4f;
      }

      .st47 {
        fill: #e8dbc7;
      }

      .st48 {
        fill: #96693f;
      }

      .st49 {
        fill: #7189b1;
      }

      .st50 {
        fill: #6f4828;
      }

      .st51 {
        fill: #a26935;
      }

      .st52 {
        fill: #a86f3a;
      }

      .st53 {
        fill: #181f2a;
      }

      .st54 {
        fill: #ad7040;
      }

      .st55 {
        fill: #2d2823;
      }

      .st56 {
        fill: #2f2721;
      }

      .st57 {
        fill: #a46630;
      }

      .st58 {
        fill: #28231e;
      }

      .st59 {
        fill: #b6783b;
      }

      .st60 {
        fill: #613c26;
      }

      .st61 {
        fill: #925936;
      }

      .st62 {
        fill: #896b4e;
      }

      .st63 {
        fill: #7c4e2d;
      }

      .st64 {
        fill: #4d443d;
      }

      .st65 {
        fill: #7f4f27;
      }

      .st66 {
        fill: #9d5d2d;
      }

      .st67 {
        fill: #1a2b4c;
      }

      .st68 {
        fill: #161d27;
      }

      .st69 {
        fill: #e7dfd5;
      }

      .st70 {
        fill: #a16330;
      }

      .st71 {
        fill: #865328;
      }

      .st72 {
        fill: #bb7e40;
      }

      .st73 {
        fill: #b98562;
      }

      .st74 {
        fill: #cf9657;
      }

      .st75 {
        fill: #4a423a;
      }

      .st76 {
        fill: #a07d79;
      }

      .st77 {
        fill: #b2733a;
      }

      .st78 {
        fill: #272320;
      }

      .st79 {
        fill: #4d453e;
      }

      .st80 {
        fill: #8d5f36;
      }

      .st81 {
        fill: #2c2723;
      }

      .st82 {
        fill: #a4abbb;
      }
    </style>
  </defs>
  <g id="background" inkscape:groupmode="layer" inkscape:label="Background">
    <rect class="st6" width="1172.1" height="1349.5"/>
  </g>
  <g id="subject" inkscape:groupmode="layer" inkscape:label="Subject">
    <path id="face-base" class="st74" d="M763.3,744.4c-3.2-15.5-1.6-23.2,6.1-36.8,1.8-3.3,3.5-6.6,5.3-10,.3-.5,1.1-2.2,2.6-4.9,10-19.5,15.8-40.6,21.7-61.6.2-.7.8-2.9,1.8-6.6,3.3-12.4,5.7-24.4,6.9-37.2h7c1,1.2,2,2.3,3.1,3.5,2.7,2.3,6.3,3.9,10.8,4.6,4.8-.7,9-2.1,12.6-4.4,4.1-6.3,4.5-8.6,5-15.8.6-8.5,2.2-13.5,6.7-20.7,7.1-11.7,9.6-23.8,12.3-37.1,2.3-11.1,5.6-20.6,10.4-31,7.4-18,4.8-36,2.8-54.8,0-.5-.2-2.2-.5-5-.9-7.8-2.7-13.5-5.2-17-5.5-4-8.4-3.3-15.1-2.2-1.9.3-3.8.6-5.7.9-.5,0-1.9.3-4.3.8,0-.5-.1-2.1-.4-4.8-.6-7.2-1.2-14.5-1.8-21.7-.2-2.5-.4-5-.6-7.6-.2-2.4-.4-4.8-.6-7.3-.2-2.2-.4-4.4-.6-6.7-.5-3.8-1.5-8.1-3-12.8,0-8,0-15.9,0-23.9s0-13.4-2.4-20.6c-.7-6.7-1.2-13.4-1.7-20.2-.5-3.7-1.5-6.4-3-8-.7-3.1-1.3-6.2-1.9-9.4-3.1-14.5-8.6-27.5-16.8-39.9-.8-2.4-1.5-4.8-2.3-7.3-1.5-4.5-3.9-7.6-7-9.1-2.2-3.9-4.4-7.9-6.6-11.8-8.1-13.4-19.4-23.7-31.3-33.8-2.9-2.5-6-5.6-9.5-9.3-2.7-2.5-5.6-4.1-8.6-4.8-7.5-2-11.2-7.5-16.5-13-8.7-7.8-17.4-12.2-28.1-16.4-2-.9-4-1.7-6.1-2.6-7.3-3.1-14.6-6.1-21.9-9.1-2.6-1.1-5.1-2.1-7.8-3.2-32-12.4-82.4-22.2-116.2-10.9-5.3.7-10.5,1.4-15.8,2.1-12.5,1.7-22.1,4.1-33.3,9.7-1.7.3-3.5.7-5.3,1-2.7.9-5.1,2.9-7.2,6-5.8,6.9-11.7,6.1-20.3,7-.5.5-2.1,2.1-4.7,4.7-1.8.6-3.6,1.3-5.4,1.9-4.2,1.9-8.3,4.8-12.3,8.9s-9,5.9-15.1,5.6c-.8,2.3-1.5,4.6-2.3,7-2.2.2-4.4.4-6.7.6-2.4.6-4.8,1.1-7.3,1.8-1.7,3.1-3.2,6.2-4.7,9.4-2.5,3.2-5.1,6.2-7.7,9.2-1.4,1.6-2.9,3.3-4.4,4.9-5.1,5.6-10.5,10.9-15.9,16.3-5.8,6.4-9.1,10.8-11.7,19-1.5,4.5-3.8,7.8-6.9,9.8-6.5,5.4-6.9,9.9-8.6,18.1-1.8,8.7-3,13.7-7.9,21.1-5.9,14.9-8,29.6-8.9,45.6-.3,4-1.3,8.4-2.8,13.1-.4,3.5-.6,7-.7,10.5,0,2.1-.2,4.2-.3,6.4,0,2.2-.2,4.5-.3,6.8s-.2,4.6-.3,6.9c-.9,21.1-1,42.2-.7,63.3-.6-.1-2.3-.5-5.2-1.1-8.8-1.7-16.2-1.8-25.2-1.2-2.7,1.9-5,4.2-7,7-.6,3.6-.9,7.5-.9,11.7v21.4c0,16,2.8,29.3,8,44.4,2.4,8.3,4.7,16.5,6.8,24.9,4,16,8.5,30.3,16.4,44.8,3.4,7.2,4.8,14.2,5.9,22,1.6,5.6,3.8,7.9,8.3,11.5,4.5.8,9.1.8,14,0,9.2-7.3,14-15.1,18.7-25.8,4.8,7.2,6.5,12.5,8.8,20.8.8,2.9,1.6,5.8,2.5,8.8.9,3.4,1.9,6.8,2.8,10.3,2.3,8.4,4.7,16.8,7,25.2.6,2,1.1,4,1.7,6.1,2.9,10.3,6.2,20.3,10.3,30.2,3.6,8.8,5.9,17,7.2,26.4,1.1,8.3,2.5,14.2,4.2,17.6.8,5.1,1.5,10.3,2.2,15.4,1.5,11.6,3.5,22.7,6.8,34,.3,3.1-.3,6.3-1.8,9.7-2.2,5.1,73.2,120,120.4,131.3,106.9-36.6,216.3-162.2,216.3-162.2l-.3-.4Z"/>
    <g id="clothing-base" inkscape:label="Clothing base">
      <path class="st15" d="M426.6,775.3c-3,8.1-3.2,15-3.4,23.7,0,1.6,0,3.2-.1,4.8-.1,5.1-.3,10.1-.4,15.2,0,3.4-.2,6.9-.3,10.3-.2,8.4-.4,16.9-.6,25.3h-2.3c-.8-10.1-1.5-20.1-2.3-30.5-2.7,4.6-5.4,9.1-8,13.6-1.5,2.5-3,5.1-4.5,7.7-2.5,4.5-4.6,9.2-6.2,13.9-20.4,17.8-43.3,29.1-68.1,39.4-12.6,5.2-25,10.7-37.6,16.1-4.4,1.9-8.8,3.8-13.3,5.7-14.8,6.4-29.4,13.1-43.8,20.4-25.6,13.1-51.9,24.3-78.2,35.8-6.7,3-13.4,5.9-20.1,8.8-2.2,1-4.4,1.9-6.6,2.9-18.7,8.4-36.9,17.5-55,27-2,1-4,2.1-6.1,3.1-1.8.9-3.5,1.9-5.3,2.8-5,1.9.4,320.5.4,320.5h1068.7l-.9-402.9c-14.7-4.4-28.9-8.9-43.1-14.4-18.2-6.9-36.5-13-55-19.1-40.9-13.5-80.8-29.5-120.4-46.2-17.9-7.5-36.5-14.7-55.7-17.8-13.2-3.8-22.1-15.6-31.2-25.3-2-2-3.9-4-5.9-6.1-3.7-3.9-7.5-7.8-11.2-11.7-3.6-3.8-7.4-7.5-11.3-11.1-8.4-9.1-14.1-19.8-20.3-30.4-1-1.6-1.9-3.3-3-5-.9-1.5-1.7-3-2.6-4.5-.9-1.1-1.8-2.2-2.8-3.3h-7s-144.2,144.3-216.3,162.2c-52.7-5.9-120.4-131.3-120.4-131.3l.2.4Z"/>
      <path class="st68" d="M765.6,739.7c9.9,9.1,16.2,18.6,22.9,30.2,7.3,12.2,14,22.3,25.4,31,4.8,4,9,8,13.2,12.6.5.5,1.9,2,4.3,4.5,2.8,3,5.6,6,8.3,9,8,8.4,13.9,12.7,25.6,14.9,23.7,4.6,46.4,14.3,68.7,23.2,5.1,2.1,10.3,4.1,15.4,6.1,13.4,5.3,26.9,10.7,40.3,16.2,27.7,11.2,56.2,20.5,84.6,29.7,1.8.6,3.6,1.2,5.4,1.8,3.3,1.1,6.6,2.2,9.9,3.2,14.8,4.9,67.8,17.9,82.3,24v403.4c-205.3,0-453.2,0-664.7,0,8.1-27.2,19.4-60.9,29.2-87.5,2-5.6,4.1-11.3,6.1-16.9.3-.9,1.3-3.5,2.9-8,3.3-9.2,6.4-18.5,9.5-27.8,5.9-18.1,12.7-35.5,20.3-52.9,4.3-10.2,8.3-20.4,12-30.8,17.9-48.8,40.7-95.5,63.7-142.1,1.1-2.1,2.1-4.3,3.2-6.5,16.3-32.8,35.6-63.6,55.3-94.4,18.7-29.3,32-51,39.9-65,.8-1.5,1.7-2.9,2.5-4.4,10.1-18.1,14.8-32.9,14.1-53.8v-5.8c0-4.7-.2-9.4-.4-14.1v.2Z"/>
      <path class="st53" d="M417.2,821.8h2.3c.1,10.5.2,21,.3,31.5v10.6c.3,26.3-1.3,51.9-4.3,78-.8,7-1.5,13.9-2.3,20.9-1.7,15.7-3.4,31.5-5.2,47.2,0,.9-.4,3.8-.9,8.5-3.2,28.8-6.4,57.6-10.2,86.3-4.6,34.6-7.8,69.2-10.6,104,0,.8-.2,3.2-.6,7.2-3.5,42.2-4.6,91.1-5.9,133.5H0v-304.9c6.9-2.3,61.6-25.8,68.7-28.1,7.1-3.5,14.1-7,21-10.7,29.9-15.4,60.7-28.6,91.5-42,20.1-8.7,39.9-17.7,59.5-27.7,12.6-6.4,25.3-12.2,38.3-17.7,2.2-1,4.4-1.9,6.7-2.9,12.3-5.3,24.6-10.6,36.9-15.7,31.2-13.2,53.4-25.4,66.5-36.7,3-2.5,6.1-3.7,9.2-3.7,0-.5.3-2.2.7-5.1,1.8-7.4,4.6-12.5,8.6-19,1.3-2,2.5-4.1,3.8-6.2,2.1-3.3,4-5.7,5.6-7.3h.2Z"/>
      <path class="st69" d="M758.6,732.7c3.1,1.5,5.5,4.4,7.2,8.6,7.2,26.8,1.2,49.8-11.9,73.5-14.9,26-31.1,51.3-47.1,76.7-25.7,40.7-49,81.7-69.9,125h-7c-3.8-4.9-7.1-9.8-10.4-15.1-2.1-3.2-4.2-6.5-6.2-9.7-1.1-1.7-2.2-3.4-3.3-5.2-29.5-45.1-50.8-69.3-63.7-72.5-1.7-.2-3.5-.5-5.3-.7v-4.7c-43.8,12-64.4,49.7-86.4,86.6-1.6,2.6-3.1,5.2-4.7,7.9-1.5,2.5-3,5-4.5,7.6-1.3,2.2-2.7,4.5-4.1,6.8-2.8,5.3-4.4,9.6-5.5,15.4,17.8-5,31.6-13.1,46.8-23.5,1,28.2-4.5,41.8-23.4,63.3-15.9,19.7-25.9,39.9-35.1,63.3-.6,1.6-1.2,3.1-1.9,4.7-7.6,19.2-14.3,38.6-20,58.5-2.3,7.6-5.1,13.1-8.5,16.5v-7h-4.7c-.9-55.2,4.4-96.3,15.9-123.3,3.7-9.1,4.8-16.2,3.3-21.1-.9-1.9-1.9-3.8-2.9-5.7-.5-6.4-.8-12.5-.7-18.9v-5.8c.4-22.9,3.1-45.5,5.7-68.2.7-5.8,1.3-11.6,2-17.4.2-1.7.4-3.3.6-5,4-34.7,5.4-69.3,6.6-104.2.3-8.2.6-16.3.8-24.4.2-5,.4-10,.5-15.1,0-.7,0-3,.2-6.8,0-1.9.1-3.9.2-6,.3-3.4,1.2-7.4,2.8-12.1h4.7c.6,1.6,1.3,3.2,1.9,4.9,10.5,23.9,26.6,40.1,44.9,58.4,2.4,2.4,4.7,4.8,7.1,7.2,7.9,8,15.8,16,23.7,24,1.3,1.3,2.6,2.7,4,4,3.8,3.8,7.5,7.6,11.3,11.4l3.5,3.5c8.5,8.4,15.5,13.2,21,14.3,6.6-1,9.2-2.3,14.7-5.9,1.7-1.1,3.3-2.1,5-3.2,1.8-1.2,3.7-2.4,5.6-3.6,4.3-2.7,8.5-5.3,12.8-7.9,27.4-17,54.7-34.1,80.8-53.1,1.4-1,2.7-2,4.1-3,31.5-23.1,61.6-50.4,82.4-83.8,2.3-3.1,4.6-6.3,7-9.4v.2Z"/>
    </g>
    <g id="face-details" inkscape:label="Head and face">
      <g id="face_shadows" inkscape:label="Face shadows and highlights">
        <path class="st52" d="M674.4,521.5c11.2,3.2,20.1,8.3,29.7,14.8,22.9,15.1,41.4,23.1,55.4,23.8,6.5.3,11.5,1.8,14.8,4.4,8.3,9.9,10.9,17.2,10.7,30-1.8,18.4-8.1,36.8-14.3,54.1-2.8,9-3.1,10.1-.4,18.3,5.9,20,6.6,34.1,2.3,42.2-1,1.9-2,3.8-3,5.8-13.8,26.4-25.3,41.7-34.4,45.8-.4.4-1.7,1.7-3.8,3.8l-3.2,3.2h-4.7c-2.7,3.2-5.2,6.6-7.6,10-8.6,11.5-16,18.2-29.8,22.9-1.4,1.8-2.9,3.6-4.4,5.5-15.9,19.9-41.3,28.5-65.8,31.3-4.7.3-9.4.5-14,.7-1.6,0-3.2,0-4.8.2-34.2,1.2-58.7-1.6-86.4-23.6,7.2,7.5,14.6,13.2,23.4,18.8-12.3,4.1-23.7-1.7-35.1-7-13.6-10.4-20.5-26-28.2-40.9-4.7-8.9-10.2-17.3-15.9-25.6-8.3-12.3-16.4-24.7-24.1-37.4-.3-.5-1.3-2.1-2.8-4.6-2.2-3.6-4.1-7.4-6.1-11.1.3-.5,1-2.1,2.3-4.7,2.6,3.3,5.2,6.6,7.7,10,1.4,1.9,2.9,3.7,4.4,5.6,3.8,4.9,7.6,9.9,11.3,14.9-2.8-12.1-7-20.9-14-31.2-1.6-2.7-2.4-5.6-2.4-8.7h4.7c9.8,17.6,18.9,34.9,25.9,53.8,5.5,14.4,12,24.8,23.2,35.3l2.3,2.3c1.5-2.3,3.1-4.6,4.7-7,.7,1.4,1.3,2.7,2,4.1,10,19.5,22,31.3,42.8,38.8,13.1,3.2,26,2.5,39.4,1.6,1.8,0,3.6-.2,5.5-.3,5.9-.3,11.8-.7,17.7-1.2,1.8,0,3.7-.2,5.6-.3,14.3-1.3,22.2-6.5,31.9-17,7.4-9.3,8.3-16.4,7-28.1-4.3-6.2-9.6-8.7-16.4-11.7-3.3-.5-6.6-.9-10.1-1-1.9,0-3.7-.2-5.7-.3-1.9,0-3.9,0-5.8-.2-2,0-3.9-.2-6-.3-4.8-.2-9.7-.4-14.5-.6.3-.8,1-3.1,2.3-7-9.9-9-20.5-13.7-32.7-18.8-.4-3.6-.4-7.5,0-11.7,7.5-7,13.5-9.6,23.6-9.8,49.2-1.2,74.9-12.9,109.4-48.6,3.9-4.1,7.9-8.1,11.8-12.1,1.7-1.8,3.4-3.6,5.2-5.4,2.9-2.6,5.9-3.9,9-3.9.5,1.3,2.1,5.2,4.7,11.7,1.5-.8,3.1-1.5,4.7-2.3-2.1,21.8-9,40-17.6,59.8-2.3,5.5-3.4,9.8-3.4,12.9,3.1-3.9,6.2-7.7,9.4-11.7-1.4,11.1-3.5,21.9-6.1,32.8-.6,3.1-.9,7.1-.9,11.8.2-.5.7-1.9,1.5-4.3,11.2-32,22.4-61.7,40.7-90.4,9.8-15.5,15.5-31,20.9-48.4h-4.7c-.7,1.9-1.4,3.8-2.1,5.7-1.7,4-4.2,6.8-7.3,8.4-1.5-.8-3.1-1.5-4.7-2.3-.8-2.3-1.5-4.6-2.3-7l-4.7,4.7v-9.4c.4-.3,1.6-1.4,3.6-3.2s3.1-5.3,3.2-10.4c-2.7-9.5-6.6-12.7-14.1-19-9.7-8.4-18.2-16.8-26.5-26.7-3.6-4.1-7.4-7.4-11.7-10.9-.7-.5-2.7-2.2-6-5v-4.7c-1.4-.7-2.8-1.4-4.2-2.1-3.4-1.7-7.4-4.2-12.1-7.3v-4.7h0Z"/>
        <path class="st36" d="M658.1,516.9c1.5.3,6.2,1,14,2.3.8,2.3,1.5,4.6,2.3,7,3.1,1.6,6.2,3.2,9.4,4.7,4,3.2,8,6.5,11.8,10,.7.6,2.7,2.4,6.1,5.3,5.9,6.3,8.7,12.2,12.5,19.9,3.9,5,7.8,9.9,12,14.7,14.6,17,14.9,29.4,14.1,51.3-.7,8.8-3.5,15.3-7.4,23.2-3.1,7.2-4.9,12.9-6.1,20.7-2.4,11.5-7.3,21.5-12.6,32-.3.5-1.1,2.2-2.5,5-3.4,6.5-6.3,12.2-11.5,17.4,1.4-11.2,4.8-20.7,9.2-30.9,6.1-14.5,9.9-28.4,11.8-44.1-.5.3-2.1,1-4.7,2.3-.8-4.6-1.5-9.3-2.3-14.1-2.2,2-4.3,4-6.6,6-2.5,2.3-5,4.2-7.5,5.7-.8-.3-3.1-1-7-2.3,5.3-5.5,10-9.8,16.4-14.1.8-2.3,1.5-4.6,2.3-7-1.5-.8-3.1-1.5-4.7-2.3-3.4-6.4-4.7-10.6-4.4-17.9,2.5-6.8,5.4-8.9,11.4-12.6-3.8-10.3-8.7-19.8-13.8-29.5-.3-.5-1.1-2.1-2.4-4.7-5.9-11.2-11.1-20.3-23.6-24.5-2.9-2.8-5.7-5.9-8.6-9.2-1.4-1.7-2.9-3.3-4.4-5-2.2-3-3.3-6.1-3.3-9.2h0Z"/>
        <path class="st18" d="M763.3,615.4h4.7c-3.6,23.6-14.3,44.4-27.9,63.8-8.1,12-13.1,24.6-18.1,38-.9,2.3-1.8,4.6-2.7,6.9-4.9,12.9-9.2,25.9-12.8,39.3-1.1,2.9-3.2,5.2-6.3,6.8,1.2-13.3,4-25.4,7.6-38.2,1.6-5.7,2.8-11.3,4-17.1,2.1-9.9,5.7-18.9,9.6-28.2,2.5-6.5,4.2-12.8,5.7-19.6,4.1-17.3,9.9-33.4,17.5-49.4,1.5.8,3.1,1.5,4.7,2.3v7c2.9-.4,6.1-1.2,9.4-2.3,1.9-3.2,3.5-6.3,4.7-9.4h-.1Z"/>
        <path class="st57" d="M536.4,519.2c-3.3,8-6.8,11.8-14,16.4-1.8.6-3.7,1.2-5.6,1.8-16.3,7.8-26.1,27.7-35.9,42.4-3.7,5.2-7.3,10-11.5,14.8-7.9,9.6-10.7,16-11.6,28.4-.2,2.1-.4,4.2-.5,6.3-.1,1.6-.2,3.2-.4,4.8-5.6-11.3-9.6-19.9-7-32.8,4.5-7.9,10.3-14.4,16.4-21.1,1.9-2.2,3.9-4.3,5.9-6.6,4-4.5,8.1-8.9,12.2-13.4,4-4.4,7.5-8.7,11-13.3,9.2-10.1,26.5-27.7,41.1-27.7h-.1Z"/>
        <path class="st40" d="M522.4,533.3c-2.2,6.7-4,11.1-9.1,16.1-5.2,5.3-8.4,10.4-12.1,16.7-11.5,18.6-26.5,34-42,49.3.9-12.9,6.2-20.3,14.3-29.9,2.4-2.9,4.7-5.8,7.1-8.7,1.2-1.4,2.3-2.8,3.5-4.3,4.3-5.5,8.2-11.3,12.1-17.1,10.1-14.7,18.8-22.1,26.2-22.1Z"/>
        <path class="st59" d="M662.7,465.3c9.5,1,18,2.1,27.2,4.8,11.6,3.1,23.1,2.4,35,2.2,9.9,0,19.3,1,29.1,2.3v2.3c-21.9,7.8-43.2,5.4-65.5,0,.8,3.1,1.5,6.2,2.3,9.4-8.8-1.4-15.3-3.9-22.9-8.4-1.8-1.1-3.7-2.1-5.6-3.2-1.4-.8-2.8-1.6-4.2-2.5,1.5-2.3,3.1-4.6,4.7-7h0Z"/>
        <path class="st71" d="M707.2,554.4c7.5,5.9,13.7,11.3,19.7,18.6,4.8,5.8,8.9,9.6,14.8,14.2,6.1,5,7.5,6.7,10.1,14.5,0,4.4-1.7,8.9-4.8,13.6h-4.7v14.1h-2.3v-6c-.7-19.2-3.5-29.2-16.3-43.3-3.1-3.8-6.1-7.6-9.1-11.4-1.4-1.7-2.8-3.4-4.2-5.3-2.1-2.9-3.1-6-3.1-9.1h-.1Z"/>
        <path class="st30" d="M466.3,669.3c1.5,3.1,3.1,6.2,4.7,9.4,1.5-.8,3.1-1.5,4.7-2.3.3,1.9.6,3.7,1,5.6,3.7,18.8,9.7,33.1,19.3,49.3,1,2,2.1,4,3.1,6.1-.8,1.5-1.5,3.1-2.3,4.7-18.8-22.2-31.6-42.4-30.4-72.7h-.1Z"/>
        <path class="st28" d="M501.4,179.1h4.7c.3.5,1,2.1,2.3,4.7,4.5.9,9.7,1.8,15.6,2.5.9.1,3.8.5,8.7,1.1,34.9,3.7,69.9,4.1,105,4.6,7.1,0,14.1.2,21.2.3.7,0,2.9,0,6.4,0,15.1.3,29.4,2.4,44.2,5.5v7c1.3-.8,2.6-1.6,4-2.5,7-2.9,9.8-2,17.1.1,1.6.4,3.3.8,4.9,1.2,12,3.2,19.9,7.4,27.5,17.5,8.9,15.9,8.1,35.7,8.9,53.4.4,8.1,1.4,13,3.1,14.7,0,2.2.2,4.5.3,6.8,1.1,9.2,5.3,15,10.5,22.6,6.1,9.1,8.7,16.6,7.8,22.7-.7,2.2-1.4,4.3-2.2,6.6h4.7v4.7c3.9.8,7.7,1.5,11.7,2.3,6.5,19.5,9.8,34.5,10.1,45.2,0,1.7,0,3.3,0,5,0,5.3.3,10.6.4,15.9,0,3.6.2,7.2.3,10.7.3,8.8.5,17.6.7,26.3.4-1.5.9-2.9,1.4-4.4.6-1.9,1.2-3.8,1.8-5.8.2-.6.8-2.5,1.8-5.7,2.5-6.6,5.7-10.4,11.4-14.6h4.7c2.5,3.1,4.9,6.3,7,9.4l9.4-9.4c3.3,6.7,3,12.9,3.4,20.4,1.7,29.5,4.4,50.1,8.3,61.7-1.1,6.2-2.4,12.1-4,18.2-.4,1.6-.7,3.2-1.1,4.9-2.1,8.5-4.7,15.6-9.2,23.2-4.1,7.2-5.5,10.6-5.6,18.7-.5,7.9-.8,9.6-6,16.1-1.5,1.1-3,2.2-4.5,3.4-11.1-6.9-18.1-13.2-21-18.8-.3-5.1-.3-9.8,0-14.1h-4.7c0,.5-.1,2.1-.4,4.7,0,.7-.2,2.9-.5,6.5,0,2.1-.3,4.2-.5,6.4-2.6,21.7-7.6,42.5-13.5,63.4-.2.8-.9,3.3-2.1,7.5-4.3,15.5-9.5,30.3-15.8,45.1h-4.7c-2.3-9.4-4.7-18.8-7-28.1-.5-1.5-1-3-1.4-4.5-1.1-6,0-9.4,1.9-15.1.2-.7.8-2.6,1.9-5.8.7-2,1.4-4,2.1-6.1,9.8-29.5,12.3-49.4,7.6-59.7-2.9-4.3-6-8.3-9.7-12-4.4-.5-8.8-.9-13.1-1.3-27.4-4-49.5-20.1-72.2-35.1-8.7-5.1-17.3-7.8-26.9-10.5,1.3,1.5,2.6,3,4,4.6,11.9,14.1,17.6,25.9,17,35.3-1.7,2.6-4.1,4.9-7,7-4.5.5-9.2.7-14.3.6-2.5,0-5.1,0-7.6,0-4.1-.3-6.9-1.3-8.5-2.8-5.1-.6-10.5-.6-16.4,0l-5.4,5.4c-7.6,7.6-13.8,9.2-24.1,11.8-5.4,1.5-10,3.6-15,6.3-2-1.9-4-3.9-6.1-5.9-12.7-9.4-28-6.8-43-5.9,7.3,4.3,12.8,5.2,21.2,5.4,7.3.7,12.8,2.8,16.7,6.3,2.6,9.8,1.3,18.2-.4,28.1,17.2,2.5,34.4,4.4,51.5,0v7c-11,5.7-17.1,7.6-29.6,5.5-31.6-4.6-63.8,2.4-94.4,9.8-6.6,1.1-10.2,1.3-16.3-1.2-3.8-5.2-4.7-9.5-6-15.8,1.7-10,6.3-14.3,13.1-21.5,13.6-14.6,25.3-30.9,29.8-50.6,3.8-11.3,10.9-18.5,19.2-27-24,13.5-40.9,28.3-58,49.9-5.8,7.3-12,14.3-18.2,21.3-6.9,8.1-9,13.4-8.7,24,1.2,9.1,4.5,17.2,7.6,25.8,2.8,8.8,4.5,17.7,6,26.8,5.1,28.9,13,49.7,31.6,72.7-.5-.8-1.8-3.2-3.9-7.3-8.5-16.2-16.1-30.9-18.5-49.3-1.3-8.7-3.5-17-5.8-25.5-.8-3-1.6-5.9-2.4-8.9-1.4-4.9-2.9-9.7-4.4-14.5-.3-3.5-.4-7-.4-10.6v-5.5c.3-3.4,2.1-7.4,5.2-12.1h4.7v5.3c.7,16,3.4,27.5,11.2,41.4,1.8,3.2,3.5,7.2,5.1,11.9h4.7v-4.7c7.8,2.6,9.4,4.5,14.5,10.7,1.4,1.7,2.9,3.4,4.4,5.1,2.9,3.4,5.7,6.7,8.6,10.1,13.4,14.8,29.4,22.3,47.4,30.4-2.1,2.3-4.5,4.7-7,7h-4.7v11.7c1.4.4,2.7.8,4.1,1.1,12.9,3.9,21.2,8.4,31,17.6-.8,1.5-1.5,3.1-2.3,4.7,2.7,0,5.4,0,8.1.2,3.6,0,7.2.3,10.7.4h5.3c13.1.6,21.1,3.5,31.9,11,3.8,7.5,3.3,12.7,2.3,21.1-6.3,11.4-14.8,21.1-25.7,28.1-6.9,1.8-13.8,2.4-20.9,2.9-.7,0-2.7.2-6,.5-5.8.5-11.7.9-17.6,1.2-1.6,0-3.2.2-4.9.3-25.3,1.5-43.2-2.3-62.8-18.8-7.8-7.3-12.8-13.7-16.5-23.7-1.5,1.5-3.1,3.1-4.7,4.7-14.9-12.2-22.1-24.6-29-42.5-4.7-11.9-10.6-23.2-16.5-34.6-3.9-7.7-5.9-13.3-5.9-16.8h-4.7c1,1.5,1.9,3.1,2.9,4.7,1.3,2.1,2.5,4.2,3.8,6.3,1.2,2,2.5,4.1,3.8,6.2,3.3,6,6.2,11.5,8.2,18-.8,2.3-1.5,4.6-2.3,7-1.3-1.6-2.6-3.3-3.9-5-1.7-2.1-3.4-4.3-5.1-6.5-1.7-2.1-3.3-4.2-5.1-6.4-3.1-3.7-6.1-7.2-9.2-10.3,14,23.7,28,47.3,43.5,70.1,5.8,8.5,10.8,17.2,15.5,26.4,7.2,13.5,13.2,20.9,27.9,25.5,5.7,1.6,11.4,3.1,17.2,4.6,18.3,5.4,31.7,15.4,45.6,28.2-5.4,6.1-10.4,8.9-17.8,11.9-6.7,2.7-10.9,5.7-12.6,9.2,1.9-.7,3.8-1.4,5.8-2.1,2.5-.9,5.1-1.8,7.6-2.7s5-1.8,7.6-2.7c6.9-1.8,9.9-2,16.4.5-15,18.2-26.2,27.8-33.7,28.9-8-1-10.7-3.8-16.5-9.3-2-1.9-4.1-3.9-6.2-5.9-2.3-2.3-4.6-4.5-6.9-6.8-1.3-1.2-2.5-2.4-3.8-3.7-8.4-8.2-16.8-16.5-25-24.8-4.3-4.3-8.7-8.7-13.1-13-31.9-31.9-49.1-59.5-51.6-82.8-.7-3.4-1.5-6.8-2.3-10.3-1.7-7.2-2.8-14.2-3.5-21.5-1-10.1-3.1-19.5-5.8-29.2-.7-2.5-1.4-4.9-2.1-7.5-2.9-9.9-6.2-19.6-9.5-29.3-4.8-14.2-9.1-28.4-12.5-43-3.3-13.4-7.2-26.6-11-39.8h-4.7c-.3.7-1.3,2.9-2.9,6.6-4,7.4-6.1,10.7-13.4,14.5-4.7.7-9.3.7-14,0-7.9-6.5-10.6-11.5-12.7-21.4-2.2-9-4.7-16.3-9.4-24.3-7-13-9.4-26.7-12-41.2-2.3-12.4-5.7-23.4-10.4-35.1-3.7-11.1-3-22.3-3.1-33.9,0-.8,0-3.3-.2-7.5v-13.8c1.4-7.7,4.5-10.5,10.5-15.3,7.9-1.6,16.1-1.3,23.4,2.3.5,2.6,1.1,5.2,1.6,7.9,1,2.8,2,5.6,3.1,8.5,4,1.7,8,3.3,12.1,4.7,8.7,4.8,12.4,14.6,15.9,23.5.9,3.9,1.7,7.8,2.3,11.7,0-4.8.1-9.7.1-14.5v-4.7c0-9.5-.4-18.8-1.3-28.2-2.2-24.3-2.6-40.7,10.3-62.1,5.3-5.9,9.1-7.6,16.5-10.1,2.3-3.4,4.7-7.3,7-11.7,1.9-3,4-6,6-8.9,1-1.4,1.9-2.8,2.9-4.3.9-1.1,1.8-2.1,2.8-3.2h4.7c1.5-7,3.1-13.9,4.7-21.1h-4.7v-9.4c-.5-.3-2.1-1-4.7-2.3.2-2.5.4-4.9.6-7.5.3-3.2.5-6.5.7-9.7s.3-3.2.4-4.9c.6-7.6.7-12.9-1.7-20.2.5-.6,1.9-2.4,4.4-5.4,5.5-7.1,6.5-11.6,7.3-20.4l9.4-2.3c.2-1.5.5-2.9.7-4.4,1.1-3.3,3.9-6.6,8.6-9.7.7,0,2.8-.3,6.3-.7,7.6-1.6,10.7-3.3,17-7.6,9-6,15-6.5,25.9-5.7,4.7-.7,9.4-1.4,14-2.3v-4.7l-.4,1ZM630,397.2v4.7c-1,.5-4.1,2.1-9.4,4.7.1.5.5,2.2,1.2,5,1.2,7,1.1,13.1.9,20.2-.2,13.2,2.2,23.7,7.3,35.8h7c2.3.8,4.6,1.5,7,2.3.8-.3,3.1-1,7-2.3,7.2,3.8,14,7.9,20.8,12.2,3.9,2.3,7.9,4.5,11.9,6.6.8-.3,3.1-1,7-2.3-.8-2.3-1.5-4.6-2.3-7,1.4.3,2.8.7,4.2,1,21,4.7,40.8,6.3,61.3-1v-2.3h-21v-4.7c17.5-3,29.6-3.4,44.4,7,4.9,3.7,9.4,7.6,14,11.7-3.7-10-10.5-14.7-18.7-21.1,4.6-.8,9.3-1.5,14-2.3l-4.7-4.7c1.5-2.3,3.1-4.6,4.7-7-.8-.3-3.1-1-7-2.3.3-.8,1-3.1,2.3-7-3.4-16.1-7.4-33.8-21.2-43.8-3.1-1.8-6.1-3.6-9.2-5.4-3.2-3.1-6.3-6.2-9.4-9.4-14.9-7.5-36.4-5.1-52.8-5.1h-7c-21,0-37.2,1.6-52.5,16.9l.2-.4ZM491.1,383c-22.5-.3-38.6,2.8-55.2,18.9-4.2,4.6-7.9,9.1-11.7,14.1-.5.3-2.1,1-4.7,2.3v7h-4.7v4.7c12.3,1.2,19.1.2,30-5.9,18.5-9.3,38.8-6.8,58.9-5.9-.8,1.5-1.5,3.1-2.3,4.7-5,.8-9.9,1.3-14.9,1.8-19.9,2.6-34.9,9.7-50.1,22.6-6.6,4.9-11.1,4.6-19.2,3.8v4.7c3.9.8,7.7,1.5,11.7,2.3-2.6.3-10.4,1-23.4,2.3v2.3c4.6.8,9.3,1.5,14,2.3-2.3,1.5-4.6,3.1-7,4.7.9-.1,3.5-.5,8-1.2,20.1-2.4,35.9-.9,55.1,5.9-1.8.3-7.3,1-16.4,2.3v2.3c18.3.6,41.8,1.3,58.5-7,3.5-.3,6.9-.5,10.4-.7,13.9-1.2,25.9-5.7,38.7-11-.3-4.6-.6-9.1-.9-13.6,0-.9-.2-3.4-.5-7.7-.3-4.3-2.2-8.9-5.6-13.9v-9.4c.7-.4,2.6-1.5,5.8-3.4,3.9-2.5,6.4-5.5,7.5-9.2-2.5-9.3-8-12.3-15.6-17.9v4.7c-1.4-.8-2.9-1.5-4.4-2.3-10.1-3.4-19.7-3.7-30.2-4.1-2.2,0-4.3-.2-6.6-.2-8.4-.3-16.8-.4-25.1-.6v.3ZM304.9,416c-7.6,7.6-6.2,17.3-6.7,27.7-.2,2.1-.3,4.2-.5,6.4-.6,10.5-.9,15.8,4.9,24.8,1.5,1.4,3.1,2.9,4.7,4.4.1-1.5.2-2.9.4-4.5.5-6.6,1.1-13.3,1.7-19.9.2-2.3.4-4.6.5-7,.2-2.2.4-4.4.6-6.7.2-2,.3-4.1.5-6.2.7-3.3,2.5-6.6,5.6-9.7v-7c-3.7-1-7.6-1.8-11.7-2.3h0ZM824.1,469.9c-5.3,8-5.1,9.8-4,18.9.2,2.1.5,4.1.7,6.2.6,3.5,1.7,6.9,3.3,10,.2,6.4.2,12.7,0,19v5.4c0,4.4,0,8.7,0,13.1.8-2.3,1.5-4.6,2.3-7,3.9.8,7.7,1.5,11.7,2.3,10.6-13.4,10.6-25.6,9.4-42.2-2-9.2-4.9-16.6-11.7-23.5-3.1-1.5-7-2.3-11.7-2.3h0ZM335.3,486.4c-8.4,9.8-10.8,17.1-10.3,29.7,1.6,9.2,5.7,16.2,10.3,24.2,4.6-.8,9.3-1.5,14-2.3,1.6-5.7,2.6-11.1,3.4-17,1-6.4,2.1-12.1,3.8-18.3,2.5-9.5,4.4-18.9-.1-28-9.8,0-14.4,5.1-21,11.7h0Z"/>
      </g>
      <g id="nose" inkscape:label="Nose">
        <path class="st52" d="M676.8,540.3c17.4,6.5,24.4,24.5,32,40.1,2.8,6.1,5.4,12.2,7.8,18.5-2,1.5-4,3.1-6,4.7-3.8,4.7-5.8,8.7-6,12,.6,4.6,1.6,9.2,2.6,13.8-1.9-.3-3.9-.7-5.8-1-19.2-3.1-37.9-4.3-57.3-5-2.7,0-5.4-.2-8.2-.3-6.6-.3-13.3-.5-19.9-.7,1.5-.8,3.1-1.5,4.7-2.3v-7c-1.5.8-3,1.5-4.5,2.3-16,5.3-31.1,2.3-46.9-2.3,0-1.4,0-2.8.2-4.3,0-1.9,0-3.8,0-5.7,0-1.9,0-3.7.2-5.6-.5-6.3-1.4-9.9-5.1-14.9-3.5-.8-7.2-1.2-11.2-1.3-9.7-.6-16-1.8-23.8-8.1v-2.3c23.2-1.3,38.4.6,45.5,5.9,2,1.9,4,3.9,6,5.9.5-.3,1.8-1,4-2.2,5.6-2.6,10.9-4.1,17-5.6,8.6-2.5,11.6-3.7,18.1-10.3,3.6-3.6,8.3-5.7,14.2-6.3,5.1.6,8.4,1.7,9.9,3.2,5.1.2,10.2.2,15.3,0h15.1c1.5-10.5,2.3-17.6,2.3-21.1l-.3-.2ZM604.3,587.2v2.3c9,.9,13,.7,20.6-4.6,8.5-5.5,13.7-5.8,23.6-6.5,6.8-.9,11.3-3.5,16.7-7.7v-2.3c-24.3-1.2-41,4.5-60.8,18.8h0Z"/>
        <path class="st77" d="M630,397.2h2.3c.3,2.5.6,5,.9,7.6,1.2,7.3,2.4,11.9,6.1,18.2-.4.4-1.6,1.6-3.5,3.6-4.8,7.9-4.3,15-4,24v4.9c0,4,.2,8,.4,12.1-10.8-13.2-9.5-28.1-9.3-44.4,0-5.7-1-11-2.4-16.5,3.1-1.5,6.2-3.1,9.4-4.7v-4.7h0Z"/>
        <path class="st38" d="M652.8,568.3h12.3c-7.2,7.5-11.4,9.5-21.6,10.1-10.6,1-16.3,4.9-25.1,11-5.3.4-9.9.4-14,0,5-5.3,10.1-9.3,16.2-13.2,1.6-1,3.1-2,4.7-3,9.2-4.9,17.3-5.2,27.6-5h-.1Z"/>
      </g>
      <g id="mouth" inkscape:label="Mouth">
        <path class="st47" d="M679.1,636.5c.8,8.8.6,13.1-4.1,20.7-5.3,5.2-7.6,6.3-14.6,7.5l-2.3,4.7c-1.9,0-3.8,0-5.7,0-4,0-6.8.9-8.3,2.5-5.4.8-10.9,1.2-16.3,1.7-3.1.5-5.5,1.5-7.1,3-16.1,2.4-32.9,3.5-49.1,2.3l-2.3-2.3c-8.7-1.5-16.8-2.3-25.7-2.3-9.5-2.7-17.6-6.1-25.7-11.7-3.2-6.4-2.5-11.8-2.3-18.8,5.4,1.5,10.8,3.1,16.4,4.7v-9.4c7.6,2.7,12.3,5.9,14,9.4l4.7-4.7c3.8.6,7.7,1.4,11.7,2.3h7c.8-1.5,1.5-3.1,2.3-4.7,8.7-.4,15.7,1.2,21,4.7.3.8,1,3.1,2.3,7,.8-2.3,1.5-4.6,2.3-7,8.5-5.7,13.4-5.1,23.4-4.7.3,1.3,1,5.2,2.3,11.7h4.7c1.5-3.9,3.1-7.7,4.7-11.7h18.7c3.9-.7,7.8-1.5,11.7-2.3.3.5,1,2.1,2.3,4.7,1.4-1.2,2.9-2.3,4.4-3.5,3.3-2.3,6.5-3.5,9.6-3.5v-.2Z"/>
        <path class="st61" d="M697.8,655.2c-24.4,29.7-47.7,54.7-87.7,59.3-6.2.5-12.3.8-18.5,1.1-2.1,0-4.2.3-6.4.4-2,0-4,.2-6.1.3-1.8,0-3.6.2-5.5.3-3-.3-6.1-2-9.2-5.1,10.1-4.1,18.6-5.1,29.3-5.2,16.8-.2,29.7-.4,42.7-12.2,1.9-2.5,3.6-6,5.2-10.7-11.3,1.1-22.2,2.6-33.3,5-14.8,2.9-29,1.5-43.9-.3.8-2.3,1.5-4.6,2.3-7,3.1-.3,12.4-1,28.1-2.3v-2.3c1.8,0,3.6-.3,5.5-.4,2.4-.2,4.7-.4,7.2-.6,2.4-.2,4.7-.4,7.2-.6,3.9-.5,6.6-1.6,8.2-3.1,3.4-.5,6.9-.9,10.4-1.2,6.7-.6,11.8-1.8,15.3-3.5,3.3.7,6.5,1.4,9.4,2.3.8-1.5,1.5-3.1,2.3-4.7h9.4c5.6-2.8,10.8-6.1,16.1-9.4,3.3-1.5,7.3-1.5,12,0h0Z"/>
        <path class="st46" d="M641.7,681c0,6.3-1.1,10.7-3.4,13.3-1.5,1.2-2.9,2.3-4.5,3.6-1.4,1.2-2.9,2.4-4.4,3.6-10.3,7.6-22.2,6.1-34.4,6.5-9.2.4-17.4,1.2-26.2,3.9-10.2,2.2-13.8,1.1-22.9-3.7-2.2-1.1-4.4-2.3-6.7-3.4-1.6-.9-3.3-1.8-5-2.7l4.7-2.3v-14.1c13.8-.3,27.2,0,40.9,1.5,21.7,1.9,40.8-6.6,62-6.1h0Z"/>
        <path class="st41" d="M492,652.9c.5.2,1.8.9,4,2,5.6,2.7,11.2,5.2,17,7.5.7.3,2.6,1.1,5.9,2.4,9.3,3.3,17.1,4.5,27,4.5,4.1.6,8.1,1.4,12.1,2.2,2.1.4,4.1.8,6.2,1.2,3.3.9,5.8,2.1,7.3,3.6,5.5.6,11,1,16.5,1.3,3,.2,6,.4,9.1.6,2.3,0,4.7.3,7.1.4v2.3c-2.7,0-5.4.3-8.1.4-3.5.2-7,.4-10.5.6-.6,0-2.4,0-5.3.3-8.9.5-14.2,1.7-15.9,3.4-4.3.2-8.7.2-13,0h-12.7v14.1c-7.4-1.4-11.3-3.4-16.7-8.7l-4-4c-1.3-1.4-2.7-2.7-4-4.2-1.4-1.3-2.7-2.7-4.1-4-8-8-13.5-15.4-18-26h.1Z"/>
        <path class="st43" d="M513.1,545h4.7c-3.1,23.9-15.8,40.8-33.1,56.8-5.7,5.5-6.6,7.6-7,15.6.2,6.1.8,10.9,2.6,16.7,3.1.8,6.2,1.5,9.4,2.3-.5,1.8-1.1,3.6-1.6,5.4-.2,2.1-.5,4.2-.7,6.3,2.3,2.4,4.6,4.7,7,7-.5,3.4-1.2,6.5-2.3,9.4h-4.7c-2.3-3.3-4.7-7-7.2-11.3-1.2-2.1-2.5-4.2-3.7-6.4-7.2-13.4-9.7-28.2-7.8-43.3,4.8-7.4,10.3-12.9,16.7-19,8.8-8.6,14.8-18.8,21-29.3,2.1-3.5,4.4-7,6.7-10.4v.2Z"/>
        <path class="st58" d="M714.2,629.4c-3.2,11.4-9.5,16.3-19,22.6-1.4.9-2.7,1.9-4.1,2.8-9.9,6.6-19.3,11.2-30.7,14.5v-7h9.4c.7-1.5,1.4-3,2.2-4.6,1.7-3.2,3.3-5.6,4.8-7.2.9-5.5,1.6-10.9,2.3-16.4-1.5-.8-3.1-1.5-4.7-2.3,13.3-2.9,26.3-2.6,39.8-2.3h0Z"/>
        <path class="st0" d="M521.5,631.4h36.3c7.8,0,15.6,0,23.5-.2h34.4c6.1,1.1,8.1,3.2,12,7.9-1.6.3-3.2.6-4.9.9-.7.1-2.9.6-6.4,1.3-.7.1-2.8.5-6.3,1.2-3.5.7-7.7,1.9-12.8,3.6-1.1,3.2-1.8,6.3-2.3,9.4,0-1.5-.3-2.9-.4-4.4-1.3-3.3-3.6-5.9-6.9-7.6-7.6-2.4-14.3-3.1-22.2-3.6-2.9-.2-5.8-.4-8.8-.6-1,0-4.1-.2-9.2-.5-1,0-4.1-.3-9.3-.6-7.6-.5-15.1-1-22.7-1.4-.8,1.5-1.5,3.1-2.3,4.7v-4.7c-3.1-.8-6.2-1.5-9.4-2.3,6.7-2.2,10.9-2.7,17.8-2.7v-.4Z"/>
        <path class="st10" d="M601.9,627.1l-2.3,4.7c-8.5,2.8-16.2,2.6-25,2.5h-5.4c-7.6,0-15.1,0-22.7-.2h-21.7c-10.5,0-20.2.8-30.5,2.6,26-17.4,78.6-20.2,107.6-9.4v-.2Z"/>
        <path class="st63" d="M627.2,622.1h24.5c14.1,0,27.6.5,41.5,2.7v2.3c-7.6,1.7-14.9,2.7-22.8,3-2.1,0-4.2.2-6.3.3-2.2,0-4.4.2-6.7.2-4.6.2-9.2.4-13.8.6-.7,0-3,.1-6.9.3-14.7.7-29.4,1.7-44.1,2.7,11.9-10.3,19.2-12,34.6-12h0Z"/>
        <path class="st35" d="M487.3,636.5h25.7c1.5,8.5,3.1,17,4.7,25.8l7,2.3-2.3,4.7c-13.1-6.3-25.6-12.7-37.4-21.1.8-3.9,1.5-7.7,2.3-11.7h0Z"/>
        <path class="st73" d="M515.4,636.5c7,0,13.9,0,20.9,0h5.9c13.1,0,25.7.9,38.7,2.6-1.5.3-3,.5-4.5.8-1.6.5-3.2,1-4.9,1.5-1.9,4-3.5,7.9-4.7,11.7-1-1.2-1.9-2.3-2.9-3.5-2.7-2.3-7.2-3.5-13.4-3.5l-4.7,4.7c-1.4-1.5-2.9-3-4.4-4.6-3.3-3.2-6.5-5.6-9.6-7.2v9.4c-2.2-.5-4.4-1-6.7-1.5-.8-.1-3.2-.4-7.3-.9l-4.7,4.7c.8-4.6,1.5-9.3,2.3-14.1h0Z"/>
        <path class="st65" d="M456.9,610.7c5.7,5.7,5.7,8.3,6.9,16.1,2,12.2,4.8,24,8.1,35.9,1.5,7.1,1.6,13.5,1.4,20.7-14.7-14.8-16.7-39.1-16.7-58.8s.1-9.3.3-13.9h0Z"/>
        <path class="st13" d="M669.7,634.1c.8,2.3,1.5,4.6,2.3,7-1,.5-4.1,2.1-9.4,4.7v-7c-6.8,2.5-11.2,4.2-16.4,9.4-.8-1.5-1.5-3.1-2.3-4.7h-11.7c-1.5,3.1-3.1,6.2-4.7,9.4h-4.7c-.3-1.3-1-5.2-2.3-11.7-3.1-.8-6.2-1.5-9.4-2.3,19.6-2.9,38.6-5.5,58.5-4.7h.1Z"/>
        <path class="st60" d="M697.8,627.1l-9.4,4.7c-.5.3-2.1,1.1-4.7,2.5-4.7,2.2-9,3.5-14,4.6v-4.7c-.5,0-1.8.2-4.1.5-15.8,1.8-31.4,2.1-47.3,1.8,1.5-3.1,3.7-5.2,6.4-6.1,5.7-1,11.1-1.4,16.9-1.7,2.2,0,4.4-.2,6.7-.3s4.6-.2,7-.3c.7,0,3,0,6.9-.3,11.9-.5,23.7-.8,35.6-.7h0Z"/>
      </g>
      <g id="eyebrows" inkscape:label="Eyebrows">
        <g id="right_eyebrow" inkscape:label="Right eyebrow">
          <path class="st55" d="M503,383.2c6.6,0,13.1.2,19.7.4.7,0,2.8,0,6.3.1,12.6.6,21.4,1.9,30.8,11.2.3,4.9.3,9.6,0,14.1-22.4,4.4-44,5.5-66.8,5.8-19.3.5-34.1,4-51.5,12.2-9.7,3.7-16.4,3.6-26.8,3.1v-4.7h4.7v-7c3.8-3.2,7.7-6.3,11.7-9.4,1.4-1.9,2.8-3.8,4.3-5.7,11.7-13.8,22.5-18.3,40.6-19.8,9-.4,17.9-.3,26.9-.3h0Z"/>
          <path class="st27" d="M557.5,385.5c9.1,6.6,14.3,12.6,15.6,17.9-1.1,3.7-3.6,7-7.5,9.8-1.9.9-3.9,1.9-5.8,2.8.3,2.1,1,8.3,2.3,18.8-12.9-2.7-21.9-5.1-26.9-7.2-7.4-2.8-14.4-3.2-22.2-3.8-3.1-.5-6.2-2.4-9.3-5.5-5.5-.7-11.1-1.2-16.7-1.5-3-.2-6-.4-9.1-.5-.7,0-3.1-.1-7-.4v-2.3c1.7,0,3.4-.1,5.1-.2,7.8-.3,15.7-.6,23.5-.8,2.7,0,5.3-.2,8.1-.3,17.4-.6,34.8-1.8,52.2-3.4-1.2-9-3.5-15.3-7-18.8h4.7v-4.7h0Z"/>
        </g>
        <g id="left_eyebrow" inkscape:label="Left eyebrow">
          <path class="st78" d="M674,380.5h21.6c29.1,0,49,5.2,59.6,15.6.6.7,2.5,2.6,5.7,5.9,1.6,1,3.2,2.1,4.8,3.1,5.8,5.1,6.3,8.6,7.4,16.1.4,2.1.7,4.2,1.1,6.4.2,1.6.5,3.2.7,4.9-9.4-1.9-16.4-6.2-24.5-11.1-13.4-6.7-27.1-8.5-41.7-9.6-.6,0-2.4-.1-5.4-.4-5.7-.5-11.3-.9-17-1.4-3.9-.3-7.7-.6-11.6-1-9.4-.8-18.9-1.5-28.3-2.3,1.7-11.4,5.5-15.7,14-23.5,3.8-3.8,8.3-2.7,13.6-2.7Z"/>
          <path class="st24" d="M730.6,413.6c16.7,3.2,29.8,10.2,44.4,18.8.8-1.5,1.5-3.1,2.3-4.7,1.5,6.2,3.1,12.4,4.7,18.8-6.9,1.7-11.8,2.9-18.7,2.3-4.7-3-8.3-6.5-12.4-10.4-11.1-10.2-24.7-11.8-39.1-13.1v-2.3c2.6-.7,5.3-1.4,8-2.1,2.7-.9,5.5-1.7,8.3-2.6.8-1.5,1.5-3.1,2.3-4.7h.2Z"/>
        </g>
      </g>
      <g id="eyes" inkscape:label="Eyes">
        <g id="left_eye" inkscape:label="Left eye">
          <path class="st37" d="M660.4,383.2c-3,3.4-5.9,6.7-8.9,10.1-3.1,4.4-4,8.1-5.1,13.4.5,0,1.8,0,4.1.1,6.2.2,12.4.5,18.7.8,2.2,0,4.3.1,6.5.2.7,0,2.8.1,6.3.3,1.9,0,3.8.1,5.8.2,3.6.5,8.5,2.3,14.7,5.4-7.7,1.5-15.4,3.1-23.4,4.7,3.1,1.5,6.2,3.1,9.4,4.7-1.4,0-2.8.2-4.3.3-14.9,1.2-28.3,4.3-42.5,9.1-.8,4.6-1.5,9.3-2.3,14.1,1.8-1.3,7.3-5.2,16.4-11.7,1.5.8,3.1,1.5,4.7,2.3-3.1,3.1-6.2,6.2-9.4,9.4h18.7v7c21.7,9.4,47.8,16.3,70.6,7.4,10.6-4.1,19.1-4.7,25.5-2,2.3,1.3,4.5,2.6,6.9,4v4.7c2.7,2.7,5.9,5.6,9.4,8.5,1.7,1.5,3.5,3,5.3,4.5,1.4,1.1,2.7,2.3,4.1,3.4-.3.5-1,2.1-2.3,4.7-1.2-1.1-2.4-2.3-3.7-3.4-11.5-10.5-20.4-16.4-26.7-17.7-7.6.7-14.1,2.4-21.3,4.8-19.8,4.8-37.9,3-57.1-3.3-9.1-2.4-15.6-2.2-24.5.8-2.3-.8-4.6-1.5-7-2.3-3.4.7-6.5,1.4-9.4,2.3-6-5.5-9.1-9.8-10.2-17.9-.3-13.1,2.4-22.7,7.9-29-.8-1.2-1.5-2.4-2.3-3.7-3.3-8.2-3.7-13.3-2.3-22.1,7.4-9.5,15.5-16.3,28.1-14.1h-.4Z"/>
          <path class="st20" d="M669.7,423c37-.7,69.8-1.3,98.2,25.8v4.7c-7.3-3.4-13.8-7.5-20.5-12-1.9-1.3-3.7-2.5-5.7-3.8-1.4-1-2.8-1.9-4.3-2.9,6.2,4.6,12.3,9.3,18.7,14.1l-4.7,2.3c-3.9-1.5-7.8-3.1-11.7-4.7-4.7-.9-9.3-1.7-14-2.3.8-2.3,1.5-4.6,2.3-7-3.1-.8-6.2-1.5-9.4-2.3-.8,3.1-1.5,6.2-2.3,9.4-5,.1-9.9.2-14.9.3-.9,0-3.7,0-8.4.2-4.7.1-8.6-1.6-11.8-5.2-.3-1.9-.6-3.9-.9-5.9-.1-.7-.6-2.6-1.4-5.9-3.2-1.8-6.3-3.4-9.4-4.7h.2Z"/>
          <path class="st48" d="M676.8,432.4h4.7c.4,1.5.9,3,1.4,4.6,2.2,3.2,5.7,5.3,10.4,6.2.9,0,3.7.1,8.4.3.9,0,3.7.1,8.4.4,2.1,0,4.3.1,6.5.2.8-3.1,1.5-6.2,2.3-9.4,3.1.8,6.2,1.5,9.4,2.3v4.7c5.4,1.5,10.8,3.1,16.4,4.7v4.7c-15.4,1.5-30.9,3.1-46.8,4.7v7c-11.6-1.2-20.2-3.6-30.4-9.4,2.7-10.5,5.9-17.6,9.4-21.1h-.1Z"/>
          <path class="st8" d="M681.4,425.4v7c-2.3,1.5-4.6,3.1-7,4.7-.3.5-1,2.2-2.1,4.9s-3.7,4.7-7.6,5.9c-1.9.1-3.8.2-5.8.3-1.9.1-3.8.3-5.8.4-1.5,0-2.9.1-4.4.2,1.5-3.1,3.1-6.2,4.7-9.4-1.4,1.2-2.9,2.3-4.4,3.5-3.3,2.3-6.5,3.5-9.6,3.5v-14.1c1.5-.5,2.9-1,4.4-1.5,1.9-.6,3.8-1.3,5.8-1.9,1.9-.6,3.8-1.2,5.8-1.9,10.1-3.5,15.1-3.6,26.1-1.8v.2Z"/>
          <path class="st17" d="M756.3,455.9c-17.9,10.1-31.2,13.7-51.5,9.4-2.3-.8-4.6-1.5-7-2.3v-7c27.5-6.7,47-6.7,58.5,0h0Z"/>
          <path class="st72" d="M728.2,411.3v9.4c-4.1,4.2-9.6,2.7-15.2,2.7h-10.2c-9.8,0-18.9-.8-28.5-2.7,12.6-12.7,37.2-9.9,53.8-9.4h.1Z"/>
          <path class="st45" d="M732.9,432.4c14.4,3.3,24,11.9,35.1,21.1v-4.7l14-2.3c-.8,1.5-1.5,3.1-2.3,4.7,2.3,1.5,4.6,3.1,7,4.7l-4.7,4.7c1.5,1.5,3.1,3.1,4.7,4.7-3.3-.3-6.6-.6-9.9-.9-.6,0-2.5-.2-5.6-.5-5.7-1-9.8-2.8-14.9-5.7v-4.7c-3.9-.8-7.7-1.5-11.7-2.3.8-1.5,1.5-3.1,2.3-4.7h4.7c-1.4-.8-2.7-1.6-4.1-2.5-1.7-1.1-3.5-2.1-5.3-3.2-1.7-1.1-3.5-2.1-5.3-3.2-1.4-.9-2.7-1.8-4.1-2.8v-2.3h0Z"/>
        </g>
        <g id="right_eye" inkscape:label="Right eye">
          <path class="st80" d="M461.6,434.8c2.3.8,4.6,1.5,7,2.3-2.6,1.5-10.4,6.2-23.4,14.1,12.8-1,20-4.2,30.4-11.7h4.7c.8,3.1,1.5,6.2,2.3,9.4,11.6-.8,23.2-1.5,35.1-2.3v-9.4c3.7.5,7.6,1.2,11.7,2.3,1.5,2.3,3.1,4.6,4.7,7,5.7,1.9,11.1,3.4,16.4,4.7-2.3.8-4.6,1.5-7,2.3v4.7h4.7v4.7c-.7.2-2.9.9-6.5,2-.9.3-3.7,1.1-8.4,2.6-.9.3-3.7,1.1-8.4,2.6s-8.6,3-11.8,4.6c-3.6.2-7.2.2-10.8.1h-10.2c3.8-7.6,11.1-8.7,18.7-11.7-9.3-.8-18.5-1.5-28.1-2.3-.8-3.1-1.5-6.2-2.3-9.4-10.1,1.2-17.2,2.8-21.2,4.8-6.3,3-11.7,2.3-18.6,2.2-3.7.8-6.9,1.6-9.4,2.3v-2.3c-1.5-.3-6.2-1-14-2.3.8-1.5,1.5-3.1,2.3-4.7.9.1,3.5.5,7.9,1,12.4.2,19.7-6.5,29-14.1,1.7-1.1,3.4-2.2,5.1-3.4h0Z"/>
          <path class="st56" d="M521.4,429.5c5.2,2.3,10.1,4.7,15,7.6,1.4.8,2.9,1.7,4.4,2.6,2.6,1.6,5.8,3.9,9.6,6.8v4.7c-5.3-.4-10.7-1.2-16.4-2.3-1.7-3.1-3.3-6.3-4.7-9.4-4.1-1.2-8-2-11.7-2.3v9.4c-7.7,2.6-13.4,2.6-21.5,2.5-.9,0-3.4,0-7.7,0h-5.9c-.8-3.1-1.5-6.2-2.3-9.4-1.1.8-2.3,1.6-3.4,2.5-11.6,7.9-20,10.8-34,11.6,6.8-7.5,12.9-11.6,22.2-15.5,8.5-3.7,14.4-6.5,17.5-8.2,11.7-5.1,26.8-3.8,38.8-.3v-.3Z"/>
          <path class="st4" d="M480.3,451.2c.8,2.3,1.5,4.6,2.3,7,11.6.8,23.2,1.5,35.1,2.3-16.3,10.9-29.7,10.9-49.1,9.4-6.9-1.7-12.3-3.9-18.7-7v-4.7c10.6-6.3,18.1-7.8,30.4-7h0Z"/>
          <path class="st23" d="M548.1,439.4c2.9,3.5,5.2,6.6,7,9.4-1.5,1.5-3.1,3.1-4.7,4.7-.3-.8-1-3.1-2.3-7-3.7-2.5-7.9-4.9-12.6-7.3-2.3-1.2-4.6-2.4-6.9-3.7-14.5-7.1-31.2-8.1-46.9-3.9-4.4,1.7-8.8,3.6-13.1,5.5-1.9.2-3.9.5-5.8.7-9.7,2.7-16.8,9.4-24.6,15.7l-4.7-2.3c32.6-30.6,76.9-38.2,114.6-11.7h0Z"/>
          <path class="st51" d="M449.9,458.2v4.7c.6.1,2.4.5,5.4,1,4.2.9,8.6,2.1,13.3,3.7,6.6.5,13.3.9,19.9,1.2,1.9.4,3.9.8,5.8,1.1,1.5,2.3,3.1,4.6,4.7,7-13.4,1.9-26.2,2.6-39.8,2.3v-2.3c1.8-.3,7.3-1,16.4-2.3-22.2-7.8-40.1-8-63.1-4.7,2.3-1.5,4.6-3.1,7-4.7-1.5-.3-6.2-1-14-2.3v-2.3c2.2-.1,4.3-.3,6.5-.4.9,0,3.7-.3,8.4-.6,2.8-.2,5.5-.4,8.4-.6,11.7-1.2,18.7-1.5,21.1-.8h0Z"/>
          <path class="st14" d="M562.2,432.4h2.3c.8,9.3,1.5,18.6,2.3,28.1-18.1,7.1-32.1,10.3-42.1,9.4,7-7.1,13.6-6.1,23.4-7v-4.7h-4.7v-4.7h9.4c.8-1.5,1.5-3.1,2.3-4.7l2.3-2.3c1.6-4.7,3.2-9.4,4.7-14.1h0Z"/>
          <path class="st34" d="M513.1,423c12.7-.7,21.9,1.3,33.8,5.9,1.5.6,3,1.1,4.5,1.7,3.6,1.4,7.2,2.8,10.8,4.2-.8,6.2-1.5,12.4-2.3,18.8-.7-.7-3-2.8-6.9-6.3-12-10.4-25.8-17.1-39.9-24.2h0Z"/>
        </g>
      </g>
      <g id="ears" inkscape:label="Ears">
        <g id="right_ear" inkscape:label="Right ear">
          <path class="st54" d="M868.5,404.3c7.3,5.5,9.2,8.7,11.3,17.8.4,3.2.7,6.4,1,9.7.2,1.7.4,3.4.5,5.1.5,4.8.9,9.6,1.2,14.4.2,2.1.4,4.2.6,6.3.8,14.3-4.2,25.4-10,38.2-.8,2.3-1.5,4.6-2.3,7-.8.3-3.1,1-7,2.3-3.3-24.2-5.7-48.3-7-72.7-3.1,0-6,1.2-8.5,3.5-.3.4-1.4,1.6-3.2,3.5-2.7-4.1-5-8.8-7-14.1,2.7-8.7,5.5-12.9,12.6-18.5,6.8-2.9,10.5-3.9,17.8-2.6h0Z"/>
          <path class="st32" d="M824.1,469.9c6,.8,10.6,1.6,15.6,5,9.4,13.5,9.3,30.8,7.7,46.6-1.9,5.7-4.3,10.4-7,14.1-3.2,1.5-6.3,2.2-9.4,2.3-1.5-.8-3.1-1.5-4.7-2.3-.8,2.3-1.5,4.6-2.3,7,0-.9,0-3.4.2-7.7,0-3.4,0-6.8,0-10.2,0-1.7,0-3.4,0-5.1,0-10.6-1.3-18.6-5.1-28.6-.8-9.7-.8-12.8,4.7-21.1h.1Z"/>
          <path class="st2" d="M812.4,561.4h4.7c.5,2.5,1.1,4.9,1.6,7.5,2.6,9.4,7.5,14.3,14.8,20.7l4.7,4.7c-1.5,1.5-4.5,2.6-8.8,3.2-5.1-.6-9.9-2.4-14.5-5.3-6.9-10.5-4.8-18.8-2.5-30.8h0Z"/>
        </g>
        <g id="left_ear" inkscape:label="Left ear">
          <path class="st70" d="M356.4,474.6c4.3,8.6,1.4,18.9,0,28.1-.8,2.4-1.6,4.8-2.5,7.3-2.9,8.9-2.5,16.2-2.2,25.5-6.2,3.4-9.1,4.7-16.4,4.7-7.6-13.1-13.3-24.6-9.4-39.9,6.9-11.8,15.7-25.8,30.4-25.8h.1Z"/>
          <path class="st66" d="M304.9,416c4.1.6,8,1.4,11.7,2.3-1.4,6.1-3,10-4.7,11.7-.5,3.7-.9,7.3-1.3,11-.2,2.2-.4,4.4-.6,6.7-.2,2.3-.4,4.7-.6,7.1,0,.8-.3,3.2-.7,7.1-.5,5.8-1,11.6-1.5,17.4-5.6-5.2-9.1-9.3-10-17,0-6.2.4-12.4.9-18.6.1-2.1.2-4.3.4-6.5.7-10.5,2.8-17.6,6.4-21.2h0Z"/>
        </g>
      </g>
      <g id="hair" inkscape:label="Hair">
        <path class="st12" d="M591.7,89.4c15.2,0,29.9,1.1,44.9,3.7,1.6.3,3.3.5,5,.8,3.1.6,7,1.6,11.8,3.1,1.5,2.3,3.1,4.6,4.7,7-.8,2.3-1.5,4.6-2.3,7-5.4-.8-10.8-1.5-16.4-2.3,1.5,5.4,3.1,10.8,4.7,16.4h18.7c.7-1.5,3.1-6.2,7-14.1h-9.4v-7c16.2,1.1,29.7,7.6,44.4,14.1,3.3,1.4,6.6,2.8,9.9,4.3,2.1.9,4.2,1.8,6.4,2.8v4.7c-4.6.8-9.3,1.5-14,2.3,1.1,1.5,2.3,2.9,3.5,4.4,2.3,3.3,3.5,6.6,3.5,9.7h-9.4c-.3.8-1,3.1-2.3,7-3.9-.8-7.7-1.5-11.7-2.3.5,1.5,2.1,6.2,4.7,14.1h4.7c.8,1.5,1.5,3.1,2.3,4.7h9.4c-1.4,7.4-3,12.9-4.7,16.4-5.4-.8-10.8-1.5-16.4-2.3v-9.4c-7.6,3.8-8.7,11.2-11.7,18.8-13.8.1-27.5.2-41.3.3h-14c-25.1.2-50-.1-75-2.4-2.1-.2-4.1-.4-6.2-.6-1.9-.2-3.8-.4-5.8-.6-1.7-.2-3.3-.3-5-.5-5.3-1.1-9.4-3-14.1-5.7,1.1-3.8,2.6-7.7,4.7-11.7,4.1-1.3,8-2,11.7-2.3,0-1.4.2-2.9.4-4.4.2-1.9.4-3.8.5-5.7.2-1.9.3-3.8.5-5.7.7-3.5,2.6-7.6,5.7-12.3h4.7v-4.7c3.9.8,7.7,1.5,11.7,2.3-.8-3.1-1.5-6.2-2.3-9.4,3.1.8,6.2,1.5,9.4,2.3-.8-1.2-1.6-2.5-2.5-3.8-2.9-7.3-1.6-12.1,0-19.7-5.5,5.3-9.8,10-14,16.4h-4.7v-7h-4.7c-.8,3.1-1.5,6.2-2.3,9.4h-7v-4.7c-3.9,1.5-7.7,3.1-11.7,4.7-.3-1.3-1-5.2-2.3-11.7.7-.5,2.9-1.8,6.4-3.9,5.1-3.6,9.1-7.5,12-11.7,7.3-8,13.1-7.1,23.7-7.8,6.4-6.5,25.5-2.9,34.2-2.9h-.1ZM674.4,132.2c-2.2,8.7-2.2,14.8,0,23.5,1,.3,4.1,1,9.4,2.3,1.5-3.9,3.1-7.7,4.7-11.7,3.9.8,7.7,1.5,11.7,2.3.8-2.3,1.5-4.6,2.3-7-4-4.8-6.2-6.8-12.3-8.2-1.9-.1-3.7-.3-5.7-.4-1.9-.2-3.8-.3-5.7-.5-.5,0-1.9-.1-4.3-.3h-.1Z"/>
        <path class="st75" d="M528.4,96.8c2.6,0,5.3,0,8,0-4.4,8.3-8.3,13.8-16.4,18.8h-4.7c.3,1,1,4.1,2.3,9.4,1.3-.3,5.2-1,11.7-2.3v4.7c2.3-.8,4.6-1.5,7-2.3.8-2.3,1.5-4.6,2.3-7h4.7v7c4-3.9,7.4-7.6,10.7-12.2,1.1-1.4,2.2-2.8,3.4-4.3h4.7c0,2.9-.2,5.8-.3,8.8,0,7.7.6,12.8,5,19.4-3.1-.8-6.2-1.5-9.4-2.3v4.7c-3.9-.8-7.7-1.5-11.7-2.3.3,1,1,4.1,2.3,9.4-.8-.3-3.1-1-7-2.3-2.3,8.5-4.6,17-7,25.8-3.1.8-6.2,1.5-9.4,2.3-2.7,4-5.1,7.9-7,11.7,1.5.8,3.1,1.5,4.7,2.3h-14c-.8-2.3-1.5-4.6-2.3-7h-4.7v4.7c-3.2.8-6.4,1.5-9.7,2.2-.7.1-2.6.6-5.9,1.3s-7.4,1.4-12.5,1.9c-8.8,2-15.4,6-23,10.6-4.9,2.6-9,3.9-14.4,5-.5.3-2.1,1-4.7,2.3-.8,2.3-1.5,4.6-2.3,7-3.2,1.1-6.3,1.8-9.4,2.3.2,2,.4,4.1.7,6.2-.9,10.2-4.5,14-11.2,21.7-.7.7-2.6,3-5.9,6.9-1.5,1.7-3,3.4-4.6,5.1-3.1-1.5-6.2-3.1-9.4-4.7-.3.5-1,2.1-2.3,4.7-1.1-3.5-1.8-7.4-2.3-11.7,2.3-3.6,4.6-6.7,7-9.4h-4.7v-7h-7c2.7-6.1,5.9-10,9.4-11.7-1.5-.8-3.1-1.5-4.7-2.3v-9.4c-6.5,3.3-7,7.4-9.4,14.1h-4.7c0-20,13.9-32.5,27.2-46.2,1.8-1.8,3.7-3.6,5.6-5.4,2.3-2.9,4.6-5.7,6.9-8.6,6.3-7.6,11.6-10,21.2-12.5.8-1.5,1.5-3.1,2.3-4.7,1.7-.6,3.5-1.2,5.3-1.9,4.3-1.9,8.4-4.8,12.3-8.7,5.8-5.9,9.8-8,17.5-10.6.8-.8,1.5-1.5,2.3-2.3,2.6-.2,5.2-.5,7.9-.7,5.7-1.1,9.6-3.1,11.8-6.2,4.7-6.1,8.3-6.9,15.7-8.8,14.3-3.7,21.6-5.6,22.1-5.6h0Z"/>
        <path class="st62" d="M730.6,176.7h9.4v14.1c3.9-1.5,7.7-3.1,11.7-4.7v4.7h9.4c.6,1.7,1.3,3.5,1.9,5.3,1.9,4.3,3.9,7.9,6.2,10.6,5.6,8,7.8,17.1,10.7,26.4.9,2.8,1.8,5.5,2.8,8.4.6,1.9,1.2,3.8,1.9,5.7l9.4-2.3v-11.7h4.7c.3-.8,1-3.1,2.3-7h4.7c.3,1.3,1,5.2,2.3,11.7h7c1.5,3.9,3.1,7.7,4.7,11.7-4.6-1.5-9.3-3.1-14-4.7,2.1,5.5,4.2,10.9,7,16.1,2.6,5.5,3.9,10.6,5.2,16.6.5,2.2,1,4.4,1.5,6.7.5,2.3,1,4.6,1.5,7,1,4.5,2,9.1,3,13.6.1.7.6,2.9,1.4,6.6,1.3,5.5,2.6,11,4.1,16.5,3.9,16.5,3.6,32.4-2.7,48.3-3,4-6.2,7.9-9.4,11.7-.5-2.2-1.1-4.3-1.6-6.5-.8-2.8-1.5-5.6-2.3-8.5-.7-2.8-1.4-5.5-2.2-8.4-2.1-4.7-5.3-8.2-9.4-10.4-.6-.1-2.4-.6-5.5-1.4v-4.7h-4.7c.3-2.2.7-4.4,1-6.6,0-11.9-7.2-19.9-13.6-29.4-4.8-8-5.7-13.5-6.1-22.7-.3-.3-1-1-2.3-2.3-.4-3.8-.7-7.6-.9-11.4-.2-2.4-.3-4.7-.5-7.1-.3-4.9-.6-9.9-.9-14.9-1.2-16.9-3.6-28.8-15.9-41.2-3.4-1.9-7.8-3.6-13.3-5.1-7.6-2.2-11.7-4.2-17.5-9.4,3.1-1.5,6.2-3.1,9.4-4.7-1.5-3.9-3.1-7.7-4.7-11.7l4.7-4.7-.4-.2Z"/>
        <path class="st21" d="M405.5,244.8c2.3,1.5,4.6,3.1,7,4.7-.3,4.6-.7,9.1-1,13.6-.2,2.5-.4,5.1-.6,7.7-.5,4.5-1.5,9.2-3.1,13.9,2.3.8,4.6,1.5,7,2.3v4.7h-4.7c-.2,1.7-.4,3.5-.6,5.3-2.1,7.8-5,10.8-11.1,15.8-2.3.8-4.6,1.5-7,2.3-6.6,7.8-9.7,13.6-10.1,23.6-1,15.7-10.2,28.9-18,42.1h-2.3v-16.4h-4.7c.2-1.8.3-3.6.5-5.5.2-2.3.4-4.7.7-7.1,0-.7.3-3.1.7-7.1.4-4,.6-7.6.5-10.8h-4.7c-.5,1.3-2.1,5.2-4.7,11.7-4.6-.8-9.3-1.5-14-2.3v-11.7h9.4v-4.7c2.1,0,4.2.2,6.4.3,5.1-1.7,8.6-4.2,10.5-7.3,4.1-9.8,6.7-18.7,7.2-29.4.9-14,9.8-23.3,18-34,.8-1.5,1.5-3.1,2.3-4.7,3.1.8,6.2,1.5,9.4,2.3,2.3-3.1,4.6-6.2,7-9.4h0Z"/>
        <path class="st22" d="M379.8,204.9h4.7v9.4c2.3.8,4.6,1.5,7,2.3-3.9,3.9-7.7,7.7-11.7,11.7h7v7h4.7c-.8,1.2-1.5,2.4-2.3,3.7-1.5,3.8-2.1,8.2-1.8,13.3-.6,9.5-1.6,10.9-7.5,17.9-7.1,8.6-8.3,14.2-8.9,25.2-1.1,10.2-4.7,20.2-10,29-3.1,2.1-6.2,3.7-9.4,4.7-2.3-.8-4.6-1.5-7-2.3v4.7h-9.4c.1-1,.5-3.9,1-8.8.7-6.3,1.3-12.6,1.7-19,1.1-20,4.7-39.7,16-56.6,1.3-5.9,2.2-11.9,3.1-17.9,1.7-6.2,3.4-8.8,8.6-12.6,3.4.5,6.5,1.2,9.4,2.3,1.5-4.6,3.1-9.3,4.7-14.1h0Z"/>
        <path class="st1" d="M354,333.9h4.7c2.9,5.8,2.2,8.8,1.4,15.2-.2,1.9-.4,3.7-.6,5.7-.5,3.3-1.6,6.5-3.2,9.6h4.7c3,36.8,5.5,73.3,4.7,110.2-3.4-6.5-5.9-12.8-8-19.8-3.5-10.5-7-17.9-10.7-22.4-4.6-1.7-9.3-3.3-14-4.7-5-7.6-5.1-10-4.7-18.8,2.3.8,4.6,1.5,7,2.3,0-.9-.2-3.8-.5-8.6-.2-3.8-.4-7.6-.7-11.4-.1-1.9-.2-3.7-.3-5.6-1.3-21.5-.8-35.7,1.5-42.5h14c1.5-3.1,3.1-6.2,4.7-9.4v.2Z"/>
        <path class="st39" d="M793.7,202.5c8.1,2.9,14.9,5.6,21,11.7,1.7,5.4,3.3,10.9,4.7,16.4,1.5,1.5,3.1,3.1,4.7,4.7,6.3,13,10.2,25.5,11.7,39.9l2.3,2.3c.5,4,.9,8,1.2,12,.6,7.4,1.3,14.5,2.5,21.9,1.5,12.2,1.2,24.3,1,36.5h-11.7c-.3-1.5-.6-3-.9-4.6-4.7-23.1-9.8-46.1-15.6-69-.3-.9-1-3.7-2.1-8.4s-3.2-8.8-6.3-12.4c-1-1.4-2-2.7-3.1-4.2.8-2.3,1.5-4.6,2.3-7,4.7,2.3,9.4,4.7,14,7-1.5-3.9-3.1-7.7-4.7-11.7h-7c-1.9-4.6-3.8-9.1-5.7-13.6-.3-.9-1.4-3.4-3.2-7.7-1.8-4.6-3.6-9.2-5.1-13.9h0Z"/>
        <path class="st11" d="M732.5,133.8c6.3,4.4,10.3,9.3,12.1,14.8,1.5.3,6.2,1,14,2.3v4.7c-.7.2-2.9.8-6.4,1.9-6.9,2.6-11.4,5.1-17,9.8.8,3.1,1.5,6.2,2.3,9.4-1,.5-4.1,2.1-9.4,4.7.8,3.9,1.5,7.7,2.3,11.7-8.8,7.8-15.8,11.7-21,11.7v-7c-2.9,0-5.7.2-8.6.3-8.3,0-14.3-1.2-21.8-5,2.3-6.2,4.6-12.4,7-18.8h4.7v9.4c5.4.8,10.8,1.5,16.4,2.3,1.5-3.9,3.1-7.7,4.7-11.7,4.6,1.5,9.3,3.1,14,4.7-1.2-1.3-2.3-2.6-3.5-4-4.1-6.3-4.1-9.8-3.5-17.1-1.8-.3-3.7-.6-5.6-.9-4.1-1-7.7-3.1-10.8-6.2.8-1.5,1.5-3.1,2.3-4.7h9.4c-.4-.5-1.6-1.9-3.5-4.4-1.9-2.5-3.1-5.7-3.5-9.7,10.6-6,15.5-4.7,25.3,1.6v.2Z"/>
        <path class="st26" d="M831.1,348h9.4c5.1,7.7,5.5,11,6.2,20,.2,2.5.4,5,.6,7.6.2,2.6.4,5.3.5,8,.2,2.7.4,5.3.6,8,.5,6.5,1,13.1,1.4,19.7h-4.7c-.8,2.3-1.5,4.6-2.3,7v-7c-6.9,2.6-9.1,4.2-12.9,10.8-1.2,1.9-2.3,3.7-3.5,5.6h-9.4c-.3-6.4-.4-12.7-.6-19,0-1.8-.2-3.6-.2-5.4-.2-12.9,2.4-18.9,10.2-29.5,1.3-4.7,2.2-9.3,2.9-13.8.4-2.3.7-4.5,1.1-6.8.2-1.7.5-3.4.7-5.2h0Z"/>
        <path class="st9" d="M763.7,157.7c1,1.1,1.9,2.2,2.9,3.3,4.8,5.2,10.1,9.7,15.4,14.3,9.4,8.4,16.8,16.5,23.4,27.3v4.7c-3.9-1.5-7.7-3.1-11.7-4.7,1.2,2.2,2.3,4.4,3.5,6.6,2.3,5,3.5,9.8,3.5,14.5-3.1.8-6.2,1.5-9.4,2.3-6.3-7.1-9.4-14.1-9.4-21.1-2.3-.8-4.6-1.5-7-2.3-.2-2.6-.4-5.2-.6-7.9-1.2-5.7-3.1-9.5-5.8-11.4-6-2.1-10.9-2.3-17.1-2.4-4.1-.3-8-.9-11.6-1.8-3.3-4.8-5.7-9.5-7-14.1,14.3-10.3,24.5-12.8,30.8-7.3h0Z"/>
        <path class="st79" d="M739.9,179.1c3.7-.2,7.4-.3,11.1-.4.7,0,2.7,0,6.2-.2,7.2.8,10.3,2.6,15.4,7.7,1.2,5.8,2,11.3,2.3,16.4,3.1.8,6.2,1.5,9.4,2.3,0,.7.2,3,.6,6.8,1.2,4.9,3.3,8.4,6.3,10.6,3.2,1,6.4,1.5,9.5,1.5l2.3-4.7c-1.2,5.1-2.3,9.4-4.7,14.1h-4.7c.8,3.9,1.5,7.7,2.3,11.7-1.3.3-5.2,1-11.7,2.3-6.1-11.6-10.9-22.6-14.5-35.2-1.3-3.1-3.1-5.8-5.6-8.2-2.5-2.4-3.6-6.7-3.3-12.9h-9.4v-4.7c-3.9,1.5-7.7,3.1-11.7,4.7v-11.7h.2Z"/>
        <path class="st42" d="M410.2,291.7l2.3,4.7h4.7c-1.1,7.3-2.3,14.1-4.7,21.1-2.3,1.5-4.6,3.1-7,4.7-2.5,3.8-4.8,7.8-7,11.7-3,5.2-6.1,9.9-9.4,14.1h-9.4c-1.2-13.9,0-20.9,8.4-32,2.2-2.1,5.6-4,10.3-5.5,6.8-5.8,10.4-9.9,11.7-18.8h.1Z"/>
        <path class="st64" d="M679,132.1c10.3.9,17.4,3.3,21.3,7.2.7,1.5,1.4,3,2.2,4.6-.8,1.5-1.5,3.1-2.3,4.7-3.9-.8-7.7-1.5-11.7-2.3-1.5,3.9-3.1,7.7-4.7,11.7-3.1-.8-6.2-1.5-9.4-2.3-.5-3.5-.9-6.9-1.3-10.4-.3-1.9-.5-3.9-.7-5.8,0-1.6-.2-3.2-.3-4.9,1.5-1.5,3.8-2.3,6.9-2.4h0Z"/>
        <path class="st44" d="M658.1,101.7c2.3.8,4.6,1.5,7,2.3h-4.7v7h9.4c-1.4,6.9-2.9,10.3-7,16.4-8.4-.1-14.6-.9-18.7-2.3-4-5.4-5.1-9.9-7-16.4,6.1-2.2,8.5-2.7,14.6,0,1.4.8,2.7,1.6,4.1,2.5l2.3-9.4h0Z"/>
        <path class="st33" d="M690.8,150.9c13.6,1.6,23,3.9,28.1,7,1.9,4.6,3.5,9.3,4.7,14.1l2.3,7c-3.9-.8-7.7-1.5-11.7-2.3-.8-2.3-1.5-4.6-2.3-7-3.1.8-6.2,1.5-9.4,2.3-.8-2.3-1.5-4.6-2.3-7h-4.7c-1.5-4.6-3.1-9.3-4.7-14.1h0Z"/>
        <path class="st81" d="M835.8,411.3h7c-.5,9.8-2.5,14.8-9.1,21.7-8.8,9.5-11.5,19.8-14.3,32.3h-2.3v-37.5c3.9-1.5,7.7-3.1,11.7-4.7,2.4-3.9,4.7-7.8,7-11.7h0Z"/>
      </g>
      <g id="neck" inkscape:label="Neck">
        <path class="st50" d="M739.9,753.8c0,11.7-8.7,17.6-16.4,25.8-.3.4-1.4,1.5-3.2,3.4-36.4,39-81,67.1-125.9,95.3-2.1,1.4-4.3,2.7-6.4,4.1-2,1.2-4,2.5-6.1,3.8-.6.4-2.4,1.5-5.4,3.4-4.8,2.6-9,4-14.4,5,1.8-1.8,3.7-3.6,5.6-5.4,4.1-4.2,7.7-8.6,10.8-13.3-.5.1-1.8.4-4.1.9-10.3,2.3-20.5,4.5-31,6.1,2.4-6.6,3.9-9,10.2-12.4,2.1-.8,4.2-1.5,6.4-2.3s4.3-1.6,6.5-2.4c1.6-.6,3.3-1.1,5-1.7-7.5-8.3-14.9-14-24.5-19.7-13.3-8.4-25.9-18-38.7-27.2.8-1.5,1.5-3.1,2.3-4.7,1.4,1.1,2.8,2.2,4.2,3.4,27.7,20.9,53.6,21.4,87,20.1.8,0,3.3,0,7.4-.2,28.1-1.6,50.9-11.8,72.1-30.3.5-.8,2.1-3.1,4.7-7,2.8-1.2,5.5-2.3,8.3-3.5,14.1-6.5,22.4-19.4,31.4-31.7.5.3,2.1,1,4.7,2.3,3.1-3.9,6.2-7.7,9.4-11.7h.1Z"/>
      </g>
    </g>
    <g id="clothing-details" inkscape:label="Clothing details">
      <g id="tie">
        <path class="st68" d="M716.5,1103.3c-4.2,9-5.1,15.9-4.7,25.8,12.2,2,23.8,2.7,36.1,2.5h5.2c4.2,0,8.3,0,12.5,0,2.8-9.1,4.7-16.2,4.7-25.8-18-1.6-35.7-2.7-53.8-2.3h0Z"/>
        <path class="st19" d="M541.1,908.6v4.7c1.7-.2,3.4-.4,5.1-.6,14.1,1.3,22.5,14.4,31.2,24.5,2.3,2.8,4.2,5.8,5.7,8.9l-2.3,4.7c.2,4.9.4,9.8.6,14.7.7,16.5-.7,27.6-4.2,33.3-4.1,3.4-8.2,5.8-12.8,8.3-.3.5-1,2.1-2.3,4.7h-4.7v4.7c-1.8.7-3.7,1.4-5.6,2.1-4.1,1.7-7.7,4.2-10.8,7.3-.7,3.1-1.1,6.3-1.4,9.7-.1,1-.4,4-.9,9.1h7c.5-1.6,1.1-3.3,1.6-5,6.8-14.9,16.6-22.9,30.8-30.4,11.6-6.3,22.5-12.9,33-21,2.4,1.9,4.7,4.3,7,7,0,3.1-.8,6.3-2.3,9.4-3.2,2.2-6.8,4.4-10.8,6.5-14.9,8.4-27,19.8-33.6,35.8-.3,4.1-.5,8.5-.5,13.2v7.6c0,2.6,0,5.2,0,7.9v8c0,6.5,0,13,.2,19.6h-4.7c-.2,12.8.3,24.9,2,37.6,2.5,18.8,3.7,33.8-4.3,51.5-1.4,3.4-2.7,6.8-4.1,10.3-.3.7-1.1,2.6-2.4,5.9-6.1,15.5-11.3,31.4-16.8,47.1-2.7,7.8-5.4,15.5-8.1,23.2-1.9,5.5-3.8,11-5.8,16.5-.9,2.6-1.8,5.3-2.8,8-.8,2.5-1.7,4.9-2.6,7.5-.8,2.2-1.5,4.4-2.3,6.6-1.9,6-3.2,16.5-4.3,22.6-2.3-.8-4.6-1.5-7-2.3v4.7h-4.7v7.1c.1,0-49,0-49,0-1.5-3.1-3.2-8.6-4.8-11.8-3.7.5-7.6,1.2-11.7,2.3-1.5,2.3-3.1,6.2-4.7,8.6-3.1.5-6.5.8-10.2.7h-6c-2.1,0-4.2,0-6.3-.2h-6.4c-5.2,0-10.4-1.8-15.6-2-.8-2.3-1.5-4.6-2.3-7-1.5-.8-3.1-1.5-4.7-2.3-.3,1-1,4.1-2.3,9.4v-79.8h2.3v16.4h11.7v-14.1c-2.3-.8-4.6-1.5-7-2.3-1.4-21,5.1-41.3,11.7-61,1.4-4.6,2.7-9.2,4-13.9,5.5-19.3,11.8-38,19.4-56.5.6-1.5,1.2-3,1.8-4.5,10.1-25.6,22.5-46.5,41-67.2,14.1-16.9,16.2-31.7,17.5-53,.4-6,1.4-11.3,2.9-16-2.3-.8-4.6-1.5-7-2.3,2.3-.8,4.6-1.5,7-2.3.4-11,0-18.7-3.6-29-.9-3.5-1.2-7.1-1-10.8,12.3-20.1,36.3-42.2,60.8-42.2l.3-.2ZM403.1,1302.6c-.5,3.9-.5,7.8,0,11.7,3.1,3.1,6.6,4.9,10.5,5.3,3.9.4,7.4-1.4,10.5-5.3.4-3.9.4-7.8,0-11.7-1.5-1.5-3.1-3.1-4.7-4.7-6.3,0-11.7,1.6-16.4,4.7h.1Z"/>
        <path class="st25" d="M618.3,997.7c3.2,3.8,6.3,7.8,9.4,11.7,1.5,1.5,3,3.1,4.5,4.7,3,8.5,1.9,10.2-1.5,18.2-2.2,4.6-4.5,9.1-6.8,13.7-2.4,5-4.8,10-7.2,15.1-1.3,2.6-2.5,5.3-3.8,8-6.6,14.3-12.5,28.9-18.3,43.5-1.1,2.8-2.2,5.6-3.4,8.5-2.6,6.5-5.2,13.1-7.8,19.7-4.9-4.9-6.2-7.7-8.3-14.2-.6-1.7-1.2-3.4-1.8-5.1-4.1-16.7-4.5-34.1-4.8-51.2,0-2-.2-4-.3-6-.3-18.1,6-28.7,18.1-41.8,9.5-8.2,18.2-14.9,29.8-20.1.8-1.5,1.5-3.1,2.3-4.7h-.1Z"/>
        <path class="st7" d="M580.9,946.1c12,10.9,21.9,23.8,30.4,37.5v7c-5,3.7-9.8,6.9-15.1,10.1-3,1.9-6,3.8-9,5.7-5,3.1-10.1,6.1-15.1,9.2-11.3,7-17.7,13.4-23.8,25.4-.8,1.2-1.7,2.4-2.5,3.6h-7c-.7-11.4.6-19.6,4.1-24.6,3.5-2.3,8.4-3.5,14.6-3.5v-4.7h4.7l2.3-7c2.3-1.6,4.7-3.3,7.1-4.9,4.7-3.8,6.7-5.7,8-11.6.2-5.6,0-11.1-.4-16.7-.6-13.6,0-22.1,1.6-25.4h.1Z"/>
        <path class="st31" d="M456.9,988.3c.9,1.1,1.9,2.3,2.8,3.5,5.4,4.6,8.2,4.3,15.2,4,.6,0,2.5,0,5.7-.2.5,0,1.9,0,4.3-.3v16.4c-1.7.6-3.4,1.3-5.2,1.9-6.3,2.7-11.2,5.8-16.7,9.8-9.1,6.2-16.5,9.3-27.2,11.7l-4.7,2.3c3.4-12.2,8.9-21.9,15.5-32.6,1-1.6,2-3.2,3-4.9,2.4-3.9,4.8-7.9,7.2-11.8v.2Z"/>
        <path class="st82" d="M386.8,1176h2.3v32.8c3.1.8,6.2,1.5,9.4,2.3-.3,1.3-.7,2.6-1,4-1.3,5.5-2.5,11-3.6,16.6-.4,2.1-.8,4.2-1.3,6.3-.4,2.2-.8,4.3-1.3,6.5-.4,2.2-.9,4.4-1.3,6.7-1.1,5.4-2.1,10.8-3.2,16.2,3.1.8,6.2,1.5,9.4,2.3v14.1c-5.9,1.7-10.5,1.7-14,0-.6-36.2,1.1-71.8,4.7-107.9h-.1Z"/>
        <path class="st67" d="M480.3,953.1c8,8,7.1,18.2,7.2,29,0,2.8,0,5.6-.1,8.5-8.3,4.8-15.2,6.9-20.8,6.3-1.6-.5-3.3-1.1-5-1.6-1.1-3.3-1.9-7.2-2.3-11.7,2.5-4.8,5.6-9.7,9.1-14.7,1.7-2.5,3.4-4.9,5.2-7.5,2.9-4,5.2-6.8,6.7-8.3h0Z"/>
        <path class="st49" d="M440.6,1335.5c3.9.7,7.8,1.5,11.7,2.3.8,3.1,1.6,8.5,2.4,11.8h49.1v-7c0,0,4.6,0,4.6,0v-4.7h4.7c-.8,3.9-1.5,7.7-2.3,11.7h-131c.8-3.9,1.5-7.7,2.3-11.7,2.3.8,4.6,1.5,7,4v7.7s44.5,0,44.5,0c1.5-3.1,3-8.5,4.6-11.8l2.3-2.3h0Z"/>
        <path class="st3" d="M564.5,1100.9c2.3.8,4.6,1.5,7,2.3,1.7,4.8,3.4,10.2,5,16.1.8,2.9,1.6,5.9,2.4,8.9.7,2.6,1.4,5.1,2,7.8l2.3,7c-1.2,3.5-2.7,7.2-4.5,11-.9,1.9-1.8,3.8-2.7,5.7-.7,1.4-1.4,2.9-2.1,4.4h-4.7c-2.7-21.2-5.4-41.9-4.7-63.3h0Z"/>
        <path class="st29" d="M403.1,1030.5h2.3c.1,1.9.2,3.8.4,5.7.2,2.5.4,5,.5,7.6,0,.8.2,3.3.5,7.5.3,4.2,1.6,8.5,3.8,12.8,2.9,9.9-1.2,17.6-4.9,26.9-.7,1.9-1.4,3.7-2.1,5.6-1.7,4.6-3.5,9.1-5.2,13.6h-2.3c-.4-17.5,1.3-34.4,3.5-51.7.3-2.7.7-5.4,1-8.2.8-6.6,1.7-13.2,2.5-19.8h0Z"/>
        <path class="st5" d="M416.3,1298.7c3.7,1.1,6.4,2.4,7.9,4,.3,3.8.3,7.7,0,11.7-3.1,3.1-6.6,4.9-10.5,5.3-3.9.4-7.4-1.4-10.5-5.3-.5-3.9-.5-7.8,0-11.7,4.7-3.1,9-4.5,13.1-4Z"/>
      </g>
      <g id="flag">
        <path class="st76" d="M716.5,1103.3h23.4c-.8,4.6-1.5,9.3-2.3,14.1,8.5.8,17,1.5,25.7,2.3.8,3.9,1.5,7.7,2.3,11.7-5.9,0-11.8,0-17.7,0h-5c-10.6,0-20.6-.8-31.1-2.6-.5-9.9.5-16.8,4.7-25.8v.2Z"/>
        <path class="st16" d="M737.6,1105.6h32.7c-.8,5.4-1.5,10.8-2.3,16.4-5.9-.3-23.9-1-53.8-2.3v-2.3h23.4v-11.7h0Z"/>
      </g>
    </g>
  </g>
</svg>