<?xml version="1.0" encoding="UTF-8"?>
<svg id="Layer_1" xmlns="http://www.w3.org/2000/svg" version="1.1" viewBox="0 0 1172.2 1342.1">
  <!-- Generator: Adobe Illustrator 30.5.1, SVG Export Plug-In . SVG Version: 2.1.4 Build 3)  -->
  <defs>
    <style>
      .st0 {
        fill: #efa126;
      }

      .st1 {
        fill: #4e4a49;
      }

      .st2 {
        fill: #4c4848;
      }

      .st3 {
        fill: #86756b;
      }

      .st4 {
        fill: #ebcda8;
      }

      .st5 {
        fill: #75675e;
      }

      .st6 {
        fill: #d9a15f;
      }

      .st7 {
        fill: #635a54;
      }

      .st8 {
        fill: #cbab89;
      }

      .st9 {
        fill: #7e6e63;
      }

      .st10 {
        fill: #f9e4c9;
      }

      .st11 {
        fill: #f8cc93;
      }

      .st12 {
        fill: #f8cb93;
      }

      .st13 {
        fill: #b78449;
      }

      .st14 {
        fill: #eeb979;
      }

      .st15 {
        fill: #eccca6;
      }

      .st16 {
        fill: #dda562;
      }

      .st17 {
        fill: #534331;
      }

      .st18 {
        fill: #4b4847;
      }

      .st19 {
        fill: #bf8d50;
      }

      .st20 {
        fill: #f9e6cd;
      }

      .st21 {
        fill: #4c4a48;
      }

      .st22 {
        fill: #76685f;
      }

      .st23 {
        fill: #f9cd96;
      }

      .st24 {
        fill: #785a3a;
      }

      .st25 {
        fill: #5f5853;
      }

      .st26 {
        fill: #e8c8a4;
      }

      .st27 {
        fill: #f7d9b3;
      }

      .st28 {
        fill: #eccca5;
      }
    </style>
  </defs>
  <g id="background">
    <rect class="st0" x="1" width="1171" height="1341.1"/>
  </g>
  <g id="subject">
    <path id="clothing-base" class="st22" d="M0,1342l1172-.9.2-99.8-26.9-76.8-34.7-74.9c.6,2.4,2.3,1,0,0l-29.7-50.3c-10.4-12.6-20.7-27.3-35.8-36-41.3-23.6-83.8-43.5-127.5-62.5l-124-49.1-6.3-9.6h0s-3.2,0-3.2,0l-6.3,5.9-19.6,17.4-7.3,5.8-6.7,6.5-8.2,8.4c-.8.8-1.7,2.9-2.1,3.7,0,0-2.4,5.2-2.5,5.2v2.8c-.1,1.7-1.3,4.5-2.7,4.9l-.3,2.6v1.5c0,.5-1.1.8-1.6.8,0,0-.2,2.5-.3,2.5v1.5c0,.5-1.2.8-1.8.8l-1.1,5.3c0,.3.3,1.4,0,1.6l-1.7.8-1,5.3-.3,1.5c0,.5-.9.9-1.5.9l-1.8,5.7-2.3,9.2c-.7,2.8-1.6,6.4-3.6,8l-2.1,10.3c-.4,1.9-1.2,4.4-2.7,5.1,0,0-1.2,7.2-1.3,7.2v1.6c0,.5-1,.8-1.5,1l-4,13.5c0,.3.2,1.6,0,1.8l-1.8,1.1-10.6,16.3c-1.7-.4-4.7-1.4-6.5-2.4l-17.9-10.1c-1-.6-2.7-2.3-3.4-2.9l-12-5.7s-128.5-82.9-173.3-131.8c-20.3-22.1-38-45.4-52.3-71.6-7.7-14-12.5-27.6-14.3-43.6l-3.1-16.1-3.5-1.3h-.7c.1,0,.2,1.6-.1,1.6l-16.4-1.5h0s-4.5-2.7-4.5-2.7l-7.3,18.4-10.2,21.5-22.2,50.8-10.4,24.2-3.8,5.2h.1c0,0-.1,0-.1,0,0,0-35.6,32.7-36.7,31.1-3.2.4-5.4,2.5-6.3,4.9h0c-65.8,37.8-124.8,78.6-181,130.2l-34.6,34.5c-11.4,11.4-19.8,24.2-29.1,37.3l-34.7,57.4-2.9,1.9v164.2Z"/>
    <path id="face-base" class="st23" d="M680.4,311.4s-24.1-10.1-45.9-7.6-129.9,19.1-155.9,44.4-31.4,58-30.5,78,10.9,51,6.7,69.8c-4.2,18.8-27.6,80.8-28.7,96.1s4.8,42.7-9.5,43.5-22.5-35.6-61.9-41-35.5,57-15.9,96.1,33.8,37.9,31.7,46.6,1.9,26.9,15.2,26.5,21.5-17.9,21.5-17.9c0,0,26.6,82.3,66,113s107.1,77.9,145.8,81.1,54-10.6,51.2-19.8c22.9,1.5,58.6.7,74-2.7s6.2-17.4,19.4-22.9,27.3-17.8,40.6-35.8,38.3-103.8,39-137.5,18.1-80.2,18.2-102.1,2.4-39.6-.2-50.1-5.7-3.7-3.7-12.9,5.5-6.2,6.6-19.7-1.3-139.5-18.5-169.8-46-64-96.8-59.8-68.4,4.4-68.4,4.4h0Z"/>
    <g id="face-details">
      <g id="hair">
        <path class="st20" d="M703.9,119.5c0,.6,0,2,.4,2.2l1.6.2,3.7,6.4.6,2.1c0,.3,1,.4,1.3.3l.3,1.7,1.9,4.8c.2.5,1.9.5,2.1,0l.6-1.7,5.2-5.5c1.1-1.2,2.9-2.4,4.1-2.9-1.2,7.6-2,15.4-1.5,23.3,6,.8,4.7-5,8.4-7.6,5,3.9,2.1,9.6,3.5,9.8h1.5c0,.1-.3,2-.3,2l-.9,2.5c-.2.6,1.4,1.6,2.1,1.5v15.1l-1,.8c-.3.2.2,1.3.6,1.4s1.3-.2,1.3-.6l.3-1.4c12.8-17.2,30.7-29.7,52.2-33.9,15.4-2.8,30.7-2.8,46.3.9-13.8,8.7-25,18.2-32.9,32,24-4.1,49-2,69.4,11.7-14.7,4.1-27.7,11.1-36.2,23.9,34.2-3.2,67.1.8,88.9,27.8l-25.7-3.6c-7-.1-14.1,1.4-21.2,3.6,18.9,9.3,36.9,17.1,52.1,30.6l8.7,7.7c10.3,9.1,23.7,31.5,24,46.6-13.6-13.1-28.7-21.9-47.6-24.4l23.2,23.3c21.6,21.7,24.1,51.8,62.3,66.3,15.8,6,28.8,15.8,39,29.2,5.2,6.9,9.6,14.3,10.9,23-16.4-16.6-35.7-26.5-58.8-28.6,5,9.4,11.1,16.7,17.9,24.2,17,18.7,27.2,41.8,29.9,67l-.5,13.1c-12.7-15.3-25.7-28.6-44.4-36.8,2.1,18.3,11.6,34.3,24.9,46.7l7,6.5,9.1,10c20.9,22.8,25.8,57.7,12.2,87.1-7-24.1-20.6-46.3-43.1-58.7l7.5,33.2.8,14.8c.4,8.1-1.1,15.7-4.1,23.6-6-9.6-10.5-17.3-19-24.8v17.2c1.7,17,7.4,33.2,18.5,46.2,7.4,8.6,17.2,13.1,28,18-18.6,10.7-40.7,8.7-57-5.5-2.5,9-1.3,17.8.2,26.8,2.4,14.7,7.8,27.9,17.1,40.1-16.7.7-30.9-6.1-41.8-17.2l-8.3-8.4c-1.8,18.7-6.8,35.8-17.5,50.9-1.7,2.4-3.5,4.6-5.4,6.1l-.7-22.8c0-15.2-7.1-22.4-9.1-31.8l-1-11.3c-1.2-13.2,14.6-32.7,14.5-60.4v-18.2c-.2-22.8-11.1-59-29-76.2l-.6,33.9-2.5,16.7c-5.7-8.4-9.2-15.6-16.3-22.5l2.1,17.1c-10.1-6.6-14.4-15.9-20.4-24.9-.2-.6-1.7-3.6-1.7-4.8v-15.1c0,0,0-3.8,0-3.8l2.6-25.1.2-3.7c.3,0,.6-1.6.7-2.2l.3-9.3c.2-.3.4-.6.4-.8l-.2-1.2.6-7.7v-24.6l-.6-3.2c-1.5-39.9-8.2-95.9-24.3-132.4-10.5-23.9-36.6-39.2-62.1-44.5-14.6-3.1-29.4-4.5-44.2-3.1l-36.8,3.6c-10.2,1-20,.9-29.9-2-16.1-4.7-32.1-6.9-48.8-3.9l-39.1,7.1-23.4,5c-9.6-17.4-23.1-32.3-40-43-9.9-6.2-20.9-11.6-32.8-12,15.6,12,29.2,23,37.9,40.6-29.7-5.4-58.2-2.3-84.6,10.4s-28.8,17.6-38.5,32.4c10.3-3.4,19.2-6.5,29.1-6.5h21.1c-3,3.1-5.9,4.4-9,5-15.4,2.9-30.5,8.8-41.3,21.4l10.5-4.6c7-3.1,18-8.6,23.2-6.8l-7.7,9c-9.5,11.4-17.1,23.5-22,38.3l8.7.6-3.4,5.7c-1.8,2.9-3.7,5.4-6.3,7.7l-.2-8.2c-2.9,6.8-4.3,13.3-5,21.2,8.4-6.6,15.3-12.4,24-16.4l4.6-1.6c0,2.7-1.5,4.9-4.3,6.3-4.4,2.2-9.7,9.7-10.4,15.2,4.5-1.9,6.3-2.8,10.1-3.2,0,4.8-1,8-2.4,12.1-4.1,12.5-7.6,24.8-8.3,37.9s-1.3,17.7,0,27.5l13.7-13.2c1.9-1.8,5.9-3.6,8.4-5l-4.4,25.4v14.1c5.6-5.4,8.8-10.9,15.5-14.9-2.6,8.1-4.8,14.1-5.6,21.5l-2,18.4.7,1c-1,.5-1.5,2.1-1.8,3.2l-2.3,10.2-1.8.6c-.4.2.7,1.3.8,1.4v1.8s-1.4,0-1.4.3l-.2,2-.4,4.4-1.8.7c-.4.2.7,1.3.9,1.4v1.9c-.1,0-2.1.2-1.9.7l.8,2.3v1.8s-2,.3-1.8.7l.9,2.3v2.8c-.9,0-2.3,1.6-2,2.5l1.1,3.4-.2,25.9c-7.5-3.4-8.2-10.2-16.1-8.7-.4-1-.8-2.9-.9-4.1-.2-1.9-.7-4.5-1.7-6.5l-4.4-9.3c-8.1-17.1-12.6-34.8-11.1-54.1s-.9-4.2-1.7-5.3l-8.8,9.7c-6.7-18.7-6.9-37-3.6-56.3-38.6-5.2-72.1,14.6-87,50.4l8.5-3.8c3.4-1.5,6.9-3.9,10.7-2.7-29.8,25.4-50.3,61.4-44.4,100,6.3-7.1,10.2-13.7,18.7-18.7-3.9,16-2.8,30.9-.3,46.7s.5,18.6-1.3,27.2l-2.2,10.7v2.4c-.3.7-.9,2.2-.8,3l.4,5.7c.6,7.9,2.9,15.8,7.9,22.2s12,7.8,19.7,7.8l-4.7,3.8c-3.4,2.7,6.1,8.4,7.4,15l-6.8.3-3.9-.7c-1.1-3-4.3-3.2-6.5-2.5-4.2,1.2-15.2-4.4-19.7-7.9-7-5.5-12.6-12-18.1-18.3l-2.7-4.1v-.9l-.3-2c0-.4-1.4-.3-1.6-.2l-.8-2.9c-.3-1-1.5-2.3-2.5-2.9l-1.5,11.5c0,.5.3,1.9.6,2h1.3c0,0-.2,2-.2,2-.2.3-.6,2.6-.3,3.5l2.1,7.6.3,1.7c0,.3-.2.3-.9.9-26-10-39-36.2-39.3-64.2l-9.1-8.5c-8.5-7.9-10.8-19.5-11.2-31.6-14,7.5-22.1,20.5-27.2,36.8-9.8-15.8-10.1-35-3.7-52.2,3.2-8.7,7.3-17,13.8-23.7l18.9-19.3c-29.3,3.2-53.4,1.2-73.5-21,23.8-4.1,51.4-19.9,66.2-37.3s15-20.1,20.7-31.9c-11.9,3.5-22.4,5.4-34.2,3.2,14.7-12.8,27.6-24.9,37.6-42.4-11.2.8-21.7,3.3-32.6,2.5-16.1-1.1-30.3,2.7-45.5,9.6,9.3-22.9,32.4-37.7,54.5-44.5,19.6-6.1,32.9-16.2,45.4-33.1-15.1,1.9-28.7,3-42.8-1.6,20-11.3,56.6-34,67.4-49.7l23.4-34.1c-9.9-.2-16.9,5-24.7,10.1,3-20.5,14.1-36.9,29.6-50.6-26.6-6.4-54.1,10.4-70.5,31.2l-10,12.7c1.6-26.4,14.3-49.3,33-66.5,13.1-12,29-18.2,46.6-20.7,17.2-2.4,33.2-8.7,46.3-20.4-17.6-1-32.6-3.3-48-11.3l44.2-15.1c25-8.5,47.2-20.8,68.9-35.7l28.4-19.5c-24.8-6.4-49,2.4-73.7,11.3,2.1-3.2,4.2-6.2,6.6-8.5,24.7-23.7,56.6-35.4,90.6-37.4,27.9-1.6,54.8.9,82.2,9.7-5.3-14.6-15.3-23.7-26.2-34.8,15.2.6,29.1,6.3,41.8,14.4l43.8,28.1c16.1,10.3,33.4,17.8,52.1,21.7l32.1,6.7c-2.5-14.8-11.4-25.5-21.1-36.7,22.5.2,42.8,11.1,55.7,27.5l-.6-.5Z"/>
        <path class="st27" d="M737.3,152.6h-1.5c-1.3-.4,1.6-6.1-3.5-10-3.6,2.6-2.3,8.4-8.4,7.6-.6-7.9.3-15.6,1.5-23.3,7-3.1,14.5-4.8,22.5-3.7-2,3-3.9,6-6.5,7.6s-9.8,5-7.8,9.7,4.2,7.7,3.6,12h.1Z"/>
        <path class="st12" d="M248.7,719.8c-.3-.2-2,.8-2,1.3v9.5c-.1,0-1.4,0-1.4,0-.3,0-.7-1.6-.6-2l1.5-11.5c1.1.5,2.2,1.8,2.5,2.9h0Z"/>
        <path class="st12" d="M298.4,758.7c-2.3-.4-5.6-.9-6.5-2.5,2.2-.7,5.4-.5,6.5,2.5Z"/>
        <path class="st27" d="M716.2,135.4l-.6,1.7c-.2.5-1.9.5-2.1,0l-1.9-4.8,4.6,3.1Z"/>
        <path class="st12" d="M254.1,729.9c-.9-1.1-2.7-2.8-2.7-4.1l2.7,4.1Z"/>
        <path class="st27" d="M738.2,158.4c-.6.1-2.3-.9-2.1-1.5l.9-2.5c.8.5,1.2,2.9,1.2,4h0Z"/>
        <path class="st27" d="M739.4,173.7l-.3,1.4c0,.3-1,.6-1.3.6s-.8-1.1-.6-1.4l.9-.8,1.3.2h0Z"/>
        <path class="st12" d="M251.4,724.9l-1.6-.9c-.3-.2-.3-1.1-.4-1.4.1,0,1.5,0,1.6.2l.4,2h0Z"/>
        <path class="st27" d="M711.3,130.6c-.2.1-1.2,0-1.3-.3l-.6-2.1c.5.2,1.5.5,1.6,1l.2,1.4h0Z"/>
        <path class="st27" d="M705.8,121.9l-1.6-.2c-.5,0-.4-1.5-.4-2.2.4.3,1.1.7,1.3,1.1l.6,1.2h.1Z"/>
        <path class="st28" d="M556.7,317.2c-8.7,1.8-17.3,5.3-25.8,7.6-11.7,3.1-23.6,6.2-34.9,11.8-37.6,18.5-49.5,59.8-47.7,100.2,1.2,28.1,13,50.2,2.3,78.1l-15.3,37.9,2-18.4c.8-7.4,3-13.5,5.6-21.5-6.7,4-9.9,9.6-15.4,14.9v-14.1l4.4-25.4c-2.5,1.4-6.5,3.2-8.4,5l-13.7,13.2c-1.2-9.7-.5-18.2,0-27.5s4.2-25.5,8.3-37.9,2.5-7.3,2.4-12.1c-3.8.5-5.6,1.4-10.1,3.2.8-5.5,6-13,10.4-15.2s4.2-3.6,4.3-6.3l-4.6,1.6c-3.3-1.3-4.4-6.7-9-10.1l-8.7-.6c5-14.7,12.5-26.9,22-38.3l7.7-9c3-1.4,6.3-6.2,7.6-10,3.1-.6,6-1.9,9-5h-21.1c-9.9,0-18.9,3-29.1,6.5,9.7-14.8,23.1-25,38.5-32.4,26.4-12.7,54.9-15.8,84.6-10.4-8.7-17.6-22.3-28.6-37.9-40.6,12,.4,22.9,5.7,32.8,12,17,10.7,30.4,25.5,40,43l-.2-.2Z"/>
        <path class="st27" d="M420.4,412.2c-8.7,4-15.6,9.8-24,16.4.7-7.9,2.1-14.4,5-21.2l.2,8.2c2.6-2.3,4.5-4.8,6.3-7.7l3.4-5.7c4.6,3.4,5.7,8.8,9,10.1h.1Z"/>
        <path class="st27" d="M440,344.2c-1.3,3.8-4.6,8.6-7.6,10-5.3-1.8-16.2,3.7-23.2,6.8l-10.5,4.6c10.8-12.6,26-18.5,41.3-21.4h0Z"/>
        <path class="st4" d="M424.9,624l-8.3,11.7-3.7-4.8-.8-3.1c-.3-4.2-1.7-8.2-3.3-12.5,7.9-1.5,8.6,5.3,16.1,8.7h0Z"/>
        <path class="st14" d="M396.4,611.2l3,6.2c-3.5-1.5-7.3-4.7-9.7-7.9l1.5-4.8c2.2,1.5,3.9,3.9,5.2,6.5Z"/>
        <g>
          <path class="st15" d="M926,789.6l-8,6.6c-.7-12.9-3.1-25.1-13.3-35.3-8.1,17.6-24.7,32.1-42.5,36.5,12.4-19,25.2-46.1,16.5-67.5-4.1-10.3-8.9-20.7-5.6-31.9l5.5-19.2,3.1,4,2.9-17.4c.8-11.3-3.5-22.1-9.9-31.5l-12.7-18.3-1-26.2,1.9-.6c6,9,10.3,18.4,20.4,24.9l-2.1-17.1c7.1,6.9,10.6,14.1,16.3,22.5l2.5-16.7.6-33.9c17.9,17.1,28.8,53.4,28.9,76.2v18.2c.2,27.8-15.7,47.2-14.5,60.4l1,11.3c2,9.4,9,16.6,9.1,31.8l.7,22.8.2.4Z"/>
          <path class="st26" d="M324.7,652.6l9.6,27.9c5.5,15.9,16.3,28.7,24.3,42.8l9.7,22.7,5.6,8.1c1.3,1.9,2.4,4.3,1.9,6.2l-15.5,26.2-7.6,1.5c-6.7,1.8-14.9,1.7-20.3-3s-3-6.4-3.6-8.4l-12.9,5.1c0-.6-1.3-1.7-1.5-1.3l-.5,1.2h-9.8l.2-3.9,1.7-.7c.3-.2-.2-1.4-.1-1.7l1.1-5.4,1.1-1.4c.1-.2-.4-.3-.9-.5l1-3.8c.5-1.1,1.2-3.7.9-5-1.4-6.6-10.8-12.3-7.4-15l4.7-3.8c-7.7,0-15-1.9-19.7-7.8l3.3-11.7c.8-3.1-1-5.8-3.4-7.1l-7.8-3.4-.4-5.7,3.7-2-2.9-1v-2.4h3.1c-.3,0,3.8-7.4,3.4-12.5,5.9-1.5,12-3.3,17.7-6.3l4.4,4,4.6-2.1c.7,3.7,1.7,5.7,4.2,7.8,1.3-4.7,2.1-6.3,6-7,1.7-1.8,1.5-7.2.9-9.6l3.8-5.2-14.6-2.1c-.2-1,.6-3.1,1.4-3l4.7.2c0-1.6-.9-6.1.3-7.1l5.5-3.7h0Z"/>
          <path class="st8" d="M862.2,797.5l-9.4,2.3c6.9-7.8,7.4-16.5,2.7-25.9-6.5,7.8-14.2,11.1-23.2,11.1l7.2-38,4.8-33.5c2.2-26.2,6.3-51.4,13.2-76.8l4.7-20.9,12.7,18.3c6.4,9.4,10.6,20.2,9.9,31.5l-2.9,17.4-3.1-4-5.5,19.2c-3.2,11.2,1.5,21.6,5.6,31.9,8.6,21.4-4.1,48.4-16.5,67.5h-.2Z"/>
          <path class="st12" d="M309.2,759.1c.3,1.3-.4,3.9-.9,5l-1.6-3.7-4.2-1,6.8-.3h0Z"/>
          <path class="st12" d="M307,769.8l-.6-1c0-.2.7-.7.7-.9.5.2,1,.3.9.5l-1.1,1.4h.1Z"/>
          <path class="st4" d="M407.9,611.2l-1.7-.8-1.9-1.8c-.6-.5-2.5.4-3.2.7l-4.8,1.8c-1.3-2.6-3-5-5.2-6.5l-3.3-2.3c-4.6-3.3-11.5-2.9-16.9,0-1.9,5.1,1.9,7.9,1.3,11.2h-2c-.3-2.4-3.8-6.6-6.3-7.1l-13.5,2.4c4.4-6.8,9.8-8.7,10.1-17l-5.9,2.7c-1.2.5-4.4,1.1-5.4.5s-1.3-2-2.1-4.1l-11.2-.2-9.3.6-3.6,16.2-2.1,17.8c-1,9,.8,18.7,3.6,27l-5.5,3.7c-1.2.9-.4,5.5-.3,7.1l-4.7-.2c-.9,0-1.7,2.1-1.4,3l14.6,2.1-3.8,5.2c.6,2.5.8,7.8-.9,9.6-3.9.8-4.7,2.3-6,7-2.6-2-3.5-4.1-4.2-7.8l-4.6,2.1-4.4-4c-5.6,3-11.7,4.8-17.7,6.3.5,5-3.7,12.5-3.4,12.5h-3.1l2.2-10.6c1.8-8.7,2.7-18.2,1.3-27.2-2.5-15.8-3.6-30.6.3-46.7-8.5,5-12.4,11.6-18.7,18.7-5.9-38.6,14.6-74.6,44.4-100-3.8-1.2-7.3,1.1-10.7,2.7l-8.5,3.8c14.9-35.7,48.4-55.5,87-50.4-3.2,19.2-3,37.5,3.6,56.3l8.8-9.7c.8,1.1,1.8,3.8,1.7,5.3-1.5,19.3,3,37,11.1,54.1l4.4,9.3c1,2,1.5,4.6,1.7,6.5h.2ZM319.1,597.6c0-1.6.1-4.4.9-5.5s3.5-1.8,5.4-2.1c2.6-12.5,10.9-16.6,7.2-22.7s-4.2-3.2-6.6-2.5l-11.5,3.6c3.3-7.5,9.7-9.3,16.4-13.5-2.3-1.2-7.7-1.7-9.4-.2-3.6,3.9-8.4,8.2-10,12.8l-2.5,7.4c3.2,6.4-3.3,11.6-3.8,22.3,5.3,7,14.4,7.8,14.2,4.6l-.2-4.2h-.1ZM312.1,672.4c-.7.6-2,2.3-2.2,3s2,1.8,2.7,1.5,1.6-1.6,2-2.2-1.7-2.8-2.4-2.2h-.1ZM302.6,679.9c-.4-2.3-1.7-5.1-2.5-4.6l-2.9,1.9-2.7,2c-.4.3.6,2.3.9,2.4,1.1-1.2,1.9-3.1,2.8-2.8l4.3,1.2h.1Z"/>
          <path class="st4" d="M286.7,732.5c-5-6.4-7.3-14.3-7.9-22.2l7.8,3.4c2.5,1.3,4.3,4,3.4,7.1l-3.3,11.7Z"/>
          <path class="st26" d="M407.9,611.2c.1,1.2.5,3.1.9,4.1,1.7,4.2,3,8.2,3.3,12.5l-5.9-4-6-4.3-1-2-3-6.2,4.8-1.8c.7-.3,2.6-1.3,3.2-.7l1.9,1.8,1.7.8v-.2Z"/>
          <path class="st4" d="M278.4,704.6c0-.8.5-2.2.8-3l2.9,1-3.7,2h0Z"/>
          <path class="st27" d="M319.1,597.6l.2,4.2c.2,3.2-8.9,2.3-14.2-4.6.6-10.7,7-15.8,3.8-22.3l2.5-7.4c1.6-4.6,6.4-8.9,10-12.8,1.7-1.5,7.1-1,9.4.2-6.7,4.2-13.1,6-16.4,13.5l11.5-3.6c2.4-.8,5.3.3,6.6,2.5,3.7,6.2-4.6,10.3-7.2,22.7-1.9.3-4.6,1.1-5.4,2.1s-.9,3.8-.9,5.5h.1Z"/>
          <path class="st26" d="M302.6,679.9l-4.3-1.2c-.9-.2-1.7,1.6-2.8,2.8-.3,0-1.4-2-.9-2.4l2.7-2,2.9-1.9c.8-.5,2.1,2.2,2.5,4.6h-.1Z"/>
          <path class="st26" d="M312.1,672.4c.7-.6,2.8,1.5,2.4,2.2s-1.3,1.9-2,2.2-3-.8-2.7-1.5,1.6-2.4,2.2-3h.1Z"/>
        </g>
      </g>
      <g id="face-shadows">
        <path class="st16" d="M530.9,324.8l-2.3,6c-12.6,25.3-17.1,40.1-14.7,69.9,9.5-7.3,16.7-15,28-18.3-4.1,6.9-8.3,12.5-10.5,19.3l-8.2,25.5,5.7-.9c-.5,6.1.7,12.9,4.5,17.7,5.7-2.1,10.4-3.8,15.9-4.8-3.9,6-8.8,10.9-9.6,17.8s5.6,12.3,11.9,13.6l.9,7.1-10.6,8.3c-4.7,3.7-6.9,9.8-9.2,14.9l-3.9,8.9,7.2-4.1,3.1,2.7c.5.4,2.4-.5,3.1-.9l8.8-5.3,18-6.3c4.1-1.4,7.7-.4,11.8.9l26.7,8.8c3.3,1.1,6.6,1.7,10.9,1.3l-14.2-15.2c-2.3-2.5-4.3-4.2-8-6.7,9.6-2.2,18.3-.2,26.8,4.4l7,2,12.9,7.8c15.2,11.6,26.3,27.2,31.9,44.9,1.7,5.5.8,11.8,1,18.2l1,22.6c0,.7.5,2.4.8,2.3l7.7,27.9c1.8,6.6,2.9,14.1,1.7,20.8l-3.7,11.6c-4.5,13.9-5.5,28.9.3,42.5,8.3,19.5,32.2,34.1,51.1,22.3.4-.2,2.1-.9,2.2-.6l.6,2.5-11.3,10.4c-.6.6-1.6,2.8-1.6,3.4-3.5,1.1-8.9,3.1-11.9,5.4-6.4-.2-13-.7-18.8-2.9l-8.4-3.2c-3.4-7.8-16.1-16.6-24.6-21.2-5.4-2.9-10.8-1.5-14.8,1.7l-6.4,5.1c-5.8-2.4-8.9-9.5-8.1-16.3l1.6-13.2c-8.1,9-7.8,20.4-3.3,29.5-1.1,0-3,1.5-3.5,2.4l-4.4,7.1-1.8,4.1-2.9,2-4.9-3.7c-.5-.4-2-2.2-2.3-1.7l-1.5,2.5-2.6.9c-.3,0-1.4,0-1.6.2l-.7,1.7h-.7l-1.5.2c-.5,0-.8,1.1-.9,1.6-1.7.4-4.8,1.4-6.3,2.4l-2.7-.6,12.1-19,24.6-34.9,7.5-12c2.6-4.2,3.3-12,4.6-17-9-4.1-5.1-18.7,1.6-27.4,3.9-5.1,4.3-11.1.5-16.6l-6.7-7.1c-.2-6.7,1.3-13.9,4.8-20s1.4-8.7-.4-12.7c3.8-.5,10.9-8.9,5.6-18.3-.7-1.3-3-3.5-3.8-3-.5,2.4-1.3,6.4-3,7l-8,3.1-5-6.3c3.3.6,7.6,1.3,11.2.4,3.3-5.4-1.3-16.1-8.1-15.7s-7.9,3.6-12.4.9c4.3-15.1-17.4-26.3-27-23.5l-27,7.9,3.1-10.3c-6.3-2-11-.4-16.8,1.8s-12.8,3.2-17.7,7.3-5.8,11.1-4.7,16.5l2.3,11c0,7.3-2.8,14.3-6.3,20.4s-13.2,12.6-22.2,12.3-6.4.6-9.2,1.5c-1.2,3.3.6,7.8,3,9.1l1,2.7v1.6c-3.9-1.1-8.7-.8-10.1,1.4-2.1,3.3,4.3,9.1,13.1,9.9,1.9.2,4.5.6,6,.3v2.4c-5.1,1.2-10.4.5-15.4,3.8,4,.9,8.6,1.7,11.3,3s-4.7,8.7-5.7,15.9c5,8.7,9.5,16.6,10.4,26.5s.9,17.7,0,26.3l-3.5,31.1c-3.9,34.7-5.4,73,5,106.4,4.8,15.4,13.3,29.3,25.6,40.3,1.3-28.7,5-53.4,20.5-75.8,1.2,10.5-1,17.4,6.6,28.1s5.3,5.1,8.4,6.3c-.5-4.5-.8-5.4-.2-9.6l4.9,7.4c1.8,2.7,4.5,4.6,7.7,4.7v-2.5c0,0,5.3,1.1,5.3,1.1,1,.2,3.5-1.1,3.8-2.2,2,1.4,6,2.6,8.5,3.2l4.1,1-1.2-6.9,6.7-.9c.3.5,1.1,1.8,1.8,2l17.1,5.6,26,6.9c6.2,1.6,10.6.3,16.3-2.4l12.9-3.2c4.3-1.1,8.7-4,13.1-4.2s8.9,2,12.2,1l15.1-4.3c2.6-.7,6.5,5,7.3,6.9,0,.6-1.6,1.9-2.2,2.1l-13.3,5.1c-2.2.9-5.8,4.9-6.9,7.1-2.2,4.6-.3,9.1,1.3,13.8l-10.6,3.8c-22.9-.9-51.8,2-60.6,23.8s15.2,40.5,33.8,43.2c.8,8.6-10.3,4.9-17.7,10.5.2,4.3-2.3,8.2-5.9,7.7s-2.5-1.7-2.9-1.2l-2.5,2.8-4.9-4.8-1.6,1.3c-.4.3-1.9-.4-1.8-.9l.4-2.8c.4-.3,1.4-.9,1.7-.7l1.9,1.5,1.6-2.3c.4-.5-.7-1.9-1.3-2l-13.3-3-2.7,3.7c-4.6-2.7-12.5-9.4-13.1-11.4l-.9-2.9c-.2-.7-1.9-.9-3.8-1.2l1.5-6,5.1,1.7c3.4,0,4.9,0,9,1.1l3.8-12.5,4.4-3.7c.7-.6-.3-3.7-1.3-3.9l-4.6-1.2-2.1-4.9-9.7,1.8c-3.7-2.8-9.1-3-12.7.5l-4.8.9c-.6,4.2-2.2,7.9-4.6,10.4l-4.5-2.5c-1.3,2.7-5.9,5.8-7.8,4.4s-3.4-2.6-5.8-3.6-4.9.6-5.6,2.1c-2.5,5.7-6.8,2.4-6.8,14.2-15.1-6.9-29.9-13.9-44-23.6-35.7-24.4-65.9-52.1-87.4-90.2-9.4-16.7-13.5-34.4-18.1-53.6-2.3,5-3.8,10.8-3.1,15.2l-3,2h-.7c-.3,0-1.2,0-1.4.2l-.8,1.8c-3.8.9-8.3.9-12,0,0-.5-.1-1.3-.4-1.4l-2-.6-4.5-2.7c-.7-.4-2.2-.4-3.4-.3.5-1.9-.6-4.3-1.9-6.2l-5.6-8.1c.6,0,2.2-2.6,2.2-3.5v-16.5c-3-3.2-7.9-3.4-11.9-2.7-8-14.1-18.8-27-24.3-42.8l-9.6-27.9c-2.9-8.3-4.7-18-3.6-27l2.1-17.8,1,.3c1.5,10.5,2.5,20.8,7.3,31.2.6-17,1-32.5,4.6-48.4l11.2.2c.8,2.1,1.2,3.6,2.1,4.1s4.2,0,5.4-.5l5.9-2.7c-.3,8.2-5.7,10.2-10.1,17l13.5-2.4c2.5.5,6,4.7,6.3,7-11.7.9-17.5,14.8-19.4,27.4s-.3,22.7,7.1,32.2,7.1,6.2,10.4,6.1,6-1.3,7.9,2.7l5.4,11.3c.4.7,2.1,2.1,2.9,2.2s2.8-1.3,3.3-2.2c3-5.9,1.6-11.9-2.7-16.7-18.5-20.8,2-38.5-3.5-47.5,1,0,2.1-2.3,2-3.4l-.9-20.3,5.2-3,3.3,2.3-1.5,4.8c2.4,3.3,6.2,6.4,9.7,7.9l1,2c2.5,5.2,6.9,10.4,12.6,11.5l3.7,4.8,8.3-11.7.2-25.9,1-5.9v-2.8l.9-3v-1.8l1-3v-1.9c.5.2.8-1.4.9-2.1l.4-4.4,1.5-.8c.3-.2.2-1.2.2-1.5v-1.8l.9-2,2.3-10.2c.4,0,1.4-.4,1.5-.9l.3-2.3-.7-1,15.3-37.9c10.7-27.9-1.1-50-2.3-78.1-1.7-40.3,10.1-81.6,47.7-100.2,11.3-5.6,23.2-8.6,34.9-11.8l-.7.4Z"/>
        <path class="st11" d="M856.5,579.9c-.6,6.1-9.8,2.9-11.5,11.6s-4.2,4.9-5.3,3.5c-4.2-5.3.7-9-.2-12.4s-3.6-1-4.3,0c-3.8,4.8-1.2,10.4-3.1,10.9l-3.6.6,3-3.8c-1.1-5.3,1.1-9.9,6.3-11.9l.5-7,5.4.8c1.8-1.4,4.7-2.1,6.8-.8l-1.3,7.1,7.3,1.6h0Z"/>
        <path class="st12" d="M857,554.7l.5,1.6.3,1.6c0,.3.3.6.8.7v4.8c0,.9,1.6,1.9,2.8,2l-.2,3.8-2.2.4c-2.4,1.3-2.6,5.5-2.3,8.5l-.2,1.8-7.3-1.6,1.3-7.1c-2.1-1.3-5-.6-6.8.8l-5.4-.8-.5,7c-5.1,2-7.4,6.5-6.3,11.9l-3,3.8-3.5,3.2c-3.3-4.4-5.2-12.1-3.9-18.4v-3.9c0-.2,1-1.2.6-1.4l-1.6-.7-.3-2.7,1.1-2,3.4,1.8c.8.4,2.6-.8,3.6-1.4,7.9-4.9,1.8-11,7-13.2l1.7,5.5,13.9-3.4c.8-.2,3-.7,2.9-1.4l-.3-2.7-.2-1.7c0-.3.8-1.2,1-1l1.1,1.8c.4.6,1.5,1.8,2,2.2v.2ZM849.5,563.7c.8-.3,1.9-3.6,1.1-3.8s-2.1-.3-3.7-.2-1.7,3.1-1,4,2.1.5,3.7,0h0Z"/>
        <path id="chin" class="st6" d="M670.2,920.3l3.5.5.7,1.7c.2.4,1.4-.9,1.4-1l23.9.5c15.3,1.4,29.8.2,44-6.5l.4,2.2-8.2,8.4c-.8.8-1.8,2.8-2.1,3.7-1,1.1-2.3,3.6-2.4,5.2v2.8c-1.5.5-2.8,3.4-2.9,4.9l-.2,2.6c0,0-1.3,0-1.3.4l-.4,1.9-.2,2.5c-.2,0-1.2,0-1.3.4l-.6,1.9-1.1,5.3s-1.3,0-1.3.4l-.4,2-1,5.3c-.4,0-1.2,0-1.3.5l-.5,1.9-1.8,5.7-2.3,9.2c-1.7,1.7-3.1,5.3-3.6,8l-2.1,10.3c-1.3.7-2.4,3.3-2.7,5.1l-1.1,7.2c-.2,0-1.1.2-1.2.5l-.5,2.2-4,13.5c-.5.3-1,.4-1.1.7l-.9,2.2-10.5,16.2c-1.7-.4-4.7-1.4-6.5-2.4l-17.9-10.1c-1-.6-2.8-2.3-3.4-2.9l-1-6.1c-1-4.2-2.5-9.8-1.6-14.3,6.9-33.5,15.4-46.9,40.7-69.9l-14,.7c-14.3.8-28.2,1.2-42.3-1.9l-32.8-11.1-44.6-14.1-7.1-3.2c0-11.8,4.3-8.6,6.8-14.2s4.1-2.8,5.6-2.1c2.4,1,3.5,1.9,5.8,3.6s6.5-1.7,7.8-4.4l4.5,2.5c2.4-2.5,4-6.2,4.6-10.4l4.8-.9c3.6-3.5,9-3.3,12.7-.5l9.7-1.8,2.1,4.9,4.6,1.2c.9.3,1.9,3.3,1.3,3.9l-4.4,3.7-3.8,12.5c-4.1-1-5.6-1.2-9-1.1l-5.1-1.7-1.5,6c1.9.3,3.6.5,3.8,1.2l.9,2.9c.6,2,8.5,8.6,13.1,11.4l2.7-3.7,13.3,3c.7.2,1.7,1.5,1.3,2l-1.6,2.3-1.9-1.5c-.3-.2-1.3.4-1.7.7l-.4,2.8c0,.4,1.4,1.2,1.8.9l1.6-1.3,4.9,4.8,2.5-2.8c.4-.5,2.2,1.1,2.9,1.2,3.6.4,6.1-3.4,5.9-7.7,7.3-5.6,18.5-1.9,17.7-10.5h.3Z"/>
        <path id="neck" class="st13" d="M556.7,913.3l7.1,3.2,44.6,14.1,32.8,11.1c14.1,3.2,28,2.7,42.3,1.9l14-.7c-25.3,23-33.8,36.4-40.7,69.9-.9,4.5.6,10.1,1.6,14.3l1,6.1-6.1-2.6-5.7-3.2-5.8-3.8c-56.8-34.8-122.7-79.1-167.5-128-20.2-22.1-37.9-45.4-52.3-71.6-7.7-14-12.5-27.6-14.3-43.6l-3.1-16.1-.5-3.2c-.7-4.4.8-10.2,3.1-15.2,4.6,19.2,8.6,37,18.1,53.6,21.5,38.1,51.7,65.8,87.4,90.2,14.1,9.6,28.9,16.7,44,23.6h0Z"/>
      </g>
      <g id="ear">
        <path class="st28" d="M426.1,592.2l-1,5.9-1.1-3.4c-.3-.8,1.2-2.6,2.1-2.5Z"/>
        <path class="st28" d="M428.1,581.6l-1.1,3-.8-2.3c-.2-.4,1.8-.8,1.9-.7Z"/>
        <path class="st28" d="M427.1,586.3l-1,3-.9-2.3c-.2-.5,1.8-.8,1.9-.7Z"/>
        <path class="st26" d="M434.2,556.9c.2-1.1.8-2.7,1.8-3.2l-.3,2.3c0,.5-1,.9-1.5.9Z"/>
        <path class="st28" d="M428.9,577.6c0,.6-.4,2.3-.9,2.1-.2,0-1.3-1.2-.9-1.4l1.8-.7h0Z"/>
        <path class="st28" d="M431,570.9c0,.3.1,1.3-.2,1.5l-1.5.8.2-2c0-.3,1.4-.3,1.5-.3Z"/>
        <path class="st28" d="M431.9,567.1l-1,2c-.1,0-1.2-1.2-.8-1.4l1.8-.6Z"/>
        <path class="st14" d="M368.4,745.9l-9.7-22.7c4-.7,8.9-.5,11.8,2.7v16.5c.1.8-1.4,3.3-2,3.5h0Z"/>
        <polygon class="st3" points="404.1 761.1 404.6 764.4 401.1 763.1 404.1 761.1"/>
        <path class="st3" d="M400.4,763.1s.2,1.5-.1,1.6l-2,.5.8-1.8c.2-.3,1.1-.3,1.4-.3h0Z"/>
        <path class="st19" d="M370.3,613.5h2l9.3,15.4c5.5,9-15.1,26.7,3.5,47.5,4.3,4.8,5.8,10.8,2.7,16.7s-2.3,2.4-3.3,2.2-2.6-1.5-2.9-2.2l-5.4-11.3c-1.9-4-4.6-2.7-7.9-2.7s-8.3-3.5-10.4-6.1c-7.4-9.5-8.8-20.7-7.1-32.2s7.7-26.4,19.4-27.4h0Z"/>
        <path class="st19" d="M336.1,590.8c-3.7,15.9-4,31.4-4.6,48.4-4.7-10.4-5.8-20.7-7.3-31.2l-1-.3,3.6-16.2,9.3-.6h0Z"/>
        <path class="st14" d="M388,602.3l-5.2,3,.9,20.3c0,1.1-1,3.4-2,3.4l-9.3-15.3c.6-3.3-3.1-6.1-1.3-11.2,5.5-3,12.3-3.4,16.9,0h0Z"/>
        <path class="st14" d="M412.2,627.7l.8,3.1c-5.7-1.1-10.2-6.3-12.6-11.5l6,4.3,5.9,4h0Z"/>
      </g>
      <g id="nose">
        <path class="st14" d="M779.3,742.3l-9.6-7.6-16.4-33.5-4.1-18.7c7.9,10,13,19.9,17.9,30.6l12.2,29.2h0Z"/>
        <path class="st24" d="M740.9,721.5l-6.9,4.8c-2.8,2-6.2,2-9.4,2,0-.6,1-2.8,1.6-3.4l11.3-10.4c3.1-2.9,7.7-3.9,12.3-5.2,0,3.2-1.2,6.1-3.5,8l-5.3,4.3h0Z"/>
        <path class="st19" d="M646,708c-1.3,3.2-.7,7.1,2.9,9.3,8.9,5.4,18-1.2,30.7,7.5s4.2,2,5.9,2.7l8.4,3.2c5.8,2.2,12.5,2.7,18.8,2.9-11,8.7-27.2,10.2-40,2.8l-4.4-3.8c-8.8.8-15.7-3.2-21.1-8.9l-10.7-3.8-6.7-6.8c-4.5-9.2-4.8-20.6,3.3-29.5l-1.6,13.2c-.8,6.8,2.3,13.9,8.1,16.3l6.4-5.1h0Z"/>
        <path class="st24" d="M685.5,727.5c-1.7-.7-4.2-1.5-5.9-2.7-12.7-8.7-21.8-2.1-30.7-7.5s-4.2-6.1-2.9-9.3c4-3.2,9.4-4.6,14.8-1.7,8.6,4.6,21.3,13.5,24.6,21.2h.1Z"/>
      </g>
      <g id="mouth">
        <path class="st19" d="M754.6,808.8l-1.2,3.9-2,3c-.5.4-1.5,1-1.6,1.7l-.2,2.2-7.2,4.4c-3,1.9-6.8,2.3-9.7.3l-4.1-2.9c-.7-1.8-4.6-7.6-7.3-6.9l-15.1,4.3c-3.3.9-8.5-1.2-12.2-1s-8.8,3.1-13.1,4.2l-12.9,3.2c-5.7,2.7-10.2,4-16.3,2.4l-26-6.9-17.1-5.6c-.7-.2-1.5-1.5-1.8-2l-2.6-4.4c-1.3-2.1-1.5-6.2-.7-8.8,5.8,3.3,9.3,5.2,15,7.1l5.3-7.1c.7-1,3-1.8,4.3-1.3,1.1,2.7,4,4.6,6.4,6.3s5.4,2.5,10.7,2.5l-1.3-3.7c-.3-.9-.2-3,.2-3.8s2.8.4,3.7,1.2c7.9-4.3,8.2,2.3,15.3-.8l5.1-1.8c1.8,2.8,4.2,5,7.7,7.5v-5.5l2.4-.6c.6,0,1.8,1.2,2.3,1.8,2.2,2.7,5.2,3.5,8.2.9s8.4-4.5,11.5-2.7l16.9,9.3c-.9-6.2-1.3-9.6,3.2-12.9,2.4,2.4,2.9,5.8,2.8,10.6,4.6-1.6,8.2-4.1,12.3-7.8l9.9,11,9.3-1.4h-.1Z"/>
        <path class="st19" d="M580.1,808.2c1.9,2.9,5.4,6.2,8.5,8.3-.3,1.1-2.8,2.4-3.8,2.2l-5.1-1.1c-2-2.3-2.9-5.9-2.5-9.2l2.9-.3h0Z"/>
        <path class="st27" d="M769.8,813.1h-3.6c.3-1-1-3.8-1.9-4l-6.9,4.4c1.6-4.3,5.9-8.1,10.2-10.3l4.5-4.2-2.3,14.2h0Z"/>
      </g>
      <g id="mustache">
        <path class="st10" d="M636.6,719.9l10.7,3.8c5.4,5.7,12.3,9.7,21.1,8.9l4.4,3.8c12.7,7.4,28.9,5.9,40-2.8,3-2.3,8.4-4.3,11.9-5.4,3.2,0,6.6,0,9.4-2l6.9-4.8,3.9,2.1c7,1.6,12.6,4,18.7,7.5l6.2,3.6,9.6,7.6,7,6.3c6.7,6,11.7,13.5,15.2,21.4-1.1.9-2.1,1.7-1.9,2.2l1.2,2.4c1.7,3.4,4.2,8,5,11.9,2,9.8-1.8,19.8-6.4,28l-4.6,8.2-2.5-7.4c-6.9,6.2-15.9,9-25.5,8.1l8.1-8.4-5.1-2,2.3-14.2-4.5,4.2c-4.3,2.2-8.6,6-10.2,10.3l-3.8,1.7-.2-2.4,1.2-3.9c1.3-4.3,0-11-3.1-16.2l-6.9,4c-1.4.8-3.9,2.1-5,2.3l-1.3-7.6-7.6-1-5-12.8c-1.2,6.2-2.3,8.5-6.7,10.6-1.1,2.8-3.2,7.2-5.2,8.8l-7.6-3.9c-2.1-1.1-5.8-3.2-7.1-5.1l-.8-10.8c-2,3.8-3.7,10-7.4,11.1l-8.3,2.5c-4.9,1.5-8.7,5.3-6.9,9.7v5.5c-3.4-2.5-5.8-4.7-7.6-7.5l-9.4-14.7-5.9,5c-4.6-2.9-7.8-6.3-7.8-10.9s-2-.3-2.5,0l-6.2,18.2-2,8.6c-2.3-1.7-5.2-3.6-6.4-6.3s-3.8-4.6-5.9-6.5-2.4-3.7-3.3-3.2-2.2,1.8-2.8,2.5l-2.1,2.6c-2.3,2.8-7.7-8.8-9.8-18-2.6,4.1-5.3,8.8-5.6,13.1l-.8,11.5.7,13.3.7,4.2c0,.7-1.1,1.3-1.9,1.8-2.5-.6-6.5-1.8-8.5-3.2-3.1-2.1-6.5-5.4-8.5-8.3l-4.7-7.1c-3.2-4.9-4.7-9.4-5.9-15.4-2.7,1.9-5.4,6.2-6.3,8.6s-2.8.5-3.1-.2-.8-2.8-.5-3.6l7-14.8c-3.3-.6-6.7.5-9.5,2.1l-1.7,1c-.3.2-.5-1.2-.6-1.3,3.5-12.2,9.5-23.1,20.1-30.9l15.3-11.2,4.2-2.6c1.5-.9,4.6-2,6.3-2.4l2-.4c.3,0,.4-1.2.3-1.3h.7l1.8-.6c.3,0,.5-1.1.4-1.3l2.6-.9h2.3c.8,0,2.1,6.7,3.6,5.3l2.7-2.5,2.9-2,9.5-5.3c1.8-1,5.2-2.1,6.9-1.5v.2Z"/>
        <path class="st26" d="M580.1,808.2l-2.9.3c-.5,3.3.5,6.9,2.5,9.2v2.5c-3.3-.2-6-2.1-7.8-4.7l-4.9-7.4c-.6,4.2-.3,5,.2,9.6-3.1-1.2-6.4-3.5-8.4-6.3-7.5-10.7-5.3-17.7-6.6-28.1l2.6-5.7c.2,0,.3,1.5.6,1.3l1.7-1c2.7-1.6,6.1-2.7,9.5-2.1l-7,14.8c-.3.7.2,3,.5,3.6s2.8,1,3.1.2c.9-2.3,3.6-6.7,6.3-8.6,1.2,6.1,2.7,10.6,5.9,15.4l4.7,7.1h0Z"/>
        <path class="st14" d="M629.9,713.1l6.7,6.8c-1.7-.6-5.2.5-6.9,1.5l-9.5,5.3,1.8-4.1,4.4-7.1c.5-.9,2.5-2.3,3.5-2.4Z"/>
        <path class="st26" d="M754.6,808.8l-9.3,1.4-9.9-11c-4.1,3.8-7.8,6.3-12.3,7.8,0-4.8-.4-8.2-2.8-10.6-4.5,3.2-4.1,6.6-3.2,12.9l-16.9-9.3c-3.1-1.7-9,.5-11.5,2.7s-6,1.8-8.2-.9-1.7-1.9-2.3-1.8l-2.5.6c-1.8-4.4,2-8.3,6.9-9.7l8.3-2.5c3.7-1.1,5.4-7.3,7.4-11.1l.8,10.8c1.4,1.9,5,4,7.1,5.1l7.6,3.9c2-1.7,4.1-6,5.2-8.8,4.5-2.2,5.5-4.4,6.7-10.6l5,12.8,7.6,1,1.3,7.6c1.1-.2,3.6-1.5,5-2.3l6.9-4c3,5.3,4.4,11.9,3.1,16.2v-.2Z"/>
        <path class="st26" d="M668,798.5l-5.1,1.8c-7.2,3.1-7.4-3.5-15.3.8-.9-.7-3.3-2-3.7-1.2s-.5,2.9-.2,3.8l1.3,3.7c-5.2,0-8-.5-10.7-2.5l2-8.6,6.2-18.2c.4-.4,2.5-.7,2.5,0,0,4.6,3.3,8,7.8,10.9l5.9-5,9.4,14.7h-.1Z"/>
        <path class="st26" d="M627.9,798.5c-1.3-.5-3.6.3-4.3,1.3l-5.3,7.1c-5.7-1.9-9.2-3.9-15-7.1-.8,2.6-.6,6.7.7,8.8l2.6,4.4-6.7.9,1.2,6.9-4.1-1c.8-.5,2-1.1,1.9-1.8l-.7-4.2-.7-13.3.8-11.5c.3-4.3,3.1-9,5.6-13.1,2.1,9.2,7.5,20.7,9.8,18l2.1-2.6c.6-.7,2-2.1,2.8-2.5s2.5,2.5,3.3,3.2c2.1,1.9,4.9,4.2,5.9,6.5h.1Z"/>
      </g>
      <g id="eyebrows">
        <g id="left_eyebrow">
          <path class="st13" d="M630,491.6l-7-2c-8.5-4.6-17.2-6.6-26.8-4.4,3.8,2.5,5.7,4.2,8,6.7l14.2,15.2c-4.3.4-7.6-.2-10.9-1.3l-26.7-8.8c-4.1-1.3-7.7-2.4-11.8-.9l-18,6.3-8.8,5.3c-.6.4-2.6,1.4-3.1.9l-3.1-2.7-7.2,4.1,3.9-8.9c2.3-5.2,4.5-11.2,9.2-14.9l10.6-8.3,17-9.2c3.4.2,7.9.4,11.2-.9,18-7.2,42.3,6.2,49.3,24.1v-.3Z"/>
          <path class="st13" d="M616.6,533.6l-5.4-3.4-10.4-5v-5.4c-7.5-6.1-16.7-6.8-25.8-3.2l-14.3,7.6c-1.3.7-2.8,3.1-2.7,4.8l-5.1,4.3c-1.1.9-3.9,2.1-4.7,3.4,2.9-6.7,10.3-17.6,14.5-18.8l27-7.9c9.6-2.8,31.3,8.4,27,23.5h0Z"/>
          <path class="st16" d="M552.8,533.3l-.6,6.5c2.5,3.5,3.7,6.6,4,10.4l-1.3-.3c-1.7.3-5.2,1.2-6.6,2.3-1-.6-2.3-2.6-2.6-3.5l-2-4.9,4.3-7.1c.8-1.3,3.6-2.4,4.7-3.4h0Z"/>
          <path class="st19" d="M543.7,543.8l2,4.9c.3.9,1.6,2.8,2.6,3.5-3.6,2.7-8,5.8-12.9,4.4,2.2-4.8,4.8-9.4,8.3-12.8h0Z"/>
          <path class="st24" d="M600.7,525.2c-9.7-4.7-21.5-3.8-32.4-.9l-10.5,4.8c0-1.7,1.3-4.1,2.7-4.8l14.3-7.6c9.1-3.6,18.3-2.9,25.8,3.2v5.4h.1Z"/>
        </g>
        <g id="right_eyebrow">
          <path class="st16" d="M751.1,497.3l3.2,2.2c1.2.6,3.1,1.8,3.8,2.6s0,4.2-1,5.2l-4.9,6.2c6.2,0,10.3-.8,14.6,4.3l-13.6,5.3c-1.9.7-5.2,3.7-5.6,5.4l2.2,3.9c.5.8-.7,3.1-1.5,3.9l-12,12-.7-4.5c-3.1-.3-9.1,1.3-9.7,4.2s5.2,4.5,7.2,3.2l.6,6,2.5,6.3-3.6,2.9-1.1-7-6.7,4.2c-.8.5-3.3.9-4.2.3-1.6-1-3.3-4.9-3.4-6.8-.2-2.9-.6-7.9.3-10.5,2.7-6.3,4.8-13.9,9.7-19l11.7-12.3c5.1-5.4,7.5-12.9,12.3-17.8v-.2Z"/>
          <path class="st13" d="M829.5,526c-.5,3.9-2.9,7.8-6.1,9.9-7.1-6.5-14.5-9.3-23.2-7.5l1.4,4.4-4.8-3.3c-3.8-3.1-8.8-4.8-13.8-6.2-10-2.7-21-2.7-29.7,3.7-2.5,1.8.9,7,3.4,7.9l-7.6,6.9-10.3,10-4.4-1.9,2-1.8,12-12c.7-.7,1.9-3.1,1.5-3.9l-2.2-3.9c.4-1.7,3.7-4.6,5.6-5.4l13.6-5.3c-4.3-5.1-8.4-4.4-14.6-4.3l4.9-6.2c.8-1,1.9-4.2,1-5.2s-2.6-2-3.8-2.6l-3.2-2.2c5.7-5.9,13-10,21.7-9.7s7,4.4,10.2,4.9l14.9,2.3c9.9.5,18,4.2,23.2,12.9l6.5,10.8c1.2,1.9,2.1,5.5,1.9,7.6h-.1Z"/>
          <path class="st6" d="M833,531.8v1.1l-.5,10.6-.3,5.6c0,.8-2,1.3-2.8,1.4l-2.5-4.6-2.6-3.2c-2.1-3.5-5.5-7.6-10.1-9.3l-.3,10.4c0,.4-1.5,2-1.8,1.6l-4.8-7.1c-1-1.5-3.2-3.4-5-3.8l-.6-1.8-1.4-4.4c8.6-1.8,16,1,23.2,7.5,3.1-2.1,5.5-6,6.1-9.9.5-.3,1.6,1.2,1.9,1.8l1.7,4h-.2Z"/>
          <path class="st14" d="M736.4,548.2l-2,1.8-1.3,1.1c-2,1.3-8,.8-7.2-3.2s6.6-4.5,9.7-4.2l.7,4.5h0Z"/>
          <path class="st24" d="M801.7,532.8l.6,1.8,2.6,4.7,1.6,4-4.7-3.1c-7.1-5.3-15.5-9.7-24-9.1-7.3-2.1-15.2-1.3-20.9,3.9-2.5-.8-5.9-6-3.4-7.9,8.7-6.4,19.7-6.4,29.7-3.7,5,1.4,10,3.1,13.8,6.2l4.8,3.3h0Z"/>
          <path class="st13" d="M812.1,545.4l1.5,4.1-5.4-2.1-1.8-4.1-1.6-4-2.6-4.7c1.8.4,4,2.2,5,3.8l4.8,7.1h0Z"/>
        </g>
      </g>
      <g id="eyes">
        <g id="right_eye">
          <path class="st17" d="M804.4,564.2c1.6,5.4.8,10.9-3.7,14.8l-3-2v-3s1.4-1.3,1-1.4l-1.8-.8c-.9-4.8-6.6-10-11.1-11.4s-.6,17.3-15.9,23.5l-4.5-.6-.9-1.4c-.2-.3-1.2.5-1.4.7l-7.4-1.8c0-.6-.4-1.7-.9-1.7h-4.1l-1.4-2.9-2.1-4.5c-.2-.3.7-1.7.4-1.9l-1.7-.7v-2.9c0,0,.4-2.1.4-2.1,0-.5-1.2-1.3-1.6-1l-1.1,1.2-1.7,1.1-4.8-1.8,15.7-12.4c3.8-2.9,10.8-4,16-3.9,12.5,0,22.7,5.8,32.3,12.9s3,2.8,3.4,4.1h-.1ZM776.6,556.2c-.9-1.6-5.9-2-6.7-.6-1.3,2.4.7,5.2,3.4,5.1s4.9-1.8,3.3-4.5Z"/>
          <path class="st16" d="M810.3,583.8l1.5,7.1-7.5,3.1c-4.2,2.1-9.6,4.6-14.4,5.4-11.1,1.8-22.9-.3-32.3-5.4l-10.1-5.4-.2-3.2c0-.8,2.8,0,3.6.2,4.7,2.2,10.4,3.5,15.6,4.7,15.6,3.6,31.6,3,40.1-9.8,1,.8,3.5,2,3.8,3.2h0Z"/>
          <path class="st14" d="M757.5,593.9l-1.1,2c4.1,7.7,10.4,13.7,18.2,17.5l19.1,9.4c-12.6-.6-23.4-4.9-34-9.8s-14.7-10.2-16-18.7c1.7-1.8,3.9-4.1,3.8-5.8l10.1,5.4h0Z"/>
          <path class="st27" d="M796.9,571.8l.8,2.2v6.9c-3.1,2.6-7.8,4.2-12.5,3.9l-15.4-.9c15.3-6.2,14.6-23.9,15.9-23.5,4.5,1.5,10.2,6.7,11.1,11.4h.1Z"/>
          <path class="st19" d="M818.9,562.6l.3,5.2.5,2.3.3,2.7c0,.6.3,2.2.9,2.1v3.9c-1.2,6.3.7,14,4,18.4s1.8,3.5,2.7,5.7c-5.4-.7-8.5-3.9-11.9-7.6l-4-4.4-1.5-7.1h4.5c0,0-7.4-15.6-7.4-15.6l-1.8-4.1,4.7,3.1.4,2.1c0,.5,1.8.8,1.9.7.5-6,4.7-7,4.5-8.5l1.7,1.2h.2Z"/>
          <path class="st24" d="M810.3,583.8c-.3-1.2-2.8-2.4-3.8-3.2s-2.8-1.6-3.8-1.3l-5,1.5v-3.9l2.9,2c4.5-3.9,5.3-9.3,3.7-14.8l1.2-.2,1.8,4.1,7.4,15.7h-4.5,0Z"/>
          <path class="st27" d="M746,566.2v2.9c0,.8.7,2.1,1.2,2.5l2.1,4.5,1.4,2.9c-1.8,1.1-5.7.6-7.4-1.3l-6-6.6,4.7-5.7,1.7-1.1,2.3,1.9h0Z"/>
          <path class="st12" d="M717.2,556.9c.2,1.9,1.9,5.7,3.4,6.8s3.3.2,4.2-.3l1.1,5.9c-9.9.9-13.4-10.8-11.3-11.6l2.6-.7h0Z"/>
          <path class="st24" d="M737.2,563.6l4.8,1.8-4.7,5.7-7-.9c.6-1.3,1.5-3.4,2.3-4l3.6-2.9.9.2h.1Z"/>
          <path class="st5" d="M765.4,583.2h-1.6c-.3,0-.7-.3-.7-.7.2-.2,1.2-1.1,1.4-.7l.9,1.4h0Z"/>
          <path class="st5" d="M755.8,580.7c-.8-.2-2.4-1-2.5-1.7h1.6c.5,0,.8,1.1.9,1.7Z"/>
          <path class="st23" d="M716.6,525.3l-.4-3.9c-.2,0,1.4.3,2,.4s1.2,1.4.7,1.7l-2.3,1.7h0Z"/>
          <path class="st16" d="M821,574.9c-.6.2-.9-1.4-.9-2.1l1.6.7c.4.2-.5,1.2-.7,1.4h0Z"/>
          <polygon class="st16" points="820.8 568.2 819.7 570.2 819.2 567.9 820.8 568.2"/>
          <path class="st23" d="M806.4,543.3l1.8,4.1c3.6,8.2,5.3,19.9,3.4,19.9h-1.3c0,0-4.7-3.2-4.7-3.2l-1.2.2c-.4-1.3-1.8-2.9-3.4-4.1-9.6-7.1-19.8-12.8-32.3-12.9s-12.2,1-16,3.9c.4-12.2,12.4-19.3,24.9-20.1s16.9,3.8,24,9.1l4.7,3.1h0Z"/>
          <path class="st6" d="M777.7,531c-12.4.9-24.5,7.9-24.9,20.1l-15.7,12.4-.9-.2-2.5-6.3-.6-6,1.3-1.1,4.4,1.9,10.3-10,7.6-6.9c5.7-5.1,13.6-6,20.9-3.9h.1Z"/>
          <path class="st26" d="M776.6,556.2c1.6,2.8-1.3,4.5-3.3,4.5s-4.8-2.8-3.4-5.1,5.8-1,6.7.6Z"/>
          <path class="st5" d="M746,566.2l-2.3-1.9,1.1-1.2c.3-.4,1.6.4,1.6,1l-.3,2.1h0Z"/>
          <path class="st24" d="M797.7,574l-.8-2.2,1.8.8c.4.2-.9,1.4-1,1.4Z"/>
          <path class="st5" d="M747.3,571.6c-.5-.4-1.4-1.8-1.3-2.5l1.7.7c.3.2-.5,1.5-.4,1.9h0Z"/>
          <path class="st6" d="M813.6,549.5l2.2,4.4c.3.6.8,2,.8,2.7l.5,4.8c.2,1.5-4.1,2.4-4.5,8.5,0,0-1.8-.2-1.9-.7l-.4-2.1h1.3c1.9,0,0-11.6-3.4-19.8l5.4,2.1h0Z"/>
          <path class="st12" d="M818.9,562.6l-1.7-1.2-.5-4.8c1.7-.4,3.9.7,4.3,2.4s-.8,3.2-2.1,3.6Z"/>
          <path class="st12" d="M824.3,542.7l-5.4,9.8c-.3.6-2.8,1.6-3,1.5l-2.2-4.4-1.5-4.1c.2.4,1.8-1.1,1.8-1.6l.3-10.4c4.5,1.7,8,5.7,10.1,9.3h0Z"/>
          <path class="st23" d="M832.5,543.4l.5-10.6c1.3,0,4-.2,4.6.9s.7,3.5.6,4.5c-.3,3.5-2.8,5.5-5.6,5.1h0Z"/>
          <path class="st12" d="M829.4,550.5l-3.1.5c-.9,0-2.3-2.6-1.7-3.2l2.2-1.9,2.5,4.6h0Z"/>
        </g>
        <g id="left_eye">
          <path class="st11" d="M562.5,518c-4.2,1.2-11.6,12-14.5,18.8l-4.3,7.1c-3.5,3.5-6.1,8.1-8.3,12.8s-4,7.3-3.4,10.3l-1.6.8-9.3,14.6,6.1-.7c-1.7,11.8-12.9,19.5-23.2,21.6s-4.1,0-6-.3c-8.8-.7-15.1-6.6-13.1-9.9s6.2-2.5,10.2-1.4l5.2,1.4-5.3-3-1-2.7,1.6-2.6,4.6-8c9.1.3,17.4-4.1,22.2-12.3s6.3-13,6.3-20.4l-2.3-11c-1.1-5.4.2-12.7,4.7-16.5s11.9-5.1,17.7-7.3,10.5-3.7,16.8-1.8l-3.1,10.3v.2Z"/>
          <path class="st12" d="M600.7,525.2l10.4,5,5.4,3.4c4.4,2.7,8.1-.7,12.4-.9,6.8-.3,11.4,10.3,8.1,15.7-3.6.9-7.9.2-11.2-.4l-17.5-10.6c2.8,5.3,5.3,9,7.9,12.3l.9,4-5,2.2c-6.2-5.5-13-9.7-20.8-12-12.1-3.6-24.7-.8-35.2,6.3-.3-3.8-1.5-6.9-4-10.4l.6-6.5,5.1-4.3,10.5-4.8c10.9-2.8,22.7-3.7,32.4.9h0Z"/>
          <path class="st6" d="M532,567c.4,1.8,1.4,4.9.7,6.5l-4.8,12.1c2.6,2,5.9.7,8.2-1.4l8.9-8.2,3.2.8c.2,2,2,5.4,4,6.7,13.7,8.8,30.6,7.2,46.6,4.3,1.2.7,1.2,4.3,0,5.3-15.6,13.9-36.4,15.5-54.3,6.6l-1.1-1.4-9.2-5.9c-1.7,1.5-3.9,5.3-4,7.7l-.2,4h-6.2c-.7-.8-3.1-2.1-4.2-1.9l-15.6,3.7v-2.4c10.4-2.1,21.5-9.8,23.3-21.6l-6.1.7,9.3-14.6,1.6-.8v-.2Z"/>
          <path class="st6" d="M640.2,565.5c-5.2.7-9.5-.3-13.9-4.6l-.5,5.5-10.2-7.6c-.6-.5-2.8-1.2-3-1l-.3-1.8,5-2.2-.9-4c4.2,1.9,6.8,9,9.7,7.8s3.8-2.3,4.9-3.2l8-3.1c1.7-.7,2.5-4.6,3-7,.9-.4,3.1,1.7,3.8,3,5.3,9.4-1.8,17.8-5.6,18.3h0Z"/>
          <path class="st19" d="M625.9,548l5,6.3c-1.1.9-3.1,2.4-4.9,3.2-2.9,1.2-5.5-5.9-9.7-7.8-2.7-3.4-5.1-7-7.9-12.3l17.5,10.6h0Z"/>
          <path class="st14" d="M500.3,576.9l-4.6,8-1.6,2.6c-2.5-1.3-4.2-5.7-3-9.1,2.7-.9,6.7-1.6,9.2-1.5Z"/>
          <polygon class="st14" points="495.2 591.8 495.1 590.2 500.4 593.2 495.2 591.8"/>
          <path class="st17" d="M591.4,543.9l-.3,5.7c0,1-2,2.5-2.7,3-2.2-1.8-7.2-3.1-9,.3s1.3,4.5,3.3,4.7,3.9-1,5.8-2.4l3.7,1v8c0,0-1.3,0-1.3.3l-.2,2.2c-.3,3-2.7,6.3-5.2,8.6l-4,4.2c-4.7,0-9.6.9-14.2,0,0-.7-1.5-1-2.1-1l-3.4-.2-2.5-3.4c-2.8-3.3-4.1-6.7-5.9-11.7l-7.3,9.5-8,1.3c3.6-9,8.2-16,15.6-21.7l1.1-2.7,1.3.3c10.5-6.8,23.1-9.5,35.2-6.1h.1Z"/>
          <path class="st27" d="M612.5,564.6l2.4,5.5-3,5.2c-10,3.8-20.2,5.5-30.4,5.6l4-4.3c2.5-2.4,4.9-5.8,5.2-8.9.7-.2,1.6-1.8,1.6-2.6v-8.3l-1-4.5c7,1.9,12.2,5.4,17.7,9.8l3.5,2.5Z"/>
          <path class="st13" d="M625.7,566.4c1.9,1.4,3.1,3.4,4.1,6.6l-8.8-2.6-6.2-.3-2.4-5.5c1.1-2.2.7-4.6,0-6.9.3-.2,2.4.5,3,1l10.2,7.6h.1Z"/>
          <path class="st19" d="M561.8,579.7l-13.6-3-3.2-.8,1.2-2,7.3-9.9c1.8,5.1,3,8.7,5.9,12.1l2.5,3.6h-.1Z"/>
          <path class="st14" d="M544.5,599.5l-3.5,3.9c-2.3,2.5-6.1.6-7.2-1.5s-2.9-2.1-3.7-2c0-2.4,2.3-6.2,4-7.7l9.2,5.9,1.1,1.4h.1Z"/>
          <path class="st14" d="M530,603.9c0,1.2-1.9,2.3-3.4,2s-2.2-1.2-2.8-2h6.2Z"/>
          <path class="st19" d="M567.3,581s-1.2,1-1.4.6l-.7-1.7c.6,0,2.2.4,2.1,1h0Z"/>
          <path class="st13" d="M554.9,549.9l-1.1,2.8c-7.4,6-12,13.2-15.6,22.6l8-1.4-1.2,2-8.9,8.2c-2.3,2.1-5.5,3.4-8.2,1.4l4.8-12.1c.6-1.6-.4-4.7-.7-6.5-.6-3,2-7.4,3.4-10.3,4.9,1.3,9.3-1.7,12.9-4.4s4.8-1.9,6.6-2.3Z"/>
          <path class="st24" d="M612.2,556l.3,1.8c.7,2.3,1.1,4.7,0,6.9l-3.5-2.5c-5.5-4.4-10.6-7.9-17.7-9.8l.9,4.5-3.7-1.1v-2.8c.6-.5,2.6-2.1,2.7-3.1l.3-5.9c7.8,2.3,14.6,6.5,20.8,12h0Z"/>
          <path class="st26" d="M588.4,553v2.8c-1.8,1.4-4,2.7-5.7,2.4s-4.1-3.2-3.3-4.9c1.8-3.6,6.8-2.2,9-.4h0Z"/>
          <path class="st24" d="M592.3,565.2c0,.8-.9,2.4-1.6,2.6l.2-2.3c0-.3,1.2-.3,1.4-.3h0Z"/>
        </g>
      </g>
    </g>
    <g id="clothing-details">
      <g id="shadows">
        <g>
          <path class="st1" d="M192,1342H0v-148.8l8.9-.6c7.7-.6,15.4,1.3,22.2,4.9l40.4,21.2c26.4,16.5,48.5,37.2,69.5,60.1,17.4,19,33.5,38.1,48.7,58.8l2.3,4.5h0Z"/>
          <path class="st1" d="M339.8,1342h-71l-1.1-5.6-15-44.7-15.5-39.1-9-24.3c9.5,3.9,16.8,8.7,24.3,14.9,14.8,12.2,28.1,25.2,41.3,39.2,16.3,18.5,31.3,37.2,45.3,57.3l.7,2.2h0Z"/>
          <path class="st7" d="M1145.3,1164.5l25.6,72.1,1.3,4.7v100.7h-32.6c-1.6-5.2-2.4-10.5-2.4-16.3v-22.1l.9-43.5.9-31.9,4.3-62.8,2-.9h0Z"/>
          <path class="st25" d="M1127,1342h-46.1l-1.4-42.5-1.5-38.2c-1-34.1-4-67.1-2.6-102.9,15.6,37.1,26.8,74.1,35.6,112.3l16,71.3h0Z"/>
          <path class="st5" d="M1081,1039.3l.5,2c0,.3,1.2.5,1.2.5,9.1,13.4,17.7,27.3,25.1,41.8.4,1.7,1.4,3.6,2.8,4v1.9c.6,2.3,2.7,6.3,4.8,7.7v1.8c0,0,3.4,6.4,3.4,6.4l26.5,59-2,.9-4.3,62.8-.9,31.9-1,43.5v22.1c0,5.8.8,11.2,2.4,16.3h-12.5l-16-71.3c-8.8-38.3-20-75.2-35.6-112.3-1.4,35.8,1.6,68.8,2.6,102.9l1.5,38.2,1.4,42.5h-341.7c-31.8-62.4-65.5-149.2-68.6-219.2l-1-22.1-.6-23.8c0-3.5-5.8-9.6-9-8.6-5.2,1.7-5.1,8.4-5.4,12.5l-1.2,18.1-1.1,19.9-.6,55.1c0,3.6-1.3,8.1-3.5,10.8-2.2,2.8-7,3.3-10.2,2.2-88.1-28.8-207.3-125.1-275.9-189.5l-17.5-16.4-14.9-14.8-9.6-10.6,2-11c-9.7-7.6-14-30.3-10.2-29.4l4,.9c1.6.3,4.2.2,5.4-1.2,8,11.6,16.2,23.2,26.4,33.4l20.1,20.4c23.4,21.5,47.5,41,74.4,58,18.6,11.7,36.6,22.8,57.4,29.7,12.7,4.2,25.7,5.2,39,3.4,17.6-2.5,34-6.9,50.9-12.4l51.4-16.7,6.7-3.2,5.7,3.2,6.1,2.6c.7.6,2.4,2.3,3.4,2.9l17.9,10.1c1.8,1,4.8,2,6.5,2.4s2.2.2,3.2,0l39.9-10.9c15.5-4.3,21.3,19.7,30.8,29.8l22.4,18.1c23.9,19.3,49.4,35.6,75.4,52l21.3,11.5c2.9,1.6,7.1-.5,8-3.5,1.5-5.6.2-10.9-1.4-16.8,2.6,1.2,6.4,3.3,8.5,3.1,5.2-.6,6.5-5.8,7.3-9.4,1.4-5.9.4-11.8-1.5-18.3-9-30.7-21.3-59.7-35.1-88.5l-8.2-17.1-46.1-78.5-18.2-28.3,124.1,49.1c43.7,19,86.2,38.9,127.5,62.5,15.1,8.7,25.4,23.4,35.8,36h0ZM697.3,1109c-1,1.8-2.5,4.1-3.2,6.3-4.1,13.3-2.5,27.2,5.5,38.2,4.2,5.8,10.5,8.9,17.9,8,17.1-2.1,24.3-34.5,8.1-54.4s-9-6.7-14.7-6.6c-5.6,0-10.7,3.2-13.7,8.6h.1Z"/>
          <path class="st22" d="M285.5,921.6c-7.9,22.9,21.3,61.3,39,79.6l29.8,30.8,62.2,62.5c57.2,54.9,141.3,117.2,212.6,151.1l17.2,8.2c4.9,2.3,7.7,10.5,9.7,15.8l25.2,66,1.3,6.4h-342.7l-.7-2.2c-14.1-20.2-29-38.8-45.3-57.3-13.2-14-26.5-27.1-41.3-39.2s-14.8-10.9-24.3-14.9l9,24.3,15.5,39.1,15,44.7,1.1,5.6h-76.8l-2.3-4.5c-15.2-20.7-31.2-39.8-48.7-58.8-21-22.8-43.1-43.5-69.5-60.1l-40.4-21.2c-6.8-3.6-14.6-5.5-22.2-4.9l-8.9.6v-15.4l2.9-1.9,34.7-57.4c9.3-13.1,17.7-25.9,29.1-37.3l34.6-34.5c56.2-51.6,115.2-92.4,181-130.3l3.2,5.1h0Z"/>
          <path class="st18" d="M291.8,917.7l7.9,13.2,16.6,21,3.8,3.7,9.6,10.6,14.9,14.8,17.5,16.4c68.6,64.4,187.8,160.7,275.9,189.5,3.2,1,8,.5,10.2-2.2,2.1-2.7,3.4-7.2,3.5-10.8l.6-55.1,1.1-19.9,1.2-18.1c.3-4.1.2-10.8,5.4-12.5,3.2-1,8.9,5.1,9,8.6l.6,23.8,1,22.1c3.1,70,36.8,156.8,68.6,219.2h-56.6l-1.3-6.4-25.2-66c-2-5.3-4.8-13.5-9.7-15.8l-17.2-8.2c-71.3-34-155.4-96.3-212.6-151.1l-62.2-62.5-29.8-30.8c-17.8-18.4-47-56.8-39-79.6.6-1.8,4.7-4,6.3-3.8h0Z"/>
        </g>
        <path class="st3" d="M787.3,882.1l6.3,9.6,18.2,28.3,46.1,78.5,8.2,17.1c13.8,28.8,26.1,57.8,35.1,88.5,1.9,6.5,2.9,12.5,1.5,18.3l-1.4-.3-39.9-32.9-61.5-47.7c-9.6-7.5-19.6-13.3-30.3-18.7-6.5-3.2-13.8-3.8-20.6-2.2l1-12.7,3.4-25.9,4.2-45.9.6-30.7-7.3,5.8c1.7-3,4.5-5.8,7.4-7.5,6.8-4,13.3-8.6,18.4-14.5l1-1.2,6.3-5.9h3.3Z"/>
        <path class="st9" d="M379.3,760.5l-7.3,18.4-10.2,21.5-22.2,50.8-10.4,24.2-3.8,5.2-4.1,2c-5.3,3.2-7,7.5-6.5,13.3s2.7,13.4,6.5,19c-1.1,1.3-3.8,1.5-5.4,1.2l-4-.9c-3.8-.8.5,21.9,10.2,29.4l-2,11-3.8-3.7-16.6-21-7.9-13.2c-.9-2.3-2.1-4.6-3.2-6.2-5.5-13.2-1.4-26.3,8.5-36.6l28.5-29,30-50.7,4.8-8.9,15.5-26.2c1.2,0,2.7,0,3.4.3h0Z"/>
        <g>
          <path class="st1" d="M699.5,1153.5l9.8-2.1-5.3-6.6c-6.5-12.8-5.5-21.4-1.3-35l-5.4-.7c3-5.4,8.1-8.5,13.7-8.6,5.7,0,10.8,1.8,14.7,6.6,16.1,19.9,9,52.4-8.1,54.4-7.4.9-13.7-2.2-17.9-8h-.2Z"/>
          <path class="st18" d="M697.3,1109l5.4.7c-4.1,13.6-5.2,22.2,1.3,35l5.3,6.6-9.8,2.1c-8-11-9.5-24.9-5.5-38.2s2.2-4.6,3.2-6.3h0Z"/>
        </g>
        <g>
          <g>
            <path class="st2" d="M383.7,763.2c0,.6.4,1.5.9,1.6l1.5.4c3.8.9,8.2.8,12,0l2-.5c.3,0,.2-1.5.1-1.6h.7l3.5,1.3,3.1,16.1c1.8,16,6.6,29.6,14.3,43.6,14.3,26.2,32,49.5,52.3,71.6,44.8,48.9,110.7,93.2,167.5,128l5.8,3.8-6.7,3.2-51.4,16.7c-16.9,5.5-33.3,9.9-50.9,12.4-13.2,1.9-26.2.8-39-3.4-20.8-6.9-38.9-18-57.4-29.7-26.9-17-51.1-36.5-74.4-58l-20.1-20.4c-10.1-10.3-18.4-21.8-26.4-33.4-3.8-5.5-6-12.7-6.5-19,6.6-1.9,10.6-8.8,10.7-15.3l3.8-5.2,10.4-24.2,22.2-50.8,10.2-21.5,7.3-18.4,4.5,2.7h0Z"/>
            <path class="st21" d="M902.7,1122.3c-.8,3.6-2.1,8.7-7.3,9.4s-5.9-1.9-8.5-3.1c1.7,6,2.9,11.2,1.4,16.8s-5,5.1-8,3.5l-21.3-11.5c-26-16.3-51.5-32.7-75.4-52l-22.4-18.1c-9.6-10.1-15.3-34.1-30.8-29.8l-39.9,10.9c-1,.3-2.5.3-3.2,0l10.5-16.2,1.8-1.1c.3-.2,0-1.5,0-1.8l4-13.5c.5-.2,1.5-.5,1.5-1v-1.6c0,0,1.3-7.2,1.3-7.2,1.5-.7,2.3-3.2,2.7-5.1l2.1-10.3c2-1.6,2.9-5.2,3.6-8l2.3-9.2,1.8-5.7c.6,0,1.4-.4,1.5-.9l.3-1.5,1-5.3,1.7-.8c.3-.2,0-1.3,0-1.6l1.1-5.3c.6,0,1.7-.3,1.8-.8v-1.5c0,0,.3-2.5.3-2.5.5,0,1.6-.3,1.6-.8v-1.5l.3-2.6c1.4-.4,2.6-3.2,2.7-4.9v-2.8c0,0,2.5-5.2,2.5-5.2.4-.8,1.3-2.9,2.1-3.7l8.2-8.4,6.7-6.5,7.3-5.8-.6,30.7-4.2,45.9-3.4,25.9-1,12.7c6.8-1.7,14.1-1,20.6,2.2,10.7,5.3,20.7,11.2,30.3,18.7l61.5,47.7,39.9,32.9,1.4.3h.1Z"/>
          </g>
          <path class="st7" d="M325.4,880.5c0,6.5-4.1,13.4-10.7,15.3-.5-5.8,1.2-10,6.5-13.3l4.1-2h.1Z"/>
          <path class="st7" d="M288.6,911.6c1.1,1.6,2.3,3.9,3.2,6.2-1.7-.2-5.7,2-6.3,3.8l-3.2-5.1c.9-2.4,3.1-4.5,6.3-4.9Z"/>
        </g>
      </g>
    </g>
  </g>
</svg>