<?xml version="1.0" encoding="UTF-8"?>
<svg id="Layer_1" xmlns="http://www.w3.org/2000/svg" xmlns:inkscape="http://www.inkscape.org/namespaces/inkscape" version="1.1" viewBox="0 0 923.5 1152">
  <!-- Generator: Adobe Illustrator 30.5.1, SVG Export Plug-In . SVG Version: 2.1.4 Build 3)  -->
  <defs>
    <style>
      .st0 {
        fill: #835f1f;
      }

      .st1 {
        fill: #c74b1a;
      }

      .st2 {
        fill: #7e2042;
      }

      .st3 {
        fill: #c99d2c;
      }

      .st4 {
        fill: #a71f39;
      }

      .st5 {
        fill: #274465;
      }

      .st6 {
        fill: #cfa74e;
      }

      .st7 {
        fill: #872b4d;
      }

      .st8 {
        fill: #e5a88b;
      }

      .st9 {
        fill: #d6bb62;
      }

      .st10 {
        fill: #0c4987;
      }

      .st11 {
        fill: #fef7f2;
      }

      .st12 {
        fill: #882c4e;
      }

      .st13 {
        fill: #832c4f;
      }

      .st14 {
        fill: #42291d;
      }

      .st15 {
        fill: #241000;
      }

      .st16 {
        fill: #3a2a16;
      }

      .st17 {
        fill: #114a86;
      }

      .st18 {
        fill: #c9a446;
      }

      .st19 {
        fill: #65315d;
      }

      .st20 {
        fill: #214383;
      }

      .st21 {
        fill: #eeb557;
      }

      .st22 {
        fill: #a81f38;
      }

      .st23 {
        fill: #caab57;
      }

      .st24 {
        fill: #61315d;
      }

      .st25 {
        fill: #3c4262;
      }

      .st26 {
        fill: #d2a52a;
      }

      .st27 {
        fill: #bf9e4e;
      }

      .st28 {
        fill: #cc4039;
      }

      .st29 {
        fill: #d8b240;
      }

      .st30 {
        fill: #e7ccbb;
      }

      .st31 {
        fill: #483764;
      }

      .st32 {
        fill: #3e3c68;
      }

      .st33 {
        fill: #f6ca48;
      }

      .st34 {
        fill: #d1a641;
      }

      .st35 {
        fill: #c6531a;
      }

      .st36 {
        fill: #dcd3ca;
      }

      .st37 {
        fill: #5c382b;
      }

      .st38 {
        fill: #bc7e63;
      }

      .st39 {
        fill: #814533;
      }

      .st40 {
        fill: #c9816b;
      }

      .st41 {
        fill: #204382;
      }

      .st42 {
        fill: #0d4a89;
      }

      .st43 {
        fill: #8f1d44;
      }

      .st44 {
        fill: #c9a447;
      }

      .st45 {
        fill: #e8cdbc;
      }

      .st46 {
        fill: #5e2d4c;
      }

      .st47 {
        fill: #253a3a;
      }

      .st48 {
        fill: #3a3d6a;
      }

      .st49 {
        fill: #bc7d62;
      }

      .st50 {
        fill: #bb7e63;
      }

      .st51 {
        fill: #fdf6f0;
      }

      .st52 {
        fill: #872b4c;
      }

      .st53 {
        fill: #e6cbb9;
      }

      .st54 {
        fill: #bd7e62;
      }

      .st55 {
        fill: #be9e45;
      }

      .st56 {
        fill: #caa337;
      }

      .st57 {
        fill: #7a5212;
      }

      .st58 {
        fill: #d9a935;
      }

      .st59 {
        fill: #3b221b;
      }

      .st60 {
        fill: #8d2a4a;
      }

      .st61 {
        fill: #a38383;
      }

      .st62 {
        fill: #2c1702;
      }

      .st63 {
        fill: #f6cc51;
      }

      .st64 {
        fill: #d8ab21;
      }

      .st65 {
        fill: #fed342;
      }

      .st66 {
        fill: #473667;
      }

      .st67 {
        fill: #d7aa1e;
      }

      .st68 {
        fill: #8f1c45;
      }

      .st69 {
        fill: #314252;
      }

      .st70 {
        fill: #683e2b;
      }

      .st71 {
        fill: #854e37;
      }

      .st72 {
        fill: #fed634;
      }

      .st73 {
        fill: #050917;
      }

      .st74 {
        fill: #3a4546;
      }

      .st75 {
        fill: #bd7961;
      }

      .st76 {
        fill: #874f39;
      }

      .st77 {
        fill: #120e0d;
      }

      .st78 {
        fill: #663c2b;
      }

      .st79 {
        fill: #214382;
      }

      .st80 {
        fill: #e7c9b7;
      }

      .st81 {
        fill: #5c3829;
      }

      .st82 {
        fill: #6f2f58;
      }

      .st83 {
        fill: #f6c129;
      }

      .st84 {
        fill: #403566;
      }

      .st85 {
        fill: #f8f4ed;
      }

      .st86 {
        fill: #d4ad46;
      }

      .st87 {
        fill: #fabe47;
      }

      .st88 {
        fill: #67315b;
      }

      .st89 {
        fill: #fdcd4f;
      }

      .st90 {
        fill: #413568;
      }

      .st91 {
        fill: #7f2d52;
      }

      .st92 {
        fill: #7e2c51;
      }

      .st93 {
        fill: #c7acab;
      }

      .st94 {
        fill: #423464;
      }

      .st95 {
        fill: #7d2e52;
      }

      .st96 {
        fill: #214384;
      }

      .st97 {
        fill: #bd7e63;
      }

      .st98 {
        fill: #efb43f;
      }

      .st99 {
        fill: #cfaa3b;
      }

      .st100 {
        fill: #e5a98c;
      }

      .st101 {
        fill: #513463;
      }

      .st102 {
        fill: #433b65;
      }

      .st103 {
        fill: #683e2c;
      }

      .st104 {
        fill: #e4a98c;
      }

      .st105 {
        fill: #423113;
      }

      .st106 {
        fill: #563462;
      }

      .st107 {
        fill: #82213f;
      }

      .st108 {
        fill: #3f4260;
      }

      .st109 {
        fill: #41366a;
      }

      .st110 {
        fill: #fed638;
      }

      .st111 {
        fill: #e4a88b;
      }

      .st112 {
        fill: #872b4e;
      }

      .st113 {
        fill: #c84e1c;
      }

      .st114 {
        fill: #0c4a8b;
      }

      .st115 {
        fill: #bc524f;
      }

      .st116 {
        fill: #c54d1a;
      }
    </style>
  </defs>
  <g id="background" inkscape:groupmode="layer" inkscape:label="Background">
    <path class="st36" d="M1,0h922v857q-12-6.5-16.6-9.3c-37.7-22.7-78.1-42-118.1-60.2-5.8-2.7-11.6-5.4-17.4-8.1-19.5-9.2-39-18.2-58.7-26.9-.7-.3-1.5-.6-2.2-1-8.5-3.8-17.1-7.5-25.7-11-14.5-6-28.1-12.2-40.7-21.7-7.3-5.1-14.9-7.2-23.5-8.8q-1.2-45.7-1-61.2c0-3,0-6,0-9,0-5.1,0-10.2,0-15.2,0-2,0-4.1,0-6.1,0-11.7.5-20.9,6.2-31.2,7.2-13.2,8.8-29.1,11.3-43.6q.5-2.6,1.5-5.6.3.1,1.7.7c5.1,1.9,9.9,3.6,15.3,2.3,9.6-4.5,14.3-12.5,19.2-21.4.3-.6.7-1.2,1-1.8,9.3-17.7,10.3-37.8,10.5-57.3q.1-11.5,1.3-15.5c1.4-5.6,1.2-11,1.2-16.8,0-1.2,0-2.4,0-3.7,0-8.5-.3-17-.6-25.4,0-1.1,0-2.1-.1-3.2,0-1,0-2-.1-3q0-.4-.1-2.6t-1.2-5.2c-3.7-1.6-8.1-1.5-12-1-3.9,1.5-7.3,3.8-10,7,.6-3.3,1.4-6.5,2.4-9.7q.1-.4.8-2.6c.5-1.8,1.1-3.6,1.7-5.4q.1-.4.8-2.6c.2-.8.5-1.6.7-2.4,1.8-6.3,1.8-12.2,1.8-18.6,0-1,0-2,0-3,0-5.8-.4-11.4-1.2-17.1-1.6-11.2-1.4-22.4-1.5-33.7-.1-17.3-1.1-34.8-6.1-51.4-.2-.9-.5-1.7-.8-2.6-5.8-18.6-14.9-36-29.7-48.9-.7-.3-1.3-.7-2-1-.5-2.8-.9-5.5-1.3-8.3-2.7-17.8-11.2-33.8-25.7-44.8-4.6-3.4-9.3-6.6-14-9.9-3-2.1-5.9-4.1-8.9-6.2-.7-.5-1.4-1-2.1-1.5-4.2-3-8.2-6.1-12.1-9.5-36-30.5-89.6-35.9-134.9-32.7-40.8,3.5-82.9,18.5-112.9,46.8q-.4.3-2.2,2c-13.2,12.6-21,29.7-28.3,46.2-1.3,2.9-2.6,5.8-3.9,8.7-.3.7-.6,1.4-1,2.1-2.5,5.6-5.2,11.2-7.9,16.7-3.2,6.6-5.9,13.1-7.8,20.2-.3,1.2-.7,2.3-1,3.5-1.4,5.7-1.9,11.6-2.4,17.5-.1,1.3-.2,2.5-.4,3.8-.7,6.8-1.3,13.6-1.9,20.4-.2,2-.4,4.1-.6,6.1-.1,1.4-.2,2.7-.4,4.1-.7,7.6-1.5,15.1-2.6,22.7-3.7,25.4-1.4,49.8,3.9,74.8.5,2.7.5,5.3.4,8.1-.5-.4-.9-.7-1.4-1.1-.6-.5-1.2-.9-1.9-1.4-.6-.5-1.2-.9-1.9-1.4-3.8-2.5-7.4-2.5-11.8-2.2q-2.4.9-4,3c-.6,5.5.2,10.4,1,15.9,1.3,9.9,1.3,19.8,1.2,29.7,0,3.1,0,6.3,0,9.4,0,2,0,4,0,6s0,1.9,0,2.8c0,4.2-.2,8.1-1.2,12.2-1.9,26.8,2.5,51.2,19,72.8,3.9,4.2,9.2,6.8,15,7.4.7,0,1.4,0,2.2,0q.4,0,2.1,0c4.1-.5,7.9-1.9,11.7-3.3.1.6.2,1.3.3,2q6.5,41.3,15.8,56.8c1.3,3.1,1.4,5.9,1.5,9.3,0,.7,0,1.5.1,2.2.5,11.5.7,23.1.9,34.7,0,1.2,0,2.5,0,3.8.3,16,.5,32,.6,48,0,1.8,0,3.6,0,5.4,0,2.5,0,5,0,7.4,0,.7,0,1.4,0,2.2,0,3.7-.2,5.1-2.2,8.3q-2.6.9-5.9,1.8c-10.8,3.2-19.4,9.2-28.2,16-10.7,8.2-22.7,13.7-35.1,18.8-23.5,9.8-46,21-68.2,33.3-5.9,3.2-11.8,6.4-17.7,9.6-9.3,4.9-18.4,9.9-27.6,15.1-8.9,5.1-17.9,9.9-27,14.6-8.7,4.5-17.2,9.1-25.8,13.8-3.8,2.1-7.6,4.1-11.4,6.2q-38.3,20.5-55.1,32.8-1.2.8-7,5V0Z"/>
  </g>
  <g id="subject" inkscape:groupmode="layer" inkscape:label="Subject">
    <g id="face_base" inkscape:label="Head and face">
      <g id="neck" inkscape:label="Neck">
        <path class="st100" d="M619,601h1c0,.8,0,1.5,0,2.3,0,21.2,0,42.4,0,63.6,0,1.9,0,3.8,0,5.8,0,6,0,12.1.1,18.1,0,1.7,0,3.4,0,5.1,0,2.3,0,4.6,0,6.9q0,.6,0,3.8c.8,4.2,2.5,5.6,5.7,8.2.6.5,1.1,1.1,1.7,1.6.5.5,1,.9,1.5,1.4q11.2,10.3,11.7,17.6v2.5c0,.9.1,1.8.1,2.7.5,15-4.9,29.7-11.9,42.7q-1.2,2.6-1.6,5c-.8,3.5-2.6,6.2-4.6,9.1-.4.6-.8,1.2-1.2,1.9-4,6-8.3,11.9-12.8,17.6-.5.6-.9,1.2-1.4,1.8-7.3,9.2-14.9,18-23.1,26.5-2.4,2.6-4.8,5.2-7.1,7.8-2.8,3.2-5.7,6.3-8.8,9.4-.8.9-1.7,1.7-2.6,2.6q-2,1.9-3,1.9v-5c-10-1.2-20-2.2-30.1-2.7q-5.5-.2-8.1-.8c-20.5-3.8-43.1-1.6-63.9-1.6-4.7,0-9.5,0-14.2,0-9.2,0-18.5,0-27.7,0-.3-.6-.6-1.3-.9-2-1.4-3-2.8-5.9-4.2-8.9q-.2-.5-1.4-3.1c-3.1-6.4-6.3-12.7-9.8-18.8q-10.5-18.7-8.6-27.2c2.5-3.3,4.1-4.7,8-6,1.5,0,2.9-.1,4.4-.1.8,0,1.5,0,2.3,0q2.4.1,4.6.6c17.1,3.1,39.4.6,54.1-9,2.3-1.8,4.5-3.6,6.7-5.5,1-.8,2-1.7,3.1-2.5,5.3-4.4,10.5-8.9,15.6-13.6,4.4-4.1,9-7.9,13.6-11.7,1.8-1.5,3.7-3,5.5-4.5,4.4-3.7,8.7-7,13.6-10,6.7-4.1,12.3-9.2,18.2-14.3,1.9-1.7,3.8-3.4,5.8-5.1,1.2-1.1,2.5-2.2,3.8-3.3.7-.7,1.5-1.3,2.2-2,5-4.4,9.8-9,14.6-13.6q.3-.3,1.6-1.6c7.2-7.1,10.8-15.4,14.5-24.6,9-21.5,18.9-42.6,29.9-63.1,1.1-2,2.1-4.1,3.1-6.1Z"/>
        <path class="st49" d="M310,596c15.5,20.3,24.7,48,33.8,71.7q8.9,22.8,16.2,30.4c.5.5.9,1,1.4,1.5,27.7,28.2,58.7,49.3,99.1,49.8,1.4,0,2.9,0,4.3,0,.7,0,1.5,0,2.2,0,15.7,0,30.1-2.1,44.9-7.7q2.1-.6,4.1.4c-.8.7-1.7,1.4-2.5,2.2-6.4,5.5-12.8,11-19.2,16.5-.6.5-1.3,1.1-1.9,1.6-3.6,3.1-7.1,6.2-10.5,9.4-19.3,17.4-38.4,22.2-63.8,21.4-2.4-.2-4.7-.6-7-1.1-5.8-.5-10-.2-15,3-2.2,4.3-1.6,9.2-.1,13.7,3.2,7.7,7,15,11.1,22.3q13.1,23.6,13.1,28.1c-.6,0-1.1.1-1.7.1-5.7.5-11.4,1-17.1,1.5-2.1.2-4.2.4-6.4.6-3.1.3-6.1.5-9.2.8-.9,0-1.9.2-2.9.2-.9,0-1.8.2-2.7.2q-.4,0-2.6.2c-2.3.2-4.6.6-6.9,1q-3.6.2-5.9-1c-.6-.6-1.2-1.2-1.8-1.9-.7-.7-1.3-1.4-2-2.1-.7-.7-1.3-1.5-2-2.2-.7-.7-1.3-1.4-2-2.1-3.9-4.1-7.6-8.3-11.3-12.6-1.9-2.2-3.9-4.2-5.9-6.3-23.9-25.2-44-56.3-47.8-91.5.7-7.2,2.4-11.4,7-17,.4-.8.8-1.5,1.2-2.3,2.2-3.4,5-6,8-8.7,3.4-3.8,2.9-8.1,2.9-13s0-1.5,0-2.2c0-2.5,0-5,0-7.5v-2.6c0-31.5-.6-63.1-1.1-94.6Z"/>
      </g>
      <path class="st104" d="M689.3,431.6c0-1.2,0-2.4,0-3.5,0-8.6-.2-17.2-.5-25.8,0-1.1,0-2.2-.1-3.3,0-1.1,0-2.1,0-3.2,0-1,0-2-.1-3q0-2.6-.4-4.8-2-3-3.6-4.2c-6.7-2.3-12-1.1-17,3.8l-2.4,2.4h-.9c7.9-17.6,11.1-36.7,8.5-56.5-1.6-11.6-1.9-23-2-34.7-.1-17.6-.8-35.2-5.6-52.3q-.6-1.9-.7-2.3c-5.4-18.2-14.3-37.9-29.3-50.2q-2.2-.8-4-2c-.2-1-.4-2-.5-3,0-3.7-.2-7.3-.5-11-4.1-21.3-19-35.2-36-47-2-1.4-4-2.8-6.1-4.2-.7-.5-1.5-1-2.2-1.5-5-3.5-9.8-7.1-14.6-10.9-32.9-26.9-74-36.6-115.9-36.7l-36.3,2.4c-34.4,5.6-74.4,17.6-99,43.8-.7.7-1.3,1.5-2,2.2-15.5,16.1-24.1,34.7-33.3,54.8-2.1,4.5-4.1,9-6.2,13.5-.5,1.1-1,2.2-1.5,3.3-1,2.1-2,4.2-3,6.3-7.1,14.8-9.6,29.9-10.9,46.2-1,12.9-2.3,25.8-4,38.7-3.4,25.8-4.1,49.6.5,75.4.2,1,.4,1.9.5,2.9.9,4.9,1.7,9.8,3.3,14.4-.4.2-.8.4-1.3.6-2.7-2.7-5.6-4.5-9-6-5.3-.7-8.5-.3-12,4-.4,3.3-.4,5.8,0,9,1.7,11.2,2.3,22.1,2.2,33.5,0,3.1,0,6.2,0,9.3s0,4.1,0,6.2c0,1,0,2,0,3,0,4.3,0,8.5-.7,12.8-4.5,19.8,0,43.5,9.7,61.1q1.5,2.6,1.8,3.1c2.2,3.8,4.3,7.5,7,11,4.8,4.2,10,7.5,16.5,8.3,5.5,0,10.2-.7,14.5-4.3,0,0,0,0,0,0,3.2,21.6,7.6,42.6,17.6,62.6.6,1.1,1.1,2.2,1.7,3.2,2.6,5.2,5.2,10.4,7.9,15.5,7.4,14.5,14.2,29.3,20.1,44.5q.7,1.7.8,2c1,2.6,2.1,5.3,3.1,7.9,4.4,11.6,9.3,23.8,18.7,32.4q1.8,1.5,2.2,1.9c4.1,3.6,8.2,7.1,12.3,10.6.6.5,1.1,1,1.7,1.4,2.7,2.2,5.3,4.5,8,6.7q2.5,2,3,2.3c14.3,11.4,27.5,20.3,45.7,23.6.8.1,1.5.3,2.3.4,8.1,1.7,16,2.3,24.2,2.3,2.2,0,4.3,0,6.5,0,30.6.2,54.2-9.7,77.2-29.5,1.1-.9,2.1-1.8,3.2-2.8,5.1-4.4,10-8.8,14.8-13.6.8-.8,1.5-1.5,2.3-2.3,8.2-8.1,15.3-15.6,19.7-26.5.8-2.1,1.6-4.1,2.4-6.2q1.1-2.7,1.3-3.2c1.9-4.7,3.9-9.3,6.1-13.9.4-.8.7-1.6,1.1-2.3,4.7-9.9,9.6-19.6,14.6-29.4,1.5-3,3.1-6,4.6-9,.8-1.5,1.5-3,2.3-4.6,8.8-17.2,15.1-33.5,18.4-52.5.3-1.7.6-3.3.9-5,.7-3.8,1.4-7.6,2-11.3,1,.5,1.1.5,1.3.6q2,.9,2.4,1.1c4.6,2.1,7.7,2.5,12.8,2,7.8-3.3,13-9.8,17.3-16.9.6-1.1,1.2-2.1,1.7-3.1,10.6-18.4,12.5-38.9,12.7-59.7,0-5.2-.3-10.5.8-15.6,1.5-5.2,1.8-9.7,1.8-15.1Z"/>
    </g>
    <g id="face_details" inkscape:label="Face">
      <g id="face_base1" data-name="face_base" inkscape:label="Face base">
        <path class="st8" d="M534.2,210.4c8.9,1.9,17.9,3,27,4,14.2,1.7,27.7,5.2,38.2,15.5,7.6,9.9,10.5,25.1,13.7,37.1q.1.5.8,2.8c2.7,10,2.4,19.6,2,29.8-.5,16.8,4,30.8,10.3,46.2,5.7,13.9,8.1,25.5,8.1,40.6.1,18.5,2.6,35.1,7.4,52.9,7,26.6-9,57.9-21.8,80.5-4.8,8.2-10.5,15.8-16.3,23.3-1.3,1.8-2.7,3.5-4,5.2-3.4,4.4-6.8,8.9-10.3,13.2-5.3,6.5-10.4,13.1-15.2,20-.5.7-.9,1.3-1.4,2-2.5,3.7-4.7,7.4-6.6,11.4h-2q0-.3-.5-1.8-8.4-33.3-24.4-42.9c-5-2.6-10.1-4.7-15.4-6.6-5.2-1.9-9.7-4.3-14.4-7.2q-16.5-10.2-26.3-8.4c-1.6.6-3.2,1.3-4.8,2-6,2.7-11.8,2.4-18.3,2v-2c1.7-1.1,3.5-2.1,5.3-3.1,4.3-2.4,8.3-5,12.3-8,7.8-5.8,14.5-9.4,24.4-9.9v1q8,1.6,12.1-.9c.6-.7,1.3-1.4,1.9-2.1q-.2-1.9-1-4c-4.4-3.2-10.1-4.8-15.6-4.6-6.2,1.5-11.6,5.6-16.8,9.2-6.1,3.9-11.5,4.5-18.7,3.4-11.2-3.3-21.1-13.6-29-22-1.6-4.9-1.6-9.1.6-13.8.7-1.3,1.4-2.7,2.1-4,1.5-2.7,2.9-5.4,4.2-8.2.4-.7.7-1.4,1.1-2.1,3.4-7.3,3.8-14.8,4.3-22.7.3-4,.6-8,.9-12,0-.8.1-1.6.2-2.4.6-7.6,1.5-15.1,2.6-22.6,1.6-11.1,1.5-20.1-4.8-29.8-3.8-5-7.9-9-13-12.7-2.3-1.7-4.5-3.5-6.7-5.4-16.8-12.8-44.2-12.3-64.2-10-8.6,1.4-16.3,4.2-24,8.4q-2.3,1.3-5.3,2.3c.3-6.3.7-12.5,2.4-18.6,3.3-12.1,4.7-24.6,5.6-37,0-1,.1-2,.2-3,.3-4.1.6-8.1.8-12.2.2-3,.4-6,.6-9,0-.9.1-1.8.2-2.8.7-8.2,4.5-13.1,10.5-18.5,1.2-1,2.4-1.9,3.6-2.8.7-.5,1.3-1,2-1.5,49.2-37.9,115.2-51.8,175.4-38.1ZM502,362q1,3,2.8,4.2t2.2,1c.7.3,1.5.7,2.2,1q.3.1,1.7.8c-.4.4-.9.9-1.4,1.3-6.2,6.5-10.8,14.4-11.1,23.6.3,3.7.8,6.3,3.5,9.1,5.7,1.7,11.3,2.5,17.2,3.1,1.6.2,3.1.3,4.7.5.7,0,1.4.1,2.1.2q2.1.3,4.5.8c2.7.5,5.2.6,7.9.6,1,0,2,0,3,0,1,0,2.1,0,3.1,0s2.1,0,3.1,0c1,0,2,0,3,0h2.8c4.7-.2,9.2-1.5,13.7-2.6,1-.3,2.1-.5,3.1-.8,1.9-.5,3.8-1.1,5.7-1.7q2.7.4,5,1v-2c.5.2,1,.3,1.5.5,3.5.7,6.9.6,10.5.5-2.8-8.6-10.8-13.6-18.5-17.7-9.4-4.4-19.4-7.9-29.5-10.3,4.7,0,9.4-.1,14.1-.2,1.6,0,3.2,0,4.8,0,14.4-.2,27.5,1.3,41.2,6.2h3c0-7.4-4-11.8-9-17-5.8-5.5-12.6-8.3-20-11-.8-.3-1.7-.6-2.6-1-20.6-6.9-57-3.3-74.4,10Z"/>
      </g>
      <g id="face_shadows" inkscape:label="Face shadows and highlights">
        <path class="st8" d="M370.6,364.3q1.8,1.6,3.2,3.2c1.6,1.8,3.2,2.6,5.3,3.5v2c-1,.4-1.9.7-2.9,1.1-10.8,4.1-23.5,9-30.1,18.9-1.7,7.5,2.2,13.6,6,20,4.2,6,9.1,8,16,10,4.7.6,9.3.9,14,1v-2c-.8,0-1.6-.2-2.5-.2-11-2.3-19.4-9.6-25.5-18.8q.2-2.6,1-5c2.6-1.3,3.5-.8,6.3,0q28,7.2,40.7,3,20.9-3.9,30,2.3c.6.6,1.3,1.1,2,1.7q.3.2,1.6,1.4c2.3,2.7,1.8,5,1.7,8.4-.6,6.3-2.1,12.4-3.5,18.5-.5,2.3-1.1,4.7-1.6,7q-6.1,27.4-12.6,37.7c-.8,1.3-1.6,2.6-2.3,4-.4.7-.8,1.3-1.2,2q-18.9,32.9-17.2,49,.8,2.2,2,4t4.1,1.2q.6.1,3.9.8c-3.1,3.4-6.8,4.6-11,6.2-11,4.4-20.7,9.8-26,20.8-2.2,5.3-4.1,10.6-6,16-1.8-2.7-2.8-4.8-3.8-7.8-.4-1-.7-1.9-1.1-2.9-.4-1-.8-2.1-1.2-3.1-7.2-19.5-15.5-37.8-26-55.7-8.6-14.8-15.7-30.1-20.9-46.4-.4-1.1-.8-2.2-1.1-3.3-1.1-5-1.2-9.7-1.1-14.8,0-1,0-2.1,0-3.1,0-7,.5-13.8,1.8-20.7.5-2.6,1-5.3,1.4-7.9,1.2-6.8,2.5-13.5,4-20.2.2-1.1.5-2.3.7-3.4.7-3.3,1.5-6.6,2.4-9.9.2-1,.5-2,.7-3,1.2-4.2,2-6.8,5.7-9.4,2.8-1.3,5.5-2.3,8.5-3.3,1.6-.6,3.2-1.2,4.8-1.8,8.2-2.7,21.6-5.1,29.7-1Z"/>
        <path class="st97" d="M398.5,209.8c1.3,0,2.6,0,4,0,3.4,0,6.9,0,10.3,0,3.5,0,7.1,0,10.6,0,6.9,0,13.8,0,20.6.1-2.9,2-4.9,2.6-8.3,3.5-27.7,7.7-52.8,18.1-75.7,35.5q-.3.2-1.6,1.2-12.4,9.5-13.9,15.9c-.3,2.6-.5,5.1-.6,7.7,0,.9-.1,1.9-.2,2.9-.2,2-.3,4-.4,6.1-.4,5.2-.8,10.4-1.2,15.7,0,1-.2,2-.2,3.1-1,12.1-2.4,24.5-5.9,36.2-1,3.6-1.1,6.8-1.2,10.5q-.4,6.5-3,9.8c-.9.7-1.8,1.4-2.7,2.1q-1.2,1.6-2.3,3.3c-.3.5-.7,1-1,1.6q-.7,2.1-.6,5.7c.1,5.6-1.7,10.6-3.3,15.9-2.7,9.1-4.9,18.2-6.7,27.6q0,.5-.6,3.2c-3.6,19.4-5.2,39.3,2.5,57.9.3.8.6,1.6,1,2.4,6.2,15.7,13.7,30.7,22.5,45,8.6,14.8,14.9,30.7,20.9,46.6.5,1.2.9,2.4,1.4,3.6q.2.6,1.3,3.4c.4,1,.8,2,1.2,3.1.8,3,.6,4.8-.3,7.8-3.3-3.2-6.3-6.4-9.1-10-3.4-4.2-6.8-8.3-10.2-12.4q-.2-.3-1.4-1.7c-2.3-2.7-4.6-5.4-6.9-8-8.2-9.1-14.3-19.3-20.3-30-.5-.9-1.1-1.9-1.6-2.8-3.6-6.4-7-12.8-10.4-19.2-.4-.7-.7-1.4-1.1-2-4.2-8.1-7.3-16.6-10.2-25.2-.3-1-.7-2-1-3-5-15.2-5.8-28.5-2.2-44.1.5-2.1.9-4.1,1.4-6.2q0-.4.6-2.7c1.1-5.1,1.7-9.8,1.6-15.1,0-1.2,0-2.5,0-3.8,0-.7,0-1.3,0-2,0-2.8,0-5.6,0-8.4,0-5.2-.1-10.4-.2-15.6,0-3.6-.1-7.2-.1-10.9,0-2,0-4.1,0-6.1,0-12.1,3.9-20.4,10.1-30.5,2.4-4.3,4-8.8,5.4-13.5.2-.7.4-1.4.7-2.2,2.2-8.3,2-17.6.8-26.2q0-.6-.5-3.7c-.1-.7-.2-1.4-.3-2.1-1.4-15.5,14.5-35.8,23.5-47.5,16.5-19.4,41-22.7,65.3-22.5Z"/>
      </g>
      <g id="nose" inkscape:label="Nose">
        <path class="st54" d="M433,359c9.6,4.7,15,12.2,19,22,2.2,7.5.8,15.2-.3,22.8-1.1,7.4-1.9,14.9-2.4,22.4,0,.8-.1,1.6-.2,2.4-.3,4-.6,8-.8,11.9-.6,8.1-1.5,15.2-5.3,22.5-.4.7-.7,1.4-1.1,2.2-1.4,2.7-2.8,5.4-4.3,8-2.3,4.4-3.1,7.7-2.7,12.8,4.2,9.8,16.4,18.4,25.5,23.1,7.6,2,14.1,2.1,21.1-1.7,2.7-1.6,5.3-3.4,8-5.1,5.6-3.6,9.7-5.7,16.4-4.3,4.2,1.4,7.9,2.9,11,6,0,2.9-1.1,4.1-2.9,6.3-4.5,2.5-8.2,1.6-13.1.7l1-2c2.3-.4,4.7-.7,7-1v-5c-5.5-1.8-10.9-1.8-16.1.6-4.1,2.3-7.5,5.2-10.9,8.4h7c-2.9,2.3-6,4.3-9.1,6.2-3.8,2.4-7.5,4.9-11.2,7.6q-6.7,4.7-10.7,5.2c-1.7-.7-3.4-1.4-5-2.2-8.9-3.5-19.6.8-28,4.2-2.5,1.2-4.9,2.6-7.4,3.9-4.4,2.3-7.3,3.6-12.3,2.8-2.9-.9-4.2-1.6-6.4-3.8-3.4-11.2,1.6-22.7,6.1-32.9,1.6-3,3.4-5.9,5.1-8.8,2.9-5,5.5-10.3,8-15.5,1.1-2.1,2.1-4.2,3.3-6.3,4.6-8.2,6.4-17.3,8.6-26.4q.1-.6.8-3.4c.9-3.7,1.7-7.4,2.5-11.1.3-1.2.5-2.4.8-3.6q2.9-13.2,1.9-19.9c-2.1-2.5-4.2-3.6-7.1-5.1-.8-.4-1.5-.8-2.3-1.2-.8-.4-1.6-.8-2.4-1.3-2.4-1.4-4.3-3-6.3-4.9-4.4-4.1-9.8-8.5-16-8.5q-.2-.3-1-2c-9.3-3.8-19.7-2.8-29,.7-6.4,2.9-13.2,6.1-18,11.3,2,8.4,5.6,13.7,13,18.2,4.8,2.8,9.7,4.9,15,6.8v2c-9.6.6-17.7.2-26-5-4.1-4-6.7-8.8-9-14-.4-.6-.8-1.2-1.2-1.9-1.3-3.5-1.7-6.5-.8-10.1,6.8-10.2,20.5-16.8,32-20h2v-2c-.7-.2-1.4-.4-2.2-.7-3.3-1.6-5.3-3.7-7.8-6.3.8,0,1.5.1,2.3.2,19.1,1.6,39.1,2.7,57.7-2.2q.4,0,2.4-.6c.5-.1,1.1-.3,1.6-.4v-2ZM421,502q.6,1.9,2,4,3.2,1.1,7.1,2c5.4,1.3,10.3,2.8,15.3,5.4.5.2,1.1.4,1.6.6.7-.3,1.3-.7,2-1q-10.4-11.4-18.7-12.3-6.6,0-9.3,1.3Z"/>
        <path class="st76" d="M507.5,501.7q1.6,1.3,2.4,3.9c0,.8.1,1.6.2,2.4-2,2-5.8,1.6-8.6,1.9-4.5.5-8.8,1-13.2,2.2-3.2.8-4.2.7-7.2-.2,7.8-7.4,15.2-13.5,26.4-10.3Z"/>
        <path class="st71" d="M435.2,501.6c5.7,2.6,9.7,6.8,13.8,11.4q-.3.2-2,1c-1.8-.7-3.6-1.5-5.4-2.2-5.3-2.4-10.5-3.8-16.2-4.9q-2.4-.9-3.7-3c-.2-.6-.4-1.3-.7-1.9,4.2-2.1,9.7-1.7,14.2-.4Z"/>
      </g>
      <g id="ears" inkscape:label="Ears">
        <g id="left_ear" inkscape:label="Left ear">
          <path class="st38" d="M253,376c3.4,1.5,6.3,3.3,9,6l2-1c.4,1,.8,2,1.2,3.1,1.6,3.8,3.7,7,6,10.4,3.2,4.9,6.1,9.9,8.7,15.2.5,1.1,1.1,2.3,1.6,3.5,4.3,10.8,3.7,22.3,3.8,33.7.1,16.2.7,32.2,2.6,48.2,0,.7.2,1.4.3,2.2,1,8.3,2.2,16.5,3.4,24.8.5,3.9.9,7.1.4,11-4.3,3.6-9,4.4-14.5,4.3-6.4-.8-11.7-4.1-16.5-8.3-2.7-3.5-4.8-7.2-7-11q-.3-.5-1.8-3.1c-9.6-17.6-14.2-41.4-9.7-61.1.8-4.2.6-8.5.7-12.8,0-1,0-2,0-3,0-2.1,0-4.1,0-6.2,0-3.1,0-6.2,0-9.3,0-11.4-.6-22.3-2.2-33.5-.4-3.2-.4-5.7,0-9,3.5-4.3,6.7-4.7,12-4Z"/>
        </g>
        <g id="right_ear" inkscape:label="Right ear">
          <path class="st104" d="M684.4,383.8q1.6,1.2,3.6,4.2.3,2.2.4,4.8c0,1,0,2,.1,3,0,1.1,0,2.1,0,3.2,0,1.1,0,2.2.1,3.3.3,8.6.4,17.2.4,25.8,0,1.2,0,2.3,0,3.5,0,5.4-.2,9.9-1.8,15.1-1,5.1-.7,10.4-.8,15.6-.2,20.8-2.1,41.3-12.7,59.7-.6,1-1.1,2-1.7,3.1-4.2,7.2-9.4,13.6-17.3,16.9-5,.5-8.2.1-12.8-2q-.4-.2-2.4-1.1-.3-.1-1.8-.9,0-.6.5-3.8c1.5-10.7,2.9-21.4,4.4-32.1.3-1.9.5-3.9.8-5.8.2-1.2.3-2.4.5-3.7.1-1.1.3-2.1.4-3.2.1-1.1.3-2.3.4-3.4.1-.7.2-1.3.3-2,.9-6.7.7-13.3.6-20,0-2.5,0-5,0-7.6,0-3.9-.1-7.9-.2-11.8,0-3.8-.1-7.6-.2-11.5,0-1.2,0-2.3,0-3.5,0-8.4,2.1-13.8,6.6-20.7q.2-.4,1.4-2.2c1.1-1.8,2.2-3.5,3.4-5.2,2.5-3.7,4.7-7.3,6.2-11.6h2c.8-.8,1.6-1.6,2.4-2.4,4.9-4.9,10.3-6.1,17-3.8Z"/>
        </g>
      </g>
      <g id="mouth" inkscape:label="Mouth">
        <path class="st111" d="M463,559c1.5,0,3,0,4.5,0,12.5-.4,22.9.5,34.5,5.1.9.4,1.9.7,2.8,1.1,3.1,1.2,6.2,2.5,9.2,3.8q.5.2,2.9,1.2,14.5,6.4,16.9,11.8c.5,2.2.8,4.3,1,6.6.2,1.5.4,3,.6,4.4,0,.7.2,1.4.2,2.1.4,2.5,1.3,4.6,2.3,6.9,1.2,7-.4,11.5-4.1,17.4-3.2,4.5-7,8.2-11,11.9-1.6,1.5-3.2,3.1-4.8,4.6-.7.7-1.5,1.4-2.2,2.1-2.2,2.2-4,4.5-5.9,6.9-4.5,3.4-9.3,4.7-14.9,4.5-3.7-.8-5.5-2.7-8.1-5.5-2.1-4.3-1.7-9.4-1-14,2.4-4.3,5.8-7.1,9.7-10,4.1-3.6,6.1-8,6.7-13.4q-.4-2.6-2.4-4.6c-3.7.3-7,1-10.6,2.1-5.7,1.5-11.5,1.1-17.4.9v-1c.9,0,1.8-.2,2.7-.2,15.7-1.7,27.6-6.5,40-16.3,2.2-1.8,4-2.9,6.7-4.1q2.6-1.4,3.6-4.4c-.7-.3-1.4-.6-2.1-.8-3-1.2-5.9-2.4-8.9-3.7-1.1-.5-2.3-1-3.4-1.5-2.4-1-4.8-2-7.1-3-1.1-.5-2.3-1-3.4-1.5-1-.4-2.1-.9-3.1-1.3-1-.4-1.9-.8-2.9-1.2q-.5-.2-2.7-1.1c-6.4-2.4-13-.7-19.3,1.1-4.7.5-8.6.3-12.9-1.5-12.8-5.3-27.8,2-40.2,6.1-.9.3-1.8.6-2.7.9q-8.8,2.9-12.2,5.6v3q.3.1,1.7.8c5.3,2.5,10,5.3,14.8,8.7,7,5,14.2,9.1,22.5,11.5-3.9,1.2-7.9,1.5-12,2-.5,6-.6,10.5,3.3,15.3,2.7,2.6,5.7,4.8,8.7,7,2.1,1.8,3.1,3,4,5.7.3,4.8-.4,8.8-3.4,12.5-3.3,3.2-4.8,3.7-9.3,3.8-5,0-7.5-.9-11.2-4.3-3.4-3.5-6.5-7.2-9.6-11-4.2-5-8.8-9.1-13.9-13.2-5.3-4.4-8.2-7.4-8.9-14.4,0-4.6,1.9-7.7,4.1-11.7,1.8-3.9,2.1-7.7,2.5-12,1.3-4.7,4.4-6.9,8.5-9.4q40.2-18.1,57.3-12.4Z"/>
        <path class="st40" d="M410,581c1,.2,2.1.3,3.1.5,7,.9,15.2,1.7,21.9-.5,2.1-.1,4.2-.1,6.3-.1,1.1,0,2.2,0,3.4,0q3.3.1,6.1.6c3.5.5,6.8.6,10.4.6h2.1c2.2,0,4.5,0,6.7,0,1.6,0,3.1,0,4.7,0,4.1,0,8.2,0,12.3,0,4.2,0,8.4,0,12.6,0,8.2,0,16.4,0,24.6,0-3.7,2.8-7.4,5.5-11.2,8.1-1.8,1.2-3.5,2.5-5.2,3.7-6.3,4.4-12.5,6.7-19.9,8.6-1.9.5-3.7,1-5.6,1.6-.3.7-.7,1.3-1,2-4.2,0-8.5.1-12.7.2-1.2,0-2.4,0-3.6,0-8.2,0-16-.6-23.7-3.3l-1-2c-1.4-.6-2.8-1.1-4.2-1.6-5.9-2.2-10.6-5.6-15.7-9.2-3.6-2.6-7.3-4.9-11.1-7.2l1-2Z"/>
        <path class="st75" d="M461,564.3c4.8,1.6,9.6,1.1,14.4-.3,10.5-2.9,18.7.6,28.2,4.7,1.3.5,2.6,1.1,3.9,1.6,6,2.5,11.9,5.2,17.4,8.6-.3.7-.7,1.3-1,2-2.9,0-5.8,0-8.6,0q-.4,0-2.5,0c-.8,0-1.6,0-2.4,0-.7,0-1.4,0-2.2,0q-2.3-.1-5.1-.6c-4.1-.6-8-.7-12.1-.8-.8,0-1.7,0-2.5,0-2.7,0-5.3-.1-8-.2-3.5,0-7-.2-10.6-.2-.8,0-1.6,0-2.4,0-4.6-.1-9-.5-13.6-1.2-2.4,0-4.8-.1-7.2-.1s-2.4,0-3.6,0q-3.1.1-6.1,1.1c-2.3,0-4.6,0-6.9,0h-2c-2.1,0-4.2,0-6.3,0-1.4,0-2.9,0-4.3,0-3.5,0-7,0-10.5,0,1,.3,2,.7,3,1v2l-6-1c-.3-1.3-.7-2.6-1-4,5.5-3.8,10.7-6.2,17.1-8.1.8-.2,1.6-.5,2.5-.8,2.5-.7,5-1.5,7.4-2.2.7-.2,1.4-.4,2.2-.7,10.2-3.1,18.8-5.3,28.8-1Z"/>
        <path class="st39" d="M446.8,576.9q.6,0,3.6,0t6.8.6c4.3.6,8.5.7,12.8.8q.4,0,2.5,0c3.6,0,7.2.1,10.7.2,2.6,0,5.2.1,7.9.2.8,0,1.6,0,2.4,0,4.3.1,8.2.5,12.5,1.2,1.6,0,3.2.1,4.7.1.8,0,1.7,0,2.5,0q.4,0,2.6,0c.9,0,1.8,0,2.7,0,2.2,0,4.3,0,6.5,0v2c-6.7.2-13.5.3-20.2.4-2.3,0-4.6,0-6.8.1-11.6.2-23.2.5-34.7.5-.8,0-1.7,0-2.6,0-4.3,0-8.4-.3-12.7-1.1-2.2,0-4.5-.1-6.7-.1q-.6,0-3.4,0-2.9.1-5.9,1.1c-8.5.6-17,.4-25-3-.3-.6-.7-1.3-1-2,.9,0,1.8,0,2.8,0,3.4,0,6.9,0,10.3,0,1.5,0,3,0,4.5,0,2.1,0,4.3,0,6.4,0,1.3,0,2.6,0,3.9,0,4.4-.2,8.4-1.3,12.9-1.2Z"/>
      </g>
      <g id="eyebrows" inkscape:label="Eyebrows">
        <g id="right_eyebrow" inkscape:label="Right eyebrow">
          <path class="st70" d="M377.9,341.7c1.2,0,2.4,0,3.6,0,19.4.2,37.3,2,51.5,16.3v3c-11.3,4.2-22.1,5.3-34.2,5.2-1.3,0-2.6,0-3.9,0-7.9,0-15.5-.6-23.3-1.8-15.5-2-28.6.7-43,6.5q-2.6,1-4.6,1c.3-6.6,2.7-11,7-16,12.6-11.6,30.4-14.4,46.9-14.3Z"/>
        </g>
        <g id="left_eyebrow" inkscape:label="Left eyebrow">
          <path class="st103" d="M551.5,349.8c15.6-.9,31.6,1.6,44.5,11.1q11.8,11.1,12.2,17.8,0,.4-.2,2.2c-5.8-1.2-11.5-2.6-17.1-4.3-6.3-1.5-12.7-1.8-19.1-1.9-1.6,0-3.2,0-4.7-.1-2.4,0-4.9,0-7.3-.1-14.8-.3-29.6-.9-44-5-.8-.2-1.6-.4-2.4-.6q-7.2-2-10.3-3.9c-.3-1-.7-2-1-3,13.9-10.6,32.8-11.1,49.5-12.1Z"/>
        </g>
      </g>
      <g id="eyes" inkscape:label="Eyes">
        <g id="left_eye" inkscape:label="Left eye">
          <path class="st50" d="M530.4,371.4c3.5.8,7,1.1,10.6,1.3q2,.3,4,2.3c2.6.8,5.3,1.6,7.9,2.3,7,2,13.6,4.3,20.1,7.7.8.4,1.5.8,2.3,1.1,7.4,3.8,14.9,8.7,17.7,16.9q-8.6.1-12-1-.2.3-1,2v-2c-.5-.2-1.1-.5-1.7-.8-3.8-1.9-7.4-4.2-11-6.5-8.4-4.4-15.5-5.2-24.9-4.9q-.6,0-3.3,0c-2.7,0-5.4,0-8.1.1-.3.7-.7,1.3-1,2-1.8,1-3.7,1.9-5.6,2.8-4,1.9-7.4,3.8-10.8,6.6-2.6,2-3.5,2.6-6.9,3.2-3.1-.6-4.5-1.4-6.8-3.6-2.5-7.6-.9-14,2.4-21,.5-1,1-2,1.6-3,.5-1,.9-1.9,1.4-2.9,6-9.6,15.8-5.1,25-2.7Z"/>
          <path class="st81" d="M565.1,392.4c5.2,2.9,10.3,5.9,14.9,9.6v2c-4.1-.7-7.2-2.8-10.6-5q-6.2-3.9-8.4-5,0,.4-.3,2.3t-.5,3c-.2,1-.3,2-.5,3-.8,3-1.3,3.9-3.7,5.7q-2.4.3-5.3.3c-1,0-2.1,0-3.1,0q-.5,0-3.2,0c-1.1,0-2.2,0-3.3,0-2.7,0-5.4,0-8-.1-.7-1.2-1.3-2.5-2-3.8-.4-.7-.7-1.4-1.1-2.1-1.4-3.2-1.3-5.8-.9-9.1,6-9,27.8-4.4,36-.6Z"/>
          <path class="st45" d="M529,391q1,2,.9,5.2t2.1,10.8c-7.3-.7-14.5-1.3-22-2,2.2-4.4,4.3-5.8,8.4-8.1.6-.3,1.1-.7,1.7-1.1,2.9-1.7,5.8-3.4,8.9-4.8Z"/>
          <path class="st30" d="M560,393q10.7,5,15,10c-1.5.5-3,1-4.6,1.4q-.4.1-2.6.8c-3.2.8-6.6,1.3-9.9,1.8.7-4.6,1.3-9.2,2-14Z"/>
        </g>
        <g id="right_eye" inkscape:label="Right eye">
          <path class="st37" d="M402,385c1.2,2.4,1.2,4.1,1.3,6.8q0,.4.1,2.6c-.6,3.9-1.7,5.8-4.4,8.7-3.3.8-6.5.7-9.9.6h-2.7c-4.9-.1-8.5-.3-12.4-3.6-1.9-4.1-2.1-7.5-2-12-1.9,1.1-3.8,2.2-5.7,3.2-1.1.6-2.1,1.2-3.2,1.8q-3.1,1.9-5.9,4.1t-4.2,1.8c3-7.4,11.4-10.9,18.4-13.9,10.1-4,20.7-5.1,30.6-.1Z"/>
          <path class="st53" d="M403,386c4.6,1.3,7.9,3.1,11.8,5.9.9.7,1.9,1.3,2.9,2,2.3,2,3.2,3.3,4.4,6.1-3.3.4-6.6.7-9.9,1.1-.9.1-1.9.2-2.8.3q-.4,0-2.7.3-.4,0-2.5.3t-4.1-.9q.2-.3,1-1.6c1.2-2.8,1.4-5.1,1.7-8.1,0-1,.1-2,.2-3,0-.8.1-1.5.2-2.3Z"/>
          <path class="st80" d="M372,388c1,4.3,2,8.6,3,13-6.1-.6-12-1.5-18-3,3.7-4,9.2-10,15-10Z"/>
        </g>
      </g>
      <g id="hair" inkscape:label="Hair">
        <path class="st59" d="M452.7,77.6h2.6c42,.1,83.1,9.8,115.9,36.7,4.7,3.9,9.6,7.4,14.6,10.9.7.5,1.4,1,2.2,1.5,2,1.4,4,2.8,6.1,4.2,16.9,11.8,31.9,25.7,36,47,.2,3.7.4,7.3.5,11,.2,1,.4,2,.5,3q1.8,1.2,4,2c15,12.3,23.9,32,29.3,50.2q.1.4.7,2.3c4.7,17.1,5.4,34.7,5.6,52.3,0,11.7.3,23.1,2,34.7,3.7,28-4.2,54.4-20.3,77.2-5,7.3-5.7,12.5-5.8,21.2-.1,7-.4,13.4-2.4,20.1h-1c-.1-.7-.3-1.3-.4-2-.6-3.1-1.2-6.2-1.9-9.4-.2-1-.4-2.1-.6-3.2q-.1-.5-.6-3.2-.1-.6-.7-3.5c-.6-2.7-1.2-5.3-1.8-7.9-2.8-11.2-3.6-21.8-3.6-33.3-.1-16.8-2.6-29.7-8.8-45.4-5.9-14.8-10-27.5-9.5-43.6.5-15.7-1.1-29.5-6.1-44.5-.3-1-.6-1.9-.9-2.9-4.7-14.6-8.8-24.3-22.8-31.8-10.1-4.8-21.5-5.9-32.5-7.2-11.2-1.4-22.2-3.2-33.3-5.5-23.1-4.7-45.9-2.9-69,.9-8.8,1.2-17.4,1.6-26.2,1.5-2.2,0-4.5,0-6.7,0-3.5,0-6.9,0-10.4-.1-19.1-.2-38.5-.3-56.1,8.2-.9.4-1.8.9-2.7,1.3-17,9.2-31.3,33.6-37.3,51.7-.3,4.6-.1,9.1.5,13.7,2.4,18-2.1,32.6-10.5,48.3-1,1.9-1.9,3.8-2.9,5.7-.4.8-.8,1.5-1.2,2.3-1.8,3.8-2,6.6-2,10.8,0,1.2,0,2.4,0,3.6,0,1.3,0,2.6,0,3.9,0,2.1,0,4.1,0,6.2,0,5.1.1,10.1.2,15.2.3,18.4-.6,35.5-4.7,53.5-.4,1.8-.8,3.6-1.1,5.4-.2.8-.3,1.6-.5,2.5-.1.7-.3,1.4-.4,2.1q-.6,1.7-3.6,3.8c0-.6,0-1.2,0-1.8-.8-22.3-4.4-38.2-17.2-56.8-4.9-7.1-6.2-15.1-7.7-23.5-.2-1-.3-1.9-.5-2.9-4.6-25.8-3.9-49.6-.5-75.4,1.7-12.9,3-25.7,4-38.6,1.3-16.2,3.8-31.4,10.9-46.2,1-2.1,2-4.2,2.9-6.3.5-1.1,1-2.2,1.6-3.3,2.1-4.5,4.2-9,6.2-13.5,9.2-20.1,17.8-38.8,33.3-54.8.7-.7,1.3-1.5,2-2.2,24.6-26.2,64.6-38.2,99-43.8,1.1-.2,2.2-.4,3.3-.6,10.1-1.5,20.1-1.9,30.3-1.8Z"/>
        <path class="st78" d="M646,441h1c.9,37-3.8,72.2-10.6,108.6-.3,1.6-.6,3.3-.9,5-3.4,19.1-9.6,35.4-18.4,52.5-.8,1.5-1.5,3-2.3,4.6-1.5,3-3.1,6-4.6,9-5,9.8-9.9,19.5-14.6,29.4-.4.8-.7,1.5-1.1,2.3-2.2,4.6-4.2,9.2-6.1,13.9q-.2.5-1.3,3.2c-.8,2.1-1.6,4.1-2.4,6.2-4.3,10.9-11.4,18.4-19.7,26.5-.8.8-1.5,1.5-2.3,2.3-4.8,4.7-9.7,9.2-14.8,13.6-1.1.9-2.1,1.9-3.2,2.8-23,19.8-46.5,29.7-77.2,29.5-2.1,0-4.3,0-6.4,0-8.2,0-16.1-.6-24.2-2.3-.8-.1-1.5-.3-2.3-.4-18.2-3.3-31.4-12.2-45.7-23.6q-.5-.4-3-2.4c-2.7-2.2-5.4-4.4-8-6.6-.6-.5-1.1-1-1.7-1.4-4.1-3.5-8.2-7-12.3-10.6q-.4-.3-2.2-1.9c-9.3-8.6-14.3-20.8-18.6-32.4-1-2.6-2.1-5.3-3.1-7.9q-.1-.3-.8-2c-6-15.2-12.7-30-20.1-44.5-2.7-5.2-5.3-10.3-7.9-15.5-.5-1.1-1.1-2.1-1.7-3.2-13.7-27.2-16.9-56.5-20.8-86.3-.1-1-.3-2-.4-3.1-2-15-3.6-29.7-3.7-44.8,0-1.2,0-2.3,0-3.5,0-1.1,0-2.2,0-3.4,0-1,0-2,0-3,.1-.8.2-1.6.4-2.4,1-.7,2-1.3,3-2,.2,1.2.4,2.4.6,3.6,7.1,39.1,26.3,79.5,53.7,108.5,7.8,8.4,14.7,17.7,21.7,26.9.3-1,.6-1.9.9-2.9,5.1-16.1,10.4-27.7,25.9-36,6.1-3,12.5-5.4,18.8-7.9,4.6-1.8,9.1-3.9,13.6-6.1,8.8-4.2,17.9-7.7,27.8-6.1q2.2.9,4.3,2c6.4,3.2,13.7,3.3,20.4,1.1,1.6-.7,3.3-1.4,4.9-2.2,6.5-2.6,11.6-1,17.9,1.5,5.9,2.6,11.2,5.8,16.6,9.2,4.5,2.8,9,4.7,14,6.4,11.2,3.9,21.5,10.8,27.1,21.6,3.8,8.6,7.6,18.9,7.6,28.4h2c.2-.8.4-1.7.7-2.5,1.6-4.3,4-7.7,6.6-11.4q.3-.4,1.6-2.2c4.2-5.7,8.6-11.2,13.1-16.7,6.1-7.4,11.8-15.2,17.4-23,1.4-2,2.9-4,4.4-5.9,16.6-22.3,29.1-50.6,32.7-78.2.7-4.8,2.1-9.4,3.5-14ZM400,575.1c-2.5,3.9-2.8,7.3-3.3,11.8-.6,3.2-1.6,5.5-3.2,8.4-2.5,4.7-3.1,7.5-2.4,12.8,1.9,4.5,4,7.3,7.7,10.4.9.8,1.8,1.6,2.7,2.3,1.5,1.3,3.1,2.6,4.7,3.9,4.9,4.1,8.9,8.7,12.9,13.7,3.5,4.3,7,8,12.6,9.1,4.1,0,6.7-.1,10.3-2.1,3.1-3.6,4.8-6.7,5.5-11.4-.7-4.6-2.7-7.6-6.4-10.5-.7-.5-1.4-1-2.1-1.5-3.6-2.6-6.1-4.8-8-9-.3-3.4-.2-6.6,0-10,5.5-1.4,8.9-.8,14.3.9,7.4,2.3,14.7,2.5,22.4,2.5,1.1,0,2.2,0,3.4,0,7.7,0,14.5-1.4,21.9-3.5,2.4-.5,4.5-.8,7-1q2,2,2.1,3.9c-.9,8.6-4.6,13-11.2,18.3-3,2.7-4.7,4.5-5.4,8.5q0,9.3,2.9,12.9c3.9,3.4,6.2,3.7,11.2,3.6,8.9-.9,13.8-7.5,19.3-13.8,2.4-2.7,5-5.3,7.6-7.8,6.3-6,11.6-11.6,12-20.6-.2-4.2-1.2-7.6-2.7-11.5-1.2-4-1.4-8.2-1.7-12.4-2.3-6.3-8.5-9-14.3-11.7-1.9-.8-3.8-1.7-5.7-2.5-1-.4-2-.9-3.1-1.3-3-1.2-6-2.4-9-3.6q-.4-.2-2.4-.9c-11.5-4.4-22.4-4.6-34.5-4q-2.1,0-5.1-1c-19.1-1.8-44.2,6.4-60.1,17.1Z"/>
      </g>
    </g>
    <g id="clothing_base">
      <path class="st20" d="M306,715s1.9-2.5,4-2c-.8,2-.6,1.4-1.7,3s-4.1,2.4-9,10.5c-6.5,8.2-7.3,17.6-7.3,17.6-1.1,12.2,14.6,46.3,20.7,57s51.5,63,54.2,62.8,53-4.9,53-4.9v-2c0,0,44.8,0,55.1-.3,15.4-3.3,53,2.4,53,2.4l34.9,2.9v5l3-1.9s41.5-46.3,60-72.5,14.6-64.1,14.6-64.1c-1.5-2.2-2.2-3.3-4.6-4.5v-3h-3v-2c-.5-.3-1.1-.5-1.6-.8-.8-.4-1.6-.8-2.4-1.2l-3.1-1.4c-3.1-1.7-3.5-2.5-4.9-5.6,11.1.2,20.2,5.8,28.9,12.2,14.2,10.1,30.9,16.2,46.9,22.8,15.9,6.6,31.5,13.7,47.2,20.9.6.3,1.3.6,1.9.9,8.7,4,17.4,8.1,26.1,12.2,2.1,1,4.1,1.9,6.2,2.9,9.3,4.4,18.6,8.8,27.9,13.2,1.7.8,3.4,1.6,5.1,2.4q75.4,35.6,107.8,56.5c.7.4,1.4.8,2.1,1.3q1.9,1.7,2.4,4c0,.9,0,1.8,0,2.7,0,1,0,2.1,0,3.1,0,1.1,0,2.3,0,3.4,0,1.2,0,2.4,0,3.7,0,3.4,0,6.7,0,10.1,0,3.6,0,7.2,0,10.9,0,6.3,0,12.5,0,18.8,0,9.1,0,18.1,0,27.2,0,14.7,0,29.4,0,44.1,0,14.3,0,28.6,0,42.9v2.7c0,4.4,0,8.8,0,13.2,0,36.7-.1,73.3-.2,110H1c-.2-34.5-.3-69.1-.4-103.6,0-4.1,0-8.1,0-12.2,0-.8,0-1.6,0-2.5,0-13.1,0-26.3-.2-39.4,0-13.5-.1-27-.1-40.5,0-8.3,0-16.6-.1-25,0-5.7,0-11.4,0-17.1,0-3.3,0-6.6,0-9.9,0-3.6,0-7.1,0-10.7,0-1,0-2.1,0-3.1,0-4.1.1-6.9,2.8-10.2,2-1.8,4-3.3,6.3-4.9.6-.5,1.3-.9,2-1.4,1.8-1.3,3.6-2.5,5.5-3.6.7-.5,1.4-.9,2.2-1.4,16.8-10.6,34.6-19.8,52.1-29.2,5.7-3.1,11.4-6.2,17.1-9.3,7.1-3.9,14.3-7.8,21.5-11.6,1.2-.6,2.4-1.3,3.6-1.9.6-.3,1.2-.6,1.8-1,8.1-4.3,16.1-8.7,24.1-13.3,8.4-4.8,17-9.4,25.7-13.9,5.6-2.9,11.1-5.8,16.5-8.8,21.1-11.7,42.6-22.2,64.9-31.4,12-5,22.6-10.9,33-18.7q20.6-15.2,27.1-12.5c-1.4,3.4-3.1,5.2-5.9,7.6"/>
    </g>
    <g id="clothing_details" inkscape:label="Clothing details">
      <g id="crest">
        <path class="st77" d="M666.5,989.6c.8.4,1.7.9,2.5,1.4,10.7,5.1,18.9,6.9,30.4,3.1.9-.4,1.9-.7,2.9-1.1,2.6-.9,5-1.7,7.7-2q.3.3,2,2c-2.1,1-4.2,2-6.2,2.9-1.2.5-2.3,1.1-3.5,1.7-9,3.9-19,3.4-28.2.3q-2.1-.9-4.9-2.6c-2.9-1.6-4-1.1-7.2-.2-1.7.7-3.5,1.4-5.2,2.1-8.8,3-19.8,3.4-28.8.9q-2,3-1.9,5.2c.8,2.4,1.6,4.4,2.8,6.7,5.8,11.3,5.1,22.5,1.3,34.3-1.9,5.4-4.5,10-7.8,14.6q-2.4,3.7-2.5,6.2c.6.5,1.2,1.1,1.9,1.6,3.3,3.7,2.8,7.6,3.1,12.4.6,8.5,1.8,15.5,6.1,23,.4.8.9,1.6,1.3,2.5,7,11.6,19.2,17.7,31.9,21,2.6.5,5.1.7,7.8.8,5.4.4,8.6,3,12.7,6.3q2.2,1.4,4.3,1.3c2.1-1,3.1-2.1,4.7-3.8,4.5-4.1,9.5-4,15.3-4.6,13.1-1.6,24.7-7.9,33.1-18,5.8-8.3,8.6-17.3,8.9-27.4.3-7.1.6-11.8,5.8-17.1-.4-.5-.8-1-1.2-1.5-7.8-10-12.4-20.5-12.3-33.3v-2.6c.2-7.4,2-13.1,5.5-19.6.7-1.7,1.3-3.3,2-5q-1.8-1.6-4-3c-1,.3-2,.7-3,1-10.4,1-20.5.8-30-4v-1c1.4.1,2.8.2,4.2.4.8,0,1.6.1,2.4.2q2.5.4,4.7,1.5c3.9,1.3,7.4,1,11.5.6.8,0,1.5,0,2.4-.2q5.7-.4,6.9-1.5t5,0q2.9,2.8,5,6c-.4,3.6-2.3,6.6-4,9.8-2.3,4.5-3.8,8.1-4,13.2,0,.9-.2,1.7-.2,2.6-.7,12.7,4.2,23.7,12.2,33.4.7.7,1.3,1.3,2,2q-.1,1.9-1,4c-.7.5-1.3,1.1-2,1.6-2.8,3.3-2.7,6.6-2.9,10.7-1.3,15.2-6,28.1-17.2,38.9-9.9,7.6-20,10.4-32,12.8-7.6,1.6-12.6,4.1-17.9,10q-6.7-3.6-8.6-6c-3.6-3-7.4-3.3-12-4-15.4-2.8-28.3-8.5-38.4-21-6.2-9.5-8.8-17.6-9.2-28.7q-.4-9.7-3.9-13.2c-1-.7-1.9-1.4-2.9-2.1,1.1-3.4,2.6-5.9,4.8-8.6,8.4-10.8,10.1-22.1,9.2-35.4-.9-5.1-2.5-9.4-5.2-13.8q-1.8-3.2-1.8-5.8c1.4-3.3,2.2-5.1,5-7.4,2.5,0,4.8.2,7.2.6,9.2,1.4,20.4,1.1,28.3-4.3q2.5-1.3,4.9-.6Z"/>
        <path class="st28" d="M675,1003l-4,1v14h16v-11h1c.1,8.7-.3,17.3-1,26q-2.8.2-17,1c0,1.9-.2,3.8-.3,5.8q-.3,5.6-1.8,8.1c-4,2.4-9.4,1.3-13.8,1.1v-14h-16c0-2-.1-4-.2-6.1-.5-7.2-2.3-13.3-4.8-20q-1.1-3-1.1-5h19v1h-17c.7,1.6,1.3,3.1,2,4.8,1.5,3.5,2,5.3,2,9.2h17v-15c-1-.3-2-.7-3-1,1.9-.7,3.8-1.4,5.8-2.1,1.1-.4,2.1-.8,3.2-1.2,5.3-1.4,9.2,1.1,14,3.2Z"/>
        <path class="st64" d="M741,1019h1c0,1,0,2,.1,3.1.3,7.6.9,14.5,3.3,21.8q.6,2.1.6,5.1h2c.4,1.2.9,2.5,1.3,3.8.9,2.6,1.7,4.3,3.4,6.4q1.2,1.8,1.1,4.2t-1.9,4.8c-1.2,3.5-1,6.4-.9,10-.1,4.7-1.1,9.2-2.1,13.8h-2c0-1.2.2-2.5.3-3.8.1-1.6.2-3.3.3-4.9,0-.8.1-1.6.2-2.5,0-.8,0-1.6.2-2.4,0-.7,0-1.5.2-2.2q-.1-2.2-2.1-7.2h-33v-14l-1-4h31c-1.3-4.3-2.6-8.6-4-13-.1-3.5-.2-6.4.2-9.8,0-.8.1-1.6.2-2.4q.4-5.7,1.6-6.8Z"/>
        <path class="st67" d="M631,1047c.4.6.7,1.3,1.1,2q1.9,2,4.8,2.6.6,0,3.5,0c1.2,0,2.5,0,3.8,0,1.3,0,2.6,0,3.9,0,2.6,0,5.1,0,7.7.1,1.1,0,2.3,0,3.5,0q2.8.1,4.8,1.1c0,2.5,0,5,0,7.4,0,.7,0,1.4,0,2.1,0,1.8,0,3.6,0,5.4-2,2-5.8,1.3-8.5,1.3-.8,0-1.5,0-2.3,0-2.4,0-4.8.1-7.2.2-1.6,0-3.3,0-4.9.1-4,.1-8,.2-12,.3-.3,3-.7,5.9-1,9-2.3-2.3-2.4-3.3-3-6.4-.6-3.3-1.1-4.7-3-7.6.3-3.8,1.7-6.6,3.6-9.8.5-.8.9-1.6,1.4-2.4q.2-.3,1.1-1.8h2l1-4Z"/>
        <path class="st43" d="M647,1072h15v46q-9-3-16-7c.3-12.9.7-25.7,1-39Z"/>
        <path class="st68" d="M714,1072h15c0,5.4,0,10.7,0,16.1,0,1.8,0,3.6,0,5.5,0,2.6,0,5.2,0,7.8,0,.8,0,1.6,0,2.5,0,3.3,0,6-1.1,9.1q-2.4,1.4-5.4,2.7c-1,.4-1.9.9-3,1.3q-2.7,1-5.7,1v-46Z"/>
        <path class="st42" d="M673.7,1072.9c1,0,2,0,3,0q.4,0,2.3,0,.6,9.5-3,14c-1,1-2,2-3,3-1.3,4.1-1.5,7.8-1,12,1.7,3.2,3.5,5.4,6,8q.2,3.5,0,7-2,2-4.3,2c-.9-.1-1.8-.2-2.7-.3-.9,0-1.8-.2-2.7-.3q-2.3-.5-4.3-2.5c-.2-2.9-.2-5.7-.2-8.6v-2.6c0-1.8,0-3.6,0-5.4,0-2.8,0-5.5,0-8.3s0-3.5,0-5.3c0-.8,0-1.7,0-2.5,0-3.3.1-6.1,1.2-9.2,3.1-1,5.4-1.1,8.7-1.1Z"/>
        <path class="st18" d="M624,1070h2c.3,2.3.7,4.6,1,7,.3-2.3.7-4.6,1-7,.7.3,1.3.7,2,1,0,.7,0,1.5-.1,2.2-.3,13.3,2.6,25,11.7,35,12.7,11.9,29.2,13.2,45.7,13.5,1.5,0,3.1,0,4.6.1,3.7,0,7.4.1,11.1.2q-.2.3-1,2c-4.1,0-8.2,0-12.4,0-1.2,0-2.3,0-3.5,0-6.8,0-13.4-.2-20.1-1.1v2c1,0,1.9-.1,2.9-.2,6.1,0,11.7,2.4,17.1,5.2v2h6c-.7,1-1.3,2-2,3-3.8-.2-5.6-1.5-8.4-3.9-4.8-3.9-9.7-3.9-15.7-4.5-12.5-1.7-23.9-8.2-31.8-18-8.5-11.9-10.6-23.9-10.1-38.5Z"/>
        <path class="st114" d="M698,1073h14v45c-3.4.8-5.8,1.1-9.2,1.1-.9,0-1.8,0-2.7,0-.7,0-1.3,0-2,0-.3-3-.4-6,0-9q2.4-2.9,5-5c3-4.5,2.6-8.8,2-14-1.3-3.6-3.3-6.3-6-9-.6-3-.7-6-1-9Z"/>
        <path class="st6" d="M668,994c1.5.6,2.9,1.3,4.3,1.9,3.8,1.8,7.6,3,11.7,4.1v4h11v1h-21q-.2-.3-1-2c-3.2-2-5.2-3-9-2.9q-3,.9-9,3.9v15h-17v-1h16v-13c-1.4,0-2.8-.1-4.3-.2-1.9,0-3.7-.2-5.6-.3-.9,0-1.9,0-2.8-.1-.9,0-1.8,0-2.7-.1-.8,0-1.6,0-2.5-.1q-2.1-.2-4.1-1.2v-3h-5c.3,1.7.7,3.3,1,5q-.3.2-2,1-.8-2.2-1-5,1.9-2.3,4-4c1,.3,2,.7,3,1,10.9.7,27.4-6.7,36-4Z"/>
        <path class="st17" d="M631,1072h13v33c-5.8-2.9-9.5-7-11.9-13-1.9-6.4-1.4-13.3-1.1-20Z"/>
        <path class="st105" d="M634.5,1069.9q.5,0,3,0c1.1,0,2.2,0,3.3,0s2.3,0,3.4,0h19.1c5.5,0,10.9,0,16.4,0,6.3,0,12.6,0,18.9,0h25.9c3.6,0,7.2,0,10.8,0,1.1,0,2.2,0,3.3,0s1.9,0,3,0h2.6q1.9.1,2.9,1.1c1,12.2-.8,22.9-8,33,0-3.2.5-4.3,1.9-7.1,3.7-8.1,4.2-16.1,5.1-24.9h-115c.9,13.2,1.7,21.6,9,32v3c-8-8.3-11.2-19-11.1-30.3,0-1,0-2.1,0-3.2.2-4.3,1.8-3.6,5.7-3.6Z"/>
        <path class="st18" d="M747,1070c2.4,3.7,2.1,6.7,1.7,11-.1,1.2-.2,2.4-.3,3.7-.3,2.6-.7,4.9-1.4,7.3,1-.3,2-.7,3-1-1.3,10.2-7,18.7-15,25-9.9,7-20.8,11.4-33,11,.3-.7.7-1.3,1-2,2.1-.4,4.1-.5,6.2-.7.6-.1,1.2-.2,1.8-.3.3-.7.7-1.3,1-2q-.3.2-2,1c-2.3,0-4.7,0-7,0,2.3-2.3,4.1-2.6,7.3-3.2,12-2.5,22.7-7.2,29.7-17.8,5.7-10.1,6.4-20.6,7-32Z"/>
        <path class="st57" d="M688,1019h1v30c17.5-.3,35-.7,53-1q.2.5,1,3c-16.5.3-33,.7-50,1l-1,4c-.3-.7-.7-1.3-1-2q-3.1-.6-6-1v-1c-17.2-.3-34.3-.7-52-1,1.3-5.3,2.6-10.6,4-16h1c-.1,1.4-.3,2.8-.4,4.2,0,.8-.2,1.6-.2,2.4q-.3,2.4-1.3,6.4c16.8.3,33.7.7,51,1q0-14.4,0-19c0-1.2,0-2.4,0-3.6s0-2.4,0-3.7q.1-2.8,1.1-3.8Z"/>
        <path class="st44" d="M627,1000h5v3l2,1h-2c.3.9.7,1.8,1.1,2.7.5,1.2.9,2.3,1.4,3.6.4,1.2.9,2.3,1.4,3.5,4.3,11.6,2.7,23.9-1.8,35.2q-.3.2-2,1l-1-2c-.3,1-.7,2-1,3h-2c-.3.7-.5,1.4-.8,2.1q-1.2,2.9-2.9,5.9c-1.5,3.4-1.3,4.6-.3,8v3q-2.6-2.2-5-5c.3-3.6,2.2-5.9,4.2-8.8,6.7-10.3,10.7-23,8.8-35.2-1.1-3.7-2.4-7.2-3.9-10.7-1.2-3.6-1.3-6.5-1.1-10.3Z"/>
        <path class="st10" d="M732,1073h12c.6,13.7-2.8,21.6-10,33-.7-.3-1.3-.7-2-1v-32Z"/>
        <path class="st99" d="M634,1051h56v1c-2.6.7-5.3,1.3-8,2q-1.5,9.3,1,14v1h-15v-6q-.2-.3-1-2h4v-2h-4v-3h7v-3h-11v14h-1v-15h-28v-1Z"/>
        <path class="st113" d="M711,1001v48h-6c-.3-15.2-.7-30.4-1-46q5-2,7-2Z"/>
        <path class="st1" d="M719,1002l1,2c1,.3,2,.7,3,1v44h-6v-46l2-1Z"/>
        <path class="st3" d="M688,1087c6,0,9,2.2,13.5,6,1.9,2.5,1.8,3.9,1.5,7-2.3-.3-4.6-.7-7-1l-1,3c-5.7,4-11.1,5.9-18,5l-2-2v-3c3.5-2.1,6.9-2.5,11-3,0-.8.1-1.6.2-2.4,0-1,.2-2,.3-3.1,0-1,.2-2,.2-3.1q.3-2.5,1.3-3.5Z"/>
        <path class="st35" d="M700,1005v44h-6v-43q5-1,6-1Z"/>
        <path class="st116" d="M728,1006h6v43h-6v-43Z"/>
        <path class="st14" d="M674,1087l1,2c-.3.7-.7,1.3-1,2-.2,1.7-.4,3.4-.6,5.1,0,.9-.2,1.8-.3,2.8q0,.3-.2,2.1c1.3.3,2.6.7,4,1h-2c.7,1.3,1.3,2.6,2,4,6.7.5,11.1-.9,17-4v2c-1.2.7-2.5,1.3-3.8,2-.7.4-1.4.7-2.1,1.1q-2.1.9-6.1.9v2c5.8.2,10.5-.1,16-2-2.4,2.5-3.8,3.9-7.3,4.1q-.5,0-2.7,0c-.9,0-1.8,0-2.7,0q-2.3-.1-4.3-1.1v10q30.8-.8,43.3-7.3c.5-.2,1.1-.4,1.7-.7l2,1c-12.3,7-24.4,8.5-38.3,8.4-2.3,0-4.6,0-6.9,0-11.1,0-21.3-1.2-31.4-6.4-1-.5-1.9-1-2.9-1.5-2.5-1.6-3.9-3.1-5.5-5.6.5.3,1.1.5,1.6.8,2.9,1.4,5.8,2.8,8.8,4.2,1.1.5,2.2,1,3.3,1.6,5.3,2.3,9.9,3.7,15.7,4.1,1.1,0,2.1.2,3.2.2.8,0,1.6.1,2.4.2-.2-7.1-.9-10.9-6-16-1.7-3.4-1.4-7.2-1-11q1.5-3.6,3-6Z"/>
        <path class="st51" d="M638,1035h16v14h-19c1-4.6,2-9.2,3-14Z"/>
        <path class="st85" d="M634,1005h20v13h-16q-4-10.8-4-13Z"/>
        <path class="st11" d="M671,1035h16v14h-16v-14Z"/>
        <path class="st65" d="M723,1005h5v44h-5v-44Z"/>
        <path class="st33" d="M694,1006v43h-5v-42q2-1,5-1Z"/>
        <path class="st29" d="M692,1051h7v18c-3.2,1.6-6.6,1.1-10.1,1.1-.8,0-1.5,0-2.3,0-1.9,0-3.7,0-5.6,0l1-3q.6,0,3.8.2t6.2-1.7c.3-.5.7-1,1-1.5-1.1.2-2.2.4-3.4.6-1.2.1-2.4.2-3.6.4q-2-2-2.1-5.1c0-1,0-1.9.1-2.9,2.8-.6,5.2-1,8-1v-5Z"/>
        <path class="st11" d="M671,1004c5.3,1,10.7,1.9,16,3v11h-16v-14Z"/>
        <path class="st26" d="M712,1122c-.3,1-.7,2-1,3q-.6,0-3.6.3c-4.5.6-8.8,1.7-11.8,5.4-2.8,2.3-6.1,1.5-9.6,1.3v-2c-4.2-1.9-8.4-2.8-12.8-3.6-.7-.1-1.4-.3-2.1-.4-1.7-.3-3.4-.7-5.1-1v-2c1,0,2.1,0,3.2,0,3.9,0,7.8,0,11.8,0,1.7,0,3.4,0,5.1,0,2.4,0,4.9,0,7.3,0,.8,0,1.5,0,2.3,0,5.5,0,10.9-1.1,16.4-1.1Z"/>
        <path class="st0" d="M694,1080l2,2c-3-.3-5.9-.7-9-1v4c1,0,2.1.2,3.1.2,4.3.8,6.5,2,9.9,4.8q1.2,2.1,2,4c-.6-.4-1.2-.9-1.8-1.3-.8-.6-1.6-1.1-2.4-1.7-.8-.6-1.5-1.1-2.3-1.7-2.7-1.5-4.4-1.6-7.5-1.3-.3,2-.7,4-1,6l-2-1c.3-4,.7-7.9,1-12q-5,2-6,4c0,2.2,0,4.4,0,6.6,0,1.2,0,2.4,0,3.6,0,.9,0,1.8,0,2.8h7l-1,2q-2.9.4-6.6.6c-1.2,0-2.4.1-3.6.2q-.5,0-2.8.1c-.6-6.6-.1-11.5,3.5-17.1,4.6-5.5,11.1-5.6,17.5-3.9Z"/>
        <path class="st16" d="M700,1053c1.6,0,3.2,0,4.9-.1.9,0,1.8,0,2.7,0q2.4.2,4.4,2.2.3,2.5.3,5.5c0,1,0,2,0,3-.1.8-.2,1.7-.4,2.5-4.2,2.8-7,2.1-12,2v-15Z"/>
        <path class="st48" d="M696,1072h18v46c-4.3,1.7-6.8,2.3-11.3,2.6-1.1,0-2.1.2-3.2.2-.8,0-1.6.1-2.5.2v-11h1v9c4.6-.3,9.2-.7,14-1v-45h-14c.3,1.4.6,2.8.9,4.2.2.8.3,1.6.5,2.4.6,2.3,1.5,4.3,2.6,6.4q-3-1.4-6-4c-.6-3.5-.3-6.4,0-10Z"/>
        <path class="st32" d="M662,1072h19c.3,3,.7,5.9,1,9l-3,1v-9c-4.6.3-9.2.7-14,1v42q7,2.3,11,2,.3-.2,2-1v3c-1.9,0-3.8,0-5.8.1-1.1,0-2.1,0-3.2,0q-3-.2-7-2.2v-46Z"/>
        <path class="st87" d="M711,1000c1,.3,2,.7,3,1-.2.6-.3,1.2-.5,1.7-.5,2.2-.6,4.2-.6,6.5v2.5c0,.9,0,1.8,0,2.7s0,1.8,0,2.7c0,2.9,0,5.8,0,8.6,0,2,0,3.9,0,5.9,0,4.8,0,9.6,0,14.4.7.3,1.3.7,2,1v-44h2v46h-6v-49Z"/>
        <path class="st2" d="M697,1110v11h-16v-10q.4,0,2.6,0c1.1,0,2.2,0,3.3,0q.5,0,3.3,0c2.7,0,4.3-1.1,6.8-1.1Z"/>
        <path class="st56" d="M713.7,993.7c.8.4,1.5.9,2.3,1.3-.7.7-1.3,1.3-2,2q-2.1-.4-4-1v4c-9.1,4.3-16,5.7-26,4v-4c1,0,1.9-.2,2.9-.3,7.8-.9,13.7-2.2,20.8-5.8q2.3-.9,6-.2Z"/>
        <path class="st23" d="M699,1051h13c2,3.9,2.2,5.4,2.2,9.6,0,.9,0,1.9,0,2.9q-.2,2.6-1.2,5.6h33v1h-49c.7-.3,1.3-.7,2-1v-18ZM700,1053v15q8.6.2,12-2,.4-2.5.3-5.5c0-1,0-2,0-3q-.3-2.5-2.3-4.5-2.4-.2-5.1-.1c-1.6,0-3.2,0-4.9.1Z"/>
        <path class="st55" d="M747,997c1.6,1.3,3.3,2.6,5,4-1,2.6-2,5-3.3,7.4-5.6,11.1-5.4,24.5-2.2,36.3.5,1.4,1,2.8,1.5,4.2h-2c-.5-1.6-1-3.2-1.4-4.8-.3-.9-.5-1.8-.8-2.7-.2-.9-.5-1.7-.8-2.6q0-.3-.6-1.8c-.7-3.3-.8-6.6-1-9.9-.2-2.4-.3-4.8-.4-7.2-.3,5.6-.7,11.2-1,17h-1c0-3.1,0-6.2-.1-9.2,0-.9,0-1.8,0-2.6,0-.9,0-1.7,0-2.6,0-.8,0-1.5,0-2.3.3-2.5.9-4.1,2.2-6.2q.3-.1,2-.9c2.8-1.5,3.1-3,4-6.1.7-2.3,1.4-4.7,2-7-1.7-.3-3.3-.7-5-1,1-.7,2-1.3,3-2Z"/>
        <path class="st31" d="M644,1072h3v37q-2,1-3.9.4c-4-2.7-5.4-7-7.1-11.4.8.8,1.5,1.6,2.3,2.4q2.7,2.6,5.7,4.6v-33Z"/>
        <path class="st110" d="M714,1002l2,1c-.3,14.5-.7,29-1,44-1-.3-2-.7-3-1,0-5.8,0-11.6-.1-17.4,0-2,0-3.9,0-5.9,0-2.8,0-5.6,0-8.5,0-.9,0-1.8,0-2.7v-2.5c0-.7,0-1.4,0-2.2q.2-1.9,2.2-4.9Z"/>
        <path class="st5" d="M731,1072h15c.6,13-1.9,24.7-10.5,34.8q-1.5,1.2-4.5,1.2v-36ZM732,1073v32c.7.3,1.3.7,2,1,2.9-4.9,5.6-9.9,8-15,.4-.8.7-1.5,1.1-2.3,1.1-3.3,1.1-6,1-9.5q0-.6,0-3.5c0-.9,0-1.8,0-2.7h-12Z"/>
        <path class="st72" d="M701,1006c1,.3,2,.7,3,1q1.4,26.8,0,40h-3v-41Z"/>
        <path class="st56" d="M749,1000c-.6,5.9-1.5,9.9-6.2,13.8-.6.4-1.2.8-1.8,1.2.5-3.9,1.2-6.4,3-10-6.6-.3-13.2-.7-20-1,.3-1.3.7-2.6,1-4,1.2,0,2.4,0,3.6,0,1.6,0,3.1,0,4.7,0q.4,0,2.4,0c4.9,0,8.5-1.2,13.2,0Z"/>
        <path class="st107" d="M681,1072h15v9c-.8,0-1.5-.1-2.3-.2q-.5,0-3-.3c-1,0-1.9-.2-2.9-.3-2.3-.2-4.5-.2-6.8-.2v-8Z"/>
        <path class="st58" d="M686,1081c0,.8,0,1.6,0,2.5,0,1.1,0,2.1,0,3.2,0,1,0,2.1,0,3.2,0,2.8.4,5.3,1.1,8.1q-2.3.7-5,1t-3-3c-.8-4.9-1-9.5,1.8-13.7q2.2-1.3,5.2-1.3Z"/>
        <path class="st98" d="M736.9,1004.9c2,0,4.1,0,6.2.1-1.3,3.6-2.6,7.3-4,11h-2c-1.1,3.4-1.2,6.2-1.3,9.9,0,.7,0,1.3,0,2,0,2.1-.1,4.2-.2,6.3,0,1.4,0,2.9-.1,4.3-.1,3.5-.2,7-.3,10.5h-1c0-6.1,0-12.2,0-18.3,0-2.1,0-4.2,0-6.2,0-3,0-6,0-8.9q0-.5,0-2.8v-2.6c0-.8,0-1.5,0-2.3.2-2.4.5-2.7,3-2.8Z"/>
        <path class="st57" d="M720,1003c8.2.3,16.5.7,25,1-.8,1.9-1.6,3.8-2.5,5.8-4.6,11.9-3.7,26.1-.5,38.2q-2-1-2.9-3.2c-3.6-13.5-3.5-26.1,2.9-38.8q-.5,0-2.8,0c-6.8.1-12.7,0-19.2-2.1v-1Z"/>
        <path class="st86" d="M710,996c4.1-.1,7.2-.2,11.2,1,4.6,1.2,9,1.5,13.8,1.6.9,0,1.8,0,2.6.1,2.1,0,4.3.2,6.4.3q-2,2-5.1,2.2c-1.2,0-2.5,0-3.8,0q-.6,0-3.8,0t-6.3-1.2c.3,1,.7,2,1,3-6.2-.4-11.3-1.6-17-4,.3-1,.7-2,1-3Z"/>
        <path class="st46" d="M729,1072h2v36c1.7-1,3.3-2,5-3q.3-.2,2-1c-1.6,4.3-4.4,6.3-8,9h-2c0-5.7,0-11.4,0-17,0-1.9,0-3.9,0-5.8,0-2.8,0-5.6,0-8.3,0-.9,0-1.7,0-2.6,0-2.1,0-4.1.1-6.2l1-1Z"/>
        <path class="st89" d="M705,1004v26h-1c-.3-7.6-.7-15.2-1-23-.7-.3-1.3-.7-2-1v41h3v-15h1v17h-5v-44q2-1,5-1Z"/>
        <path class="st62" d="M691,1053l1,4h-7v6q3.8,1.1,6,0c.7.3,1.3.7,2,1-.3,1-.7,2-1,3-2.9,1.4-4.8,1.4-8,1-2.9-2.6-3.9-4.2-4.5-8.1q.5-2.9,2.1-5.3c3.3-2.2,5.6-1.9,9.4-1.6Z"/>
        <path class="st34" d="M696,1099q.8.3,5,2-.1,2.2-1,5c-5.4,4.2-9.2,5.2-16,5l-2-1v-2c4-1.3,8-2.7,12-4q1.2-2.6,2-5Z"/>
        <path class="st63" d="M737,1016c1.2,3.7,1,7,.9,10.9,0,7.7,1.2,14.6,3.1,22.1h-6c0-4.2,0-8.4-.1-12.6,0-1.4,0-2.9,0-4.3,0-2.1,0-4.1,0-6.2,0-1.2,0-2.5,0-3.8q.2-3.1,2.2-6.1Z"/>
        <path class="st47" d="M696,1082c3.4,1.6,6.2,3.5,9,6,1.6,4.7,1.7,9.1,1,14-1.6,3-3.6,5.5-6,8-1-.3-2-.7-3-1,1.3-2.6,2.6-5.3,4-8-1-.3-2-.7-3-1,.7-.3,1.3-.7,2-1,1,.3,2,.7,3,1,0-7.8-1.8-12.3-7-18Z"/>
        <path class="st57" d="M715,1000q2.3,1.6,4,3c-2.8-.5-5.3-1.1-8-2q-2.6,1-5.6,2.4c-5.6,2.5-10.3,3.3-16.4,3.6v12h-1v-12c-1.6-.1-3.2-.2-4.9-.4q-4.9-.4-7.1-2.6c.6,0,1.1,0,1.7,0,10.7.4,19.9.8,29.7-4.1,3.1-1.2,4.5-1,7.6,0Z"/>
        <path class="st44" d="M748,1049c2.1,2.8,4.2,5.7,6.2,8.6.5.8,1.1,1.5,1.6,2.3q1.2,2.1,1.2,5.1c-.6.7-1.3,1.4-2,2.2-2.6,3.6-2.7,6.6-2.7,10.8-.1,4.4-.3,8.7-1.3,13h-2c0-.6.1-1.2.2-1.8.7-5.9.8-11.6.5-17.6.3-3.1,1.3-4.3,3.3-6.7-.1-5.1-2.2-7.9-5-12v-4Z"/>
        <path class="st73" d="M709,989c3,.3,5.1,1.1,7.8,2.4,10.5,5.2,22.1,4.6,33.2,1.6v2c-4.3,2.1-8.5,2.5-13.2,2.8-.8,0-1.5,0-2.3.1-5,.2-9-.2-13.6-2.2-2.9-1.2-5.8-1.4-8.9-1.8v-2c-1.3-.7-2.6-1.3-4-2l1-1Z"/>
        <path class="st15" d="M664,1053h10v3h-7v3h4v2h-4v7h-3v-15Z"/>
        <path class="st115" d="M687,1033v2h-16v14h-5q.3-.5,2-3t.6-6.1q.3-5.8,1.4-6.9c2.1-.3,4.2-.5,6.3-.6,1.1-.1,2.3-.2,3.5-.3,2.7,0,4.6,0,7.2.9Z"/>
        <path class="st27" d="M687,1081c4.3-.2,7.7,0,11.2,2.7,1.9,2.1,3.5,3.8,4.8,6.3q-.3,2.3-1,4c-.4-.7-.9-1.5-1.3-2.2-3.9-4-8.5-5.1-13.7-6.8v-4Z"/>
        <path class="st29" d="M667,1062l4,1h-3v6h13v1h-52v-1c12.5-.3,25.1-.7,38-1v-6Z"/>
      </g>
      <g id="shirt_patten">
        <g>
          <path class="st83" d="M462.3,857.9c3.2,0,6.5,0,9.7,0q43.6,0,51.8,2.2c2.5,0,5,0,7.4,0,6.4,0,12.3.4,18.6,1.5,4,.7,7.9,1.1,11.9,1.5v2q-2,2-4.1,3.4t-2.9,4.6c-1.7,1-3.5,2.1-5.3,3-2,1.1-3.4,2.2-4.7,4-.2.7-.3,1.4-.5,2.1-.2.6-.3,1.2-.5,1.9-1,.3-2,.7-3,1-.3,1-.7,2-1,3-1.3.7-2.7,1.3-4,2q-1.7,1.8-3.4,3.8c-4.3,5.1-8.8,9.5-14,13.7-1.7,1.7-2.6,3.3-3.5,5.5h-2v2c-1.8.3-3.6.6-5.4.9-1,.2-2,.3-3,.5-7.9,1.2-15.8,1.7-23.8,1.7h-8.8c-3,0-5.9,0-8.9,0-9.1,0-18.1,0-27.2-.5-.7,0-1.5,0-2.2,0-10.6-.6-16.5-6.8-23.6-14.1q-2.1-2.4-2.1-4.4h-2v-2h-2c-1.2-1.1-2.3-2.2-3.4-3.4-1.2-1.2-2.4-2.5-3.7-3.7q-.4-.4-2.2-2.1c-.7-.7-1.4-1.4-2.1-2q-1.6-1.8-1.6-3.8h-2v-2h-2v-2h-2v-2c-.6-.2-1.1-.5-1.7-.7-3-1.7-5-3.8-7.3-6.3v-2h-2c.3-1.3.7-2.6,1-4,9-1.1,18-2.1,27-3,.9,0,1.8-.2,2.7-.3,19.3-1.9,38.5-2,57.8-1.9Z"/>
          <path class="st101" d="M797.7,954.1h1c.3,4.9.7,9.9,1,15,4,.7,7,1.1,10.8,1.1.9,0,1.8,0,2.8,0,1,0,1.9,0,2.9,0,11.5,0,23,.4,34.5,1,1.3,2.5,2.6,5,3.9,7.6.4.7.7,1.4,1.1,2.1,2.3,4.5,3.5,8.2,3.9,13.3h2q.1.3.8,2c.4.9.7,1.8,1.1,2.7.3.9.7,1.8,1.1,2.7q1.1,2.6,2.1,4.6c1.1,2.2,1.5,4.2,1.9,6.6,1.2,6.5,2.9,12.7,5.6,18.8,1.7,4.1,2.7,8.2,3.8,12.5.7,2.8,1.4,5.5,2.2,8.2,3.2,11.6,4.6,23.7,6,35.7.3,2.4.6,4.9,1,7.3,1.3,8.6,2,17.1,2.2,25.9q0,.6.1,4c.2,8.8.2,17.4-.8,26.1h-2c0-1.2,0-2.3,0-3.5,0-4.4-.2-8.7-.3-13,0-1.9,0-3.7,0-5.6,0-2.7-.1-5.4-.2-8.1,0-.8,0-1.6,0-2.5-.1-5.1-.8-9.9-1.9-14.9-.6-3.1-1-6.2-1.3-9.4q0-.6-.4-3.7c-.1-1.2-.2-2.5-.4-3.8-.2-2.5-.5-5.1-.8-7.6,0-1.1-.2-2.2-.3-3.3q-.4-2.5-1.4-3.5c0-1.5,0-3,0-4.6,0-.8,0-1.7,0-2.5q0-.3,0-1.9h-2q0-.5-.4-2.9c-1.6-10.3-4.2-20.1-7.2-30.1-.3-1-.6-2-.9-3-.3-.9-.6-1.8-.8-2.7q-.6-2.4-.6-6.4h-2c-.2-.8-.4-1.7-.6-2.5q-.1-.5-.8-3.3c-.2-1.1-.5-2.2-.8-3.3q-.8-2.8-2.8-4.8t-1.4-4.6c-1.2-4.3-2.6-8.4-4-12.6q-.5-1.8-.5-3.8h-2q-.3-1.3-2-8h-2v-2h-50c-.3,58.7-.7,117.5-1,178h-2v-178q-5.4.2-33,1c-5.3-.3-10.6-.7-16-1v-2h50v-16l1-1Z"/>
          <path class="st19" d="M579.7,849.1c1.2,2.4,1.1,4,1.1,6.7v3c0,1.1,0,2.2,0,3.3v3.5c0,3.8,0,7.6,0,11.4,0,2.6,0,5.2,0,7.9,0,6.2,0,12.4,0,18.6,0,7.1,0,14.1,0,21.2,0,14.5,0,29.1,0,43.6.9,0,1.8-.2,2.8-.2,8.7-.6,17.2-.9,26-.7,1.3,0,2.6,0,3.9,0,3.5,0,7,0,10.6.2,2.2,0,4.4,0,6.6,0,38,.6,76.1,1.6,114.1,2.6v1c-12.8,0-25.6,0-38.3,0-6,0-11.9,0-17.8,0-36.6,0-73.2-.5-109.8-1.1v181h-1v-181c-1.3-.3-2.6-.7-4-1q.5-.3,3-2,.4-2,.3-4.6v-2.9c0-1.1,0-2.1,0-3.2,0-1.1,0-2.2,0-3.4,0-2.4,0-4.9,0-7.3,0-3.8,0-7.7,0-11.5,0-8.9-.1-17.7-.2-26.6,0-8.8-.1-17.5-.2-26.3,0-3.8,0-7.6,0-11.4,0-2.3,0-4.6,0-6.9,0-1.1,0-2.1,0-3.2v-2.9c0-.8,0-1.7,0-2.6.4-2.6,1.3-3.5,3.4-5.2Z"/>
          <path class="st19" d="M354.4,968c1.7,0,3.3,0,5,0h2.8c3.1,0,6.2,0,9.2,0,2.2,0,4.4,0,6.6,0,6,0,12,0,18,0,6.2,0,12.5,0,18.7,0,10.5,0,21,0,31.5.2,10.8,0,21.6.1,32.4.2.7,0,1.3,0,2,0,3.3,0,6.7,0,10,0,27.7.1,55.5.3,83.2.4v1h-221v181h-2c-.2-23.7-.3-47.4-.4-71.1,0-11-.1-22-.2-33,0-9.6-.1-19.2-.2-28.8,0-5.1,0-10.2-.1-15.2,0-4.8,0-9.6,0-14.3,0-1.8,0-3.5,0-5.3,0-2.4,0-4.8,0-7.2,0-.7,0-1.4,0-2.1,0-1.6,0-3.3,0-4.9q1-1,4.6-1.1Z"/>
          <path class="st19" d="M293.3,968.3c1.6,0,3.2,0,4.8,0,4.1,0,8.2.1,12.3.2,4.2,0,8.5.1,12.7.2,8.2.1,16.5.2,24.7.3v1q-.6,0-3.3,0c-4.1,0-8.2.2-12.2.3-1.8,0-3.5,0-5.3.1-2.5,0-5.1.1-7.6.2q-.4,0-2.4,0-5.7.2-8.4.8c-4.2.7-8.3.7-12.5.7-1,0-1.9,0-2.9,0-3.2,0-6.4,0-9.6,0-2.2,0-4.5,0-6.7,0-5.9,0-11.8.1-17.7.2-4.8,0-9.6,0-14.3.1-5.8,0-11.5.1-17.2.2-1.1,0-2.2,0-3.3,0-16.9.1-33.7.3-50.6,0q-.6,0-3.4,0c-3.5,0-7.1-.2-10.6-.2-2.4,0-4.9-.1-7.3-.1-5.9-.1-11.8-.2-17.7-.4,2.4-2.4,3-2.3,6.3-2.3.9,0,1.8,0,2.8,0,1,0,2,0,3,0,1.1,0,2.1,0,3.2,0,3.5,0,7-.1,10.5-.2,2.4,0,4.9,0,7.3-.1,5.2,0,10.3-.2,15.5-.2,6.5,0,13.1-.2,19.6-.3,6.3-.1,12.6-.2,18.9-.3q.6,0,3.5,0c22.7-.4,45.3-.4,67.9,0Z"/>
          <path class="st21" d="M468.3,855c3.6,0,7.2,0,10.8,0,11.1,0,22.1.1,33.1.6.9,0,1.8,0,2.7.1,4,.2,7.9.6,11.8,1.4,2.8.2,5.6.3,8.4.4q19.8,1,27.6,3.6v5c-.3-1-.7-2-1-3q-.6,0-3.7.1c-3.9,0-7.5-.5-11.3-1.1-6.1-1-12-1.2-18.2-1-3.8,0-7.1-.2-10.8-1-3.6-.3-7.2-.4-10.8-.6-1.1,0-2.2,0-3.3-.1-13-.4-26.1-.5-39.1-.5-2.8,0-5.6,0-8.4,0-23.9-.1-47.6,1.2-71.3,4-1.4.2-2.8.3-4.2.4-1.9.2-3.9.5-5.8.8q-.3.5-2,3c-1-1.7-2-3.3-3-5,9.1-1.5,18.1-2.5,27.2-3.1,1.2,0,2.4-.2,3.6-.3,6.4-.4,12.7-.7,19.1-.6v-2c16.2-.8,32.3-1.2,48.5-1.1Z"/>
          <path class="st9" d="M367.7,862.1q3,1,5,4c1,.3,2,.7,3,1q1.8,1.8,3.6,4,3.2,3.9,5.4,5v2h2v2h2v2h2q1.5,1.6,3.2,3.7c2.2,2.7,4.5,5,7.2,7.2q.4.4,2.6,2.1v2h2v2h2q1.5,1.5,3.2,3.6c5.7,6.6,11.5,12.7,20.6,13.9,1.4,0,2.8.1,4.2.2q.4,0,2.4,0c9,.3,18.1.4,27.1.4s5.7,0,8.6,0c12.8,0,25.3-.8,38-2.2-.3,1-.7,2-1,3-7.6,3.8-19,2.2-27.3,2.2-1.5,0-2.9,0-4.4,0-3.1,0-6.1,0-9.2,0s-7.8,0-11.7,0c-3,0-6,0-9.1,0s-2.9,0-4.3,0c-4.4,0-8.8,0-13.2-.2-.9,0-1.8,0-2.7,0-8.8-.8-14.3-7.9-20.1-13.9-1.2-1.2-2.4-2.4-3.6-3.6-2.5-2.5-5-5-7.4-7.6-3.2-3.2-6.4-6.5-9.6-9.7-3.1-3.1-6.1-6.2-9.1-9.2-.6-.6-1.2-1.2-1.8-1.8-1.6-1.7-3.3-3.3-4.9-5-.5-.5-1-1-1.5-1.5q-3.3-3.4-3.3-5.7Z"/>
          <path class="st91" d="M129.7,973.1c1,.3,2,.7,3,1v177h-2c-.3-58.7-.7-117.5-1-178Z"/>
          <path class="st88" d="M627.7,786.1c.9.1,1.8.3,2.7.4,9.3,1.3,18.3,1.7,27.6,1.6,9.8,0,19.6,0,29.4.7q.6,0,3.4.2c6.5.5,12,1.5,16.9,6.2q.2.5,1,3c1.8,1,3.5,1.9,5.3,2.9,2.4,1.6,3.3,3.7,4.7,6.1,1.7.7,3.3,1.4,5,2,1.4,1.6,2.7,3.3,4,5,1,.7,2,1.3,3,2v2q.7.2,4,1v2h2c.6.8,1.2,1.5,1.8,2.3,2.2,2.7,4.2,3.9,7.2,5.7v2q.5.2,3,1-.2.3-1,2-2.5-1.4-5-3v-2c-.7-.2-1.4-.5-2.2-.8-3.1-1.4-5.3-3-7.8-5.2v-2c-.6-.3-1.2-.5-1.8-.8-2.2-1.2-3.9-2.5-5.8-4.1-.6-.5-1.2-1-1.8-1.5-2.2-2-4.2-4-6.2-6.2q-1.5-1.4-4.5-2.4c-1.7-2-3.4-4-5-6q-.3-.2-2-1v-2c-5-2.5-10.1-2.6-15.6-3.1-1,0-2-.2-3-.2-4.1-.3-8.3-.7-12.5-1-1.1,0-2.1-.2-3.2-.2-.9,0-1.8-.1-2.7-.2q-2.1-.2-5.1-1.2c-2.9,0-5.7,0-8.6,0-9.6.1-18.9-.8-28.4-2.1.3-1,.7-2,1-3Z"/>
          <path class="st74" d="M366.7,863.1c5.8,4.8,11.1,10.1,16.3,15.5,2.6,2.7,5.2,5.4,7.9,8,3.3,3.4,6.6,6.8,9.9,10.2,2.7,2.8,5.4,5.5,8.1,8.3,1,1,2,2.1,3,3.1,6,6.3,10.7,10.6,19.7,10.9q.6,0,3.4.1c3.9.1,7.9.1,11.8,0h4.4c3,0,6.1,0,9.1,0,3.9,0,7.7,0,11.6,0,3,0,6,0,9,0h4.3c8.5,0,16.9-.3,25.4-1.2v2h-9v2c-9.2,0-18.5,0-27.8,0-4.3,0-8.6,0-12.9,0-4.2,0-8.3,0-12.5,0-1.6,0-3.2,0-4.7,0-2.2,0-4.4,0-6.7,0s-2.5,0-3.8,0c-10-.7-14.7-4.3-21.7-11.2-.9-.7-1.9-1.5-2.8-2.2-3.9-3.2-6.9-7-10.2-10.8-1.5-1.8-3.1-3.5-4.6-5.2q-.4-.4-2.2-2.5c-2.2-2.3-4.7-4.3-7.2-6.3-.6-.8-1.1-1.5-1.8-2.3-2.7-3.2-5.8-5.5-9.1-7.9-2.1-1.8-3.6-3.4-5.1-5.8v-2h-2v-3Z"/>
          <path class="st19" d="M161.7,858.1q0,3-2,5.2c-.9.8-1.7,1.6-2.6,2.5-3.7,3.6-6.9,7.2-9.9,11.4-2.2,2.9-4.9,5.4-7.6,7.9-4.7,5-6.5,8.9-6.5,15.7,0,.7,0,1.5,0,2.2,0,2.4,0,4.9,0,7.3,0,1.7,0,3.4,0,5.1,0,4.5,0,8.9,0,13.3,0,4.6,0,9.1-.1,13.6,0,8.9-.1,17.8-.2,26.7-2.4-2.3-2.3-2.8-2.3-6,0-.8,0-1.7,0-2.5,0-.9,0-1.8,0-2.8,0-1,0-1.9,0-2.9,0-3.1-.1-6.2-.2-9.2,0-2.1,0-4.2,0-6.3,0-3.2,0-6.3-.1-9.5,0-5.9-.2-11.8-.5-17.7q-.8-19.2,4.4-26.4,2.5-2.6,4.9-4.7c1.2-1.3,2.5-2.6,3.8-3.9,1.1-1,2.2-2,3.2-3.1,1.7-1.7,3.3-3.3,5-5,1-1,1.9-1.9,2.9-2.9l1.5-1.5,6.7-6.7Z"/>
          <path class="st101" d="M578.7,970.1h59c-.3.7-.7,1.3-1,2-.7,0-1.4,0-2.1,0-7.1,0-14.2,0-21.4,0-2.7,0-5.3,0-8,0-3.8,0-7.6,0-11.4,0-1.2,0-2.4,0-3.6,0h-3.3c-1,0-1.9,0-2.9,0q-2.2.1-3.2,1.1c-.1,2.3-.1,4.6-.2,6.9,0,.7,0,1.4,0,2.2,0,2.5,0,4.9,0,7.4,0,1.8,0,3.5,0,5.3,0,4.8,0,9.6,0,14.3,0,5,0,10,0,15,0,9.5,0,18.9-.1,28.3,0,10.8-.1,21.5-.2,32.3-.1,22.1-.2,44.3-.3,66.4h-1v-181Z"/>
          <path class="st90" d="M572.7,968.1v1h-217v-1c21.6-.2,43.3-.3,64.9-.4,10.1,0,20.1-.1,30.2-.2q86.7-.6,121.9.6Z"/>
          <path class="st19" d="M758.7,845.1c6,2.5,9.8,6.5,13,12,.9.7,1.8,1.4,2.7,2.1.8.6,1.5,1.2,2.3,1.9v3h2c3,2.8,5.8,5.6,8,9v2l3,1v2h2q0,.3.3,1.9c.2.7.5,1.4.7,2.1,1,.3,2,.7,3,1,2.4,3.4,2.2,6.6,2.2,10.6v2c0,2.2,0,4.3,0,6.5,0,1.5,0,3,0,4.5,0,3.9,0,7.9,0,11.8,0,4,0,8,0,12,0,7.9,0,15.8,0,23.6h-1c0-.8,0-1.6,0-2.4-.1-7.6-.2-15.2-.3-22.8,0-3.9-.1-7.8-.2-11.7,0-3.8,0-7.6-.2-11.3,0-1.4,0-2.9,0-4.3,0-2,0-4,0-6,0-1.2,0-2.3,0-3.5q-.2-2.8-1.2-5.8h-2c-3.1-3-5.7-6.5-8.1-10.2-2-2.9-4.2-4.6-6.9-6.8v-2h-2c-1.2-1.7-2.4-3.5-3.6-5.2q-1.4-1.8-4-3.9c-2.9-2.3-3.8-4.6-5.4-7.9-1.3-1.7-2.6-3.4-4-5Z"/>
          <path class="st94" d="M351.7,848.1q7.9,6.8,11.4,10.4c.7.7,1.4,1.4,2.1,2.1.5.5,1,1,1.5,1.5l-1,2c-1.3-1.1-2.7-2.2-4-3.4-.7-.6-1.5-1.2-2.2-1.9-.6-.6-1.2-1.1-1.8-1.7v-2h-4v114h-2v-121Z"/>
          <path class="st12" d="M572.7,970.1h5v181h-1c-.3-59.1-.7-118.1-1-179h-3v-2Z"/>
          <path class="st69" d="M566.7,864.1q0,3-1.5,4.8c-.7.7-1.3,1.4-2,2-.8.8-1.5,1.5-2.3,2.3q-.4.4-2.5,2.5-.4.4-2.6,2.6c-1.8,1.8-3.6,3.6-5.4,5.4-2.8,2.8-5.5,5.5-8.3,8.3-1.8,1.8-3.5,3.5-5.3,5.3-.8.8-1.7,1.7-2.5,2.5-.8.8-1.6,1.5-2.4,2.3-.7.7-1.4,1.3-2.1,2-2.2,1.9-4.5,3.3-7.1,4.8-2.1,2-4.1,4.1-6,6.3-2,1.8-3.3,2.4-6,2.7q.3-.3,2.1-2.1c2-2,4-4.1,5.9-6.2.5-.6,1.1-1.2,1.6-1.8,1.1-1.2,2.2-2.4,3.2-3.6,2.8-3,5.5-5.8,8.6-8.4,3.9-3.3,7.5-6.9,11-10.5.6-.6,1.2-1.2,1.8-1.8,2.4-2.5,4.9-4.9,7.3-7.4,1.8-1.8,3.6-3.6,5.4-5.5.6-.6,1.1-1.1,1.7-1.7,2.4-2.4,4-4,7.2-5.1Z"/>
          <path class="st52" d="M350.7,847.1c.9,3,1.1,5.7,1.1,8.9,0,1,0,2,0,3,0,1.1,0,2.2,0,3.3q0,.6,0,3.4c0,3.8,0,7.6,0,11.3,0,2.6,0,5.2,0,7.8,0,5.5,0,11-.2,16.4,0,6.4-.1,12.7-.2,19l-.2,18.3c0,2.6,0,5.2,0,7.8,0,3.6,0,7.2,0,10.9,0,1.1,0,2.2,0,3.3,0,1,0,2,0,3,0,.9,0,1.7,0,2.6q-.1,1.9-1.1,2.9c-2.1,0-4.2.1-6.3.1h-2c-2.2,0-4.3,0-6.5,0-1.5,0-3,0-4.5,0-3.9,0-7.9,0-11.9,0-4,0-8.1,0-12.1,0-7.9,0-15.9,0-23.8,0v-1c.8,0,1.6,0,2.5,0,7.6,0,15.3-.2,22.9-.3,3.9,0,7.9-.1,11.8-.2,3.8,0,7.6,0,11.4-.2,1.4,0,2.9,0,4.3,0,2,0,4,0,6.1,0,1.2,0,2.3,0,3.5,0q2.6-.2,3.6-1.2c.1-1.5.1-3,.1-4.6,0-1,0-2,0-3,0-1.1,0-2.2,0-3.3,0-1.1,0-2.3,0-3.4,0-2.5,0-5,0-7.4,0-3.9,0-7.8,0-11.8,0-8.3.1-16.7.2-25,0-9.6.1-19.3.2-28.9,0-3.9,0-7.8,0-11.6,0-2.4,0-4.7,0-7.1,0-1.1,0-2.2,0-3.3,0-1,0-2,0-3,0-.9,0-1.7,0-2.6q.1-2.1,1.1-4.1Z"/>
          <path class="st12" d="M352.7,970.1h122v1c-10.5.2-21,.3-31.4.5-.8,0-1.5,0-2.3,0-23.4.4-46.7.6-70.1.4-1,0-1.9,0-2.9,0-1.8,0-3.5,0-5.3,0q-5.7,0-7.9,1.1c-.3,10.9-.7,21.8-1,33h-1v-36Z"/>
          <path class="st9" d="M559.7,865.1c1,.3,2,.7,3,1-5.3,6.5-11.2,12.4-17.2,18.3l-5.3,5.3c-5.4,5.4-10.8,10.5-16.6,15.4-1.3,1.4-2.5,2.8-3.8,4.2-2,2.4-4,4.6-6.2,6.8-.7-.3-1.3-.7-2-1,.3-.7.7-1.3,1-2h2c.2-.7.4-1.4.6-2.1,1.7-3.4,3.7-5,6.6-7.4,3.2-2.6,6.1-5.6,8.8-8.8.7-.8,1.4-1.6,2.1-2.5.7-.8,1.3-1.6,2-2.4q1.9-1.8,4.9-1.8l1-4h3c0-.7,0-1.4,0-2.1,1.4-4.2,4.3-6.5,7.9-8.9h3c0-.6.2-1.2.2-1.8,1-2.9,2.5-4.2,4.8-6.2Z"/>
          <path class="st84" d="M577.7,853.1c0,14.8,0,29.7.1,44.5,0,6.9,0,13.8,0,20.6,0,6.6,0,13.3,0,19.9,0,2.5,0,5.1,0,7.6,0,3.5,0,7.1,0,10.6s0,2.1,0,3.2c0,1,0,1.9,0,2.9s0,1.7,0,2.5q-.2,2-2.2,4c-1-.3-2-.7-3-1q.5-.3,3-2,.4-1.9.4-4.4c0-.9,0-1.8,0-2.8s0-.5,0-3.1v-3.2c0-3.5,0-7.1,0-10.6,0-2.4,0-4.9,0-7.3,0-6.4,0-12.9,0-19.3,0-6.6,0-13.1,0-19.7,0-12.9,0-25.8-.1-38.7-.5.5-.9,1-1.4,1.5-.6.6-1.2,1.3-1.9,1.9-.6.6-1.2,1.2-1.8,1.9-1.9,1.7-3.6,2.7-5.9,3.7,1.5-3.6,3.7-6,6.5-8.8.8-.8,1.6-1.6,2.4-2.4q2.1-1.8,4.1-1.8Z"/>
          <path class="st106" d="M79.7,975.1c1.1,3.7.8,5.2-.9,8.8-1.4,3.2-2.4,6-2.6,9.5-.6,4.3-2,6.2-4.5,9.8-.7,2.3-1.4,4.7-2,7-.5,1.6-1,3.3-1.5,4.9-.2.8-.5,1.5-.7,2.3q-.8,1.8-2.8,2.8t-1,4h-2q-.2.7-1,4c.4-6,1.5-10.7,3.9-16.2,1.2-3,2.3-6,3.3-9.1,3.3-9.5,7.6-18.5,11.8-27.6Z"/>
          <path class="st95" d="M303.7,784.1c2.1,2.1,2.4,3.1,3,6-.6,0-1.2,0-1.9,0-12.1.4-24.1,1-36.1,2.3-4.7.5-9.3.7-14.1.7-2.3,0-4.6.2-6.9.5-5.4.6-10.7.6-16.1.5q1-1.5,3-3c2.7-.3,5.2-.5,7.8-.5.8,0,1.5,0,2.3,0,2.5,0,4.9,0,7.3,0,2.5,0,4.9,0,7.3-.1,1.5,0,3,0,4.6,0,3.1,0,5.6-.2,8.6-1.2,2.4-.2,4.7-.4,7.1-.5q.4,0,2.1-.1c2.2-.1,4.4-.3,6.5-.4,1.5,0,3-.2,4.4-.3,3.6-.2,7.2-.4,10.9-.7v-3Z"/>
          <path class="st66" d="M301.7,780.1q2,2,2.1,4.6c0,.8,0,1.6-.1,2.4-9.2,1.4-18.4,2.3-27.7,2.8q-3.3.2-6.3,1.2c-3,.1-5.9.3-8.8.3-.9,0-1.7,0-2.6,0-2.8,0-5.5.1-8.3.2-1.9,0-3.7,0-5.6.1-4.6.1-9.2.2-13.7.3,2.4-2.4,3-2.3,6.2-2.5.9,0,1.8-.1,2.7-.2,1,0,1.9,0,2.9-.1,1,0,2-.1,3-.2,3.2-.2,6.4-.4,9.6-.5,4.1-.2,8.3-.5,12.5-.7,1,0,2-.1,3.1-.2,9.7-.6,19.4-1.5,29.1-2.6.7-1.7,1.3-3.3,2-5Z"/>
          <path class="st13" d="M52.7,1060.1h2c-.1,2.2-.3,4.5-.4,6.7,0,1.2-.2,2.5-.2,3.8-.3,2.9-.7,5.7-1.3,8.6-4.7,23.9-4.2,47.8-4,72h-2q-.6-45.7,2.7-66.7c.5-3.3.7-6.5.9-9.8.3-5,1.2-9.6,2.4-14.5Z"/>
          <path class="st24" d="M230.7,792.1q.3.2,2,1c-2.2,2-4.4,4.1-6.6,6.1-.6.6-1.2,1.1-1.8,1.7-3.1,2.9-6.2,5.8-9.4,8.6q-.3.2-1.7,1.5t-3.5,1.1c-.3.6-.5,1.2-.8,1.8-1.3,2.4-2.5,3.6-4.6,5.2-12.9,11-24.7,22.9-36.6,34.9,0-3.8,1.3-4.7,3.9-7.3.6-.6,1.1-1.1,1.7-1.7q.3-.3,1.8-1.8c1.2-1.2,2.5-2.5,3.7-3.7,1.9-1.8,3.7-3.7,5.6-5.5,6.8-6.7,13.5-13.3,21-19.2q2.3-1.9,4.6-4.1c2.8-2.8,5.7-5.5,8.7-8.2.5-.5,1-.9,1.5-1.4,3.4-3.1,7-6.1,10.6-9.1Z"/>
          <path class="st19" d="M350.7,851.1h1v117h-1v-117ZM347.7,969.1l2,1-2-1Z"/>
          <path class="st12" d="M474.7,970.1h98v1c-12.4.8-24.8,1.1-37.3,1.1-1.8,0-3.5,0-5.3,0-4.6,0-9.2,0-13.8,0-4.7,0-9.4,0-14.1,0-9.2,0-18.4,0-27.6,0v-2Z"/>
          <path class="st109" d="M132.7,1046.1h2c-.3,34.7-.7,69.3-1,105h-1v-105Z"/>
          <path class="st101" d="M637.7,970.1c36,.3,71.9.7,109,1v1h-109v-2Z"/>
          <path class="st102" d="M638.7,760.1h1c.2,4.5-.3,7.4-2.3,11.4-.5.9-.9,1.9-1.4,2.9q-.2.4-1.3,2.7c-1,2.3-2,4.7-3,7,2.1,2.1,6.5,1.5,9.4,1.8q.4,0,2.5.2c2.7.2,5.4.4,8.1.6,1.8.1,3.6.3,5.5.4,4.5.4,9,.7,13.5,1v1c-14.1.2-28,.4-42-2,.6-4.5,2.4-8.3,4.4-12.4,2.4-4.8,4.2-9.4,5.6-14.6Z"/>
          <path class="st19" d="M45.7,1107.1h1v44h-2c-.9-5.1-1.2-10.1-1.1-15.3v-2.3c0-5.8.2-11.6.6-17.4,0-.8,0-1.6.1-2.4q.3-5.5,1.4-6.6Z"/>
          <path class="st93" d="M638.7,729.1c4.6,5.8,4.6,10.9,4,18-2.7,14.3-7.7,27.4-15,40l-1-2c.8-1.7,1.6-3.4,2.6-5,2.7-5.3,4.9-10.6,6.7-16.3.3-.8.5-1.5.8-2.3,3.5-10.7,3.6-21.3,1.9-32.4Z"/>
          <path class="st108" d="M308.1,712.9q.5,0,2.9,0c-3.4,4.1-6.8,7.8-10.6,11.5-6.4,6.4-8.6,9.7-8.7,19,0,4.9.5,9.6,1.3,14.5-4-4-4.2-10-4.4-15.4.2-8.3,3.1-13.5,8.9-19.4,1.5-1.4,3-2.8,4.5-4.2,1.3-1.3,2.7-2.7,4-4-.7-.3-1.3-.7-2-1q1-1,4.1-1.1Z"/>
          <path class="st109" d="M132.7,977.1h2c.2,23-.3,46-1,69h-1v-69Z"/>
          <path class="st19" d="M131.7,969.1q.2.3,1,2c.7.3,1.3.7,2,1-3.2,2.1-3.9,2.2-7.6,2.2-.9,0-1.9,0-2.8,0-1,0-2,0-3,0-2.1,0-4.2,0-6.3,0-3.4,0-6.7-.1-10-.2-3.2,0-6.5-.1-9.7-.2-1,0-2,0-3,0-2.6,0-4.9,0-7.4.5q-2.2,2.5-3,5-.7-1.8-1-4c1.6-2.1,2.5-2.9,5.1-3.4.8,0,1.7,0,2.5,0,.9,0,1.9,0,2.8-.1,1,0,2,0,3.1,0s2.1,0,3.1-.1c3.3-.1,6.6-.2,9.9-.3,3.3-.1,6.6-.2,10-.3,2.1,0,4.1-.1,6.2-.2.9,0,1.9,0,2.8,0,.8,0,1.7,0,2.5,0q1.9-.2,2.9-1.2Z"/>
          <path class="st7" d="M795.7,889.1h1v82h-7q.2-.3,1-2,.7-.2,4-1c.3-26.1.7-52.1,1-79Z"/>
          <path class="st61" d="M298.7,724.1q0,3-1.9,5.2c-4.1,5.3-4.5,10.4-3.7,16.8,1.3,7.2,3.2,14.3,5.7,21.2.8,2.8.8,4.1-.2,6.8-5.2-12.8-10-24.9-8-39,1.9-4.4,4.6-7.6,8-11Z"/>
          <path class="st91" d="M86.8,972.7c2.7-.1,5.4-.1,8.1,0q.5,0,3,0c3.2,0,6.4,0,9.5.1,2.1,0,4.3,0,6.5,0,5.3,0,10.6.1,15.9.2v1c-1.2,0-2.5,0-3.8,0-4.6,0-9.3,0-13.9.1-2,0-4,0-6,0-2.9,0-5.8,0-8.6.1q-.4,0-2.7,0c-4.5.1-6.4.3-10,3.1-1.9,2.6-2.9,4.6-4,7.6-1.3,2.4-2.6,4.7-4,7-1.2-3.7-.6-4.6.8-8.1.3-.9.7-1.8,1.1-2.7q1.1-2.2,3.1-3.2c.3-.8.7-1.7,1-2.5q2-2.5,4-2.9Z"/>
          <path class="st7" d="M705.7,969.1c28-.1,56,.2,84,1v1c-28,.1-56-.1-84-1v-1Z"/>
          <path class="st19" d="M59.7,1028.1h1c-.1,1.4-.2,2.8-.4,4.2,0,.8-.1,1.5-.2,2.3q-.4,2.5-1.3,4.7c-1.5,3.9-2,7.9-2.7,12.1-.1.8-.3,1.7-.4,2.5-.3,2-.6,4.1-1,6.1h-2c0,.6,0,1.2-.2,1.8,0,.8-.2,1.6-.2,2.4,0,.8-.1,1.6-.2,2.4-.4,2.5-1.2,4.2-2.4,6.4.8-14.3,3.5-32,10-45Z"/>
          <path class="st92" d="M64.7,1019.1h1c-.7,6.2-2.2,12.2-3.9,18.2-.2,1-.5,2-.8,3-1.8,6.6-3.5,13.2-5.3,19.8h-1q1.4-16.8,4.2-23.8c1.4-4,2-8.1,2.8-12.2h2c.3-1.7.7-3.3,1-5Z"/>
          <path class="st101" d="M797.7,887.1h1c.3,21.8.7,43.6,1,66q-.3.2-2,1v-67Z"/>
          <path class="st25" d="M626,715c2.5,1.2,4.7,2.5,7,4v2h3v3l3,1c5.9,6.2,5.6,13.8,5.4,21.8-.3,4.2-1.1,8.1-2.4,12.2q-.3.2-2,1c.1-.7.3-1.5.4-2.2q3.5-19-1.6-28.2c-3.1-4.3-6.8-7.8-10.6-11.4-.7-.7-1.5-1.4-2.2-2.2v-1Z"/>
          <path class="st60" d="M230.7,794.1c1,.3,2,.7,3,1-.7.5-1.4,1.1-2.1,1.6-5.9,4.7-11.2,9.6-16.5,14.9-3.3,3.2-6.8,6-10.4,8.7-1.8,1.5-3.5,3-5.1,4.7l-2-1c4.4-4.5,8.9-8.9,13.7-13,3.4-3,6.7-6,10-9.1q6.4-5.9,9.3-7.9Z"/>
          <path class="st19" d="M49.7,1073.1h1c.2,7.5-.6,14.7-1.5,22.1-.1,1.1-.3,2.3-.4,3.5-.3,2.8-.7,5.6-1.1,8.5h-2c-.4-8.1.2-15.8,1.4-23.8.1-.9.3-1.8.4-2.7q1-6.4,2.2-7.5Z"/>
          <path class="st82" d="M738.7,828.1q1.9.4,4,1c.3.7.7,1.3,1,2,1.7,1,3.4,1.9,5.2,2.9,2.7,1.7,4.7,3.8,6.8,6.1.5.5,1.1,1,1.6,1.5,1.8,2,3,4.2,4.4,6.5l1.7,1.7,1.3,1.3v2h-2q-1.4-1.4-3-3.4c-5.5-6.4-11.2-12.8-18.1-17.6-1-.7-1.9-1.3-2.9-2v-2Z"/>
          <path class="st112" d="M195.7,825.1l2,1-34,34q-.2-.5-1-3c.7-.6,1.4-1.3,2.1-1.9,10.7-9.7,20.8-19.9,30.9-30.1Z"/>
          <path class="st109" d="M133.7,972.1h52v1c-1.3,0-2.6,0-3.9,0-4.8,0-9.7.2-14.5.3-2.1,0-4.2,0-6.3,0-3,0-6,.1-9,.2-.9,0-1.9,0-2.8,0-5.9.1-11.1.7-16.5,3.4.3-1.7.7-3.3,1-5Z"/>
        </g>
        <path class="st22" d="M365.6,971.8c.9,0,1.8,0,2.7,0,3,0,5.9,0,8.9,0h6.4c5.8,0,11.5,0,17.3,0,6,0,12.1,0,18.1,0,10.1,0,20.3,0,30.4,0,11.7,0,23.5,0,35.2,0s22.6,0,33.8,0c4.8,0,9.6,0,14.4,0s11.3,0,17,0h6.2c2.8,0,5.7,0,8.5,0h2.5c3.3,0,5.9,0,9,1.1.9,9.9,1.1,19.8,1.1,29.7v5c0,4.4,0,8.8,0,13.2,0,4.2,0,8.3,0,12.5,0,12.1,0,24.2,0,36.4,0,27.1,0,54.2,0,82.2h-224c0-23.2,0-46.5,0-70.4,0-7.3,0-14.5,0-22q0-9,0-13.3c0-2.9,0-5.8,0-8.7,0-15.6,0-31.2.4-46.8,0-1.5,0-2.9,0-4.4,0-2,0-4.1.1-6.1,0-1.2,0-2.3,0-3.5.1-.9.3-1.8.4-2.7,3.9-2.6,7.1-2.3,11.5-2.2Z"/>
        <path class="st96" d="M351,971v181h-217c0-28.8,0-57.7-.1-87.4,0-9.1,0-18.2,0-27.6q0-11.1,0-16.3c0-3.6,0-7.3,0-10.9,0-4.6,0-9.3,0-13.9s0-3.4,0-5.1c0-2.3,0-4.6,0-6.9,0-1.3,0-2.6,0-3.9q.2-3,2.2-5c5.9-1.3,12.2-1.2,18.2-1.3.9,0,1.7,0,2.6,0,1.8,0,3.6,0,5.5-.1,2.7,0,5.4-.1,8.1-.2,9.2-.2,18.4-.3,27.6-.3,18.6,0,37.3-.2,55.9-.4,5.5,0,10.9-.1,16.4-.2,4.2,0,8.4,0,12.7-.1,2,0,4,0,6,0,2.8,0,5.6,0,8.4,0,.8,0,1.6,0,2.5,0,.8,0,1.5,0,2.3,0,.7,0,1.3,0,2,0,15.6-1.1,31.3-1.1,47-1.1Z"/>
        <path class="st22" d="M629.2,789.6c2.8,0,5.4.2,8.2.5,2,.1,4,.3,6,.4q.5,0,3,.2c3.7.2,7.3.2,11,.1,5,0,9.4.3,14.2,1.6,3.1.5,6,.5,9.1.4,3.9,0,7.8.4,11.7.8.8,0,1.5.1,2.4.2,4.4.5,7.8,1.1,11.4,4v2c1,.3,2,.7,3,1q2.2,1.9,4,4v2l4,1v2c.7.2,1.4.4,2.2.7,3.4,1.6,5.2,3.6,7.8,6.3,1.1.9,2.2,1.8,3.3,2.7.9.8,1.8,1.5,2.7,2.3v2c1,.3,2,.7,3,1v2c1,.3,2,.7,3,1,.3,1,.7,2,1,3q1.6,1.3,3.7,2.8c4.7,3.5,8.8,7.4,12.9,11.5.6.6,1.3,1.2,1.9,1.9.6.6,1.2,1.2,1.8,1.8q.3.3,1.6,1.6t1.1,3.4c1,.3,2,.7,3,1,3.7,3.4,6.9,7,10,11v2h2c4.3,3.8,7.9,8.2,11,13v2c1.3.7,2.6,1.3,4,2v2h2c1.5,3,1.2,6.2,1.2,9.5,0,.8,0,1.5,0,2.3,0,2.6,0,5.2,0,7.7,0,1.8,0,3.6,0,5.4,0,3.8,0,7.5,0,11.2,0,4.8,0,9.6,0,14.4,0,3.7,0,7.4,0,11.1,0,1.8,0,3.6,0,5.3,0,2.5,0,5,0,7.4,0,.7,0,1.5,0,2.2q0,2-.4,5.3c-3.7,2.4-6.4,2.3-10.6,2.2h-2.4c-2.8,0-5.5,0-8.3,0-2,0-4,0-6.1,0-30.8-.1-61.6-.6-92.4-1.1-13.9-.2-27.8-.4-41.8-.6-4.9,0-9.7-.1-14.6-.2-3,0-6,0-9-.1-2,0-4.1,0-6.1,0-7.9-.1-15.9-.2-23.8-.1-1-2.9-1.1-4.8-1.2-7.8,0-1,0-1.9,0-2.9,0-1.1,0-2.1,0-3.2,0-1.1,0-2.3,0-3.4-.1-10.4-.2-20.8-.2-31.2,0-7.7,0-15.4-.2-23,0-6.1-.1-12.1-.1-18.2,0-2.6,0-5.1,0-7.7,0-3.6,0-7.2,0-10.8,0-1.1,0-2.1,0-3.2,0-6.1,1.1-9.1,5.5-13.5,1.5-1.3,3.1-2.7,4.7-4,1.2-1.3,2.5-2.7,3.7-4.1.6-.7,1.1-1.3,1.7-2,.5-.6,1.1-1.3,1.6-1.9.5-.6,1.1-1.3,1.7-1.9,8.2-9.6,15.6-19.5,22.6-29.9q.2-.4,1.5-2.1,1.3-2,3-5.6,2.3-2.4,4.4-2.8Z"/>
        <path class="st22" d="M301.8,789.7c2.5,0,4,0,6.2,1.3,2,2.6,3.5,5.4,5,8.3,2.2,4.2,5,7.9,7.9,11.7.5.7,1,1.4,1.6,2.1q18.3,23.9,27.2,31.2c1.9,2.2,1.7,3.7,1.7,6.6v3.1c0,1.1,0,2.2,0,3.4,0,1.2,0,2.3,0,3.6,0,3.2,0,6.4-.1,9.7,0,3.4,0,6.8,0,10.1,0,5.7,0,11.3-.2,17,0,6.6-.1,13.1-.2,19.7,0,6.3,0,12.6-.2,18.9,0,2.7,0,5.4,0,8.1,0,3.8,0,7.5-.1,11.2,0,1.1,0,2.2,0,3.4q0,.5,0,3.1,0,.4,0,2.7t-2.3,4.1c-2.5.2-5,.3-7.5.3q-.4,0-2.3,0c-2.6,0-5.1,0-7.7,0-1.8,0-3.6,0-5.4,0-4.7,0-9.5.1-14.2.1-4.8,0-9.5,0-14.3.1q-26.9.3-36.6.2c-12.3,0-24.6.2-36.9.4-2.5,0-4.9,0-7.4.1-6.5.1-12.9.2-19.4.4-10.4.2-20.8.4-31.2.6-3.6,0-7.2.1-10.9.2-2.2,0-4.4,0-6.6.1-1,0-2,0-3.1,0-.9,0-1.8,0-2.8,0q-.4,0-2.4,0c-2.1,0-4.1,0-6.2,0-.2-10-.3-20-.4-30,0-4.6,0-9.3-.2-13.9,0-4.5-.1-9-.1-13.5,0-1.7,0-3.4,0-5.1q-.3-16.2,6-22.8c.6-.5,1.1-1,1.7-1.6.7-.8,1.5-1.6,2.2-2.3.6-.6,1.2-1.1,1.8-1.7,2.6-2.5,4.8-5,6.9-7.9,3.6-5,7.9-9.3,12.6-13.3,4.5-3.9,8.8-7.9,13-12.2q.3-.3,1.8-1.8c2.4-2.5,4.9-5,7.3-7.5,6.8-6.9,13.5-13.4,21-19.4,2.9-2.3,5.6-4.8,8.3-7.3,1-.9,2-1.8,3-2.8.5-.4,1-.9,1.5-1.4,2.5-2.4,5.1-4.7,7.6-7,.9-.8,1.8-1.6,2.7-2.5,4.1-3.6,8.2-3.4,13.4-3.9.9,0,1.8-.2,2.8-.3,7.9-.7,15.8-1.1,23.7-1.4,4.5-.2,8.8-.5,13.3-1.3,6.3-.6,12.5-.7,18.8-1.3Z"/>
        <path class="st79" d="M588,971.7c.9,0,1.7,0,2.6,0h2.9c3.3,0,6.6,0,9.8,0,2.4,0,4.8,0,7.1,0,8.2,0,16.5,0,24.7.1,3.1,0,6.1,0,9.2,0,15.6,0,31.3.2,46.9.4,3.7,0,7.4,0,11.1,0,5.9,0,11.9.1,17.8.1,2.2,0,4.4,0,6.6,0q19.1.2,28.2.8c13.7.7,27.3.5,41,.5v178h-216c0-29.3,0-58.7-.1-88.9,0-9.3,0-18.5,0-28.1q0-11.3,0-16.6c0-3.7,0-7.4,0-11.1,0-4.7,0-9.4,0-14.1s0-3.5,0-5.2c0-2.3,0-4.7,0-7,0-1.3,0-2.6,0-4,.5-5.6,3.3-5.3,8.2-5.3ZM662.1,989.6c-.6.4-1.2.8-1.8,1.1-10.7,5.9-22.5,4.7-34.2,3.2-.9,1-1.7,2.1-2.6,3.2-.5.6-1,1.2-1.5,1.8-1.4,2.8-.9,4.1,0,7,.8,1.7,1.6,3.4,2.5,5,4.6,8.7,4.9,19.6,2.8,29.1-2.9,8.4-7.5,16.2-13.3,22.9,1.1,2.5,1.8,3.9,4,5.5,3.1,3.8,2.7,7.8,3,12.6.6,7.6,1.1,14.2,5,20.9q.2.4,1.3,2.3c7.2,11.7,17.9,20.5,31.3,24,3.1.7,6.1,1.3,9.2,1.9,6.2,1.1,11.2,2.3,16.1,6.4.8.6,1.5,1.3,2.3,1.9q.3.2,1.7,1.5c1.5-.9,2.9-1.9,4.4-2.9.8-.5,1.6-1.1,2.5-1.6q2.2-1.5,4.2-3.5t4.5-1c.9-.2,1.8-.4,2.8-.6,1-.2,2-.4,3-.6,15.8-3.4,29.1-9.3,38.6-23,5.7-9.6,7.7-19.6,8.2-30.6.4-5.5,1.8-7.3,5.9-11.2,0-3.5-2-5.4-4.2-7.9-8.4-10.3-10.8-22.8-9.5-35.7.9-5.4,2.7-9.6,5.6-14.3,1.2-2.1,1.9-3.6,2.1-6q-1.2-2.1-2.9-4.2c-.6-.7-1.1-1.4-1.7-2.1q-.2-.3-1.3-1.6c-1.2.3-2.4.7-3.7,1-11,2.4-20.9,1.2-31.3-3-1-.7-2-1.3-3-2-2.9.4-5.2,1.5-7.8,2.9-8.4,4.2-17.3,5.9-26.5,3-3.8-1.6-7.6-3.4-11.3-5.2q-2.4-.7-4.3-.1Z"/>
        <path class="st41" d="M354,855c3.8.4,5.6,2.2,8,5v2c.6.3,1.3.5,1.9.8q2.1,1.2,3.1,4.2h2q3,3.5,3,6c.6.2,1.1.5,1.7.8,2.6,1.4,4.5,3.1,6.7,5,.7.7,1.5,1.3,2.2,2,4.6,4.3,8.9,8.8,13.1,13.4.5.6,1,1.1,1.6,1.7,3.1,3.3,6,6.7,9,10.1,2.9,3.3,5.9,5.6,9.6,7.9,1.3,1.7,2.7,3.3,4,5,5.1,3.4,11.4,3.1,17.3,3.2q.3,0,2.1,0c2.3,0,4.6,0,6.9,0,1.6,0,3.2,0,4.8,0,4.2,0,8.4.1,12.6.2,4.3,0,8.6.1,12.9.2,8.4.1,16.9.2,25.3.3v-2h9v-2c1.4-.9,2.8-1.8,4.1-2.7,3-2.1,5.3-4.8,7.8-7.4q2-1.9,4.1-3c4.3-2.8,7.6-6.4,11.2-10q.4-.4,2.4-2.4c1.7-1.7,3.4-3.4,5.1-5.1,2.6-2.6,5.1-5.1,7.7-7.7,1.6-1.6,3.3-3.3,4.9-4.9.8-.8,1.5-1.5,2.3-2.3,4.1-4.1,8-8.4,11.8-12.8q1.5-1.6,4.5-3.6c0,14.3.1,28.6.2,42.9,0,6.7,0,13.3,0,19.9,0,6.4,0,12.8,0,19.2,0,2.4,0,4.9,0,7.3,0,3.4,0,6.8,0,10.3,0,1,0,2,0,3.1,0,.9,0,1.9,0,2.8,0,.8,0,1.6,0,2.5q0,.3-.4,2c-3.6,2.4-6.1,2.2-10.2,2.2-.8,0-1.5,0-2.3,0-1.7,0-3.5,0-5.2,0-5.2,0-10.3,0-15.5,0-1.2,0-2.4,0-3.6,0-17.3,0-34.6,0-51.8.2-4.8,0-9.6,0-14.5,0-8.9,0-17.8,0-26.7.2-10.2,0-20.4.1-30.6.2-20.9.1-41.8.2-62.6.4-.6-8.6-1.1-17.1-1.1-25.8v-2.9c0-3.1,0-6.3,0-9.4,0-2.2,0-4.4,0-6.6,0-4.6,0-9.1,0-13.7,0-5.9,0-11.7,0-17.6,0-4.5,0-9,0-13.5,0-2.2,0-4.3,0-6.5,0-3,0-6,0-9s0-1.8,0-2.7q0-6.1,1.1-7.2Z"/>
        <path class="st4" d="M799,974h50v2h2c1.8,3.1,2,4.2,2,8h2c.2.6.4,1.3.5,1.9,1.5,5.2,3.2,10.1,5.5,15.1q.3.8,2,5c.5,1.1,1.1,2.3,1.6,3.4,1.4,3.5,1.6,5.8,1.4,9.6h2c1.1,3.8,2.2,7.6,3.3,11.5.6,1.9,1.1,3.9,1.7,5.8q5.3,18.6,5,27.7h2c0,.6.1,1.3.2,1.9,0,.8.2,1.7.3,2.5,0,.8.2,1.6.2,2.5q.3,2.1,1.3,3.1c.3,1.9.5,3.9.7,5.9.1,1.2.2,2.4.4,3.7.2,2.6.5,5.1.8,7.7.1,1.2.2,2.4.4,3.7.1,1.1.2,2.2.3,3.4.6,4.6,1.6,9.1,2.5,13.7v40h-89q0-44.1,0-62.5c0-12.7,0-25.5,0-38.2,0-9.3,0-18.5,0-27.8,0-4.9,0-9.8,0-14.7v-13.9c0-1.7,0-3.4,0-5.1v-10.9q.1-3,1.1-5Z"/>
        <path class="st22" d="M97.6,974.7c.9,0,1.9,0,2.8,0,2,0,3.9,0,5.8,0,3,0,6,0,9,0,1.9,0,3.8,0,5.7,0q.5,0,2.7,0,6.3,0,7.4,1.2c.1,1.9.2,3.9.2,5.8,0,1.3,0,2.5,0,3.8,0,1.4,0,2.8,0,4.2,0,1.5,0,3,0,4.4,0,4,0,8.1,0,12.1,0,3.4,0,6.8,0,10.2,0,8,.1,16,.1,24,0,8.2.1,16.4.2,24.7,0,7.1,0,14.2.1,21.2,0,4.2,0,8.4,0,12.6,0,4,0,8,0,12,0,1.4,0,2.9,0,4.3.1,12.2-.5,24.3-1,36.5H49c-1-4.2-1.2-8-1.2-12.3,0-.8,0-1.6,0-2.5,0-1.7,0-3.5,0-5.2,0-2.6,0-5.2,0-7.7,0-18.1,1.5-36.4,5.7-54,.6-2.7,1-5.3,1.4-8,.9-5.6,2.4-10.8,4.2-16.2.8-2.5,1.4-4.9,1.9-7.4,1.9-9,4.5-17.8,8.1-26.3.8-2.2,1.4-4.3,1.9-6.5.9-3.6,2-5.6,3.9-8.7,1.1-2.6,2.1-5.2,3-7.8q1-2.2,3-4.2c.5-1.1.9-2.3,1.4-3.4,3.4-7.4,7.8-7,15.2-6.9Z"/>
      </g>
    </g>
  </g>
</svg>