<?xml version="1.0" encoding="UTF-8"?>
<svg id="Layer_2" xmlns="http://www.w3.org/2000/svg" version="1.1" viewBox="-48.36 -13.47 331.20 376.36">
  <!-- Generator: Adobe Illustrator 30.5.1, SVG Export Plug-In . SVG Version: 2.1.4 Build 3)  -->
  <defs>
    <style>
      .st0 {
        fill: none;
        stroke: #231f20;
        stroke-miterlimit: 10;
      }
    </style>
  </defs>
  <g>
    <line class="st0" x1="117" y1="165.6" x2="109.9" y2="212.8"/>
    <path class="st0" d="M97.1,210s-5.4,7.3-4.2,12.1c1.2,4.7,9.1,5.1,11.2,6.2,3.6,2,7.7,12.9,15,13.1s14.4-12,22-12.5"/>
    <path class="st0" d="M137.9,235.5s14.2.2,12-13.2"/>
  </g>
  <g>
    <path class="st0" d="M150.2,262.7s-22.7,1.8-29.5-1.4-16-3-21.9-3.4-14.5-3.9-14.5-3.9"/>
    <path class="st0" d="M147,264.9s-13.7,3.8-16.7,5c-7-.2-19.1-.9-23.3-2.5s-11.7-3.4-14.4-3.4"/>
    <path class="st0" d="M137.2,278.2s-20.8,6.8-36.9-.8"/>
  </g>
  <g>
    <path class="st0" d="M155.4,160.4s29.3.5,37.6,3.3c8.5,1.9,5.7-3.3-3.3-7.6s-25.9-8.3-42.7-1.9c-4.8,4,8.4,6.2,8.4,6.2h0Z"/>
    <path class="st0" d="M113.5,153.3s-2-10-27-11.2-31.1,1.6-34.6,7.8,15.9.8,26,1,36,7.3,35.6,2.4h0Z"/>
  </g>
  <path class="st0" d="M213.2,190.7s1.6,14,0,28.7c-1.6,14.8-6.1,16.2-7,24.3s-2.9,17.1-6.2,22.6-12.4,16-14.3,22.2-23.4,66.2-69.6,60-72.4-39.5-74.3-58.6-11-59.1-14.3-67.7"/>
  <path class="st0" d="M213.9,187s9.3-10.2,11.9-18.6c1.2-4-1.3-8.4.7-12.3,4.7-9.2-.8-23-.8-28.8,0-8.2,3.6-25.7,3.1-35.5s-8.2-31.3-14.9-37.5c1.5-11.3-48.3-50.4-80.7-53.4S57.2,10.7,39.2,31.8c-11.7,14.9-7,20.9-11.7,28.7s-13.5,13.6-13.9,19.1.7,9.2,0,18c-.7,8.8-4.1,21.1-2.7,28.9s3.1,13.9,3.1,13.9c0,0,11.8,18.8,11.8,24.2,1.8-4.2,2.7-22.4,6.7-31.3s25.9-27.2,28.9-33.2c0,0-.8,11.9.5,16.2,1.1-10,4.6-38.3,13.2-41.2-4.3,6.2-12.5,26.1-6.5,45.3.6-14.3-5.2-33.2,24.1-49.3,18,3.5,23.6,2.4,32,1.6s18.9-2.4,29.9-1.9,14.3,5.1,27.2,3.8,15.1,7,17.5,12.4,6.7,24.5,2.4,29.7c3,6.7,3.7,17.4,3.7,25.1,3.4,3.9,4.4,4.2,4.4,13.2,0,0,0,10.5-.7,15.8s2.8,17,2.8,17l2-.9h0Z"/>
  <g>
    <path class="st0" d="M228.8,157.5c11.1-.9.8,12.7,2.6,23.4s-1.5,42.1-5.5,48c-4,5.9-1.5,13.6-21.4,11"/>
    <g>
      <path class="st0" d="M13.9,140.4s-3.8-4.1-7.9-3.4,0,17.6-2.2,23.9-6.3,40.3,0,50.6,20.3,22.9,23.6,6.3"/>
      <path class="st0" d="M21.6,176.5s-1-19.9-11-25.6"/>
    </g>
  </g>
  <g>
    <g>
      <path class="st0" d="M211.5,199s-2.6,31-9.2,33.2-33.4,38.7-35,42"/>
      <path class="st0" d="M144.1,241.5s23.8,5,22.6,17.2"/>
      <path class="st0" d="M100.8,232.2s-33.7,9.1-36.7,17.9"/>
      <path class="st0" d="M35.2,189.2s2.9,45.2,6.3,52.2"/>
      <path class="st0" d="M64.1,243.3s-3.8-6.3-7.8-6.6-19.6,4.5-19.6,4.5"/>
      <path class="st0" d="M78.3,248.1s20.2,5.9,30.9,4.4c7.8,3.3,12.2,4,19.2,1.6,6.6,1.7,16.5,7.7,27.3,6.1"/>
      <path class="st0" d="M198.1,243.3s2.5,6.5,2.5,10.9"/>
      <path class="st0" d="M192.5,252.9s1.1,5.9,0,12.3"/>
      <path class="st0" d="M137.2,243.3s3.5,6,2.4,11"/>
      <path class="st0" d="M124.8,244.9s1.3,2.4,0,8"/>
      <path class="st0" d="M111.3,243.3s-1.3,0,0,6.8"/>
      <path class="st0" d="M97.9,240.5s-1.4,3.3,0,7.6"/>
      <path class="st0" d="M87.5,241.5s-1.1,1.3,0,5.2"/>
      <path class="st0" d="M113.5,288.4s2.4,4.9,1.3,7.1"/>
      <path class="st0" d="M105.9,286.6s2.2,3.6,1.6,7.8"/>
      <path class="st0" d="M93.7,279.2s-4.6,2.5-4.6,5.2"/>
      <path class="st0" d="M125.4,315.7s4.2,14.7,0,20.3"/>
      <path class="st0" d="M113.5,318.9s3.7,13,0,20.9"/>
      <path class="st0" d="M93.7,304.2s.9,6.1-6.7,8"/>
      <path class="st0" d="M103.8,315.7s-3.5,12.3-10,14.7"/>
      <path class="st0" d="M105.9,327.4s.6,7.7-4,12.3"/>
      <path class="st0" d="M75.5,274.3s1.3,9.9-11.4,14.1"/>
      <path class="st0" d="M152.7,299.1s4.6,18.4,2.7,23.9"/>
      <path class="st0" d="M160.4,283.1s8.7,11.2,8.2,23"/>
      <path class="st0" d="M51.5,252.9s.8,6.9-2.8,7.6"/>
      <path class="st0" d="M50.1,269.9s1.1,9-1.4,11.1"/>
      <path class="st0" d="M87,301.7s-12.6,4.5-13.6,9.4"/>
      <path class="st0" d="M61.8,301.7s1.2,12-2.4,14"/>
      <path class="st0" d="M155.4,263.3s3.5.5,0,6.6"/>
      <path class="st0" d="M141,306.4s3.2,8.7,0,19.4"/>
      <path class="st0" d="M178.9,269.5s2.9,2.3,0,17.1"/>
      <path class="st0" d="M64.1,263.3s2.1,6.6-3.3,12.2"/>
      <path class="st0" d="M79.8,243.3s-5.5,3.4-6.4,8.3"/>
      <path class="st0" d="M154.3,254.1s5.2,2,4.7,4.9"/>
      <path class="st0" d="M146,247.5s3.2,2.6,1,9.1"/>
    </g>
    <path class="st0" d="M93.7,292s13.8,12.5,31.1,4.4"/>
  </g>
  <g>
    <g>
      <g>
        <path class="st0" d="M184.5,179.4c-10.2-14.3-25.2-11.5-29.1-11.1s-8.4,7-8.4,7c0,0,10.8,8.7,33.4,4.1"/>
        <path class="st0" d="M184.5,176.5s-10.1-16-34.3-10.9"/>
        <path class="st0" d="M158.1,179.7c-1.4-1.4-2.3-3.3-2.3-5.4s1.2-4.7,3.1-6.1"/>
        <path class="st0" d="M167.7,168.4c1.8,1.4,2.9,3.5,2.9,5.9s-1.6,5.4-4,6.6"/>
      </g>
      <g>
        <path class="st0" d="M68.5,166.7c10.4-9.7,20.3-6.8,25.3-5.4,2.3,1.5,13.7,12.4,13.7,12.4"/>
        <path class="st0" d="M100.8,158s-17.4-7.2-36.7,6.6"/>
        <path class="st0" d="M105.9,173.7s-23.8,1.7-32.8-5.8c-1.6.2-4,0-4,0"/>
        <path class="st0" d="M79.8,171.3c-1.8-1.5-2.9-3.8-2.9-6.4s.4-2.9,1-4.1"/>
        <path class="st0" d="M92.7,161c.6,1.2,1,2.5,1,4,0,3.7-2.4,6.9-5.7,8"/>
      </g>
    </g>
    <g>
      <path class="st0" d="M97.9,180.8s-14.3,4.1-21,3.2-8.6-4.1-12.4-4.3"/>
      <path class="st0" d="M147.7,184.1s9.3,7.7,18.9,6.6"/>
    </g>
  </g>
  <g>
    <path class="st0" d="M160.4,64.2s3.3-27.3-39.8-27.7"/>
    <path class="st0" d="M200.5,70.2s-3.9-43.8-50.3-53.5"/>
    <path class="st0" d="M119.7,67.2c-3.9-2.2-22.1-10.5-42.8-6.4"/>
    <path class="st0" d="M124.8,64.2s-23.1-18-51.5-7.5"/>
    <path class="st0" d="M130.7,63.4s-30.3-25.4-73.7-4.6"/>
    <path class="st0" d="M172,53.4s-6-19.6-26.1-19.9"/>
    <path class="st0" d="M127.7,12.9S95.1-6.2,62.6,31.3"/>
  </g>
</svg>
