<?xml version="1.0" encoding="UTF-8"?>
<svg id="Layer_1" xmlns="http://www.w3.org/2000/svg" xmlns:inkscape="http://www.inkscape.org/namespaces/inkscape" version="1.1" viewBox="0 0 1591 1941">
  <!-- Generator: Adobe Illustrator 30.5.1, SVG Export Plug-In . SVG Version: 2.1.4 Build 3)  -->
  <defs>
    <style>
      .st0 {
        fill: none;
        stroke: #000;
        stroke-linecap: round;
        stroke-linejoin: round;
        stroke-width: 4px;
      }
    </style>
  </defs>
  <g id="hair" inkscape:label="Hair">
    <path id="path_0000" class="st0" d="M617.7,38.3l-23.7,8.7-49,25-36,23-22.7,20.9"/>
    <path id="path_0001" class="st0" d="M617.7,38.3l2.3-1.3,1.6,2.4"/>
    <path id="path_0002" class="st0" d="M621.6,39.4l10.4-6.4,48-17,36-8,35-5,32-1,29,2,35,6,23,6,48,18,29,15,34,22,33,30,13,16,26,41,15.3,14.3"/>
    <path id="path_0003" class="st0" d="M617.7,38.3l2.3,3.7,1.6-2.6"/>
    <path id="path_0004" class="st0" d="M621.6,39.4l-3.6,4.6-24,13-21,14-39,32-28,31-17,31-6,24v16l4,18,7,16,19,27,9,9,1.9-.9"/>
    <path id="path_0005" class="st0" d="M875.3,49.7l-2.3-2.7-58-10h-45l-24,3-45,10-42,14-37,17-25,15-24,18-16,15-18,22-12,22-6,16-5,22,1,29,8,29-1.1,5.1"/>
    <path id="path_0006" class="st0" d="M875.3,49.7l-1.3,1.3-52,2-41,7-42,12-34,16-23,17-13,14-11,18-9,24-23,9-21,11-19,13-18,16-22,30-13,30,2,4.4"/>
    <path id="path_0007" class="st0" d="M875.3,49.7l19.7,3.3"/>
    <path id="path_0008" class="st0" d="M486.3,115.9l-3.3-1.9-39,32-35,37-18,31-11,36-7,81-23,97-4,45,4,34,7,27,15,34,13.3,21.3"/>
    <path id="path_0009" class="st0" d="M486.3,115.9l.7,2.1-15,20-13,31-3,14v20l2,11,10,25,22,24,28,16,6-.2"/>
    <path id="path_0010" class="st0" d="M759,137.8v-3.8l9-15,18-16,16-8,13-4,30-2,24,5,17,6,24,13,32,30,12,17,2,6.8"/>
    <path id="path_0011" class="st0" d="M759,137.8l-4,1.2"/>
    <path id="path_0012" class="st0" d="M759,137.8l46-.8,41,4,12,3"/>
    <path id="path_0013" class="st0" d="M858,144l6.3,1.3"/>
    <path id="path_0014" class="st0" d="M858,144l-4,7-22,20-16,11-26,13-26,9-26,6-83,9-41,10-40,17-18,12-19,17-2-.6"/>
    <path id="path_0015" class="st0" d="M864.3,145.3l6.7-.3,29,6,52,16,4-.2"/>
    <path id="path_0016" class="st0" d="M864.3,145.3l-4.3,13.7-13,21-21,21-25,17-24,11-35,10-41,7-24,2-16,4-21,11-5,6-1,4.8"/>
    <path id="path_0017" class="st0" d="M956,166.8l4,3.2"/>
    <path id="path_0018" class="st0" d="M1068.3,172.3l4.7.7,12,7,27,24,10,13,6.2,17"/>
    <path id="path_0019" class="st0" d="M1068.3,172.3l1.7,6.7,19,34,9,28,2,37-5,22-9,16-11,10-10,5-21,6-25,2-7,2.2"/>
    <path id="path_0020" class="st0" d="M1047.7,230.7l.3-3.7-6-11-17-15-19-7h-17l-17,5-12,7-10,11-13,33-14,13-23,11-36,8-34,3-64,1-44-3-2,2"/>
    <path id="path_0021" class="st0" d="M1047.7,230.7l-3.7.3-8-6-19-8-15-1-11,3-10,5-8,8-10,27-4,6-16,15-28,14-38,9-20,2-64-2-46-8-25-7-2-3"/>
    <path id="path_0022" class="st0" d="M1047.7,230.7l5.3,8.3"/>
    <path id="path_0023" class="st0" d="M1128.2,234l5.8,4,23,54,21,67,2,19.8"/>
    <path id="path_0024" class="st0" d="M1128.2,234l-1.2,5,5,31-1,36-8,25-6,9-12,12-20,9h-27l-34-11-10-5-2-3.8"/>
    <path id="path_0025" class="st0" d="M406,265l-6.3,22.7"/>
    <path id="path_0026" class="st0" d="M634,273.8l-47-1.8-31,4-15,5-5.6-1.2"/>
    <path id="path_0027" class="st0" d="M634,273.8l22,2.2,14,4,27,21,27,14,27,10,29,8,29,5,43,4,69.7-1.3"/>
    <path id="path_0028" class="st0" d="M523.9,274.1v4.6"/>
    <path id="path_0029" class="st0" d="M535,274.4l-1,3.6,1.4,1.8"/>
    <path id="path_0030" class="st0" d="M524,278.8l5,2.2"/>
    <path id="path_0031" class="st0" d="M535.4,279.8l-6.4,1.2"/>
    <path id="path_0032" class="st0" d="M529,281l-4,6-17,10-28,26-18,23-12,20-11,28-5,23-2,21,.8,34"/>
    <path id="path_0033" class="st0" d="M707,282l13,3"/>
    <path id="path_0034" class="st0" d="M399.7,287.7l-3.4,5.3"/>
    <path id="path_0035" class="st0" d="M399.7,287.7l1.3,1.3-1.3,4.3"/>
    <path id="path_0036" class="st0" d="M396.2,293l3.4.3"/>
    <path id="path_0037" class="st0" d="M396.2,293l-18.2,65-7,44-3,40v31l3,33,6,36,12,42-.3,3.7"/>
    <path id="path_0038" class="st0" d="M399.7,293.3l-2.7,26.7v45l2,18,10,44,11,30,8.3,16.3"/>
    <path id="path_0039" class="st0" d="M969.6,304l11.4-21,6-27,5-10,4-4,15-7h12l15,6,9,8,3,10-1,8-7,8-29,10-24,14-14,5h-5.4Z"/>
    <path id="path_0040" class="st0" d="M921.7,340.7l2.3-2.7,30,1,21,6,14,7,13,9,34,34,30,25,23,13,16,5h28l10-3,10-6,15-17,7-16,2-14,3-3.2"/>
    <path id="path_0041" class="st0" d="M1003,340l9,1.2"/>
    <path id="path_0042" class="st0" d="M921.7,340.7l35.3,17.3,27.2,26"/>
    <path id="path_0043" class="st0" d="M1180,378.8l3,1.2,4,19,9,67,17,8,22,19,19,39,10,10,16,8,26.3,3.3"/>
    <path id="path_0044" class="st0" d="M984.2,384l4.8,1,20,22,24,45,19,27,24,25,19,15,23,12,23,6,29-1,24.8-8"/>
    <path id="path_0046" class="st0" d="M432.8,472l-4.4,1.3"/>
    <path id="path_0047" class="st0" d="M432.8,472l-1.1,5.3"/>
    <path id="path_0048" class="st0" d="M428.3,473.3l3.3,4"/>
    <path id="path_0049" class="st0" d="M431.7,477.3l2.3,4.7v23l5,72-3,48-6,39-3,5"/>
    <path id="path_0050" class="st0" d="M1194,488l2.8,8"/>
    <path id="path_0051" class="st0" d="M1196.8,496l6.2,2,7,7,23,33,18,15,24,8,24-2,5-2,2.3-3.7"/>
    <path id="path_0052" class="st0" d="M1196.8,496l-2.1,32"/>
    <path id="path_0053" class="st0" d="M1194.8,528l-1.8,41,2,11,6,14,16,19,1,3.8"/>
    <path id="path_0054" class="st0" d="M1039,536l15.5,20.4"/>
    <path id="path_0055" class="st0" d="M1332,542l-16,9-9.7,2.3"/>
    <path id="path_0056" class="st0" d="M1054.5,556.4l3.5-.4,17,16,23,17,34,18,32,8,46,3,8-1.2"/>
    <path id="path_0057" class="st0" d="M1054.5,556.4l.5,5.6,20,27,16,16,22,15,17,8,19,6,26,4,25,1,14,3,13,5,17,10,18,20,6,12,3,12,1,30-3,15-6,12,.5,5.1"/>
    <path id="path_0060" class="st0" d="M388.7,587.7l-3.3,1.7"/>
    <path id="path_0061" class="st0" d="M388.7,587.7l1.1,6.3"/>
    <path id="path_0062" class="st0" d="M385.3,589.3l-.3,1.7,4.8,3"/>
    <path id="path_0063" class="st0" d="M389.8,594l34.2,73,3,2"/>
    <path id="path_0088" class="st0" d="M1218,616.8l24,8.2,21,13,16,18,9,20,4,18v14l-3,15-12,27-11,14-2.5-.9"/>
    <path id="path_0132" class="st0" d="M1263.5,763.1l-4.5,6.9-16,15-31,16-36,8-30-1"/>
    <path id="path_0045" class="st0" d="M984.2,384l11.8,26,5,16,14,85,11,42,12,35,19,40,17,27,19,21,17,10"/>
    <path id="path_0130" class="st0" d="M1111.2,689l-.2,4"/>
    <path id="path_0131" class="st0" d="M1146.3,697.3l24.7-3.3,5,1"/>
  </g>
  <g id="face_outline" inkscape:label="Face outline">
    <path id="path_00451" data-name="path_0045" class="st0" d="M1110,686l1.2,3"/>
    <path id="path_0126" class="st0" d="M427,669v12l-6,43,1,28,3,22,18,69,45,139,14,37,11,20,18,20,28,23,9.2,10"/>
    <path id="path_0174" class="st0" d="M600.2,1120l4.8,1,10,7,14,6.2"/>
    <path id="path_0167" class="st0" d="M568.2,1092l3.8,1,24,20,4.2,7"/>
    <path id="path_0140" class="st0" d="M1070.3,831.7l-4.3,19.1-3.7,4.9-20.3,58.3-26,45-41,57-23,28-18,19-18,13-22,12-85,36-33,10-44,6h-41l-62-5.8"/>
  </g>
  <g id="eyebrows" inkscape:label="Eyebrows">
    <g id="right_eyebrow" inkscape:label="Right eyebrow">
      <path id="path_0058" class="st0" d="M638,564l3,43,9,33"/>
      <path id="path_0082" class="st0" d="M634.7,614.7l-3.7-10.7-9-10-8-6-20-8-25-3-48,1-34,6-15,7-15,14-3,6-.5,11.5"/>
    </g>
    <g id="left_eyebrow" inkscape:label="Left eyebrow">
      <path id="path_0064" class="st0" d="M810.7,599.3l-7.7-.3-65,9-23-1-3-2,4-12,8-9,10-6,10-3,36-4,104-2,17,5,21,10,15,11,14,14-.8,3.1"/>
      <path id="path_0065" class="st0" d="M810.7,599.3l6.3-2.3,27-3,43-1,18,3,41,17,4.2-.9"/>
      <path id="path_0066" class="st0" d="M810.7,599.3l1.7,3.3"/>
      <path id="path_0081" class="st0" d="M950.2,612.1l4.8,3.9"/>
    </g>
  </g>
  <g id="nose" inkscape:label="Nose">
    <path id="path_0059" class="st0" d="M695,584l3,17,7,17,36,56"/>
    <path id="path_0110" class="st0" d="M655,644l2,5v15l-5,43-19,103"/>
    <path id="path_0123" class="st0" d="M628,661l2,11-4,9-23,24-12,8"/>
    <path id="path_0133" class="st0" d="M756,791l7.3,20.7"/>
    <path id="path_0134" class="st0" d="M611,792l-9.2,22"/>
    <path id="path_0136" class="st0" d="M763.3,811.7l-1.3,3.3,2,14-2,13-4,8-5,5-10,3"/>
    <path id="path_0139" class="st0" d="M601.8,814l.2,18,8,11h4"/>
    <path id="path_0141" class="st0" d="M614,843l4-5,17,10.1"/>
    <path id="path_0142" class="st0" d="M614,843l6,5,11,5,4-4.9"/>
    <path id="path_0143" class="st0" d="M700,850.5l3-5.5,13-6h10l6,4v3l-3,3-29,1.5Z"/>
    <path id="path_0144" class="st0" d="M635,848.1l4,3.9,1-1-5-2.9Z"/>
    <path id="path_0145" class="st0" d="M635,848.1l19,10.9,15,4,15-2,4-2,3-5,9-3.5"/>
    <path id="path_0148" class="st0" d="M635,848.1l1,4.9,3,2"/>
  </g>
  <g id="eyes" inkscape:label="Eyes">
    <g id="left_eye" inkscape:label="Left eye">
      <path id="path_0067" class="st0" d="M812.3,602.7l-15.3,6.3-11,8-11,11-3,7.8"/>
      <path id="path_0068" class="st0" d="M812.3,602.7l27.7,1.3,17.3,5.3"/>
      <path id="path_0076" class="st0" d="M857.3,609.3l3,1"/>
      <path id="path_0077" class="st0" d="M857.3,609.3l-1.3,4.4"/>
      <path id="path_0078" class="st0" d="M860.3,610.3l3.7.7,2,3.8"/>
      <path id="path_0079" class="st0" d="M860.3,610.3l-.7,3.3"/>
      <path id="path_0083" class="st0" d="M856,613.8l-9-1.8h-26l-10,2-15,7-18,13-6,1.8"/>
      <path id="path_0084" class="st0" d="M856,613.8h3.7"/>
      <path id="path_0085" class="st0" d="M859.7,613.7l3.3,2.3,3-1.2"/>
      <path id="path_0087" class="st0" d="M866,614.8l13,5.2,11,8,27,30,1,5"/>
      <path id="path_0096" class="st0" d="M817.8,633l2.2-3,9-3,21-1,19,5,3.3,4.7"/>
      <path id="path_0097" class="st0" d="M817.8,633l-10.8,4-19.2,15"/>
      <path id="path_0098" class="st0" d="M817.8,633l-.8,12,3,9,10,10,10,3,12-1,9-5,8-11,1-11,2.3-3.3"/>
      <path id="path_0099" class="st0" d="M772,635.8l-9,7.2"/>
      <path id="path_0100" class="st0" d="M872.3,635.7l11.7,5.3,11,9-5,7-25,13-18,3-23-1-27-6-11-5"/>
      <path id="path_0115" class="st0" d="M787.8,652l-9.8,3-3,4"/>
      <path id="path_0116" class="st0" d="M787.8,652l-1.8,9"/>
      <path id="path_0121" class="st0" d="M775,659l-3,1"/>
      <path id="path_0122" class="st0" d="M775,659l11,2"/>
      <path id="path_0124" class="st0" d="M914,663l-9,11-10,7-10,5-18,5h-29l-36-12"/>
    </g>
    <g id="right_eye" inkscape:label="Right eye">
      <path id="path_0069" class="st0" d="M544.3,604.3l-1.3-1.3h-15l-36,5-17,5-21.5,9.5"/>
      <path id="path_0070" class="st0" d="M544.3,604.3l26.7-.3,16,4.2"/>
      <path id="path_0071" class="st0" d="M544.3,604.3l-2.3,3.7-20,9-3.7,5.6"/>
      <path id="path_0072" class="st0" d="M587,608.2l4-1.2,1.3,1.3"/>
      <path id="path_0073" class="st0" d="M592.3,608.3l34.7,6.7,7.7-.3"/>
      <path id="path_0074" class="st0" d="M587,608.2l1,2.8,2.8,1"/>
      <path id="path_0075" class="st0" d="M592.3,608.3l-1.6,3.7"/>
      <path id="path_0080" class="st0" d="M590.8,612l11.6,11.3"/>
      <path id="path_0086" class="st0" d="M634.7,614.7l2.3,2.3"/>
      <path id="path_0089" class="st0" d="M518.3,622.6l.7-2.6-2,1,1.3,1.6Z"/>
      <path id="path_0090" class="st0" d="M518.3,622.6l5.7.4,20-6,23-1,15,3,17.7,8.3"/>
      <path id="path_0091" class="st0" d="M602.3,623.3l2.7,1.7,1,4.8"/>
      <path id="path_0092" class="st0" d="M602.3,623.3l-2.7,4"/>
      <path id="path_0093" class="st0" d="M518.3,622.6l-17.3,15.4-8,11-8,16-1,6"/>
      <path id="path_0094" class="st0" d="M599.7,627.3l6.3,2.4"/>
      <path id="path_0095" class="st0" d="M606,629.8l16,17.2,5,10"/>
      <path id="path_0101" class="st0" d="M525.7,639.3l-1.7-.3-5,6.4"/>
      <path id="path_0102" class="st0" d="M525.7,639.3l11.3-5.3,24-1,16,4,9,5,1.2,3"/>
      <path id="path_0103" class="st0" d="M525.7,639.3l1.7,3.3"/>
      <path id="path_0104" class="st0" d="M519,645.4l-1-2.4-1,1,2,1.4Z"/>
      <path id="path_0105" class="st0" d="M527.3,642.7l-2.3,2.3-6,.4"/>
      <path id="path_0106" class="st0" d="M527.3,642.7l4.7-.7,2.4,2"/>
      <path id="path_0107" class="st0" d="M534.4,644l5.2-.3"/>
      <path id="path_0108" class="st0" d="M539.7,643.7l-1.7-.7,1-1,1,1-.3.7Z"/>
      <path id="path_0109" class="st0" d="M539.7,643.7l8.3-4.7,5,4v5l-4,4h-6l-3-4-.3-4.3Z"/>
      <path id="path_0111" class="st0" d="M587.2,645h3.8l17.3,12.3"/>
      <path id="path_0112" class="st0" d="M534.4,644l.6,13,4,8,6,6,10,3,3,3"/>
      <path id="path_0113" class="st0" d="M587.2,645l-3.2,17-6,7-11.3,7.7"/>
      <path id="path_0114" class="st0" d="M519,645.4l-12,8.6-2.3,4.7"/>
      <path id="path_0117" class="st0" d="M608.3,657.3l2.7.7"/>
      <path id="path_0118" class="st0" d="M608.3,657.3l-1.3,9.7-4,3-22,7-13,1-1.3-1.3"/>
      <path id="path_0119" class="st0" d="M504.7,658.7l-5.7,3.3"/>
      <path id="path_0120" class="st0" d="M504.7,658.7l10.3,10.3,12,6,20,4h9l2-2"/>
      <path id="path_0125" class="st0" d="M499,667l13,18,12,7,13,4,29-1,23-7,12-6"/>
      <path id="path_0127" class="st0" d="M558,677l8.7-.3"/>
    </g>
  </g>
  <g id="ears" inkscape:label="Ears">
    <g id="left_ear" inkscape:label="Left ear">
      <path id="path_0128" class="st0" d="M1097,686l-14,85-13,53,.3,7.7"/>
      <path id="path_0129" class="st0" d="M1111.2,689h5.8l12,5,17.3,3.3"/>
      <path id="path_01301" data-name="path_0130" class="st0" d="M1111,693l9,24,1,12-5,13-14,20v9l4-1,31-31,8-21,1.3-20.7"/>
      <path id="path_01311" data-name="path_0131" class="st0" d="M1176,695l-5,38-6,27-7,21-12,27"/>
      <path id="path_0135" class="st0" d="M1146,808l-12,15-11,10-16,7-16-1-20.7-7.3"/>
    </g>
  </g>
  <g id="face_details" inkscape:label="Face details and expression lines">
    <path id="path_0137" class="st0" d="M763.3,811.7l3.7,2.3,19,34,65,93,4,8"/>
    <path id="path_0138" class="st0" d="M601.8,814l-4.8,3-40,88-5,16"/>
    <path id="path_0152" class="st0" d="M662,889v30l2,5,7,7"/>
    <path id="path_0164" class="st0" d="M644,1030l39-6,22,1,27,5"/>
  </g>
  <g id="mouth" inkscape:label="Mouth">
    <g id="upper_lip" inkscape:label="Upper lip">
      <path id="path_0156" class="st0" d="M598.7,957.3l44.3-17.3,12,1,20,10,8-2,18-9h4l78,20,2.3,3.7"/>
      <path id="path_0157" class="st0" d="M598.7,957.3l.7,3.3"/>
      <path id="path_0158" class="st0" d="M599.3,960.7l-3.7,3.7"/>
      <path id="path_0161" class="st0" d="M785.3,963.7l8.7.3,2.3,2.3"/>
      <path id="path_0163" class="st0" d="M796.3,966.3l1.7-1.3,10,1"/>
    </g>
    <g id="mouth_details" inkscape:label="Mouth details">
      <path id="path_0159" class="st0" d="M599.3,960.7l52.7-.7,27,6,19-3h51l16,2h19l1.3-1.3"/>
    </g>
    <g id="lower_lip" inkscape:label="Lower lip">
      <path id="path_0162" class="st0" d="M595.7,964.3l2.3,4.7,13,13,15,8,19,5,32,3h35l29-5,53-23,2.3-3.7"/>
    </g>
  </g>
  <g id="neck" inkscape:label="Neck">
    <path id="path_0151" class="st0" d="M1066.7,857.3l-4.7,70.7,1.2,20"/>
    <path id="path_0180" class="st0" d="M629,1134.2"/>
    <path id="path_0154" class="st0" d="M1063.2,948l3.8,33,8,23,5,7,32.3,31.3"/>
  </g>
  <g id="clothing" inkscape:label="Clothing">
    <g id="clothing_outline" inkscape:label="Clothing outline">
      <path id="path_0153" class="st0" d="M1063.2,948l18.8,4,24,11,33,24,103,104,24,26,5.2,9"/>
      <path id="path_0171" class="st0" d="M554.7,1109.3l-4.7.7-43,32-25,13-183,66-37,17-26,16-17,13-19,18-23,28-22,39-15,41-93,335L3,1881l-1,10"/>
      <path id="path_0173" class="st0" d="M554.7,1109.3l.3,3.7-184,295-5,11,132,25,2.3,2.3"/>
      <path id="path_0178" class="st0" d="M1271.2,1126l8.8,2,309,143"/>
      <path id="path_0179" class="st0" d="M1271.2,1126l14.8,161,16,147-4,2-231,32-7.3,3.3"/>
      <path id="path_0217" class="st0" d="M500.3,1446.3l-4.3,4.7-180,79,3,14,140,381,5,13,2,1"/>
      <path id="path_0221" class="st0" d="M1059.7,1471.3l3.3,3.7,218,100,22.2,12"/>
      <path id="path_0227" class="st0" d="M1303.2,1587l-1.2,4-304,348"/>
    </g>
    <g id="collar" inkscape:label="Collar">
      <path id="path_0165" class="st0" d="M1112.3,1042.3l5.7.7,8,4,6,6-1,33-4,20-2.3,2.3"/>
      <path id="path_0166" class="st0" d="M1112.3,1042.3l-5.3,22.7-16,31-1,5"/>
      <path id="path_0168" class="st0" d="M568.2,1092l-5.2,9-8.3,8.3"/>
      <path id="path_0170" class="st0" d="M1090,1101l34.7,7.3"/>
      <path id="path_0172" class="st0" d="M1124.7,1108.3l.3,5.7-11,29-3,2"/>
      <path id="path_0175" class="st0" d="M600.2,1120l-11.2,27-2,11.8"/>
      <path id="path_0177" class="st0" d="M1077,1120.8l24,8.2,5,5,5,11"/>
      <path id="path_0181" class="st0" d="M1111,1145l-1,7-27,51-5,4.2"/>
      <path id="path_0182" class="st0" d="M587,1158.8l-3,3.2-9.2,51"/>
      <path id="path_0183" class="st0" d="M587,1158.8l18,1.2,21,26,2,8-6,13-47.2,6"/>
      <path id="path_0185" class="st0" d="M1027,1175l4,15,4,8,6,6,10,3,27,.2"/>
      <path id="path_0186" class="st0" d="M1078,1207.2v4.8l-23,42-4.7,3.3"/>
      <path id="path_0187" class="st0" d="M574.8,1213l-6.5,38"/>
    </g>
    <g id="clothing_details" inkscape:label="Clothing details">
      <path id="path_0188" class="st0" d="M568.2,1251l21.8,1,12,8,18,17,4,16-1.3,3.3"/>
      <path id="path_0189" class="st0" d="M568.2,1251l-4,31"/>
      <path id="path_0190" class="st0" d="M1050.3,1257.3l-1.3-1.3v-27l-1-4-6-5-54,6-15,6-5,6-3,10-4,45,1,22,5,5,5,1,45-3.8"/>
      <path id="path_0191" class="st0" d="M1050.3,1257.3l-2.3,9.7-26,46-5,4.2"/>
      <path id="path_0194" class="st0" d="M564.2,1282l28.8-7,24,19,5.7,2.3"/>
      <path id="path_0195" class="st0" d="M564.2,1282l-8,63"/>
      <path id="path_0196" class="st0" d="M622.7,1296.3l1.3,4.7,14,15,3,6.8"/>
      <path id="path_0197" class="st0" d="M1017,1317.2l-1,6.8-22,37-13,26-5,3"/>
      <path id="path_0198" class="st0" d="M641,1322.8l-26,4.2-23,14-35.8,4"/>
      <path id="path_0199" class="st0" d="M641,1322.8l35,29.8"/>
      <path id="path_0200" class="st0" d="M817,1324l-5,1-35,19-2.3,4.7"/>
      <path id="path_0201" class="st0" d="M556.2,1345l-4.2,28,.2,10"/>
      <path id="path_0202" class="st0" d="M774.7,1348.7l-7.7,2.3,1,6,28,47-1.9,2.1"/>
      <path id="path_0203" class="st0" d="M774.7,1348.7l1.3,1.3,46-7,9,3,7,7,2,5,2,32,3,3,42,15"/>
      <path id="path_0204" class="st0" d="M676,1352.6l-6,3.4-21,3-23,6-47,4-10,4-12,9-4.8,1"/>
      <path id="path_0205" class="st0" d="M676,1352.6l32,17.4,84,38,2.1-1.9"/>
      <path id="path_0206" class="st0" d="M552.2,1383l-1.2,3,2,7,6,6,9,5,32,10,35,7,21,174,4.3,21.3"/>
      <path id="path_0207" class="st0" d="M976,1390l-1-16,2-28-2-5-5-5-17-1-53,3-10,8-3,8,2,52-2,2"/>
      <path id="path_0208" class="st0" d="M976,1390l-3,11-13,23-5,5.2"/>
      <path id="path_0209" class="st0" d="M794.1,1406.1l2.1,3.9"/>
      <path id="path_0210" class="st0" d="M887,1408l-11,33.8"/>
      <path id="path_0211" class="st0" d="M796.2,1410l2.8,1,5-2,10-10h8l3,2,1,9-3,24-2,50,4,5,6,2,30.7.3"/>
      <path id="path_0212" class="st0" d="M796.2,1410l-2.2,3-55,3-4,6-15,47-8,6-32,1-2,2-9,37-1,11,2,2h27l5,6v7l-14,69-6,5-21.7,1.3"/>
      <path id="path_0213" class="st0" d="M955,1429.2l-6-.2-24,9-14,3-35,.8"/>
      <path id="path_0214" class="st0" d="M955,1429.2v3.8l-55,96-9,19-6,6.2"/>
      <path id="path_0215" class="st0" d="M876,1441.8l-2,1.2v8.8"/>
      <path id="path_0216" class="st0" d="M500.3,1446.3l5.7-.3"/>
      <path id="path_0218" class="st0" d="M874,1451.8l-3,4.2-9.3,35.3"/>
      <path id="path_0219" class="st0" d="M874,1451.8l13,9.2,2,7-9,62-8,8-19,9-2.2,3"/>
      <path id="path_0220" class="st0" d="M1054,1471l5.7.3"/>
      <path id="path_0222" class="st0" d="M861.7,1491.3l-2.7,10.7-8,16-7,9-16,4-21,1-7,3-8,8-6,15-7,38,1,12,6,7,39,2-2,43,1.3,1.3"/>
      <path id="path_0223" class="st0" d="M850.8,1550l-4.8,1"/>
      <path id="path_0224" class="st0" d="M850.8,1550l1.2,2,33,2.2"/>
      <path id="path_0225" class="st0" d="M885,1554.2l-2,7.8-39,67-12,24-7.7,8.3"/>
      <path id="path_0226" class="st0" d="M1306,1586l-2.8,1"/>
      <path id="path_0228" class="st0" d="M660.3,1616.3l-.3,9.7,6.3,41.3"/>
      <path id="path_0229" class="st0" d="M824.3,1661.3l-1.6,3.7"/>
      <path id="path_0230" class="st0" d="M822.8,1665l-32.8,3-8,3-5,5-2,6,1,56,2,7"/>
      <path id="path_0231" class="st0" d="M822.8,1665l.2,3-6,12-8,12-26,49-5,4"/>
      <path id="path_0232" class="st0" d="M666.3,1667.3l5.7-.3,6,3,4,5,1,6-5,37-3.3,5.3"/>
      <path id="path_0233" class="st0" d="M666.3,1667.3l5.7,53.7,2.7,2.3"/>
      <path id="path_0234" class="st0" d="M674.7,1723.3l2.3,34.7,2.7,4.3"/>
      <path id="path_0235" class="st0" d="M778,1745l-5,14-4,2.2"/>
      <path id="path_0236" class="st0" d="M769,1761.2l-5-9.2-9-9-8-3h-44l-9,4-7,7-7.3,11.3"/>
      <path id="path_0237" class="st0" d="M769,1761.2l-4,12.8-35,60"/>
      <path id="path_0238" class="st0" d="M679.7,1762.3l.3,19.7,8,52"/>
      <path id="path_0239" class="st0" d="M688,1834h42"/>
      <path id="path_0240" class="st0" d="M688,1834l6,55,2,3"/>
      <path id="path_0241" class="st0" d="M730,1834l-6,14-16,26-7,15-5,3"/>
      <path id="path_0242" class="st0" d="M696,1892l-1,7-22,40"/>
      <path id="path_0243" class="st0" d="M744,1461h43l16,17v12l-27,47-5,5-39,1-7-1-5-5v-7l15-59,3-6,6-4Z"/>
      <path id="path_0244" class="st0" d="M722,1596h34l9,10,1,13-8,64-6,6-39,1-5-1-7-7v-18l6-52,4-8,11-8Z"/>
    </g>
    <path id="path_01801" data-name="path_0180" class="st0" d="M629,1134.2v7.8l12,39,14,59,12,67,11,42-2,3.6"/>
    <path id="path_0169" class="st0" d="M1090,1101l-12,14-1,5.8"/>
    <path id="path_0176" class="st0" d="M1077,1120.8l-8,6.2-19,24-23,24"/>
    <path id="path_0184" class="st0" d="M1027,1175l-66,55-40,28-5.3,6.3"/>
    <path id="path_0192" class="st0" d="M915.7,1264.3l-11.7,4.7-18,13-69,42"/>
    <path id="path_0193" class="st0" d="M915.7,1264.3l-2.7,50.7-6,7-74,7-12-1-4-4"/>
  </g>
</svg>