<?xml version="1.0" encoding="UTF-8"?>
<svg id="Layer_1" xmlns="http://www.w3.org/2000/svg" version="1.1" viewBox="0 0 1171.1 1341.2">
  <!-- Generator: Adobe Illustrator 30.5.1, SVG Export Plug-In . SVG Version: 2.1.4 Build 3)  -->
  <defs>
    <style>
      .st0 {
        fill: #e9d2b3;
      }

      .st1 {
        fill: #e3ded6;
      }

      .st2 {
        fill: #262629;
      }

      .st3 {
        fill: #f1ede6;
      }

      .st4 {
        fill: #f1ece4;
      }

      .st5 {
        fill: #a18f7a;
      }

      .st6 {
        fill: #231f20;
      }

      .st7 {
        fill: #222226;
      }

      .st8 {
        fill: #988977;
      }

      .st9 {
        fill: #9a8b79;
      }

      .st10 {
        fill: #787574;
      }

      .st11 {
        fill: #d1cac0;
      }

      .st12 {
        fill: #e4ceaf;
      }

      .st13 {
        fill: #f5f0e8;
      }

      .st14 {
        fill: #ede6dc;
      }

      .st15 {
        fill: #7c7877;
      }

      .st16 {
        fill: #ac9c88;
      }

      .st17 {
        fill: #a2917c;
      }

      .st18 {
        fill: #ebe6de;
      }

      .st19 {
        fill: #2a2b2d;
      }

      .st20 {
        fill: #363435;
      }

      .st21 {
        fill: #949392;
      }

      .st22 {
        fill: #91908f;
      }

      .st23 {
        fill: #252527;
      }

      .st24 {
        fill: #d1cabf;
      }
    </style>
  </defs>
  <g id="background">
    <rect class="st15" width="1171" height="1341.1"/>
  </g>
  <g id="subject">
    <path id="clothing-base" class="st14" d="M376.4,1341.2l21.2-64.3,15.9-47.1,16.2-105.7,23.4-149.2c6.6-25.5,14.3-49.2,23.6-73.5l7.8-20.3,18.4-37.9c2.1-4.4,6.6-7.3,11.5-7.2s5.8-.1,8.7-.4c4.2-.3,8.4,1.5,11,4.8l2.9,3.7c.2.3.4.5.6.8l1,1.5c4.5,6.6,13.8,7.6,19.6,2l10.3-10,41.4-40.4,38.5-37.5,48.3-47.5c8.6-8.5,18.3-15.7,25.5-25.5l36.5-49.4c12-16.3,18.8-35,27.4-53.2s.7-1.4,1.2-2l1-1.5c1.9-2.9,5.6-5.5,9.6-6.9s6.7-.7,9.8.8l4.4,2.2,4.8.3c9.3.4,18.1,3.5,26.6,8.3l9,5.1c.9.5,1.7,1.1,2.4,1.7l95.2,87.4,100.3,84c.2.2.4.3.6.5l35.3,33.2,32.4,32.3c.5.5.9,1,1.3,1.6l48,66.4h0c1.8,2.4,3,5.2,3,8.3v434.4H376.4Z"/>
    <path id="face-base" class="st0" d="M580.6,270.5l110.9,101,39.8,64.2-4.1-14.7,7.7.6,5.7-10.1c.3-2-2.7-5.8-4.2-7.4l15-1.9,7.6-10.9c2.8-4,8.3-5.4,13.4-6.7,3.2,6,5.7,11.7,6.7,18.4,2.4,16.3,3,32.1,3,48.7s-.9,30-5.4,44.8c-2.6,8.7-8.1,16.1-12.8,24.4l23,60.2,1.5.4-1.7,2.4c-8.8,18.5-15.7,37.6-27.9,54.2l-36.5,49.4c-7.2,9.8-16.9,17-25.5,25.5l-48.3,47.5-38.5,37.5-41.4,40.4-21.3,20.6-9.9-14.6-7.6-9.5c-8.3.8-15.6,1.5-23.2.5-10.8-1.5-21.8-5.2-31.4-11.9s-8.9-8.4-12.5-13.1l-40.9-54-21.9-33.1-22.7-39.9-22.1-38.2c-12.1-20.9-22.7-41.9-30.9-64.8-6.5-18.4-14.6-35.9-18.9-54.3l-13.9-40-10.8-35.6s-10.1-48.3-12.6-70.7c-1.7-15.4-.1-29.8.3-45.2,3-2.3,5.9-3.9,9.4-5.1,0,0,146.7-61.8,159-67.2l20.8-3,38.2-3.5h14l52.8,8.2,18.2,6.5h-.1ZM488.9,355.3l1-1.8-1,1.8Z"/>
    <g id="face-details">
      <g id="nose">
        <path id="nose-shadow" class="st5" d="M423.3,677.8c0-2-.4-4.1-1.8-6.2l-13-20c-5.7-2.8-10.5-6.6-14.8-11.2-6.9-9-9.1-19.4-10-30.8l-4.9-66.9-3.5-37.7,10.5,10.7-2.1-27,4.1,4.2c4.9,26.2,9.3,51.8,11.8,78.6l-1,38c1,2.4,3.5,7.1,5.4,8.5,4.4,3.2,9.9,6,14.8,7l13.2,2.8-1,47.9"/>
        <path id="nostril" class="st20" d="M478,610.7h-23.9c7.6-5.1,16.7-6,23.9,0Z"/>
      </g>
      <g id="mouth">
        <path class="st5" d="M383.7,487.6l-1-1.3,1,1.3Z"/>
        <path class="st17" d="M467.4,698.4l2.1,1.8c-6.2,1.2-13,2.5-18.3,6.8s-6.2,10.2-4.1,15.9c6.2,16.6,30.7,15.6,48.7,11.9l-12.8,8.1c-14.9,9.5-36.1,5.1-45.5-7.6-8.9-12-11-18.3-4.8-31.8l34.6-5.2h0Z"/>
        <path class="st19" d="M527.4,682.7l10,.5h2.2l5.2,1.1c-11,2.9-21.7,5.5-31.9,6.3l-6.9-.8c-10.1,3.4-19.9,4.8-30.3,6.9l-8.2,1.6-34.6,5.2v-1.1c-1.1-2.2-2.5-6.1-1.7-8.7,1.3-4.1,6.4-7.1,10.4-6.7l15.1,1.6c8,4.1,24.6,3.3,33.7.4,6.7-2.2,12.8-5.4,19.5-5.7l17.8-.7h-.3Z"/>
        <path class="st1" d="M512.9,690.7l-5.9,2.1-37.5,7.4-2.1-1.8,8.2-1.6c10.5-2.1,20.2-3.5,30.3-6.9l6.9.8h0Z"/>
        <path class="st5" d="M539.6,683.3h-2.2l1.3-.3c.3,0,.6.2.9.3Z"/>
        <path class="st18" d="M509.6,683.4c-6.7.3-12.8,3.5-19.5,5.7-9.1,3-25.6,3.7-33.7-.4l20.5-4.7c10.8-2.3,22.2-1.1,32.6-.6h.1Z"/>
        <path class="st5" d="M423.3,677.8c-.1,6-4.7,11.6-.7,17.8s6,6.3,10,6.8c-.9-2.2-2.4-6.1-1.6-8.7,1.3-4.1,6.4-7.1,10.4-6.7l15.1,1.6,20.5-4.7c10.8-2.3,22.2-1.1,32.6-.6l17.8-.7-.3-1.4c0-.3-1-.4-1.6-.6l-40.9-7.9c-19.5-3.8-28.8,11.3-34.6,9.4l-18.9-6.5-7.8,2.1h0Z"/>
      </g>
      <g id="eyes">
        <g id="right_eye">
          <path class="st2" d="M567.4,446.2l3.3,3.2c-1.2,4-4.2,7.4-8,9.5l-16.1,8.9-1.3.6h-5.3l10.5-9.2-5.3-2c-4.2,5.5-9.8,8.5-16.9,9.6s-15.9-6.3-16.8-15.1c-10.5,3.1-18.9,8-26.9,15.2s-4.1,2-5.1,1.6c.4-1.5,2.2-3.8,3.2-5,5.4-6.3,10.8-13.1,18.7-16.9,19.3-9.4,47.5-11.8,65.9-.5h0Z"/>
          <path class="st4" d="M540.2,468.5c-1.8,0-26,9.9-47.4,6.9l-6.2-.9-8.4-.4,1.5-5.5c1,.4,4.1-.7,5.1-1.6,8-7.2,16.4-12.2,26.9-15.2.9,8.8,8.1,16.4,16.8,15.1s12.7-4.1,16.9-9.6l5.3,2-10.5,9.3h0Z"/>
          <path class="st8" d="M567.4,446.2c-18.4-11.3-46.5-8.9-65.9.5-7.9,3.8-13.4,10.6-18.7,16.9,0-.6-2.3-.6-3-.5l-11.5,2.1,16.5-14.3c14.8-12.8,33.9-13.9,53.6-14.3s27.7,1.9,28.9,9.6h0Z"/>
          <path class="st16" d="M540.2,468.5h4.3c-7.3,7.4-23.4,9.9-35.9,9.2l-16-.9c-1.9-.1-4.8-1.3-5.9-2.3l6.2.9c21.4,3,45.6-6.9,47.4-6.9h-.1Z"/>
          <path class="st16" d="M545.4,468.4l1.3-.6-1.3.6Z"/>
        </g>
        <g id="left_eye">
          <path class="st3" d="M349.8,514l-2.1,1.5-2.1,2.1-10.5,1.3-3.4.8h-7.2c-2.3,0-6.3-1.6-8.6-3,0-6,3.6-11.9,9.4-14.6l9.7-4.4c1.1,9.1,7.3,13.8,14.9,16.3h-.1Z"/>
          <path id="left_eye1" class="st7" d="M303,509c1-6.5,4.5-12.1,10.2-14.8,12.4-5.9,24.4-9.1,38.3-11.4l23.9,22.2-25.7,9.1c-7.5-2.6-13.7-7.2-14.9-16.3l-9.7,4.4c-5.9,2.7-9.4,8.6-9.4,14.6l-5.8,3.3-6.9-11.1h0Z"/>
          <path class="st9" d="M335.1,518.9l10.5-1.3c1.2-.2,2.2-.3,3.9,0-11.3,5.3-26.3,13.6-34.4,8.8l-4-1.7-1.1-4.7,5.8-3.3c2.3,1.4,6.3,3.1,8.6,3h7.2"/>
          <path class="st12" d="M303,509l-5.1-6.6c-4.1-5.2-6.8-11.6-6.8-18.1l6.4-5.8c13.3-6.7,27.6-4.6,41.3,0l12.7,4.2c-14,2.3-26,5.5-38.3,11.4s-9.2,8.3-10.2,14.8h0Z"/>
        </g>
      </g>
      <g id="eyebrows">
        <path class="st23" d="M529.9,411.5c-18.8,3.5-36,9.2-53.9,15l-31.6,14.7c-2.3,1.1-6,.2-8.9-.5-2.8-5.8-3.9-15.7,1.9-20.2s11.8-5.4,17.3-7.6l22-9,53-17,35.8,8.1c7,1.6,12.8,5.2,18.2,9.8l-2.4,6.8h-26.7c-7.7-.2-16.4-1.6-24.6,0h0Z"/>
        <path class="st6" d="M280.5,450.5l24.5,121.9-7.6-41.4M351.5,482.7l-12.7-4.2c-13.7-4.6-28.1-6.7-41.3,0l-6.4,5.8-10.6-33.8,16.6,1.7c5,.5,10.6-1.3,15.8-1.2,9,.2,18.3,1.9,27,4.6,6.6,2.1,11.4,8.4,17.2,11.4s15,7.3,22,12.3l3.6,7,1,1.3v1.1l2.2,27-10.5-10.7-23.9-22.2h0Z"/>
      </g>
      <path id="hair" class="st7" d="M324.1,580.4c8.2,22.9,18.8,43.8,30.9,64.8l22.1,38.2-6.8-2.3-23.3-11.7-9-19.1-23.4-44.4c-5.4-10.2-7.5-22.1-9.6-33.4l-7.6-41.4c-1.9-10.4-5-20.3-11-29.3-6.7-9.9-27.9-22-37.7-46.8l-5.8-10.1c-19.1-44.3-10.5-82.7-5.5-129.1-2-9.3-5-18-8.7-26.6-7.5-7.8-15.4-14.8-21.2-23.8s-13.5-24.1-18.9-37-4.7-16.1-6.9-24.2-1.9-11.2-2.6-17.4l12.8-7.5,51.6-28.2,16.9-35.3c11.7-6.6,23.3-12.5,35.5-18.3l50.8-24.1c31.4-9.4,62.1-18.4,94.3-24.5,6.6-1.2,13.7-1,20.5-.9,27.4.5,53.7,3.9,80.8,7.4,16.7,2.1,31.9,5.8,47.1,12.9l80.6,37.3c17.1,7.9,33.2,26.9,44.3,42.6,8.8,12.6,17.5,24.7,24.2,38.7,13.8,28.5,24.1,57.7,33.9,87.9s17,54,23.8,82.1c8.9,36.7,12,73.4,10.2,111-.9,17.5-.9,33.8.2,51.1s5.8,30.8,10,46.4l.2,13.1h-3.4l-1.4-.6-8-4.1c-6.1,0-12.8,3.7-15.7,7.9l-1.5-.4-23-60.2c4.7-8.3,10.2-15.8,12.8-24.4,4.5-14.8,5.4-29.5,5.4-44.8s-.6-32.4-3-48.7-3.5-12.5-6.7-18.4c-5,1.2-10.6,2.6-13.4,6.7l-7.6,10.9-15,1.9c1.5,1.6,4.4,5.4,4.2,7.4l-5.7,10.1-7.7-.6,4.1,14.7-9.4,2.7,12.7,16.3-6.7,2.9c3.3,6.6,6.4,12.6,8.4,19.1l4.8,15.6c1,3.3-.3,8,.4,11.5l4.3,21.7c3.8,19.2,5.7,28.5-7.2,47.2-9.7,9.3-22,13.9-32.5,21.7l-28.7,21.2c-1.7,1.3-4.9,2.6-6.6,2.5l-7.1-.5c-4.8-4.4-5.7-11-4.7-17.8l13.7-101c1.9-14.1,3.7-27.2,3.3-41.3s-2.9-16.9-6.4-24.8l-26-59c-5-11.4-17.9-23.4-29.1-29.7l-38.2-21.3,1.2-10.2-10.6-7.9,3.3-6c-7.1-12.7-4.1-23.1-7.7-34.6l-52.8-8.2h-14l-38.2,3.6-20.8,3c4.5,8.7,7.3,17.6,12.6,26.1l40,64.5.8.6-1,1.8-1-1.4-41.3-45.9c2,15.9,15.7,34.1,5.9,39.9l6.1,14.8-6.8,7.6,2.1,10.6-13.1-4.9,2.3,10.1-6.4,1.9,3.4,9.2-10.9-2.4,10.3,14.5c-5.5-1-10.8-1.9-15.1-4.4s-9.2-8.2-15.2-9.8l-41.7-11.7c-11.5-3.2-22.7-9.2-32.7-15.9l-57.3-38.1c-3.5,1.1-6.3,2.8-9.4,5.1-.5,15.4-2.1,29.8-.3,45.2,2.7,24,7.6,47.4,12.6,70.7l43.6,129.9v-.2Z"/>
    </g>
    <g id="clothing-details">
      <g id="hankerchief">
        <polygon class="st21" points="707.1 1264.5 717.1 1285.5 667.3 1285 673.6 1249.2 681.4 1217.1 707.1 1264.5"/>
        <polygon class="st10" points="742.7 1263.7 750.3 1286 717.1 1285.5 707.1 1264.5 712.7 1232.4 718.1 1211.8 742.7 1263.7"/>
        <polygon class="st22" points="750.3 1286 742.7 1263.7 759.9 1212.3 785.1 1286.2 750.3 1286"/>
      </g>
      <g id="flower">
        <path class="st13" d="M752.5,1056.6l.8,2c-.5,1.4-1.7,3.7-2.7,4.5l-6.1,5c-8.6,7-3.3,12.1-6.5,22.1l-5.9-2c-1-.3-3,2.7-3.2,3.8l-1.9,14.8c-5.7,3.8-13.2-3.2-14.6-1.2l-1.9,2.8c-2.9,4.3-6.6,9.3-12.3,9.4l-16.5.3-11.2,12.3c-1.5,1.6-7.4,1.1-8.4-.8l-5.8-10.4c-.6-1.2-1.6-3.1-2.6-3.2-3.6-.5-7.8,3.5-11,1.7s-2.7-3.5-3.2-5.4c-2.2-8.2-11,.6-11.9-11.1l-.8-11.2-12.8-4.5c-1.4-.5-3.8-2.8-4.2-4.3-1.1-4.6,5.1-9.2,6.3-17.1s-3.8-7.1-5-9.5c1.6-1.9,4.4-5.9,3.1-7.6l-5.9-7.8,4.7-7.3,13.7-17.7-.4-13.1,10.1-2.1c8.2-1.7.4-9.4,12.2-11.6l8.1-1.5,8.7-14.7c1.2-2,6.1-4.3,8.4-4.5l9.5,6.5c7.5,5.1,21.8-3.3,24.3,0,1.6,2.1,4.9,7.7,7.6,7.9l12.1.6,7.2,17.3,10.3,1.5,1.3,18.7c.6,3.4,6.1,6.7,9.3,9.4l-8.5,18c.9,3.3,3.5,7.9,5.5,10.2v-.2Z"/>
        <polygon class="st24" points="753.3 1058.7 752.5 1056.6 755.4 1055.2 753.3 1058.7"/>
      </g>
      <g id="shadows">
        <path class="st24" d="M456,1341h-12c29.6-121.5,61.2-242.1,95.7-362.6l2.7-109.7,23.9,97.8,16.5,70.8-44.7,106.5-46,109.9-36.2,87.3h0Z"/>
        <g>
          <rect class="st11" x="577.7" y="1201" width="173.4" height="2.4" transform="translate(-707.5162 1134.0814) rotate(-58.2286)"/>
          <path class="st11" d="M717.5,1117.3l-6.1,10.1-1-1,5.8-9.3.8-2.1c.2-.4,1.7.2,1.5.6l-1,1.6h0Z"/>
        </g>
        <polygon class="st24" points="755.2 1053.8 791.6 970.7 721.6 940.9 837.3 914 806.3 972.5 756.7 1054 755.2 1053.8"/>
      </g>
    </g>
  </g>
</svg>